<?xml version="1.0" encoding="UTF-8" standalone="no"?>
<!DOCTYPE svg PUBLIC "-//W3C//DTD SVG 1.1//EN"
"http://www.w3.org/Graphics/SVG/1.1/DTD/svg11.dtd">
<svg version="1.1" xmlns="http://www.w3.org/2000/svg"
xmlns:xlink="http://www.w3.org/1999/xlink" xml:space="preserve"
 width="629" height="496" viewBox="0 0 629 496">
 onmousemove="movetip(evt)" onmouseup="endmove()">
<rect x="0" y="0" width="100%" height="100%" style="fill:White;"/>
<script type="application/ecmascript"> <![CDATA[
var dragtipid = null; var dragcase = false; function init(evt){
if (window.svgDocument==null) svgDocument = evt.target.ownerDocument;
}
function movetip(evt){if (dragtipid!=null){ dragcase = true;
var tip=svgDocument.getElementById(dragtipid);
tip.setAttributeNS(null,"x",evt.clientX-2);
tip.setAttributeNS(null,"y",evt.clientY-2);
}}
function endmove(){dragtipid = null;}
function startmove(evt,id){dragtipid = id; dragcase = false;
var tip=svgDocument.getElementById(dragtipid);
tip.setAttributeNS(null,"x",evt.clientX-2);
tip.setAttributeNS(null,"y",evt.clientY-2);
}
function Showtip(evt,id){ dragtipid = null;
var tip=svgDocument.getElementById(id);
var vis=tip.getAttributeNS(null,"visibility");
if (vis=="hidden"){
tip.setAttributeNS(null,"x",evt.clientX-2);
tip.setAttributeNS(null,"y",evt.clientY-2);
tip.setAttributeNS(null,"visibility","visible");
}}
function Hidetip(id){ dragtipid = null; if (dragcase==false){
var tip=svgDocument.getElementById(id);
tip.setAttributeNS(null,"visibility","hidden");
}}
]]></script>
<defs><linearGradient id="activ1" x1="0%" y1="0%" x2="100%" y2="0%">
<stop offset="0%" style="stop-color:#FFFF00;stop-opacity:1"/>
<stop offset="100%" style="stop-color:#FFFFF0;stop-opacity:1"/>
</linearGradient></defs>
<g id="2002679691"><polygon points="322,71 622,71 622,166 322,166 "
style="fill:#F4D03F; stroke-width:1;stroke:Black;"/>
<polygon points="319,74 619,74 619,169 319,169 "
style="fill:#F4D03F; stroke-width:1;stroke:Black;"/>
<text style="font-family:Arial;font-size:12px;kerning:0;word-spacing:-1px;fill:Black;font-weight:bold;">
<tspan x="391" y="89">swmatr:Air et al. G105 (~5)</tspan>
</text>
<text style="font-family:Arial;font-size:11px;kerning:0;word-spacing:-1px;fill:Black;font-weight:bold;">
<tspan x="323" y="104">geo:Geometry (1)</tspan>
<tspan x="323" y="119">swmatr:Air (1)</tspan>
<tspan x="323" y="134">swpre:AtmosphericPrecipitation (1)</tspan>
<tspan x="323" y="149">swprop:SolarFlux (1)</tspan>
<tspan x="323" y="164">swwind:Wind (1)</tspan>
</text>
</g>
<g id="2002679702"><polygon points="319,10 619,10 619,55 319,55 "
style="fill:#F4D03F; stroke-width:1;stroke:Black;"/>
<text style="font-family:Arial;font-size:12px;kerning:0;word-spacing:-1px;fill:Black;font-weight:bold;">
<tspan x="410" y="25">dct:PeriodOfTime (1)</tspan>
</text>
</g>
<g id="2002679724"><polygon points="322,183 622,183 622,323 322,323 "
style="fill:#F4D03F; stroke-width:1;stroke:Black;"/>
<polygon points="319,186 619,186 619,326 319,326 "
style="fill:#F4D03F; stroke-width:1;stroke:Black;"/>
<text style="font-family:Arial;font-size:12px;kerning:0;word-spacing:-1px;fill:Black;font-weight:bold;">
<tspan x="378" y="201">aws:Thermistor et al. G104 (~7)</tspan>
</text>
<text style="font-family:Arial;font-size:11px;kerning:0;word-spacing:-1px;fill:Black;font-weight:bold;">
<tspan x="323" y="216">aws:AtmosphericPressureSensor (1)</tspan>
<tspan x="323" y="231">aws:CapacitiveThinFilmPolymer (1)</tspan>
<tspan x="323" y="246">aws:CupAnemometer (1)</tspan>
<tspan x="323" y="261">aws:Pyranometer (1)</tspan>
<tspan x="323" y="276">aws:Thermistor (1)</tspan>
<tspan x="323" y="291">aws:TippingBucketRainGaugeTbrgWithoutCorrection </tspan>
<tspan x="323" y="306">(1)</tspan>
<tspan x="323" y="321">aws:WindVane (1)</tspan>
</text>
</g>
<g id="2002679735"><polygon points="322,343 622,343 622,483 322,483 "
style="fill:#F4D03F; stroke-width:1;stroke:Black;"/>
<polygon points="319,346 619,346 619,486 319,486 "
style="fill:#F4D03F; stroke-width:1;stroke:Black;"/>
<text style="font-family:Arial;font-size:12px;kerning:0;word-spacing:-1px;fill:Black;font-weight:bold;">
<tspan x="375" y="361">time:Interval et al. G103 (~2.8e5)</tspan>
</text>
<text style="font-family:Arial;font-size:11px;kerning:0;word-spacing:-1px;fill:Black;font-weight:bold;">
<tspan x="323" y="376">geo:Feature (3)</tspan>
<tspan x="323" y="391">qudt:LinearVelocityUnit (1)</tspan>
<tspan x="323" y="406">qudt:QuantityValue (2736)</tspan>
<tspan x="323" y="421">qudt:SIDerivedUnit (1)</tspan>
<tspan x="323" y="436">sosa:FeatureOfInterest (5)</tspan>
<tspan x="323" y="451">sosa:Result (2736)</tspan>
<tspan x="323" y="466">sosa:Sensor (7)</tspan>
<tspan x="323" y="481">time:Interval (2.7e5)</tspan>
</text>
</g>
<g id="2002679713"><polygon points="10,235 310,235 310,280 10,280 "
style="fill:#F4D03F; stroke-width:1;stroke:Black;"/>
<text style="font-family:Arial;font-size:12px;kerning:0;word-spacing:-1px;fill:Black;font-weight:bold;">
<tspan x="111" y="250">sosa:Platform (1)</tspan>
</text>
</g>
</svg>
