<?xml version="1.0" encoding="UTF-8" standalone="no"?>
<!DOCTYPE svg PUBLIC "-//W3C//DTD SVG 1.1//EN"
"http://www.w3.org/Graphics/SVG/1.1/DTD/svg11.dtd">
<svg version="1.1" xmlns="http://www.w3.org/2000/svg"
xmlns:xlink="http://www.w3.org/1999/xlink" xml:space="preserve"
 width="840" height="607" viewBox="0 0 840 607">
 onmousemove="movetip(evt)" onmouseup="endmove()">
<rect x="0" y="0" width="100%" height="100%" style="fill:White;"/>
<script type="application/ecmascript"> <![CDATA[
var dragtipid = null; var dragcase = false; function init(evt){
if (window.svgDocument==null) svgDocument = evt.target.ownerDocument;
}
function movetip(evt){if (dragtipid!=null){ dragcase = true;
var tip=svgDocument.getElementById(dragtipid);
tip.setAttributeNS(null,"x",evt.clientX-2);
tip.setAttributeNS(null,"y",evt.clientY-2);
}}
function endmove(){dragtipid = null;}
function startmove(evt,id){dragtipid = id; dragcase = false;
var tip=svgDocument.getElementById(dragtipid);
tip.setAttributeNS(null,"x",evt.clientX-2);
tip.setAttributeNS(null,"y",evt.clientY-2);
}
function Showtip(evt,id){ dragtipid = null;
var tip=svgDocument.getElementById(id);
var vis=tip.getAttributeNS(null,"visibility");
if (vis=="hidden"){
tip.setAttributeNS(null,"x",evt.clientX-2);
tip.setAttributeNS(null,"y",evt.clientY-2);
tip.setAttributeNS(null,"visibility","visible");
}}
function Hidetip(id){ dragtipid = null; if (dragcase==false){
var tip=svgDocument.getElementById(id);
tip.setAttributeNS(null,"visibility","hidden");
}}
]]></script>
<defs><linearGradient id="activ1" x1="0%" y1="0%" x2="100%" y2="0%">
<stop offset="0%" style="stop-color:#FFFF00;stop-opacity:1"/>
<stop offset="100%" style="stop-color:#FFFFF0;stop-opacity:1"/>
</linearGradient></defs>
<g id="2002687997"><polygon points="301,16 601,16 601,96 301,96 "
style="fill:#F4D03F; stroke-width:1;stroke:Black;"/>
<text style="font-family:Arial;font-size:12px;kerning:0;word-spacing:-1px;fill:Black;font-weight:bold;">
<tspan x="412" y="31">sd:Service (1)</tspan>
</text>
<line x1="305" y1="34" x2="599" y2="34"
 style="stroke-width:1;stroke:Black;"/>
<text style="font-family:Arial;font-size:12px;kerning:0;word-spacing:-1px;fill:Black;">
<tspan x="305" y="46">rdf:type (1) [*]  -&gt; IRI</tspan>
<tspan x="305" y="61">sd:feature (2) [*] D -&gt; IRI</tspan>
<tspan x="305" y="76">sd:resultFormat (8) [*] D -&gt; IRI</tspan>
<tspan x="305" y="91">sd:supportedLanguage (1) [1] D -&gt; IRI</tspan>
</text>
</g>
<g id="2002688008"><polygon points="530,250 830,250 830,295 530,295 "
style="fill:#F4D03F; stroke-width:1;stroke:Black;"/>
<text style="font-family:Arial;font-size:12px;kerning:0;word-spacing:-1px;fill:Black;font-weight:bold;">
<tspan x="604" y="265">owl:AnnotationProperty (5)</tspan>
</text>
<line x1="534" y1="268" x2="828" y2="268"
 style="stroke-width:1;stroke:Black;"/>
<text style="font-family:Arial;font-size:12px;kerning:0;word-spacing:-1px;fill:Black;">
<tspan x="534" y="280">rdf:type (6) [*]  -&gt; IRI</tspan>
</text>
</g>
<g id="2002688030"><polygon points="511,130 811,130 811,225 511,225 "
style="fill:#F4D03F; stroke-width:1;stroke:Black;"/>
<text style="font-family:Arial;font-size:12px;kerning:0;word-spacing:-1px;fill:Black;font-weight:bold;">
<tspan x="615" y="145">oulad:Vle (6268)</tspan>
</text>
<line x1="515" y1="148" x2="809" y2="148"
 style="stroke-width:1;stroke:Black;"/>
<text style="font-family:Arial;font-size:12px;kerning:0;word-spacing:-1px;fill:Black;">
<tspan x="515" y="160">oulad:activity_type (6268) [1] D</tspan>
<tspan x="515" y="175">oulad:id_site (6268) [1] D</tspan>
<tspan x="515" y="190">oulad:week_from (1121) [1] D</tspan>
<tspan x="515" y="205">oulad:week_to (1121) [1] D</tspan>
<tspan x="515" y="220">rdf:type (6268) [*]  -&gt; IRI</tspan>
</text>
</g>
<g id="2002688052"><polygon points="49,148 349,148 349,228 49,228 "
style="fill:#F4D03F; stroke-width:1;stroke:Black;"/>
<text style="font-family:Arial;font-size:12px;kerning:0;word-spacing:-1px;fill:Black;font-weight:bold;">
<tspan x="145" y="163">oulad:Courses (22)</tspan>
</text>
<line x1="53" y1="166" x2="347" y2="166"
 style="stroke-width:1;stroke:Black;"/>
<text style="font-family:Arial;font-size:12px;kerning:0;word-spacing:-1px;fill:Black;">
<tspan x="53" y="178">oulad:code_module (22) [1] D</tspan>
<tspan x="53" y="193">oulad:code_presentation (22) [1] D</tspan>
<tspan x="53" y="208">oulad:length (22) [1] D</tspan>
<tspan x="53" y="223">rdf:type (22) [*]  -&gt; IRI</tspan>
</text>
</g>
<g id="2002688063"><polygon points="10,244 310,244 310,339 10,339 "
style="fill:#F4D03F; stroke-width:1;stroke:Black;"/>
<text style="font-family:Arial;font-size:12px;kerning:0;word-spacing:-1px;fill:Black;font-weight:bold;">
<tspan x="87" y="259">oulad:Assessments (206)</tspan>
</text>
<line x1="14" y1="262" x2="308" y2="262"
 style="stroke-width:1;stroke:Black;"/>
<text style="font-family:Arial;font-size:12px;kerning:0;word-spacing:-1px;fill:Black;">
<tspan x="14" y="274">oulad:assessment_type (206) [1] D</tspan>
<tspan x="14" y="289">oulad:date (206) [1] D</tspan>
<tspan x="14" y="304">oulad:id_assessment (206) [1] D</tspan>
<tspan x="14" y="319">oulad:weight (206) [1] D</tspan>
<tspan x="14" y="334">rdf:type (206) [*]  -&gt; IRI</tspan>
</text>
</g>
<g id="2002688074"><polygon points="466,487 766,487 766,597 466,597 "
style="fill:#F4D03F; stroke-width:1;stroke:Black;"/>
<text style="font-family:Arial;font-size:12px;kerning:0;word-spacing:-1px;fill:Black;font-weight:bold;">
<tspan x="570" y="502">owl:Ontology (1)</tspan>
</text>
<line x1="470" y1="505" x2="764" y2="505"
 style="stroke-width:1;stroke:Black;"/>
<text style="font-family:Arial;font-size:12px;kerning:0;word-spacing:-1px;fill:Black;">
<tspan x="470" y="517">owl:imports (1) [1] D -&gt; IRI</tspan>
<tspan x="470" y="532">owl:priorVersion (1) [1] D -&gt; IRI</tspan>
<tspan x="470" y="547">owl:versionInfo (1) [1] D</tspan>
<tspan x="470" y="562">rdf:type (1) [*]  -&gt; IRI</tspan>
<tspan x="470" y="577">rdfs:comment (1) [1] D</tspan>
<tspan x="470" y="592">rdfs:isDefinedBy (3) [*] D -&gt; IRI</tspan>
</text>
</g>
<g id="2002688041"><polygon points="109,523 409,523 409,568 109,568 "
style="fill:#F4D03F; stroke-width:1;stroke:Black;"/>
<text style="font-family:Arial;font-size:12px;kerning:0;word-spacing:-1px;fill:Black;font-weight:bold;">
<tspan x="188" y="538">owl:OntologyProperty (4)</tspan>
</text>
</g>
<g id="2002687986"><polygon points="110,426 410,426 410,491 110,491 "
style="fill:#F4D03F; stroke-width:1;stroke:Black;"/>
<text style="font-family:Arial;font-size:12px;kerning:0;word-spacing:-1px;fill:Black;font-weight:bold;">
<tspan x="214" y="441">rdf:Property (23)</tspan>
</text>
<line x1="114" y1="444" x2="408" y2="444"
 style="stroke-width:1;stroke:Black;"/>
<text style="font-family:Arial;font-size:12px;kerning:0;word-spacing:-1px;fill:Black;">
<tspan x="114" y="456">rdf:type (28) [*]  -&gt; IRI</tspan>
<tspan x="114" y="471">rdfs:label (23) [1] </tspan>
<tspan x="114" y="486">rdfs:subPropertyOf (2) [1] D -&gt; IRI</tspan>
</text>
</g>
<g id="2002688019"><polygon points="504,399 804,399 804,464 504,464 "
style="fill:#F4D03F; stroke-width:1;stroke:Black;"/>
<text style="font-family:Arial;font-size:12px;kerning:0;word-spacing:-1px;fill:Black;font-weight:bold;">
<tspan x="617" y="414">owl:Class (3)</tspan>
</text>
<line x1="508" y1="417" x2="802" y2="417"
 style="stroke-width:1;stroke:Black;"/>
<text style="font-family:Arial;font-size:12px;kerning:0;word-spacing:-1px;fill:Black;">
<tspan x="508" y="429">owl:unionOf (1) [1] D -&gt; IRI</tspan>
<tspan x="508" y="444">rdf:type (3) [*]  -&gt; IRI</tspan>
<tspan x="508" y="459">rdfs:label (2) [1] </tspan>
</text>
</g>
<g id="2002687959"><path d="M301,56 L206,56 202,54 200,50 200,16 202,12 206,10 451,10 451,16 "
style="fill:none;stroke-width:1;stroke:Black;"/>
<line x1="448" y1="10" x2="451" y2="16"
 style="stroke-width:1;stroke:Black;"/>
<line x1="454" y1="10" x2="451" y2="16"
 style="stroke-width:1;stroke:Black;"/>
<text style="font-family:Arial;font-size:12px;kerning:0;word-spacing:-1px;fill:Black;">
<tspan x="208" y="69">sd:url  DR</tspan>
<tspan x="208" y="84">sd:endpoint  DR</tspan>
</text>
</g>
<g id="2002687964"><path d="M511,176 L349,176 "
style="fill:none;stroke-width:1;stroke:Black;"/>
<line x1="355" y1="173" x2="349" y2="176"
 style="stroke-width:1;stroke:Black;"/>
<line x1="355" y1="179" x2="349" y2="176"
 style="stroke-width:1;stroke:Black;"/>
<text style="font-family:Arial;font-size:12px;kerning:0;word-spacing:-1px;fill:Black;">
<tspan x="361" y="189">oulad:vle_has_course  DR</tspan>
</text>
</g>
<g id="2002687979"><path d="M310,282 L499,282 503,280 505,276 505,208 503,204 499,202 349,202 "
style="fill:none;stroke-width:1;stroke:Black;"/>
<line x1="355" y1="199" x2="349" y2="202"
 style="stroke-width:1;stroke:Black;"/>
<line x1="355" y1="205" x2="349" y2="202"
 style="stroke-width:1;stroke:Black;"/>
<text style="font-family:Arial;font-size:12px;kerning:0;word-spacing:-1px;fill:Black;">
<tspan x="314" y="265">oulad:assessment_has_course  </tspan>
<tspan x="314" y="280">DR</tspan>
</text>
</g>
<g id="2002687984"><path d="M259,491 L259,523 "
style="fill:none;stroke-width:2;stroke:Fuchsia;"/>
<polygon points="264,501 259,491 254,501 "
style="fill:Silver;stroke-width:1;stroke:Black;"/>
<text style="font-family:Arial;font-size:12px;kerning:0;word-spacing:-1px;fill:Black;">
<tspan x="261" y="506"> </tspan>
</text>
</g>
<g id="2002687969"><path d="M410,458 L504,458 "
style="fill:none;stroke-width:1;stroke:Black;"/>
<line x1="498" y1="455" x2="504" y2="458"
 style="stroke-width:1;stroke:Black;"/>
<line x1="498" y1="461" x2="504" y2="458"
 style="stroke-width:1;stroke:Black;"/>
<text style="font-family:Arial;font-size:12px;kerning:0;word-spacing:-1px;fill:Black;">
<tspan x="414" y="441">rdfs:domain  D</tspan>
<tspan x="414" y="456">rdfs:range  D</tspan>
</text>
</g>
<g id="2002687974"><path d="M536,399 L536,352 538,348 542,346 741,346 745,348 747,352 747,399 "
style="fill:none;stroke-width:1;stroke:Black;"/>
<line x1="744" y1="393" x2="747" y2="399"
 style="stroke-width:1;stroke:Black;"/>
<line x1="750" y1="393" x2="747" y2="399"
 style="stroke-width:1;stroke:Black;"/>
<text style="font-family:Arial;font-size:12px;kerning:0;word-spacing:-1px;fill:Black;">
<tspan x="407" y="395">owl:complementOf  DR</tspan>
</text>
</g>
</svg>
