<?xml version="1.0" encoding="UTF-8" standalone="no"?>
<!DOCTYPE svg PUBLIC "-//W3C//DTD SVG 1.1//EN"
"http://www.w3.org/Graphics/SVG/1.1/DTD/svg11.dtd">
<svg version="1.1" xmlns="http://www.w3.org/2000/svg"
xmlns:xlink="http://www.w3.org/1999/xlink" xml:space="preserve"
 width="848" height="334" viewBox="0 0 848 334">
 onmousemove="movetip(evt)" onmouseup="endmove()">
<rect x="0" y="0" width="100%" height="100%" style="fill:White;"/>
<script type="application/ecmascript"> <![CDATA[
var dragtipid = null; var dragcase = false; function init(evt){
if (window.svgDocument==null) svgDocument = evt.target.ownerDocument;
}
function movetip(evt){if (dragtipid!=null){ dragcase = true;
var tip=svgDocument.getElementById(dragtipid);
tip.setAttributeNS(null,"x",evt.clientX-2);
tip.setAttributeNS(null,"y",evt.clientY-2);
}}
function endmove(){dragtipid = null;}
function startmove(evt,id){dragtipid = id; dragcase = false;
var tip=svgDocument.getElementById(dragtipid);
tip.setAttributeNS(null,"x",evt.clientX-2);
tip.setAttributeNS(null,"y",evt.clientY-2);
}
function Showtip(evt,id){ dragtipid = null;
var tip=svgDocument.getElementById(id);
var vis=tip.getAttributeNS(null,"visibility");
if (vis=="hidden"){
tip.setAttributeNS(null,"x",evt.clientX-2);
tip.setAttributeNS(null,"y",evt.clientY-2);
tip.setAttributeNS(null,"visibility","visible");
}}
function Hidetip(id){ dragtipid = null; if (dragcase==false){
var tip=svgDocument.getElementById(id);
tip.setAttributeNS(null,"visibility","hidden");
}}
]]></script>
<defs><linearGradient id="activ1" x1="0%" y1="0%" x2="100%" y2="0%">
<stop offset="0%" style="stop-color:#FFFF00;stop-opacity:1"/>
<stop offset="100%" style="stop-color:#FFFFF0;stop-opacity:1"/>
</linearGradient></defs>
<g id="2002681637"><polygon points="149,116 449,116 449,181 149,181 "
style="fill:#F4D03F; stroke-width:1;stroke:Black;"/>
<text style="font-family:Arial;font-size:12px;kerning:0;word-spacing:-1px;fill:Black;font-weight:bold;">
<tspan x="262" y="131">owl:Class (3)</tspan>
</text>
<line x1="153" y1="134" x2="447" y2="134"
 style="stroke-width:1;stroke:Black;"/>
<text style="font-family:Arial;font-size:12px;kerning:0;word-spacing:-1px;fill:Black;">
<tspan x="153" y="146">owl:unionOf (1) [1] D -&gt; IRI</tspan>
<tspan x="153" y="161">rdf:type (3) [*]  -&gt; IRI</tspan>
<tspan x="153" y="176">rdfs:label (2) [1] </tspan>
</text>
</g>
<g id="2002681648"><polygon points="521,198 821,198 821,243 521,243 "
style="fill:#F4D03F; stroke-width:1;stroke:Black;"/>
<text style="font-family:Arial;font-size:12px;kerning:0;word-spacing:-1px;fill:Black;font-weight:bold;">
<tspan x="600" y="213">owl:OntologyProperty (4)</tspan>
</text>
</g>
<g id="2002681670"><polygon points="327,16 627,16 627,96 327,96 "
style="fill:#F4D03F; stroke-width:1;stroke:Black;"/>
<text style="font-family:Arial;font-size:12px;kerning:0;word-spacing:-1px;fill:Black;font-weight:bold;">
<tspan x="438" y="31">sd:Service (1)</tspan>
</text>
<line x1="331" y1="34" x2="625" y2="34"
 style="stroke-width:1;stroke:Black;"/>
<text style="font-family:Arial;font-size:12px;kerning:0;word-spacing:-1px;fill:Black;">
<tspan x="331" y="46">rdf:type (1) [*]  -&gt; IRI</tspan>
<tspan x="331" y="61">sd:feature (2) [*] D -&gt; IRI</tspan>
<tspan x="331" y="76">sd:resultFormat (8) [*] D -&gt; IRI</tspan>
<tspan x="331" y="91">sd:supportedLanguage (1) [1] D -&gt; IRI</tspan>
</text>
</g>
<g id="2002681681"><polygon points="538,114 838,114 838,179 538,179 "
style="fill:#F4D03F; stroke-width:1;stroke:Black;"/>
<text style="font-family:Arial;font-size:12px;kerning:0;word-spacing:-1px;fill:Black;font-weight:bold;">
<tspan x="642" y="129">rdf:Property (23)</tspan>
</text>
<line x1="542" y1="132" x2="836" y2="132"
 style="stroke-width:1;stroke:Black;"/>
<text style="font-family:Arial;font-size:12px;kerning:0;word-spacing:-1px;fill:Black;">
<tspan x="542" y="144">rdf:type (28) [*]  -&gt; IRI</tspan>
<tspan x="542" y="159">rdfs:label (23) [1] </tspan>
<tspan x="542" y="174">rdfs:subPropertyOf (2) [1] D -&gt; IRI</tspan>
</text>
</g>
<g id="2002681659"><polygon points="156,214 456,214 456,324 156,324 "
style="fill:#F4D03F; stroke-width:1;stroke:Black;"/>
<text style="font-family:Arial;font-size:12px;kerning:0;word-spacing:-1px;fill:Black;font-weight:bold;">
<tspan x="260" y="229">owl:Ontology (1)</tspan>
</text>
<line x1="160" y1="232" x2="454" y2="232"
 style="stroke-width:1;stroke:Black;"/>
<text style="font-family:Arial;font-size:12px;kerning:0;word-spacing:-1px;fill:Black;">
<tspan x="160" y="244">owl:imports (1) [1] D -&gt; IRI</tspan>
<tspan x="160" y="259">owl:priorVersion (1) [1] D -&gt; IRI</tspan>
<tspan x="160" y="274">owl:versionInfo (1) [1] D</tspan>
<tspan x="160" y="289">rdf:type (1) [*]  -&gt; IRI</tspan>
<tspan x="160" y="304">rdfs:comment (1) [1] D</tspan>
<tspan x="160" y="319">rdfs:isDefinedBy (3) [*] D -&gt; IRI</tspan>
</text>
</g>
<g id="2002681692"><polygon points="513,268 813,268 813,313 513,313 "
style="fill:#F4D03F; stroke-width:1;stroke:Black;"/>
<text style="font-family:Arial;font-size:12px;kerning:0;word-spacing:-1px;fill:Black;font-weight:bold;">
<tspan x="587" y="283">owl:AnnotationProperty (5)</tspan>
</text>
<line x1="517" y1="286" x2="811" y2="286"
 style="stroke-width:1;stroke:Black;"/>
<text style="font-family:Arial;font-size:12px;kerning:0;word-spacing:-1px;fill:Black;">
<tspan x="517" y="298">rdf:type (6) [*]  -&gt; IRI</tspan>
</text>
</g>
<g id="2002681620"><path d="M327,56 L232,56 228,54 226,50 226,16 228,12 232,10 477,10 477,16 "
style="fill:none;stroke-width:1;stroke:Black;"/>
<line x1="474" y1="10" x2="477" y2="16"
 style="stroke-width:1;stroke:Black;"/>
<line x1="480" y1="10" x2="477" y2="16"
 style="stroke-width:1;stroke:Black;"/>
<text style="font-family:Arial;font-size:12px;kerning:0;word-spacing:-1px;fill:Black;">
<tspan x="234" y="69">sd:url  DR</tspan>
<tspan x="234" y="84">sd:endpoint  DR</tspan>
</text>
</g>
<g id="2002681625"><path d="M538,147 L449,147 "
style="fill:none;stroke-width:1;stroke:Black;"/>
<line x1="455" y1="144" x2="449" y2="147"
 style="stroke-width:1;stroke:Black;"/>
<line x1="455" y1="150" x2="449" y2="147"
 style="stroke-width:1;stroke:Black;"/>
<text style="font-family:Arial;font-size:12px;kerning:0;word-spacing:-1px;fill:Black;">
<tspan x="453" y="160">rdfs:domain  D</tspan>
<tspan x="453" y="175">rdfs:range  D</tspan>
</text>
</g>
<g id="2002681630"><path d="M149,149 L16,149 12,147 10,143 10,116 12,112 16,110 299,110 299,116 "
style="fill:none;stroke-width:1;stroke:Black;"/>
<line x1="296" y1="110" x2="299" y2="116"
 style="stroke-width:1;stroke:Black;"/>
<line x1="302" y1="110" x2="299" y2="116"
 style="stroke-width:1;stroke:Black;"/>
<text style="font-family:Arial;font-size:12px;kerning:0;word-spacing:-1px;fill:Black;">
<tspan x="18" y="162">owl:complementOf  DR</tspan>
</text>
</g>
<g id="2002681635"><path d="M680,179 L680,198 "
style="fill:none;stroke-width:2;stroke:Fuchsia;"/>
<polygon points="685,189 680,179 675,189 "
style="fill:Silver;stroke-width:1;stroke:Black;"/>
<text style="font-family:Arial;font-size:12px;kerning:0;word-spacing:-1px;fill:Black;">
<tspan x="682" y="194"> </tspan>
</text>
</g>
</svg>
