<?xml version="1.0" encoding="UTF-8" standalone="no"?>
<!DOCTYPE svg PUBLIC "-//W3C//DTD SVG 1.1//EN"
"http://www.w3.org/Graphics/SVG/1.1/DTD/svg11.dtd">
<svg version="1.1" xmlns="http://www.w3.org/2000/svg"
xmlns:xlink="http://www.w3.org/1999/xlink" xml:space="preserve"
 width="1412" height="861" viewBox="0 0 1412 861">
 onmousemove="movetip(evt)" onmouseup="endmove()">
<rect x="0" y="0" width="100%" height="100%" style="fill:White;"/>
<script type="application/ecmascript"> <![CDATA[
var dragtipid = null; var dragcase = false; function init(evt){
if (window.svgDocument==null) svgDocument = evt.target.ownerDocument;
}
function movetip(evt){if (dragtipid!=null){ dragcase = true;
var tip=svgDocument.getElementById(dragtipid);
tip.setAttributeNS(null,"x",evt.clientX-2);
tip.setAttributeNS(null,"y",evt.clientY-2);
}}
function endmove(){dragtipid = null;}
function startmove(evt,id){dragtipid = id; dragcase = false;
var tip=svgDocument.getElementById(dragtipid);
tip.setAttributeNS(null,"x",evt.clientX-2);
tip.setAttributeNS(null,"y",evt.clientY-2);
}
function Showtip(evt,id){ dragtipid = null;
var tip=svgDocument.getElementById(id);
var vis=tip.getAttributeNS(null,"visibility");
if (vis=="hidden"){
tip.setAttributeNS(null,"x",evt.clientX-2);
tip.setAttributeNS(null,"y",evt.clientY-2);
tip.setAttributeNS(null,"visibility","visible");
}}
function Hidetip(id){ dragtipid = null; if (dragcase==false){
var tip=svgDocument.getElementById(id);
tip.setAttributeNS(null,"visibility","hidden");
}}
]]></script>
<defs><linearGradient id="activ1" x1="0%" y1="0%" x2="100%" y2="0%">
<stop offset="0%" style="stop-color:#FFFF00;stop-opacity:1"/>
<stop offset="100%" style="stop-color:#FFFFF0;stop-opacity:1"/>
</linearGradient></defs>
<g id="2002681961"><polygon points="317,461 497,461 497,509 317,509 "
style="fill:#F4D03F; stroke-width:1;stroke:Black;"/>
<text style="font-family:Arial;font-size:7px;kerning:0;word-spacing:-1px;fill:Black;font-weight:bold;">
<tspan x="362" y="471">owl:DatatypeProperty (14)</tspan>
</text>
<line x1="319" y1="472" x2="496" y2="472"
 style="stroke-width:1;stroke:Black;"/>
<text style="font-family:Arial;font-size:7px;kerning:0;word-spacing:-1px;fill:Black;">
<tspan x="319" y="479">rdf:type (24) [*]  -&gt; IRI</tspan>
<tspan x="319" y="488">rdfs:comment (12) [*] </tspan>
<tspan x="319" y="497">rdfs:domain (14) [1]  -&gt; IRI</tspan>
<tspan x="319" y="506">rdfs:label (27) [*] </tspan>
</text>
</g>
<g id="2002681994"><polygon points="294,530 474,530 474,557 294,557 "
style="fill:#F4D03F; stroke-width:1;stroke:Black;"/>
<text style="font-family:Arial;font-size:7px;kerning:0;word-spacing:-1px;fill:Black;font-weight:bold;">
<tspan x="336" y="540">owl:FunctionalProperty (10)</tspan>
</text>
</g>
<g id="2002681917"><polygon points="576,238 756,238 756,295 576,295 "
style="fill:#F4D03F; stroke-width:1;stroke:Black;"/>
<text style="font-family:Arial;font-size:7px;kerning:0;word-spacing:-1px;fill:Black;font-weight:bold;">
<tspan x="623" y="247">owl:ObjectProperty (159)</tspan>
</text>
<line x1="578" y1="249" x2="755" y2="249"
 style="stroke-width:1;stroke:Black;"/>
<text style="font-family:Arial;font-size:7px;kerning:0;word-spacing:-1px;fill:Black;">
<tspan x="578" y="256">dct:created (1) [1] </tspan>
<tspan x="578" y="265">rdf:type (173) [*]  -&gt; IRI</tspan>
<tspan x="578" y="274">rdfs:comment (478) [*] </tspan>
<tspan x="578" y="283">rdfs:domain (22) [1]  -&gt; IRI</tspan>
<tspan x="578" y="292">rdfs:label (542) [*] </tspan>
</text>
</g>
<g id="2002681906"><polygon points="407,332 587,332 587,368 407,368 "
style="fill:#F4D03F; stroke-width:1;stroke:Black;"/>
<text style="font-family:Arial;font-size:7px;kerning:0;word-spacing:-1px;fill:Black;font-weight:bold;">
<tspan x="469" y="342">rdfs:Datatype (4)</tspan>
</text>
<line x1="410" y1="343" x2="586" y2="343"
 style="stroke-width:1;stroke:Black;"/>
<text style="font-family:Arial;font-size:7px;kerning:0;word-spacing:-1px;fill:Black;">
<tspan x="410" y="350">rdf:type (4) [*]  -&gt; IRI</tspan>
</text>
</g>
<g id="2002681983"><polygon points="76,308 256,308 256,335 76,335 "
style="fill:#F4D03F; stroke-width:1;stroke:Black;"/>
<text style="font-family:Arial;font-size:7px;kerning:0;word-spacing:-1px;fill:Black;font-weight:bold;">
<tspan x="147" y="318">rdf:List (17)</tspan>
</text>
<line x1="79" y1="319" x2="255" y2="319"
 style="stroke-width:1;stroke:Black;"/>
<text style="font-family:Arial;font-size:7px;kerning:0;word-spacing:-1px;fill:Black;">
<tspan x="79" y="326">rdf:type (17) [*]  -&gt; IRI</tspan>
</text>
</g>
<g id="2002681895"><polygon points="31,442 211,442 211,481 31,481 "
style="fill:#F4D03F; stroke-width:1;stroke:Black;"/>
<text style="font-family:Arial;font-size:7px;kerning:0;word-spacing:-1px;fill:Black;font-weight:bold;">
<tspan x="97" y="451">owl:Class (22)</tspan>
</text>
<line x1="34" y1="453" x2="210" y2="453"
 style="stroke-width:1;stroke:Black;"/>
<text style="font-family:Arial;font-size:7px;kerning:0;word-spacing:-1px;fill:Black;">
<tspan x="34" y="460">owl:complementOf (20) [1] D -&gt; IRI</tspan>
<tspan x="34" y="469">owl:unionOf (2) [*]  -&gt; IRI</tspan>
<tspan x="34" y="478">rdf:type (22) [*]  -&gt; IRI</tspan>
</text>
</g>
<g id="2002681873"><polygon points="731,404 911,404 911,511 731,511 "
style="fill:#F4D03F; stroke-width:1;stroke:Black;"/>
<text style="font-family:Arial;font-size:7px;kerning:0;word-spacing:-1px;fill:Black;font-weight:bold;">
<tspan x="786" y="413">skosxl:Label (1.1e6)</tspan>
</text>
<line x1="733" y1="415" x2="910" y2="415"
 style="stroke-width:1;stroke:Black;"/>
<text style="font-family:Arial;font-size:7px;kerning:0;word-spacing:-1px;fill:Black;">
<tspan x="733" y="422">aimsa:hasTermType (2.7e5) [*] D</tspan>
<tspan x="733" y="431">dct:created (1.1e6) [1] </tspan>
<tspan x="733" y="440">dct:modified (1.7e5) [1] </tspan>
<tspan x="733" y="449">owl:deprecated (410) [1] </tspan>
<tspan x="733" y="458">rdf:type (1.1e6) [*]  -&gt; IRI</tspan>
<tspan x="733" y="467">skos:notation (1.1e6) [1] D</tspan>
<tspan x="733" y="476">skosxl:literalForm (1.1e6) [1] </tspan>
<tspan x="733" y="485">void:inDataset (1.1e6) [1]  -&gt; IRI</tspan>
</text>
</g>
<g id="2002681950"><polygon points="979,89 1159,89 1159,706 979,706 "
style="fill:#F4D03F; stroke-width:1;stroke:Black;"/>
<text style="font-family:Arial;font-size:7px;kerning:0;word-spacing:-1px;fill:Black;font-weight:bold;">
<tspan x="1032" y="99">skos:Concept (4.1e4)</tspan>
</text>
<line x1="981" y1="100" x2="1157" y2="100"
 style="stroke-width:1;stroke:Black;"/>
<text style="font-family:Arial;font-size:7px;kerning:0;word-spacing:-1px;fill:Black;">
<tspan x="981" y="107">aimsa:hasCodeISO3Country (220) [1] D</tspan>
<tspan x="981" y="116">aimsa:isPartOfSubvocabulary (1965) [*] D</tspan>
<tspan x="981" y="125">aimsa:m49Code (280) [1] </tspan>
<tspan x="981" y="134">aimst:labelToRemoveValue (6) [1] D</tspan>
<tspan x="981" y="143">aimst:newAltLabelValue (1) [1] D</tspan>
<tspan x="981" y="152">aimst:oldAltLabelValue (1) [1] D</tspan>
<tspan x="981" y="161">aimst:updateDate (7) [1] D</tspan>
<tspan x="981" y="170">dct:created (4.1e4) [1] </tspan>
<tspan x="981" y="179">dct:modified (4.1e4) [1] </tspan>
<tspan x="981" y="188">owl:deprecated (60) [1] </tspan>
<tspan x="981" y="197">rdf:type (4.1e4) [*]  -&gt; IRI</tspan>
<tspan x="981" y="206">skos:altLabel (1.7e5) [*] </tspan>
<tspan x="981" y="215">skos:broadMatch (262) [*] D -&gt; IRI</tspan>
<tspan x="981" y="224">skos:closeMatch (1.4e4) [*] D -&gt; IRI</tspan>
<tspan x="981" y="233">skos:definition (1.3e4) [*] D -&gt; IRI</tspan>
<tspan x="981" y="242">skos:editorialNote (1.1e4) [*] D</tspan>
<tspan x="981" y="251">skos:exactMatch (3.2e4) [*]  -&gt; IRI</tspan>
<tspan x="981" y="260">skos:example (3) [*] D</tspan>
<tspan x="981" y="269">skos:historyNote (283) [*] D</tspan>
<tspan x="981" y="278">skos:narrowMatch (73) [*] D -&gt; IRI</tspan>
<tspan x="981" y="287">skos:note (29) [*] D</tspan>
<tspan x="981" y="296">skos:prefLabel (9.8e5) [*] </tspan>
<tspan x="981" y="305">skos:scopeNote (1.7e4) [*] D</tspan>
<tspan x="981" y="314">void:inDataset (4.1e4) [1]  -&gt; IRI</tspan>
</text>
</g>
<g id="2002681862"><polygon points="542,513 722,513 722,553 542,553 "
style="fill:#F4D03F; stroke-width:1;stroke:Black;"/>
<polygon points="541,515 721,515 721,554 541,554 "
style="fill:#F4D03F; stroke-width:1;stroke:Black;"/>
<text style="font-family:Arial;font-size:7px;kerning:0;word-spacing:-1px;fill:Black;font-weight:bold;">
<tspan x="546" y="524">owl:SymmetricProperty or owl:TransitiveProperty </tspan>
<tspan x="611" y="534">G101 (~14)</tspan>
</text>
<text style="font-family:Arial;font-size:7px;kerning:0;word-spacing:-1px;fill:Black;font-weight:bold;">
<tspan x="543" y="542">owl:SymmetricProperty (12)</tspan>
<tspan x="543" y="551">owl:TransitiveProperty (2)</tspan>
</text>
</g>
<g id="2002681972"><polygon points="978,788 1158,788 1158,854 978,854 "
style="fill:#F4D03F; stroke-width:1;stroke:Black;"/>
<text style="font-family:Arial;font-size:7px;kerning:0;word-spacing:-1px;fill:Black;font-weight:bold;">
<tspan x="1042" y="797">foaf:Image (60)</tspan>
</text>
<line x1="980" y1="799" x2="1157" y2="799"
 style="stroke-width:1;stroke:Black;"/>
<text style="font-family:Arial;font-size:7px;kerning:0;word-spacing:-1px;fill:Black;">
<tspan x="980" y="806">dct:created (60) [1] </tspan>
<tspan x="980" y="815">dct:modified (49) [1] </tspan>
<tspan x="980" y="824">dct:source (60) [1]  -&gt; IRI</tspan>
<tspan x="980" y="833">rdf:type (60) [*]  -&gt; IRI</tspan>
<tspan x="980" y="842">rdf:value (60) [1] </tspan>
<tspan x="980" y="851">rdfs:comment (60) [*] </tspan>
</text>
</g>
<g id="2002681939"><polygon points="667,780 847,780 847,855 667,855 "
style="fill:#F4D03F; stroke-width:1;stroke:Black;"/>
<text style="font-family:Arial;font-size:7px;kerning:0;word-spacing:-1px;fill:Black;font-weight:bold;">
<tspan x="724" y="789">voaf:Vocabulary (1)</tspan>
</text>
<line x1="669" y1="791" x2="845" y2="791"
 style="stroke-width:1;stroke:Black;"/>
<text style="font-family:Arial;font-size:7px;kerning:0;word-spacing:-1px;fill:Black;">
<tspan x="669" y="798">dc:creator (6) [*] D</tspan>
<tspan x="669" y="807">dc:rights (1) [1] D</tspan>
<tspan x="669" y="816">dct:creator (1) [1] D -&gt; IRI</tspan>
<tspan x="669" y="825">dct:licence (1) [1] D -&gt; IRI</tspan>
<tspan x="669" y="834">dct:modified (1) [1] </tspan>
<tspan x="669" y="843">voaf:classNumber (1) [1] D</tspan>
<tspan x="669" y="852">voaf:propertyNumber (1) [1] D</tspan>
</text>
</g>
<g id="2002681884"><polygon points="526,605 706,605 706,686 526,686 "
style="fill:#F4D03F; stroke-width:1;stroke:Black;"/>
<text style="font-family:Arial;font-size:7px;kerning:0;word-spacing:-1px;fill:Black;font-weight:bold;">
<tspan x="572" y="614">skos:ConceptScheme (1)</tspan>
</text>
<line x1="528" y1="616" x2="704" y2="616"
 style="stroke-width:1;stroke:Black;"/>
<text style="font-family:Arial;font-size:7px;kerning:0;word-spacing:-1px;fill:Black;">
<tspan x="528" y="623">dct:modified (1) [1] </tspan>
<tspan x="528" y="632">rdf:type (1) [*]  -&gt; IRI</tspan>
<tspan x="528" y="641">skos:prefLabel (1) [*] </tspan>
<tspan x="528" y="650">void:inDataset (1) [1]  -&gt; IRI</tspan>
</text>
</g>
<g id="2002681928"><polygon points="382,797 562,797 562,836 382,836 "
style="fill:#F4D03F; stroke-width:1;stroke:Black;"/>
<text style="font-family:Arial;font-size:7px;kerning:0;word-spacing:-1px;fill:Black;font-weight:bold;">
<tspan x="444" y="807">owl:Ontology (2)</tspan>
</text>
<line x1="384" y1="808" x2="560" y2="808"
 style="stroke-width:1;stroke:Black;"/>
<text style="font-family:Arial;font-size:7px;kerning:0;word-spacing:-1px;fill:Black;">
<tspan x="384" y="815">rdf:type (3) [*]  -&gt; IRI</tspan>
</text>
</g>
<g id="2002681761"><path d="M979,437 L911,437 "
style="fill:none;stroke-width:1;stroke:Black;"/>
<line x1="914" y1="435" x2="911" y2="437"
 style="stroke-width:1;stroke:Black;"/>
<line x1="914" y1="439" x2="911" y2="437"
 style="stroke-width:1;stroke:Black;"/>
<text style="font-family:Arial;font-size:7px;kerning:0;word-spacing:-1px;fill:Black;">
<tspan x="914" y="444">skosxl:prefLabel  R</tspan>
<tspan x="914" y="453">skosxl:altLabel  R</tspan>
</text>
</g>
<g id="2002681781"><path d="M576,248 L505,248 502,247 501,244 501,238 502,236 505,235 580,235 580,238 "
style="fill:none;stroke-width:1;stroke:Black;"/>
<line x1="578" y1="235" x2="580" y2="238"
 style="stroke-width:1;stroke:Black;"/>
<line x1="581" y1="235" x2="580" y2="238"
 style="stroke-width:1;stroke:Black;"/>
<text style="font-family:Arial;font-size:7px;kerning:0;word-spacing:-1px;fill:Black;">
<tspan x="509" y="255">owl:inverseOf  DR</tspan>
<tspan x="509" y="264">rdfs:subPropertyOf  </tspan>
</text>
</g>
<g id="2002681821"><path d="M317,478 L211,478 "
style="fill:none;stroke-width:1;stroke:Black;"/>
<line x1="215" y1="476" x2="211" y2="478"
 style="stroke-width:1;stroke:Black;"/>
<line x1="215" y1="479" x2="211" y2="478"
 style="stroke-width:1;stroke:Black;"/>
<text style="font-family:Arial;font-size:7px;kerning:0;word-spacing:-1px;fill:Black;">
<tspan x="278" y="485">rdfs:range  </tspan>
</text>
</g>
<g id="2002681836"><path d="M497,487 L587,487 590,485 591,483 591,295 "
style="fill:none;stroke-width:1;stroke:Black;"/>
<line x1="589" y1="299" x2="591" y2="295"
 style="stroke-width:1;stroke:Black;"/>
<line x1="593" y1="299" x2="591" y2="295"
 style="stroke-width:1;stroke:Black;"/>
<text style="font-family:Arial;font-size:7px;kerning:0;word-spacing:-1px;fill:Black;">
<tspan x="500" y="485">rdfs:subPropertyOf  </tspan>
</text>
</g>
<g id="2002681846"><path d="M1068,706 L1068,788 "
style="fill:none;stroke-width:1;stroke:Black;"/>
<line x1="1066" y1="784" x2="1068" y2="788"
 style="stroke-width:1;stroke:Black;"/>
<line x1="1070" y1="784" x2="1068" y2="788"
 style="stroke-width:1;stroke:Black;"/>
<text style="font-family:Arial;font-size:7px;kerning:0;word-spacing:-1px;fill:Black;">
<tspan x="1070" y="715">foaf:depiction  DR</tspan>
</text>
</g>
<g id="2002681858"><path d="M384,509 L384,530 "
style="fill:none;stroke-width:1;stroke:Fuchsia;"/>
<polygon points="387,515 384,509 381,515 "
style="fill:Silver;stroke-width:1;stroke:Black;"/>
<text style="font-family:Arial;font-size:7px;kerning:0;word-spacing:-1px;fill:Black;">
<tspan x="386" y="518"> </tspan>
</text>
</g>
<g id="2002681851"><path d="M576,272 L38,272 36,274 35,276 35,442 "
style="fill:none;stroke-width:1;stroke:Black;"/>
<line x1="33" y1="439" x2="35" y2="442"
 style="stroke-width:1;stroke:Black;"/>
<line x1="37" y1="439" x2="35" y2="442"
 style="stroke-width:1;stroke:Black;"/>
<text style="font-family:Arial;font-size:7px;kerning:0;word-spacing:-1px;fill:Black;">
<tspan x="537" y="280">rdfs:range  </tspan>
</text>
</g>
<g id="2002681796"><path d="M706,624 L802,624 805,623 806,620 806,511 "
style="fill:none;stroke-width:1;stroke:Black;"/>
<line x1="804" y1="514" x2="806" y2="511"
 style="stroke-width:1;stroke:Black;"/>
<line x1="808" y1="514" x2="806" y2="511"
 style="stroke-width:1;stroke:Black;"/>
<text style="font-family:Arial;font-size:7px;kerning:0;word-spacing:-1px;fill:Black;">
<tspan x="708" y="623">skosxl:prefLabel  R</tspan>
</text>
</g>
<g id="2002681811"><path d="M1159,703 L1402,703 1404,701 1405,699 1405,58 1404,55 1402,54 986,54 983,55 982,58 982,89 "
style="fill:none;stroke-width:1;stroke:Black;"/>
<line x1="980" y1="86" x2="982" y2="89"
 style="stroke-width:1;stroke:Black;"/>
<line x1="984" y1="86" x2="982" y2="89"
 style="stroke-width:1;stroke:Black;"/>
<text style="font-family:Arial;font-size:7px;kerning:0;word-spacing:-1px;fill:Black;">
<tspan x="1161" y="98">aimsa:isTaxonomicRankOf  DR</tspan>
<tspan x="1161" y="107">aimsa:hasTaxonomicRank  DR</tspan>
<tspan x="1161" y="116">aimsa:isIncludedIn  DR</tspan>
<tspan x="1161" y="125">aimsa:includes  DR</tspan>
<tspan x="1161" y="134">aimsa:isUsedAs  DR</tspan>
<tspan x="1161" y="143">aimsa:isUseOf  DR</tspan>
<tspan x="1161" y="152">aimsa:affects  DR</tspan>
<tspan x="1161" y="161">aimsa:isAffectedBy  DR</tspan>
<tspan x="1161" y="170">aimsa:hasPathogen  DR</tspan>
<tspan x="1161" y="179">aimsa:isPathogenOf  DR</tspan>
<tspan x="1161" y="188">aimsa:makeUseOf  DR</tspan>
<tspan x="1161" y="197">aimsa:isUsedIn  DR</tspan>
<tspan x="1161" y="206">aimsa:hasComponent  DR</tspan>
<tspan x="1161" y="215">aimsa:isComponentOf  DR</tspan>
<tspan x="1161" y="224">aimsa:produces  DR</tspan>
<tspan x="1161" y="233">aimsa:isProducedBy  DR</tspan>
<tspan x="1161" y="242">aimsa:causes  DR</tspan>
<tspan x="1161" y="251">aimsa:isCausedBy  DR</tspan>
<tspan x="1161" y="260">aimsa:spatiallyIncludes  DR</tspan>
<tspan x="1161" y="269">aimsa:isSpatiallyIncludedIn  DR</tspan>
<tspan x="1161" y="278">aimsa:hasMember  DR</tspan>
<tspan x="1161" y="287">aimsa:isMemberOf  DR</tspan>
<tspan x="1161" y="296">aimsa:hasObjectOfActivity  DR</tspan>
<tspan x="1161" y="305">aimsa:isObjectOfActivity  DR</tspan>
<tspan x="1161" y="314">aimsa:isProcessFor  DR</tspan>
<tspan x="1161" y="323">aimsa:usesProcess  DR</tspan>
<tspan x="1161" y="332">aimsa:isPropertyOf  DR</tspan>
<tspan x="1161" y="341">aimsa:hasProperty  DR</tspan>
<tspan x="1161" y="350">aimsa:study  DR</tspan>
<tspan x="1161" y="359">aimsa:isSourceOf  DR</tspan>
<tspan x="1161" y="368">aimsa:isStudiedBy  DR</tspan>
<tspan x="1161" y="377">aimsa:isDerivedFrom  DR</tspan>
<tspan x="1161" y="386">aimsa:compose  DR</tspan>
<tspan x="1161" y="395">aimsa:isComposedOf  DR</tspan>
<tspan x="1161" y="404">aimsa:isAchievedByMeansOf  DR</tspan>
<tspan x="1161" y="413">aimsa:hasGoalOrProcess  DR</tspan>
<tspan x="1161" y="422">aimsa:isMadeFrom  DR</tspan>
<tspan x="1161" y="431">aimsa:isUsedToMake  DR</tspan>
<tspan x="1161" y="440">aimsa:productOf  DR</tspan>
<tspan x="1161" y="449">aimsa:hasProduct  DR</tspan>
<tspan x="1161" y="458">aimsa:hasCommonNameConcept  </tspan>
<tspan x="1161" y="467">DR</tspan>
<tspan x="1161" y="476">aimsa:hasTaxonomicConcept  DR</tspan>
<tspan x="1161" y="485">aimsa:afflicts  DR</tspan>
<tspan x="1161" y="494">aimsa:isAfflictedBy  DR</tspan>
<tspan x="1161" y="503">aimsa:isMeasuredBy  DR</tspan>
<tspan x="1161" y="512">aimsa:measures  DR</tspan>
<tspan x="1161" y="521">aimsa:isPartOf  DR</tspan>
<tspan x="1161" y="530">aimsa:hasPart  DR</tspan>
<tspan x="1161" y="539">aimsa:hasDisease  DR</tspan>
<tspan x="1161" y="548">aimsa:isDiseaseFor  DR</tspan>
<tspan x="1161" y="557">aimsa:hasType  DR</tspan>
<tspan x="1161" y="566">aimsa:typeOf  DR</tspan>
<tspan x="1161" y="575">aimsa:hasPest  DR</tspan>
<tspan x="1161" y="584">aimsa:pestOf  DR</tspan>
<tspan x="1161" y="593">aimsa:surrounds  DR</tspan>
<tspan x="1161" y="602">aimsa:surroundedBy  DR</tspan>
<tspan x="1161" y="611">aimsa:isPreventedBy  DR</tspan>
<tspan x="1161" y="620">aimsa:prevents  DR</tspan>
<tspan x="1161" y="629">aimsa:hasSymptom  DR</tspan>
<tspan x="1161" y="638">aimsa:indicates  DR</tspan>
<tspan x="1161" y="647">aimsa:hasHost  DR</tspan>
<tspan x="1161" y="656">aimsa:isHostFor  DR</tspan>
<tspan x="1161" y="665">dct:isReplacedBy  D</tspan>
<tspan x="1161" y="674">skos:narrower  DR</tspan>
<tspan x="1161" y="683">skos:broader  DR</tspan>
<tspan x="1161" y="692">skos:related  DR</tspan>
<tspan x="1161" y="701">skos:relatedMatch  D</tspan>
</text>
</g>
<g id="2002681766"><path d="M762,404 L762,313 763,310 766,309 878,309 881,310 882,313 882,404 "
style="fill:none;stroke-width:1;stroke:Black;"/>
<line x1="880" y1="400" x2="882" y2="404"
 style="stroke-width:1;stroke:Black;"/>
<line x1="884" y1="400" x2="882" y2="404"
 style="stroke-width:1;stroke:Black;"/>
<text style="font-family:Arial;font-size:7px;kerning:0;word-spacing:-1px;fill:Black;">
<tspan x="662" y="320">aimsa:isAcronymOf  DR</tspan>
<tspan x="662" y="329">aimsa:hasSynonym  DR</tspan>
<tspan x="662" y="338">aimsa:hasRelatedTerm  DR</tspan>
<tspan x="662" y="347">aimsa:scientificNameOf  DR</tspan>
<tspan x="662" y="356">aimsa:hasScientificName  DR</tspan>
<tspan x="662" y="365">aimsa:hasAcronym  DR</tspan>
<tspan x="662" y="374">aimsa:hasOldName  DR</tspan>
<tspan x="662" y="383">aimsa:isOldNameOf  DR</tspan>
<tspan x="662" y="392">aimsa:isSymbolFor  DR</tspan>
<tspan x="662" y="401">aimsa:hasSymbol  DR</tspan>
</text>
</g>
<g id="2002681816"><path d="M979,635 L706,635 "
style="fill:none;stroke-width:1;stroke:Black;"/>
<line x1="709" y1="633" x2="706" y2="635"
 style="stroke-width:1;stroke:Black;"/>
<line x1="709" y1="637" x2="706" y2="635"
 style="stroke-width:1;stroke:Black;"/>
<text style="font-family:Arial;font-size:7px;kerning:0;word-spacing:-1px;fill:Black;">
<tspan x="899" y="642">skos:inScheme  DR</tspan>
<tspan x="899" y="651">skos:topConceptOf  DR</tspan>
</text>
</g>
<g id="2002681786"><path d="M175,335 L175,442 "
style="fill:none;stroke-width:1;stroke:Black;"/>
<line x1="173" y1="439" x2="175" y2="442"
 style="stroke-width:1;stroke:Black;"/>
<line x1="176" y1="439" x2="175" y2="442"
 style="stroke-width:1;stroke:Black;"/>
<text style="font-family:Arial;font-size:7px;kerning:0;word-spacing:-1px;fill:Black;">
<tspan x="176" y="344">rdf:first  </tspan>
</text>
</g>
<g id="2002681791"><path d="M76,313 L46,313 44,311 43,309 43,292 44,290 46,289 132,289 134,290 136,292 136,308 "
style="fill:none;stroke-width:1;stroke:Black;"/>
<line x1="134" y1="305" x2="136" y2="308"
 style="stroke-width:1;stroke:Black;"/>
<line x1="137" y1="305" x2="136" y2="308"
 style="stroke-width:1;stroke:Black;"/>
<text style="font-family:Arial;font-size:7px;kerning:0;word-spacing:-1px;fill:Black;">
<tspan x="48" y="320">rdf:rest  </tspan>
</text>
</g>
<g id="2002681771"><path d="M576,285 L535,285 533,286 532,289 532,332 "
style="fill:none;stroke-width:1;stroke:Black;"/>
<line x1="530" y1="329" x2="532" y2="332"
 style="stroke-width:1;stroke:Black;"/>
<line x1="533" y1="329" x2="532" y2="332"
 style="stroke-width:1;stroke:Black;"/>
<text style="font-family:Arial;font-size:7px;kerning:0;word-spacing:-1px;fill:Black;">
<tspan x="537" y="293">rdfs:range  </tspan>
</text>
</g>
<g id="2002681831"><path d="M407,340 L323,340 320,338 319,336 319,315 320,313 323,311 476,311 479,313 480,315 480,332 "
style="fill:none;stroke-width:1;stroke:Black;"/>
<line x1="478" y1="329" x2="480" y2="332"
 style="stroke-width:1;stroke:Black;"/>
<line x1="482" y1="329" x2="480" y2="332"
 style="stroke-width:1;stroke:Black;"/>
<text style="font-family:Arial;font-size:7px;kerning:0;word-spacing:-1px;fill:Black;">
<tspan x="324" y="347">owl:equivalentClass  DR</tspan>
</text>
</g>
<g id="2002681826"><path d="M407,352 L226,352 224,351 223,349 223,335 "
style="fill:none;stroke-width:1;stroke:Black;"/>
<line x1="221" y1="339" x2="223" y2="335"
 style="stroke-width:1;stroke:Black;"/>
<line x1="224" y1="339" x2="223" y2="335"
 style="stroke-width:1;stroke:Black;"/>
<text style="font-family:Arial;font-size:7px;kerning:0;word-spacing:-1px;fill:Black;">
<tspan x="358" y="360">owl:oneOf  DR</tspan>
</text>
</g>
<g id="2002681841"><path d="M446,461 L446,368 "
style="fill:none;stroke-width:1;stroke:Black;"/>
<line x1="444" y1="372" x2="446" y2="368"
 style="stroke-width:1;stroke:Black;"/>
<line x1="448" y1="372" x2="446" y2="368"
 style="stroke-width:1;stroke:Black;"/>
<text style="font-family:Arial;font-size:7px;kerning:0;word-spacing:-1px;fill:Black;">
<tspan x="408" y="459">rdfs:range  </tspan>
</text>
</g>
<g id="2002681856"><path d="M625,295 L625,515 "
style="fill:none;stroke-width:1;stroke:Fuchsia;"/>
<polygon points="628,301 625,295 622,301 "
style="fill:Silver;stroke-width:1;stroke:Black;"/>
<text style="font-family:Arial;font-size:7px;kerning:0;word-spacing:-1px;fill:Black;">
<tspan x="626" y="304"> </tspan>
</text>
</g>
<g id="2002681776"><path d="M706,661 L979,661 "
style="fill:none;stroke-width:1;stroke:Black;"/>
<line x1="975" y1="659" x2="979" y2="661"
 style="stroke-width:1;stroke:Black;"/>
<line x1="975" y1="662" x2="979" y2="661"
 style="stroke-width:1;stroke:Black;"/>
<text style="font-family:Arial;font-size:7px;kerning:0;word-spacing:-1px;fill:Black;">
<tspan x="708" y="659">skos:hasTopConcept  DR</tspan>
</text>
</g>
<g id="2002681806"><path d="M562,832 L667,832 "
style="fill:none;stroke-width:1;stroke:Black;"/>
<line x1="663" y1="830" x2="667" y2="832"
 style="stroke-width:1;stroke:Black;"/>
<line x1="663" y1="834" x2="667" y2="832"
 style="stroke-width:1;stroke:Black;"/>
<text style="font-family:Arial;font-size:7px;kerning:0;word-spacing:-1px;fill:Black;">
<tspan x="564" y="831">owl:imports  D</tspan>
</text>
</g>
<g id="2002681860"><path d="M562,812 L667,812 "
style="fill:none;stroke-width:1;stroke:Fuchsia;"/>
<polygon points="568,815 562,812 568,809 "
style="fill:Silver;stroke-width:1;stroke:Black;"/>
<text style="font-family:Arial;font-size:7px;kerning:0;word-spacing:-1px;fill:Black;">
<tspan x="564" y="810"> </tspan>
</text>
</g>
<g id="2002681801"><path d="M691,780 L691,686 "
style="fill:none;stroke-width:1;stroke:Black;"/>
<line x1="689" y1="689" x2="691" y2="686"
 style="stroke-width:1;stroke:Black;"/>
<line x1="692" y1="689" x2="691" y2="686"
 style="stroke-width:1;stroke:Black;"/>
<text style="font-family:Arial;font-size:7px;kerning:0;word-spacing:-1px;fill:Black;">
<tspan x="641" y="777">voaf:dataset  D</tspan>
</text>
</g>
</svg>
