<?xml version="1.0" encoding="UTF-8" standalone="no"?>
<!DOCTYPE svg PUBLIC "-//W3C//DTD SVG 1.1//EN"
"http://www.w3.org/Graphics/SVG/1.1/DTD/svg11.dtd">
<svg version="1.1" xmlns="http://www.w3.org/2000/svg"
xmlns:xlink="http://www.w3.org/1999/xlink" xml:space="preserve"
 width="2704" height="1207" viewBox="0 0 2704 1207">
 onmousemove="movetip(evt)" onmouseup="endmove()">
<rect x="0" y="0" width="100%" height="100%" style="fill:White;"/>
<script type="application/ecmascript"> <![CDATA[
var dragtipid = null; var dragcase = false; function init(evt){
if (window.svgDocument==null) svgDocument = evt.target.ownerDocument;
}
function movetip(evt){if (dragtipid!=null){ dragcase = true;
var tip=svgDocument.getElementById(dragtipid);
tip.setAttributeNS(null,"x",evt.clientX-2);
tip.setAttributeNS(null,"y",evt.clientY-2);
}}
function endmove(){dragtipid = null;}
function startmove(evt,id){dragtipid = id; dragcase = false;
var tip=svgDocument.getElementById(dragtipid);
tip.setAttributeNS(null,"x",evt.clientX-2);
tip.setAttributeNS(null,"y",evt.clientY-2);
}
function Showtip(evt,id){ dragtipid = null;
var tip=svgDocument.getElementById(id);
var vis=tip.getAttributeNS(null,"visibility");
if (vis=="hidden"){
tip.setAttributeNS(null,"x",evt.clientX-2);
tip.setAttributeNS(null,"y",evt.clientY-2);
tip.setAttributeNS(null,"visibility","visible");
}}
function Hidetip(id){ dragtipid = null; if (dragcase==false){
var tip=svgDocument.getElementById(id);
tip.setAttributeNS(null,"visibility","hidden");
}}
]]></script>
<defs><linearGradient id="activ1" x1="0%" y1="0%" x2="100%" y2="0%">
<stop offset="0%" style="stop-color:#FFFF00;stop-opacity:1"/>
<stop offset="100%" style="stop-color:#FFFFF0;stop-opacity:1"/>
</linearGradient></defs>
<g id="2002683643"><polygon points="621,599 921,599 921,693 621,693 "
style="fill:#F4D03F; stroke-width:1;stroke:Black;"/>
<text style="font-family:Arial;font-size:12px;kerning:0;word-spacing:-1px;fill:Black;font-weight:bold;">
<tspan x="705" y="614">frbroo:F1_Work (1.0e5)</tspan>
</text>
<line x1="625" y1="617" x2="919" y2="617"
 style="stroke-width:1;stroke:Black;"/>
<text style="font-family:Arial;font-size:12px;kerning:0;word-spacing:-1px;fill:Black;">
<tspan x="625" y="629">owl:sameAs (3.4e4) [1]  -&gt; IRI</tspan>
<tspan x="625" y="644">rdf:type (1.0e5) [1]  -&gt; IRI</tspan>
<tspan x="625" y="659">rdfs:comment (1.0e5) [1] </tspan>
<tspan x="625" y="674">rdfs:label (1.0e5) [*] </tspan>
</text>
</g>
<g id="2002683654"><polygon points="896,56 1196,56 1196,121 896,121 "
style="fill:#F4D03F; stroke-width:1;stroke:Black;"/>
<text style="font-family:Arial;font-size:12px;kerning:0;word-spacing:-1px;fill:Black;font-weight:bold;">
<tspan x="969" y="71">void:DatasetDescription (1)</tspan>
</text>
<line x1="900" y1="74" x2="1194" y2="74"
 style="stroke-width:1;stroke:Black;"/>
<text style="font-family:Arial;font-size:12px;kerning:0;word-spacing:-1px;fill:Black;">
<tspan x="900" y="86">dct:creator (1) [1] D -&gt; IRI</tspan>
<tspan x="900" y="101">dct:title (1) [1] D</tspan>
<tspan x="900" y="116">rdf:type (1) [1]  -&gt; IRI</tspan>
</text>
</g>
<g id="2002683665"><polygon points="1731,521 2031,521 2031,586 1731,586 "
style="fill:#F4D03F; stroke-width:1;stroke:Black;"/>
<text style="font-family:Arial;font-size:12px;kerning:0;word-spacing:-1px;fill:Black;font-weight:bold;">
<tspan x="1795" y="536">cidoc-rm:E56_Language (183)</tspan>
</text>
<line x1="1735" y1="539" x2="2029" y2="539"
 style="stroke-width:1;stroke:Black;"/>
<text style="font-family:Arial;font-size:12px;kerning:0;word-spacing:-1px;fill:Black;">
<tspan x="1735" y="551">owl:sameAs (177) [1]  -&gt; IRI</tspan>
<tspan x="1735" y="566">rdf:type (183) [1]  -&gt; IRI</tspan>
<tspan x="1735" y="581">rdfs:label (183) [*] </tspan>
</text>
</g>
<g id="2002683676"><polygon points="1180,406 1480,406 1480,471 1180,471 "
style="fill:#F4D03F; stroke-width:1;stroke:Black;"/>
<text style="font-family:Arial;font-size:12px;kerning:0;word-spacing:-1px;fill:Black;font-weight:bold;">
<tspan x="1235" y="421">cidoc-rm:E41_Appellation (1.1e5)</tspan>
</text>
<line x1="1184" y1="424" x2="1478" y2="424"
 style="stroke-width:1;stroke:Black;"/>
<text style="font-family:Arial;font-size:12px;kerning:0;word-spacing:-1px;fill:Black;">
<tspan x="1184" y="436">cidoc-rm:P190_has_symbolic_content (1.1e5) [1] </tspan>
<tspan x="1184" y="451">rdf:type (1.1e5) [1]  -&gt; IRI</tspan>
<tspan x="1184" y="466">rdfs:label (1.0e5) [*] </tspan>
</text>
</g>
<g id="2002683687"><polygon points="1068,483 1368,483 1368,563 1068,563 "
style="fill:#F4D03F; stroke-width:1;stroke:Black;"/>
<text style="font-family:Arial;font-size:12px;kerning:0;word-spacing:-1px;fill:Black;font-weight:bold;">
<tspan x="1146" y="498">cidoc-rm:E55_Type (389)</tspan>
</text>
<line x1="1072" y1="501" x2="1366" y2="501"
 style="stroke-width:1;stroke:Black;"/>
<text style="font-family:Arial;font-size:12px;kerning:0;word-spacing:-1px;fill:Black;">
<tspan x="1072" y="513">owl:sameAs (227) [1]  -&gt; IRI</tspan>
<tspan x="1072" y="528">rdf:type (389) [1]  -&gt; IRI</tspan>
<tspan x="1072" y="543">rdfs:comment (5) [1] </tspan>
<tspan x="1072" y="558">rdfs:label (399) [*] </tspan>
</text>
</g>
<g id="2002683698"><polygon points="505,699 805,699 805,744 505,744 "
style="fill:#F4D03F; stroke-width:1;stroke:Black;"/>
<text style="font-family:Arial;font-size:12px;kerning:0;word-spacing:-1px;fill:Black;font-weight:bold;">
<tspan x="523" y="714">frbroo:F3_Manifestation_Product_Type (4.0e4)</tspan>
</text>
<line x1="509" y1="717" x2="803" y2="717"
 style="stroke-width:1;stroke:Black;"/>
<text style="font-family:Arial;font-size:12px;kerning:0;word-spacing:-1px;fill:Black;">
<tspan x="509" y="729">rdf:type (4.0e4) [1]  -&gt; IRI</tspan>
</text>
</g>
<g id="2002683709"><polygon points="527,231 827,231 827,296 527,296 "
style="fill:#F4D03F; stroke-width:1;stroke:Black;"/>
<text style="font-family:Arial;font-size:12px;kerning:0;word-spacing:-1px;fill:Black;font-weight:bold;">
<tspan x="634" y="246">void:Linkset (1)</tspan>
</text>
<line x1="531" y1="249" x2="825" y2="249"
 style="stroke-width:1;stroke:Black;"/>
<text style="font-family:Arial;font-size:12px;kerning:0;word-spacing:-1px;fill:Black;">
<tspan x="531" y="261">rdf:type (1) [1]  -&gt; IRI</tspan>
<tspan x="531" y="276">void:linkPredicate (1) [1] D -&gt; IRI</tspan>
<tspan x="531" y="291">void:triples (1) [1] </tspan>
</text>
</g>
<g id="2002683720"><polygon points="1515,592 1815,592 1815,637 1515,637 "
style="fill:#F4D03F; stroke-width:1;stroke:Black;"/>
<text style="font-family:Arial;font-size:12px;kerning:0;word-spacing:-1px;fill:Black;font-weight:bold;">
<tspan x="1582" y="607">frbroo:F26_Recording (1.0e5)</tspan>
</text>
<line x1="1519" y1="610" x2="1813" y2="610"
 style="stroke-width:1;stroke:Black;"/>
<text style="font-family:Arial;font-size:12px;kerning:0;word-spacing:-1px;fill:Black;">
<tspan x="1519" y="622">rdf:type (1.0e5) [1]  -&gt; IRI</tspan>
</text>
</g>
<g id="2002683742"><polygon points="1681,286 1981,286 1981,336 1681,336 "
style="fill:#F4D03F; stroke-width:1;stroke:Black;"/>
<text style="font-family:Arial;font-size:12px;kerning:0;word-spacing:-1px;fill:Black;font-weight:bold;">
<tspan x="1736" y="301">cidoc-rm:E40_Legal_Body (9477)</tspan>
</text>
<line x1="1685" y1="304" x2="1979" y2="304"
 style="stroke-width:1;stroke:Black;"/>
<text style="font-family:Arial;font-size:12px;kerning:0;word-spacing:-1px;fill:Black;">
<tspan x="1685" y="316">rdf:type (9477) [1]  -&gt; IRI</tspan>
<tspan x="1685" y="331">rdfs:label (9477) [*] </tspan>
</text>
</g>
<g id="2002683753"><polygon points="982,693 1282,693 1282,738 982,738 "
style="fill:#F4D03F; stroke-width:1;stroke:Black;"/>
<text style="font-family:Arial;font-size:12px;kerning:0;word-spacing:-1px;fill:Black;font-weight:bold;">
<tspan x="1010" y="708">frbroo:F24_Publication_Expression (1.0e5)</tspan>
</text>
<line x1="986" y1="711" x2="1280" y2="711"
 style="stroke-width:1;stroke:Black;"/>
<text style="font-family:Arial;font-size:12px;kerning:0;word-spacing:-1px;fill:Black;">
<tspan x="986" y="723">rdf:type (1.0e5) [1]  -&gt; IRI</tspan>
</text>
</g>
<g id="2002683764"><polygon points="10,563 310,563 310,673 10,673 "
style="fill:#F4D03F; stroke-width:1;stroke:Black;"/>
<text style="font-family:Arial;font-size:12px;kerning:0;word-spacing:-1px;fill:Black;font-weight:bold;">
<tspan x="68" y="578">cidoc-rm:E54_Dimension (4406)</tspan>
</text>
<line x1="14" y1="581" x2="308" y2="581"
 style="stroke-width:1;stroke:Black;"/>
<text style="font-family:Arial;font-size:12px;kerning:0;word-spacing:-1px;fill:Black;">
<tspan x="14" y="593">cidoc-rm:P180_has_currency (408) [1] D -&gt; IRI</tspan>
<tspan x="14" y="608">cidoc-rm:P181_has_amount (408) [1] D</tspan>
<tspan x="14" y="623">cidoc-rm:P90_has_value (3998) [1] D</tspan>
<tspan x="14" y="638">cidoc-rm:P91_has_unit (3998) [1] D -&gt; IRI</tspan>
<tspan x="14" y="653">rdf:type (4406) [1]  -&gt; IRI</tspan>
<tspan x="14" y="668">rdfs:label (408) [*] </tspan>
</text>
</g>
<g id="2002683775"><polygon points="2394,435 2694,435 2694,500 2394,500 "
style="fill:#F4D03F; stroke-width:1;stroke:Black;"/>
<text style="font-family:Arial;font-size:12px;kerning:0;word-spacing:-1px;fill:Black;font-weight:bold;">
<tspan x="2470" y="450">cidoc-rm:E53_Place (379)</tspan>
</text>
<line x1="2398" y1="453" x2="2692" y2="453"
 style="stroke-width:1;stroke:Black;"/>
<text style="font-family:Arial;font-size:12px;kerning:0;word-spacing:-1px;fill:Black;">
<tspan x="2398" y="465">owl:sameAs (370) [1]  -&gt; IRI</tspan>
<tspan x="2398" y="480">rdf:type (379) [1]  -&gt; IRI</tspan>
<tspan x="2398" y="495">rdfs:label (379) [*] </tspan>
</text>
</g>
<g id="2002683797"><polygon points="631,531 931,531 931,581 631,581 "
style="fill:#F4D03F; stroke-width:1;stroke:Black;"/>
<text style="font-family:Arial;font-size:12px;kerning:0;word-spacing:-1px;fill:Black;font-weight:bold;">
<tspan x="706" y="546">cidoc-rm:E35_Title (2.0e5)</tspan>
</text>
<line x1="635" y1="549" x2="929" y2="549"
 style="stroke-width:1;stroke:Black;"/>
<text style="font-family:Arial;font-size:12px;kerning:0;word-spacing:-1px;fill:Black;">
<tspan x="635" y="561">cidoc-rm:P190_has_symbolic_content (2.0e5) [1] </tspan>
<tspan x="635" y="576">rdf:type (2.0e5) [1]  -&gt; IRI</tspan>
</text>
</g>
<g id="2002683808"><polygon points="1670,675 1970,675 1970,720 1670,720 "
style="fill:#F4D03F; stroke-width:1;stroke:Black;"/>
<text style="font-family:Arial;font-size:12px;kerning:0;word-spacing:-1px;fill:Black;font-weight:bold;">
<tspan x="1718" y="690">frbroo:F21_Recording_Work (1.0e5)</tspan>
</text>
<line x1="1674" y1="693" x2="1968" y2="693"
 style="stroke-width:1;stroke:Black;"/>
<text style="font-family:Arial;font-size:12px;kerning:0;word-spacing:-1px;fill:Black;">
<tspan x="1674" y="705">rdf:type (1.0e5) [1]  -&gt; IRI</tspan>
</text>
</g>
<g id="2002683819"><polygon points="2017,610 2317,610 2317,675 2017,675 "
style="fill:#F4D03F; stroke-width:1;stroke:Black;"/>
<text style="font-family:Arial;font-size:12px;kerning:0;word-spacing:-1px;fill:Black;font-weight:bold;">
<tspan x="2065" y="625">frbroo:F29_Recording_Event (1.0e5)</tspan>
</text>
<line x1="2021" y1="628" x2="2315" y2="628"
 style="stroke-width:1;stroke:Black;"/>
<text style="font-family:Arial;font-size:12px;kerning:0;word-spacing:-1px;fill:Black;">
<tspan x="2021" y="640">cidoc-rm:P4_has_time-span (1.5e4) [1]  -&gt; IRI</tspan>
<tspan x="2021" y="655">cidoc-rm:P9_consists_of (4.6e5) [*] D -&gt; IRI</tspan>
<tspan x="2021" y="670">rdf:type (1.0e5) [1]  -&gt; IRI</tspan>
</text>
</g>
<g id="2002683830"><polygon points="1164,744 1464,744 1464,789 1164,789 "
style="fill:#F4D03F; stroke-width:1;stroke:Black;"/>
<text style="font-family:Arial;font-size:12px;kerning:0;word-spacing:-1px;fill:Black;font-weight:bold;">
<tspan x="1212" y="759">frbroo:F30_Publicatio_Event (1.0e5)</tspan>
</text>
<line x1="1168" y1="762" x2="1462" y2="762"
 style="stroke-width:1;stroke:Black;"/>
<text style="font-family:Arial;font-size:12px;kerning:0;word-spacing:-1px;fill:Black;">
<tspan x="1168" y="774">rdf:type (1.0e5) [1]  -&gt; IRI</tspan>
</text>
</g>
<g id="2002683841"><polygon points="1059,844 1359,844 1359,984 1059,984 "
style="fill:#F4D03F; stroke-width:1;stroke:Black;"/>
<text style="font-family:Arial;font-size:12px;kerning:0;word-spacing:-1px;fill:Black;font-weight:bold;">
<tspan x="1160" y="859">rdf:Property (449)</tspan>
</text>
<line x1="1063" y1="862" x2="1357" y2="862"
 style="stroke-width:1;stroke:Black;"/>
<text style="font-family:Arial;font-size:12px;kerning:0;word-spacing:-1px;fill:Black;">
<tspan x="1063" y="874">owl:sameAs (142) [1]  -&gt; IRI</tspan>
<tspan x="1063" y="889">rdf:type (449) [1]  -&gt; IRI</tspan>
<tspan x="1063" y="904">rdfs:comment (295) [1] </tspan>
<tspan x="1063" y="919">rdfs:isDefinedBy (142) [1]  -&gt; IRI</tspan>
<tspan x="1063" y="934">rdfs:label (1938) [*] </tspan>
<tspan x="1063" y="949">regap:name (142) [*] </tspan>
<tspan x="1063" y="964">skos:definition (71) [1] </tspan>
<tspan x="1063" y="979">skos:scopeNote (31) [1] </tspan>
</text>
</g>
<g id="2002683852"><polygon points="470,10 770,10 770,225 470,225 "
style="fill:#F4D03F; stroke-width:1;stroke:Black;"/>
<text style="font-family:Arial;font-size:12px;kerning:0;word-spacing:-1px;fill:Black;font-weight:bold;">
<tspan x="576" y="25">void:Dataset (1)</tspan>
</text>
<line x1="474" y1="28" x2="768" y2="28"
 style="stroke-width:1;stroke:Black;"/>
<text style="font-family:Arial;font-size:12px;kerning:0;word-spacing:-1px;fill:Black;">
<tspan x="474" y="40">dct:created (1) [1] D</tspan>
<tspan x="474" y="55">dct:issued (1) [1] D</tspan>
<tspan x="474" y="70">dct:license (1) [1] D -&gt; IRI</tspan>
<tspan x="474" y="85">rdf:type (1) [1]  -&gt; IRI</tspan>
<tspan x="474" y="100">void:classPartition (17) [*] D -&gt; IRI</tspan>
<tspan x="474" y="115">void:classes (1) [1] D</tspan>
<tspan x="474" y="130">void:distinctObjects (1) [1] D</tspan>
<tspan x="474" y="145">void:distinctSubjects (1) [1] D</tspan>
<tspan x="474" y="160">void:entities (1) [1] </tspan>
<tspan x="474" y="175">void:properties (1) [1] D</tspan>
<tspan x="474" y="190">void:propertyPartition (35) [*] D -&gt; IRI</tspan>
<tspan x="474" y="205">void:triples (1) [1] </tspan>
<tspan x="474" y="220">void:vocabulary (15) [*] D -&gt; IRI</tspan>
</text>
</g>
<g id="2002683863"><polygon points="1914,406 2214,406 2214,471 1914,471 "
style="fill:#F4D03F; stroke-width:1;stroke:Black;"/>
<text style="font-family:Arial;font-size:12px;kerning:0;word-spacing:-1px;fill:Black;font-weight:bold;">
<tspan x="1977" y="421">cidoc-rm:E42_Identifier (1.1e5)</tspan>
</text>
<line x1="1918" y1="424" x2="2212" y2="424"
 style="stroke-width:1;stroke:Black;"/>
<text style="font-family:Arial;font-size:12px;kerning:0;word-spacing:-1px;fill:Black;">
<tspan x="1918" y="436">cidoc-rm:P190_has_symbolic_content (1.1e5) [1] </tspan>
<tspan x="1918" y="451">rdf:type (1.1e5) [1]  -&gt; IRI</tspan>
<tspan x="1918" y="466">rdfs:label (1.0e5) [*] </tspan>
</text>
</g>
<g id="2002683874"><polygon points="1003,290 1303,290 1303,400 1003,400 "
style="fill:#F4D03F; stroke-width:1;stroke:Black;"/>
<text style="font-family:Arial;font-size:12px;kerning:0;word-spacing:-1px;fill:Black;font-weight:bold;">
<tspan x="1069" y="305">cidoc-rm:E21_Person (1.0e5)</tspan>
</text>
<line x1="1007" y1="308" x2="1301" y2="308"
 style="stroke-width:1;stroke:Black;"/>
<text style="font-family:Arial;font-size:12px;kerning:0;word-spacing:-1px;fill:Black;">
<tspan x="1007" y="320">foaf:familyName (1.0e5) [1] D</tspan>
<tspan x="1007" y="335">foaf:givenName (1.0e5) [1] D</tspan>
<tspan x="1007" y="350">foaf:name (1.0e5) [1] D</tspan>
<tspan x="1007" y="365">owl:sameAs (2.2e4) [1]  -&gt; IRI</tspan>
<tspan x="1007" y="380">rdf:type (1.0e5) [1]  -&gt; IRI</tspan>
<tspan x="1007" y="395">rdfs:label (1.0e5) [*] </tspan>
</text>
</g>
<g id="2002683885"><polygon points="1203,622 1503,622 1503,681 1203,681 "
style="fill:#F4D03F; stroke-width:1;stroke:Black;"/>
<text style="font-family:Arial;font-size:12px;kerning:0;word-spacing:-1px;fill:Black;font-weight:bold;">
<tspan x="1272" y="637">cidoc-rm:E7_Activity (1.0e5)</tspan>
</text>
<line x1="1207" y1="640" x2="1501" y2="640"
 style="stroke-width:1;stroke:Black;"/>
<text style="font-family:Arial;font-size:12px;kerning:0;word-spacing:-1px;fill:Black;">
<tspan x="1207" y="652">cidoc-rm:P4_has_time-span (7.5e4) [1]  -&gt; IRI</tspan>
<tspan x="1207" y="667">rdf:type (1.0e5) [1]  -&gt; IRI</tspan>
</text>
</g>
<g id="2002683731"><polygon points="1072,1147 1372,1147 1372,1197 1072,1197 "
style="fill:#F4D03F; stroke-width:1;stroke:Black;"/>
<text style="font-family:Arial;font-size:12px;kerning:0;word-spacing:-1px;fill:Black;font-weight:bold;">
<tspan x="1173" y="1162">skos:Concept (1)</tspan>
</text>
<line x1="1076" y1="1165" x2="1370" y2="1165"
 style="stroke-width:1;stroke:Black;"/>
<text style="font-family:Arial;font-size:12px;kerning:0;word-spacing:-1px;fill:Black;">
<tspan x="1076" y="1177">rdf:type (1) [1]  -&gt; IRI</tspan>
<tspan x="1076" y="1192">skos:prefLabel (1) [1] D</tspan>
</text>
</g>
<g id="2002683786"><polygon points="1515,859 1815,859 1815,999 1515,999 "
style="fill:#F4D03F; stroke-width:1;stroke:Black;"/>
<text style="font-family:Arial;font-size:12px;kerning:0;word-spacing:-1px;fill:Black;font-weight:bold;">
<tspan x="1625" y="874">owl:Class (46)</tspan>
</text>
<line x1="1519" y1="877" x2="1813" y2="877"
 style="stroke-width:1;stroke:Black;"/>
<text style="font-family:Arial;font-size:12px;kerning:0;word-spacing:-1px;fill:Black;">
<tspan x="1519" y="889">owl:sameAs (46) [1]  -&gt; IRI</tspan>
<tspan x="1519" y="904">rdf:type (46) [1]  -&gt; IRI</tspan>
<tspan x="1519" y="919">rdfs:comment (46) [1] </tspan>
<tspan x="1519" y="934">rdfs:isDefinedBy (46) [1]  -&gt; IRI</tspan>
<tspan x="1519" y="949">rdfs:label (46) [*] </tspan>
<tspan x="1519" y="964">regap:name (56) [*] </tspan>
<tspan x="1519" y="979">skos:definition (45) [1] </tspan>
<tspan x="1519" y="994">skos:scopeNote (35) [1] </tspan>
</text>
</g>
<g id="2002683468"><path d="M505,722 L166,722 162,720 160,716 160,673 "
style="fill:none;stroke-width:1;stroke:Black;"/>
<line x1="157" y1="679" x2="160" y2="673"
 style="stroke-width:1;stroke:Black;"/>
<line x1="163" y1="679" x2="160" y2="673"
 style="stroke-width:1;stroke:Black;"/>
<text style="font-family:Arial;font-size:12px;kerning:0;word-spacing:-1px;fill:Black;">
<tspan x="319" y="735">cidoc-rm:P43_has_dimension  R</tspan>
</text>
</g>
<g id="2002683473"><path d="M1731,554 L1551,554 1547,552 1545,548 1545,461 1543,457 1539,455 1480,455 "
style="fill:none;stroke-width:1;stroke:Black;"/>
<line x1="1486" y1="452" x2="1480" y2="455"
 style="stroke-width:1;stroke:Black;"/>
<line x1="1486" y1="458" x2="1480" y2="455"
 style="stroke-width:1;stroke:Black;"/>
<text style="font-family:Arial;font-size:12px;kerning:0;word-spacing:-1px;fill:Black;">
<tspan x="1553" y="567">cidoc-rm:P1_is_identified_by  R</tspan>
</text>
</g>
<g id="2002683478"><path d="M310,587 L1162,587 1166,585 1168,581 1168,563 "
style="fill:none;stroke-width:1;stroke:Black;"/>
<line x1="1165" y1="569" x2="1168" y2="563"
 style="stroke-width:1;stroke:Black;"/>
<line x1="1171" y1="569" x2="1168" y2="563"
 style="stroke-width:1;stroke:Black;"/>
<text style="font-family:Arial;font-size:12px;kerning:0;word-spacing:-1px;fill:Black;">
<tspan x="314" y="585">cidoc-rm:P2_has_type  </tspan>
</text>
</g>
<g id="2002683488"><path d="M621,607 L463,607 459,605 457,601 457,599 459,595 463,593 771,593 771,599 "
style="fill:none;stroke-width:1;stroke:Black;"/>
<line x1="768" y1="593" x2="771" y2="599"
 style="stroke-width:1;stroke:Black;"/>
<line x1="774" y1="593" x2="771" y2="599"
 style="stroke-width:1;stroke:Black;"/>
<text style="font-family:Arial;font-size:12px;kerning:0;word-spacing:-1px;fill:Black;">
<tspan x="468" y="620">frbroo:R2_is_derivative_of  </tspan>
</text>
</g>
<g id="2002683493"><path d="M2017,643 L1808,643 1804,645 1802,649 1802,675 "
style="fill:none;stroke-width:1;stroke:Black;"/>
<line x1="1799" y1="669" x2="1802" y2="675"
 style="stroke-width:1;stroke:Black;"/>
<line x1="1805" y1="669" x2="1802" y2="675"
 style="stroke-width:1;stroke:Black;"/>
<text style="font-family:Arial;font-size:12px;kerning:0;word-spacing:-1px;fill:Black;">
<tspan x="1810" y="656">frbroo:R22_created_a_realization_of  </tspan>
<tspan x="1810" y="671">DR</tspan>
</text>
</g>
<g id="2002683498"><path d="M1815,609 L2005,609 2009,607 2011,603 2011,586 "
style="fill:none;stroke-width:1;stroke:Black;"/>
<line x1="2008" y1="592" x2="2011" y2="586"
 style="stroke-width:1;stroke:Black;"/>
<line x1="2014" y1="592" x2="2011" y2="586"
 style="stroke-width:1;stroke:Black;"/>
<text style="font-family:Arial;font-size:12px;kerning:0;word-spacing:-1px;fill:Black;">
<tspan x="1819" y="607">cidoc-rm:P72_has_language  DR</tspan>
</text>
</g>
<g id="2002683503"><path d="M1359,932 L1515,932 "
style="fill:none;stroke-width:1;stroke:Black;"/>
<line x1="1509" y1="929" x2="1515" y2="932"
 style="stroke-width:1;stroke:Black;"/>
<line x1="1509" y1="935" x2="1515" y2="932"
 style="stroke-width:1;stroke:Black;"/>
<text style="font-family:Arial;font-size:12px;kerning:0;word-spacing:-1px;fill:Black;">
<tspan x="1363" y="915">rdfs:range  D</tspan>
<tspan x="1363" y="930">rdfs:domain  D</tspan>
</text>
</g>
<g id="2002683508"><path d="M1303,342 L2058,342 2062,344 2064,348 2064,406 "
style="fill:none;stroke-width:1;stroke:Black;"/>
<line x1="2061" y1="400" x2="2064" y2="406"
 style="stroke-width:1;stroke:Black;"/>
<line x1="2067" y1="400" x2="2064" y2="406"
 style="stroke-width:1;stroke:Black;"/>
<text style="font-family:Arial;font-size:12px;kerning:0;word-spacing:-1px;fill:Black;">
<tspan x="1307" y="325">cidoc-rm:P48_has_preferred_</tspan>
<tspan x="1307" y="340">identifier  </tspan>
</text>
</g>
<g id="2002683513"><path d="M896,85 L770,85 "
style="fill:none;stroke-width:1;stroke:Black;"/>
<line x1="776" y1="82" x2="770" y2="85"
 style="stroke-width:1;stroke:Black;"/>
<line x1="776" y1="88" x2="770" y2="85"
 style="stroke-width:1;stroke:Black;"/>
<text style="font-family:Arial;font-size:12px;kerning:0;word-spacing:-1px;fill:Black;">
<tspan x="774" y="98">foaf:primaryTopic  DR</tspan>
</text>
</g>
<g id="2002683518"><path d="M1681,311 L1501,311 1497,313 1495,317 1495,433 1493,437 1489,439 1480,439 "
style="fill:none;stroke-width:1;stroke:Black;"/>
<line x1="1486" y1="436" x2="1480" y2="439"
 style="stroke-width:1;stroke:Black;"/>
<line x1="1486" y1="442" x2="1480" y2="439"
 style="stroke-width:1;stroke:Black;"/>
<text style="font-family:Arial;font-size:12px;kerning:0;word-spacing:-1px;fill:Black;">
<tspan x="1503" y="324">cidoc-rm:P1_is_identified_by  R</tspan>
</text>
</g>
<g id="2002683523"><path d="M1068,510 L868,510 864,508 862,504 862,445 864,441 868,439 1180,439 "
style="fill:none;stroke-width:1;stroke:Black;"/>
<line x1="1174" y1="436" x2="1180" y2="439"
 style="stroke-width:1;stroke:Black;"/>
<line x1="1174" y1="442" x2="1180" y2="439"
 style="stroke-width:1;stroke:Black;"/>
<text style="font-family:Arial;font-size:12px;kerning:0;word-spacing:-1px;fill:Black;">
<tspan x="890" y="523">cidoc-rm:P1_is_identified_by  R</tspan>
</text>
</g>
<g id="2002683528"><path d="M2317,643 L2538,643 2542,641 2544,637 2544,500 "
style="fill:none;stroke-width:1;stroke:Black;"/>
<line x1="2541" y1="506" x2="2544" y2="500"
 style="stroke-width:1;stroke:Black;"/>
<line x1="2547" y1="506" x2="2544" y2="500"
 style="stroke-width:1;stroke:Black;"/>
<text style="font-family:Arial;font-size:12px;kerning:0;word-spacing:-1px;fill:Black;">
<tspan x="2321" y="641">cidoc-rm:P7_took_place_at  DR</tspan>
</text>
</g>
<g id="2002683533"><path d="M1368,515 L2055,515 2059,513 2061,509 2061,471 "
style="fill:none;stroke-width:1;stroke:Black;"/>
<line x1="2058" y1="477" x2="2061" y2="471"
 style="stroke-width:1;stroke:Black;"/>
<line x1="2064" y1="477" x2="2061" y2="471"
 style="stroke-width:1;stroke:Black;"/>
<text style="font-family:Arial;font-size:12px;kerning:0;word-spacing:-1px;fill:Black;">
<tspan x="1372" y="498">cidoc-rm:P48_has_preferred_</tspan>
<tspan x="1372" y="513">identifier  </tspan>
</text>
</g>
<g id="2002683538"><path d="M1068,489 L874,489 870,487 868,483 868,483 870,479 874,477 1218,477 1218,483 "
style="fill:none;stroke-width:1;stroke:Black;"/>
<line x1="1215" y1="477" x2="1218" y2="483"
 style="stroke-width:1;stroke:Black;"/>
<line x1="1221" y1="477" x2="1218" y2="483"
 style="stroke-width:1;stroke:Black;"/>
<text style="font-family:Arial;font-size:12px;kerning:0;word-spacing:-1px;fill:Black;">
<tspan x="935" y="502">cidoc-rm:P2_has_type  </tspan>
</text>
</g>
<g id="2002683543"><path d="M1282,710 L1503,710 1507,708 1509,704 1509,615 1515,615 "
style="fill:none;stroke-width:1;stroke:Black;"/>
<line x1="1509" y1="612" x2="1515" y2="615"
 style="stroke-width:1;stroke:Black;"/>
<line x1="1509" y1="618" x2="1515" y2="615"
 style="stroke-width:1;stroke:Black;"/>
<text style="font-family:Arial;font-size:12px;kerning:0;word-spacing:-1px;fill:Black;">
<tspan x="1286" y="708">cidoc-rm:P165_incorporates  DR</tspan>
</text>
</g>
<g id="2002683548"><path d="M1981,318 L2214,318 2218,320 2220,324 2220,424 2214,424 "
style="fill:none;stroke-width:1;stroke:Black;"/>
<line x1="2220" y1="421" x2="2214" y2="424"
 style="stroke-width:1;stroke:Black;"/>
<line x1="2220" y1="427" x2="2214" y2="424"
 style="stroke-width:1;stroke:Black;"/>
<text style="font-family:Arial;font-size:12px;kerning:0;word-spacing:-1px;fill:Black;">
<tspan x="1985" y="301">cidoc-rm:P48_has_preferred_</tspan>
<tspan x="1985" y="316">identifier  </tspan>
</text>
</g>
<g id="2002683553"><path d="M2017,622 L1815,622 "
style="fill:none;stroke-width:1;stroke:Black;"/>
<line x1="1821" y1="619" x2="1815" y2="622"
 style="stroke-width:1;stroke:Black;"/>
<line x1="1821" y1="625" x2="1815" y2="622"
 style="stroke-width:1;stroke:Black;"/>
<text style="font-family:Arial;font-size:12px;kerning:0;word-spacing:-1px;fill:Black;">
<tspan x="1883" y="635">frbroo:R21_created  DR</tspan>
</text>
</g>
<g id="2002683558"><path d="M1303,371 L1483,371 1487,373 1489,377 1489,416 1487,420 1483,422 1480,422 "
style="fill:none;stroke-width:1;stroke:Black;"/>
<line x1="1486" y1="419" x2="1480" y2="422"
 style="stroke-width:1;stroke:Black;"/>
<line x1="1486" y1="425" x2="1480" y2="422"
 style="stroke-width:1;stroke:Black;"/>
<text style="font-family:Arial;font-size:12px;kerning:0;word-spacing:-1px;fill:Black;">
<tspan x="1307" y="369">cidoc-rm:P1_is_identified_by  R</tspan>
</text>
</g>
<g id="2002683563"><path d="M2394,441 L2214,441 "
style="fill:none;stroke-width:1;stroke:Black;"/>
<line x1="2220" y1="438" x2="2214" y2="441"
 style="stroke-width:1;stroke:Black;"/>
<line x1="2220" y1="444" x2="2214" y2="441"
 style="stroke-width:1;stroke:Black;"/>
<text style="font-family:Arial;font-size:12px;kerning:0;word-spacing:-1px;fill:Black;">
<tspan x="2225" y="454">cidoc-rm:P48_has_preferred_</tspan>
<tspan x="2225" y="469">identifier  </tspan>
</text>
</g>
<g id="2002683568"><path d="M2031,554 L2202,554 2206,552 2208,548 2208,471 "
style="fill:none;stroke-width:1;stroke:Black;"/>
<line x1="2205" y1="477" x2="2208" y2="471"
 style="stroke-width:1;stroke:Black;"/>
<line x1="2211" y1="477" x2="2208" y2="471"
 style="stroke-width:1;stroke:Black;"/>
<text style="font-family:Arial;font-size:12px;kerning:0;word-spacing:-1px;fill:Black;">
<tspan x="2035" y="537">cidoc-rm:P48_has_preferred_</tspan>
<tspan x="2035" y="552">identifier  </tspan>
</text>
</g>
<g id="2002683578"><path d="M1515,865 L1406,865 1402,863 1400,859 1400,859 1402,855 1406,853 1658,853 1658,859 "
style="fill:none;stroke-width:1;stroke:Black;"/>
<line x1="1655" y1="853" x2="1658" y2="859"
 style="stroke-width:1;stroke:Black;"/>
<line x1="1661" y1="853" x2="1658" y2="859"
 style="stroke-width:1;stroke:Black;"/>
<text style="font-family:Arial;font-size:12px;kerning:0;word-spacing:-1px;fill:Black;">
<tspan x="1415" y="878">rdfs:subClassOf  </tspan>
</text>
</g>
<g id="2002683583"><path d="M805,719 L982,719 "
style="fill:none;stroke-width:1;stroke:Black;"/>
<line x1="976" y1="716" x2="982" y2="719"
 style="stroke-width:1;stroke:Black;"/>
<line x1="976" y1="722" x2="982" y2="719"
 style="stroke-width:1;stroke:Black;"/>
<text style="font-family:Arial;font-size:12px;kerning:0;word-spacing:-1px;fill:Black;">
<tspan x="809" y="717">frbroo:CLR6_should_carry  DR</tspan>
</text>
</g>
<g id="2002683588"><path d="M1059,914 L936,914 932,912 930,908 930,844 932,840 936,838 1209,838 1209,844 "
style="fill:none;stroke-width:1;stroke:Black;"/>
<line x1="1206" y1="838" x2="1209" y2="844"
 style="stroke-width:1;stroke:Black;"/>
<line x1="1212" y1="838" x2="1209" y2="844"
 style="stroke-width:1;stroke:Black;"/>
<text style="font-family:Arial;font-size:12px;kerning:0;word-spacing:-1px;fill:Black;">
<tspan x="938" y="927">owl:inverseOf  DR</tspan>
<tspan x="938" y="942">rdfs:subPropertyOf  D</tspan>
</text>
</g>
<g id="2002683593"><path d="M1203,628 L1068,628 1064,626 1062,622 1062,556 1068,556 "
style="fill:none;stroke-width:1;stroke:Black;"/>
<line x1="1062" y1="553" x2="1068" y2="556"
 style="stroke-width:1;stroke:Black;"/>
<line x1="1062" y1="559" x2="1068" y2="556"
 style="stroke-width:1;stroke:Black;"/>
<text style="font-family:Arial;font-size:12px;kerning:0;word-spacing:-1px;fill:Black;">
<tspan x="1070" y="641">cidoc-rm:P2_has_type  </tspan>
</text>
</g>
<g id="2002683598"><path d="M1464,767 L1600,767 1604,765 1606,761 1606,730 1604,726 1600,724 1282,724 "
style="fill:none;stroke-width:1;stroke:Black;"/>
<line x1="1288" y1="721" x2="1282" y2="724"
 style="stroke-width:1;stroke:Black;"/>
<line x1="1288" y1="727" x2="1282" y2="724"
 style="stroke-width:1;stroke:Black;"/>
<text style="font-family:Arial;font-size:12px;kerning:0;word-spacing:-1px;fill:Black;">
<tspan x="1468" y="765">frbroo:R24_created  DR</tspan>
</text>
</g>
<g id="2002683603"><path d="M1203,649 L994,649 990,651 988,655 988,693 "
style="fill:none;stroke-width:1;stroke:Black;"/>
<line x1="985" y1="687" x2="988" y2="693"
 style="stroke-width:1;stroke:Black;"/>
<line x1="991" y1="687" x2="988" y2="693"
 style="stroke-width:1;stroke:Black;"/>
<text style="font-family:Arial;font-size:12px;kerning:0;word-spacing:-1px;fill:Black;">
<tspan x="996" y="662">cidoc-rm:P16_used_specific_object  </tspan>
<tspan x="996" y="677">DR</tspan>
</text>
</g>
<g id="2002683608"><path d="M621,628 L457,628 453,626 451,622 451,562 453,558 457,556 631,556 "
style="fill:none;stroke-width:1;stroke:Black;"/>
<line x1="625" y1="553" x2="631" y2="556"
 style="stroke-width:1;stroke:Black;"/>
<line x1="625" y1="559" x2="631" y2="556"
 style="stroke-width:1;stroke:Black;"/>
<text style="font-family:Arial;font-size:12px;kerning:0;word-spacing:-1px;fill:Black;">
<tspan x="459" y="641">cidoc-rm:P102_has_title  DR</tspan>
</text>
</g>
<g id="2002683613"><path d="M621,649 L310,649 "
style="fill:none;stroke-width:1;stroke:Black;"/>
<line x1="316" y1="646" x2="310" y2="649"
 style="stroke-width:1;stroke:Black;"/>
<line x1="316" y1="652" x2="310" y2="649"
 style="stroke-width:1;stroke:Black;"/>
<text style="font-family:Arial;font-size:12px;kerning:0;word-spacing:-1px;fill:Black;">
<tspan x="435" y="662">cidoc-rm:P43_has_dimension  R</tspan>
</text>
</g>
<g id="2002683618"><path d="M921,616 L1262,616 1266,614 1268,610 1268,563 "
style="fill:none;stroke-width:1;stroke:Black;"/>
<line x1="1265" y1="569" x2="1268" y2="563"
 style="stroke-width:1;stroke:Black;"/>
<line x1="1271" y1="569" x2="1268" y2="563"
 style="stroke-width:1;stroke:Black;"/>
<text style="font-family:Arial;font-size:12px;kerning:0;word-spacing:-1px;fill:Black;">
<tspan x="925" y="614">cidoc-rm:P2_has_type  </tspan>
</text>
</g>
<g id="2002683623"><path d="M2394,477 L1330,477 1330,471 "
style="fill:none;stroke-width:1;stroke:Black;"/>
<line x1="1327" y1="477" x2="1330" y2="471"
 style="stroke-width:1;stroke:Black;"/>
<line x1="1333" y1="477" x2="1330" y2="471"
 style="stroke-width:1;stroke:Black;"/>
<text style="font-family:Arial;font-size:12px;kerning:0;word-spacing:-1px;fill:Black;">
<tspan x="2216" y="490">cidoc-rm:P1_is_identified_by  R</tspan>
</text>
</g>
<g id="2002683628"><path d="M931,548 L1068,548 "
style="fill:none;stroke-width:1;stroke:Black;"/>
<line x1="1062" y1="545" x2="1068" y2="548"
 style="stroke-width:1;stroke:Black;"/>
<line x1="1062" y1="551" x2="1068" y2="548"
 style="stroke-width:1;stroke:Black;"/>
<text style="font-family:Arial;font-size:12px;kerning:0;word-spacing:-1px;fill:Black;">
<tspan x="935" y="546">cidoc-rm:P2_has_type  </tspan>
</text>
</g>
<g id="2002683633"><path d="M1670,687 L921,687 "
style="fill:none;stroke-width:1;stroke:Black;"/>
<line x1="927" y1="684" x2="921" y2="687"
 style="stroke-width:1;stroke:Black;"/>
<line x1="927" y1="690" x2="921" y2="687"
 style="stroke-width:1;stroke:Black;"/>
<text style="font-family:Arial;font-size:12px;kerning:0;word-spacing:-1px;fill:Black;">
<tspan x="1517" y="700">frbroo:R2_is_derivative_of  </tspan>
</text>
</g>
<g id="2002683638"><path d="M827,263 L920,263 924,261 926,257 926,161 924,157 920,155 770,155 "
style="fill:none;stroke-width:1;stroke:Black;"/>
<line x1="776" y1="152" x2="770" y2="155"
 style="stroke-width:1;stroke:Black;"/>
<line x1="776" y1="158" x2="770" y2="155"
 style="stroke-width:1;stroke:Black;"/>
<text style="font-family:Arial;font-size:12px;kerning:0;word-spacing:-1px;fill:Black;">
<tspan x="831" y="246">void:target  D</tspan>
<tspan x="831" y="261">void:subset  DR</tspan>
</text>
</g>
<g id="2002683573"><path d="M1136,984 L1136,1147 "
style="fill:none;stroke-width:1;stroke:Black;"/>
<line x1="1133" y1="1141" x2="1136" y2="1147"
 style="stroke-width:1;stroke:Black;"/>
<line x1="1139" y1="1141" x2="1136" y2="1147"
 style="stroke-width:1;stroke:Black;"/>
<text style="font-family:Arial;font-size:12px;kerning:0;word-spacing:-1px;fill:Black;">
<tspan x="1138" y="999">regap:status  R</tspan>
</text>
</g>
<g id="2002683483"><path d="M1567,999 L1567,1135 1565,1139 1561,1141 1366,1141 1366,1147 "
style="fill:none;stroke-width:1;stroke:Black;"/>
<line x1="1363" y1="1141" x2="1366" y2="1147"
 style="stroke-width:1;stroke:Black;"/>
<line x1="1369" y1="1141" x2="1366" y2="1147"
 style="stroke-width:1;stroke:Black;"/>
<text style="font-family:Arial;font-size:12px;kerning:0;word-spacing:-1px;fill:Black;">
<tspan x="1569" y="1014">regap:status  R</tspan>
</text>
</g>
</svg>
