<?xml version="1.0" encoding="UTF-8" standalone="no"?>
<!DOCTYPE svg PUBLIC "-//W3C//DTD SVG 1.1//EN"
"http://www.w3.org/Graphics/SVG/1.1/DTD/svg11.dtd">
<svg version="1.1" xmlns="http://www.w3.org/2000/svg"
xmlns:xlink="http://www.w3.org/1999/xlink" xml:space="preserve"
 width="1801" height="978" viewBox="0 0 1801 978">
 onmousemove="movetip(evt)" onmouseup="endmove()">
<rect x="0" y="0" width="100%" height="100%" style="fill:White;"/>
<script type="application/ecmascript"> <![CDATA[
var dragtipid = null; var dragcase = false; function init(evt){
if (window.svgDocument==null) svgDocument = evt.target.ownerDocument;
}
function movetip(evt){if (dragtipid!=null){ dragcase = true;
var tip=svgDocument.getElementById(dragtipid);
tip.setAttributeNS(null,"x",evt.clientX-2);
tip.setAttributeNS(null,"y",evt.clientY-2);
}}
function endmove(){dragtipid = null;}
function startmove(evt,id){dragtipid = id; dragcase = false;
var tip=svgDocument.getElementById(dragtipid);
tip.setAttributeNS(null,"x",evt.clientX-2);
tip.setAttributeNS(null,"y",evt.clientY-2);
}
function Showtip(evt,id){ dragtipid = null;
var tip=svgDocument.getElementById(id);
var vis=tip.getAttributeNS(null,"visibility");
if (vis=="hidden"){
tip.setAttributeNS(null,"x",evt.clientX-2);
tip.setAttributeNS(null,"y",evt.clientY-2);
tip.setAttributeNS(null,"visibility","visible");
}}
function Hidetip(id){ dragtipid = null; if (dragcase==false){
var tip=svgDocument.getElementById(id);
tip.setAttributeNS(null,"visibility","hidden");
}}
]]></script>
<defs><linearGradient id="activ1" x1="0%" y1="0%" x2="100%" y2="0%">
<stop offset="0%" style="stop-color:#FFFF00;stop-opacity:1"/>
<stop offset="100%" style="stop-color:#FFFFF0;stop-opacity:1"/>
</linearGradient></defs>
<g id="2002687072"><polygon points="395,171 695,171 695,224 395,224 "
style="fill:#F4D03F; stroke-width:1;stroke:Black;"/>
<text style="font-family:Arial;font-size:12px;kerning:0;word-spacing:-1px;fill:Black;font-weight:bold;">
<tspan x="471" y="186">owl:DatatypeProperty (96)</tspan>
</text>
</g>
<g id="2002687094"><polygon points="819,16 1119,16 1119,225 819,225 "
style="fill:#F4D03F; stroke-width:1;stroke:Black;"/>
<text style="font-family:Arial;font-size:12px;kerning:0;word-spacing:-1px;fill:Black;font-weight:bold;">
<tspan x="912" y="31">wikiba:Property (39)</tspan>
</text>
<line x1="823" y1="34" x2="1117" y2="34"
 style="stroke-width:1;stroke:Black;"/>
<text style="font-family:Arial;font-size:12px;kerning:0;word-spacing:-1px;fill:Black;">
<tspan x="823" y="46">direct:P10 (12) [1] D</tspan>
<tspan x="823" y="61">direct:P12 (13) [1] </tspan>
<tspan x="823" y="76">direct:P22 (5) [1] D</tspan>
<tspan x="823" y="91">n7:P12 (13) [*]  -&gt; IRI</tspan>
<tspan x="823" y="106">rdfs:label (449) [*] </tspan>
<tspan x="823" y="121">schema:description (60) [*] </tspan>
<tspan x="823" y="136">schema:name (44) [*] </tspan>
<tspan x="823" y="151">skos:altLabel (119) [*] </tspan>
<tspan x="823" y="166">skos:prefLabel (44) [*] </tspan>
<tspan x="823" y="181">wikiba:propertyType (39) [1] D -&gt; IRI</tspan>
<tspan x="823" y="196">wikiba:timestamp (39) [1] </tspan>
</text>
</g>
<g id="2002687160"><polygon points="380,236 680,236 680,661 380,661 "
style="fill:#F4D03F; stroke-width:1;stroke:Black;"/>
<text style="font-family:Arial;font-size:12px;kerning:0;word-spacing:-1px;fill:Black;font-weight:bold;">
<tspan x="476" y="251">wikiba:Item (7.0e5)</tspan>
</text>
<line x1="384" y1="254" x2="678" y2="254"
 style="stroke-width:1;stroke:Black;"/>
<text style="font-family:Arial;font-size:12px;kerning:0;word-spacing:-1px;fill:Black;">
<tspan x="384" y="266">direct:P11 (1109) [1] </tspan>
<tspan x="384" y="281">direct:P12 (2.7e4) [1] </tspan>
<tspan x="384" y="296">direct:P13 (172) [*] </tspan>
<tspan x="384" y="311">direct:P14 (1117 77%d) [*]  -&gt; IRI</tspan>
<tspan x="384" y="326">direct:P17 (21) [*] </tspan>
<tspan x="384" y="341">direct:P18 (3782) [1] </tspan>
<tspan x="384" y="356">direct:P19 (3.7e4) [*] </tspan>
<tspan x="384" y="371">direct:P20 (1.4e5) [*] </tspan>
<tspan x="384" y="386">direct:P21 (1.3e4) [*] </tspan>
<tspan x="384" y="401">direct:P26 (155) [1] </tspan>
<tspan x="384" y="416">direct:P28 (1) [1] D</tspan>
<tspan x="384" y="431">direct:P29 (1) [1] D</tspan>
<tspan x="384" y="446">direct:P30 (2) [1] D -&gt; IRI</tspan>
<tspan x="384" y="461">direct:P31 (1) [1] D</tspan>
<tspan x="384" y="476">direct:P38 (1) [1] </tspan>
<tspan x="384" y="491">n7:P12 (5.2e4) [*]  -&gt; IRI</tspan>
<tspan x="384" y="506">n7:P14 (1096) [*]  -&gt; IRI</tspan>
<tspan x="384" y="521">n7:P21 (1.3e4) [*]  -&gt; IRI</tspan>
<tspan x="384" y="536">n7:P28 (1) [1] D -&gt; IRI</tspan>
<tspan x="384" y="551">n7:P29 (1) [1] D -&gt; IRI</tspan>
<tspan x="384" y="566">rdfs:label (7.1e5) [*] </tspan>
<tspan x="384" y="581">schema:description (7.1e5) [*] </tspan>
<tspan x="384" y="596">schema:name (7.1e5) [*] </tspan>
<tspan x="384" y="611">skos:altLabel (1432) [*] </tspan>
<tspan x="384" y="626">skos:prefLabel (7.1e5) [*] </tspan>
<tspan x="384" y="641">wikiba:identifiers (2.5e5) [*] </tspan>
<tspan x="384" y="656">wikiba:timestamp (2.5e5) [1] </tspan>
</text>
</g>
<g id="2002687182"><polygon points="1077,770 1377,770 1377,815 1077,815 "
style="fill:#F4D03F; stroke-width:1;stroke:Black;"/>
<text style="font-family:Arial;font-size:12px;kerning:0;word-spacing:-1px;fill:Black;font-weight:bold;">
<tspan x="1194" y="785">n6:P15 (10)</tspan>
</text>
</g>
<g id="2002687193"><polygon points="914,461 1214,461 1214,751 914,751 "
style="fill:#F4D03F; stroke-width:1;stroke:Black;"/>
<text style="font-family:Arial;font-size:12px;kerning:0;word-spacing:-1px;fill:Black;font-weight:bold;">
<tspan x="994" y="476">wikiba:BestRank (9.0e6)</tspan>
</text>
<line x1="918" y1="479" x2="1212" y2="479"
 style="stroke-width:1;stroke:Black;"/>
<text style="font-family:Arial;font-size:12px;kerning:0;word-spacing:-1px;fill:Black;">
<tspan x="918" y="491">n4:P40 (1) [1] D</tspan>
<tspan x="918" y="506">n4:P41 (1) [1] D</tspan>
<tspan x="918" y="521">n5:P12 (5.9e4) [*] D -&gt; IRI</tspan>
<tspan x="918" y="536">n5:P14 (2084) [*] D -&gt; IRI</tspan>
<tspan x="918" y="551">n5:P21 (3.5e4) [1] D -&gt; IRI</tspan>
<tspan x="918" y="566">statement:P10 (12) [1] D</tspan>
<tspan x="918" y="581">statement:P11 (2488) [1] D</tspan>
<tspan x="918" y="596">statement:P12 (3.4e4) [1] D</tspan>
<tspan x="918" y="611">statement:P13 (722) [1] D</tspan>
<tspan x="918" y="626">statement:P14 (2214 84%d) [*] D -&gt; IRI</tspan>
<tspan x="918" y="641">statement:P15 (2) [1] D</tspan>
<tspan x="918" y="656">statement:P17 (280) [1] D</tspan>
<tspan x="918" y="671">statement:P18 (9069) [1] D</tspan>
<tspan x="918" y="686">statement:P19 (8.9e4) [1] D</tspan>
<tspan x="918" y="701">statement:P3 (1.2e6) [1]  -&gt; IRI</tspan>
<tspan x="918" y="716">statement:P6 (1.2e6) [*] D</tspan>
<tspan x="918" y="731">statement:P7 (1.2e6 99.9%d) [*] D -&gt; IRI</tspan>
<tspan x="918" y="746">statement:P8 (2293) [*] D -&gt; IRI</tspan>
</text>
</g>
<g id="2002687204"><polygon points="1320,18 1620,18 1620,206 1320,206 "
style="fill:#F4D03F; stroke-width:1;stroke:Black;"/>
<text style="font-family:Arial;font-size:12px;kerning:0;word-spacing:-1px;fill:Black;font-weight:bold;">
<tspan x="1399" y="33">owl:ObjectProperty (272)</tspan>
</text>
</g>
<g id="2002687226"><polygon points="406,115 706,115 706,160 406,160 "
style="fill:#F4D03F; stroke-width:1;stroke:Black;"/>
<text style="font-family:Arial;font-size:12px;kerning:0;word-spacing:-1px;fill:Black;font-weight:bold;">
<tspan x="516" y="130">owl:Class (39)</tspan>
</text>
</g>
<g id="2002687083"><polygon points="1491,692 1791,692 1791,737 1491,737 "
style="fill:#F4D03F; stroke-width:1;stroke:Black;"/>
<text style="font-family:Arial;font-size:12px;kerning:0;word-spacing:-1px;fill:Black;font-weight:bold;">
<tspan x="1572" y="707">schema:Dataset (7.0e5)</tspan>
</text>
<line x1="1495" y1="710" x2="1789" y2="710"
 style="stroke-width:1;stroke:Black;"/>
<text style="font-family:Arial;font-size:12px;kerning:0;word-spacing:-1px;fill:Black;">
<tspan x="1495" y="722">wikiba:identifiers (7.0e5) [*] </tspan>
</text>
</g>
<g id="2002687116"><polygon points="1483,803 1783,803 1783,868 1483,868 "
style="fill:#F4D03F; stroke-width:1;stroke:Black;"/>
<text style="font-family:Arial;font-size:12px;kerning:0;word-spacing:-1px;fill:Black;font-weight:bold;">
<tspan x="1587" y="818">owl:Ontology (1)</tspan>
</text>
<line x1="1487" y1="821" x2="1781" y2="821"
 style="stroke-width:1;stroke:Black;"/>
<text style="font-family:Arial;font-size:12px;kerning:0;word-spacing:-1px;fill:Black;">
<tspan x="1487" y="833">cc:license (1) [1] D -&gt; IRI</tspan>
<tspan x="1487" y="848">rdf:type () [1] </tspan>
<tspan x="1487" y="863">schema:softwareVersion (1) [1] D</tspan>
</text>
</g>
<g id="2002687171"><polygon points="1344,332 1644,332 1644,442 1344,442 "
style="fill:#F4D03F; stroke-width:1;stroke:Black;"/>
<text style="font-family:Arial;font-size:12px;kerning:0;word-spacing:-1px;fill:Black;font-weight:bold;">
<tspan x="1423" y="347">wikiba:Statement (5.1e6)</tspan>
</text>
<line x1="1348" y1="350" x2="1642" y2="350"
 style="stroke-width:1;stroke:Black;"/>
<text style="font-family:Arial;font-size:12px;kerning:0;word-spacing:-1px;fill:Black;">
<tspan x="1348" y="362">n12:P14 (1) [1] D -&gt; IRI</tspan>
<tspan x="1348" y="377">n4:P35 (334) [1] D -&gt; IRI</tspan>
<tspan x="1348" y="392">n4:P4 (7) [1] D -&gt; IRI</tspan>
<tspan x="1348" y="407">n5:P28 (1) [1] D -&gt; IRI</tspan>
<tspan x="1348" y="422">n5:P29 (1) [1] D -&gt; IRI</tspan>
<tspan x="1348" y="437">statement:P3 (7.0e5) [1]  -&gt; IRI</tspan>
</text>
</g>
<g id="2002687237"><polygon points="604,843 942,843 942,968 604,968 "
style="fill:#F4D03F; stroke-width:1;stroke:Black;"/>
<text style="font-family:Arial;font-size:12px;kerning:0;word-spacing:-1px;fill:Black;font-weight:bold;">
<tspan x="744" y="858">n6:P13 (6)</tspan>
</text>
<line x1="608" y1="861" x2="940" y2="861"
 style="stroke-width:1;stroke:Black;"/>
<text style="font-family:Arial;font-size:12px;kerning:0;word-spacing:-1px;fill:Black;">
<tspan x="608" y="873">direct:P12 (3) [1] </tspan>
<tspan x="608" y="888">direct:P27 (1) [1] </tspan>
<tspan x="608" y="903">direct:P39 (1) [*] </tspan>
<tspan x="608" y="918">n7:P12 (4) [*]  -&gt; IRI</tspan>
<tspan x="608" y="933">rdfs:label (42) [*] </tspan>
<tspan x="608" y="948">wikiba:identifiers (2) [*] </tspan>
<tspan x="608" y="963">wikiba:timestamp (2) [1] </tspan>
</text>
</g>
<g id="2002687149"><polygon points="1072,892 1372,892 1372,957 1072,957 "
style="fill:#F4D03F; stroke-width:1;stroke:Black;"/>
<text style="font-family:Arial;font-size:12px;kerning:0;word-spacing:-1px;fill:Black;font-weight:bold;">
<tspan x="1170" y="907">schema:Article (8)</tspan>
</text>
<line x1="1076" y1="910" x2="1370" y2="910"
 style="stroke-width:1;stroke:Black;"/>
<text style="font-family:Arial;font-size:12px;kerning:0;word-spacing:-1px;fill:Black;">
<tspan x="1076" y="922">schema:inLanguage (8) [1] D</tspan>
<tspan x="1076" y="937">schema:isPartOf (8) [1] D -&gt; IRI</tspan>
<tspan x="1076" y="952">schema:name (8) [*] </tspan>
</text>
</g>
<g id="2002687105"><polygon points="14,599 314,599 314,799 14,799 "
style="fill:#F4D03F; stroke-width:1;stroke:Black;"/>
<polygon points="11,602 311,602 311,802 11,802 "
style="fill:#F4D03F; stroke-width:1;stroke:Black;"/>
<text style="font-family:Arial;font-size:12px;kerning:0;word-spacing:-1px;fill:Black;font-weight:bold;">
<tspan x="73" y="617">n6:P14 or n6:P8 G101 (~1192)</tspan>
</text>
<line x1="15" y1="620" x2="309" y2="620"
 style="stroke-width:1;stroke:Black;"/>
<text style="font-family:Arial;font-size:12px;kerning:0;word-spacing:-1px;fill:Black;">
<tspan x="15" y="632">direct:P11 (595) [1] </tspan>
<tspan x="15" y="647">direct:P14 (151 71%d) [*]  -&gt; IRI</tspan>
<tspan x="15" y="662">direct:P15 (1) [1] </tspan>
<tspan x="15" y="677">n7:P14 (119) [*]  -&gt; IRI</tspan>
<tspan x="15" y="692">rdfs:label (606) [*] </tspan>
<tspan x="15" y="707">schema:description (596) [*] </tspan>
<tspan x="15" y="722">wikiba:identifiers (494) [*] </tspan>
<tspan x="15" y="737">wikiba:timestamp (494) [1] </tspan>
</text>
<text style="font-family:Arial;font-size:11px;kerning:0;word-spacing:-1px;fill:Black;font-weight:bold;">
<tspan x="15" y="752">n6:P14 (804)</tspan>
<tspan x="15" y="767">n6:P8 (388)</tspan>
</text>
</g>
<g id="2002687215"><polygon points="1490,907 1790,907 1790,952 1490,952 "
style="fill:#F4D03F; stroke-width:1;stroke:Black;"/>
<text style="font-family:Arial;font-size:12px;kerning:0;word-spacing:-1px;fill:Black;font-weight:bold;">
<tspan x="1582" y="922">owl:Restriction (400)</tspan>
</text>
<line x1="1494" y1="925" x2="1788" y2="925"
 style="stroke-width:1;stroke:Black;"/>
<text style="font-family:Arial;font-size:12px;kerning:0;word-spacing:-1px;fill:Black;">
<tspan x="1494" y="937">owl:someValuesFrom (400) [1] D -&gt; IRI</tspan>
</text>
</g>
<g id="2002687127"><polygon points="1484,589 1784,589 1784,634 1484,634 "
style="fill:#F4D03F; stroke-width:1;stroke:Black;"/>
<text style="font-family:Arial;font-size:12px;kerning:0;word-spacing:-1px;fill:Black;font-weight:bold;">
<tspan x="1576" y="604">wikiba:Reference (5)</tspan>
</text>
<line x1="1488" y1="607" x2="1782" y2="607"
 style="stroke-width:1;stroke:Black;"/>
<text style="font-family:Arial;font-size:12px;kerning:0;word-spacing:-1px;fill:Black;">
<tspan x="1488" y="619">n11:P12 (2) [*] D -&gt; IRI</tspan>
</text>
</g>
<g id="2002687138"><polygon points="1350,245 1650,245 1650,295 1350,295 "
style="fill:#F4D03F; stroke-width:1;stroke:Black;"/>
<text style="font-family:Arial;font-size:12px;kerning:0;word-spacing:-1px;fill:Black;font-weight:bold;">
<tspan x="1430" y="260">wikiba:TimeValue (1842)</tspan>
</text>
<line x1="1354" y1="263" x2="1648" y2="263"
 style="stroke-width:1;stroke:Black;"/>
<text style="font-family:Arial;font-size:12px;kerning:0;word-spacing:-1px;fill:Black;">
<tspan x="1354" y="275">wikiba:timeCalendarModel (1842) [1] D -&gt; IRI</tspan>
<tspan x="1354" y="290">wikiba:timeValue (1842) [1] D</tspan>
</text>
</g>
<g id="2002686976"><path d="M680,615 L914,615 "
style="fill:none;stroke-width:1;stroke:Black;"/>
<line x1="908" y1="612" x2="914" y2="615"
 style="stroke-width:1;stroke:Black;"/>
<line x1="908" y1="618" x2="914" y2="615"
 style="stroke-width:1;stroke:Black;"/>
<text style="font-family:Arial;font-size:12px;kerning:0;word-spacing:-1px;fill:Black;">
<tspan x="684" y="538">prop:P7  R</tspan>
<tspan x="684" y="553">prop:P9  R</tspan>
<tspan x="684" y="568">prop:P6  R</tspan>
<tspan x="684" y="583">prop:P8  R</tspan>
<tspan x="684" y="598">prop:P33  R</tspan>
<tspan x="684" y="613">prop:P38  R</tspan>
</text>
</g>
<g id="2002687011"><path d="M819,177 L695,177 "
style="fill:none;stroke-width:1;stroke:Black;"/>
<line x1="701" y1="174" x2="695" y2="177"
 style="stroke-width:1;stroke:Black;"/>
<line x1="701" y1="180" x2="695" y2="177"
 style="stroke-width:1;stroke:Black;"/>
<text style="font-family:Arial;font-size:12px;kerning:0;word-spacing:-1px;fill:Black;">
<tspan x="699" y="190">wikiba:reference  D</tspan>
<tspan x="699" y="205">wikiba:directClaim  D</tspan>
<tspan x="699" y="220">wikiba:qualifier  D</tspan>
</text>
</g>
<g id="2002687036"><path d="M819,78 L724,78 720,76 718,72 718,16 720,12 724,10 969,10 969,16 "
style="fill:none;stroke-width:1;stroke:Black;"/>
<line x1="966" y1="10" x2="969" y2="16"
 style="stroke-width:1;stroke:Black;"/>
<line x1="972" y1="10" x2="969" y2="16"
 style="stroke-width:1;stroke:Black;"/>
<text style="font-family:Arial;font-size:12px;kerning:0;word-spacing:-1px;fill:Black;">
<tspan x="736" y="91">direct:P36  DR</tspan>
</text>
</g>
<g id="2002687041"><path d="M1119,200 L1320,200 "
style="fill:none;stroke-width:1;stroke:Black;"/>
<line x1="1314" y1="197" x2="1320" y2="200"
 style="stroke-width:1;stroke:Black;"/>
<line x1="1314" y1="203" x2="1320" y2="200"
 style="stroke-width:1;stroke:Black;"/>
<text style="font-family:Arial;font-size:12px;kerning:0;word-spacing:-1px;fill:Black;">
<tspan x="1123" y="33">wikiba:referenceValue  DR</tspan>
<tspan x="1123" y="48">wikiba:claim  DR</tspan>
<tspan x="1123" y="63">wikiba:qualifierValue  DR</tspan>
<tspan x="1123" y="78">wikiba:reference  D</tspan>
<tspan x="1123" y="93">wikiba:directClaim  D</tspan>
<tspan x="1123" y="108">wikiba:qualifier  D</tspan>
<tspan x="1123" y="123">wikiba:statementValue  DR</tspan>
<tspan x="1123" y="138">wikiba:directClaimNormalized  DR</tspan>
<tspan x="1123" y="153">wikiba:statementValueNormalized  </tspan>
<tspan x="1123" y="168">DR</tspan>
<tspan x="1123" y="183">wikiba:referenceValueNormalized  </tspan>
<tspan x="1123" y="198">DR</tspan>
</text>
</g>
<g id="2002687046"><path d="M914,519 L680,519 "
style="fill:none;stroke-width:1;stroke:Black;"/>
<line x1="686" y1="516" x2="680" y2="519"
 style="stroke-width:1;stroke:Black;"/>
<line x1="686" y1="522" x2="680" y2="519"
 style="stroke-width:1;stroke:Black;"/>
<text style="font-family:Arial;font-size:12px;kerning:0;word-spacing:-1px;fill:Black;">
<tspan x="822" y="532">statement:P4  </tspan>
<tspan x="822" y="547">statement:P2  D</tspan>
<tspan x="822" y="562">statement:P9  D</tspan>
<tspan x="822" y="577">statement:P5  D</tspan>
</text>
</g>
<g id="2002687051"><path d="M819,133 L706,133 "
style="fill:none;stroke-width:1;stroke:Black;"/>
<line x1="712" y1="130" x2="706" y2="133"
 style="stroke-width:1;stroke:Black;"/>
<line x1="712" y1="136" x2="706" y2="133"
 style="stroke-width:1;stroke:Black;"/>
<text style="font-family:Arial;font-size:12px;kerning:0;word-spacing:-1px;fill:Black;">
<tspan x="710" y="146">wikiba:novalue  DR</tspan>
</text>
</g>
<g id="2002687066"><path d="M1664,737 L1664,803 "
style="fill:none;stroke-width:2;stroke:Fuchsia;"/>
<polygon points="1669,747 1664,737 1659,747 "
style="fill:Silver;stroke-width:1;stroke:Black;"/>
<text style="font-family:Arial;font-size:12px;kerning:0;word-spacing:-1px;fill:Black;">
<tspan x="1666" y="752"> </tspan>
</text>
</g>
<g id="2002687068"><path d="M1370,442 L1370,770 "
style="fill:none;stroke-width:2;stroke:Fuchsia;"/>
<polygon points="1375,452 1370,442 1365,452 "
style="fill:Silver;stroke-width:1;stroke:Black;"/>
<text style="font-family:Arial;font-size:12px;kerning:0;word-spacing:-1px;fill:Black;">
<tspan x="1372" y="457"> </tspan>
</text>
</g>
<g id="2002687070"><path d="M1139,751 L1139,770 "
style="fill:none;stroke-width:2;stroke:Fuchsia;"/>
<polygon points="1144,761 1139,751 1134,761 "
style="fill:Silver;stroke-width:1;stroke:Black;"/>
<text style="font-family:Arial;font-size:12px;kerning:0;word-spacing:-1px;fill:Black;">
<tspan x="1141" y="766"> </tspan>
</text>
</g>
<g id="2002687026"><path d="M1507,332 L1507,295 "
style="fill:none;stroke-width:1;stroke:Black;"/>
<line x1="1504" y1="301" x2="1507" y2="295"
 style="stroke-width:1;stroke:Black;"/>
<line x1="1510" y1="301" x2="1507" y2="295"
 style="stroke-width:1;stroke:Black;"/>
<text style="font-family:Arial;font-size:12px;kerning:0;word-spacing:-1px;fill:Black;">
<tspan x="1435" y="328">n10:P31  DR</tspan>
</text>
</g>
<g id="2002687056"><path d="M380,377 L291,377 287,375 285,371 285,285 287,281 291,279 380,279 "
style="fill:none;stroke-width:1;stroke:Black;"/>
<line x1="374" y1="276" x2="380" y2="279"
 style="stroke-width:1;stroke:Black;"/>
<line x1="374" y1="282" x2="380" y2="279"
 style="stroke-width:1;stroke:Black;"/>
<text style="font-family:Arial;font-size:12px;kerning:0;word-spacing:-1px;fill:Black;">
<tspan x="297" y="390">direct:P33  R</tspan>
<tspan x="297" y="405">direct:P24  </tspan>
<tspan x="297" y="420">direct:P32  DR</tspan>
<tspan x="297" y="435">direct:P37  DR</tspan>
</text>
</g>
<g id="2002687061"><path d="M311,647 L380,647 "
style="fill:none;stroke-width:1;stroke:Black;"/>
<line x1="374" y1="644" x2="380" y2="647"
 style="stroke-width:1;stroke:Black;"/>
<line x1="374" y1="650" x2="380" y2="647"
 style="stroke-width:1;stroke:Black;"/>
<text style="font-family:Arial;font-size:12px;kerning:0;word-spacing:-1px;fill:Black;">
<tspan x="315" y="645">direct:P24  </tspan>
</text>
</g>
<g id="2002686991"><path d="M1576,442 L1576,589 "
style="fill:none;stroke-width:1;stroke:Black;"/>
<line x1="1573" y1="583" x2="1576" y2="589"
 style="stroke-width:1;stroke:Black;"/>
<line x1="1579" y1="583" x2="1576" y2="589"
 style="stroke-width:1;stroke:Black;"/>
<text style="font-family:Arial;font-size:12px;kerning:0;word-spacing:-1px;fill:Black;">
<tspan x="1578" y="457">prov:wasDerivedFrom  DR</tspan>
</text>
</g>
<g id="2002686986"><path d="M680,432 L1344,432 "
style="fill:none;stroke-width:1;stroke:Black;"/>
<line x1="1338" y1="429" x2="1344" y2="432"
 style="stroke-width:1;stroke:Black;"/>
<line x1="1338" y1="435" x2="1344" y2="432"
 style="stroke-width:1;stroke:Black;"/>
<text style="font-family:Arial;font-size:12px;kerning:0;word-spacing:-1px;fill:Black;">
<tspan x="684" y="385">prop:P30  DR</tspan>
<tspan x="684" y="400">prop:P32  DR</tspan>
<tspan x="684" y="415">prop:P37  DR</tspan>
<tspan x="684" y="430">prop:P31  DR</tspan>
</text>
</g>
<g id="2002687031"><path d="M1091,225 L1091,461 "
style="fill:none;stroke-width:1;stroke:Black;"/>
<line x1="1088" y1="455" x2="1091" y2="461"
 style="stroke-width:1;stroke:Black;"/>
<line x1="1094" y1="455" x2="1091" y2="461"
 style="stroke-width:1;stroke:Black;"/>
<text style="font-family:Arial;font-size:12px;kerning:0;word-spacing:-1px;fill:Black;">
<tspan x="1093" y="240">prop:P36  DR</tspan>
</text>
</g>
<g id="2002687016"><path d="M1344,366 L680,366 "
style="fill:none;stroke-width:1;stroke:Black;"/>
<line x1="686" y1="363" x2="680" y2="366"
 style="stroke-width:1;stroke:Black;"/>
<line x1="686" y1="369" x2="680" y2="366"
 style="stroke-width:1;stroke:Black;"/>
<text style="font-family:Arial;font-size:12px;kerning:0;word-spacing:-1px;fill:Black;">
<tspan x="1286" y="379">n4:P34  D</tspan>
</text>
</g>
<g id="2002687021"><path d="M930,843 L930,751 "
style="fill:none;stroke-width:1;stroke:Black;"/>
<line x1="927" y1="757" x2="930" y2="751"
 style="stroke-width:1;stroke:Black;"/>
<line x1="933" y1="757" x2="930" y2="751"
 style="stroke-width:1;stroke:Black;"/>
<text style="font-family:Arial;font-size:12px;kerning:0;word-spacing:-1px;fill:Black;">
<tspan x="863" y="839">prop:P39  R</tspan>
</text>
</g>
<g id="2002686996"><path d="M914,734 L829,734 825,736 823,740 823,843 "
style="fill:none;stroke-width:1;stroke:Black;"/>
<line x1="820" y1="837" x2="823" y2="843"
 style="stroke-width:1;stroke:Black;"/>
<line x1="826" y1="837" x2="823" y2="843"
 style="stroke-width:1;stroke:Black;"/>
<text style="font-family:Arial;font-size:12px;kerning:0;word-spacing:-1px;fill:Black;">
<tspan x="831" y="747">statement:P4  </tspan>
</text>
</g>
<g id="2002687006"><path d="M662,843 L662,661 "
style="fill:none;stroke-width:1;stroke:Black;"/>
<line x1="659" y1="667" x2="662" y2="661"
 style="stroke-width:1;stroke:Black;"/>
<line x1="665" y1="667" x2="662" y2="661"
 style="stroke-width:1;stroke:Black;"/>
<text style="font-family:Arial;font-size:12px;kerning:0;word-spacing:-1px;fill:Black;">
<tspan x="599" y="839">direct:P24  </tspan>
</text>
</g>
<g id="2002686981"><path d="M311,682 L914,682 "
style="fill:none;stroke-width:1;stroke:Black;"/>
<line x1="908" y1="679" x2="914" y2="682"
 style="stroke-width:1;stroke:Black;"/>
<line x1="908" y1="685" x2="914" y2="682"
 style="stroke-width:1;stroke:Black;"/>
<text style="font-family:Arial;font-size:12px;kerning:0;word-spacing:-1px;fill:Black;">
<tspan x="315" y="680">prop:P8  R</tspan>
</text>
</g>
<g id="2002687001"><path d="M914,707 L311,707 "
style="fill:none;stroke-width:1;stroke:Black;"/>
<line x1="317" y1="704" x2="311" y2="707"
 style="stroke-width:1;stroke:Black;"/>
<line x1="317" y1="710" x2="311" y2="707"
 style="stroke-width:1;stroke:Black;"/>
<text style="font-family:Arial;font-size:12px;kerning:0;word-spacing:-1px;fill:Black;">
<tspan x="822" y="720">statement:P5  D</tspan>
</text>
</g>
</svg>
