<?xml version="1.0" encoding="UTF-8" standalone="no"?>
<!DOCTYPE svg PUBLIC "-//W3C//DTD SVG 1.1//EN"
"http://www.w3.org/Graphics/SVG/1.1/DTD/svg11.dtd">
<svg version="1.1" xmlns="http://www.w3.org/2000/svg"
xmlns:xlink="http://www.w3.org/1999/xlink" xml:space="preserve"
 width="2070" height="1085" viewBox="0 0 2070 1085">
 onmousemove="movetip(evt)" onmouseup="endmove()">
<rect x="0" y="0" width="100%" height="100%" style="fill:White;"/>
<script type="application/ecmascript"> <![CDATA[
var dragtipid = null; var dragcase = false; function init(evt){
if (window.svgDocument==null) svgDocument = evt.target.ownerDocument;
}
function movetip(evt){if (dragtipid!=null){ dragcase = true;
var tip=svgDocument.getElementById(dragtipid);
tip.setAttributeNS(null,"x",evt.clientX-2);
tip.setAttributeNS(null,"y",evt.clientY-2);
}}
function endmove(){dragtipid = null;}
function startmove(evt,id){dragtipid = id; dragcase = false;
var tip=svgDocument.getElementById(dragtipid);
tip.setAttributeNS(null,"x",evt.clientX-2);
tip.setAttributeNS(null,"y",evt.clientY-2);
}
function Showtip(evt,id){ dragtipid = null;
var tip=svgDocument.getElementById(id);
var vis=tip.getAttributeNS(null,"visibility");
if (vis=="hidden"){
tip.setAttributeNS(null,"x",evt.clientX-2);
tip.setAttributeNS(null,"y",evt.clientY-2);
tip.setAttributeNS(null,"visibility","visible");
}}
function Hidetip(id){ dragtipid = null; if (dragcase==false){
var tip=svgDocument.getElementById(id);
tip.setAttributeNS(null,"visibility","hidden");
}}
]]></script>
<defs><linearGradient id="activ1" x1="0%" y1="0%" x2="100%" y2="0%">
<stop offset="0%" style="stop-color:#FFFF00;stop-opacity:1"/>
<stop offset="100%" style="stop-color:#FFFFF0;stop-opacity:1"/>
</linearGradient></defs>
<g id="2002689697"><polygon points="171,916 471,916 471,981 171,981 "
style="fill:#F4D03F; stroke-width:1;stroke:Black;"/>
<text style="font-family:Arial;font-size:12px;kerning:0;word-spacing:-1px;fill:Black;font-weight:bold;">
<tspan x="275" y="931">rdf:Property (23)</tspan>
</text>
<line x1="175" y1="934" x2="469" y2="934"
 style="stroke-width:1;stroke:Black;"/>
<text style="font-family:Arial;font-size:12px;kerning:0;word-spacing:-1px;fill:Black;">
<tspan x="175" y="946">rdf:type (28) [*]  -&gt; IRI</tspan>
<tspan x="175" y="961">rdfs:label (23) [1] </tspan>
<tspan x="175" y="976">rdfs:subPropertyOf (2) [1] D -&gt; IRI</tspan>
</text>
</g>
<g id="2002689708"><polygon points="1303,195 1603,195 1603,276 1303,276 "
style="fill:#F4D03F; stroke-width:1;stroke:Black;"/>
<polygon points="1300,198 1600,198 1600,279 1300,279 "
style="fill:#F4D03F; stroke-width:1;stroke:Black;"/>
<text style="font-family:Arial;font-size:12px;kerning:0;word-spacing:-1px;fill:Black;font-weight:bold;">
<tspan x="1340" y="213">:array-of-QuadMapColumn or :array-of-</tspan>
<tspan x="1368" y="229">QuadMapATable G101 (~10)</tspan>
</text>
<line x1="1304" y1="232" x2="1598" y2="232"
 style="stroke-width:1;stroke:Black;"/>
<text style="font-family:Arial;font-size:12px;kerning:0;word-spacing:-1px;fill:Black;">
<tspan x="1304" y="244">rdf:type (10) [*]  -&gt; IRI</tspan>
</text>
<text style="font-family:Arial;font-size:11px;kerning:0;word-spacing:-1px;fill:Black;font-weight:bold;">
<tspan x="1304" y="259">:array-of-QuadMapATable (2)</tspan>
<tspan x="1304" y="274">:array-of-QuadMapColumn (8)</tspan>
</text>
</g>
<g id="2002689719"><polygon points="10,175 310,175 310,225 10,225 "
style="fill:#F4D03F; stroke-width:1;stroke:Black;"/>
<text style="font-family:Arial;font-size:12px;kerning:0;word-spacing:-1px;fill:Black;font-weight:bold;">
<tspan x="111" y="190">:QuadStorage (3)</tspan>
</text>
<line x1="14" y1="193" x2="308" y2="193"
 style="stroke-width:1;stroke:Black;"/>
<text style="font-family:Arial;font-size:12px;kerning:0;word-spacing:-1px;fill:Black;">
<tspan x="14" y="205">:qsMatchingFlags (2) [1] D -&gt; IRI</tspan>
<tspan x="14" y="220">rdf:type (3) [*]  -&gt; IRI</tspan>
</text>
</g>
<g id="2002689730"><polygon points="187,1000 487,1000 487,1045 187,1045 "
style="fill:#F4D03F; stroke-width:1;stroke:Black;"/>
<text style="font-family:Arial;font-size:12px;kerning:0;word-spacing:-1px;fill:Black;font-weight:bold;">
<tspan x="266" y="1015">owl:OntologyProperty (4)</tspan>
</text>
</g>
<g id="2002689763"><polygon points="1412,889 1712,889 1712,969 1412,969 "
style="fill:#F4D03F; stroke-width:1;stroke:Black;"/>
<text style="font-family:Arial;font-size:12px;kerning:0;word-spacing:-1px;fill:Black;font-weight:bold;">
<tspan x="1523" y="904">sd:Service (1)</tspan>
</text>
<line x1="1416" y1="907" x2="1710" y2="907"
 style="stroke-width:1;stroke:Black;"/>
<text style="font-family:Arial;font-size:12px;kerning:0;word-spacing:-1px;fill:Black;">
<tspan x="1416" y="919">rdf:type (1) [*]  -&gt; IRI</tspan>
<tspan x="1416" y="934">sd:feature (2) [*] D -&gt; IRI</tspan>
<tspan x="1416" y="949">sd:resultFormat (8) [*] D -&gt; IRI</tspan>
<tspan x="1416" y="964">sd:supportedLanguage (1) [1] D -&gt; IRI</tspan>
</text>
</g>
<g id="2002689774"><polygon points="157,712 457,712 457,792 157,792 "
style="fill:#F4D03F; stroke-width:1;stroke:Black;"/>
<text style="font-family:Arial;font-size:12px;kerning:0;word-spacing:-1px;fill:Black;font-weight:bold;">
<tspan x="248" y="727">n1:Enrollment (8524)</tspan>
</text>
<line x1="161" y1="730" x2="455" y2="730"
 style="stroke-width:1;stroke:Black;"/>
<text style="font-family:Arial;font-size:12px;kerning:0;word-spacing:-1px;fill:Black;">
<tspan x="161" y="742">n1:enrollmentNumberOfClicks (8524) [1] D</tspan>
<tspan x="161" y="757">n1:enrollmentNumberOfSubmissions (8524) [1] D</tspan>
<tspan x="161" y="772">n1:enrollmentRole (8524) [1] D</tspan>
<tspan x="161" y="787">rdf:type (8524) [*]  -&gt; IRI</tspan>
</text>
</g>
<g id="2002689796"><polygon points="1311,712 1611,712 1611,822 1311,822 "
style="fill:#F4D03F; stroke-width:1;stroke:Black;"/>
<text style="font-family:Arial;font-size:12px;kerning:0;word-spacing:-1px;fill:Black;font-weight:bold;">
<tspan x="1415" y="727">owl:Ontology (1)</tspan>
</text>
<line x1="1315" y1="730" x2="1609" y2="730"
 style="stroke-width:1;stroke:Black;"/>
<text style="font-family:Arial;font-size:12px;kerning:0;word-spacing:-1px;fill:Black;">
<tspan x="1315" y="742">owl:imports (1) [1] D -&gt; IRI</tspan>
<tspan x="1315" y="757">owl:priorVersion (1) [1] D -&gt; IRI</tspan>
<tspan x="1315" y="772">owl:versionInfo (1) [1] D</tspan>
<tspan x="1315" y="787">rdf:type (1) [*]  -&gt; IRI</tspan>
<tspan x="1315" y="802">rdfs:comment (1) [1] D</tspan>
<tspan x="1315" y="817">rdfs:isDefinedBy (3) [*] D -&gt; IRI</tspan>
</text>
</g>
<g id="2002689807"><polygon points="1398,572 1698,572 1698,676 1398,676 "
style="fill:#F4D03F; stroke-width:1;stroke:Black;"/>
<text style="font-family:Arial;font-size:12px;kerning:0;word-spacing:-1px;fill:Black;font-weight:bold;">
<tspan x="1462" y="587">:array-of-QuadMapFormat (98)</tspan>
</text>
<line x1="1402" y1="590" x2="1696" y2="590"
 style="stroke-width:1;stroke:Black;"/>
<text style="font-family:Arial;font-size:12px;kerning:0;word-spacing:-1px;fill:Black;">
<tspan x="1402" y="602">rdf:type (98) [*]  -&gt; IRI</tspan>
</text>
</g>
<g id="2002689818"><polygon points="551,826 851,826 851,871 551,871 "
style="fill:#F4D03F; stroke-width:1;stroke:Black;"/>
<text style="font-family:Arial;font-size:12px;kerning:0;word-spacing:-1px;fill:Black;font-weight:bold;">
<tspan x="625" y="841">owl:AnnotationProperty (5)</tspan>
</text>
<line x1="555" y1="844" x2="849" y2="844"
 style="stroke-width:1;stroke:Black;"/>
<text style="font-family:Arial;font-size:12px;kerning:0;word-spacing:-1px;fill:Black;">
<tspan x="555" y="856">rdf:type (6) [*]  -&gt; IRI</tspan>
</text>
</g>
<g id="2002689829"><polygon points="1760,560 2060,560 2060,625 1760,625 "
style="fill:#F4D03F; stroke-width:1;stroke:Black;"/>
<text style="font-family:Arial;font-size:12px;kerning:0;word-spacing:-1px;fill:Black;font-weight:bold;">
<tspan x="1849" y="575">:QuadMapColumn (8)</tspan>
</text>
<line x1="1764" y1="578" x2="2058" y2="578"
 style="stroke-width:1;stroke:Black;"/>
<text style="font-family:Arial;font-size:12px;kerning:0;word-spacing:-1px;fill:Black;">
<tspan x="1764" y="590">:qmvcAlias (8) [1] D</tspan>
<tspan x="1764" y="605">:qmvcColumnName (8) [1] D</tspan>
<tspan x="1764" y="620">rdf:type (8) [*]  -&gt; IRI</tspan>
</text>
</g>
<g id="2002689840"><polygon points="560,889 860,889 860,954 560,954 "
style="fill:#F4D03F; stroke-width:1;stroke:Black;"/>
<text style="font-family:Arial;font-size:12px;kerning:0;word-spacing:-1px;fill:Black;font-weight:bold;">
<tspan x="673" y="904">owl:Class (3)</tspan>
</text>
<line x1="564" y1="907" x2="858" y2="907"
 style="stroke-width:1;stroke:Black;"/>
<text style="font-family:Arial;font-size:12px;kerning:0;word-spacing:-1px;fill:Black;">
<tspan x="564" y="919">owl:unionOf (1) [1] D -&gt; IRI</tspan>
<tspan x="564" y="934">rdf:type (3) [*]  -&gt; IRI</tspan>
<tspan x="564" y="949">rdfs:label (2) [1] </tspan>
</text>
</g>
<g id="2002689851"><polygon points="204,798 504,798 504,848 204,848 "
style="fill:#F4D03F; stroke-width:1;stroke:Black;"/>
<text style="font-family:Arial;font-size:12px;kerning:0;word-spacing:-1px;fill:Black;font-weight:bold;">
<tspan x="312" y="813">n1:User (1285)</tspan>
</text>
<line x1="208" y1="816" x2="502" y2="816"
 style="stroke-width:1;stroke:Black;"/>
<text style="font-family:Arial;font-size:12px;kerning:0;word-spacing:-1px;fill:Black;">
<tspan x="208" y="828">n1:userId (1285) [1] D</tspan>
<tspan x="208" y="843">rdf:type (1285) [*]  -&gt; IRI</tspan>
</text>
</g>
<g id="2002689862"><polygon points="1283,70 1583,70 1583,115 1283,115 "
style="fill:#F4D03F; stroke-width:1;stroke:Black;"/>
<text style="font-family:Arial;font-size:12px;kerning:0;word-spacing:-1px;fill:Black;font-weight:bold;">
<tspan x="1383" y="85">:array-of-string (2)</tspan>
</text>
<line x1="1287" y1="88" x2="1581" y2="88"
 style="stroke-width:1;stroke:Black;"/>
<text style="font-family:Arial;font-size:12px;kerning:0;word-spacing:-1px;fill:Black;">
<tspan x="1287" y="100">rdf:type (2) [*]  -&gt; IRI</tspan>
</text>
</g>
<g id="2002689873"><polygon points="557,720 857,720 857,785 557,785 "
style="fill:#F4D03F; stroke-width:1;stroke:Black;"/>
<text style="font-family:Arial;font-size:12px;kerning:0;word-spacing:-1px;fill:Black;font-weight:bold;">
<tspan x="665" y="735">n1:Course (93)</tspan>
</text>
<line x1="561" y1="738" x2="855" y2="738"
 style="stroke-width:1;stroke:Black;"/>
<text style="font-family:Arial;font-size:12px;kerning:0;word-spacing:-1px;fill:Black;">
<tspan x="561" y="750">n1:courseId (93) [1] D</tspan>
<tspan x="561" y="765">n1:courseSource (93) [1] D</tspan>
<tspan x="561" y="780">rdf:type (93) [*]  -&gt; IRI</tspan>
</text>
</g>
<g id="2002689884"><polygon points="955,245 1255,245 1255,1075 955,1075 "
style="fill:#F4D03F; stroke-width:1;stroke:Black;"/>
<text style="font-family:Arial;font-size:12px;kerning:0;word-spacing:-1px;fill:Black;font-weight:bold;">
<tspan x="1039" y="260">:QuadMapFormat (130)</tspan>
</text>
<line x1="959" y1="263" x2="1253" y2="263"
 style="stroke-width:1;stroke:Black;"/>
<text style="font-family:Arial;font-size:12px;kerning:0;word-spacing:-1px;fill:Black;">
<tspan x="959" y="275">:noInherit (56) [*] D -&gt; IRI</tspan>
<tspan x="959" y="290">:qmf01blankOfShortTmpl (2) [1] D</tspan>
<tspan x="959" y="305">:qmf01uriOfShortTmpl (2) [1] D</tspan>
<tspan x="959" y="320">:qmfBoolOfShortTmpl (47) [1] D</tspan>
<tspan x="959" y="335">:qmfBoolTmpl (42) [1] D</tspan>
<tspan x="959" y="350">:qmfCmpFuncName (39) [1] D</tspan>
<tspan x="959" y="365">:qmfColumnCount (31) [1] D</tspan>
<tspan x="959" y="380">:qmfCustomString1 (12) [1] D</tspan>
<tspan x="959" y="395">:qmfDatatypeOfShortTmpl (31) [1] D</tspan>
<tspan x="959" y="410">:qmfDatatypeTmpl (2) [1] D</tspan>
<tspan x="959" y="425">:qmfDtpOfNiceSqlval (6) [1] D</tspan>
<tspan x="959" y="440">:qmfExistingShortOfLongTmpl (2) [1] D</tspan>
<tspan x="959" y="455">:qmfExistingShortOfSqlvalTmpl (2) [1] D</tspan>
<tspan x="959" y="470">:qmfExistingShortOfTypedsqlvalTmpl (2) [1] D</tspan>
<tspan x="959" y="485">:qmfExistingShortOfUriTmpl (2) [1] D</tspan>
<tspan x="959" y="500">:qmfHasCheapSqlval (22) [1] D</tspan>
<tspan x="959" y="515">:qmfIidOfShortTmpl (57) [1] D</tspan>
<tspan x="959" y="530">:qmfIsBijection (47) [1] D</tspan>
<tspan x="959" y="545">:qmfIsStable (47) [1] D</tspan>
<tspan x="959" y="560">:qmfIsSubformatOfLong (8) [1] D</tspan>
<tspan x="959" y="575">:qmfIsSubformatOfLongWhenEqToSql (2) [1] D</tspan>
<tspan x="959" y="590">:qmfIsSubformatOfLongWhenRef (4) [1] D</tspan>
<tspan x="959" y="605">:qmfIsblankOfShortTmpl (31) [1] D</tspan>
<tspan x="959" y="620">:qmfIslitOfShortTmpl (31) [1] D</tspan>
<tspan x="959" y="635">:qmfIsnumericOfShortTmpl (19) [1] D</tspan>
<tspan x="959" y="650">:qmfIsrefOfShortTmpl (31) [1] D</tspan>
<tspan x="959" y="665">:qmfIsuriOfShortTmpl (31) [1] D</tspan>
<tspan x="959" y="680">:qmfLanguageOfShortTmpl (31) [1] D</tspan>
<tspan x="959" y="695">:qmfLanguageTmpl (4) [1] D</tspan>
<tspan x="959" y="710">:qmfLongOfShortTmpl (45) [1] D</tspan>
<tspan x="959" y="725">:qmfLongTmpl (45) [1] D</tspan>
<tspan x="959" y="740">:qmfMapsOnlyNullToNull (40) [1] D</tspan>
<tspan x="959" y="755">:qmfName (130) [1] D</tspan>
<tspan x="959" y="770">:qmfOkForAnySqlvalue (31) [1] D</tspan>
<tspan x="959" y="785">:qmfShortOfLongTmpl (31) [1] D</tspan>
<tspan x="959" y="800">:qmfShortOfNiceSqlvalTmpl (6) [1] D</tspan>
<tspan x="959" y="815">:qmfShortOfSqlvalTmpl (31) [1] D</tspan>
<tspan x="959" y="830">:qmfShortOfTypedsqlvalTmpl (31) [1] D</tspan>
<tspan x="959" y="845">:qmfShortOfUriTmpl (31) [1] D</tspan>
<tspan x="959" y="860">:qmfShortTmpl (31) [1] D</tspan>
<tspan x="959" y="875">:qmfSparqlEbvOfShortTmpl (37) [1] D</tspan>
<tspan x="959" y="890">:qmfSparqlEbvTmpl (29) [1] D</tspan>
<tspan x="959" y="905">:qmfSqlvalOfShortTmpl (53) [1] D</tspan>
<tspan x="959" y="920">:qmfSqlvalTmpl (53) [1] D</tspan>
<tspan x="959" y="935">:qmfStrsqlvalOfShortTmpl (53) [1] D</tspan>
<tspan x="959" y="950">:qmfTypemaxTmpl (39) [1] D</tspan>
<tspan x="959" y="965">:qmfTypeminTmpl (39) [1] D</tspan>
<tspan x="959" y="980">:qmfUriIdOffset (39) [1] D</tspan>
<tspan x="959" y="995">:qmfUriOfShortTmpl (45) [1] D</tspan>
<tspan x="959" y="1010">:qmfValRange-rvrDatatype (7) [1] D</tspan>
<tspan x="959" y="1025">:qmfValRange-rvrLanguage (1) [1] D</tspan>
<tspan x="959" y="1040">:qmfValRange-rvrRestrictions (172) [*] D -&gt; IRI</tspan>
<tspan x="959" y="1055">:qmfWrapDistinct (2) [1] D</tspan>
<tspan x="959" y="1070">rdf:type (130) [*]  -&gt; IRI</tspan>
</text>
</g>
<g id="2002689741"><polygon points="60,79 360,79 360,124 60,124 "
style="fill:#F4D03F; stroke-width:1;stroke:Black;"/>
<text style="font-family:Arial;font-size:12px;kerning:0;word-spacing:-1px;fill:Black;font-weight:bold;">
<tspan x="148" y="94">:array-of-QuadMap (3)</tspan>
</text>
<line x1="64" y1="97" x2="358" y2="97"
 style="stroke-width:1;stroke:Black;"/>
<text style="font-family:Arial;font-size:12px;kerning:0;word-spacing:-1px;fill:Black;">
<tspan x="64" y="109">rdf:type (3) [*]  -&gt; IRI</tspan>
</text>
</g>
<g id="2002689752"><polygon points="848,10 1148,10 1148,105 848,105 "
style="fill:#F4D03F; stroke-width:1;stroke:Black;"/>
<text style="font-family:Arial;font-size:12px;kerning:0;word-spacing:-1px;fill:Black;font-weight:bold;">
<tspan x="943" y="25">:QuadMapFText (4)</tspan>
</text>
<line x1="852" y1="28" x2="1146" y2="28"
 style="stroke-width:1;stroke:Black;"/>
<text style="font-family:Arial;font-size:12px;kerning:0;word-spacing:-1px;fill:Black;">
<tspan x="852" y="40">:qmvftAlias (2) [1] D</tspan>
<tspan x="852" y="55">:qmvftColumnName (4) [1] D</tspan>
<tspan x="852" y="70">:qmvftTableName (2) [1] D</tspan>
<tspan x="852" y="85">:qmvftXmlIndex (3) [1] D</tspan>
<tspan x="852" y="100">rdf:type (4) [*]  -&gt; IRI</tspan>
</text>
</g>
<g id="2002689906"><polygon points="861,156 1161,156 1161,221 861,221 "
style="fill:#F4D03F; stroke-width:1;stroke:Black;"/>
<text style="font-family:Arial;font-size:12px;kerning:0;word-spacing:-1px;fill:Black;font-weight:bold;">
<tspan x="956" y="171">:QuadMapValue (8)</tspan>
</text>
<line x1="865" y1="174" x2="1159" y2="174"
 style="stroke-width:1;stroke:Black;"/>
<text style="font-family:Arial;font-size:12px;kerning:0;word-spacing:-1px;fill:Black;">
<tspan x="865" y="186">:qmvColumnsFormKey (8) [1] D</tspan>
<tspan x="865" y="201">:qmvTableName (8) [1] D</tspan>
<tspan x="865" y="216">rdf:type (8) [*]  -&gt; IRI</tspan>
</text>
</g>
<g id="2002689785"><polygon points="421,144 651,144 651,212 421,212 "
style="fill:#F4D03F; stroke-width:1;stroke:Black;"/>
<text style="font-family:Arial;font-size:12px;kerning:0;word-spacing:-1px;fill:Black;font-weight:bold;">
<tspan x="497" y="159">:QuadMap (2)</tspan>
</text>
<line x1="425" y1="162" x2="649" y2="162"
 style="stroke-width:1;stroke:Black;"/>
<text style="font-family:Arial;font-size:12px;kerning:0;word-spacing:-1px;fill:Black;">
<tspan x="425" y="174">:qmMatchingFlags (2) [1] D -&gt; IRI</tspan>
<tspan x="425" y="189">:qmTableName (2) [1] D</tspan>
<tspan x="425" y="204">rdf:type (2) [*]  -&gt; IRI</tspan>
</text>
</g>
<g id="2002689895"><polygon points="1420,371 1720,371 1720,436 1420,436 "
style="fill:#F4D03F; stroke-width:1;stroke:Black;"/>
<text style="font-family:Arial;font-size:12px;kerning:0;word-spacing:-1px;fill:Black;font-weight:bold;">
<tspan x="1511" y="386">:QuadMapATable (2)</tspan>
</text>
<line x1="1424" y1="389" x2="1718" y2="389"
 style="stroke-width:1;stroke:Black;"/>
<text style="font-family:Arial;font-size:12px;kerning:0;word-spacing:-1px;fill:Black;">
<tspan x="1424" y="401">:qmvaAlias (2) [1] D</tspan>
<tspan x="1424" y="416">:qmvaTableName (2) [1] D</tspan>
<tspan x="1424" y="431">rdf:type (2) [*]  -&gt; IRI</tspan>
</text>
</g>
<g id="2002689595"><path d="M1300,258 L1255,258 "
style="fill:none;stroke-width:1;stroke:Black;"/>
<line x1="1261" y1="255" x2="1255" y2="258"
 style="stroke-width:1;stroke:Black;"/>
<line x1="1261" y1="261" x2="1255" y2="258"
 style="stroke-width:1;stroke:Black;"/>
<text style="font-family:Arial;font-size:12px;kerning:0;word-spacing:-1px;fill:Black;">
<tspan x="1259" y="271">rdf:_1  </tspan>
</text>
</g>
<g id="2002689605"><path d="M560,895 L427,895 423,893 421,889 421,889 423,885 427,883 710,883 710,889 "
style="fill:none;stroke-width:1;stroke:Black;"/>
<line x1="707" y1="883" x2="710" y2="889"
 style="stroke-width:1;stroke:Black;"/>
<line x1="713" y1="883" x2="710" y2="889"
 style="stroke-width:1;stroke:Black;"/>
<text style="font-family:Arial;font-size:12px;kerning:0;word-spacing:-1px;fill:Black;">
<tspan x="429" y="908">owl:complementOf  DR</tspan>
</text>
</g>
<g id="2002689630"><path d="M1148,87 L1283,87 "
style="fill:none;stroke-width:1;stroke:Black;"/>
<line x1="1277" y1="84" x2="1283" y2="87"
 style="stroke-width:1;stroke:Black;"/>
<line x1="1277" y1="90" x2="1283" y2="87"
 style="stroke-width:1;stroke:Black;"/>
<text style="font-family:Arial;font-size:12px;kerning:0;word-spacing:-1px;fill:Black;">
<tspan x="1152" y="85">:qmvftConds  DR</tspan>
</text>
</g>
<g id="2002689635"><path d="M471,948 L560,948 "
style="fill:none;stroke-width:1;stroke:Black;"/>
<line x1="554" y1="945" x2="560" y2="948"
 style="stroke-width:1;stroke:Black;"/>
<line x1="554" y1="951" x2="560" y2="948"
 style="stroke-width:1;stroke:Black;"/>
<text style="font-family:Arial;font-size:12px;kerning:0;word-spacing:-1px;fill:Black;">
<tspan x="475" y="931">rdfs:domain  D</tspan>
<tspan x="475" y="946">rdfs:range  D</tspan>
</text>
</g>
<g id="2002689640"><path d="M1398,578 L1255,578 "
style="fill:none;stroke-width:1;stroke:Black;"/>
<line x1="1261" y1="575" x2="1255" y2="578"
 style="stroke-width:1;stroke:Black;"/>
<line x1="1261" y1="581" x2="1255" y2="578"
 style="stroke-width:1;stroke:Black;"/>
<text style="font-family:Arial;font-size:12px;kerning:0;word-spacing:-1px;fill:Black;">
<tspan x="1339" y="591">rdf:_1  </tspan>
<tspan x="1339" y="606">rdf:_2  DR</tspan>
<tspan x="1339" y="621">rdf:_3  DR</tspan>
<tspan x="1339" y="636">rdf:_5  DR</tspan>
<tspan x="1339" y="651">rdf:_4  DR</tspan>
</text>
</g>
<g id="2002689645"><path d="M457,752 L557,752 "
style="fill:none;stroke-width:1;stroke:Black;"/>
<line x1="551" y1="749" x2="557" y2="752"
 style="stroke-width:1;stroke:Black;"/>
<line x1="551" y1="755" x2="557" y2="752"
 style="stroke-width:1;stroke:Black;"/>
<text style="font-family:Arial;font-size:12px;kerning:0;word-spacing:-1px;fill:Black;">
<tspan x="461" y="750">n1:inCourse  DR</tspan>
</text>
</g>
<g id="2002689655"><path d="M1600,252 L1904,252 1908,254 1910,258 1910,560 "
style="fill:none;stroke-width:1;stroke:Black;"/>
<line x1="1907" y1="554" x2="1910" y2="560"
 style="stroke-width:1;stroke:Black;"/>
<line x1="1913" y1="554" x2="1910" y2="560"
 style="stroke-width:1;stroke:Black;"/>
<text style="font-family:Arial;font-size:12px;kerning:0;word-spacing:-1px;fill:Black;">
<tspan x="1604" y="250">rdf:_1  </tspan>
</text>
</g>
<g id="2002689660"><path d="M1412,929 L1317,929 1313,927 1311,923 1311,889 1313,885 1317,883 1562,883 1562,889 "
style="fill:none;stroke-width:1;stroke:Black;"/>
<line x1="1559" y1="883" x2="1562" y2="889"
 style="stroke-width:1;stroke:Black;"/>
<line x1="1565" y1="883" x2="1562" y2="889"
 style="stroke-width:1;stroke:Black;"/>
<text style="font-family:Arial;font-size:12px;kerning:0;word-spacing:-1px;fill:Black;">
<tspan x="1319" y="942">sd:endpoint  DR</tspan>
<tspan x="1319" y="957">sd:url  DR</tspan>
</text>
</g>
<g id="2002689665"><path d="M1698,619 L1760,619 "
style="fill:none;stroke-width:1;stroke:Black;"/>
<line x1="1754" y1="616" x2="1760" y2="619"
 style="stroke-width:1;stroke:Black;"/>
<line x1="1754" y1="622" x2="1760" y2="619"
 style="stroke-width:1;stroke:Black;"/>
<text style="font-family:Arial;font-size:12px;kerning:0;word-spacing:-1px;fill:Black;">
<tspan x="1702" y="617">rdf:_1  </tspan>
</text>
</g>
<g id="2002689670"><path d="M1161,204 L1300,204 "
style="fill:none;stroke-width:1;stroke:Black;"/>
<line x1="1294" y1="201" x2="1300" y2="204"
 style="stroke-width:1;stroke:Black;"/>
<line x1="1294" y1="207" x2="1300" y2="204"
 style="stroke-width:1;stroke:Black;"/>
<text style="font-family:Arial;font-size:12px;kerning:0;word-spacing:-1px;fill:Black;">
<tspan x="1165" y="187">:qmvATables  DR</tspan>
<tspan x="1165" y="202">:qmvColumns  DR</tspan>
</text>
</g>
<g id="2002689675"><path d="M1255,670 L1398,670 "
style="fill:none;stroke-width:1;stroke:Black;"/>
<line x1="1392" y1="667" x2="1398" y2="670"
 style="stroke-width:1;stroke:Black;"/>
<line x1="1392" y1="673" x2="1398" y2="670"
 style="stroke-width:1;stroke:Black;"/>
<text style="font-family:Arial;font-size:12px;kerning:0;word-spacing:-1px;fill:Black;">
<tspan x="1259" y="668">:qmfSuperFormats  DR</tspan>
</text>
</g>
<g id="2002689680"><path d="M204,823 L101,823 97,821 95,817 95,758 97,754 101,752 157,752 "
style="fill:none;stroke-width:1;stroke:Black;"/>
<line x1="151" y1="749" x2="157" y2="752"
 style="stroke-width:1;stroke:Black;"/>
<line x1="151" y1="755" x2="157" y2="752"
 style="stroke-width:1;stroke:Black;"/>
<text style="font-family:Arial;font-size:12px;kerning:0;word-spacing:-1px;fill:Black;">
<tspan x="103" y="836">n1:isEnrolled  DR</tspan>
</text>
</g>
<g id="2002689690"><path d="M310,206 L421,206 "
style="fill:none;stroke-width:1;stroke:Black;"/>
<line x1="415" y1="203" x2="421" y2="206"
 style="stroke-width:1;stroke:Black;"/>
<line x1="415" y1="209" x2="421" y2="206"
 style="stroke-width:1;stroke:Black;"/>
<text style="font-family:Arial;font-size:12px;kerning:0;word-spacing:-1px;fill:Black;">
<tspan x="314" y="204">:qsDefaultMap  DR</tspan>
</text>
</g>
<g id="2002689695"><path d="M329,981 L329,1000 "
style="fill:none;stroke-width:2;stroke:Fuchsia;"/>
<polygon points="334,991 329,981 324,991 "
style="fill:Silver;stroke-width:1;stroke:Black;"/>
<text style="font-family:Arial;font-size:12px;kerning:0;word-spacing:-1px;fill:Black;">
<tspan x="331" y="996"> </tspan>
</text>
</g>
<g id="2002689685"><path d="M197,175 L197,124 "
style="fill:none;stroke-width:1;stroke:Black;"/>
<line x1="194" y1="130" x2="197" y2="124"
 style="stroke-width:1;stroke:Black;"/>
<line x1="200" y1="130" x2="197" y2="124"
 style="stroke-width:1;stroke:Black;"/>
<text style="font-family:Arial;font-size:12px;kerning:0;word-spacing:-1px;fill:Black;">
<tspan x="97" y="171">:qsUserMaps  DR</tspan>
</text>
</g>
<g id="2002689615"><path d="M927,156 L927,105 "
style="fill:none;stroke-width:1;stroke:Black;"/>
<line x1="924" y1="111" x2="927" y2="105"
 style="stroke-width:1;stroke:Black;"/>
<line x1="930" y1="111" x2="927" y2="105"
 style="stroke-width:1;stroke:Black;"/>
<text style="font-family:Arial;font-size:12px;kerning:0;word-spacing:-1px;fill:Black;">
<tspan x="846" y="137">:qmvFText  DR</tspan>
<tspan x="846" y="152">:qmvGeo  DR</tspan>
</text>
</g>
<g id="2002689625"><path d="M955,465 L796,465 792,463 790,459 790,371 792,367 796,365 955,365 "
style="fill:none;stroke-width:1;stroke:Black;"/>
<line x1="949" y1="362" x2="955" y2="365"
 style="stroke-width:1;stroke:Black;"/>
<line x1="949" y1="368" x2="955" y2="365"
 style="stroke-width:1;stroke:Black;"/>
<text style="font-family:Arial;font-size:12px;kerning:0;word-spacing:-1px;fill:Black;">
<tspan x="798" y="478">:inheritFrom  DR</tspan>
<tspan x="798" y="493">:qmfSubFormatForRefs  DR</tspan>
</text>
</g>
<g id="2002689650"><path d="M1088,221 L1088,245 "
style="fill:none;stroke-width:1;stroke:Black;"/>
<line x1="1085" y1="239" x2="1088" y2="245"
 style="stroke-width:1;stroke:Black;"/>
<line x1="1091" y1="239" x2="1088" y2="245"
 style="stroke-width:1;stroke:Black;"/>
<text style="font-family:Arial;font-size:12px;kerning:0;word-spacing:-1px;fill:Black;">
<tspan x="1090" y="236">:qmvFormat  DR</tspan>
</text>
</g>
<g id="2002689610"><path d="M651,206 L861,206 "
style="fill:none;stroke-width:1;stroke:Black;"/>
<line x1="855" y1="203" x2="861" y2="206"
 style="stroke-width:1;stroke:Black;"/>
<line x1="855" y1="209" x2="861" y2="206"
 style="stroke-width:1;stroke:Black;"/>
<text style="font-family:Arial;font-size:12px;kerning:0;word-spacing:-1px;fill:Black;">
<tspan x="655" y="159">:qmPredicateMap  DR</tspan>
<tspan x="655" y="174">:qmGraphMap  DR</tspan>
<tspan x="655" y="189">:qmObjectMap  DR</tspan>
<tspan x="655" y="204">:qmSubjectMap  DR</tspan>
</text>
</g>
<g id="2002689620"><path d="M1527,279 L1527,371 "
style="fill:none;stroke-width:1;stroke:Black;"/>
<line x1="1524" y1="365" x2="1527" y2="371"
 style="stroke-width:1;stroke:Black;"/>
<line x1="1530" y1="365" x2="1527" y2="371"
 style="stroke-width:1;stroke:Black;"/>
<text style="font-family:Arial;font-size:12px;kerning:0;word-spacing:-1px;fill:Black;">
<tspan x="1529" y="294">rdf:_1  </tspan>
</text>
</g>
<g id="2002689600"><path d="M1611,572 L1611,436 "
style="fill:none;stroke-width:1;stroke:Black;"/>
<line x1="1608" y1="442" x2="1611" y2="436"
 style="stroke-width:1;stroke:Black;"/>
<line x1="1614" y1="442" x2="1611" y2="436"
 style="stroke-width:1;stroke:Black;"/>
<text style="font-family:Arial;font-size:12px;kerning:0;word-spacing:-1px;fill:Black;">
<tspan x="1572" y="568">rdf:_1  </tspan>
</text>
</g>
</svg>
