<?xml version="1.0" encoding="UTF-8" standalone="no"?>
<!DOCTYPE svg PUBLIC "-//W3C//DTD SVG 1.1//EN"
"http://www.w3.org/Graphics/SVG/1.1/DTD/svg11.dtd">
<svg version="1.1" xmlns="http://www.w3.org/2000/svg"
xmlns:xlink="http://www.w3.org/1999/xlink" xml:space="preserve"
 width="2547" height="941" viewBox="0 0 2547 941">
 onmousemove="movetip(evt)" onmouseup="endmove()">
<rect x="0" y="0" width="100%" height="100%" style="fill:White;"/>
<script type="application/ecmascript"> <![CDATA[
var dragtipid = null; var dragcase = false; function init(evt){
if (window.svgDocument==null) svgDocument = evt.target.ownerDocument;
}
function movetip(evt){if (dragtipid!=null){ dragcase = true;
var tip=svgDocument.getElementById(dragtipid);
tip.setAttributeNS(null,"x",evt.clientX-2);
tip.setAttributeNS(null,"y",evt.clientY-2);
}}
function endmove(){dragtipid = null;}
function startmove(evt,id){dragtipid = id; dragcase = false;
var tip=svgDocument.getElementById(dragtipid);
tip.setAttributeNS(null,"x",evt.clientX-2);
tip.setAttributeNS(null,"y",evt.clientY-2);
}
function Showtip(evt,id){ dragtipid = null;
var tip=svgDocument.getElementById(id);
var vis=tip.getAttributeNS(null,"visibility");
if (vis=="hidden"){
tip.setAttributeNS(null,"x",evt.clientX-2);
tip.setAttributeNS(null,"y",evt.clientY-2);
tip.setAttributeNS(null,"visibility","visible");
}}
function Hidetip(id){ dragtipid = null; if (dragcase==false){
var tip=svgDocument.getElementById(id);
tip.setAttributeNS(null,"visibility","hidden");
}}
]]></script>
<defs><linearGradient id="activ1" x1="0%" y1="0%" x2="100%" y2="0%">
<stop offset="0%" style="stop-color:#FFFF00;stop-opacity:1"/>
<stop offset="100%" style="stop-color:#FFFFF0;stop-opacity:1"/>
</linearGradient></defs>
<g id="2002689284"><polygon points="2194,649 2494,649 2494,714 2194,714 "
style="fill:#F4D03F; stroke-width:1;stroke:Black;"/>
<text style="font-family:Arial;font-size:12px;kerning:0;word-spacing:-1px;fill:Black;font-weight:bold;">
<tspan x="2224" y="664">dv-mandaat:RechtstreekseVerkiezing (10)</tspan>
</text>
<line x1="2198" y1="667" x2="2492" y2="667"
 style="stroke-width:1;stroke:Black;"/>
<text style="font-family:Arial;font-size:12px;kerning:0;word-spacing:-1px;fill:Black;">
<tspan x="2198" y="679">dv-mandaat:datum (10) [1] D</tspan>
<tspan x="2198" y="694">mu:uuid (10) [1] </tspan>
<tspan x="2198" y="709">rdf:type (10) [1]  -&gt; IRI</tspan>
</text>
</g>
<g id="2002689295"><polygon points="255,381 555,381 555,431 255,431 "
style="fill:#F4D03F; stroke-width:1;stroke:Black;"/>
<text style="font-family:Arial;font-size:12px;kerning:0;word-spacing:-1px;fill:Black;font-weight:bold;">
<tspan x="338" y="396">dv-dossier:Serie (3.5e4)</tspan>
</text>
<line x1="259" y1="399" x2="553" y2="399"
 style="stroke-width:1;stroke:Black;"/>
<text style="font-family:Arial;font-size:12px;kerning:0;word-spacing:-1px;fill:Black;">
<tspan x="259" y="411">mu:uuid (3.5e4) [1] </tspan>
<tspan x="259" y="426">rdf:type (3.5e4) [1]  -&gt; IRI</tspan>
</text>
</g>
<g id="2002689306"><polygon points="1656,460 1956,460 1956,570 1656,570 "
style="fill:#F4D03F; stroke-width:1;stroke:Black;"/>
<text style="font-family:Arial;font-size:12px;kerning:0;word-spacing:-1px;fill:Black;font-weight:bold;">
<tspan x="1723" y="475">dv-mandaat:Mandataris (614)</tspan>
</text>
<line x1="1660" y1="478" x2="1954" y2="478"
 style="stroke-width:1;stroke:Black;"/>
<text style="font-family:Arial;font-size:12px;kerning:0;word-spacing:-1px;fill:Black;">
<tspan x="1660" y="490">dct:title (515) [1] </tspan>
<tspan x="1660" y="505">dv-mandaat:einde (601) [1] D</tspan>
<tspan x="1660" y="520">dv-mandaat:rangorde (614) [1] D</tspan>
<tspan x="1660" y="535">dv-mandaat:start (614) [1] D</tspan>
<tspan x="1660" y="550">mu:uuid (614) [1] </tspan>
<tspan x="1660" y="565">rdf:type (614) [1]  -&gt; IRI</tspan>
</text>
</g>
<g id="2002689317"><polygon points="728,806 1028,806 1028,931 728,931 "
style="fill:#F4D03F; stroke-width:1;stroke:Black;"/>
<text style="font-family:Arial;font-size:12px;kerning:0;word-spacing:-1px;fill:Black;font-weight:bold;">
<tspan x="780" y="821">dv-besluit:Vergaderactiviteit (1031)</tspan>
</text>
<line x1="732" y1="824" x2="1026" y2="824"
 style="stroke-width:1;stroke:Black;"/>
<text style="font-family:Arial;font-size:12px;kerning:0;word-spacing:-1px;fill:Black;">
<tspan x="732" y="836">bs:geplandePublicatieDatumDocumenten (440) [*] D</tspan>
<tspan x="732" y="851">dct:identifier (971) [1] </tspan>
<tspan x="732" y="866">dv-besluit:geplandeStart (1031) [1] D</tspan>
<tspan x="732" y="881">mu:uuid (1031) [1] </tspan>
<tspan x="732" y="896">rdf:type (1031) [1]  -&gt; IRI</tspan>
<tspan x="732" y="911">&lt;-dct:subject (1553)  &lt;-  dcat:Dataset,dcat:</tspan>
<tspan x="732" y="926">Distribution,dv-dossier:Stuk</tspan>
</text>
</g>
<g id="2002689328"><polygon points="1284,126 1584,126 1584,326 1284,326 "
style="fill:#F4D03F; stroke-width:1;stroke:Black;"/>
<text style="font-family:Arial;font-size:12px;kerning:0;word-spacing:-1px;fill:Black;font-weight:bold;">
<tspan x="1378" y="141">dcat:Dataset (1568)</tspan>
</text>
<line x1="1288" y1="144" x2="1582" y2="144"
 style="stroke-width:1;stroke:Black;"/>
<text style="font-family:Arial;font-size:12px;kerning:0;word-spacing:-1px;fill:Black;">
<tspan x="1288" y="156">dct:created (1553) [1] </tspan>
<tspan x="1288" y="171">dct:issued (1568) [*] </tspan>
<tspan x="1288" y="186">dct:modified (1576) [*] </tspan>
<tspan x="1288" y="201">dct:subject (1553) [*]  -&gt;  dv-besluit:Vergaderactiviteit,</tspan>
<tspan x="1288" y="216">nfo:FileDataObject,skos:Concept</tspan>
<tspan x="1288" y="231">dct:title (1568) [1] </tspan>
<tspan x="1288" y="246">mu:uuid (1568) [1] </tspan>
<tspan x="1288" y="261">prov:wasRevisionOf (525) [*]  -&gt;  dcat:Dataset,dv-</tspan>
<tspan x="1288" y="276">besluit:Agendapunt,dv-bv:Agenda</tspan>
<tspan x="1288" y="291">rdf:type (1568) [1]  -&gt; IRI</tspan>
<tspan x="1288" y="306">&lt;-prov:wasRevisionOf (525)  &lt;-  dcat:Dataset,dv-</tspan>
<tspan x="1288" y="321">besluit:Agendapunt,dv-bv:Agenda</tspan>
</text>
</g>
<g id="2002689339"><polygon points="1731,653 2031,653 2031,754 1731,754 "
style="fill:#F4D03F; stroke-width:1;stroke:Black;"/>
<text style="font-family:Arial;font-size:12px;kerning:0;word-spacing:-1px;fill:Black;font-weight:bold;">
<tspan x="1794" y="668">dv-besluit:Bestuursorgaan (29)</tspan>
</text>
<line x1="1735" y1="671" x2="2029" y2="671"
 style="stroke-width:1;stroke:Black;"/>
<text style="font-family:Arial;font-size:12px;kerning:0;word-spacing:-1px;fill:Black;">
<tspan x="1735" y="683">mu:uuid (29) [1] </tspan>
<tspan x="1735" y="698">rdf:type (29) [1]  -&gt; IRI</tspan>
<tspan x="1735" y="713">skos:prefLabel (29) [1] </tspan>
</text>
</g>
<g id="2002689350"><polygon points="755,302 1055,302 1055,457 755,457 "
style="fill:#F4D03F; stroke-width:1;stroke:Black;"/>
<text style="font-family:Arial;font-size:12px;kerning:0;word-spacing:-1px;fill:Black;font-weight:bold;">
<tspan x="839" y="317">dv-dossier:Stuk (6.5e4)</tspan>
</text>
<line x1="759" y1="320" x2="1053" y2="320"
 style="stroke-width:1;stroke:Black;"/>
<text style="font-family:Arial;font-size:12px;kerning:0;word-spacing:-1px;fill:Black;">
<tspan x="759" y="332">dct:alternative (6880) [1] D</tspan>
<tspan x="759" y="347">dct:issued (6.6e4) [*] </tspan>
<tspan x="759" y="362">dct:subject (3.6e4) [*]  -&gt;  dv-besluit:Vergaderactiviteit,</tspan>
<tspan x="759" y="377">nfo:FileDataObject,skos:Concept</tspan>
<tspan x="759" y="392">dct:title (6.5e4) [1] </tspan>
<tspan x="759" y="407">mu:uuid (6.5e4) [1] </tspan>
<tspan x="759" y="422">nie:htmlContent (2.8e4) [1] D</tspan>
<tspan x="759" y="437">rdf:type (6.5e4) [1]  -&gt; IRI</tspan>
<tspan x="759" y="452">schema:position (3.0e4) [*] </tspan>
</text>
</g>
<g id="2002689372"><polygon points="1219,645 1519,645 1519,710 1219,710 "
style="fill:#F4D03F; stroke-width:1;stroke:Black;"/>
<text style="font-family:Arial;font-size:12px;kerning:0;word-spacing:-1px;fill:Black;font-weight:bold;">
<tspan x="1283" y="660">dv-besluit:Bestuurseenheid (2)</tspan>
</text>
<line x1="1223" y1="663" x2="1517" y2="663"
 style="stroke-width:1;stroke:Black;"/>
<text style="font-family:Arial;font-size:12px;kerning:0;word-spacing:-1px;fill:Black;">
<tspan x="1223" y="675">mu:uuid (2) [1] </tspan>
<tspan x="1223" y="690">rdf:type (2) [1]  -&gt; IRI</tspan>
<tspan x="1223" y="705">skos:prefLabel (2) [1] </tspan>
</text>
</g>
<g id="2002689383"><polygon points="1350,344 1650,344 1650,544 1350,544 "
style="fill:#F4D03F; stroke-width:1;stroke:Black;"/>
<text style="font-family:Arial;font-size:12px;kerning:0;word-spacing:-1px;fill:Black;font-weight:bold;">
<tspan x="1425" y="359">nfo:FileDataObject (7.3e4)</tspan>
</text>
<line x1="1354" y1="362" x2="1648" y2="362"
 style="stroke-width:1;stroke:Black;"/>
<text style="font-family:Arial;font-size:12px;kerning:0;word-spacing:-1px;fill:Black;">
<tspan x="1354" y="374">dbo:fileExtension (7.3e4) [1] D</tspan>
<tspan x="1354" y="389">dbpedia:fileExtension (30) [1] D</tspan>
<tspan x="1354" y="404">dct:created (3134) [1] </tspan>
<tspan x="1354" y="419">dct:creator (1552) [1] D -&gt; IRI</tspan>
<tspan x="1354" y="434">dct:format (3.8e4) [1] </tspan>
<tspan x="1354" y="449">mu:uuid (7.3e4) [1] </tspan>
<tspan x="1354" y="464">nfo:fileName (7.3e4) [1] D</tspan>
<tspan x="1354" y="479">nfo:fileSize (7.3e4) [1] D</tspan>
<tspan x="1354" y="494">prov:hadPrimarySource (48) [1] D -&gt; IRI</tspan>
<tspan x="1354" y="509">rdf:type (7.3e4) [1]  -&gt; IRI</tspan>
<tspan x="1354" y="524">&lt;-dct:subject (7.2e4)  &lt;-  dcat:Dataset,dcat:</tspan>
<tspan x="1354" y="539">Distribution,dv-dossier:Stuk</tspan>
</text>
</g>
<g id="2002689394"><polygon points="1212,562 1512,562 1512,627 1212,627 "
style="fill:#F4D03F; stroke-width:1;stroke:Black;"/>
<text style="font-family:Arial;font-size:12px;kerning:0;word-spacing:-1px;fill:Black;font-weight:bold;">
<tspan x="1286" y="577">skos:ConceptScheme (13)</tspan>
</text>
<line x1="1216" y1="580" x2="1510" y2="580"
 style="stroke-width:1;stroke:Black;"/>
<text style="font-family:Arial;font-size:12px;kerning:0;word-spacing:-1px;fill:Black;">
<tspan x="1216" y="592">mu:uuid (13) [1] </tspan>
<tspan x="1216" y="607">rdf:type (13) [1]  -&gt; IRI</tspan>
<tspan x="1216" y="622">skos:prefLabel (13) [1] </tspan>
</text>
</g>
<g id="2002689405"><polygon points="860,105 1160,105 1160,290 860,290 "
style="fill:#F4D03F; stroke-width:1;stroke:Black;"/>
<text style="font-family:Arial;font-size:12px;kerning:0;word-spacing:-1px;fill:Black;font-weight:bold;">
<tspan x="942" y="120">dcat:Distribution (7.3e4)</tspan>
</text>
<line x1="864" y1="123" x2="1158" y2="123"
 style="stroke-width:1;stroke:Black;"/>
<text style="font-family:Arial;font-size:12px;kerning:0;word-spacing:-1px;fill:Black;">
<tspan x="864" y="135">dcat:byteSize (7.3e4) [1] D</tspan>
<tspan x="864" y="150">dcat:downloadURL (3.7e4) [1] D -&gt; IRI</tspan>
<tspan x="864" y="165">dct:created (7.3e4) [1] </tspan>
<tspan x="864" y="180">dct:format (7.3e4) [1] </tspan>
<tspan x="864" y="195">dct:issued (7.3e4) [*] </tspan>
<tspan x="864" y="210">dct:modified (7.3e4) [*] </tspan>
<tspan x="864" y="225">dct:subject (7.3e4) [*]  -&gt;  dv-besluit:Vergaderactiviteit,</tspan>
<tspan x="864" y="240">nfo:FileDataObject,skos:Concept</tspan>
<tspan x="864" y="255">dct:title (7.3e4) [1] </tspan>
<tspan x="864" y="270">mu:uuid (7.3e4) [1] </tspan>
<tspan x="864" y="285">rdf:type (7.3e4) [1]  -&gt; IRI</tspan>
</text>
</g>
<g id="2002689416"><polygon points="775,469 1075,469 1075,639 775,639 "
style="fill:#F4D03F; stroke-width:1;stroke:Black;"/>
<text style="font-family:Arial;font-size:12px;kerning:0;word-spacing:-1px;fill:Black;font-weight:bold;">
<tspan x="869" y="484">skos:Concept (790)</tspan>
</text>
<line x1="779" y1="487" x2="1073" y2="487"
 style="stroke-width:1;stroke:Black;"/>
<text style="font-family:Arial;font-size:12px;kerning:0;word-spacing:-1px;fill:Black;">
<tspan x="779" y="499">mu:uuid (790) [1] </tspan>
<tspan x="779" y="514">owl:deprecated (79) [1] D</tspan>
<tspan x="779" y="529">prov:generatedAtTime (636) [1] D</tspan>
<tspan x="779" y="544">prov:invalidatedAtTime (583) [1] D</tspan>
<tspan x="779" y="559">rdf:type (790) [1]  -&gt; IRI</tspan>
<tspan x="779" y="574">skos:altLabel (43) [1] D</tspan>
<tspan x="779" y="589">skos:definition (4) [1] D</tspan>
<tspan x="779" y="604">skos:prefLabel (790) [1] </tspan>
<tspan x="779" y="619">&lt;-dct:subject (3.6e4)  &lt;-  dcat:Dataset,dcat:</tspan>
<tspan x="779" y="634">Distribution,dv-dossier:Stuk</tspan>
</text>
</g>
<g id="2002689427"><polygon points="2197,720 2497,720 2497,785 2197,785 "
style="fill:#F4D03F; stroke-width:1;stroke:Black;"/>
<text style="font-family:Arial;font-size:12px;kerning:0;word-spacing:-1px;fill:Black;font-weight:bold;">
<tspan x="2290" y="735">prov:Generation (27)</tspan>
</text>
<line x1="2201" y1="738" x2="2495" y2="738"
 style="stroke-width:1;stroke:Black;"/>
<text style="font-family:Arial;font-size:12px;kerning:0;word-spacing:-1px;fill:Black;">
<tspan x="2201" y="750">mu:uuid (27) [1] </tspan>
<tspan x="2201" y="765">prov:atTime (27) [1] </tspan>
<tspan x="2201" y="780">rdf:type (27) [1]  -&gt; IRI</tspan>
</text>
</g>
<g id="2002689438"><polygon points="1193,10 1493,10 1493,120 1193,120 "
style="fill:#F4D03F; stroke-width:1;stroke:Black;"/>
<text style="font-family:Arial;font-size:12px;kerning:0;word-spacing:-1px;fill:Black;font-weight:bold;">
<tspan x="1298" y="25">dcat:Catalog (1)</tspan>
</text>
<line x1="1197" y1="28" x2="1491" y2="28"
 style="stroke-width:1;stroke:Black;"/>
<text style="font-family:Arial;font-size:12px;kerning:0;word-spacing:-1px;fill:Black;">
<tspan x="1197" y="40">dct:description (1) [1] D</tspan>
<tspan x="1197" y="55">dct:issued (1) [*] </tspan>
<tspan x="1197" y="70">dct:modified (1) [*] </tspan>
<tspan x="1197" y="85">dct:title (1) [1] </tspan>
<tspan x="1197" y="100">mu:uuid (1) [1] </tspan>
<tspan x="1197" y="115">rdf:type (1) [1]  -&gt; IRI</tspan>
</text>
</g>
<g id="2002689449"><polygon points="2237,591 2537,591 2537,641 2237,641 "
style="fill:#F4D03F; stroke-width:1;stroke:Black;"/>
<text style="font-family:Arial;font-size:12px;kerning:0;word-spacing:-1px;fill:Black;font-weight:bold;">
<tspan x="2315" y="606">dv-mandaat:Mandaat (33)</tspan>
</text>
<line x1="2241" y1="609" x2="2535" y2="609"
 style="stroke-width:1;stroke:Black;"/>
<text style="font-family:Arial;font-size:12px;kerning:0;word-spacing:-1px;fill:Black;">
<tspan x="2241" y="621">mu:uuid (33) [1] </tspan>
<tspan x="2241" y="636">rdf:type (33) [1]  -&gt; IRI</tspan>
</text>
</g>
<g id="2002689460"><polygon points="637,645 937,645 937,800 637,800 "
style="fill:#F4D03F; stroke-width:1;stroke:Black;"/>
<text style="font-family:Arial;font-size:12px;kerning:0;word-spacing:-1px;fill:Black;font-weight:bold;">
<tspan x="730" y="660">dv-bv:Agenda (1037)</tspan>
</text>
<line x1="641" y1="663" x2="935" y2="663"
 style="stroke-width:1;stroke:Black;"/>
<text style="font-family:Arial;font-size:12px;kerning:0;word-spacing:-1px;fill:Black;">
<tspan x="641" y="675">dct:created (1037) [1] </tspan>
<tspan x="641" y="690">dct:modified (1037) [*] </tspan>
<tspan x="641" y="705">dct:title (1037) [1] </tspan>
<tspan x="641" y="720">mu:uuid (1037) [1] </tspan>
<tspan x="641" y="735">prov:wasRevisionOf (55) [*]  -&gt;  dcat:Dataset,dv-</tspan>
<tspan x="641" y="750">besluit:Agendapunt,dv-bv:Agenda</tspan>
<tspan x="641" y="765">rdf:type (1037) [1]  -&gt; IRI</tspan>
<tspan x="641" y="780">&lt;-prov:wasRevisionOf (1)  &lt;-  dcat:Dataset,dv-besluit:</tspan>
<tspan x="641" y="795">Agendapunt,dv-bv:Agenda</tspan>
</text>
</g>
<g id="2002689471"><polygon points="1596,21 1896,21 1896,101 1596,101 "
style="fill:#F4D03F; stroke-width:1;stroke:Black;"/>
<text style="font-family:Arial;font-size:12px;kerning:0;word-spacing:-1px;fill:Black;font-weight:bold;">
<tspan x="1708" y="36">foaf:Agent (1)</tspan>
</text>
<line x1="1600" y1="39" x2="1894" y2="39"
 style="stroke-width:1;stroke:Black;"/>
<text style="font-family:Arial;font-size:12px;kerning:0;word-spacing:-1px;fill:Black;">
<tspan x="1600" y="51">dct:identifier (1) [1] </tspan>
<tspan x="1600" y="66">foaf:name (1) [1] D</tspan>
<tspan x="1600" y="81">mu:uuid (1) [1] </tspan>
<tspan x="1600" y="96">rdf:type (1) [1]  -&gt; IRI</tspan>
</text>
</g>
<g id="2002689482"><polygon points="2161,448 2461,448 2461,528 2161,528 "
style="fill:#F4D03F; stroke-width:1;stroke:Black;"/>
<text style="font-family:Arial;font-size:12px;kerning:0;word-spacing:-1px;fill:Black;font-weight:bold;">
<tspan x="2257" y="463">person:Person (78)</tspan>
</text>
<line x1="2165" y1="466" x2="2459" y2="466"
 style="stroke-width:1;stroke:Black;"/>
<text style="font-family:Arial;font-size:12px;kerning:0;word-spacing:-1px;fill:Black;">
<tspan x="2165" y="478">dv-person:gebruikteVoornaam (78) [1] D</tspan>
<tspan x="2165" y="493">foaf:familyName (78) [1] D</tspan>
<tspan x="2165" y="508">mu:uuid (78) [1] </tspan>
<tspan x="2165" y="523">rdf:type (78) [1]  -&gt; IRI</tspan>
</text>
</g>
<g id="2002689493"><polygon points="1612,576 1912,576 1912,641 1612,641 "
style="fill:#F4D03F; stroke-width:1;stroke:Black;"/>
<text style="font-family:Arial;font-size:12px;kerning:0;word-spacing:-1px;fill:Black;font-weight:bold;">
<tspan x="1729" y="591">org:Role (7)</tspan>
</text>
<line x1="1616" y1="594" x2="1910" y2="594"
 style="stroke-width:1;stroke:Black;"/>
<text style="font-family:Arial;font-size:12px;kerning:0;word-spacing:-1px;fill:Black;">
<tspan x="1616" y="606">mu:uuid (7) [1] </tspan>
<tspan x="1616" y="621">rdf:type (7) [1]  -&gt; IRI</tspan>
<tspan x="1616" y="636">skos:prefLabel (7) [1] </tspan>
</text>
</g>
<g id="2002689504"><polygon points="84,695 384,695 384,781 84,781 "
style="fill:#F4D03F; stroke-width:1;stroke:Black;"/>
<text style="font-family:Arial;font-size:12px;kerning:0;word-spacing:-1px;fill:Black;font-weight:bold;">
<tspan x="180" y="710">prov:Activity (1037)</tspan>
</text>
<line x1="88" y1="713" x2="382" y2="713"
 style="stroke-width:1;stroke:Black;"/>
<text style="font-family:Arial;font-size:12px;kerning:0;word-spacing:-1px;fill:Black;">
<tspan x="88" y="725">mu:uuid (1037) [1] </tspan>
<tspan x="88" y="740">prov:startedAtTime (1037) [1] D</tspan>
<tspan x="88" y="755">rdf:type (1037) [1]  -&gt; IRI</tspan>
</text>
</g>
<g id="2002689515"><polygon points="268,325 568,325 568,375 268,375 "
style="fill:#F4D03F; stroke-width:1;stroke:Black;"/>
<text style="font-family:Arial;font-size:12px;kerning:0;word-spacing:-1px;fill:Black;font-weight:bold;">
<tspan x="346" y="340">dv-dossier:Dossier (8184)</tspan>
</text>
<line x1="272" y1="343" x2="566" y2="343"
 style="stroke-width:1;stroke:Black;"/>
<text style="font-family:Arial;font-size:12px;kerning:0;word-spacing:-1px;fill:Black;">
<tspan x="272" y="355">mu:uuid (8184) [1] </tspan>
<tspan x="272" y="370">rdf:type (8184) [1]  -&gt; IRI</tspan>
</text>
</g>
<g id="2002689526"><polygon points="187,504 487,504 487,689 187,689 "
style="fill:#F4D03F; stroke-width:1;stroke:Black;"/>
<text style="font-family:Arial;font-size:12px;kerning:0;word-spacing:-1px;fill:Black;font-weight:bold;">
<tspan x="252" y="519">dv-besluit:Agendapunt (3.0e4)</tspan>
</text>
<line x1="191" y1="522" x2="485" y2="522"
 style="stroke-width:1;stroke:Black;"/>
<text style="font-family:Arial;font-size:12px;kerning:0;word-spacing:-1px;fill:Black;">
<tspan x="191" y="534">dct:created (3.0e4) [1] </tspan>
<tspan x="191" y="549">dct:modified (3.0e4) [*] </tspan>
<tspan x="191" y="564">dct:title (2.8e4) [1] </tspan>
<tspan x="191" y="579">dv-bv:korteTitel (1.8e4) [1] D</tspan>
<tspan x="191" y="594">mu:uuid (3.0e4) [1] </tspan>
<tspan x="191" y="609">prov:wasRevisionOf (1.1e4) [*]  -&gt;  dcat:Dataset,dv-</tspan>
<tspan x="191" y="624">besluit:Agendapunt,dv-bv:Agenda</tspan>
<tspan x="191" y="639">rdf:type (3.0e4) [1]  -&gt; IRI</tspan>
<tspan x="191" y="654">schema:position (3.0e4) [*] </tspan>
<tspan x="191" y="669">&lt;-prov:wasRevisionOf (135)  &lt;-  dcat:Dataset,dv-</tspan>
<tspan x="191" y="684">besluit:Agendapunt,dv-bv:Agenda</tspan>
</text>
</g>
<g id="2002689361"><polygon points="1416,803 1716,803 1716,868 1416,868 "
style="fill:#F4D03F; stroke-width:1;stroke:Black;"/>
<text style="font-family:Arial;font-size:12px;kerning:0;word-spacing:-1px;fill:Black;font-weight:bold;">
<tspan x="1509" y="818">prov:Invalidation (25)</tspan>
</text>
<line x1="1420" y1="821" x2="1714" y2="821"
 style="stroke-width:1;stroke:Black;"/>
<text style="font-family:Arial;font-size:12px;kerning:0;word-spacing:-1px;fill:Black;">
<tspan x="1420" y="833">mu:uuid (25) [1] </tspan>
<tspan x="1420" y="848">prov:atTime (25) [1] </tspan>
<tspan x="1420" y="863">rdf:type (25) [1]  -&gt; IRI</tspan>
</text>
</g>
<g id="2002689084"><path d="M384,712 L487,712 491,710 493,706 493,676 487,676 "
style="fill:none;stroke-width:1;stroke:Black;"/>
<line x1="493" y1="673" x2="487" y2="676"
 style="stroke-width:1;stroke:Black;"/>
<line x1="493" y1="679" x2="487" y2="676"
 style="stroke-width:1;stroke:Black;"/>
<text style="font-family:Arial;font-size:12px;kerning:0;word-spacing:-1px;fill:Black;">
<tspan x="388" y="710">prov:generated  D</tspan>
</text>
</g>
<g id="2002689089"><path d="M384,733 L493,733 497,731 499,727 499,615 501,611 505,609 775,609 "
style="fill:none;stroke-width:1;stroke:Black;"/>
<line x1="769" y1="606" x2="775" y2="609"
 style="stroke-width:1;stroke:Black;"/>
<line x1="769" y1="612" x2="775" y2="609"
 style="stroke-width:1;stroke:Black;"/>
<text style="font-family:Arial;font-size:12px;kerning:0;word-spacing:-1px;fill:Black;">
<tspan x="388" y="731">dct:type  </tspan>
</text>
</g>
<g id="2002689094"><path d="M555,398 L755,398 "
style="fill:none;stroke-width:1;stroke:Black;"/>
<line x1="749" y1="395" x2="755" y2="398"
 style="stroke-width:1;stroke:Black;"/>
<line x1="749" y1="401" x2="755" y2="398"
 style="stroke-width:1;stroke:Black;"/>
<text style="font-family:Arial;font-size:12px;kerning:0;word-spacing:-1px;fill:Black;">
<tspan x="559" y="396">dv-dossier:Collectie.bestaatUit  DR</tspan>
</text>
</g>
<g id="2002689099"><path d="M1055,424 L1350,424 "
style="fill:none;stroke-width:1;stroke:Black;"/>
<line x1="1344" y1="421" x2="1350" y2="424"
 style="stroke-width:1;stroke:Black;"/>
<line x1="1344" y1="427" x2="1350" y2="424"
 style="stroke-width:1;stroke:Black;"/>
<text style="font-family:Arial;font-size:12px;kerning:0;word-spacing:-1px;fill:Black;">
<tspan x="1059" y="422">prov:value  D</tspan>
</text>
</g>
<g id="2002689104"><path d="M1055,332 L1800,332 1804,334 1806,338 1806,460 "
style="fill:none;stroke-width:1;stroke:Black;"/>
<line x1="1803" y1="454" x2="1806" y2="460"
 style="stroke-width:1;stroke:Black;"/>
<line x1="1809" y1="454" x2="1806" y2="460"
 style="stroke-width:1;stroke:Black;"/>
<text style="font-family:Arial;font-size:12px;kerning:0;word-spacing:-1px;fill:Black;">
<tspan x="1059" y="330">prov:qualifiedAssociation  D</tspan>
</text>
</g>
<g id="2002689109"><path d="M1731,716 L1099,716 1095,714 1093,710 1093,618 1091,614 1087,612 1075,612 "
style="fill:none;stroke-width:1;stroke:Black;"/>
<line x1="1081" y1="609" x2="1075" y2="612"
 style="stroke-width:1;stroke:Black;"/>
<line x1="1081" y1="615" x2="1075" y2="612"
 style="stroke-width:1;stroke:Black;"/>
<text style="font-family:Arial;font-size:12px;kerning:0;word-spacing:-1px;fill:Black;">
<tspan x="1619" y="729">org:classification  R</tspan>
</text>
</g>
<g id="2002689114"><path d="M1219,678 L1105,678 1101,676 1099,672 1099,609 1097,605 1093,603 1075,603 "
style="fill:none;stroke-width:1;stroke:Black;"/>
<line x1="1081" y1="600" x2="1075" y2="603"
 style="stroke-width:1;stroke:Black;"/>
<line x1="1081" y1="606" x2="1075" y2="603"
 style="stroke-width:1;stroke:Black;"/>
<text style="font-family:Arial;font-size:12px;kerning:0;word-spacing:-1px;fill:Black;">
<tspan x="1107" y="691">org:classification  R</tspan>
</text>
</g>
<g id="2002689119"><path d="M1731,695 L1519,695 "
style="fill:none;stroke-width:1;stroke:Black;"/>
<line x1="1525" y1="692" x2="1519" y2="695"
 style="stroke-width:1;stroke:Black;"/>
<line x1="1525" y1="698" x2="1519" y2="695"
 style="stroke-width:1;stroke:Black;"/>
<text style="font-family:Arial;font-size:12px;kerning:0;word-spacing:-1px;fill:Black;">
<tspan x="1602" y="708">dv-besluit:bestuurt  DR</tspan>
</text>
</g>
<g id="2002689124"><path d="M2237,607 L1912,607 "
style="fill:none;stroke-width:1;stroke:Black;"/>
<line x1="1918" y1="604" x2="1912" y2="607"
 style="stroke-width:1;stroke:Black;"/>
<line x1="1918" y1="610" x2="1912" y2="607"
 style="stroke-width:1;stroke:Black;"/>
<text style="font-family:Arial;font-size:12px;kerning:0;word-spacing:-1px;fill:Black;">
<tspan x="2167" y="620">org:role  DR</tspan>
</text>
</g>
<g id="2002689129"><path d="M1956,534 L2381,534 2385,536 2387,540 2387,591 "
style="fill:none;stroke-width:1;stroke:Black;"/>
<line x1="2384" y1="585" x2="2387" y2="591"
 style="stroke-width:1;stroke:Black;"/>
<line x1="2390" y1="585" x2="2387" y2="591"
 style="stroke-width:1;stroke:Black;"/>
<text style="font-family:Arial;font-size:12px;kerning:0;word-spacing:-1px;fill:Black;">
<tspan x="1960" y="532">org:holds  DR</tspan>
</text>
</g>
<g id="2002689134"><path d="M2031,739 L2197,739 "
style="fill:none;stroke-width:1;stroke:Black;"/>
<line x1="2191" y1="736" x2="2197" y2="739"
 style="stroke-width:1;stroke:Black;"/>
<line x1="2191" y1="742" x2="2197" y2="739"
 style="stroke-width:1;stroke:Black;"/>
<text style="font-family:Arial;font-size:12px;kerning:0;word-spacing:-1px;fill:Black;">
<tspan x="2035" y="737">prov:qualifiedGeneration  DR</tspan>
</text>
</g>
<g id="2002689139"><path d="M555,419 L608,419 612,421 614,425 614,537 616,541 620,543 775,543 "
style="fill:none;stroke-width:1;stroke:Black;"/>
<line x1="769" y1="540" x2="775" y2="543"
 style="stroke-width:1;stroke:Black;"/>
<line x1="769" y1="546" x2="775" y2="543"
 style="stroke-width:1;stroke:Black;"/>
<text style="font-family:Arial;font-size:12px;kerning:0;word-spacing:-1px;fill:Black;">
<tspan x="559" y="417">dct:type  </tspan>
</text>
</g>
<g id="2002689144"><path d="M568,358 L755,358 "
style="fill:none;stroke-width:1;stroke:Black;"/>
<line x1="749" y1="355" x2="755" y2="358"
 style="stroke-width:1;stroke:Black;"/>
<line x1="749" y1="361" x2="755" y2="358"
 style="stroke-width:1;stroke:Black;"/>
<text style="font-family:Arial;font-size:12px;kerning:0;word-spacing:-1px;fill:Black;">
<tspan x="572" y="356">dv-dossier:Dossier.bestaatUit  R</tspan>
</text>
</g>
<g id="2002689149"><path d="M937,697 L1075,697 1079,695 1081,691 1081,630 1075,630 "
style="fill:none;stroke-width:1;stroke:Black;"/>
<line x1="1081" y1="627" x2="1075" y2="630"
 style="stroke-width:1;stroke:Black;"/>
<line x1="1081" y1="633" x2="1075" y2="630"
 style="stroke-width:1;stroke:Black;"/>
<text style="font-family:Arial;font-size:12px;kerning:0;word-spacing:-1px;fill:Black;">
<tspan x="941" y="695">dv-bv:agendaStatus  DR</tspan>
</text>
</g>
<g id="2002689154"><path d="M1731,659 L1531,659 1527,657 1525,653 1525,653 1527,649 1531,647 1881,647 1881,653 "
style="fill:none;stroke-width:1;stroke:Black;"/>
<line x1="1878" y1="647" x2="1881" y2="653"
 style="stroke-width:1;stroke:Black;"/>
<line x1="1884" y1="647" x2="1881" y2="653"
 style="stroke-width:1;stroke:Black;"/>
<text style="font-family:Arial;font-size:12px;kerning:0;word-spacing:-1px;fill:Black;">
<tspan x="1533" y="672">dv-generiek:isTijdspecialisatieVan  </tspan>
<tspan x="1533" y="687">DR</tspan>
</text>
</g>
<g id="2002689159"><path d="M755,326 L580,326 576,324 574,320 574,302 576,298 580,296 905,296 905,302 "
style="fill:none;stroke-width:1;stroke:Black;"/>
<line x1="902" y1="296" x2="905" y2="302"
 style="stroke-width:1;stroke:Black;"/>
<line x1="908" y1="296" x2="905" y2="302"
 style="stroke-width:1;stroke:Black;"/>
<text style="font-family:Arial;font-size:12px;kerning:0;word-spacing:-1px;fill:Black;">
<tspan x="640" y="339">dv-bv:heeftBijlage  D</tspan>
</text>
</g>
<g id="2002689164"><path d="M1028,858 L1081,858 1085,856 1087,852 1087,627 1085,623 1081,621 1075,621 "
style="fill:none;stroke-width:1;stroke:Black;"/>
<line x1="1081" y1="618" x2="1075" y2="621"
 style="stroke-width:1;stroke:Black;"/>
<line x1="1081" y1="624" x2="1075" y2="621"
 style="stroke-width:1;stroke:Black;"/>
<text style="font-family:Arial;font-size:12px;kerning:0;word-spacing:-1px;fill:Black;">
<tspan x="1032" y="856">dct:type  </tspan>
</text>
</g>
<g id="2002689169"><path d="M1731,737 L1566,737 1562,739 1560,743 1560,803 "
style="fill:none;stroke-width:1;stroke:Black;"/>
<line x1="1557" y1="797" x2="1560" y2="803"
 style="stroke-width:1;stroke:Black;"/>
<line x1="1563" y1="797" x2="1560" y2="803"
 style="stroke-width:1;stroke:Black;"/>
<text style="font-family:Arial;font-size:12px;kerning:0;word-spacing:-1px;fill:Black;">
<tspan x="1568" y="750">prov:qualifiedInvalidation  DR</tspan>
</text>
</g>
<g id="2002689174"><path d="M2031,670 L2153,670 2157,668 2159,664 2159,558 2157,554 2153,552 1956,552 "
style="fill:none;stroke-width:1;stroke:Black;"/>
<line x1="1962" y1="549" x2="1956" y2="552"
 style="stroke-width:1;stroke:Black;"/>
<line x1="1962" y1="555" x2="1956" y2="552"
 style="stroke-width:1;stroke:Black;"/>
<text style="font-family:Arial;font-size:12px;kerning:0;word-spacing:-1px;fill:Black;">
<tspan x="2035" y="668">prov:hadMember  DR</tspan>
</text>
</g>
<g id="2002689179"><path d="M1055,445 L1108,445 1112,447 1114,451 1114,492 1112,496 1108,498 1075,498 "
style="fill:none;stroke-width:1;stroke:Black;"/>
<line x1="1081" y1="495" x2="1075" y2="498"
 style="stroke-width:1;stroke:Black;"/>
<line x1="1081" y1="501" x2="1075" y2="498"
 style="stroke-width:1;stroke:Black;"/>
<text style="font-family:Arial;font-size:12px;kerning:0;word-spacing:-1px;fill:Black;">
<tspan x="1059" y="443">dct:type  </tspan>
</text>
</g>
<g id="2002689184"><path d="M637,664 L487,664 "
style="fill:none;stroke-width:1;stroke:Black;"/>
<line x1="493" y1="661" x2="487" y2="664"
 style="stroke-width:1;stroke:Black;"/>
<line x1="493" y1="667" x2="487" y2="664"
 style="stroke-width:1;stroke:Black;"/>
<text style="font-family:Arial;font-size:12px;kerning:0;word-spacing:-1px;fill:Black;">
<tspan x="507" y="677">dct:hasPart  DR</tspan>
<tspan x="507" y="692">prov:wasDerivedFrom  </tspan>
</text>
</g>
<g id="2002689189"><path d="M384,775 L468,775 472,777 474,781 474,863 476,867 480,869 728,869 "
style="fill:none;stroke-width:1;stroke:Black;"/>
<line x1="722" y1="866" x2="728" y2="869"
 style="stroke-width:1;stroke:Black;"/>
<line x1="722" y1="872" x2="728" y2="869"
 style="stroke-width:1;stroke:Black;"/>
<text style="font-family:Arial;font-size:12px;kerning:0;word-spacing:-1px;fill:Black;">
<tspan x="388" y="773">prov:used  DR</tspan>
</text>
</g>
<g id="2002689194"><path d="M1956,492 L2161,492 "
style="fill:none;stroke-width:1;stroke:Black;"/>
<line x1="2155" y1="489" x2="2161" y2="492"
 style="stroke-width:1;stroke:Black;"/>
<line x1="2155" y1="495" x2="2161" y2="492"
 style="stroke-width:1;stroke:Black;"/>
<text style="font-family:Arial;font-size:12px;kerning:0;word-spacing:-1px;fill:Black;">
<tspan x="1960" y="475">dv-mandaat:isBestuurlijkeAliasVan  </tspan>
<tspan x="1960" y="490">DR</tspan>
</text>
</g>
<g id="2002689199"><path d="M937,748 L1075,748 1079,750 1081,754 1081,826 1079,830 1075,832 1028,832 "
style="fill:none;stroke-width:1;stroke:Black;"/>
<line x1="1034" y1="829" x2="1028" y2="832"
 style="stroke-width:1;stroke:Black;"/>
<line x1="1034" y1="835" x2="1028" y2="832"
 style="stroke-width:1;stroke:Black;"/>
<text style="font-family:Arial;font-size:12px;kerning:0;word-spacing:-1px;fill:Black;">
<tspan x="941" y="746">dv-bv:isAgendaVoor  DR</tspan>
</text>
</g>
<g id="2002689204"><path d="M1493,87 L1584,87 1588,89 1590,93 1590,226 1584,226 "
style="fill:none;stroke-width:1;stroke:Black;"/>
<line x1="1590" y1="223" x2="1584" y2="226"
 style="stroke-width:1;stroke:Black;"/>
<line x1="1590" y1="229" x2="1584" y2="226"
 style="stroke-width:1;stroke:Black;"/>
<text style="font-family:Arial;font-size:12px;kerning:0;word-spacing:-1px;fill:Black;">
<tspan x="1497" y="85">dcat:dataset  D</tspan>
</text>
</g>
<g id="2002689209"><path d="M1284,180 L1160,180 "
style="fill:none;stroke-width:1;stroke:Black;"/>
<line x1="1166" y1="177" x2="1160" y2="180"
 style="stroke-width:1;stroke:Black;"/>
<line x1="1166" y1="183" x2="1160" y2="180"
 style="stroke-width:1;stroke:Black;"/>
<text style="font-family:Arial;font-size:12px;kerning:0;word-spacing:-1px;fill:Black;">
<tspan x="1169" y="193">dcat:distribution  DR</tspan>
</text>
</g>
<g id="2002689214"><path d="M1284,253 L1231,253 1227,255 1225,259 1225,550 1223,554 1219,556 1075,556 "
style="fill:none;stroke-width:1;stroke:Black;"/>
<line x1="1081" y1="553" x2="1075" y2="556"
 style="stroke-width:1;stroke:Black;"/>
<line x1="1081" y1="559" x2="1075" y2="556"
 style="stroke-width:1;stroke:Black;"/>
<text style="font-family:Arial;font-size:12px;kerning:0;word-spacing:-1px;fill:Black;">
<tspan x="1233" y="266">dct:type  </tspan>
</text>
</g>
<g id="2002689219"><path d="M775,506 L626,506 622,504 620,500 620,469 622,465 626,463 925,463 925,469 "
style="fill:none;stroke-width:1;stroke:Black;"/>
<line x1="922" y1="463" x2="925" y2="469"
 style="stroke-width:1;stroke:Black;"/>
<line x1="928" y1="463" x2="925" y2="469"
 style="stroke-width:1;stroke:Black;"/>
<text style="font-family:Arial;font-size:12px;kerning:0;word-spacing:-1px;fill:Black;">
<tspan x="668" y="519">skos:broader  DR</tspan>
<tspan x="668" y="534">skos:narrower  DR</tspan>
</text>
</g>
<g id="2002689224"><path d="M1493,55 L1596,55 "
style="fill:none;stroke-width:1;stroke:Black;"/>
<line x1="1590" y1="52" x2="1596" y2="55"
 style="stroke-width:1;stroke:Black;"/>
<line x1="1590" y1="58" x2="1596" y2="55"
 style="stroke-width:1;stroke:Black;"/>
<text style="font-family:Arial;font-size:12px;kerning:0;word-spacing:-1px;fill:Black;">
<tspan x="1497" y="53">dct:publisher  DR</tspan>
</text>
</g>
<g id="2002689229"><path d="M1350,384 L1237,384 1233,382 1231,378 1231,344 1233,340 1237,338 1500,338 1500,344 "
style="fill:none;stroke-width:1;stroke:Black;"/>
<line x1="1497" y1="338" x2="1500" y2="344"
 style="stroke-width:1;stroke:Black;"/>
<line x1="1503" y1="338" x2="1500" y2="344"
 style="stroke-width:1;stroke:Black;"/>
<text style="font-family:Arial;font-size:12px;kerning:0;word-spacing:-1px;fill:Black;">
<tspan x="1239" y="397">nie:dataSource  DR</tspan>
</text>
</g>
<g id="2002689234"><path d="M487,580 L775,580 "
style="fill:none;stroke-width:1;stroke:Black;"/>
<line x1="769" y1="577" x2="775" y2="580"
 style="stroke-width:1;stroke:Black;"/>
<line x1="769" y1="583" x2="775" y2="580"
 style="stroke-width:1;stroke:Black;"/>
<text style="font-family:Arial;font-size:12px;kerning:0;word-spacing:-1px;fill:Black;">
<tspan x="491" y="578">dv-besluit:Agendapunt.type  DR</tspan>
</text>
</g>
<g id="2002689239"><path d="M1612,602 L1512,602 "
style="fill:none;stroke-width:1;stroke:Black;"/>
<line x1="1518" y1="599" x2="1512" y2="602"
 style="stroke-width:1;stroke:Black;"/>
<line x1="1518" y1="605" x2="1512" y2="602"
 style="stroke-width:1;stroke:Black;"/>
<text style="font-family:Arial;font-size:12px;kerning:0;word-spacing:-1px;fill:Black;">
<tspan x="1516" y="615">skos:inScheme  </tspan>
</text>
</g>
<g id="2002689244"><path d="M384,754 L637,754 "
style="fill:none;stroke-width:1;stroke:Black;"/>
<line x1="631" y1="751" x2="637" y2="754"
 style="stroke-width:1;stroke:Black;"/>
<line x1="631" y1="757" x2="637" y2="754"
 style="stroke-width:1;stroke:Black;"/>
<text style="font-family:Arial;font-size:12px;kerning:0;word-spacing:-1px;fill:Black;">
<tspan x="388" y="752">prov:generated  D</tspan>
</text>
</g>
<g id="2002689249"><path d="M755,437 L393,437 389,439 387,443 387,504 "
style="fill:none;stroke-width:1;stroke:Black;"/>
<line x1="384" y1="498" x2="387" y2="504"
 style="stroke-width:1;stroke:Black;"/>
<line x1="390" y1="498" x2="387" y2="504"
 style="stroke-width:1;stroke:Black;"/>
<text style="font-family:Arial;font-size:12px;kerning:0;word-spacing:-1px;fill:Black;">
<tspan x="625" y="450">prov:wasDerivedFrom  </tspan>
</text>
</g>
<g id="2002689254"><path d="M1160,235 L1213,235 1217,237 1219,241 1219,521 1217,525 1213,527 1075,527 "
style="fill:none;stroke-width:1;stroke:Black;"/>
<line x1="1081" y1="524" x2="1075" y2="527"
 style="stroke-width:1;stroke:Black;"/>
<line x1="1081" y1="530" x2="1075" y2="527"
 style="stroke-width:1;stroke:Black;"/>
<text style="font-family:Arial;font-size:12px;kerning:0;word-spacing:-1px;fill:Black;">
<tspan x="1164" y="233">dct:type  </tspan>
</text>
</g>
<g id="2002689259"><path d="M187,596 L16,596 12,594 10,590 10,478 12,474 16,472 281,472 285,474 287,478 287,504 "
style="fill:none;stroke-width:1;stroke:Black;"/>
<line x1="284" y1="498" x2="287" y2="504"
 style="stroke-width:1;stroke:Black;"/>
<line x1="290" y1="498" x2="287" y2="504"
 style="stroke-width:1;stroke:Black;"/>
<text style="font-family:Arial;font-size:12px;kerning:0;word-spacing:-1px;fill:Black;">
<tspan x="18" y="609">dv-besluit:aangebrachtNa  DR</tspan>
<tspan x="18" y="624">prov:wasDerivedFrom  </tspan>
</text>
</g>
<g id="2002689264"><path d="M1075,594 L1212,594 "
style="fill:none;stroke-width:1;stroke:Black;"/>
<line x1="1206" y1="591" x2="1212" y2="594"
 style="stroke-width:1;stroke:Black;"/>
<line x1="1206" y1="597" x2="1212" y2="594"
 style="stroke-width:1;stroke:Black;"/>
<text style="font-family:Arial;font-size:12px;kerning:0;word-spacing:-1px;fill:Black;">
<tspan x="1079" y="577">skos:inScheme  </tspan>
<tspan x="1079" y="592">skos:topConceptOf  DR</tspan>
</text>
</g>
<g id="2002689269"><path d="M2194,697 L2031,697 "
style="fill:none;stroke-width:1;stroke:Black;"/>
<line x1="2037" y1="694" x2="2031" y2="697"
 style="stroke-width:1;stroke:Black;"/>
<line x1="2037" y1="700" x2="2031" y2="697"
 style="stroke-width:1;stroke:Black;"/>
<text style="font-family:Arial;font-size:12px;kerning:0;word-spacing:-1px;fill:Black;">
<tspan x="2035" y="710">dv-mandaat:steltSamen  DR</tspan>
</text>
</g>
<g id="2002689274"><path d="M2031,691 L2159,691 2163,689 2165,685 2165,634 2167,630 2171,628 2237,628 "
style="fill:none;stroke-width:1;stroke:Black;"/>
<line x1="2231" y1="625" x2="2237" y2="628"
 style="stroke-width:1;stroke:Black;"/>
<line x1="2231" y1="631" x2="2237" y2="628"
 style="stroke-width:1;stroke:Black;"/>
<text style="font-family:Arial;font-size:12px;kerning:0;word-spacing:-1px;fill:Black;">
<tspan x="2035" y="689">org:hasPost  DR</tspan>
</text>
</g>
<g id="2002689279"><path d="M1028,884 L1875,884 1879,882 1881,878 1881,754 "
style="fill:none;stroke-width:1;stroke:Black;"/>
<line x1="1878" y1="760" x2="1881" y2="754"
 style="stroke-width:1;stroke:Black;"/>
<line x1="1884" y1="760" x2="1881" y2="754"
 style="stroke-width:1;stroke:Black;"/>
<text style="font-family:Arial;font-size:12px;kerning:0;word-spacing:-1px;fill:Black;">
<tspan x="1032" y="882">dv-bv:isGehoudenDoor  DR</tspan>
</text>
</g>
</svg>
