<?xml version="1.0" encoding="UTF-8" standalone="no"?>
<!DOCTYPE svg PUBLIC "-//W3C//DTD SVG 1.1//EN"
"http://www.w3.org/Graphics/SVG/1.1/DTD/svg11.dtd">
<svg version="1.1" xmlns="http://www.w3.org/2000/svg"
xmlns:xlink="http://www.w3.org/1999/xlink" xml:space="preserve"
 width="937" height="605" viewBox="0 0 937 605">
 onmousemove="movetip(evt)" onmouseup="endmove()">
<rect x="0" y="0" width="100%" height="100%" style="fill:White;"/>
<script type="application/ecmascript"> <![CDATA[
var dragtipid = null; var dragcase = false; function init(evt){
if (window.svgDocument==null) svgDocument = evt.target.ownerDocument;
}
function movetip(evt){if (dragtipid!=null){ dragcase = true;
var tip=svgDocument.getElementById(dragtipid);
tip.setAttributeNS(null,"x",evt.clientX-2);
tip.setAttributeNS(null,"y",evt.clientY-2);
}}
function endmove(){dragtipid = null;}
function startmove(evt,id){dragtipid = id; dragcase = false;
var tip=svgDocument.getElementById(dragtipid);
tip.setAttributeNS(null,"x",evt.clientX-2);
tip.setAttributeNS(null,"y",evt.clientY-2);
}
function Showtip(evt,id){ dragtipid = null;
var tip=svgDocument.getElementById(id);
var vis=tip.getAttributeNS(null,"visibility");
if (vis=="hidden"){
tip.setAttributeNS(null,"x",evt.clientX-2);
tip.setAttributeNS(null,"y",evt.clientY-2);
tip.setAttributeNS(null,"visibility","visible");
}}
function Hidetip(id){ dragtipid = null; if (dragcase==false){
var tip=svgDocument.getElementById(id);
tip.setAttributeNS(null,"visibility","hidden");
}}
]]></script>
<defs><linearGradient id="activ1" x1="0%" y1="0%" x2="100%" y2="0%">
<stop offset="0%" style="stop-color:#FFFF00;stop-opacity:1"/>
<stop offset="100%" style="stop-color:#FFFFF0;stop-opacity:1"/>
</linearGradient></defs>
<g id="2002682334"><polygon points="122,68 422,68 422,163 122,163 "
style="fill:#F4D03F; stroke-width:1;stroke:Black;"/>
<polygon points="119,71 419,71 419,166 119,166 "
style="fill:#F4D03F; stroke-width:1;stroke:Black;"/>
<text style="font-family:Arial;font-size:12px;kerning:0;word-spacing:-1px;fill:Black;font-weight:bold;">
<tspan x="128" y="86">skos:Concept or owl:NamedIndividual G101 (510)</tspan>
</text>
<line x1="123" y1="89" x2="417" y2="89"
 style="stroke-width:1;stroke:Black;"/>
<text style="font-family:Arial;font-size:12px;kerning:0;word-spacing:-1px;fill:Black;">
<tspan x="123" y="101">rdf:type (3060) [*]  -&gt; IRI</tspan>
<tspan x="123" y="116">skos:definition (1251) [1] D -&gt; IRI</tspan>
<tspan x="123" y="131">skos:prefLabel (2040) [*] D</tspan>
</text>
<text style="font-family:Arial;font-size:11px;kerning:0;word-spacing:-1px;fill:Black;font-weight:bold;">
<tspan x="123" y="146">owl:NamedIndividual (510)</tspan>
<tspan x="123" y="161">skos:Concept (510)</tspan>
</text>
</g>
<g id="2002682345"><polygon points="465,10 765,10 765,55 465,55 "
style="fill:#F4D03F; stroke-width:1;stroke:Black;"/>
<text style="font-family:Arial;font-size:12px;kerning:0;word-spacing:-1px;fill:Black;font-weight:bold;">
<tspan x="539" y="25">owl:AnnotationProperty (5)</tspan>
</text>
<line x1="469" y1="28" x2="763" y2="28"
 style="stroke-width:1;stroke:Black;"/>
<text style="font-family:Arial;font-size:12px;kerning:0;word-spacing:-1px;fill:Black;">
<tspan x="469" y="40">rdf:type (6) [*]  -&gt; IRI</tspan>
</text>
</g>
<g id="2002682356"><polygon points="98,456 398,456 398,521 98,521 "
style="fill:#F4D03F; stroke-width:1;stroke:Black;"/>
<text style="font-family:Arial;font-size:12px;kerning:0;word-spacing:-1px;fill:Black;font-weight:bold;">
<tspan x="202" y="471">rdf:Property (23)</tspan>
</text>
<line x1="102" y1="474" x2="396" y2="474"
 style="stroke-width:1;stroke:Black;"/>
<text style="font-family:Arial;font-size:12px;kerning:0;word-spacing:-1px;fill:Black;">
<tspan x="102" y="486">rdf:type (28) [*]  -&gt; IRI</tspan>
<tspan x="102" y="501">rdfs:label (23) [1] </tspan>
<tspan x="102" y="516">rdfs:subPropertyOf (2) [1] D -&gt; IRI</tspan>
</text>
</g>
<g id="2002682367"><polygon points="487,429 787,429 787,494 487,494 "
style="fill:#F4D03F; stroke-width:1;stroke:Black;"/>
<text style="font-family:Arial;font-size:12px;kerning:0;word-spacing:-1px;fill:Black;font-weight:bold;">
<tspan x="600" y="444">owl:Class (3)</tspan>
</text>
<line x1="491" y1="447" x2="785" y2="447"
 style="stroke-width:1;stroke:Black;"/>
<text style="font-family:Arial;font-size:12px;kerning:0;word-spacing:-1px;fill:Black;">
<tspan x="491" y="459">owl:unionOf (1) [1] D -&gt; IRI</tspan>
<tspan x="491" y="474">rdf:type (3) [*]  -&gt; IRI</tspan>
<tspan x="491" y="489">rdfs:label (2) [1] </tspan>
</text>
</g>
<g id="2002682378"><polygon points="566,172 866,172 866,252 566,252 "
style="fill:#F4D03F; stroke-width:1;stroke:Black;"/>
<text style="font-family:Arial;font-size:12px;kerning:0;word-spacing:-1px;fill:Black;font-weight:bold;">
<tspan x="677" y="187">sd:Service (1)</tspan>
</text>
<line x1="570" y1="190" x2="864" y2="190"
 style="stroke-width:1;stroke:Black;"/>
<text style="font-family:Arial;font-size:12px;kerning:0;word-spacing:-1px;fill:Black;">
<tspan x="570" y="202">rdf:type (1) [*]  -&gt; IRI</tspan>
<tspan x="570" y="217">sd:feature (2) [*] D -&gt; IRI</tspan>
<tspan x="570" y="232">sd:resultFormat (8) [*] D -&gt; IRI</tspan>
<tspan x="570" y="247">sd:supportedLanguage (1) [1] D -&gt; IRI</tspan>
</text>
</g>
<g id="2002682389"><polygon points="80,192 380,192 380,422 80,422 "
style="fill:#F4D03F; stroke-width:1;stroke:Black;"/>
<text style="font-family:Arial;font-size:12px;kerning:0;word-spacing:-1px;fill:Black;font-weight:bold;">
<tspan x="184" y="207">owl:Ontology (4)</tspan>
</text>
<line x1="84" y1="210" x2="378" y2="210"
 style="stroke-width:1;stroke:Black;"/>
<text style="font-family:Arial;font-size:12px;kerning:0;word-spacing:-1px;fill:Black;">
<tspan x="84" y="222">dct:created (9) [1] </tspan>
<tspan x="84" y="237">dct:description (9) [1] D</tspan>
<tspan x="84" y="252">dct:license (9) [1] D -&gt; IRI</tspan>
<tspan x="84" y="267">dct:modified (9) [1] </tspan>
<tspan x="84" y="282">dct:subject (9) [1] D -&gt; IRI</tspan>
<tspan x="84" y="297">dct:title (9) [1] </tspan>
<tspan x="84" y="312">owl:imports (10) [1] D -&gt; IRI</tspan>
<tspan x="84" y="327">owl:priorVersion (1) [1] D -&gt; IRI</tspan>
<tspan x="84" y="342">owl:versionIRI (9) [1] D -&gt; IRI</tspan>
<tspan x="84" y="357">owl:versionInfo (10) [1] D</tspan>
<tspan x="84" y="372">rdf:type (10) [*]  -&gt; IRI</tspan>
<tspan x="84" y="387">rdfs:comment (1) [1] D</tspan>
<tspan x="84" y="402">rdfs:isDefinedBy (3) [*] D -&gt; IRI</tspan>
<tspan x="84" y="417">rdfs:seeAlso (9) [1] D -&gt; IRI</tspan>
</text>
</g>
<g id="2002682400"><polygon points="569,93 869,93 869,143 569,143 "
style="fill:#F4D03F; stroke-width:1;stroke:Black;"/>
<text style="font-family:Arial;font-size:12px;kerning:0;word-spacing:-1px;fill:Black;font-weight:bold;">
<tspan x="646" y="108">skos:ConceptScheme (3)</tspan>
</text>
<line x1="573" y1="111" x2="867" y2="111"
 style="stroke-width:1;stroke:Black;"/>
<text style="font-family:Arial;font-size:12px;kerning:0;word-spacing:-1px;fill:Black;">
<tspan x="573" y="123">dct:title (9) [1] </tspan>
<tspan x="573" y="138">rdf:type (9) [*]  -&gt; IRI</tspan>
</text>
</g>
<g id="2002682411"><polygon points="469,275 769,275 769,340 469,340 "
style="fill:#F4D03F; stroke-width:1;stroke:Black;"/>
<text style="font-family:Arial;font-size:12px;kerning:0;word-spacing:-1px;fill:Black;font-weight:bold;">
<tspan x="578" y="290">foaf:Person (4)</tspan>
</text>
<line x1="473" y1="293" x2="767" y2="293"
 style="stroke-width:1;stroke:Black;"/>
<text style="font-family:Arial;font-size:12px;kerning:0;word-spacing:-1px;fill:Black;">
<tspan x="473" y="305">foaf:mbox (8) [1] D -&gt; IRI</tspan>
<tspan x="473" y="320">foaf:name (8) [1] D</tspan>
<tspan x="473" y="335">rdf:type (8) [*]  -&gt; IRI</tspan>
</text>
</g>
<g id="2002682323"><polygon points="154,550 454,550 454,595 154,595 "
style="fill:#F4D03F; stroke-width:1;stroke:Black;"/>
<text style="font-family:Arial;font-size:12px;kerning:0;word-spacing:-1px;fill:Black;font-weight:bold;">
<tspan x="233" y="565">owl:OntologyProperty (4)</tspan>
</text>
</g>
<g id="2002682286"><path d="M380,307 L469,307 "
style="fill:none;stroke-width:1;stroke:Black;"/>
<line x1="463" y1="304" x2="469" y2="307"
 style="stroke-width:1;stroke:Black;"/>
<line x1="463" y1="310" x2="469" y2="307"
 style="stroke-width:1;stroke:Black;"/>
<text style="font-family:Arial;font-size:12px;kerning:0;word-spacing:-1px;fill:Black;">
<tspan x="384" y="305">dct:creator  DR</tspan>
</text>
</g>
<g id="2002682291"><path d="M398,488 L487,488 "
style="fill:none;stroke-width:1;stroke:Black;"/>
<line x1="481" y1="485" x2="487" y2="488"
 style="stroke-width:1;stroke:Black;"/>
<line x1="481" y1="491" x2="487" y2="488"
 style="stroke-width:1;stroke:Black;"/>
<text style="font-family:Arial;font-size:12px;kerning:0;word-spacing:-1px;fill:Black;">
<tspan x="402" y="471">rdfs:domain  D</tspan>
<tspan x="402" y="486">rdfs:range  D</tspan>
</text>
</g>
<g id="2002682301"><path d="M566,212 L471,212 467,210 465,206 465,172 467,168 471,166 716,166 716,172 "
style="fill:none;stroke-width:1;stroke:Black;"/>
<line x1="713" y1="166" x2="716" y2="172"
 style="stroke-width:1;stroke:Black;"/>
<line x1="719" y1="166" x2="716" y2="172"
 style="stroke-width:1;stroke:Black;"/>
<text style="font-family:Arial;font-size:12px;kerning:0;word-spacing:-1px;fill:Black;">
<tspan x="473" y="225">sd:endpoint  DR</tspan>
<tspan x="473" y="240">sd:url  DR</tspan>
</text>
</g>
<g id="2002682306"><path d="M569,102 L419,102 "
style="fill:none;stroke-width:1;stroke:Black;"/>
<line x1="425" y1="99" x2="419" y2="102"
 style="stroke-width:1;stroke:Black;"/>
<line x1="425" y1="105" x2="419" y2="102"
 style="stroke-width:1;stroke:Black;"/>
<text style="font-family:Arial;font-size:12px;kerning:0;word-spacing:-1px;fill:Black;">
<tspan x="423" y="115">skos:hasTopConcept  DR</tspan>
</text>
</g>
<g id="2002682311"><path d="M419,134 L569,134 "
style="fill:none;stroke-width:1;stroke:Black;"/>
<line x1="563" y1="131" x2="569" y2="134"
 style="stroke-width:1;stroke:Black;"/>
<line x1="563" y1="137" x2="569" y2="134"
 style="stroke-width:1;stroke:Black;"/>
<text style="font-family:Arial;font-size:12px;kerning:0;word-spacing:-1px;fill:Black;">
<tspan x="423" y="132">skos:inScheme  DR</tspan>
</text>
</g>
<g id="2002682321"><path d="M308,521 L308,550 "
style="fill:none;stroke-width:2;stroke:Fuchsia;"/>
<polygon points="313,531 308,521 303,531 "
style="fill:Silver;stroke-width:1;stroke:Black;"/>
<text style="font-family:Arial;font-size:12px;kerning:0;word-spacing:-1px;fill:Black;">
<tspan x="310" y="536"> </tspan>
</text>
</g>
<g id="2002682316"><path d="M119,118 L16,118 12,116 10,112 10,54 12,50 16,48 263,48 267,50 269,54 269,71 "
style="fill:none;stroke-width:1;stroke:Black;"/>
<line x1="266" y1="65" x2="269" y2="71"
 style="stroke-width:1;stroke:Black;"/>
<line x1="272" y1="65" x2="269" y2="71"
 style="stroke-width:1;stroke:Black;"/>
<text style="font-family:Arial;font-size:12px;kerning:0;word-spacing:-1px;fill:Black;">
<tspan x="18" y="131">skos:related  D</tspan>
<tspan x="18" y="146">skos:broader  DR</tspan>
</text>
</g>
<g id="2002682296"><path d="M787,446 L920,446 924,444 926,440 926,388 924,384 920,382 695,382 691,384 689,388 689,429 "
style="fill:none;stroke-width:1;stroke:Black;"/>
<line x1="686" y1="423" x2="689" y2="429"
 style="stroke-width:1;stroke:Black;"/>
<line x1="692" y1="423" x2="689" y2="429"
 style="stroke-width:1;stroke:Black;"/>
<text style="font-family:Arial;font-size:12px;kerning:0;word-spacing:-1px;fill:Black;">
<tspan x="791" y="444">owl:complementOf  DR</tspan>
</text>
</g>
</svg>
