<?xml version="1.0" encoding="UTF-8" standalone="no"?>
<!DOCTYPE svg PUBLIC "-//W3C//DTD SVG 1.1//EN"
"http://www.w3.org/Graphics/SVG/1.1/DTD/svg11.dtd">
<svg version="1.1" xmlns="http://www.w3.org/2000/svg"
xmlns:xlink="http://www.w3.org/1999/xlink" xml:space="preserve"
 width="2842" height="1157" viewBox="0 0 2842 1157">
 onmousemove="movetip(evt)" onmouseup="endmove()">
<rect x="0" y="0" width="100%" height="100%" style="fill:White;"/>
<script type="application/ecmascript"> <![CDATA[
var dragtipid = null; var dragcase = false; function init(evt){
if (window.svgDocument==null) svgDocument = evt.target.ownerDocument;
}
function movetip(evt){if (dragtipid!=null){ dragcase = true;
var tip=svgDocument.getElementById(dragtipid);
tip.setAttributeNS(null,"x",evt.clientX-2);
tip.setAttributeNS(null,"y",evt.clientY-2);
}}
function endmove(){dragtipid = null;}
function startmove(evt,id){dragtipid = id; dragcase = false;
var tip=svgDocument.getElementById(dragtipid);
tip.setAttributeNS(null,"x",evt.clientX-2);
tip.setAttributeNS(null,"y",evt.clientY-2);
}
function Showtip(evt,id){ dragtipid = null;
var tip=svgDocument.getElementById(id);
var vis=tip.getAttributeNS(null,"visibility");
if (vis=="hidden"){
tip.setAttributeNS(null,"x",evt.clientX-2);
tip.setAttributeNS(null,"y",evt.clientY-2);
tip.setAttributeNS(null,"visibility","visible");
}}
function Hidetip(id){ dragtipid = null; if (dragcase==false){
var tip=svgDocument.getElementById(id);
tip.setAttributeNS(null,"visibility","hidden");
}}
]]></script>
<defs><linearGradient id="activ1" x1="0%" y1="0%" x2="100%" y2="0%">
<stop offset="0%" style="stop-color:#FFFF00;stop-opacity:1"/>
<stop offset="100%" style="stop-color:#FFFFF0;stop-opacity:1"/>
</linearGradient></defs>
<g id="2002686110"><polygon points="230,487 530,487 530,644 230,644 "
style="fill:#F4D03F; stroke-width:1;stroke:Black;"/>
<polygon points="227,490 527,490 527,647 227,647 "
style="fill:#F4D03F; stroke-width:1;stroke:Black;"/>
<text style="font-family:Arial;font-size:12px;kerning:0;word-spacing:-1px;fill:Black;font-weight:bold;">
<tspan x="247" y="505">meshvocab:AllowedDescriptorQualifierPair or </tspan>
<tspan x="246" y="521">meshvocab:DisallowedDescriptorQualifierPair </tspan>
<tspan x="336" y="537">G105 (~6.8e6)</tspan>
</text>
<line x1="231" y1="540" x2="525" y2="540"
 style="stroke-width:1;stroke:Black;"/>
<text style="font-family:Arial;font-size:12px;kerning:0;word-spacing:-1px;fill:Black;">
<tspan x="231" y="552">meshvocab:active (6.8e5) [1] </tspan>
<tspan x="231" y="567">meshvocab:lastActiveYear (5.3e4) [1] </tspan>
<tspan x="231" y="582">rdf:type (6.8e6) [*]  -&gt;  owl:Class</tspan>
<tspan x="231" y="597">rdfs:label (6.8e6) [*] </tspan>
</text>
<text style="font-family:Arial;font-size:11px;kerning:0;word-spacing:-1px;fill:Black;font-weight:bold;">
<tspan x="231" y="612">meshvocab:AllowedDescriptorQualifierPair (6.8e6)</tspan>
<tspan x="231" y="627">meshvocab:DisallowedDescriptorQualifierPair (1.</tspan>
<tspan x="231" y="642">1e4)</tspan>
</text>
</g>
<g id="2002686154"><polygon points="896,733 1196,733 1196,979 896,979 "
style="fill:#F4D03F; stroke-width:1;stroke:Black;"/>
<polygon points="893,736 1193,736 1193,982 893,982 "
style="fill:#F4D03F; stroke-width:1;stroke:Black;"/>
<text style="font-family:Arial;font-size:12px;kerning:0;word-spacing:-1px;fill:Black;font-weight:bold;">
<tspan x="898" y="751">meshvocab:GeographicalDescriptor or meshvocab:</tspan>
<tspan x="956" y="767">PublicationType G103 (~6298)</tspan>
</text>
<line x1="897" y1="770" x2="1191" y2="770"
 style="stroke-width:1;stroke:Black;"/>
<text style="font-family:Arial;font-size:12px;kerning:0;word-spacing:-1px;fill:Black;">
<tspan x="897" y="782">meshvocab:active (590) [1] </tspan>
<tspan x="897" y="797">meshvocab:annotation (3862) [1] </tspan>
<tspan x="897" y="812">meshvocab:dateCreated (6298) [1] </tspan>
<tspan x="897" y="827">meshvocab:dateEstablished (5764) [1] </tspan>
<tspan x="897" y="842">meshvocab:dateRevised (6157) [1] </tspan>
<tspan x="897" y="857">meshvocab:historyNote (3710) [1] </tspan>
<tspan x="897" y="872">meshvocab:identifier (6298) [1] </tspan>
<tspan x="897" y="887">meshvocab:nlmClassificationNumber (97) [1] </tspan>
<tspan x="897" y="902">meshvocab:onlineNote (460) [1] </tspan>
<tspan x="897" y="917">meshvocab:previousIndexing (728) [*] </tspan>
<tspan x="897" y="932">rdf:type (6298) [*]  -&gt;  owl:Class</tspan>
<tspan x="897" y="947">rdfs:label (6298) [*] </tspan>
</text>
<text style="font-family:Arial;font-size:11px;kerning:0;word-spacing:-1px;fill:Black;font-weight:bold;">
<tspan x="897" y="962">meshvocab:GeographicalDescriptor (4356)</tspan>
<tspan x="897" y="977">meshvocab:PublicationType (1942)</tspan>
</text>
</g>
<g id="2002686187"><polygon points="1812,24 2112,24 2112,134 1812,134 "
style="fill:#F4D03F; stroke-width:1;stroke:Black;"/>
<text style="font-family:Arial;font-size:12px;kerning:0;word-spacing:-1px;fill:Black;font-weight:bold;">
<tspan x="1922" y="39">owl:Class (17)</tspan>
</text>
<line x1="1816" y1="42" x2="2110" y2="42"
 style="stroke-width:1;stroke:Black;"/>
<text style="font-family:Arial;font-size:12px;kerning:0;word-spacing:-1px;fill:Black;">
<tspan x="1816" y="54">dct:description (17) [1] </tspan>
<tspan x="1816" y="69">rdf:type (17) [*]  -&gt;  owl:Class</tspan>
<tspan x="1816" y="84">rdfs:comment (17) [1] </tspan>
<tspan x="1816" y="99">rdfs:label (17) [*] </tspan>
<tspan x="1816" y="114">&lt;-rdf:type (2.4e7)  &lt;-  void:DatasetDescription,sd:</tspan>
<tspan x="1816" y="129">Service..(19)</tspan>
</text>
</g>
<g id="2002686198"><polygon points="1214,127 1514,127 1514,282 1214,282 "
style="fill:#F4D03F; stroke-width:1;stroke:Black;"/>
<text style="font-family:Arial;font-size:12px;kerning:0;word-spacing:-1px;fill:Black;font-weight:bold;">
<tspan x="1288" y="142">meshvocab:CheckTag (22)</tspan>
</text>
<line x1="1218" y1="145" x2="1512" y2="145"
 style="stroke-width:1;stroke:Black;"/>
<text style="font-family:Arial;font-size:12px;kerning:0;word-spacing:-1px;fill:Black;">
<tspan x="1218" y="157">meshvocab:active (2) [1] </tspan>
<tspan x="1218" y="172">meshvocab:annotation (22) [1] </tspan>
<tspan x="1218" y="187">meshvocab:dateCreated (22) [1] </tspan>
<tspan x="1218" y="202">meshvocab:dateEstablished (18) [1] </tspan>
<tspan x="1218" y="217">meshvocab:dateRevised (22) [1] </tspan>
<tspan x="1218" y="232">meshvocab:historyNote (22) [1] </tspan>
<tspan x="1218" y="247">meshvocab:identifier (22) [1] </tspan>
<tspan x="1218" y="262">rdf:type (22) [*]  -&gt;  owl:Class</tspan>
<tspan x="1218" y="277">rdfs:label (22) [*] </tspan>
</text>
</g>
<g id="2002686209"><polygon points="2532,699 2832,699 2832,779 2532,779 "
style="fill:#F4D03F; stroke-width:1;stroke:Black;"/>
<text style="font-family:Arial;font-size:12px;kerning:0;word-spacing:-1px;fill:Black;font-weight:bold;">
<tspan x="2643" y="714">sd:Service (1)</tspan>
</text>
<line x1="2536" y1="717" x2="2830" y2="717"
 style="stroke-width:1;stroke:Black;"/>
<text style="font-family:Arial;font-size:12px;kerning:0;word-spacing:-1px;fill:Black;">
<tspan x="2536" y="729">rdf:type (1) [*]  -&gt;  owl:Class</tspan>
<tspan x="2536" y="744">sd:feature (2) [*] D -&gt; IRI</tspan>
<tspan x="2536" y="759">sd:resultFormat (8) [*] D -&gt; IRI</tspan>
<tspan x="2536" y="774">sd:supportedLanguage (1) [1] D -&gt; IRI</tspan>
</text>
</g>
<g id="2002686253"><polygon points="2286,86 2586,86 2586,190 2286,190 "
style="fill:#F4D03F; stroke-width:1;stroke:Black;"/>
<text style="font-family:Arial;font-size:12px;kerning:0;word-spacing:-1px;fill:Black;font-weight:bold;">
<tspan x="2362" y="101">owl:DatatypeProperty (28)</tspan>
</text>
<line x1="2290" y1="104" x2="2584" y2="104"
 style="stroke-width:1;stroke:Black;"/>
<text style="font-family:Arial;font-size:12px;kerning:0;word-spacing:-1px;fill:Black;">
<tspan x="2290" y="116">dct:description (27) [1] </tspan>
<tspan x="2290" y="131">rdf:type (28) [*]  -&gt;  owl:Class</tspan>
<tspan x="2290" y="146">rdfs:comment (27) [1] </tspan>
<tspan x="2290" y="161">rdfs:label (27) [*] </tspan>
</text>
</g>
<g id="2002686275"><polygon points="1215,994 1515,994 1515,1074 1215,1074 "
style="fill:#F4D03F; stroke-width:1;stroke:Black;"/>
<text style="font-family:Arial;font-size:12px;kerning:0;word-spacing:-1px;fill:Black;font-weight:bold;">
<tspan x="1274" y="1009">meshvocab:TreeNumber (6.8e5)</tspan>
</text>
<line x1="1219" y1="1012" x2="1513" y2="1012"
 style="stroke-width:1;stroke:Black;"/>
<text style="font-family:Arial;font-size:12px;kerning:0;word-spacing:-1px;fill:Black;">
<tspan x="1219" y="1024">meshvocab:active (8.2e4) [1] </tspan>
<tspan x="1219" y="1039">meshvocab:lastActiveYear (1.7e4) [1] </tspan>
<tspan x="1219" y="1054">rdf:type (6.8e5) [*]  -&gt;  owl:Class</tspan>
<tspan x="1219" y="1069">rdfs:label (6.8e5) [*] </tspan>
</text>
</g>
<g id="2002686121"><polygon points="1564,1042 1864,1042 1864,1087 1564,1087 "
style="fill:#F4D03F; stroke-width:1;stroke:Black;"/>
<text style="font-family:Arial;font-size:12px;kerning:0;word-spacing:-1px;fill:Black;font-weight:bold;">
<tspan x="1638" y="1057">owl:AnnotationProperty (1)</tspan>
</text>
<line x1="1568" y1="1060" x2="1862" y2="1060"
 style="stroke-width:1;stroke:Black;"/>
<text style="font-family:Arial;font-size:12px;kerning:0;word-spacing:-1px;fill:Black;">
<tspan x="1568" y="1072">rdf:type (1) [*]  -&gt;  owl:Class</tspan>
</text>
</g>
<g id="2002686231"><polygon points="1633,643 1933,643 1933,934 1633,934 "
style="fill:#F4D03F; stroke-width:1;stroke:Black;"/>
<text style="font-family:Arial;font-size:12px;kerning:0;word-spacing:-1px;fill:Black;font-weight:bold;">
<tspan x="1677" y="658">meshvocab:TopicalDescriptor (3.2e5)</tspan>
</text>
<line x1="1637" y1="661" x2="1931" y2="661"
 style="stroke-width:1;stroke:Black;"/>
<text style="font-family:Arial;font-size:12px;kerning:0;word-spacing:-1px;fill:Black;">
<tspan x="1637" y="673">meshvocab:active (3.0e4) [1] </tspan>
<tspan x="1637" y="688">meshvocab:annotation (1.4e5) [1] </tspan>
<tspan x="1637" y="703">meshvocab:considerAlso (729) [1] D</tspan>
<tspan x="1637" y="718">meshvocab:dateCreated (3.2e5) [1] </tspan>
<tspan x="1637" y="733">meshvocab:dateEstablished (3.1e5) [1] </tspan>
<tspan x="1637" y="748">meshvocab:dateRevised (3.0e5) [1] </tspan>
<tspan x="1637" y="763">meshvocab:historyNote (2.8e5) [1] </tspan>
<tspan x="1637" y="778">meshvocab:identifier (3.2e5) [1] </tspan>
<tspan x="1637" y="793">meshvocab:lastActiveYear (76) [1] </tspan>
<tspan x="1637" y="808">meshvocab:nlmClassificationNumber (6.2e4) [1] </tspan>
<tspan x="1637" y="823">meshvocab:onlineNote (3.3e4) [1] </tspan>
<tspan x="1637" y="838">meshvocab:previousIndexing (2.9e5) [*] </tspan>
<tspan x="1637" y="853">meshvocab:publicMeSHNote (2.7e5) [1] D</tspan>
<tspan x="1637" y="868">rdf:type (3.2e5) [*]  -&gt;  owl:Class</tspan>
<tspan x="1637" y="883">rdfs:label (3.2e5) [*] </tspan>
</text>
</g>
<g id="2002686220"><polygon points="1945,1000 2245,1000 2245,1050 1945,1050 "
style="fill:#F4D03F; stroke-width:1;stroke:Black;"/>
<text style="font-family:Arial;font-size:12px;kerning:0;word-spacing:-1px;fill:Black;font-weight:bold;">
<tspan x="2049" y="1015">owl:Ontology (1)</tspan>
</text>
<line x1="1949" y1="1018" x2="2243" y2="1018"
 style="stroke-width:1;stroke:Black;"/>
<text style="font-family:Arial;font-size:12px;kerning:0;word-spacing:-1px;fill:Black;">
<tspan x="1949" y="1030">owl:versionInfo (1) [1] </tspan>
<tspan x="1949" y="1045">rdf:type (1) [*]  -&gt;  owl:Class</tspan>
</text>
</g>
<g id="2002686132"><polygon points="2091,635 2391,635 2391,928 2091,928 "
style="fill:#F4D03F; stroke-width:1;stroke:Black;"/>
<text style="font-family:Arial;font-size:12px;kerning:0;word-spacing:-1px;fill:Black;font-weight:bold;">
<tspan x="2197" y="650">void:Dataset (1)</tspan>
</text>
<line x1="2095" y1="653" x2="2389" y2="653"
 style="stroke-width:1;stroke:Black;"/>
<text style="font-family:Arial;font-size:12px;kerning:0;word-spacing:-1px;fill:Black;">
<tspan x="2095" y="665">dct:created (1) [1] </tspan>
<tspan x="2095" y="680">dct:creator (1) [1] </tspan>
<tspan x="2095" y="695">dct:description (1) [1] </tspan>
<tspan x="2095" y="710">dct:license (1) [1] D -&gt; IRI</tspan>
<tspan x="2095" y="725">dct:publisher (1) [1] D</tspan>
<tspan x="2095" y="740">dct:subject (1) [1] D -&gt; IRI</tspan>
<tspan x="2095" y="755">dct:title (1) [1] </tspan>
<tspan x="2095" y="770">foaf:homepage (1) [1] D -&gt; IRI</tspan>
<tspan x="2095" y="785">foaf:page (1) [1] D -&gt; IRI</tspan>
<tspan x="2095" y="800">rdf:type (1) [*]  -&gt;  owl:Class</tspan>
<tspan x="2095" y="815">rdfs:comment (1) [1] </tspan>
<tspan x="2095" y="830">void:dataDump (6) [*] D</tspan>
<tspan x="2095" y="845">void:feature (1) [1] D -&gt; IRI</tspan>
<tspan x="2095" y="860">void:uriLookupEndpoint (1) [1] D -&gt; IRI</tspan>
<tspan x="2095" y="875">void:uriSpace (1) [1] D</tspan>
</text>
</g>
<g id="2002686242"><polygon points="2065,400 2365,400 2365,540 2065,540 "
style="fill:#F4D03F; stroke-width:1;stroke:Black;"/>
<text style="font-family:Arial;font-size:12px;kerning:0;word-spacing:-1px;fill:Black;font-weight:bold;">
<tspan x="2138" y="415">void:DatasetDescription (1)</tspan>
</text>
<line x1="2069" y1="418" x2="2363" y2="418"
 style="stroke-width:1;stroke:Black;"/>
<text style="font-family:Arial;font-size:12px;kerning:0;word-spacing:-1px;fill:Black;">
<tspan x="2069" y="430">dct:creator (1) [1] </tspan>
<tspan x="2069" y="445">dct:date (1) [1] D</tspan>
<tspan x="2069" y="460">dct:description (1) [1] </tspan>
<tspan x="2069" y="475">dct:title (1) [1] </tspan>
<tspan x="2069" y="490">owl:versionInfo (1) [1] </tspan>
<tspan x="2069" y="505">rdf:type (1) [*]  -&gt;  owl:Class</tspan>
</text>
</g>
<g id="2002686286"><polygon points="1880,336 2180,336 2180,381 1880,381 "
style="fill:#F4D03F; stroke-width:1;stroke:Black;"/>
<text style="font-family:Arial;font-size:12px;kerning:0;word-spacing:-1px;fill:Black;font-weight:bold;">
<tspan x="1958" y="351">owl:TransitiveProperty (1)</tspan>
</text>
</g>
<g id="2002686165"><polygon points="1905,237 2205,237 2205,317 1905,317 "
style="fill:#F4D03F; stroke-width:1;stroke:Black;"/>
<text style="font-family:Arial;font-size:12px;kerning:0;word-spacing:-1px;fill:Black;font-weight:bold;">
<tspan x="1988" y="252">owl:ObjectProperty (21)</tspan>
</text>
<line x1="1909" y1="255" x2="2203" y2="255"
 style="stroke-width:1;stroke:Black;"/>
<text style="font-family:Arial;font-size:12px;kerning:0;word-spacing:-1px;fill:Black;">
<tspan x="1909" y="267">dct:description (20) [1] </tspan>
<tspan x="1909" y="282">rdf:type (22) [*]  -&gt;  owl:Class</tspan>
<tspan x="1909" y="297">rdfs:comment (20) [1] </tspan>
<tspan x="1909" y="312">rdfs:label (20) [*] </tspan>
</text>
</g>
<g id="2002686264"><polygon points="1393,288 1693,288 1693,516 1393,516 "
style="fill:#F4D03F; stroke-width:1;stroke:Black;"/>
<text style="font-family:Arial;font-size:12px;kerning:0;word-spacing:-1px;fill:Black;font-weight:bold;">
<tspan x="1473" y="303">meshvocab:Term (8.5e6)</tspan>
</text>
<line x1="1397" y1="306" x2="1691" y2="306"
 style="stroke-width:1;stroke:Black;"/>
<text style="font-family:Arial;font-size:12px;kerning:0;word-spacing:-1px;fill:Black;">
<tspan x="1397" y="318">meshvocab:abbreviation (873) [1] D</tspan>
<tspan x="1397" y="333">meshvocab:active (8.7e5) [1] </tspan>
<tspan x="1397" y="348">meshvocab:altLabel (1.3e6) [*] D</tspan>
<tspan x="1397" y="363">meshvocab:dateCreated (6.0e6) [1] </tspan>
<tspan x="1397" y="378">meshvocab:entryVersion (1.8e5) [1] D</tspan>
<tspan x="1397" y="393">meshvocab:identifier (8.5e6) [1] </tspan>
<tspan x="1397" y="408">meshvocab:lastActiveYear (1.3e4) [1] </tspan>
<tspan x="1397" y="423">meshvocab:lexicalTag (8.5e6) [1] D</tspan>
<tspan x="1397" y="438">meshvocab:prefLabel (8.5e6) [1] D</tspan>
<tspan x="1397" y="453">meshvocab:sortVersion (4.3e4) [1] D</tspan>
<tspan x="1397" y="468">meshvocab:thesaurusID (9.0e6) [*] D</tspan>
<tspan x="1397" y="483">rdf:type (8.5e6) [*]  -&gt;  owl:Class</tspan>
</text>
</g>
<g id="2002686297"><polygon points="204,655 504,655 504,886 204,886 "
style="fill:#F4D03F; stroke-width:1;stroke:Black;"/>
<text style="font-family:Arial;font-size:12px;kerning:0;word-spacing:-1px;fill:Black;font-weight:bold;">
<tspan x="280" y="670">meshvocab:Qualifier (864)</tspan>
</text>
<line x1="208" y1="673" x2="502" y2="673"
 style="stroke-width:1;stroke:Black;"/>
<text style="font-family:Arial;font-size:12px;kerning:0;word-spacing:-1px;fill:Black;">
<tspan x="208" y="685">meshvocab:active (84) [1] </tspan>
<tspan x="208" y="700">meshvocab:annotation (864) [1] </tspan>
<tspan x="208" y="715">meshvocab:dateCreated (864) [1] </tspan>
<tspan x="208" y="730">meshvocab:dateEstablished (864) [1] </tspan>
<tspan x="208" y="745">meshvocab:dateRevised (864) [1] </tspan>
<tspan x="208" y="760">meshvocab:historyNote (864) [1] </tspan>
<tspan x="208" y="775">meshvocab:identifier (864) [1] </tspan>
<tspan x="208" y="790">meshvocab:lastActiveYear (8) [1] </tspan>
<tspan x="208" y="805">meshvocab:onlineNote (844) [1] </tspan>
<tspan x="208" y="820">rdf:type (864) [*]  -&gt;  owl:Class</tspan>
<tspan x="208" y="835">rdfs:label (864) [*] </tspan>
</text>
</g>
<g id="2002686143"><polygon points="671,394 971,394 971,563 671,563 "
style="fill:#F4D03F; stroke-width:1;stroke:Black;"/>
<text style="font-family:Arial;font-size:12px;kerning:0;word-spacing:-1px;fill:Black;font-weight:bold;">
<tspan x="741" y="409">meshvocab:Concept (4.6e6)</tspan>
</text>
<line x1="675" y1="412" x2="969" y2="412"
 style="stroke-width:1;stroke:Black;"/>
<text style="font-family:Arial;font-size:12px;kerning:0;word-spacing:-1px;fill:Black;">
<tspan x="675" y="424">meshvocab:active (4.7e5) [1] </tspan>
<tspan x="675" y="439">meshvocab:casn1_label (2.5e5) [1] D</tspan>
<tspan x="675" y="454">meshvocab:identifier (4.6e6) [1] </tspan>
<tspan x="675" y="469">meshvocab:lastActiveYear (4454) [1] </tspan>
<tspan x="675" y="484">meshvocab:registryNumber (3.7e6) [1] D</tspan>
<tspan x="675" y="499">meshvocab:relatedRegistryNumber (4.4e5) [*] D</tspan>
<tspan x="675" y="514">meshvocab:scopeNote (3.5e5) [1] D</tspan>
<tspan x="675" y="529">rdf:type (4.6e6) [*]  -&gt;  owl:Class</tspan>
<tspan x="675" y="544">rdfs:label (4.6e6) [*] </tspan>
</text>
</g>
<g id="2002686176"><polygon points="562,7 862,7 862,282 562,282 "
style="fill:#F4D03F; stroke-width:1;stroke:Black;"/>
<polygon points="559,10 859,10 859,285 559,285 "
style="fill:#F4D03F; stroke-width:1;stroke:Black;"/>
<text style="font-family:Arial;font-size:12px;kerning:0;word-spacing:-1px;fill:Black;font-weight:bold;">
<tspan x="571" y="25">meshvocab:SCR_Chemical et al. G104 (~3.1e6)</tspan>
</text>
<line x1="563" y1="28" x2="857" y2="28"
 style="stroke-width:1;stroke:Black;"/>
<text style="font-family:Arial;font-size:12px;kerning:0;word-spacing:-1px;fill:Black;">
<tspan x="563" y="40">meshvocab:active (3.3e5) [1] </tspan>
<tspan x="563" y="55">meshvocab:dateCreated (3.1e6) [1] </tspan>
<tspan x="563" y="70">meshvocab:dateRevised (2.3e6) [1] </tspan>
<tspan x="563" y="85">meshvocab:frequency (3.1e6) [1] </tspan>
<tspan x="563" y="100">meshvocab:identifier (3.1e6) [1] </tspan>
<tspan x="563" y="115">meshvocab:lastActiveYear (3528) [1] </tspan>
<tspan x="563" y="130">meshvocab:note (2.3e6) [1] </tspan>
<tspan x="563" y="145">meshvocab:previousIndexing (5.8e5) [*] </tspan>
<tspan x="563" y="160">meshvocab:source (2.7e6) [*] </tspan>
<tspan x="563" y="175">rdf:type (3.1e6) [*]  -&gt;  owl:Class</tspan>
<tspan x="563" y="190">rdfs:label (3.1e6) [*] </tspan>
</text>
<text style="font-family:Arial;font-size:11px;kerning:0;word-spacing:-1px;fill:Black;font-weight:bold;">
<tspan x="563" y="205">meshvocab:SCR_Anatomy (47)</tspan>
<tspan x="563" y="220">meshvocab:SCR_Chemical (2.7e6)</tspan>
<tspan x="563" y="235">meshvocab:SCR_Disease (7.2e4)</tspan>
<tspan x="563" y="250">meshvocab:SCR_Organism (3.5e5)</tspan>
<tspan x="563" y="265">meshvocab:SCR_Population (5292)</tspan>
<tspan x="563" y="280">meshvocab:SCR_Protocol (1.3e4)</tspan>
</text>
</g>
<g id="2002685903"><path d="M227,563 L75,563 71,561 69,557 69,446 71,442 75,440 260,440 264,442 266,446 266,490 "
style="fill:none;stroke-width:1;stroke:Black;"/>
<line x1="263" y1="484" x2="266" y2="490"
 style="stroke-width:1;stroke:Black;"/>
<line x1="269" y1="484" x2="266" y2="490"
 style="stroke-width:1;stroke:Black;"/>
<text style="font-family:Arial;font-size:12px;kerning:0;word-spacing:-1px;fill:Black;">
<tspan x="79" y="576">meshvocab:useInstead  D</tspan>
</text>
</g>
<g id="2002685908"><path d="M1633,787 L1378,787 1374,785 1372,781 1372,499 1370,495 1366,493 971,493 "
style="fill:none;stroke-width:1;stroke:Black;"/>
<line x1="977" y1="490" x2="971" y2="493"
 style="stroke-width:1;stroke:Black;"/>
<line x1="977" y1="496" x2="971" y2="493"
 style="stroke-width:1;stroke:Black;"/>
<text style="font-family:Arial;font-size:12px;kerning:0;word-spacing:-1px;fill:Black;">
<tspan x="1451" y="800">meshvocab:preferredConcept  R</tspan>
<tspan x="1451" y="815">meshvocab:concept  R</tspan>
</text>
</g>
<g id="2002685913"><path d="M893,778 L706,778 702,776 700,772 700,563 "
style="fill:none;stroke-width:1;stroke:Black;"/>
<line x1="697" y1="569" x2="700" y2="563"
 style="stroke-width:1;stroke:Black;"/>
<line x1="703" y1="569" x2="700" y2="563"
 style="stroke-width:1;stroke:Black;"/>
<text style="font-family:Arial;font-size:12px;kerning:0;word-spacing:-1px;fill:Black;">
<tspan x="711" y="791">meshvocab:preferredConcept  R</tspan>
<tspan x="711" y="806">meshvocab:concept  R</tspan>
</text>
</g>
<g id="2002685918"><path d="M504,718 L1393,718 1397,716 1399,712 1399,516 "
style="fill:none;stroke-width:1;stroke:Black;"/>
<line x1="1396" y1="522" x2="1399" y2="516"
 style="stroke-width:1;stroke:Black;"/>
<line x1="1402" y1="522" x2="1399" y2="516"
 style="stroke-width:1;stroke:Black;"/>
<text style="font-family:Arial;font-size:12px;kerning:0;word-spacing:-1px;fill:Black;">
<tspan x="508" y="716">meshvocab:preferredTerm  R</tspan>
</text>
</g>
<g id="2002685923"><path d="M1633,871 L1404,871 1400,873 1398,877 1398,994 "
style="fill:none;stroke-width:1;stroke:Black;"/>
<line x1="1395" y1="988" x2="1398" y2="994"
 style="stroke-width:1;stroke:Black;"/>
<line x1="1401" y1="988" x2="1398" y2="994"
 style="stroke-width:1;stroke:Black;"/>
<text style="font-family:Arial;font-size:12px;kerning:0;word-spacing:-1px;fill:Black;">
<tspan x="1481" y="884">meshvocab:treeNumber  R</tspan>
</text>
</g>
<g id="2002685933"><path d="M1633,673 L1429,673 1425,671 1423,667 1423,643 1425,639 1429,637 1774,637 1774,643 "
style="fill:none;stroke-width:1;stroke:Black;"/>
<line x1="1771" y1="637" x2="1774" y2="643"
 style="stroke-width:1;stroke:Black;"/>
<line x1="1777" y1="637" x2="1774" y2="643"
 style="stroke-width:1;stroke:Black;"/>
<text style="font-family:Arial;font-size:12px;kerning:0;word-spacing:-1px;fill:Black;">
<tspan x="1431" y="686">meshvocab:broaderDescriptor  </tspan>
<tspan x="1431" y="701">meshvocab:pharmacologicalAction  </tspan>
<tspan x="1431" y="716">R</tspan>
<tspan x="1431" y="731">meshvocab:seeAlso  </tspan>
</text>
</g>
<g id="2002685938"><path d="M2286,128 L2112,128 "
style="fill:none;stroke-width:1;stroke:Black;"/>
<line x1="2118" y1="125" x2="2112" y2="128"
 style="stroke-width:1;stroke:Black;"/>
<line x1="2118" y1="131" x2="2112" y2="128"
 style="stroke-width:1;stroke:Black;"/>
<text style="font-family:Arial;font-size:12px;kerning:0;word-spacing:-1px;fill:Black;">
<tspan x="2220" y="141">rdfs:range  </tspan>
</text>
</g>
<g id="2002685943"><path d="M1193,923 L1347,923 1351,925 1353,929 1353,994 "
style="fill:none;stroke-width:1;stroke:Black;"/>
<line x1="1350" y1="988" x2="1353" y2="994"
 style="stroke-width:1;stroke:Black;"/>
<line x1="1356" y1="988" x2="1353" y2="994"
 style="stroke-width:1;stroke:Black;"/>
<text style="font-family:Arial;font-size:12px;kerning:0;word-spacing:-1px;fill:Black;">
<tspan x="1197" y="921">meshvocab:treeNumber  R</tspan>
</text>
</g>
<g id="2002685958"><path d="M1514,206 L1681,206 1685,208 1687,212 1687,288 "
style="fill:none;stroke-width:1;stroke:Black;"/>
<line x1="1684" y1="282" x2="1687" y2="288"
 style="stroke-width:1;stroke:Black;"/>
<line x1="1690" y1="282" x2="1687" y2="288"
 style="stroke-width:1;stroke:Black;"/>
<text style="font-family:Arial;font-size:12px;kerning:0;word-spacing:-1px;fill:Black;">
<tspan x="1518" y="204">meshvocab:preferredTerm  R</tspan>
</text>
</g>
<g id="2002685963"><path d="M645,285 L645,382 647,386 651,388 1372,388 1376,390 1378,394 1378,775 1380,779 1384,781 1633,781 "
style="fill:none;stroke-width:1;stroke:Black;"/>
<line x1="1627" y1="778" x2="1633" y2="781"
 style="stroke-width:1;stroke:Black;"/>
<line x1="1627" y1="784" x2="1633" y2="781"
 style="stroke-width:1;stroke:Black;"/>
<text style="font-family:Arial;font-size:12px;kerning:0;word-spacing:-1px;fill:Black;">
<tspan x="647" y="300">meshvocab:preferredMappedTo  </tspan>
<tspan x="647" y="315">meshvocab:indexerConsiderAlso  </tspan>
<tspan x="647" y="330">meshvocab:pharmacologicalAction  </tspan>
<tspan x="647" y="345">R</tspan>
<tspan x="647" y="360">meshvocab:mappedTo  </tspan>
</text>
</g>
<g id="2002685968"><path d="M2091,763 L1933,763 "
style="fill:none;stroke-width:1;stroke:Black;"/>
<line x1="1939" y1="760" x2="1933" y2="763"
 style="stroke-width:1;stroke:Black;"/>
<line x1="1939" y1="766" x2="1933" y2="763"
 style="stroke-width:1;stroke:Black;"/>
<text style="font-family:Arial;font-size:12px;kerning:0;word-spacing:-1px;fill:Black;">
<tspan x="1937" y="776">void:exampleResource  DR</tspan>
</text>
</g>
<g id="2002685973"><path d="M1633,760 L1417,760 1413,758 1411,754 1411,730 1409,726 1405,724 504,724 "
style="fill:none;stroke-width:1;stroke:Black;"/>
<line x1="510" y1="721" x2="504" y2="724"
 style="stroke-width:1;stroke:Black;"/>
<line x1="510" y1="727" x2="504" y2="724"
 style="stroke-width:1;stroke:Black;"/>
<text style="font-family:Arial;font-size:12px;kerning:0;word-spacing:-1px;fill:Black;">
<tspan x="1448" y="773">meshvocab:allowableQualifier  R</tspan>
</text>
</g>
<g id="2002685993"><path d="M971,437 L1393,437 "
style="fill:none;stroke-width:1;stroke:Black;"/>
<line x1="1387" y1="434" x2="1393" y2="437"
 style="stroke-width:1;stroke:Black;"/>
<line x1="1387" y1="440" x2="1393" y2="437"
 style="stroke-width:1;stroke:Black;"/>
<text style="font-family:Arial;font-size:12px;kerning:0;word-spacing:-1px;fill:Black;">
<tspan x="975" y="420">meshvocab:preferredTerm  R</tspan>
<tspan x="975" y="435">meshvocab:term  DR</tspan>
</text>
</g>
<g id="2002685998"><path d="M2286,152 L2087,152 2083,154 2081,158 2081,237 "
style="fill:none;stroke-width:1;stroke:Black;"/>
<line x1="2078" y1="231" x2="2081" y2="237"
 style="stroke-width:1;stroke:Black;"/>
<line x1="2084" y1="231" x2="2081" y2="237"
 style="stroke-width:1;stroke:Black;"/>
<text style="font-family:Arial;font-size:12px;kerning:0;word-spacing:-1px;fill:Black;">
<tspan x="2174" y="165">rdfs:subPropertyOf  </tspan>
</text>
</g>
<g id="2002686003"><path d="M2199,237 L2199,190 2201,186 2205,184 2286,184 "
style="fill:none;stroke-width:1;stroke:Black;"/>
<line x1="2280" y1="181" x2="2286" y2="184"
 style="stroke-width:1;stroke:Black;"/>
<line x1="2280" y1="187" x2="2286" y2="184"
 style="stroke-width:1;stroke:Black;"/>
<text style="font-family:Arial;font-size:12px;kerning:0;word-spacing:-1px;fill:Black;">
<tspan x="2089" y="233">rdfs:subPropertyOf  </tspan>
</text>
</g>
<g id="2002686008"><path d="M1193,865 L1633,865 "
style="fill:none;stroke-width:1;stroke:Black;"/>
<line x1="1627" y1="862" x2="1633" y2="865"
 style="stroke-width:1;stroke:Black;"/>
<line x1="1627" y1="868" x2="1633" y2="865"
 style="stroke-width:1;stroke:Black;"/>
<text style="font-family:Arial;font-size:12px;kerning:0;word-spacing:-1px;fill:Black;">
<tspan x="1197" y="848">meshvocab:broaderDescriptor  </tspan>
<tspan x="1197" y="863">meshvocab:seeAlso  </tspan>
</text>
</g>
<g id="2002686013"><path d="M527,599 L1360,599 1364,601 1366,605 1366,817 1368,821 1372,823 1633,823 "
style="fill:none;stroke-width:1;stroke:Black;"/>
<line x1="1627" y1="820" x2="1633" y2="823"
 style="stroke-width:1;stroke:Black;"/>
<line x1="1627" y1="826" x2="1633" y2="823"
 style="stroke-width:1;stroke:Black;"/>
<text style="font-family:Arial;font-size:12px;kerning:0;word-spacing:-1px;fill:Black;">
<tspan x="531" y="582">meshvocab:hasDescriptor  </tspan>
<tspan x="531" y="597">meshvocab:useInstead  D</tspan>
</text>
</g>
<g id="2002686018"><path d="M2391,760 L2532,760 "
style="fill:none;stroke-width:1;stroke:Black;"/>
<line x1="2526" y1="757" x2="2532" y2="760"
 style="stroke-width:1;stroke:Black;"/>
<line x1="2526" y1="763" x2="2532" y2="760"
 style="stroke-width:1;stroke:Black;"/>
<text style="font-family:Arial;font-size:12px;kerning:0;word-spacing:-1px;fill:Black;">
<tspan x="2395" y="758">void:sparqlEndpoint  DR</tspan>
</text>
</g>
<g id="2002686023"><path d="M527,641 L682,641 686,643 688,647 688,655 686,659 682,661 504,661 "
style="fill:none;stroke-width:1;stroke:Black;"/>
<line x1="510" y1="658" x2="504" y2="661"
 style="stroke-width:1;stroke:Black;"/>
<line x1="510" y1="664" x2="504" y2="661"
 style="stroke-width:1;stroke:Black;"/>
<text style="font-family:Arial;font-size:12px;kerning:0;word-spacing:-1px;fill:Black;">
<tspan x="531" y="639">meshvocab:hasQualifier  R</tspan>
</text>
</g>
<g id="2002686028"><path d="M893,742 L712,742 708,740 706,736 706,736 708,732 712,730 993,730 993,736 "
style="fill:none;stroke-width:1;stroke:Black;"/>
<line x1="990" y1="730" x2="993" y2="736"
 style="stroke-width:1;stroke:Black;"/>
<line x1="996" y1="730" x2="993" y2="736"
 style="stroke-width:1;stroke:Black;"/>
<text style="font-family:Arial;font-size:12px;kerning:0;word-spacing:-1px;fill:Black;">
<tspan x="716" y="755">meshvocab:broaderDescriptor  </tspan>
<tspan x="716" y="770">meshvocab:seeAlso  </tspan>
</text>
</g>
<g id="2002686033"><path d="M504,835 L658,835 662,837 664,841 664,1037 666,1041 670,1043 1215,1043 "
style="fill:none;stroke-width:1;stroke:Black;"/>
<line x1="1209" y1="1040" x2="1215" y2="1043"
 style="stroke-width:1;stroke:Black;"/>
<line x1="1209" y1="1046" x2="1215" y2="1043"
 style="stroke-width:1;stroke:Black;"/>
<text style="font-family:Arial;font-size:12px;kerning:0;word-spacing:-1px;fill:Black;">
<tspan x="508" y="833">meshvocab:treeNumber  R</tspan>
</text>
</g>
<g id="2002686038"><path d="M1193,773 L1399,773 1403,771 1405,767 1405,516 "
style="fill:none;stroke-width:1;stroke:Black;"/>
<line x1="1402" y1="522" x2="1405" y2="516"
 style="stroke-width:1;stroke:Black;"/>
<line x1="1408" y1="522" x2="1405" y2="516"
 style="stroke-width:1;stroke:Black;"/>
<text style="font-family:Arial;font-size:12px;kerning:0;word-spacing:-1px;fill:Black;">
<tspan x="1197" y="771">meshvocab:preferredTerm  R</tspan>
</text>
</g>
<g id="2002686043"><path d="M1214,206 L1030,206 1026,208 1024,212 1024,395 1022,399 1018,401 971,401 "
style="fill:none;stroke-width:1;stroke:Black;"/>
<line x1="977" y1="398" x2="971" y2="401"
 style="stroke-width:1;stroke:Black;"/>
<line x1="977" y1="404" x2="971" y2="401"
 style="stroke-width:1;stroke:Black;"/>
<text style="font-family:Arial;font-size:12px;kerning:0;word-spacing:-1px;fill:Black;">
<tspan x="1032" y="219">meshvocab:preferredConcept  R</tspan>
</text>
</g>
<g id="2002686048"><path d="M504,697 L688,697 692,695 694,691 694,563 "
style="fill:none;stroke-width:1;stroke:Black;"/>
<line x1="691" y1="569" x2="694" y2="563"
 style="stroke-width:1;stroke:Black;"/>
<line x1="697" y1="569" x2="694" y2="563"
 style="stroke-width:1;stroke:Black;"/>
<text style="font-family:Arial;font-size:12px;kerning:0;word-spacing:-1px;fill:Black;">
<tspan x="508" y="680">meshvocab:preferredConcept  R</tspan>
<tspan x="508" y="695">meshvocab:concept  R</tspan>
</text>
</g>
<g id="2002686053"><path d="M1633,739 L1423,739 1419,737 1417,733 1417,516 "
style="fill:none;stroke-width:1;stroke:Black;"/>
<line x1="1414" y1="522" x2="1417" y2="516"
 style="stroke-width:1;stroke:Black;"/>
<line x1="1420" y1="522" x2="1417" y2="516"
 style="stroke-width:1;stroke:Black;"/>
<text style="font-family:Arial;font-size:12px;kerning:0;word-spacing:-1px;fill:Black;">
<tspan x="1468" y="752">meshvocab:preferredTerm  R</tspan>
</text>
</g>
<g id="2002686058"><path d="M1633,829 L1193,829 "
style="fill:none;stroke-width:1;stroke:Black;"/>
<line x1="1199" y1="826" x2="1193" y2="829"
 style="stroke-width:1;stroke:Black;"/>
<line x1="1199" y1="832" x2="1193" y2="829"
 style="stroke-width:1;stroke:Black;"/>
<text style="font-family:Arial;font-size:12px;kerning:0;word-spacing:-1px;fill:Black;">
<tspan x="1456" y="842">meshvocab:broaderDescriptor  </tspan>
<tspan x="1456" y="857">meshvocab:seeAlso  </tspan>
</text>
</g>
<g id="2002686063"><path d="M671,414 L323,414 319,412 317,408 317,406 319,402 323,400 671,400 "
style="fill:none;stroke-width:1;stroke:Black;"/>
<line x1="665" y1="397" x2="671" y2="400"
 style="stroke-width:1;stroke:Black;"/>
<line x1="665" y1="403" x2="671" y2="400"
 style="stroke-width:1;stroke:Black;"/>
<text style="font-family:Arial;font-size:12px;kerning:0;word-spacing:-1px;fill:Black;">
<tspan x="481" y="427">meshvocab:narrowerConcept  DR</tspan>
<tspan x="481" y="442">meshvocab:broaderConcept  DR</tspan>
<tspan x="481" y="457">meshvocab:relatedConcept  DR</tspan>
<tspan x="481" y="472">meshvocab:Concept  DR</tspan>
</text>
</g>
<g id="2002686073"><path d="M893,814 L504,814 "
style="fill:none;stroke-width:1;stroke:Black;"/>
<line x1="510" y1="811" x2="504" y2="814"
 style="stroke-width:1;stroke:Black;"/>
<line x1="510" y1="817" x2="504" y2="814"
 style="stroke-width:1;stroke:Black;"/>
<text style="font-family:Arial;font-size:12px;kerning:0;word-spacing:-1px;fill:Black;">
<tspan x="708" y="827">meshvocab:allowableQualifier  R</tspan>
</text>
</g>
<g id="2002686083"><path d="M853,285 L853,302 855,306 859,308 1393,308 "
style="fill:none;stroke-width:1;stroke:Black;"/>
<line x1="1387" y1="305" x2="1393" y2="308"
 style="stroke-width:1;stroke:Black;"/>
<line x1="1387" y1="311" x2="1393" y2="308"
 style="stroke-width:1;stroke:Black;"/>
<text style="font-family:Arial;font-size:12px;kerning:0;word-spacing:-1px;fill:Black;">
<tspan x="855" y="300">meshvocab:preferredTerm  R</tspan>
</text>
</g>
<g id="2002686088"><path d="M559,200 L311,200 307,202 305,206 305,490 "
style="fill:none;stroke-width:1;stroke:Black;"/>
<line x1="302" y1="484" x2="305" y2="490"
 style="stroke-width:1;stroke:Black;"/>
<line x1="308" y1="484" x2="305" y2="490"
 style="stroke-width:1;stroke:Black;"/>
<text style="font-family:Arial;font-size:12px;kerning:0;word-spacing:-1px;fill:Black;">
<tspan x="367" y="213">meshvocab:preferredMappedTo  </tspan>
<tspan x="367" y="228">meshvocab:indexerConsiderAlso  </tspan>
<tspan x="367" y="243">meshvocab:mappedTo  </tspan>
</text>
</g>
<g id="2002686093"><path d="M559,253 L317,253 313,255 311,259 311,474 313,478 317,480 671,480 "
style="fill:none;stroke-width:1;stroke:Black;"/>
<line x1="665" y1="477" x2="671" y2="480"
 style="stroke-width:1;stroke:Black;"/>
<line x1="665" y1="483" x2="671" y2="480"
 style="stroke-width:1;stroke:Black;"/>
<text style="font-family:Arial;font-size:12px;kerning:0;word-spacing:-1px;fill:Black;">
<tspan x="377" y="266">meshvocab:preferredConcept  R</tspan>
<tspan x="377" y="281">meshvocab:concept  R</tspan>
</text>
</g>
<g id="2002686103"><path d="M527,620 L1087,620 1091,622 1093,626 1093,736 "
style="fill:none;stroke-width:1;stroke:Black;"/>
<line x1="1090" y1="730" x2="1093" y2="736"
 style="stroke-width:1;stroke:Black;"/>
<line x1="1096" y1="730" x2="1093" y2="736"
 style="stroke-width:1;stroke:Black;"/>
<text style="font-family:Arial;font-size:12px;kerning:0;word-spacing:-1px;fill:Black;">
<tspan x="531" y="618">meshvocab:hasDescriptor  </tspan>
</text>
</g>
<g id="2002686108"><path d="M2023,317 L2023,336 "
style="fill:none;stroke-width:2;stroke:Fuchsia;"/>
<polygon points="2028,327 2023,317 2018,327 "
style="fill:Silver;stroke-width:1;stroke:Black;"/>
<text style="font-family:Arial;font-size:12px;kerning:0;word-spacing:-1px;fill:Black;">
<tspan x="2025" y="332"> </tspan>
</text>
</g>
<g id="2002685978"><path d="M2193,928 L2193,1000 "
style="fill:none;stroke-width:1;stroke:Black;"/>
<line x1="2190" y1="994" x2="2193" y2="1000"
 style="stroke-width:1;stroke:Black;"/>
<line x1="2196" y1="994" x2="2193" y2="1000"
 style="stroke-width:1;stroke:Black;"/>
<text style="font-family:Arial;font-size:12px;kerning:0;word-spacing:-1px;fill:Black;">
<tspan x="2195" y="943">void:vocabulary  D</tspan>
</text>
</g>
<g id="2002686078"><path d="M2219,540 L2219,635 "
style="fill:none;stroke-width:1;stroke:Black;"/>
<line x1="2216" y1="629" x2="2219" y2="635"
 style="stroke-width:1;stroke:Black;"/>
<line x1="2222" y1="629" x2="2219" y2="635"
 style="stroke-width:1;stroke:Black;"/>
<text style="font-family:Arial;font-size:12px;kerning:0;word-spacing:-1px;fill:Black;">
<tspan x="2221" y="555">foaf:primaryTopic  DR</tspan>
</text>
</g>
<g id="2002686068"><path d="M2578,699 L2578,646 2580,642 2584,640 2773,640 2777,642 2779,646 2779,699 "
style="fill:none;stroke-width:1;stroke:Black;"/>
<line x1="2776" y1="693" x2="2779" y2="699"
 style="stroke-width:1;stroke:Black;"/>
<line x1="2782" y1="693" x2="2779" y2="699"
 style="stroke-width:1;stroke:Black;"/>
<text style="font-family:Arial;font-size:12px;kerning:0;word-spacing:-1px;fill:Black;">
<tspan x="2487" y="680">sd:endpoint  DR</tspan>
<tspan x="2487" y="695">sd:url  DR</tspan>
</text>
</g>
<g id="2002685988"><path d="M1905,300 L1760,300 1756,298 1754,294 1754,253 1756,249 1760,247 1905,247 "
style="fill:none;stroke-width:1;stroke:Black;"/>
<line x1="1899" y1="244" x2="1905" y2="247"
 style="stroke-width:1;stroke:Black;"/>
<line x1="1899" y1="250" x2="1905" y2="247"
 style="stroke-width:1;stroke:Black;"/>
<text style="font-family:Arial;font-size:12px;kerning:0;word-spacing:-1px;fill:Black;">
<tspan x="1793" y="313">rdfs:subPropertyOf  </tspan>
</text>
</g>
<g id="2002685983"><path d="M2021,237 L2021,134 "
style="fill:none;stroke-width:1;stroke:Black;"/>
<line x1="2018" y1="140" x2="2021" y2="134"
 style="stroke-width:1;stroke:Black;"/>
<line x1="2024" y1="140" x2="2021" y2="134"
 style="stroke-width:1;stroke:Black;"/>
<text style="font-family:Arial;font-size:12px;kerning:0;word-spacing:-1px;fill:Black;">
<tspan x="1929" y="218">rdfs:range  </tspan>
<tspan x="1929" y="233">rdfs:domain  DR</tspan>
</text>
</g>
<g id="2002685948"><path d="M2338,86 L2338,28 2340,24 2344,22 2534,22 2538,24 2540,28 2540,86 "
style="fill:none;stroke-width:1;stroke:Black;"/>
<line x1="2537" y1="80" x2="2540" y2="86"
 style="stroke-width:1;stroke:Black;"/>
<line x1="2543" y1="80" x2="2540" y2="86"
 style="stroke-width:1;stroke:Black;"/>
<text style="font-family:Arial;font-size:12px;kerning:0;word-spacing:-1px;fill:Black;">
<tspan x="2180" y="67">owl:propertyDisjointWith  DR</tspan>
<tspan x="2180" y="82">rdfs:subPropertyOf  </tspan>
</text>
</g>
<g id="2002686098"><path d="M1812,87 L1696,87 1692,85 1690,81 1690,50 1692,46 1696,44 1812,44 "
style="fill:none;stroke-width:1;stroke:Black;"/>
<line x1="1806" y1="41" x2="1812" y2="44"
 style="stroke-width:1;stroke:Black;"/>
<line x1="1806" y1="47" x2="1812" y2="44"
 style="stroke-width:1;stroke:Black;"/>
<text style="font-family:Arial;font-size:12px;kerning:0;word-spacing:-1px;fill:Black;">
<tspan x="1698" y="100">owl:disjointWith  DR</tspan>
<tspan x="1698" y="115">rdfs:subClassOf  </tspan>
</text>
</g>
<g id="2002685953"><path d="M1260,1074 L1260,1140 1262,1144 1266,1146 1460,1146 1464,1144 1466,1140 1466,1074 "
style="fill:none;stroke-width:1;stroke:Black;"/>
<line x1="1463" y1="1080" x2="1466" y2="1074"
 style="stroke-width:1;stroke:Black;"/>
<line x1="1469" y1="1080" x2="1466" y2="1074"
 style="stroke-width:1;stroke:Black;"/>
<text style="font-family:Arial;font-size:12px;kerning:0;word-spacing:-1px;fill:Black;">
<tspan x="1262" y="1089">meshvocab:parentTreeNumber  DR</tspan>
</text>
</g>
<g id="2002685928"><path d="M204,768 L16,768 12,766 10,762 10,707 12,703 16,701 204,701 "
style="fill:none;stroke-width:1;stroke:Black;"/>
<line x1="198" y1="698" x2="204" y2="701"
 style="stroke-width:1;stroke:Black;"/>
<line x1="198" y1="704" x2="204" y2="701"
 style="stroke-width:1;stroke:Black;"/>
<text style="font-family:Arial;font-size:12px;kerning:0;word-spacing:-1px;fill:Black;">
<tspan x="20" y="781">meshvocab:broaderQualifier  DR</tspan>
</text>
</g>
</svg>
