<?xml version="1.0" encoding="UTF-8" standalone="no"?>
<!DOCTYPE svg PUBLIC "-//W3C//DTD SVG 1.1//EN"
"http://www.w3.org/Graphics/SVG/1.1/DTD/svg11.dtd">
<svg version="1.1" xmlns="http://www.w3.org/2000/svg"
xmlns:xlink="http://www.w3.org/1999/xlink" xml:space="preserve"
 width="1575" height="1075" viewBox="0 0 1575 1075">
 onmousemove="movetip(evt)" onmouseup="endmove()">
<rect x="0" y="0" width="100%" height="100%" style="fill:White;"/>
<script type="application/ecmascript"> <![CDATA[
var dragtipid = null; var dragcase = false; function init(evt){
if (window.svgDocument==null) svgDocument = evt.target.ownerDocument;
}
function movetip(evt){if (dragtipid!=null){ dragcase = true;
var tip=svgDocument.getElementById(dragtipid);
tip.setAttributeNS(null,"x",evt.clientX-2);
tip.setAttributeNS(null,"y",evt.clientY-2);
}}
function endmove(){dragtipid = null;}
function startmove(evt,id){dragtipid = id; dragcase = false;
var tip=svgDocument.getElementById(dragtipid);
tip.setAttributeNS(null,"x",evt.clientX-2);
tip.setAttributeNS(null,"y",evt.clientY-2);
}
function Showtip(evt,id){ dragtipid = null;
var tip=svgDocument.getElementById(id);
var vis=tip.getAttributeNS(null,"visibility");
if (vis=="hidden"){
tip.setAttributeNS(null,"x",evt.clientX-2);
tip.setAttributeNS(null,"y",evt.clientY-2);
tip.setAttributeNS(null,"visibility","visible");
}}
function Hidetip(id){ dragtipid = null; if (dragcase==false){
var tip=svgDocument.getElementById(id);
tip.setAttributeNS(null,"visibility","hidden");
}}
]]></script>
<defs><linearGradient id="activ1" x1="0%" y1="0%" x2="100%" y2="0%">
<stop offset="0%" style="stop-color:#FFFF00;stop-opacity:1"/>
<stop offset="100%" style="stop-color:#FFFFF0;stop-opacity:1"/>
</linearGradient></defs>
<g id="2002684850"><polygon points="1265,532 1565,532 1565,687 1265,687 "
style="fill:#F4D03F; stroke-width:1;stroke:Black;"/>
<text style="font-family:Arial;font-size:12px;kerning:0;word-spacing:-1px;fill:Black;font-weight:bold;">
<tspan x="1375" y="547">owl:Class (17)</tspan>
</text>
<line x1="1269" y1="550" x2="1563" y2="550"
 style="stroke-width:1;stroke:Black;"/>
<text style="font-family:Arial;font-size:12px;kerning:0;word-spacing:-1px;fill:Black;">
<tspan x="1269" y="562">owl:unionOf (3) [1] D -&gt; IRI</tspan>
<tspan x="1269" y="577">rdf:type (31) [*]  -&gt;  owl:Class</tspan>
<tspan x="1269" y="592">rdfs:comment (18) [*] </tspan>
<tspan x="1269" y="607">rdfs:label (27) [*] </tspan>
<tspan x="1269" y="622">skos:definition (5) [*] </tspan>
<tspan x="1269" y="637">skos:example (1) [1] </tspan>
<tspan x="1269" y="652">skos:scopeNote (3) [1] </tspan>
<tspan x="1269" y="667">&lt;-rdf:type (3.1e4)  &lt;-  entice-core:MedicalTerm,skos:</tspan>
<tspan x="1269" y="682">ConceptScheme..(13)</tspan>
</text>
</g>
<g id="2002684861"><polygon points="451,986 751,986 751,1036 451,1036 "
style="fill:#F4D03F; stroke-width:1;stroke:Black;"/>
<text style="font-family:Arial;font-size:12px;kerning:0;word-spacing:-1px;fill:Black;font-weight:bold;">
<tspan x="562" y="1001">sd:Service (1)</tspan>
</text>
<line x1="455" y1="1004" x2="749" y2="1004"
 style="stroke-width:1;stroke:Black;"/>
<text style="font-family:Arial;font-size:12px;kerning:0;word-spacing:-1px;fill:Black;">
<tspan x="455" y="1016">rdf:type (1) [*]  -&gt;  owl:Class</tspan>
<tspan x="455" y="1031">sd:resultFormat (8) [*] D -&gt; IRI</tspan>
</text>
</g>
<g id="2002684872"><polygon points="1126,475 1426,475 1426,520 1126,520 "
style="fill:#F4D03F; stroke-width:1;stroke:Black;"/>
<text style="font-family:Arial;font-size:12px;kerning:0;word-spacing:-1px;fill:Black;font-weight:bold;">
<tspan x="1181" y="490">owl:InverseFunctionalProperty (2)</tspan>
</text>
</g>
<g id="2002684883"><polygon points="698,543 998,543 998,588 698,588 "
style="fill:#F4D03F; stroke-width:1;stroke:Black;"/>
<text style="font-family:Arial;font-size:12px;kerning:0;word-spacing:-1px;fill:Black;font-weight:bold;">
<tspan x="772" y="558">owl:SymmetricProperty (4)</tspan>
</text>
</g>
<g id="2002684894"><polygon points="546,613 846,613 846,948 546,948 "
style="fill:#F4D03F; stroke-width:1;stroke:Black;"/>
<text style="font-family:Arial;font-size:12px;kerning:0;word-spacing:-1px;fill:Black;font-weight:bold;">
<tspan x="650" y="628">owl:Ontology (6)</tspan>
</text>
<line x1="550" y1="631" x2="844" y2="631"
 style="stroke-width:1;stroke:Black;"/>
<text style="font-family:Arial;font-size:12px;kerning:0;word-spacing:-1px;fill:Black;">
<tspan x="550" y="643">data-view:namespaceTransformation (2) [1] D -&gt; IRI</tspan>
<tspan x="550" y="658">dc:date (1) [1] D</tspan>
<tspan x="550" y="673">dc:description (1) [1] D</tspan>
<tspan x="550" y="688">dc:title (4) [1] D</tspan>
<tspan x="550" y="703">dct:contributor (3) [*] D</tspan>
<tspan x="550" y="718">dct:created (1) [1] </tspan>
<tspan x="550" y="733">dct:creator (2) [*] D</tspan>
<tspan x="550" y="748">dct:description (2) [1] D</tspan>
<tspan x="550" y="763">dct:issued (1) [1] D</tspan>
<tspan x="550" y="778">dct:license (1) [1] D -&gt; IRI</tspan>
<tspan x="550" y="793">dct:modified (1) [1] </tspan>
<tspan x="550" y="808">dct:title (2) [1] D</tspan>
<tspan x="550" y="823">owl:imports (4) [1] D -&gt; IRI</tspan>
<tspan x="550" y="838">owl:priorVersion (2) [1] D -&gt; IRI</tspan>
<tspan x="550" y="853">owl:versionInfo (5) [*] D</tspan>
<tspan x="550" y="868">rdf:type (8) [*]  -&gt;  owl:Class</tspan>
<tspan x="550" y="883">rdfs:comment (4) [*] </tspan>
<tspan x="550" y="898">rdfs:label (1) [*] </tspan>
<tspan x="550" y="913">rdfs:seeAlso (6) [*]  -&gt; IRI</tspan>
<tspan x="550" y="928">vann:preferredNamespacePrefix (1) [1] D</tspan>
<tspan x="550" y="943">vann:preferredNamespaceUri (1) [1] D -&gt; IRI</tspan>
</text>
</g>
<g id="2002684905"><polygon points="748,262 1048,262 1048,307 748,307 "
style="fill:#F4D03F; stroke-width:1;stroke:Black;"/>
<text style="font-family:Arial;font-size:12px;kerning:0;word-spacing:-1px;fill:Black;font-weight:bold;">
<tspan x="796" y="277">entice-core:ExperientialFeature (70)</tspan>
</text>
</g>
<g id="2002684916"><polygon points="915,967 1215,967 1215,1062 915,1062 "
style="fill:#F4D03F; stroke-width:1;stroke:Black;"/>
<polygon points="912,970 1212,970 1212,1065 912,1065 "
style="fill:#F4D03F; stroke-width:1;stroke:Black;"/>
<text style="font-family:Arial;font-size:12px;kerning:0;word-spacing:-1px;fill:Black;font-weight:bold;">
<tspan x="954" y="985">sd:Feature or sd:Language G103 (~8)</tspan>
</text>
<line x1="916" y1="988" x2="1210" y2="988"
 style="stroke-width:1;stroke:Black;"/>
<text style="font-family:Arial;font-size:12px;kerning:0;word-spacing:-1px;fill:Black;">
<tspan x="916" y="1000">rdf:type (8) [*]  -&gt;  owl:Class</tspan>
<tspan x="916" y="1015">rdfs:comment (8) [*] </tspan>
<tspan x="916" y="1030">rdfs:label (8) [*] </tspan>
</text>
<text style="font-family:Arial;font-size:11px;kerning:0;word-spacing:-1px;fill:Black;font-weight:bold;">
<tspan x="916" y="1045">sd:Feature (5)</tspan>
<tspan x="916" y="1060">sd:Language (3)</tspan>
</text>
</g>
<g id="2002684927"><polygon points="687,16 987,16 987,197 687,197 "
style="fill:#F4D03F; stroke-width:1;stroke:Black;"/>
<text style="font-family:Arial;font-size:12px;kerning:0;word-spacing:-1px;fill:Black;font-weight:bold;">
<tspan x="778" y="31">skos:Concept (3662)</tspan>
</text>
<line x1="691" y1="34" x2="985" y2="34"
 style="stroke-width:1;stroke:Black;"/>
<text style="font-family:Arial;font-size:12px;kerning:0;word-spacing:-1px;fill:Black;">
<tspan x="691" y="46">rdf:type (2.0e4) [*]  -&gt;  owl:Class</tspan>
<tspan x="691" y="61">skos:notation (6476) [1] </tspan>
<tspan x="691" y="76">skos:note (2934) [*] </tspan>
<tspan x="691" y="91">skos:prefLabel (6476) [1] </tspan>
</text>
</g>
<g id="2002684938"><polygon points="1190,138 1490,138 1490,262 1190,262 "
style="fill:#F4D03F; stroke-width:1;stroke:Black;"/>
<text style="font-family:Arial;font-size:12px;kerning:0;word-spacing:-1px;fill:Black;font-weight:bold;">
<tspan x="1240" y="153">entice-core:EducationalEpisode (6)</tspan>
</text>
<line x1="1194" y1="156" x2="1488" y2="156"
 style="stroke-width:1;stroke:Black;"/>
<text style="font-family:Arial;font-size:12px;kerning:0;word-spacing:-1px;fill:Black;">
<tspan x="1194" y="168">rdf:type (6) [*]  -&gt;  owl:Class</tspan>
<tspan x="1194" y="183">rdfs:label (6) [*] </tspan>
</text>
</g>
<g id="2002684949"><polygon points="736,336 1036,336 1036,446 736,446 "
style="fill:#F4D03F; stroke-width:1;stroke:Black;"/>
<text style="font-family:Arial;font-size:12px;kerning:0;word-spacing:-1px;fill:Black;font-weight:bold;">
<tspan x="837" y="351">rdf:Property (128)</tspan>
</text>
<line x1="740" y1="354" x2="1034" y2="354"
 style="stroke-width:1;stroke:Black;"/>
<text style="font-family:Arial;font-size:12px;kerning:0;word-spacing:-1px;fill:Black;">
<tspan x="740" y="366">rdf:type (219) [*]  -&gt;  owl:Class</tspan>
<tspan x="740" y="381">rdfs:comment (113) [*] </tspan>
<tspan x="740" y="396">rdfs:label (169) [*] </tspan>
<tspan x="740" y="411">rdfs:seeAlso (2) [*]  -&gt; IRI</tspan>
<tspan x="740" y="426">skos:definition (28) [*] </tspan>
<tspan x="740" y="441">skos:scopeNote (8) [1] </tspan>
</text>
</g>
<g id="2002684960"><polygon points="246,52 546,52 546,111 246,111 "
style="fill:#F4D03F; stroke-width:1;stroke:Black;"/>
<text style="font-family:Arial;font-size:12px;kerning:0;word-spacing:-1px;fill:Black;font-weight:bold;">
<tspan x="323" y="67">skos:ConceptScheme (5)</tspan>
</text>
<line x1="250" y1="70" x2="544" y2="70"
 style="stroke-width:1;stroke:Black;"/>
<text style="font-family:Arial;font-size:12px;kerning:0;word-spacing:-1px;fill:Black;">
<tspan x="250" y="82">rdf:type (11) [*]  -&gt;  owl:Class</tspan>
<tspan x="250" y="97">rdfs:label (21) [*] </tspan>
</text>
</g>
<g id="2002684971"><polygon points="214,443 514,443 514,508 214,508 "
style="fill:#F4D03F; stroke-width:1;stroke:Black;"/>
<text style="font-family:Arial;font-size:12px;kerning:0;word-spacing:-1px;fill:Black;font-weight:bold;">
<tspan x="297" y="458">owl:ObjectProperty (28)</tspan>
</text>
<line x1="218" y1="461" x2="512" y2="461"
 style="stroke-width:1;stroke:Black;"/>
<text style="font-family:Arial;font-size:12px;kerning:0;word-spacing:-1px;fill:Black;">
<tspan x="218" y="473">rdf:type (55) [*]  -&gt;  owl:Class</tspan>
<tspan x="218" y="488">rdfs:comment (17) [*] </tspan>
<tspan x="218" y="503">rdfs:label (32) [*] </tspan>
</text>
</g>
<g id="2002684982"><polygon points="10,537 310,537 310,582 10,582 "
style="fill:#F4D03F; stroke-width:1;stroke:Black;"/>
<text style="font-family:Arial;font-size:12px;kerning:0;word-spacing:-1px;fill:Black;font-weight:bold;">
<tspan x="85" y="552">owl:FunctionalProperty (1)</tspan>
</text>
</g>
<g id="2002684993"><polygon points="251,123 551,123 551,300 251,300 "
style="fill:#F4D03F; stroke-width:1;stroke:Black;"/>
<text style="font-family:Arial;font-size:12px;kerning:0;word-spacing:-1px;fill:Black;font-weight:bold;">
<tspan x="311" y="138">entice-core:MedicalTerm (7763)</tspan>
</text>
<line x1="255" y1="141" x2="549" y2="141"
 style="stroke-width:1;stroke:Black;"/>
<text style="font-family:Arial;font-size:12px;kerning:0;word-spacing:-1px;fill:Black;">
<tspan x="255" y="153">foaf:homepage (1.3e4) [1] D -&gt; IRI</tspan>
<tspan x="255" y="168">owl:sameAs (704) [1] D -&gt; IRI</tspan>
<tspan x="255" y="183">rdf:type (4.2e4) [*]  -&gt;  owl:Class</tspan>
<tspan x="255" y="198">skos:definition (5920) [*] </tspan>
<tspan x="255" y="213">skos:notation (1.3e4) [1] </tspan>
<tspan x="255" y="228">skos:note (5936) [*] </tspan>
<tspan x="255" y="243">skos:prefLabel (1.3e4) [1] </tspan>
</text>
</g>
<g id="2002685004"><polygon points="316,543 616,543 616,588 316,588 "
style="fill:#F4D03F; stroke-width:1;stroke:Black;"/>
<text style="font-family:Arial;font-size:12px;kerning:0;word-spacing:-1px;fill:Black;font-weight:bold;">
<tspan x="394" y="558">owl:TransitiveProperty (3)</tspan>
</text>
</g>
<g id="2002685015"><polygon points="950,757 1250,757 1250,837 950,837 "
style="fill:#F4D03F; stroke-width:1;stroke:Black;"/>
<text style="font-family:Arial;font-size:12px;kerning:0;word-spacing:-1px;fill:Black;font-weight:bold;">
<tspan x="1053" y="772">rdfs:Datatype (5)</tspan>
</text>
<line x1="954" y1="775" x2="1248" y2="775"
 style="stroke-width:1;stroke:Black;"/>
<text style="font-family:Arial;font-size:12px;kerning:0;word-spacing:-1px;fill:Black;">
<tspan x="954" y="787">rdf:type (5) [*]  -&gt;  owl:Class</tspan>
<tspan x="954" y="802">rdfs:comment (5) [*] </tspan>
<tspan x="954" y="817">rdfs:label (5) [*] </tspan>
<tspan x="954" y="832">rdfs:seeAlso (4) [*]  -&gt; IRI</tspan>
</text>
</g>
<g id="2002685026"><polygon points="44,630 344,630 344,770 44,770 "
style="fill:#F4D03F; stroke-width:1;stroke:Black;"/>
<polygon points="41,633 341,633 341,773 41,773 "
style="fill:#F4D03F; stroke-width:1;stroke:Black;"/>
<text style="font-family:Arial;font-size:12px;kerning:0;word-spacing:-1px;fill:Black;font-weight:bold;">
<tspan x="74" y="648">owl:AnnotationProperty et al. G102 (~35)</tspan>
</text>
<line x1="45" y1="651" x2="339" y2="651"
 style="stroke-width:1;stroke:Black;"/>
<text style="font-family:Arial;font-size:12px;kerning:0;word-spacing:-1px;fill:Black;">
<tspan x="45" y="663">rdf:type (85) [*]  -&gt;  owl:Class</tspan>
<tspan x="45" y="678">rdfs:comment (29) [*] </tspan>
<tspan x="45" y="693">rdfs:label (48) [*] </tspan>
<tspan x="45" y="708">skos:example (1) [1] </tspan>
</text>
<text style="font-family:Arial;font-size:11px;kerning:0;word-spacing:-1px;fill:Black;font-weight:bold;">
<tspan x="45" y="723">owl:AnnotationProperty (20)</tspan>
<tspan x="45" y="738">owl:DatatypeProperty (5)</tspan>
<tspan x="45" y="753">owl:OntologyProperty (9)</tspan>
<tspan x="45" y="768">rdf:List (1)</tspan>
</text>
</g>
<g id="2002684696"><path d="M950,803 L846,803 "
style="fill:none;stroke-width:1;stroke:Black;"/>
<line x1="852" y1="800" x2="846" y2="803"
 style="stroke-width:1;stroke:Black;"/>
<line x1="852" y1="806" x2="846" y2="803"
 style="stroke-width:1;stroke:Black;"/>
<text style="font-family:Arial;font-size:12px;kerning:0;word-spacing:-1px;fill:Black;">
<tspan x="850" y="816">rdfs:isDefinedBy  </tspan>
</text>
</g>
<g id="2002684701"><path d="M551,256 L1190,256 "
style="fill:none;stroke-width:1;stroke:Black;"/>
<line x1="1184" y1="253" x2="1190" y2="256"
 style="stroke-width:1;stroke:Black;"/>
<line x1="1184" y1="259" x2="1190" y2="256"
 style="stroke-width:1;stroke:Black;"/>
<text style="font-family:Arial;font-size:12px;kerning:0;word-spacing:-1px;fill:Black;">
<tspan x="555" y="254">entice-core:inEpisode  DR</tspan>
</text>
</g>
<g id="2002684706"><path d="M251,167 L145,167 141,165 139,161 139,123 141,119 145,117 401,117 401,123 "
style="fill:none;stroke-width:1;stroke:Black;"/>
<line x1="398" y1="117" x2="401" y2="123"
 style="stroke-width:1;stroke:Black;"/>
<line x1="404" y1="117" x2="401" y2="123"
 style="stroke-width:1;stroke:Black;"/>
<text style="font-family:Arial;font-size:12px;kerning:0;word-spacing:-1px;fill:Black;">
<tspan x="162" y="180">skos:broader  </tspan>
<tspan x="162" y="195">skos:narrower  </tspan>
</text>
</g>
<g id="2002684711"><path d="M551,294 L748,294 "
style="fill:none;stroke-width:1;stroke:Black;"/>
<line x1="742" y1="291" x2="748" y2="294"
 style="stroke-width:1;stroke:Black;"/>
<line x1="742" y1="297" x2="748" y2="294"
 style="stroke-width:1;stroke:Black;"/>
<text style="font-family:Arial;font-size:12px;kerning:0;word-spacing:-1px;fill:Black;">
<tspan x="555" y="277">entice-core:vrModality  DR</tspan>
<tspan x="555" y="292">entice-core:virtualEnvironment  DR</tspan>
</text>
</g>
<g id="2002684716"><path d="M551,191 L687,191 "
style="fill:none;stroke-width:1;stroke:Black;"/>
<line x1="681" y1="188" x2="687" y2="191"
 style="stroke-width:1;stroke:Black;"/>
<line x1="681" y1="194" x2="687" y2="191"
 style="stroke-width:1;stroke:Black;"/>
<text style="font-family:Arial;font-size:12px;kerning:0;word-spacing:-1px;fill:Black;">
<tspan x="555" y="174">skos:broader  </tspan>
<tspan x="555" y="189">skos:narrower  </tspan>
</text>
</g>
<g id="2002684721"><path d="M687,129 L551,129 "
style="fill:none;stroke-width:1;stroke:Black;"/>
<line x1="557" y1="126" x2="551" y2="129"
 style="stroke-width:1;stroke:Black;"/>
<line x1="557" y1="132" x2="551" y2="129"
 style="stroke-width:1;stroke:Black;"/>
<text style="font-family:Arial;font-size:12px;kerning:0;word-spacing:-1px;fill:Black;">
<tspan x="598" y="142">skos:broader  </tspan>
<tspan x="598" y="157">skos:narrower  </tspan>
</text>
</g>
<g id="2002684726"><path d="M736,372 L591,372 587,370 585,366 585,336 587,332 591,330 886,330 886,336 "
style="fill:none;stroke-width:1;stroke:Black;"/>
<line x1="883" y1="330" x2="886" y2="336"
 style="stroke-width:1;stroke:Black;"/>
<line x1="889" y1="330" x2="886" y2="336"
 style="stroke-width:1;stroke:Black;"/>
<text style="font-family:Arial;font-size:12px;kerning:0;word-spacing:-1px;fill:Black;">
<tspan x="606" y="385">rdfs:subPropertyOf  DR</tspan>
</text>
</g>
<g id="2002684731"><path d="M1250,797 L1409,797 1413,795 1415,791 1415,687 "
style="fill:none;stroke-width:1;stroke:Black;"/>
<line x1="1412" y1="693" x2="1415" y2="687"
 style="stroke-width:1;stroke:Black;"/>
<line x1="1418" y1="693" x2="1415" y2="687"
 style="stroke-width:1;stroke:Black;"/>
<text style="font-family:Arial;font-size:12px;kerning:0;word-spacing:-1px;fill:Black;">
<tspan x="1254" y="795">rdfs:subClassOf  </tspan>
</text>
</g>
<g id="2002684736"><path d="M736,409 L634,409 630,411 628,415 628,613 "
style="fill:none;stroke-width:1;stroke:Black;"/>
<line x1="625" y1="607" x2="628" y2="613"
 style="stroke-width:1;stroke:Black;"/>
<line x1="631" y1="607" x2="628" y2="613"
 style="stroke-width:1;stroke:Black;"/>
<text style="font-family:Arial;font-size:12px;kerning:0;word-spacing:-1px;fill:Black;">
<tspan x="636" y="422">rdfs:isDefinedBy  </tspan>
</text>
</g>
<g id="2002684746"><path d="M246,91 L107,91 103,93 101,97 101,206 103,210 107,212 251,212 "
style="fill:none;stroke-width:1;stroke:Black;"/>
<line x1="245" y1="209" x2="251" y2="212"
 style="stroke-width:1;stroke:Black;"/>
<line x1="245" y1="215" x2="251" y2="212"
 style="stroke-width:1;stroke:Black;"/>
<text style="font-family:Arial;font-size:12px;kerning:0;word-spacing:-1px;fill:Black;">
<tspan x="109" y="104">skos:hasTopConcept  D</tspan>
</text>
</g>
<g id="2002684751"><path d="M214,475 L97,475 93,473 91,469 91,439 93,435 97,433 358,433 362,435 364,439 364,443 "
style="fill:none;stroke-width:1;stroke:Black;"/>
<line x1="361" y1="437" x2="364" y2="443"
 style="stroke-width:1;stroke:Black;"/>
<line x1="367" y1="437" x2="364" y2="443"
 style="stroke-width:1;stroke:Black;"/>
<text style="font-family:Arial;font-size:12px;kerning:0;word-spacing:-1px;fill:Black;">
<tspan x="112" y="488">owl:inverseOf  DR</tspan>
</text>
</g>
<g id="2002684761"><path d="M514,475 L998,475 1002,477 1004,481 1004,589 1006,593 1010,595 1265,595 "
style="fill:none;stroke-width:1;stroke:Black;"/>
<line x1="1259" y1="592" x2="1265" y2="595"
 style="stroke-width:1;stroke:Black;"/>
<line x1="1259" y1="598" x2="1265" y2="595"
 style="stroke-width:1;stroke:Black;"/>
<text style="font-family:Arial;font-size:12px;kerning:0;word-spacing:-1px;fill:Black;">
<tspan x="518" y="458">rdfs:domain  </tspan>
<tspan x="518" y="473">rdfs:range  </tspan>
</text>
</g>
<g id="2002684766"><path d="M546,105 L687,105 "
style="fill:none;stroke-width:1;stroke:Black;"/>
<line x1="681" y1="102" x2="687" y2="105"
 style="stroke-width:1;stroke:Black;"/>
<line x1="681" y1="108" x2="687" y2="105"
 style="stroke-width:1;stroke:Black;"/>
<text style="font-family:Arial;font-size:12px;kerning:0;word-spacing:-1px;fill:Black;">
<tspan x="550" y="103">skos:hasTopConcept  D</tspan>
</text>
</g>
<g id="2002684771"><path d="M1265,538 L1132,538 1128,536 1126,532 1126,532 1128,528 1132,526 1415,526 1415,532 "
style="fill:none;stroke-width:1;stroke:Black;"/>
<line x1="1412" y1="526" x2="1415" y2="532"
 style="stroke-width:1;stroke:Black;"/>
<line x1="1418" y1="526" x2="1415" y2="532"
 style="stroke-width:1;stroke:Black;"/>
<text style="font-family:Arial;font-size:12px;kerning:0;word-spacing:-1px;fill:Black;">
<tspan x="1134" y="551">owl:disjointWith  DR</tspan>
<tspan x="1134" y="566">owl:complementOf  DR</tspan>
<tspan x="1134" y="581">rdfs:subClassOf  </tspan>
</text>
</g>
<g id="2002684776"><path d="M1265,670 L846,670 "
style="fill:none;stroke-width:1;stroke:Black;"/>
<line x1="852" y1="667" x2="846" y2="670"
 style="stroke-width:1;stroke:Black;"/>
<line x1="852" y1="673" x2="846" y2="670"
 style="stroke-width:1;stroke:Black;"/>
<text style="font-family:Arial;font-size:12px;kerning:0;word-spacing:-1px;fill:Black;">
<tspan x="1165" y="683">rdfs:isDefinedBy  </tspan>
</text>
</g>
<g id="2002684781"><path d="M751,1018 L912,1018 "
style="fill:none;stroke-width:1;stroke:Black;"/>
<line x1="906" y1="1015" x2="912" y2="1018"
 style="stroke-width:1;stroke:Black;"/>
<line x1="906" y1="1021" x2="912" y2="1018"
 style="stroke-width:1;stroke:Black;"/>
<text style="font-family:Arial;font-size:12px;kerning:0;word-spacing:-1px;fill:Black;">
<tspan x="755" y="1001">sd:feature  DR</tspan>
<tspan x="755" y="1016">sd:supportedLanguage  DR</tspan>
</text>
</g>
<g id="2002684786"><path d="M687,22 L558,22 554,20 552,16 552,16 554,12 558,10 837,10 837,16 "
style="fill:none;stroke-width:1;stroke:Black;"/>
<line x1="834" y1="10" x2="837" y2="16"
 style="stroke-width:1;stroke:Black;"/>
<line x1="840" y1="10" x2="837" y2="16"
 style="stroke-width:1;stroke:Black;"/>
<text style="font-family:Arial;font-size:12px;kerning:0;word-spacing:-1px;fill:Black;">
<tspan x="598" y="35">skos:broader  </tspan>
<tspan x="598" y="50">skos:narrower  </tspan>
</text>
</g>
<g id="2002684791"><path d="M987,191 L1190,191 "
style="fill:none;stroke-width:1;stroke:Black;"/>
<line x1="1184" y1="188" x2="1190" y2="191"
 style="stroke-width:1;stroke:Black;"/>
<line x1="1184" y1="194" x2="1190" y2="191"
 style="stroke-width:1;stroke:Black;"/>
<text style="font-family:Arial;font-size:12px;kerning:0;word-spacing:-1px;fill:Black;">
<tspan x="991" y="189">entice-core:learningObjectiveOf  DR</tspan>
</text>
</g>
<g id="2002684796"><path d="M1190,144 L987,144 "
style="fill:none;stroke-width:1;stroke:Black;"/>
<line x1="993" y1="141" x2="987" y2="144"
 style="stroke-width:1;stroke:Black;"/>
<line x1="993" y1="147" x2="987" y2="144"
 style="stroke-width:1;stroke:Black;"/>
<text style="font-family:Arial;font-size:12px;kerning:0;word-spacing:-1px;fill:Black;">
<tspan x="996" y="157">entice-core:hasLearningObjective  </tspan>
<tspan x="996" y="172">DR</tspan>
</text>
</g>
<g id="2002684801"><path d="M1036,391 L1114,391 1118,393 1120,397 1120,583 1122,587 1126,589 1265,589 "
style="fill:none;stroke-width:1;stroke:Black;"/>
<line x1="1259" y1="586" x2="1265" y2="589"
 style="stroke-width:1;stroke:Black;"/>
<line x1="1259" y1="592" x2="1265" y2="589"
 style="stroke-width:1;stroke:Black;"/>
<text style="font-family:Arial;font-size:12px;kerning:0;word-spacing:-1px;fill:Black;">
<tspan x="1040" y="374">rdfs:domain  </tspan>
<tspan x="1040" y="389">rdfs:range  </tspan>
</text>
</g>
<g id="2002684806"><path d="M546,715 L439,715 435,713 433,709 433,613 435,609 439,607 584,607 584,613 "
style="fill:none;stroke-width:1;stroke:Black;"/>
<line x1="581" y1="607" x2="584" y2="613"
 style="stroke-width:1;stroke:Black;"/>
<line x1="587" y1="607" x2="584" y2="613"
 style="stroke-width:1;stroke:Black;"/>
<text style="font-family:Arial;font-size:12px;kerning:0;word-spacing:-1px;fill:Black;">
<tspan x="441" y="728">owl:versionIRI  DR</tspan>
<tspan x="441" y="743">rdfs:isDefinedBy  </tspan>
</text>
</g>
<g id="2002684811"><path d="M251,256 L101,256 97,254 95,250 95,78 97,74 101,72 246,72 "
style="fill:none;stroke-width:1;stroke:Black;"/>
<line x1="240" y1="69" x2="246" y2="72"
 style="stroke-width:1;stroke:Black;"/>
<line x1="240" y1="75" x2="246" y2="72"
 style="stroke-width:1;stroke:Black;"/>
<text style="font-family:Arial;font-size:12px;kerning:0;word-spacing:-1px;fill:Black;">
<tspan x="127" y="269">skos:inScheme  </tspan>
<tspan x="127" y="284">skos:topConceptOf  R</tspan>
</text>
</g>
<g id="2002684816"><path d="M687,58 L546,58 "
style="fill:none;stroke-width:1;stroke:Black;"/>
<line x1="552" y1="55" x2="546" y2="58"
 style="stroke-width:1;stroke:Black;"/>
<line x1="552" y1="61" x2="546" y2="58"
 style="stroke-width:1;stroke:Black;"/>
<text style="font-family:Arial;font-size:12px;kerning:0;word-spacing:-1px;fill:Black;">
<tspan x="563" y="71">skos:inScheme  </tspan>
<tspan x="563" y="86">skos:topConceptOf  R</tspan>
</text>
</g>
<g id="2002684821"><path d="M514,496 L616,496 620,498 622,502 622,613 "
style="fill:none;stroke-width:1;stroke:Black;"/>
<line x1="619" y1="607" x2="622" y2="613"
 style="stroke-width:1;stroke:Black;"/>
<line x1="625" y1="607" x2="622" y2="613"
 style="stroke-width:1;stroke:Black;"/>
<text style="font-family:Arial;font-size:12px;kerning:0;word-spacing:-1px;fill:Black;">
<tspan x="518" y="494">rdfs:isDefinedBy  </tspan>
</text>
</g>
<g id="2002684826"><path d="M1190,220 L551,220 "
style="fill:none;stroke-width:1;stroke:Black;"/>
<line x1="557" y1="217" x2="551" y2="220"
 style="stroke-width:1;stroke:Black;"/>
<line x1="557" y1="223" x2="551" y2="220"
 style="stroke-width:1;stroke:Black;"/>
<text style="font-family:Arial;font-size:12px;kerning:0;word-spacing:-1px;fill:Black;">
<tspan x="998" y="233">entice-core:containsMedicalTerm  </tspan>
<tspan x="998" y="248">DR</tspan>
</text>
</g>
<g id="2002684831"><path d="M451,1004 L356,1004 352,1002 350,998 350,986 352,982 356,980 601,980 601,986 "
style="fill:none;stroke-width:1;stroke:Black;"/>
<line x1="598" y1="980" x2="601" y2="986"
 style="stroke-width:1;stroke:Black;"/>
<line x1="604" y1="980" x2="601" y2="986"
 style="stroke-width:1;stroke:Black;"/>
<text style="font-family:Arial;font-size:12px;kerning:0;word-spacing:-1px;fill:Black;">
<tspan x="358" y="1017">sd:url  DR</tspan>
<tspan x="358" y="1032">sd:endpoint  DR</tspan>
</text>
</g>
<g id="2002684838"><path d="M395,508 L395,543 "
style="fill:none;stroke-width:2;stroke:Fuchsia;"/>
<polygon points="400,518 395,508 390,518 "
style="fill:Silver;stroke-width:1;stroke:Black;"/>
<text style="font-family:Arial;font-size:12px;kerning:0;word-spacing:-1px;fill:Black;">
<tspan x="397" y="523"> </tspan>
</text>
</g>
<g id="2002684840"><path d="M814,446 L814,525 812,529 808,531 483,531 479,533 477,537 477,543 "
style="fill:none;stroke-width:2;stroke:Fuchsia;"/>
<polygon points="819,456 814,446 809,456 "
style="fill:Silver;stroke-width:1;stroke:Black;"/>
<text style="font-family:Arial;font-size:12px;kerning:0;word-spacing:-1px;fill:Black;">
<tspan x="816" y="461"> </tspan>
</text>
</g>
<g id="2002684842"><path d="M867,197 L867,262 "
style="fill:none;stroke-width:2;stroke:Fuchsia;"/>
<polygon points="872,207 867,197 862,207 "
style="fill:Silver;stroke-width:1;stroke:Black;"/>
<text style="font-family:Arial;font-size:12px;kerning:0;word-spacing:-1px;fill:Black;">
<tspan x="869" y="212"> </tspan>
</text>
</g>
<g id="2002684844"><path d="M304,508 L304,525 302,529 298,531 160,531 160,537 "
style="fill:none;stroke-width:2;stroke:Fuchsia;"/>
<polygon points="309,518 304,508 299,518 "
style="fill:Silver;stroke-width:1;stroke:Black;"/>
<text style="font-family:Arial;font-size:12px;kerning:0;word-spacing:-1px;fill:Black;">
<tspan x="306" y="523"> </tspan>
</text>
</g>
<g id="2002684846"><path d="M964,446 L964,463 966,467 970,469 1276,469 1276,475 "
style="fill:none;stroke-width:2;stroke:Fuchsia;"/>
<polygon points="969,456 964,446 959,456 "
style="fill:Silver;stroke-width:1;stroke:Black;"/>
<text style="font-family:Arial;font-size:12px;kerning:0;word-spacing:-1px;fill:Black;">
<tspan x="966" y="461"> </tspan>
</text>
</g>
<g id="2002684848"><path d="M893,446 L893,543 "
style="fill:none;stroke-width:2;stroke:Fuchsia;"/>
<polygon points="898,456 893,446 888,456 "
style="fill:Silver;stroke-width:1;stroke:Black;"/>
<text style="font-family:Arial;font-size:12px;kerning:0;word-spacing:-1px;fill:Black;">
<tspan x="895" y="461"> </tspan>
</text>
</g>
<g id="2002684836"><path d="M483,508 L483,531 485,535 489,537 796,537 796,543 "
style="fill:none;stroke-width:2;stroke:Fuchsia;"/>
<polygon points="488,518 483,508 478,518 "
style="fill:Silver;stroke-width:1;stroke:Black;"/>
<text style="font-family:Arial;font-size:12px;kerning:0;word-spacing:-1px;fill:Black;">
<tspan x="485" y="523"> </tspan>
</text>
</g>
<g id="2002684741"><path d="M341,665 L421,665 425,663 427,659 427,607 429,603 433,601 1265,601 "
style="fill:none;stroke-width:1;stroke:Black;"/>
<line x1="1259" y1="598" x2="1265" y2="601"
 style="stroke-width:1;stroke:Black;"/>
<line x1="1259" y1="604" x2="1265" y2="601"
 style="stroke-width:1;stroke:Black;"/>
<text style="font-family:Arial;font-size:12px;kerning:0;word-spacing:-1px;fill:Black;">
<tspan x="345" y="648">rdfs:domain  </tspan>
<tspan x="345" y="663">rdfs:range  </tspan>
</text>
</g>
<g id="2002684756"><path d="M341,766 L546,766 "
style="fill:none;stroke-width:1;stroke:Black;"/>
<line x1="540" y1="763" x2="546" y2="766"
 style="stroke-width:1;stroke:Black;"/>
<line x1="540" y1="769" x2="546" y2="766"
 style="stroke-width:1;stroke:Black;"/>
<text style="font-family:Arial;font-size:12px;kerning:0;word-spacing:-1px;fill:Black;">
<tspan x="345" y="764">rdfs:isDefinedBy  </tspan>
</text>
</g>
</svg>
