<?xml version="1.0" encoding="UTF-8" standalone="no"?>
<!DOCTYPE svg PUBLIC "-//W3C//DTD SVG 1.1//EN"
"http://www.w3.org/Graphics/SVG/1.1/DTD/svg11.dtd">
<svg version="1.1" xmlns="http://www.w3.org/2000/svg"
xmlns:xlink="http://www.w3.org/1999/xlink" xml:space="preserve"
 width="979" height="337" viewBox="0 0 979 337">
 onmousemove="movetip(evt)" onmouseup="endmove()">
<rect x="0" y="0" width="100%" height="100%" style="fill:White;"/>
<script type="application/ecmascript"> <![CDATA[
var dragtipid = null; var dragcase = false; function init(evt){
if (window.svgDocument==null) svgDocument = evt.target.ownerDocument;
}
function movetip(evt){if (dragtipid!=null){ dragcase = true;
var tip=svgDocument.getElementById(dragtipid);
tip.setAttributeNS(null,"x",evt.clientX-2);
tip.setAttributeNS(null,"y",evt.clientY-2);
}}
function endmove(){dragtipid = null;}
function startmove(evt,id){dragtipid = id; dragcase = false;
var tip=svgDocument.getElementById(dragtipid);
tip.setAttributeNS(null,"x",evt.clientX-2);
tip.setAttributeNS(null,"y",evt.clientY-2);
}
function Showtip(evt,id){ dragtipid = null;
var tip=svgDocument.getElementById(id);
var vis=tip.getAttributeNS(null,"visibility");
if (vis=="hidden"){
tip.setAttributeNS(null,"x",evt.clientX-2);
tip.setAttributeNS(null,"y",evt.clientY-2);
tip.setAttributeNS(null,"visibility","visible");
}}
function Hidetip(id){ dragtipid = null; if (dragcase==false){
var tip=svgDocument.getElementById(id);
tip.setAttributeNS(null,"visibility","hidden");
}}
]]></script>
<defs><linearGradient id="activ1" x1="0%" y1="0%" x2="100%" y2="0%">
<stop offset="0%" style="stop-color:#FFFF00;stop-opacity:1"/>
<stop offset="100%" style="stop-color:#FFFFF0;stop-opacity:1"/>
</linearGradient></defs>
<g id="2002675683"><polygon points="238,6 418,6 418,162 238,162 "
style="fill:#F4D03F; stroke-width:1;stroke:Black;"/>
<text style="font-family:Arial;font-size:7px;kerning:0;word-spacing:-1px;fill:Black;font-weight:bold;">
<tspan x="282" y="15">skos:ConceptScheme (44)</tspan>
</text>
<line x1="240" y1="17" x2="416" y2="17"
 style="stroke-width:1;stroke:Black;"/>
<text style="font-family:Arial;font-size:7px;kerning:0;word-spacing:-1px;fill:Black;">
<tspan x="240" y="24">dc:contributor (63) [*] D</tspan>
<tspan x="240" y="33">dc:coverage (52) [*] D</tspan>
<tspan x="240" y="42">dc:description (44) [1] D</tspan>
<tspan x="240" y="51">dc:language (62) [*] D</tspan>
<tspan x="240" y="60">dc:publisher (44) [1] D</tspan>
<tspan x="240" y="69">dc:relation (44) [1] D</tspan>
<tspan x="240" y="78">dc:rights (44) [1] D</tspan>
<tspan x="240" y="87">dc:source (44) [1] </tspan>
<tspan x="240" y="96">dc:subject (91) [*] D</tspan>
<tspan x="240" y="105">dc:title (44) [1] D</tspan>
<tspan x="240" y="114">dc:type (42) [1] D</tspan>
<tspan x="240" y="123">dct:created (44) [1] </tspan>
<tspan x="240" y="132">dct:dateSubmitted (53) [*] D</tspan>
<tspan x="240" y="141">dct:issued (44) [1] D</tspan>
<tspan x="240" y="150">dct:modified (44) [1] </tspan>
<tspan x="240" y="159">tdct:modified (4) [1] D</tspan>
</text>
</g>
<g id="2002675694"><polygon points="794,109 974,109 974,193 794,193 "
style="fill:#F4D03F; stroke-width:1;stroke:Black;"/>
<polygon points="793,110 973,110 973,195 793,195 "
style="fill:#F4D03F; stroke-width:1;stroke:Black;"/>
<text style="font-family:Arial;font-size:7px;kerning:0;word-spacing:-1px;fill:Black;font-weight:bold;">
<tspan x="819" y="120">skosthes:PreferredTerm or skosthes:</tspan>
<tspan x="813" y="130">SimpleNonPreferredTerm G102 (~1.3e5)</tspan>
</text>
<line x1="795" y1="131" x2="971" y2="131"
 style="stroke-width:1;stroke:Black;"/>
<text style="font-family:Arial;font-size:7px;kerning:0;word-spacing:-1px;fill:Black;">
<tspan x="795" y="138">dc:source (32) [1] </tspan>
<tspan x="795" y="147">dct:created (1.3e5) [1] </tspan>
<tspan x="795" y="156">dct:modified (1.3e5) [1] </tspan>
<tspan x="795" y="165">skosthes:status (1.3e5) [1] </tspan>
<tspan x="795" y="174">skosxl:literalForm (1.3e5) [1] </tspan>
</text>
<text style="font-family:Arial;font-size:7px;kerning:0;word-spacing:-1px;fill:Black;font-weight:bold;">
<tspan x="795" y="183">skosthes:PreferredTerm (1.1e5)</tspan>
<tspan x="795" y="192">skosthes:SimpleNonPreferredTerm (2.9e4)</tspan>
</text>
</g>
<g id="2002675672"><polygon points="291,301 471,301 471,331 291,331 "
style="fill:#F4D03F; stroke-width:1;stroke:Black;"/>
<text style="font-family:Arial;font-size:7px;kerning:0;word-spacing:-1px;fill:Black;font-weight:bold;">
<tspan x="338" y="310">owl:ObjectProperty (396)</tspan>
</text>
<line x1="293" y1="311" x2="470" y2="311"
 style="stroke-width:1;stroke:Black;"/>
<text style="font-family:Arial;font-size:7px;kerning:0;word-spacing:-1px;fill:Black;">
<tspan x="293" y="318">rdfs:label (1.7e4) [1] </tspan>
<tspan x="293" y="327">rdfs:subPropertyOf (1.7e4) [1] D -&gt; IRI</tspan>
</text>
</g>
<g id="2002675650"><polygon points="245,212 425,212 425,260 245,260 "
style="fill:#F4D03F; stroke-width:1;stroke:Black;"/>
<polygon points="244,214 424,214 424,262 244,262 "
style="fill:#F4D03F; stroke-width:1;stroke:Black;"/>
<text style="font-family:Arial;font-size:7px;kerning:0;word-spacing:-1px;fill:Black;font-weight:bold;">
<tspan x="280" y="223">owl:DatatypeProperty or ginco:</tspan>
<tspan x="270" y="233">CustomConceptAttribute G101 (~94)</tspan>
</text>
<line x1="246" y1="234" x2="422" y2="234"
 style="stroke-width:1;stroke:Black;"/>
<text style="font-family:Arial;font-size:7px;kerning:0;word-spacing:-1px;fill:Black;">
<tspan x="246" y="241">rdfs:label (3722) [1] </tspan>
</text>
<text style="font-family:Arial;font-size:7px;kerning:0;word-spacing:-1px;fill:Black;font-weight:bold;">
<tspan x="246" y="250">ginco:CustomConceptAttribute (8)</tspan>
<tspan x="246" y="259">owl:DatatypeProperty (86)</tspan>
</text>
</g>
<g id="2002675639"><polygon points="6,85 186,85 186,124 6,124 "
style="fill:#F4D03F; stroke-width:1;stroke:Black;"/>
<text style="font-family:Arial;font-size:7px;kerning:0;word-spacing:-1px;fill:Black;font-weight:bold;">
<tspan x="59" y="94">foaf:Organization (43)</tspan>
</text>
<line x1="8" y1="96" x2="185" y2="96"
 style="stroke-width:1;stroke:Black;"/>
<text style="font-family:Arial;font-size:7px;kerning:0;word-spacing:-1px;fill:Black;">
<tspan x="8" y="103">foaf:homepage (42) [1] D</tspan>
<tspan x="8" y="112">foaf:mbox (40) [1] D</tspan>
<tspan x="8" y="121">foaf:name (43) [1] D</tspan>
</text>
</g>
<g id="2002675661"><polygon points="509,263 689,263 689,302 509,302 "
style="fill:#F4D03F; stroke-width:1;stroke:Black;"/>
<text style="font-family:Arial;font-size:7px;kerning:0;word-spacing:-1px;fill:Black;font-weight:bold;">
<tspan x="564" y="272">skos:Collection (33)</tspan>
</text>
<line x1="511" y1="274" x2="688" y2="274"
 style="stroke-width:1;stroke:Black;"/>
<text style="font-family:Arial;font-size:7px;kerning:0;word-spacing:-1px;fill:Black;">
<tspan x="511" y="281">dct:created (33) [1] </tspan>
<tspan x="511" y="290">dct:modified (33) [1] </tspan>
<tspan x="511" y="299">skos:prefLabel (33) [*] </tspan>
</text>
</g>
<g id="2002675628"><polygon points="529,35 709,35 709,173 529,173 "
style="fill:#F4D03F; stroke-width:1;stroke:Black;"/>
<text style="font-family:Arial;font-size:7px;kerning:0;word-spacing:-1px;fill:Black;font-weight:bold;">
<tspan x="583" y="45">skos:Concept (1.0e5)</tspan>
</text>
<line x1="532" y1="46" x2="708" y2="46"
 style="stroke-width:1;stroke:Black;"/>
<text style="font-family:Arial;font-size:7px;kerning:0;word-spacing:-1px;fill:Black;">
<tspan x="532" y="53">dct:created (1.0e5) [1] </tspan>
<tspan x="532" y="62">dct:modified (1.0e5) [1] </tspan>
<tspan x="532" y="71">foaf:depiction (6141) [*] D -&gt; IRI</tspan>
<tspan x="532" y="80">foaf:focus (354) [*] D -&gt; IRI</tspan>
<tspan x="532" y="89">ginco:focus (442) [1] D</tspan>
<tspan x="532" y="98">skos:altLabel (2.9e4) [*] D</tspan>
<tspan x="532" y="107">skos:definition (4460) [*] D</tspan>
<tspan x="532" y="116">skos:example (18) [1] D</tspan>
<tspan x="532" y="125">skos:hiddenLabel (14) [1] D</tspan>
<tspan x="532" y="134">skos:historyNote (219) [*] D</tspan>
<tspan x="532" y="143">skos:notation (7.4e4) [1] D</tspan>
<tspan x="532" y="152">skos:prefLabel (1.1e5) [*] </tspan>
<tspan x="532" y="161">skos:scopeNote (1139) [1] D</tspan>
<tspan x="532" y="170">skosthes:status (1.0e5) [1] </tspan>
</text>
</g>
<g id="2002675553"><path d="M557,263 L557,247 556,244 554,243 424,243 "
style="fill:none;stroke-width:1;stroke:Black;"/>
<line x1="427" y1="241" x2="424" y2="243"
 style="stroke-width:1;stroke:Black;"/>
<line x1="427" y1="245" x2="424" y2="243"
 style="stroke-width:1;stroke:Black;"/>
<text style="font-family:Arial;font-size:7px;kerning:0;word-spacing:-1px;fill:Black;">
<tspan x="530" y="260">rdf:type  </tspan>
</text>
</g>
<g id="2002675563"><path d="M624,263 L624,232 623,229 620,228 477,228 475,227 473,224 473,150 472,148 470,146 418,146 "
style="fill:none;stroke-width:1;stroke:Black;"/>
<line x1="421" y1="145" x2="418" y2="146"
 style="stroke-width:1;stroke:Black;"/>
<line x1="421" y1="148" x2="418" y2="146"
 style="stroke-width:1;stroke:Black;"/>
<text style="font-family:Arial;font-size:7px;kerning:0;word-spacing:-1px;fill:Black;">
<tspan x="563" y="260">skos:inScheme  R</tspan>
</text>
</g>
<g id="2002675578"><path d="M418,143 L529,143 "
style="fill:none;stroke-width:1;stroke:Black;"/>
<line x1="526" y1="141" x2="529" y2="143"
 style="stroke-width:1;stroke:Black;"/>
<line x1="526" y1="145" x2="529" y2="143"
 style="stroke-width:1;stroke:Black;"/>
<text style="font-family:Arial;font-size:7px;kerning:0;word-spacing:-1px;fill:Black;">
<tspan x="420" y="141">skos:hasTopConcept  DR</tspan>
</text>
</g>
<g id="2002675593"><path d="M529,124 L418,124 "
style="fill:none;stroke-width:1;stroke:Black;"/>
<line x1="421" y1="122" x2="418" y2="124"
 style="stroke-width:1;stroke:Black;"/>
<line x1="421" y1="125" x2="418" y2="124"
 style="stroke-width:1;stroke:Black;"/>
<text style="font-family:Arial;font-size:7px;kerning:0;word-spacing:-1px;fill:Black;">
<tspan x="467" y="131">skos:inScheme  R</tspan>
</text>
</g>
<g id="2002675598"><path d="M291,311 L229,311 226,310 225,308 225,296 226,294 229,293 376,293 379,294 380,296 380,301 "
style="fill:none;stroke-width:1;stroke:Black;"/>
<line x1="378" y1="297" x2="380" y2="301"
 style="stroke-width:1;stroke:Black;"/>
<line x1="382" y1="297" x2="380" y2="301"
 style="stroke-width:1;stroke:Black;"/>
<text style="font-family:Arial;font-size:7px;kerning:0;word-spacing:-1px;fill:Black;">
<tspan x="230" y="319">owl:inverseOf  DR</tspan>
</text>
</g>
<g id="2002675603"><path d="M685,263 L685,220 684,217 682,216 539,216 537,215 536,212 536,173 "
style="fill:none;stroke-width:1;stroke:Black;"/>
<line x1="534" y1="177" x2="536" y2="173"
 style="stroke-width:1;stroke:Black;"/>
<line x1="538" y1="177" x2="536" y2="173"
 style="stroke-width:1;stroke:Black;"/>
<text style="font-family:Arial;font-size:7px;kerning:0;word-spacing:-1px;fill:Black;">
<tspan x="629" y="260">skos:member  D</tspan>
</text>
</g>
<g id="2002675608"><path d="M709,139 L793,139 "
style="fill:none;stroke-width:1;stroke:Black;"/>
<line x1="789" y1="137" x2="793" y2="139"
 style="stroke-width:1;stroke:Black;"/>
<line x1="789" y1="140" x2="793" y2="139"
 style="stroke-width:1;stroke:Black;"/>
<text style="font-family:Arial;font-size:7px;kerning:0;word-spacing:-1px;fill:Black;">
<tspan x="712" y="119">skosxl:prefLabel  DR</tspan>
<tspan x="712" y="128">skosxl:altLabel  DR</tspan>
<tspan x="712" y="137">skosxl:hiddenLabel  DR</tspan>
</text>
</g>
<g id="2002675613"><path d="M238,89 L186,89 "
style="fill:none;stroke-width:1;stroke:Black;"/>
<line x1="190" y1="87" x2="186" y2="89"
 style="stroke-width:1;stroke:Black;"/>
<line x1="190" y1="91" x2="186" y2="89"
 style="stroke-width:1;stroke:Black;"/>
<text style="font-family:Arial;font-size:7px;kerning:0;word-spacing:-1px;fill:Black;">
<tspan x="189" y="96">dc:creator  DR</tspan>
</text>
</g>
<g id="2002675568"><path d="M413,301 L413,262 "
style="fill:none;stroke-width:1;stroke:Black;"/>
<line x1="411" y1="266" x2="413" y2="262"
 style="stroke-width:1;stroke:Black;"/>
<line x1="415" y1="266" x2="413" y2="262"
 style="stroke-width:1;stroke:Black;"/>
<text style="font-family:Arial;font-size:7px;kerning:0;word-spacing:-1px;fill:Black;">
<tspan x="385" y="298">rdf:type  </tspan>
</text>
</g>
<g id="2002675623"><path d="M284,214 L284,200 286,197 288,196 365,196 368,197 369,200 369,214 "
style="fill:none;stroke-width:1;stroke:Black;"/>
<line x1="367" y1="210" x2="369" y2="214"
 style="stroke-width:1;stroke:Black;"/>
<line x1="371" y1="210" x2="369" y2="214"
 style="stroke-width:1;stroke:Black;"/>
<text style="font-family:Arial;font-size:7px;kerning:0;word-spacing:-1px;fill:Black;">
<tspan x="257" y="211">rdf:type  </tspan>
</text>
</g>
<g id="2002675558"><path d="M149,124 L149,217 150,219 152,220 244,220 "
style="fill:none;stroke-width:1;stroke:Black;"/>
<line x1="240" y1="218" x2="244" y2="220"
 style="stroke-width:1;stroke:Black;"/>
<line x1="240" y1="222" x2="244" y2="220"
 style="stroke-width:1;stroke:Black;"/>
<text style="font-family:Arial;font-size:7px;kerning:0;word-spacing:-1px;fill:Black;">
<tspan x="150" y="133">rdf:type  </tspan>
</text>
</g>
<g id="2002675548"><path d="M666,302 L666,317 665,320 662,321 569,321 567,320 566,317 566,302 "
style="fill:none;stroke-width:1;stroke:Black;"/>
<line x1="564" y1="305" x2="566" y2="302"
 style="stroke-width:1;stroke:Black;"/>
<line x1="568" y1="305" x2="566" y2="302"
 style="stroke-width:1;stroke:Black;"/>
<text style="font-family:Arial;font-size:7px;kerning:0;word-spacing:-1px;fill:Black;">
<tspan x="668" y="311">skos:member  D</tspan>
</text>
</g>
<g id="2002675618"><path d="M529,39 L443,39 441,38 440,35 440,16 441,13 443,12 616,12 619,13 620,16 620,35 "
style="fill:none;stroke-width:1;stroke:Black;"/>
<line x1="618" y1="32" x2="620" y2="35"
 style="stroke-width:1;stroke:Black;"/>
<line x1="622" y1="32" x2="620" y2="35"
 style="stroke-width:1;stroke:Black;"/>
<text style="font-family:Arial;font-size:7px;kerning:0;word-spacing:-1px;fill:Black;">
<tspan x="445" y="47">ginco:TermeAssocie  DR</tspan>
<tspan x="445" y="56">skos:narrower  DR</tspan>
<tspan x="445" y="65">skos:broader  DR</tspan>
<tspan x="445" y="74">skos:exactMatch  D</tspan>
<tspan x="445" y="83">skos:closeMatch  D</tspan>
<tspan x="445" y="92">skos:related  DR</tspan>
<tspan x="445" y="101">skos:broadMatch  D</tspan>
<tspan x="445" y="110">skos:narrowMatch  D</tspan>
<tspan x="445" y="119">skos:relatedMatch  D</tspan>
</text>
</g>
<g id="2002675583"><path d="M382,162 L382,214 "
style="fill:none;stroke-width:1;stroke:Black;"/>
<line x1="380" y1="210" x2="382" y2="214"
 style="stroke-width:1;stroke:Black;"/>
<line x1="384" y1="210" x2="382" y2="214"
 style="stroke-width:1;stroke:Black;"/>
<text style="font-family:Arial;font-size:7px;kerning:0;word-spacing:-1px;fill:Black;">
<tspan x="384" y="171">rdf:type  </tspan>
</text>
</g>
<g id="2002675588"><path d="M529,163 L464,163 462,164 461,167 461,217 460,220 457,221 424,221 "
style="fill:none;stroke-width:1;stroke:Black;"/>
<line x1="427" y1="219" x2="424" y2="221"
 style="stroke-width:1;stroke:Black;"/>
<line x1="427" y1="223" x2="424" y2="221"
 style="stroke-width:1;stroke:Black;"/>
<text style="font-family:Arial;font-size:7px;kerning:0;word-spacing:-1px;fill:Black;">
<tspan x="500" y="171">rdf:type  </tspan>
</text>
</g>
<g id="2002675573"><path d="M793,185 L510,185 508,186 506,188 506,228 505,230 503,232 424,232 "
style="fill:none;stroke-width:1;stroke:Black;"/>
<line x1="427" y1="230" x2="424" y2="232"
 style="stroke-width:1;stroke:Black;"/>
<line x1="427" y1="233" x2="424" y2="232"
 style="stroke-width:1;stroke:Black;"/>
<text style="font-family:Arial;font-size:7px;kerning:0;word-spacing:-1px;fill:Black;">
<tspan x="764" y="192">rdf:type  </tspan>
</text>
</g>
</svg>
