<?xml version="1.0" encoding="UTF-8" standalone="no"?>
<!DOCTYPE svg PUBLIC "-//W3C//DTD SVG 1.1//EN"
"http://www.w3.org/Graphics/SVG/1.1/DTD/svg11.dtd">
<svg version="1.1" xmlns="http://www.w3.org/2000/svg"
xmlns:xlink="http://www.w3.org/1999/xlink" xml:space="preserve"
 width="1196" height="653" viewBox="0 0 1196 653">
 onmousemove="movetip(evt)" onmouseup="endmove()">
<rect x="0" y="0" width="100%" height="100%" style="fill:White;"/>
<script type="application/ecmascript"> <![CDATA[
var dragtipid = null; var dragcase = false; function init(evt){
if (window.svgDocument==null) svgDocument = evt.target.ownerDocument;
}
function movetip(evt){if (dragtipid!=null){ dragcase = true;
var tip=svgDocument.getElementById(dragtipid);
tip.setAttributeNS(null,"x",evt.clientX-2);
tip.setAttributeNS(null,"y",evt.clientY-2);
}}
function endmove(){dragtipid = null;}
function startmove(evt,id){dragtipid = id; dragcase = false;
var tip=svgDocument.getElementById(dragtipid);
tip.setAttributeNS(null,"x",evt.clientX-2);
tip.setAttributeNS(null,"y",evt.clientY-2);
}
function Showtip(evt,id){ dragtipid = null;
var tip=svgDocument.getElementById(id);
var vis=tip.getAttributeNS(null,"visibility");
if (vis=="hidden"){
tip.setAttributeNS(null,"x",evt.clientX-2);
tip.setAttributeNS(null,"y",evt.clientY-2);
tip.setAttributeNS(null,"visibility","visible");
}}
function Hidetip(id){ dragtipid = null; if (dragcase==false){
var tip=svgDocument.getElementById(id);
tip.setAttributeNS(null,"visibility","hidden");
}}
]]></script>
<defs><linearGradient id="activ1" x1="0%" y1="0%" x2="100%" y2="0%">
<stop offset="0%" style="stop-color:#FFFF00;stop-opacity:1"/>
<stop offset="100%" style="stop-color:#FFFFF0;stop-opacity:1"/>
</linearGradient></defs>
<g id="2002677779"><polygon points="693,182 843,182 843,204 693,204 "
style="fill:#F4D03F; stroke-width:1;stroke:Black;"/>
<text style="font-family:Arial;font-size:6px;kerning:0;word-spacing:-1px;fill:Black;font-weight:bold;">
<tspan x="736" y="190">rce:ConceptStatus (5)</tspan>
</text>
</g>
<g id="2002677790"><polygon points="781,413 931,413 931,453 781,453 "
style="fill:#F4D03F; stroke-width:1;stroke:Black;"/>
<text style="font-family:Arial;font-size:6px;kerning:0;word-spacing:-1px;fill:Black;font-weight:bold;">
<tspan x="826" y="421">swu:LocalUser (185)</tspan>
</text>
<line x1="783" y1="422" x2="930" y2="422"
 style="stroke-width:1;stroke:Black;"/>
<text style="font-family:Arial;font-size:6px;kerning:0;word-spacing:-1px;fill:Black;">
<tspan x="783" y="428">rdf:type (185) [*]  -&gt; IRI</tspan>
<tspan x="783" y="436">swrdfm:checksum (126) [*] D</tspan>
<tspan x="783" y="444">swu:hasRole (1) [1] D -&gt; IRI</tspan>
<tspan x="783" y="452">swu:username (191) [*] D</tspan>
</text>
</g>
<g id="2002677801"><polygon points="335,431 485,431 485,453 335,453 "
style="fill:#F4D03F; stroke-width:1;stroke:Black;"/>
<text style="font-family:Arial;font-size:6px;kerning:0;word-spacing:-1px;fill:Black;font-weight:bold;">
<tspan x="392" y="439">rdf:List (931)</tspan>
</text>
<line x1="337" y1="440" x2="484" y2="440"
 style="stroke-width:1;stroke:Black;"/>
<text style="font-family:Arial;font-size:6px;kerning:0;word-spacing:-1px;fill:Black;">
<tspan x="337" y="446">rdf:type (931) [*]  -&gt; IRI</tspan>
</text>
</g>
<g id="2002677834"><polygon points="398,537 548,537 548,592 398,592 "
style="fill:#F4D03F; stroke-width:1;stroke:Black;"/>
<text style="font-family:Arial;font-size:6px;kerning:0;word-spacing:-1px;fill:Black;font-weight:bold;">
<tspan x="439" y="545">swc:CandidateLabel (1)</tspan>
</text>
<line x1="400" y1="546" x2="547" y2="546"
 style="stroke-width:1;stroke:Black;"/>
<text style="font-family:Arial;font-size:6px;kerning:0;word-spacing:-1px;fill:Black;">
<tspan x="400" y="552">dct:created (1) [*] </tspan>
<tspan x="400" y="560">rdf:type (1) [*]  -&gt; IRI</tspan>
<tspan x="400" y="568">swc:corpus (2) [*] D -&gt; IRI</tspan>
<tspan x="400" y="576">swc:label (1) [1] D</tspan>
<tspan x="400" y="584">swc:lang (1) [1] D</tspan>
<tspan x="400" y="592">swc:term (1) [1] D</tspan>
</text>
</g>
<g id="2002677856"><polygon points="251,333 401,333 401,356 251,356 "
style="fill:#F4D03F; stroke-width:1;stroke:Black;"/>
<text style="font-family:Arial;font-size:6px;kerning:0;word-spacing:-1px;fill:Black;font-weight:bold;">
<tspan x="284" y="341">cht:ObjectTypeCategory (10)</tspan>
</text>
</g>
<g id="2002677867"><polygon points="1041,212 1191,212 1191,282 1041,282 "
style="fill:#F4D03F; stroke-width:1;stroke:Black;"/>
<text style="font-family:Arial;font-size:6px;kerning:0;word-spacing:-1px;fill:Black;font-weight:bold;">
<tspan x="1079" y="220">skos:ConceptScheme (9)</tspan>
</text>
<line x1="1043" y1="221" x2="1190" y2="221"
 style="stroke-width:1;stroke:Black;"/>
<text style="font-family:Arial;font-size:6px;kerning:0;word-spacing:-1px;fill:Black;">
<tspan x="1043" y="227">dct:created (3) [*] </tspan>
<tspan x="1043" y="235">dct:description (1) [*] </tspan>
<tspan x="1043" y="243">dct:modified (1) [*] </tspan>
<tspan x="1043" y="251">dct:subject (1) [*] </tspan>
<tspan x="1043" y="259">dct:title (3) [*] </tspan>
<tspan x="1043" y="267">owl:deprecated (6) [1] </tspan>
<tspan x="1043" y="275">rdf:type (9) [*]  -&gt; IRI</tspan>
<tspan x="1043" y="283">rdfs:label (6) [*] </tspan>
</text>
</g>
<g id="2002677889"><polygon points="193,556 343,556 343,581 193,581 "
style="fill:#F4D03F; stroke-width:1;stroke:Black;"/>
<text style="font-family:Arial;font-size:6px;kerning:0;word-spacing:-1px;fill:Black;font-weight:bold;">
<tspan x="230" y="564">swc:CandidateConcept (1)</tspan>
</text>
<line x1="195" y1="565" x2="342" y2="565"
 style="stroke-width:1;stroke:Black;"/>
<text style="font-family:Arial;font-size:6px;kerning:0;word-spacing:-1px;fill:Black;">
<tspan x="195" y="571">dct:created (1) [*] </tspan>
<tspan x="195" y="579">rdf:type (1) [*]  -&gt; IRI</tspan>
</text>
</g>
<g id="2002677911"><polygon points="609,81 759,81 759,104 609,104 "
style="fill:#F4D03F; stroke-width:1;stroke:Black;"/>
<text style="font-family:Arial;font-size:6px;kerning:0;word-spacing:-1px;fill:Black;font-weight:bold;">
<tspan x="652" y="89">rce:SourceHolder (34)</tspan>
</text>
</g>
<g id="2002677922"><polygon points="467,387 617,387 617,409 467,409 "
style="fill:#F4D03F; stroke-width:1;stroke:Black;"/>
<text style="font-family:Arial;font-size:6px;kerning:0;word-spacing:-1px;fill:Black;font-weight:bold;">
<tspan x="518" y="395">rce:Source (258)</tspan>
</text>
</g>
<g id="2002677933"><polygon points="840,318 990,318 990,351 840,351 "
style="fill:#F4D03F; stroke-width:1;stroke:Black;"/>
<polygon points="838,320 988,320 988,353 838,353 "
style="fill:#F4D03F; stroke-width:1;stroke:Black;"/>
<text style="font-family:Arial;font-size:6px;kerning:0;word-spacing:-1px;fill:Black;font-weight:bold;">
<tspan x="840" y="328">rnce:SourceHolder or rnce:ConceptStatus G101 (~</tspan>
<tspan x="908" y="336">41)</tspan>
</text>
<text style="font-family:Arial;font-size:6px;kerning:0;word-spacing:-1px;fill:Black;font-weight:bold;">
<tspan x="840" y="343">rnce:ConceptStatus (6)</tspan>
<tspan x="840" y="351">rnce:SourceHolder (35)</tspan>
</text>
</g>
<g id="2002677944"><polygon points="314,402 464,402 464,425 314,425 "
style="fill:#F4D03F; stroke-width:1;stroke:Black;"/>
<text style="font-family:Arial;font-size:6px;kerning:0;word-spacing:-1px;fill:Black;font-weight:bold;">
<tspan x="335" y="410">dct:LocationPeriodOrJurisdiction (21)</tspan>
</text>
</g>
<g id="2002677955"><polygon points="493,5 643,5 643,53 493,53 "
style="fill:#F4D03F; stroke-width:1;stroke:Black;"/>
<text style="font-family:Arial;font-size:6px;kerning:0;word-spacing:-1px;fill:Black;font-weight:bold;">
<tspan x="544" y="13">sws:Concept (1)</tspan>
</text>
<line x1="495" y1="14" x2="642" y2="14"
 style="stroke-width:1;stroke:Black;"/>
<text style="font-family:Arial;font-size:6px;kerning:0;word-spacing:-1px;fill:Black;">
<tspan x="495" y="20">rdf:type (1) [*]  -&gt; IRI</tspan>
<tspan x="495" y="28">skos:prefLabel (1) [*] </tspan>
<tspan x="495" y="36">sws:note (1) [1] D</tspan>
<tspan x="495" y="44">sws:score (1) [1] D</tspan>
<tspan x="495" y="52">swwf:date (1) [1] D</tspan>
</text>
</g>
<g id="2002677988"><polygon points="581,418 731,418 731,488 581,488 "
style="fill:#F4D03F; stroke-width:1;stroke:Black;"/>
<text style="font-family:Arial;font-size:6px;kerning:0;word-spacing:-1px;fill:Black;font-weight:bold;">
<tspan x="627" y="426">skos:Collection (11)</tspan>
</text>
<line x1="583" y1="427" x2="730" y2="427"
 style="stroke-width:1;stroke:Black;"/>
<text style="font-family:Arial;font-size:6px;kerning:0;word-spacing:-1px;fill:Black;">
<tspan x="583" y="433">dct:created (4) [*] </tspan>
<tspan x="583" y="441">dct:description (4) [*] </tspan>
<tspan x="583" y="449">dct:modified (2) [*] </tspan>
<tspan x="583" y="457">dct:title (4) [*] </tspan>
<tspan x="583" y="465">owl:deprecated (7) [1] </tspan>
<tspan x="583" y="473">rdf:type (13) [*]  -&gt; IRI</tspan>
<tspan x="583" y="481">rdfs:label (9) [*] </tspan>
<tspan x="583" y="489">skos:notation (1) [1] </tspan>
</text>
</g>
<g id="2002678032"><polygon points="118,453 268,453 268,501 118,501 "
style="fill:#F4D03F; stroke-width:1;stroke:Black;"/>
<text style="font-family:Arial;font-size:6px;kerning:0;word-spacing:-1px;fill:Black;font-weight:bold;">
<tspan x="154" y="461">swurigen:UriGenSetting (4)</tspan>
</text>
<line x1="120" y1="462" x2="267" y2="462"
 style="stroke-width:1;stroke:Black;"/>
<text style="font-family:Arial;font-size:6px;kerning:0;word-spacing:-1px;fill:Black;">
<tspan x="120" y="468">rdf:type (4) [*]  -&gt; IRI</tspan>
<tspan x="120" y="476">swurigen:generateUrisForNotations (4) [1] D</tspan>
<tspan x="120" y="484">swurigen:method (4) [1] D</tspan>
<tspan x="120" y="492">swurigen:settingIdentifier (4) [1] D</tspan>
<tspan x="120" y="500">swurigen:target (4) [1] D -&gt; IRI</tspan>
</text>
</g>
<g id="2002678043"><polygon points="358,76 508,76 508,101 358,101 "
style="fill:#F4D03F; stroke-width:1;stroke:Black;"/>
<text style="font-family:Arial;font-size:6px;kerning:0;word-spacing:-1px;fill:Black;font-weight:bold;">
<tspan x="398" y="84">swe:OrderDefinition (30)</tspan>
</text>
<line x1="360" y1="85" x2="507" y2="85"
 style="stroke-width:1;stroke:Black;"/>
<text style="font-family:Arial;font-size:6px;kerning:0;word-spacing:-1px;fill:Black;">
<tspan x="360" y="91">rdf:type (30) [*]  -&gt; IRI</tspan>
<tspan x="360" y="99">sw-l:position (30) [1] D</tspan>
</text>
</g>
<g id="2002678054"><polygon points="682,384 832,384 832,406 682,406 "
style="fill:#F4D03F; stroke-width:1;stroke:Black;"/>
<text style="font-family:Arial;font-size:6px;kerning:0;word-spacing:-1px;fill:Black;font-weight:bold;">
<tspan x="718" y="392">cht:Fysiek-kenmerk (1094)</tspan>
</text>
</g>
<g id="2002678076"><polygon points="156,61 306,61 306,109 156,109 "
style="fill:#F4D03F; stroke-width:1;stroke:Black;"/>
<text style="font-family:Arial;font-size:6px;kerning:0;word-spacing:-1px;fill:Black;font-weight:bold;">
<tspan x="186" y="69">swm:MappingCandidateSet (7)</tspan>
</text>
<line x1="158" y1="70" x2="305" y2="70"
 style="stroke-width:1;stroke:Black;"/>
<text style="font-family:Arial;font-size:6px;kerning:0;word-spacing:-1px;fill:Black;">
<tspan x="158" y="76">dct:created (7) [*] </tspan>
<tspan x="158" y="84">dct:date (7) [1] </tspan>
<tspan x="158" y="92">rdf:type (7) [*]  -&gt; IRI</tspan>
<tspan x="158" y="100">swm:sourceProject (7) [1] D</tspan>
<tspan x="158" y="108">swm:targetProject (7) [1] D</tspan>
</text>
</g>
<g id="2002678087"><polygon points="658,317 808,317 808,365 658,365 "
style="fill:#F4D03F; stroke-width:1;stroke:Black;"/>
<text style="font-family:Arial;font-size:6px;kerning:0;word-spacing:-1px;fill:Black;font-weight:bold;">
<tspan x="697" y="325">rnce:ChtConcept (2.9e4)</tspan>
</text>
<line x1="660" y1="326" x2="807" y2="326"
 style="stroke-width:1;stroke:Black;"/>
<text style="font-family:Arial;font-size:6px;kerning:0;word-spacing:-1px;fill:Black;">
<tspan x="660" y="332">dbo:abstract (2) [1] D</tspan>
<tspan x="660" y="340">owl:sameAs (5) [*] D -&gt; IRI</tspan>
<tspan x="660" y="348">rnce:reference (667) [*] D</tspan>
<tspan x="660" y="356">rnce:sourceIdCht (2770) [*] D</tspan>
<tspan x="660" y="364">srce:hasImage2 (1) [1] D</tspan>
</text>
</g>
<g id="2002678109"><polygon points="193,229 343,229 343,262 193,262 "
style="fill:#F4D03F; stroke-width:1;stroke:Black;"/>
<text style="font-family:Arial;font-size:6px;kerning:0;word-spacing:-1px;fill:Black;font-weight:bold;">
<tspan x="233" y="237">swb:blacklistedTerm (2)</tspan>
</text>
<line x1="195" y1="238" x2="342" y2="238"
 style="stroke-width:1;stroke:Black;"/>
<text style="font-family:Arial;font-size:6px;kerning:0;word-spacing:-1px;fill:Black;">
<tspan x="195" y="244">rdf:type (2) [*]  -&gt; IRI</tspan>
<tspan x="195" y="252">swb:language (2) [1] D</tspan>
<tspan x="195" y="260">swb:term (2) [1] D</tspan>
</text>
</g>
<g id="2002678120"><polygon points="5,318 155,318 155,388 5,388 "
style="fill:#F4D03F; stroke-width:1;stroke:Black;"/>
<text style="font-family:Arial;font-size:6px;kerning:0;word-spacing:-1px;fill:Black;font-weight:bold;">
<tspan x="45" y="326">cht:CHTconcept (2.3e4)</tspan>
</text>
<line x1="7" y1="327" x2="154" y2="327"
 style="stroke-width:1;stroke:Black;"/>
<text style="font-family:Arial;font-size:6px;kerning:0;word-spacing:-1px;fill:Black;">
<tspan x="7" y="333">dct:source (67 46%d) [*] D -&gt; IRI</tspan>
<tspan x="7" y="341">foaf:page (3) [*] D -&gt; IRI</tspan>
<tspan x="7" y="349">rnce:locationSpecificationCht (177) [*] D</tspan>
<tspan x="7" y="357">rnce:memorieVanToelichting (22) [1] D</tspan>
<tspan x="7" y="365">rnce:opmerkingen (5) [1] D</tspan>
<tspan x="7" y="373">skosxl:altLabel (7) [*] D -&gt; IRI</tspan>
<tspan x="7" y="381">skosxl:prefLabel (3) [*] D -&gt; IRI</tspan>
<tspan x="7" y="389">swp:excludeFromExtraction (7) [1] D</tspan>
</text>
</g>
<g id="2002678131"><polygon points="202,149 352,149 352,212 202,212 "
style="fill:#F4D03F; stroke-width:1;stroke:Black;"/>
<text style="font-family:Arial;font-size:6px;kerning:0;word-spacing:-1px;fill:Black;font-weight:bold;">
<tspan x="232" y="157">swm:MappingCandidate (2497)</tspan>
</text>
<line x1="204" y1="158" x2="351" y2="158"
 style="stroke-width:1;stroke:Black;"/>
<text style="font-family:Arial;font-size:6px;kerning:0;word-spacing:-1px;fill:Black;">
<tspan x="204" y="164">rdf:type (2497) [*]  -&gt; IRI</tspan>
<tspan x="204" y="172">swm:decision (898) [1] D -&gt; IRI</tspan>
<tspan x="204" y="180">swm:rank (2497) [1] </tspan>
<tspan x="204" y="188">swm:reason (2497) [1] D</tspan>
<tspan x="204" y="196">swm:sourcePrefLabel (2497) [1] D</tspan>
<tspan x="204" y="204">swm:status (2497) [1] D</tspan>
<tspan x="204" y="212">swm:targetPrefLabel (2497) [1] D</tspan>
</text>
</g>
<g id="2002677966"><polygon points="192,611 342,611 342,636 192,636 "
style="fill:#F4D03F; stroke-width:1;stroke:Black;"/>
<text style="font-family:Arial;font-size:6px;kerning:0;word-spacing:-1px;fill:Black;font-weight:bold;">
<tspan x="229" y="619">swc:CandidateRelation (1)</tspan>
</text>
<line x1="194" y1="620" x2="341" y2="620"
 style="stroke-width:1;stroke:Black;"/>
<text style="font-family:Arial;font-size:6px;kerning:0;word-spacing:-1px;fill:Black;">
<tspan x="194" y="626">rdf:type (1) [*]  -&gt; IRI</tspan>
<tspan x="194" y="634">swc:relationType (1) [1] D</tspan>
</text>
</g>
<g id="2002677845"><polygon points="1014,397 1164,397 1164,497 1014,497 "
style="fill:#F4D03F; stroke-width:1;stroke:Black;"/>
<text style="font-family:Arial;font-size:6px;kerning:0;word-spacing:-1px;fill:Black;font-weight:bold;">
<tspan x="1055" y="405">swt:ExportTemplate (2)</tspan>
</text>
<line x1="1016" y1="406" x2="1163" y2="406"
 style="stroke-width:1;stroke:Black;"/>
<text style="font-family:Arial;font-size:6px;kerning:0;word-spacing:-1px;fill:Black;">
<tspan x="1016" y="412">dct:created (2) [*] </tspan>
<tspan x="1016" y="420">dct:date (2) [1] </tspan>
<tspan x="1016" y="428">dct:modified (1) [*] </tspan>
<tspan x="1016" y="436">rdf:type (2) [*]  -&gt; IRI</tspan>
<tspan x="1016" y="444">rdfs:label (2) [*] </tspan>
<tspan x="1016" y="452">swt:action (2) [1] D -&gt; IRI</tspan>
<tspan x="1016" y="460">swt:compress (2) [1] D</tspan>
<tspan x="1016" y="468">swt:format (2) [1] D</tspan>
<tspan x="1016" y="476">swt:graph (1) [1] D -&gt; IRI</tspan>
<tspan x="1016" y="484">swt:module (2) [1] D</tspan>
<tspan x="1016" y="492">swt:prettyPrint (2) [1] D</tspan>
<tspan x="1016" y="500">swt:target (27) [*] D -&gt; IRI</tspan>
</text>
</g>
<g id="2002677878"><polygon points="808,615 958,615 958,648 808,648 "
style="fill:#F4D03F; stroke-width:1;stroke:Black;"/>
<text style="font-family:Arial;font-size:6px;kerning:0;word-spacing:-1px;fill:Black;font-weight:bold;">
<tspan x="853" y="623">swppcm:Property (4)</tspan>
</text>
<line x1="810" y1="624" x2="957" y2="624"
 style="stroke-width:1;stroke:Black;"/>
<text style="font-family:Arial;font-size:6px;kerning:0;word-spacing:-1px;fill:Black;">
<tspan x="810" y="630">rdf:type (4) [*]  -&gt; IRI</tspan>
<tspan x="810" y="638">swppcm:predicate (4) [1] D -&gt; IRI</tspan>
<tspan x="810" y="646">swppcm:predicateInverse (3) [1] D -&gt; IRI</tspan>
</text>
</g>
<g id="2002677823"><polygon points="813,473 963,473 963,595 813,595 "
style="fill:#F4D03F; stroke-width:1;stroke:Black;"/>
<text style="font-family:Arial;font-size:6px;kerning:0;word-spacing:-1px;fill:Black;font-weight:bold;">
<tspan x="865" y="481">void:Dataset (1)</tspan>
</text>
<line x1="815" y1="482" x2="962" y2="482"
 style="stroke-width:1;stroke:Black;"/>
<text style="font-family:Arial;font-size:6px;kerning:0;word-spacing:-1px;fill:Black;">
<tspan x="815" y="488">dct:date (1) [1] </tspan>
<tspan x="815" y="496">dct:description (4) [*] </tspan>
<tspan x="815" y="504">dct:language (1) [1] D</tspan>
<tspan x="815" y="512">dct:license (1) [1]  -&gt; IRI</tspan>
<tspan x="815" y="520">dct:subject (4) [*] </tspan>
<tspan x="815" y="528">dct:title (4) [*] </tspan>
<tspan x="815" y="536">rdf:type (1) [*]  -&gt; IRI</tspan>
<tspan x="815" y="544">sw:availablelanguages (6) [*] D</tspan>
<tspan x="815" y="552">sw:numberOfConceptSchemes (6) [*] D</tspan>
<tspan x="815" y="560">sw:numberOfConcepts (6) [*] D</tspan>
<tspan x="815" y="568">void:dataDump (9) [*] D -&gt; IRI</tspan>
<tspan x="815" y="576">void:sparqlEndpoint (1) [1] D -&gt; IRI</tspan>
<tspan x="815" y="584">void:vocabulary (1) [1] D -&gt; IRI</tspan>
</text>
</g>
<g id="2002677812"><polygon points="562,622 712,622 712,647 562,647 "
style="fill:#F4D03F; stroke-width:1;stroke:Black;"/>
<text style="font-family:Arial;font-size:6px;kerning:0;word-spacing:-1px;fill:Black;font-weight:bold;">
<tspan x="607" y="630">swppcm:Settings (1)</tspan>
</text>
<line x1="564" y1="631" x2="711" y2="631"
 style="stroke-width:1;stroke:Black;"/>
<text style="font-family:Arial;font-size:6px;kerning:0;word-spacing:-1px;fill:Black;">
<tspan x="564" y="637">rdf:type (1) [*]  -&gt; IRI</tspan>
<tspan x="564" y="645">swppcm:enabled (1) [1] D</tspan>
</text>
</g>
<g id="2002678021"><polygon points="914,8 1064,8 1064,55 914,55 "
style="fill:#F4D03F; stroke-width:1;stroke:Black;"/>
<text style="font-family:Arial;font-size:6px;kerning:0;word-spacing:-1px;fill:Black;font-weight:bold;">
<tspan x="935" y="16">adms:SemanticAssetDistribution (36)</tspan>
</text>
<line x1="916" y1="17" x2="1063" y2="17"
 style="stroke-width:1;stroke:Black;"/>
<text style="font-family:Arial;font-size:6px;kerning:0;word-spacing:-1px;fill:Black;">
<tspan x="916" y="23">adms:accessURL (40) [*] D -&gt; IRI</tspan>
<tspan x="916" y="31">adms:status (12) [1]  -&gt; IRI</tspan>
<tspan x="916" y="39">dct:format (36) [1] </tspan>
<tspan x="916" y="47">dct:title (36) [*] </tspan>
<tspan x="916" y="55">rdf:type (36) [*]  -&gt; IRI</tspan>
</text>
</g>
<g id="2002678010"><polygon points="960,90 1110,90 1110,187 960,187 "
style="fill:#F4D03F; stroke-width:1;stroke:Black;"/>
<text style="font-family:Arial;font-size:6px;kerning:0;word-spacing:-1px;fill:Black;font-weight:bold;">
<tspan x="999" y="98">adms:SemanticAsset (3)</tspan>
</text>
<line x1="962" y1="99" x2="1109" y2="99"
 style="stroke-width:1;stroke:Black;"/>
<text style="font-family:Arial;font-size:6px;kerning:0;word-spacing:-1px;fill:Black;">
<tspan x="962" y="105">adms:metadataLanguage (2) [1] D -&gt; IRI</tspan>
<tspan x="962" y="113">adms:status (2) [1]  -&gt; IRI</tspan>
<tspan x="962" y="121">dct:created (3) [*] </tspan>
<tspan x="962" y="129">dct:identifier (3) [1] D -&gt; IRI</tspan>
<tspan x="962" y="137">dct:license (3) [1]  -&gt; IRI</tspan>
<tspan x="962" y="145">dct:title (12) [*] </tspan>
<tspan x="962" y="153">foaf:homepage (3) [1] D -&gt; IRI</tspan>
<tspan x="962" y="161">rad:keyword (12) [*] D</tspan>
<tspan x="962" y="169">rad:version (3) [1] D</tspan>
<tspan x="962" y="177">rdf:type (3) [*]  -&gt; IRI</tspan>
</text>
</g>
<g id="2002678098"><polygon points="724,138 874,138 874,163 724,163 "
style="fill:#F4D03F; stroke-width:1;stroke:Black;"/>
<text style="font-family:Arial;font-size:6px;kerning:0;word-spacing:-1px;fill:Black;font-weight:bold;">
<tspan x="778" y="146">dct:Agent (24)</tspan>
</text>
<line x1="726" y1="147" x2="873" y2="147"
 style="stroke-width:1;stroke:Black;"/>
<text style="font-family:Arial;font-size:6px;kerning:0;word-spacing:-1px;fill:Black;">
<tspan x="726" y="153">foaf:name (26) [*] D</tspan>
<tspan x="726" y="161">rdf:type (24) [*]  -&gt; IRI</tspan>
</text>
</g>
<g id="2002677977"><polygon points="467,119 617,119 617,323 467,323 "
style="fill:#F4D03F; stroke-width:1;stroke:Black;"/>
<text style="font-family:Arial;font-size:6px;kerning:0;word-spacing:-1px;fill:Black;font-weight:bold;">
<tspan x="511" y="127">skos:Concept (3.1e4)</tspan>
</text>
<line x1="469" y1="128" x2="616" y2="128"
 style="stroke-width:1;stroke:Black;"/>
<text style="font-family:Arial;font-size:6px;kerning:0;word-spacing:-1px;fill:Black;">
<tspan x="469" y="134">dct:created (2.9e4) [*] </tspan>
<tspan x="469" y="142">dct:modified (9783) [*] </tspan>
<tspan x="469" y="150">owl:deprecated (1823) [1] </tspan>
<tspan x="469" y="158">qskos:labelOverlap (1816) [*] D -&gt; IRI</tspan>
<tspan x="469" y="166">qskos:memberOfValuelessAssociativeRelation </tspan>
<tspan x="469" y="174">(1552) [*] D -&gt; IRI</tspan>
<tspan x="469" y="182">rdf:type (8.4e4) [*]  -&gt; IRI</tspan>
<tspan x="469" y="190">rdfs:label (1825) [*] </tspan>
<tspan x="469" y="198">rnce:image (3253) [*] D -&gt; IRI</tspan>
<tspan x="469" y="206">rnce:link (213) [*] D -&gt; IRI</tspan>
<tspan x="469" y="214">rnce:specification (344) [*] D</tspan>
<tspan x="469" y="222">skos:altLabel (3.3e4) [*] D</tspan>
<tspan x="469" y="230">skos:changeNote (4) [*] D -&gt; IRI</tspan>
<tspan x="469" y="238">skos:closeMatch (1486) [*]  -&gt; IRI</tspan>
<tspan x="469" y="246">skos:definition (92) [*] D</tspan>
<tspan x="469" y="254">skos:editorialNote (26) [*] D -&gt; IRI</tspan>
<tspan x="469" y="262">skos:example (3) [1] D</tspan>
<tspan x="469" y="270">skos:hiddenLabel (224) [*] D</tspan>
<tspan x="469" y="278">skos:historyNote (2) [1] D -&gt; IRI</tspan>
<tspan x="469" y="286">skos:notation (7) [1] </tspan>
<tspan x="469" y="294">skos:prefLabel (3.5e4) [*] </tspan>
<tspan x="469" y="302">skos:scopeNote (2.4e4) [*] D</tspan>
<tspan x="469" y="310">sw-p:propagateType (12) [1] D -&gt; IRI</tspan>
<tspan x="469" y="318">swn:corpusStatistic (4063) [*] D -&gt; IRI</tspan>
</text>
</g>
<g id="2002677900"><polygon points="444,344 594,344 594,366 444,366 "
style="fill:#F4D03F; stroke-width:1;stroke:Black;"/>
<text style="font-family:Arial;font-size:6px;kerning:0;word-spacing:-1px;fill:Black;font-weight:bold;">
<tspan x="493" y="352">rnce:Source (260)</tspan>
</text>
</g>
<g id="2002678065"><polygon points="599,555 749,555 749,587 599,587 "
style="fill:#F4D03F; stroke-width:1;stroke:Black;"/>
<text style="font-family:Arial;font-size:6px;kerning:0;word-spacing:-1px;fill:Black;font-weight:bold;">
<tspan x="638" y="563">void:TechnicalFeature (8)</tspan>
</text>
<line x1="601" y1="564" x2="748" y2="564"
 style="stroke-width:1;stroke:Black;"/>
<text style="font-family:Arial;font-size:6px;kerning:0;word-spacing:-1px;fill:Black;">
<tspan x="601" y="570">dct:format (8) [1] </tspan>
<tspan x="601" y="578">rdf:type (8) [*]  -&gt; IRI</tspan>
<tspan x="601" y="586">rdfs:label (8) [*] </tspan>
</text>
</g>
<g id="2002677999"><polygon points="425,494 575,494 575,526 425,526 "
style="fill:#F4D03F; stroke-width:1;stroke:Black;"/>
<text style="font-family:Arial;font-size:6px;kerning:0;word-spacing:-1px;fill:Black;font-weight:bold;">
<tspan x="461" y="502">skos:OrderedCollection (1)</tspan>
</text>
<line x1="427" y1="503" x2="574" y2="503"
 style="stroke-width:1;stroke:Black;"/>
<text style="font-family:Arial;font-size:6px;kerning:0;word-spacing:-1px;fill:Black;">
<tspan x="427" y="509">dct:created (1) [*] </tspan>
<tspan x="427" y="517">dct:description (1) [*] </tspan>
<tspan x="427" y="525">dct:title (1) [*] </tspan>
</text>
</g>
<g id="2002677572"><path d="M693,185 L617,185 "
style="fill:none;stroke-width:1;stroke:Black;"/>
<line x1="620" y1="183" x2="617" y2="185"
 style="stroke-width:1;stroke:Black;"/>
<line x1="620" y1="186" x2="617" y2="185"
 style="stroke-width:1;stroke:Black;"/>
<text style="font-family:Arial;font-size:6px;kerning:0;word-spacing:-1px;fill:Black;">
<tspan x="619" y="191">rnce:isConceptStatusOf  R</tspan>
</text>
</g>
<g id="2002677577"><path d="M485,442 L518,442 520,441 521,439 521,415 522,413 524,412 617,412 619,411 620,409 620,320 617,320 "
style="fill:none;stroke-width:1;stroke:Black;"/>
<line x1="620" y1="319" x2="617" y2="320"
 style="stroke-width:1;stroke:Black;"/>
<line x1="620" y1="322" x2="617" y2="320"
 style="stroke-width:1;stroke:Black;"/>
<text style="font-family:Arial;font-size:6px;kerning:0;word-spacing:-1px;fill:Black;">
<tspan x="487" y="441">rdf:first  DR</tspan>
</text>
</g>
<g id="2002677582"><path d="M617,146 L689,146 691,145 692,143 692,104 "
style="fill:none;stroke-width:1;stroke:Black;"/>
<line x1="691" y1="107" x2="692" y2="104"
 style="stroke-width:1;stroke:Black;"/>
<line x1="694" y1="107" x2="692" y2="104"
 style="stroke-width:1;stroke:Black;"/>
<text style="font-family:Arial;font-size:6px;kerning:0;word-spacing:-1px;fill:Black;">
<tspan x="619" y="145">rnce:hasSourceHolder  D</tspan>
</text>
</g>
<g id="2002677587"><path d="M682,393 L629,393 627,392 626,390 626,387 625,385 623,384 155,384 "
style="fill:none;stroke-width:1;stroke:Black;"/>
<line x1="158" y1="382" x2="155" y2="384"
 style="stroke-width:1;stroke:Black;"/>
<line x1="158" y1="385" x2="155" y2="384"
 style="stroke-width:1;stroke:Black;"/>
<text style="font-family:Arial;font-size:6px;kerning:0;word-spacing:-1px;fill:Black;">
<tspan x="630" y="400">cht:isShapeOf  DR</tspan>
</text>
</g>
<g id="2002677597"><path d="M1041,215 L975,215 973,214 972,212 972,212 973,210 975,209 1108,209 1108,212 "
style="fill:none;stroke-width:1;stroke:Black;"/>
<line x1="1107" y1="209" x2="1108" y2="212"
 style="stroke-width:1;stroke:Black;"/>
<line x1="1110" y1="209" x2="1108" y2="212"
 style="stroke-width:1;stroke:Black;"/>
<text style="font-family:Arial;font-size:6px;kerning:0;word-spacing:-1px;fill:Black;">
<tspan x="989" y="222">dct:isReplacedBy  </tspan>
</text>
</g>
<g id="2002677602"><path d="M1014,437 L931,437 "
style="fill:none;stroke-width:1;stroke:Black;"/>
<line x1="934" y1="435" x2="931" y2="437"
 style="stroke-width:1;stroke:Black;"/>
<line x1="934" y1="438" x2="931" y2="437"
 style="stroke-width:1;stroke:Black;"/>
<text style="font-family:Arial;font-size:6px;kerning:0;word-spacing:-1px;fill:Black;">
<tspan x="977" y="443">dct:creator  R</tspan>
</text>
</g>
<g id="2002677607"><path d="M617,251 L1041,251 "
style="fill:none;stroke-width:1;stroke:Black;"/>
<line x1="1038" y1="250" x2="1041" y2="251"
 style="stroke-width:1;stroke:Black;"/>
<line x1="1038" y1="253" x2="1041" y2="251"
 style="stroke-width:1;stroke:Black;"/>
<text style="font-family:Arial;font-size:6px;kerning:0;word-spacing:-1px;fill:Black;">
<tspan x="619" y="235">dct:isReplacedBy  </tspan>
<tspan x="619" y="243">skos:inScheme  DR</tspan>
<tspan x="619" y="251">skos:topConceptOf  DR</tspan>
</text>
</g>
<g id="2002677612"><path d="M960,145 L874,145 "
style="fill:none;stroke-width:1;stroke:Black;"/>
<line x1="877" y1="143" x2="874" y2="145"
 style="stroke-width:1;stroke:Black;"/>
<line x1="877" y1="146" x2="874" y2="145"
 style="stroke-width:1;stroke:Black;"/>
<text style="font-family:Arial;font-size:6px;kerning:0;word-spacing:-1px;fill:Black;">
<tspan x="877" y="151">adms:metadataPublisher  DR</tspan>
</text>
</g>
<g id="2002677622"><path d="M1041,226 L617,226 "
style="fill:none;stroke-width:1;stroke:Black;"/>
<line x1="620" y1="224" x2="617" y2="226"
 style="stroke-width:1;stroke:Black;"/>
<line x1="620" y1="227" x2="617" y2="226"
 style="stroke-width:1;stroke:Black;"/>
<text style="font-family:Arial;font-size:6px;kerning:0;word-spacing:-1px;fill:Black;">
<tspan x="968" y="232">dct:isReplacedBy  </tspan>
<tspan x="968" y="240">skos:hasTopConcept  DR</tspan>
</text>
</g>
<g id="2002677627"><path d="M352,195 L467,195 "
style="fill:none;stroke-width:1;stroke:Black;"/>
<line x1="464" y1="194" x2="467" y2="195"
 style="stroke-width:1;stroke:Black;"/>
<line x1="464" y1="197" x2="467" y2="195"
 style="stroke-width:1;stroke:Black;"/>
<text style="font-family:Arial;font-size:6px;kerning:0;word-spacing:-1px;fill:Black;">
<tspan x="354" y="194">swm:source  DR</tspan>
</text>
</g>
<g id="2002677632"><path d="M617,304 L755,304 757,305 758,307 758,317 "
style="fill:none;stroke-width:1;stroke:Black;"/>
<line x1="756" y1="314" x2="758" y2="317"
 style="stroke-width:1;stroke:Black;"/>
<line x1="759" y1="314" x2="758" y2="317"
 style="stroke-width:1;stroke:Black;"/>
<text style="font-family:Arial;font-size:6px;kerning:0;word-spacing:-1px;fill:Black;">
<tspan x="619" y="295">skos:exactMatch  </tspan>
<tspan x="619" y="303">skos:relatedMatch  D</tspan>
</text>
</g>
<g id="2002677642"><path d="M609,92 L536,92 534,93 533,95 533,119 "
style="fill:none;stroke-width:1;stroke:Black;"/>
<line x1="531" y1="116" x2="533" y2="119"
 style="stroke-width:1;stroke:Black;"/>
<line x1="534" y1="116" x2="533" y2="119"
 style="stroke-width:1;stroke:Black;"/>
<text style="font-family:Arial;font-size:6px;kerning:0;word-spacing:-1px;fill:Black;">
<tspan x="537" y="99">rnce:isSourceHolderOf  R</tspan>
</text>
</g>
<g id="2002677652"><path d="M251,337 L155,337 "
style="fill:none;stroke-width:1;stroke:Black;"/>
<line x1="158" y1="335" x2="155" y2="337"
 style="stroke-width:1;stroke:Black;"/>
<line x1="158" y1="338" x2="155" y2="337"
 style="stroke-width:1;stroke:Black;"/>
<text style="font-family:Arial;font-size:6px;kerning:0;word-spacing:-1px;fill:Black;">
<tspan x="158" y="343">rnce:isObjectTypeCategoryOf  DR</tspan>
</text>
</g>
<g id="2002677657"><path d="M352,206 L401,206 403,207 404,209 404,402 "
style="fill:none;stroke-width:1;stroke:Black;"/>
<line x1="402" y1="399" x2="404" y2="402"
 style="stroke-width:1;stroke:Black;"/>
<line x1="405" y1="399" x2="404" y2="402"
 style="stroke-width:1;stroke:Black;"/>
<text style="font-family:Arial;font-size:6px;kerning:0;word-spacing:-1px;fill:Black;">
<tspan x="354" y="205">swm:target  D</tspan>
</text>
</g>
<g id="2002677662"><path d="M581,449 L527,449 525,448 524,446 524,418 525,416 527,415 620,415 622,414 623,412 623,320 622,318 620,317 617,317 "
style="fill:none;stroke-width:1;stroke:Black;"/>
<line x1="620" y1="316" x2="617" y2="317"
 style="stroke-width:1;stroke:Black;"/>
<line x1="620" y1="319" x2="617" y2="317"
 style="stroke-width:1;stroke:Black;"/>
<text style="font-family:Arial;font-size:6px;kerning:0;word-spacing:-1px;fill:Black;">
<tspan x="529" y="455">skos:member  DR</tspan>
</text>
</g>
<g id="2002677667"><path d="M343,564 L398,564 "
style="fill:none;stroke-width:1;stroke:Black;"/>
<line x1="395" y1="563" x2="398" y2="564"
 style="stroke-width:1;stroke:Black;"/>
<line x1="395" y1="566" x2="398" y2="564"
 style="stroke-width:1;stroke:Black;"/>
<text style="font-family:Arial;font-size:6px;kerning:0;word-spacing:-1px;fill:Black;">
<tspan x="345" y="563">swc:prefLabel  DR</tspan>
</text>
</g>
<g id="2002677672"><path d="M467,315 L413,315 411,316 410,318 410,326 411,328 413,329 444,329 446,330 447,332 447,344 "
style="fill:none;stroke-width:1;stroke:Black;"/>
<line x1="446" y1="341" x2="447" y2="344"
 style="stroke-width:1;stroke:Black;"/>
<line x1="449" y1="341" x2="447" y2="344"
 style="stroke-width:1;stroke:Black;"/>
<text style="font-family:Arial;font-size:6px;kerning:0;word-spacing:-1px;fill:Black;">
<tspan x="414" y="321">rnce:hasSource  D</tspan>
</text>
</g>
<g id="2002677677"><path d="M335,437 L305,437 303,436 302,434 302,431 303,429 305,428 410,428 410,431 "
style="fill:none;stroke-width:1;stroke:Black;"/>
<line x1="408" y1="428" x2="410" y2="431"
 style="stroke-width:1;stroke:Black;"/>
<line x1="411" y1="428" x2="410" y2="431"
 style="stroke-width:1;stroke:Black;"/>
<text style="font-family:Arial;font-size:6px;kerning:0;word-spacing:-1px;fill:Black;">
<tspan x="307" y="443">rdf:rest  D</tspan>
</text>
</g>
<g id="2002677692"><path d="M575,502 L731,502 733,501 734,499 734,446 735,444 737,443 781,443 "
style="fill:none;stroke-width:1;stroke:Black;"/>
<line x1="778" y1="441" x2="781" y2="443"
 style="stroke-width:1;stroke:Black;"/>
<line x1="778" y1="444" x2="781" y2="443"
 style="stroke-width:1;stroke:Black;"/>
<text style="font-family:Arial;font-size:6px;kerning:0;word-spacing:-1px;fill:Black;">
<tspan x="578" y="501">dct:creator  R</tspan>
</text>
</g>
<g id="2002677702"><path d="M731,438 L781,438 "
style="fill:none;stroke-width:1;stroke:Black;"/>
<line x1="778" y1="437" x2="781" y2="438"
 style="stroke-width:1;stroke:Black;"/>
<line x1="778" y1="440" x2="781" y2="438"
 style="stroke-width:1;stroke:Black;"/>
<text style="font-family:Arial;font-size:6px;kerning:0;word-spacing:-1px;fill:Black;">
<tspan x="733" y="430">dct:creator  R</tspan>
<tspan x="733" y="438">dct:contributor  R</tspan>
</text>
</g>
<g id="2002677712"><path d="M617,201 L693,201 "
style="fill:none;stroke-width:1;stroke:Black;"/>
<line x1="690" y1="199" x2="693" y2="201"
 style="stroke-width:1;stroke:Black;"/>
<line x1="690" y1="202" x2="693" y2="201"
 style="stroke-width:1;stroke:Black;"/>
<text style="font-family:Arial;font-size:6px;kerning:0;word-spacing:-1px;fill:Black;">
<tspan x="619" y="200">rnce:hasConceptStatus  D</tspan>
</text>
</g>
<g id="2002677722"><path d="M617,286 L832,286 834,287 835,289 835,413 "
style="fill:none;stroke-width:1;stroke:Black;"/>
<line x1="834" y1="410" x2="835" y2="413"
 style="stroke-width:1;stroke:Black;"/>
<line x1="837" y1="410" x2="835" y2="413"
 style="stroke-width:1;stroke:Black;"/>
<text style="font-family:Arial;font-size:6px;kerning:0;word-spacing:-1px;fill:Black;">
<tspan x="619" y="277">dct:creator  R</tspan>
<tspan x="619" y="285">dct:contributor  R</tspan>
</text>
</g>
<g id="2002677727"><path d="M467,182 L408,182 406,181 405,179 405,101 "
style="fill:none;stroke-width:1;stroke:Black;"/>
<line x1="403" y1="104" x2="405" y2="101"
 style="stroke-width:1;stroke:Black;"/>
<line x1="406" y1="104" x2="405" y2="101"
 style="stroke-width:1;stroke:Black;"/>
<text style="font-family:Arial;font-size:6px;kerning:0;word-spacing:-1px;fill:Black;">
<tspan x="417" y="189">sw-l:orderedBy  D</tspan>
</text>
</g>
<g id="2002677732"><path d="M467,127 L411,127 409,126 408,124 408,125 409,123 411,122 467,122 "
style="fill:none;stroke-width:1;stroke:Black;"/>
<line x1="464" y1="120" x2="467" y2="122"
 style="stroke-width:1;stroke:Black;"/>
<line x1="464" y1="123" x2="467" y2="122"
 style="stroke-width:1;stroke:Black;"/>
<text style="font-family:Arial;font-size:6px;kerning:0;word-spacing:-1px;fill:Black;">
<tspan x="412" y="133">dct:isReplacedBy  </tspan>
<tspan x="412" y="141">skos:narrower  DR</tspan>
<tspan x="412" y="149">skos:broader  DR</tspan>
<tspan x="412" y="157">skos:related  DR</tspan>
<tspan x="412" y="165">skos:narrowMatch  </tspan>
<tspan x="412" y="173">skos:broadMatch  </tspan>
<tspan x="412" y="181">sw-p:inSubtree  D</tspan>
</text>
</g>
<g id="2002677737"><path d="M428,494 L428,485 427,483 425,482 335,482 333,481 332,479 332,447 335,447 "
style="fill:none;stroke-width:1;stroke:Black;"/>
<line x1="332" y1="446" x2="335" y2="447"
 style="stroke-width:1;stroke:Black;"/>
<line x1="332" y1="449" x2="335" y2="447"
 style="stroke-width:1;stroke:Black;"/>
<text style="font-family:Arial;font-size:6px;kerning:0;word-spacing:-1px;fill:Black;">
<tspan x="367" y="492">skos:memberList  DR</tspan>
</text>
</g>
<g id="2002677747"><path d="M155,381 L726,381 726,384 "
style="fill:none;stroke-width:1;stroke:Black;"/>
<line x1="724" y1="381" x2="726" y2="384"
 style="stroke-width:1;stroke:Black;"/>
<line x1="727" y1="381" x2="726" y2="384"
 style="stroke-width:1;stroke:Black;"/>
<text style="font-family:Arial;font-size:6px;kerning:0;word-spacing:-1px;fill:Black;">
<tspan x="158" y="380">cht:hasShape  DR</tspan>
</text>
</g>
<g id="2002677752"><path d="M155,353 L251,353 "
style="fill:none;stroke-width:1;stroke:Black;"/>
<line x1="248" y1="351" x2="251" y2="353"
 style="stroke-width:1;stroke:Black;"/>
<line x1="248" y1="354" x2="251" y2="353"
 style="stroke-width:1;stroke:Black;"/>
<text style="font-family:Arial;font-size:6px;kerning:0;word-spacing:-1px;fill:Black;">
<tspan x="158" y="352">rnce:hasObjectTypeCategory  DR</tspan>
</text>
</g>
<g id="2002677757"><path d="M542,366 L542,387 "
style="fill:none;stroke-width:1;stroke:Fuchsia;"/>
<polygon points="544,371 542,366 539,371 "
style="fill:Silver;stroke-width:1;stroke:Black;"/>
<text style="font-family:Arial;font-size:6px;kerning:0;word-spacing:-1px;fill:Black;">
<tspan x="543" y="374"> </tspan>
</text>
</g>
<g id="2002677759"><path d="M617,268 L910,268 912,269 913,271 913,320 "
style="fill:none;stroke-width:1;stroke:Fuchsia;"/>
<polygon points="622,270 617,268 622,265 "
style="fill:Silver;stroke-width:1;stroke:Black;"/>
<text style="font-family:Arial;font-size:6px;kerning:0;word-spacing:-1px;fill:Black;">
<tspan x="619" y="267"> </tspan>
</text>
</g>
<g id="2002677761"><path d="M617,314 L708,314 708,317 "
style="fill:none;stroke-width:1;stroke:Fuchsia;"/>
<polygon points="622,317 617,314 622,312 "
style="fill:Silver;stroke-width:1;stroke:Black;"/>
<text style="font-family:Arial;font-size:6px;kerning:0;word-spacing:-1px;fill:Black;">
<tspan x="619" y="313"> </tspan>
</text>
</g>
<g id="2002677765"><path d="M80,388 L80,396 81,398 83,399 359,399 359,402 "
style="fill:none;stroke-width:1;stroke:Fuchsia;"/>
<polygon points="83,393 80,388 78,393 "
style="fill:Silver;stroke-width:1;stroke:Black;"/>
<text style="font-family:Arial;font-size:6px;kerning:0;word-spacing:-1px;fill:Black;">
<tspan x="82" y="395"> </tspan>
</text>
</g>
<g id="2002677769"><path d="M770,365 L770,384 "
style="fill:none;stroke-width:1;stroke:Fuchsia;"/>
<polygon points="772,370 770,365 767,370 "
style="fill:Silver;stroke-width:1;stroke:Black;"/>
<text style="font-family:Arial;font-size:6px;kerning:0;word-spacing:-1px;fill:Black;">
<tspan x="771" y="372"> </tspan>
</text>
</g>
<g id="2002677771"><path d="M714,365 L714,375 713,377 711,378 437,378 435,379 434,381 434,402 "
style="fill:none;stroke-width:1;stroke:Fuchsia;"/>
<polygon points="716,370 714,365 711,370 "
style="fill:Silver;stroke-width:1;stroke:Black;"/>
<text style="font-family:Arial;font-size:6px;kerning:0;word-spacing:-1px;fill:Black;">
<tspan x="715" y="372"> </tspan>
</text>
</g>
<g id="2002677773"><path d="M541,323 L541,344 "
style="fill:none;stroke-width:1;stroke:Fuchsia;"/>
<polygon points="544,328 541,323 539,328 "
style="fill:Silver;stroke-width:1;stroke:Black;"/>
<text style="font-family:Arial;font-size:6px;kerning:0;word-spacing:-1px;fill:Black;">
<tspan x="543" y="331"> </tspan>
</text>
</g>
<g id="2002677775"><path d="M467,301 L329,301 327,302 326,304 326,333 "
style="fill:none;stroke-width:1;stroke:Fuchsia;"/>
<polygon points="462,304 467,301 462,299 "
style="fill:Silver;stroke-width:1;stroke:Black;"/>
<text style="font-family:Arial;font-size:6px;kerning:0;word-spacing:-1px;fill:Black;">
<tspan x="460" y="308"> </tspan>
</text>
</g>
<g id="2002677777"><path d="M467,291 L83,291 81,292 80,294 80,318 "
style="fill:none;stroke-width:1;stroke:Fuchsia;"/>
<polygon points="462,293 467,291 462,288 "
style="fill:Silver;stroke-width:1;stroke:Black;"/>
<text style="font-family:Arial;font-size:6px;kerning:0;word-spacing:-1px;fill:Black;">
<tspan x="460" y="297"> </tspan>
</text>
</g>
<g id="2002677687"><path d="M325,581 L325,611 "
style="fill:none;stroke-width:1;stroke:Black;"/>
<line x1="324" y1="608" x2="325" y2="611"
 style="stroke-width:1;stroke:Black;"/>
<line x1="327" y1="608" x2="325" y2="611"
 style="stroke-width:1;stroke:Black;"/>
<text style="font-family:Arial;font-size:6px;kerning:0;word-spacing:-1px;fill:Black;">
<tspan x="327" y="588">swc:broader  DR</tspan>
</text>
</g>
<g id="2002677617"><path d="M1041,267 L1002,267 1000,268 999,270 999,422 998,424 996,425 931,425 "
style="fill:none;stroke-width:1;stroke:Black;"/>
<line x1="934" y1="423" x2="931" y2="425"
 style="stroke-width:1;stroke:Black;"/>
<line x1="934" y1="426" x2="931" y2="425"
 style="stroke-width:1;stroke:Black;"/>
<text style="font-family:Arial;font-size:6px;kerning:0;word-spacing:-1px;fill:Black;">
<tspan x="1003" y="273">dct:creator  R</tspan>
</text>
</g>
<g id="2002677697"><path d="M712,638 L808,638 "
style="fill:none;stroke-width:1;stroke:Black;"/>
<line x1="805" y1="636" x2="808" y2="638"
 style="stroke-width:1;stroke:Black;"/>
<line x1="805" y1="639" x2="808" y2="638"
 style="stroke-width:1;stroke:Black;"/>
<text style="font-family:Arial;font-size:6px;kerning:0;word-spacing:-1px;fill:Black;">
<tspan x="714" y="629">swppcm:contextProperties  DR</tspan>
<tspan x="714" y="637">swppcm:negativeProperties  DR</tspan>
</text>
</g>
<g id="2002677682"><path d="M1024,55 L1024,90 "
style="fill:none;stroke-width:1;stroke:Black;"/>
<line x1="1022" y1="87" x2="1024" y2="90"
 style="stroke-width:1;stroke:Black;"/>
<line x1="1025" y1="87" x2="1024" y2="90"
 style="stroke-width:1;stroke:Black;"/>
<text style="font-family:Arial;font-size:6px;kerning:0;word-spacing:-1px;fill:Black;">
<tspan x="1025" y="63">rad:distributionOf  DR</tspan>
</text>
</g>
<g id="2002677707"><path d="M965,90 L965,55 "
style="fill:none;stroke-width:1;stroke:Black;"/>
<line x1="964" y1="58" x2="965" y2="55"
 style="stroke-width:1;stroke:Black;"/>
<line x1="967" y1="58" x2="965" y2="55"
 style="stroke-width:1;stroke:Black;"/>
<text style="font-family:Arial;font-size:6px;kerning:0;word-spacing:-1px;fill:Black;">
<tspan x="912" y="88">rad:distribution  DR</tspan>
</text>
</g>
<g id="2002677742"><path d="M270,109 L270,149 "
style="fill:none;stroke-width:1;stroke:Black;"/>
<line x1="268" y1="146" x2="270" y2="149"
 style="stroke-width:1;stroke:Black;"/>
<line x1="271" y1="146" x2="270" y2="149"
 style="stroke-width:1;stroke:Black;"/>
<text style="font-family:Arial;font-size:6px;kerning:0;word-spacing:-1px;fill:Black;">
<tspan x="271" y="116">swm:result  DR</tspan>
</text>
</g>
<g id="2002677647"><path d="M224,149 L224,109 "
style="fill:none;stroke-width:1;stroke:Black;"/>
<line x1="222" y1="112" x2="224" y2="109"
 style="stroke-width:1;stroke:Black;"/>
<line x1="225" y1="112" x2="224" y2="109"
 style="stroke-width:1;stroke:Black;"/>
<text style="font-family:Arial;font-size:6px;kerning:0;word-spacing:-1px;fill:Black;">
<tspan x="135" y="147">swm:containingCandidateSet  D</tspan>
</text>
</g>
<g id="2002677637"><path d="M504,344 L504,332 504,332 506,331 507,329 507,323 "
style="fill:none;stroke-width:1;stroke:Black;"/>
<line x1="505" y1="326" x2="507" y2="323"
 style="stroke-width:1;stroke:Black;"/>
<line x1="508" y1="326" x2="507" y2="323"
 style="stroke-width:1;stroke:Black;"/>
<text style="font-family:Arial;font-size:6px;kerning:0;word-spacing:-1px;fill:Black;">
<tspan x="452" y="342">rnce:isSourceOf  R</tspan>
</text>
</g>
<g id="2002677592"><path d="M813,576 L749,576 "
style="fill:none;stroke-width:1;stroke:Black;"/>
<line x1="752" y1="575" x2="749" y2="576"
 style="stroke-width:1;stroke:Black;"/>
<line x1="752" y1="578" x2="749" y2="576"
 style="stroke-width:1;stroke:Black;"/>
<text style="font-family:Arial;font-size:6px;kerning:0;word-spacing:-1px;fill:Black;">
<tspan x="768" y="583">void:feature  DR</tspan>
</text>
</g>
<g id="2002677717"><path d="M813,483 L761,483 759,482 758,480 758,451 759,449 761,448 781,448 "
style="fill:none;stroke-width:1;stroke:Black;"/>
<line x1="778" y1="446" x2="781" y2="448"
 style="stroke-width:1;stroke:Black;"/>
<line x1="778" y1="449" x2="781" y2="448"
 style="stroke-width:1;stroke:Black;"/>
<text style="font-family:Arial;font-size:6px;kerning:0;word-spacing:-1px;fill:Black;">
<tspan x="764" y="490">dct:creator  R</tspan>
<tspan x="764" y="498">dct:contributor  R</tspan>
<tspan x="764" y="506">dct:publisher  DR</tspan>
</text>
</g>
</svg>
