<?xml version="1.0" encoding="UTF-8" standalone="no"?>
<!DOCTYPE svg PUBLIC "-//W3C//DTD SVG 1.1//EN"
"http://www.w3.org/Graphics/SVG/1.1/DTD/svg11.dtd">
<svg version="1.1" xmlns="http://www.w3.org/2000/svg"
xmlns:xlink="http://www.w3.org/1999/xlink" xml:space="preserve"
 width="1196" height="582" viewBox="0 0 1196 582">
 onmousemove="movetip(evt)" onmouseup="endmove()">
<rect x="0" y="0" width="100%" height="100%" style="fill:White;"/>
<script type="application/ecmascript"> <![CDATA[
var dragtipid = null; var dragcase = false; function init(evt){
if (window.svgDocument==null) svgDocument = evt.target.ownerDocument;
}
function movetip(evt){if (dragtipid!=null){ dragcase = true;
var tip=svgDocument.getElementById(dragtipid);
tip.setAttributeNS(null,"x",evt.clientX-2);
tip.setAttributeNS(null,"y",evt.clientY-2);
}}
function endmove(){dragtipid = null;}
function startmove(evt,id){dragtipid = id; dragcase = false;
var tip=svgDocument.getElementById(dragtipid);
tip.setAttributeNS(null,"x",evt.clientX-2);
tip.setAttributeNS(null,"y",evt.clientY-2);
}
function Showtip(evt,id){ dragtipid = null;
var tip=svgDocument.getElementById(id);
var vis=tip.getAttributeNS(null,"visibility");
if (vis=="hidden"){
tip.setAttributeNS(null,"x",evt.clientX-2);
tip.setAttributeNS(null,"y",evt.clientY-2);
tip.setAttributeNS(null,"visibility","visible");
}}
function Hidetip(id){ dragtipid = null; if (dragcase==false){
var tip=svgDocument.getElementById(id);
tip.setAttributeNS(null,"visibility","hidden");
}}
]]></script>
<defs><linearGradient id="activ1" x1="0%" y1="0%" x2="100%" y2="0%">
<stop offset="0%" style="stop-color:#FFFF00;stop-opacity:1"/>
<stop offset="100%" style="stop-color:#FFFFF0;stop-opacity:1"/>
</linearGradient></defs>
<g id="2002677189"><polygon points="391,139 581,139 581,340 391,340 "
style="fill:#F4D03F; stroke-width:1;stroke:Black;"/>
<text style="font-family:Arial;font-size:12px;kerning:0;word-spacing:-1px;fill:Black;font-weight:bold;">
<tspan x="428" y="154">clr:Composer (8312)</tspan>
</text>
<line x1="395" y1="157" x2="579" y2="157"
 style="stroke-width:1;stroke:Black;"/>
<text style="font-family:Arial;font-size:12px;kerning:0;word-spacing:-1px;fill:Black;">
<tspan x="395" y="169">cl-vocab:gender (246) [1] D</tspan>
<tspan x="395" y="184">cl-vocab:nationality (3183) [*] D</tspan>
<tspan x="395" y="199">cl-vocab:period (2205) [1] D</tspan>
<tspan x="395" y="214">cl-vocab:remarks (432) [1] </tspan>
<tspan x="395" y="229">foaf:based_near (2998) [*] D -&gt; </tspan>
<tspan x="395" y="244">IRI</tspan>
<tspan x="395" y="259">foaf:name (8293) [*] </tspan>
<tspan x="395" y="274">mb-vocab:alias (1.7e4) [*] </tspan>
<tspan x="395" y="289">rdf:type (1.7e4) [*]  -&gt;  owl:Class</tspan>
</text>
</g>
<g id="2002677222"><polygon points="680,282 870,282 870,332 680,332 "
style="fill:#F4D03F; stroke-width:1;stroke:Black;"/>
<text style="font-family:Arial;font-size:12px;kerning:0;word-spacing:-1px;fill:Black;font-weight:bold;">
<tspan x="714" y="297">foaf:Document (5247)</tspan>
</text>
<line x1="684" y1="300" x2="868" y2="300"
 style="stroke-width:1;stroke:Black;"/>
<text style="font-family:Arial;font-size:12px;kerning:0;word-spacing:-1px;fill:Black;">
<tspan x="684" y="312">cl-vocab:siteName (5247) [1] D</tspan>
<tspan x="684" y="327">rdf:type (1.0e4) [*]  -&gt;  owl:Class</tspan>
</text>
</g>
<g id="2002677233"><polygon points="695,127 885,127 885,192 695,192 "
style="fill:#F4D03F; stroke-width:1;stroke:Black;"/>
<text style="font-family:Arial;font-size:12px;kerning:0;word-spacing:-1px;fill:Black;font-weight:bold;">
<tspan x="722" y="142">mo:Composition (2.2e4)</tspan>
</text>
<line x1="699" y1="145" x2="883" y2="145"
 style="stroke-width:1;stroke:Black;"/>
<text style="font-family:Arial;font-size:12px;kerning:0;word-spacing:-1px;fill:Black;">
<tspan x="699" y="157">bio:date (1.3e4) [1] </tspan>
<tspan x="699" y="172">bio:place (597) [1] D</tspan>
<tspan x="699" y="187">rdf:type (4.5e4) [*]  -&gt;  owl:Class</tspan>
</text>
</g>
<g id="2002677244"><polygon points="414,10 604,10 604,75 414,75 "
style="fill:#F4D03F; stroke-width:1;stroke:Black;"/>
<text style="font-family:Arial;font-size:12px;kerning:0;word-spacing:-1px;fill:Black;font-weight:bold;">
<tspan x="466" y="25">bio:Birth (6921)</tspan>
</text>
<line x1="418" y1="28" x2="602" y2="28"
 style="stroke-width:1;stroke:Black;"/>
<text style="font-family:Arial;font-size:12px;kerning:0;word-spacing:-1px;fill:Black;">
<tspan x="418" y="40">bio:date (6921) [1] </tspan>
<tspan x="418" y="55">cl-vocab:approximate (333) [1] </tspan>
<tspan x="418" y="70">rdf:type (1.4e4) [*]  -&gt;  owl:Class</tspan>
</text>
</g>
<g id="2002677277"><polygon points="996,225 1186,225 1186,380 996,380 "
style="fill:#F4D03F; stroke-width:1;stroke:Black;"/>
<text style="font-family:Arial;font-size:12px;kerning:0;word-spacing:-1px;fill:Black;font-weight:bold;">
<tspan x="1021" y="240">mo:MusicalWork (2.5e4)</tspan>
</text>
<line x1="1000" y1="243" x2="1184" y2="243"
 style="stroke-width:1;stroke:Black;"/>
<text style="font-family:Arial;font-size:12px;kerning:0;word-spacing:-1px;fill:Black;">
<tspan x="1000" y="255">cl-vocab:form (587) [1] D -&gt; IRI</tspan>
<tspan x="1000" y="270">cl-vocab:remarks (7746) [1] </tspan>
<tspan x="1000" y="285">dc:title (2.5e4) [1] </tspan>
<tspan x="1000" y="300">mb-vocab:alias (6888) [*] </tspan>
<tspan x="1000" y="315">mo:catalogue (8624) [1] D</tspan>
<tspan x="1000" y="330">mo:key (3922) [1] D</tspan>
<tspan x="1000" y="345">mo:number (4770) [1] D</tspan>
<tspan x="1000" y="360">mo:opus (6440) [1] D</tspan>
<tspan x="1000" y="375">rdf:type (5.1e4) [*]  -&gt;  owl:Class</tspan>
</text>
</g>
<g id="2002677255"><polygon points="14,154 204,154 204,204 14,204 "
style="fill:#F4D03F; stroke-width:1;stroke:Black;"/>
<text style="font-family:Arial;font-size:12px;kerning:0;word-spacing:-1px;fill:Black;font-weight:bold;">
<tspan x="43" y="169">cmnav:StylePeriod (37)</tspan>
</text>
<line x1="18" y1="172" x2="202" y2="172"
 style="stroke-width:1;stroke:Black;"/>
<text style="font-family:Arial;font-size:12px;kerning:0;word-spacing:-1px;fill:Black;">
<tspan x="18" y="184">dc:title (37) [1] </tspan>
<tspan x="18" y="199">rdf:type (74) [*]  -&gt;  owl:Class</tspan>
</text>
</g>
<g id="2002677211"><polygon points="408,418 598,418 598,483 408,483 "
style="fill:#F4D03F; stroke-width:1;stroke:Black;"/>
<text style="font-family:Arial;font-size:12px;kerning:0;word-spacing:-1px;fill:Black;font-weight:bold;">
<tspan x="456" y="433">bio:Death (4420)</tspan>
</text>
<line x1="412" y1="436" x2="596" y2="436"
 style="stroke-width:1;stroke:Black;"/>
<text style="font-family:Arial;font-size:12px;kerning:0;word-spacing:-1px;fill:Black;">
<tspan x="412" y="448">bio:date (4420) [1] </tspan>
<tspan x="412" y="463">cl-vocab:approximate (331) [1] </tspan>
<tspan x="412" y="478">rdf:type (8840) [*]  -&gt;  owl:Class</tspan>
</text>
</g>
<g id="2002677200"><polygon points="11,259 201,259 201,309 11,309 "
style="fill:#F4D03F; stroke-width:1;stroke:Black;"/>
<text style="font-family:Arial;font-size:12px;kerning:0;word-spacing:-1px;fill:Black;font-weight:bold;">
<tspan x="42" y="274">musim:Similarity (722)</tspan>
</text>
<line x1="15" y1="277" x2="199" y2="277"
 style="stroke-width:1;stroke:Black;"/>
<text style="font-family:Arial;font-size:12px;kerning:0;word-spacing:-1px;fill:Black;">
<tspan x="15" y="289">musim:method (722) [1] D -&gt; IRI</tspan>
<tspan x="15" y="304">rdf:type (1444) [*]  -&gt;  owl:Class</tspan>
</text>
</g>
<g id="2002677167"><polygon points="14,339 204,339 204,389 14,389 "
style="fill:#F4D03F; stroke-width:1;stroke:Black;"/>
<text style="font-family:Arial;font-size:12px;kerning:0;word-spacing:-1px;fill:Black;font-weight:bold;">
<tspan x="64" y="354">clr:Pianist (942)</tspan>
</text>
<line x1="18" y1="357" x2="202" y2="357"
 style="stroke-width:1;stroke:Black;"/>
<text style="font-family:Arial;font-size:12px;kerning:0;word-spacing:-1px;fill:Black;">
<tspan x="18" y="369">foaf:name (942) [*] </tspan>
<tspan x="18" y="384">rdf:type (1884) [*]  -&gt;  owl:Class</tspan>
</text>
</g>
<g id="2002677178"><polygon points="983,462 1173,462 1173,572 983,572 "
style="fill:#F4D03F; stroke-width:1;stroke:Black;"/>
<text style="font-family:Arial;font-size:12px;kerning:0;word-spacing:-1px;fill:Black;font-weight:bold;">
<tspan x="1041" y="477">owl:Class (1)</tspan>
</text>
<line x1="987" y1="480" x2="1171" y2="480"
 style="stroke-width:1;stroke:Black;"/>
<text style="font-family:Arial;font-size:12px;kerning:0;word-spacing:-1px;fill:Black;">
<tspan x="987" y="492">rdf:type (2) [*]  -&gt;  owl:Class</tspan>
<tspan x="987" y="507">rdfs:subClassOf (1) [1] D -&gt; IRI</tspan>
<tspan x="987" y="522">serql:directSubClassOf (1) [1] D -</tspan>
<tspan x="987" y="537">&gt; IRI</tspan>
<tspan x="987" y="552">&lt;-rdf:type (8312)  &lt;-  clr:</tspan>
<tspan x="987" y="567">Composer,rdf:Property..(13)</tspan>
</text>
</g>
<g id="2002677288"><polygon points="757,519 947,519 947,569 757,569 "
style="fill:#F4D03F; stroke-width:1;stroke:Black;"/>
<text style="font-family:Arial;font-size:12px;kerning:0;word-spacing:-1px;fill:Black;font-weight:bold;">
<tspan x="788" y="534">owl:ObjectProperty (2)</tspan>
</text>
<line x1="761" y1="537" x2="945" y2="537"
 style="stroke-width:1;stroke:Black;"/>
<text style="font-family:Arial;font-size:12px;kerning:0;word-spacing:-1px;fill:Black;">
<tspan x="761" y="549">rdf:type (6) [*]  -&gt;  owl:Class</tspan>
<tspan x="761" y="564">rdfs:subPropertyOf (2) [1] D -&gt; IRI</tspan>
</text>
</g>
<g id="2002677156"><polygon points="526,521 716,521 716,566 526,566 "
style="fill:#F4D03F; stroke-width:1;stroke:Black;"/>
<text style="font-family:Arial;font-size:12px;kerning:0;word-spacing:-1px;fill:Black;font-weight:bold;">
<tspan x="575" y="536">rdf:Property (37)</tspan>
</text>
<line x1="530" y1="539" x2="714" y2="539"
 style="stroke-width:1;stroke:Black;"/>
<text style="font-family:Arial;font-size:12px;kerning:0;word-spacing:-1px;fill:Black;">
<tspan x="530" y="551">rdf:type (41) [*]  -&gt;  owl:Class</tspan>
</text>
</g>
<g id="2002677266"><polygon points="10,420 200,420 200,470 10,470 "
style="fill:#F4D03F; stroke-width:1;stroke:Black;"/>
<text style="font-family:Arial;font-size:12px;kerning:0;word-spacing:-1px;fill:Black;font-weight:bold;">
<tspan x="47" y="435">clr:Conductor (1222)</tspan>
</text>
<line x1="14" y1="438" x2="198" y2="438"
 style="stroke-width:1;stroke:Black;"/>
<text style="font-family:Arial;font-size:12px;kerning:0;word-spacing:-1px;fill:Black;">
<tspan x="14" y="450">foaf:name (1223) [*] </tspan>
<tspan x="14" y="465">rdf:type (2444) [*]  -&gt;  owl:Class</tspan>
</text>
</g>
<g id="2002677081"><path d="M201,291 L391,291 "
style="fill:none;stroke-width:1;stroke:Black;"/>
<line x1="385" y1="288" x2="391" y2="291"
 style="stroke-width:1;stroke:Black;"/>
<line x1="385" y1="294" x2="391" y2="291"
 style="stroke-width:1;stroke:Black;"/>
<text style="font-family:Arial;font-size:12px;kerning:0;word-spacing:-1px;fill:Black;">
<tspan x="205" y="274">musim:subject  D</tspan>
<tspan x="205" y="289">musim:object  D</tspan>
</text>
</g>
<g id="2002677086"><path d="M996,294 L870,294 "
style="fill:none;stroke-width:1;stroke:Black;"/>
<line x1="876" y1="291" x2="870" y2="294"
 style="stroke-width:1;stroke:Black;"/>
<line x1="876" y1="297" x2="870" y2="294"
 style="stroke-width:1;stroke:Black;"/>
<text style="font-family:Arial;font-size:12px;kerning:0;word-spacing:-1px;fill:Black;">
<tspan x="935" y="307">foaf:page  </tspan>
</text>
</g>
<g id="2002677096"><path d="M996,252 L836,252 832,250 830,246 830,192 "
style="fill:none;stroke-width:1;stroke:Black;"/>
<line x1="827" y1="198" x2="830" y2="192"
 style="stroke-width:1;stroke:Black;"/>
<line x1="833" y1="198" x2="830" y2="192"
 style="stroke-width:1;stroke:Black;"/>
<text style="font-family:Arial;font-size:12px;kerning:0;word-spacing:-1px;fill:Black;">
<tspan x="871" y="265">mo:composed_in  DR</tspan>
</text>
</g>
<g id="2002677111"><path d="M695,158 L581,158 "
style="fill:none;stroke-width:1;stroke:Black;"/>
<line x1="587" y1="155" x2="581" y2="158"
 style="stroke-width:1;stroke:Black;"/>
<line x1="587" y1="161" x2="581" y2="158"
 style="stroke-width:1;stroke:Black;"/>
<text style="font-family:Arial;font-size:12px;kerning:0;word-spacing:-1px;fill:Black;">
<tspan x="590" y="171">mo:composer  DR</tspan>
</text>
</g>
<g id="2002677116"><path d="M581,314 L680,314 "
style="fill:none;stroke-width:1;stroke:Black;"/>
<line x1="674" y1="311" x2="680" y2="314"
 style="stroke-width:1;stroke:Black;"/>
<line x1="674" y1="317" x2="680" y2="314"
 style="stroke-width:1;stroke:Black;"/>
<text style="font-family:Arial;font-size:12px;kerning:0;word-spacing:-1px;fill:Black;">
<tspan x="585" y="297">foaf:page  </tspan>
<tspan x="585" y="312">mo:wikipedia  D</tspan>
</text>
</g>
<g id="2002677121"><path d="M885,183 L1144,183 1148,185 1150,189 1150,225 "
style="fill:none;stroke-width:1;stroke:Black;"/>
<line x1="1147" y1="219" x2="1150" y2="225"
 style="stroke-width:1;stroke:Black;"/>
<line x1="1153" y1="219" x2="1150" y2="225"
 style="stroke-width:1;stroke:Black;"/>
<text style="font-family:Arial;font-size:12px;kerning:0;word-spacing:-1px;fill:Black;">
<tspan x="889" y="181">mo:produced_work  DR</tspan>
</text>
</g>
<g id="2002677126"><path d="M189,420 L189,389 "
style="fill:none;stroke-width:1;stroke:Black;"/>
<line x1="186" y1="395" x2="189" y2="389"
 style="stroke-width:1;stroke:Black;"/>
<line x1="192" y1="395" x2="189" y2="389"
 style="stroke-width:1;stroke:Black;"/>
<text style="font-family:Arial;font-size:12px;kerning:0;word-spacing:-1px;fill:Black;">
<tspan x="113" y="416">owl:sameAs  </tspan>
</text>
</g>
<g id="2002677131"><path d="M539,340 L539,418 "
style="fill:none;stroke-width:1;stroke:Black;"/>
<line x1="536" y1="412" x2="539" y2="418"
 style="stroke-width:1;stroke:Black;"/>
<line x1="542" y1="412" x2="539" y2="418"
 style="stroke-width:1;stroke:Black;"/>
<text style="font-family:Arial;font-size:12px;kerning:0;word-spacing:-1px;fill:Black;">
<tspan x="541" y="355">cl-vocab:death  DR</tspan>
</text>
</g>
<g id="2002677136"><path d="M391,198 L204,198 "
style="fill:none;stroke-width:1;stroke:Black;"/>
<line x1="210" y1="195" x2="204" y2="198"
 style="stroke-width:1;stroke:Black;"/>
<line x1="210" y1="201" x2="204" y2="198"
 style="stroke-width:1;stroke:Black;"/>
<text style="font-family:Arial;font-size:12px;kerning:0;word-spacing:-1px;fill:Black;">
<tspan x="225" y="211">cmnav:influencedBy  D</tspan>
<tspan x="225" y="226">cmnav:hasInfluenced  D</tspan>
<tspan x="225" y="241">cmnav:from_style_period  DR</tspan>
</text>
</g>
<g id="2002677146"><path d="M870,326 L996,326 "
style="fill:none;stroke-width:1;stroke:Black;"/>
<line x1="990" y1="323" x2="996" y2="326"
 style="stroke-width:1;stroke:Black;"/>
<line x1="990" y1="329" x2="996" y2="326"
 style="stroke-width:1;stroke:Black;"/>
<text style="font-family:Arial;font-size:12px;kerning:0;word-spacing:-1px;fill:Black;">
<tspan x="874" y="324">foaf:primaryTopic  DR</tspan>
</text>
</g>
<g id="2002677151"><path d="M391,145 L251,145 247,143 245,139 245,106 247,102 251,100 382,100 386,102 388,106 388,127 390,131 394,133 397,133 397,139 "
style="fill:none;stroke-width:1;stroke:Black;"/>
<line x1="394" y1="133" x2="397" y2="139"
 style="stroke-width:1;stroke:Black;"/>
<line x1="400" y1="133" x2="397" y2="139"
 style="stroke-width:1;stroke:Black;"/>
<text style="font-family:Arial;font-size:12px;kerning:0;word-spacing:-1px;fill:Black;">
<tspan x="255" y="158">cmnav:influencedBy  D</tspan>
<tspan x="255" y="173">cmnav:hasInfluenced  D</tspan>
</text>
</g>
<g id="2002677091"><path d="M504,139 L504,75 "
style="fill:none;stroke-width:1;stroke:Black;"/>
<line x1="501" y1="81" x2="504" y2="75"
 style="stroke-width:1;stroke:Black;"/>
<line x1="507" y1="81" x2="504" y2="75"
 style="stroke-width:1;stroke:Black;"/>
<text style="font-family:Arial;font-size:12px;kerning:0;word-spacing:-1px;fill:Black;">
<tspan x="406" y="135">cl-vocab:birth  DR</tspan>
</text>
</g>
<g id="2002677101"><path d="M124,259 L124,204 "
style="fill:none;stroke-width:1;stroke:Black;"/>
<line x1="121" y1="210" x2="124" y2="204"
 style="stroke-width:1;stroke:Black;"/>
<line x1="127" y1="210" x2="124" y2="204"
 style="stroke-width:1;stroke:Black;"/>
<text style="font-family:Arial;font-size:12px;kerning:0;word-spacing:-1px;fill:Black;">
<tspan x="25" y="240">musim:subject  D</tspan>
<tspan x="25" y="255">musim:object  D</tspan>
</text>
</g>
<g id="2002677141"><path d="M414,340 L414,365 412,369 408,371 204,371 "
style="fill:none;stroke-width:1;stroke:Black;"/>
<line x1="210" y1="368" x2="204" y2="371"
 style="stroke-width:1;stroke:Black;"/>
<line x1="210" y1="374" x2="204" y2="371"
 style="stroke-width:1;stroke:Black;"/>
<text style="font-family:Arial;font-size:12px;kerning:0;word-spacing:-1px;fill:Black;">
<tspan x="416" y="355">owl:sameAs  </tspan>
</text>
</g>
<g id="2002677106"><path d="M996,348 L843,348 839,350 837,354 837,402 839,406 843,408 1011,408 1015,406 1017,402 1017,380 "
style="fill:none;stroke-width:1;stroke:Black;"/>
<line x1="1014" y1="386" x2="1017" y2="380"
 style="stroke-width:1;stroke:Black;"/>
<line x1="1020" y1="386" x2="1017" y2="380"
 style="stroke-width:1;stroke:Black;"/>
<text style="font-family:Arial;font-size:12px;kerning:0;word-spacing:-1px;fill:Black;">
<tspan x="908" y="361">dc:isPartOf  DR</tspan>
<tspan x="908" y="376">dc:hasPart  DR</tspan>
</text>
</g>
</svg>
