<?xml version="1.0" encoding="UTF-8" standalone="no"?>
<!DOCTYPE svg PUBLIC "-//W3C//DTD SVG 1.1//EN"
"http://www.w3.org/Graphics/SVG/1.1/DTD/svg11.dtd">
<svg version="1.1" xmlns="http://www.w3.org/2000/svg"
xmlns:xlink="http://www.w3.org/1999/xlink" xml:space="preserve"
 width="1077" height="293" viewBox="0 0 1077 293">
 onmousemove="movetip(evt)" onmouseup="endmove()">
<rect x="0" y="0" width="100%" height="100%" style="fill:White;"/>
<script type="application/ecmascript"> <![CDATA[
var dragtipid = null; var dragcase = false; function init(evt){
if (window.svgDocument==null) svgDocument = evt.target.ownerDocument;
}
function movetip(evt){if (dragtipid!=null){ dragcase = true;
var tip=svgDocument.getElementById(dragtipid);
tip.setAttributeNS(null,"x",evt.clientX-2);
tip.setAttributeNS(null,"y",evt.clientY-2);
}}
function endmove(){dragtipid = null;}
function startmove(evt,id){dragtipid = id; dragcase = false;
var tip=svgDocument.getElementById(dragtipid);
tip.setAttributeNS(null,"x",evt.clientX-2);
tip.setAttributeNS(null,"y",evt.clientY-2);
}
function Showtip(evt,id){ dragtipid = null;
var tip=svgDocument.getElementById(id);
var vis=tip.getAttributeNS(null,"visibility");
if (vis=="hidden"){
tip.setAttributeNS(null,"x",evt.clientX-2);
tip.setAttributeNS(null,"y",evt.clientY-2);
tip.setAttributeNS(null,"visibility","visible");
}}
function Hidetip(id){ dragtipid = null; if (dragcase==false){
var tip=svgDocument.getElementById(id);
tip.setAttributeNS(null,"visibility","hidden");
}}
]]></script>
<defs><linearGradient id="activ1" x1="0%" y1="0%" x2="100%" y2="0%">
<stop offset="0%" style="stop-color:#FFFF00;stop-opacity:1"/>
<stop offset="100%" style="stop-color:#FFFFF0;stop-opacity:1"/>
</linearGradient></defs>
<g id="2002675246"><polygon points="414,26 710,26 710,181 414,181 "
style="fill:#F4D03F; stroke-width:1;stroke:Black;"/>
<polygon points="411,29 707,29 707,184 411,184 "
style="fill:#F4D03F; stroke-width:1;stroke:Black;"/>
<text style="font-family:Arial;font-size:12px;kerning:0;word-spacing:-1px;fill:Black;font-weight:bold;">
<tspan x="436" y="44">anaee:ExperimentalPlot et al. G101 (~826)</tspan>
</text>
<line x1="415" y1="47" x2="705" y2="47"
 style="stroke-width:1;stroke:Black;"/>
<text style="font-family:Arial;font-size:12px;kerning:0;word-spacing:-1px;fill:Black;">
<tspan x="415" y="59">foaf:homepage (20) [1]  -&gt; IRI</tspan>
<tspan x="415" y="74">geo:lat (30) [1] D</tspan>
<tspan x="415" y="89">geo:long (30) [1] D</tspan>
<tspan x="415" y="104">rdfs:comment (1646) [*] </tspan>
<tspan x="415" y="119">rdfs:label (1650) [*] </tspan>
<tspan x="415" y="134">rdfs:subClassOf (1) [1] D -&gt; IRI</tspan>
</text>
<text style="font-family:Arial;font-size:11px;kerning:0;word-spacing:-1px;fill:Black;font-weight:bold;">
<tspan x="415" y="149">anaee:ExperimentalBlock (62)</tspan>
<tspan x="415" y="164">anaee:ExperimentalPlot (733)</tspan>
<tspan x="415" y="179">anaee:ExperimentalSite (31)</tspan>
</text>
</g>
<g id="2002675257"><polygon points="10,100 310,100 310,150 10,150 "
style="fill:#F4D03F; stroke-width:1;stroke:Black;"/>
<text style="font-family:Arial;font-size:12px;kerning:0;word-spacing:-1px;fill:Black;font-weight:bold;">
<tspan x="100" y="115">org:Organization (16)</tspan>
</text>
<line x1="14" y1="118" x2="308" y2="118"
 style="stroke-width:1;stroke:Black;"/>
<text style="font-family:Arial;font-size:12px;kerning:0;word-spacing:-1px;fill:Black;">
<tspan x="14" y="130">foaf:homepage (16) [1]  -&gt; IRI</tspan>
<tspan x="14" y="145">skos:prefLabel (16) [1] D</tspan>
</text>
</g>
<g id="2002675279"><polygon points="760,33 1060,33 1060,78 760,78 "
style="fill:#F4D03F; stroke-width:1;stroke:Black;"/>
<text style="font-family:Arial;font-size:12px;kerning:0;word-spacing:-1px;fill:Black;font-weight:bold;">
<tspan x="873" y="48">foaf:agent (1)</tspan>
</text>
</g>
<g id="2002675290"><polygon points="767,105 1067,105 1067,155 767,155 "
style="fill:#F4D03F; stroke-width:1;stroke:Black;"/>
<text style="font-family:Arial;font-size:12px;kerning:0;word-spacing:-1px;fill:Black;font-weight:bold;">
<tspan x="872" y="120">dcat:Catalog (1)</tspan>
</text>
<line x1="771" y1="123" x2="1065" y2="123"
 style="stroke-width:1;stroke:Black;"/>
<text style="font-family:Arial;font-size:12px;kerning:0;word-spacing:-1px;fill:Black;">
<tspan x="771" y="135">:description (1) [1] </tspan>
<tspan x="771" y="150">:title (1) [1] </tspan>
</text>
</g>
<g id="2002675268"><polygon points="388,233 688,233 688,283 388,283 "
style="fill:#F4D03F; stroke-width:1;stroke:Black;"/>
<text style="font-family:Arial;font-size:12px;kerning:0;word-spacing:-1px;fill:Black;font-weight:bold;">
<tspan x="483" y="248">vcard:Individual (50)</tspan>
</text>
<line x1="392" y1="251" x2="686" y2="251"
 style="stroke-width:1;stroke:Black;"/>
<text style="font-family:Arial;font-size:12px;kerning:0;word-spacing:-1px;fill:Black;">
<tspan x="392" y="263">vcard:hasEmail (50) [1] D</tspan>
<tspan x="392" y="278">vcard:hasName (50) [1] D</tspan>
</text>
</g>
<g id="2002675211"><path d="M597,184 L597,233 "
style="fill:none;stroke-width:1;stroke:Black;"/>
<line x1="594" y1="227" x2="597" y2="233"
 style="stroke-width:1;stroke:Black;"/>
<line x1="600" y1="227" x2="597" y2="233"
 style="stroke-width:1;stroke:Black;"/>
<text style="font-family:Arial;font-size:12px;kerning:0;word-spacing:-1px;fill:Black;">
<tspan x="599" y="199">dcat:contactPoint  DR</tspan>
</text>
</g>
<g id="2002675216"><path d="M462,233 L462,184 "
style="fill:none;stroke-width:1;stroke:Black;"/>
<line x1="459" y1="190" x2="462" y2="184"
 style="stroke-width:1;stroke:Black;"/>
<line x1="465" y1="190" x2="462" y2="184"
 style="stroke-width:1;stroke:Black;"/>
<text style="font-family:Arial;font-size:12px;kerning:0;word-spacing:-1px;fill:Black;">
<tspan x="415" y="229">rdf:type  </tspan>
</text>
</g>
<g id="2002675221"><path d="M310,144 L411,144 "
style="fill:none;stroke-width:1;stroke:Black;"/>
<line x1="405" y1="141" x2="411" y2="144"
 style="stroke-width:1;stroke:Black;"/>
<line x1="405" y1="147" x2="411" y2="144"
 style="stroke-width:1;stroke:Black;"/>
<text style="font-family:Arial;font-size:12px;kerning:0;word-spacing:-1px;fill:Black;">
<tspan x="314" y="142">rdf:type  </tspan>
</text>
</g>
<g id="2002675226"><path d="M760,59 L707,59 "
style="fill:none;stroke-width:1;stroke:Black;"/>
<line x1="713" y1="56" x2="707" y2="59"
 style="stroke-width:1;stroke:Black;"/>
<line x1="713" y1="62" x2="707" y2="59"
 style="stroke-width:1;stroke:Black;"/>
<text style="font-family:Arial;font-size:12px;kerning:0;word-spacing:-1px;fill:Black;">
<tspan x="711" y="72">rdf:type  </tspan>
</text>
</g>
<g id="2002675231"><path d="M411,112 L310,112 "
style="fill:none;stroke-width:1;stroke:Black;"/>
<line x1="316" y1="109" x2="310" y2="112"
 style="stroke-width:1;stroke:Black;"/>
<line x1="316" y1="115" x2="310" y2="112"
 style="stroke-width:1;stroke:Black;"/>
<text style="font-family:Arial;font-size:12px;kerning:0;word-spacing:-1px;fill:Black;">
<tspan x="342" y="125">:creator  DR</tspan>
</text>
</g>
<g id="2002675241"><path d="M411,36 L353,36 349,34 347,30 347,16 349,12 353,10 532,10 536,12 538,16 538,29 "
style="fill:none;stroke-width:1;stroke:Black;"/>
<line x1="535" y1="23" x2="538" y2="29"
 style="stroke-width:1;stroke:Black;"/>
<line x1="541" y1="23" x2="538" y2="29"
 style="stroke-width:1;stroke:Black;"/>
<text style="font-family:Arial;font-size:12px;kerning:0;word-spacing:-1px;fill:Black;">
<tspan x="355" y="49">:hasPart  </tspan>
<tspan x="355" y="64">rdf:type  </tspan>
</text>
</g>
<g id="2002675206"><path d="M918,105 L918,78 "
style="fill:none;stroke-width:1;stroke:Black;"/>
<line x1="915" y1="84" x2="918" y2="78"
 style="stroke-width:1;stroke:Black;"/>
<line x1="921" y1="84" x2="918" y2="78"
 style="stroke-width:1;stroke:Black;"/>
<text style="font-family:Arial;font-size:12px;kerning:0;word-spacing:-1px;fill:Black;">
<tspan x="837" y="101">:publisher  DR</tspan>
</text>
</g>
<g id="2002675236"><path d="M767,111 L707,111 "
style="fill:none;stroke-width:1;stroke:Black;"/>
<line x1="713" y1="108" x2="707" y2="111"
 style="stroke-width:1;stroke:Black;"/>
<line x1="713" y1="114" x2="707" y2="111"
 style="stroke-width:1;stroke:Black;"/>
<text style="font-family:Arial;font-size:12px;kerning:0;word-spacing:-1px;fill:Black;">
<tspan x="711" y="124">:hasPart  </tspan>
<tspan x="711" y="139">rdf:type  </tspan>
</text>
</g>
</svg>
