<?xml version="1.0" encoding="UTF-8" standalone="no"?>
<!DOCTYPE svg PUBLIC "-//W3C//DTD SVG 1.1//EN"
"http://www.w3.org/Graphics/SVG/1.1/DTD/svg11.dtd">
<svg version="1.1" xmlns="http://www.w3.org/2000/svg"
xmlns:xlink="http://www.w3.org/1999/xlink" xml:space="preserve"
 width="1069" height="673" viewBox="0 0 1069 673">
 onmousemove="movetip(evt)" onmouseup="endmove()">
<rect x="0" y="0" width="100%" height="100%" style="fill:White;"/>
<script type="application/ecmascript"> <![CDATA[
var dragtipid = null; var dragcase = false; function init(evt){
if (window.svgDocument==null) svgDocument = evt.target.ownerDocument;
}
function movetip(evt){if (dragtipid!=null){ dragcase = true;
var tip=svgDocument.getElementById(dragtipid);
tip.setAttributeNS(null,"x",evt.clientX-2);
tip.setAttributeNS(null,"y",evt.clientY-2);
}}
function endmove(){dragtipid = null;}
function startmove(evt,id){dragtipid = id; dragcase = false;
var tip=svgDocument.getElementById(dragtipid);
tip.setAttributeNS(null,"x",evt.clientX-2);
tip.setAttributeNS(null,"y",evt.clientY-2);
}
function Showtip(evt,id){ dragtipid = null;
var tip=svgDocument.getElementById(id);
var vis=tip.getAttributeNS(null,"visibility");
if (vis=="hidden"){
tip.setAttributeNS(null,"x",evt.clientX-2);
tip.setAttributeNS(null,"y",evt.clientY-2);
tip.setAttributeNS(null,"visibility","visible");
}}
function Hidetip(id){ dragtipid = null; if (dragcase==false){
var tip=svgDocument.getElementById(id);
tip.setAttributeNS(null,"visibility","hidden");
}}
]]></script>
<defs><linearGradient id="activ1" x1="0%" y1="0%" x2="100%" y2="0%">
<stop offset="0%" style="stop-color:#FFFF00;stop-opacity:1"/>
<stop offset="100%" style="stop-color:#FFFFF0;stop-opacity:1"/>
</linearGradient></defs>
<g id="2002676386"><polygon points="880,269 1059,269 1059,314 880,314 "
style="fill:#F4D03F; stroke-width:1;stroke:Black;"/>
<text style="font-family:Arial;font-size:12px;kerning:0;word-spacing:-1px;fill:Black;font-weight:bold;">
<tspan x="900" y="284">bcn-n:Rectification (395)</tspan>
</text>
<line x1="884" y1="287" x2="1057" y2="287"
 style="stroke-width:1;stroke:Black;"/>
<text style="font-family:Arial;font-size:12px;kerning:0;word-spacing:-1px;fill:Black;">
<tspan x="884" y="299">rdf:type (1938) [*]  -&gt; IRI</tspan>
</text>
</g>
<g id="2002676397"><polygon points="73,599 373,599 373,644 73,644 "
style="fill:#F4D03F; stroke-width:1;stroke:Black;"/>
<text style="font-family:Arial;font-size:12px;kerning:0;word-spacing:-1px;fill:Black;font-weight:bold;">
<tspan x="168" y="614">bcn-n:Treaty (2875)</tspan>
</text>
<line x1="77" y1="617" x2="371" y2="617"
 style="stroke-width:1;stroke:Black;"/>
<text style="font-family:Arial;font-size:12px;kerning:0;word-spacing:-1px;fill:Black;">
<tspan x="77" y="629">bcn-n:isTreatyWith (2184) [*] D -&gt; IRI</tspan>
</text>
</g>
<g id="2002676408"><polygon points="71,483 371,483 371,563 71,563 "
style="fill:#F4D03F; stroke-width:1;stroke:Black;"/>
<text style="font-family:Arial;font-size:12px;kerning:0;word-spacing:-1px;fill:Black;font-weight:bold;">
<tspan x="179" y="498">frbr:Subject (5)</tspan>
</text>
<line x1="75" y1="501" x2="369" y2="501"
 style="stroke-width:1;stroke:Black;"/>
<text style="font-family:Arial;font-size:12px;kerning:0;word-spacing:-1px;fill:Black;">
<tspan x="75" y="513">bcn-n:hasTag (5) [1] D</tspan>
<tspan x="75" y="528">rdf:type (5) [*]  -&gt; IRI</tspan>
<tspan x="75" y="543">rdfs:label (5) [*] </tspan>
<tspan x="75" y="558">skos:prefLabel (5) [*] </tspan>
</text>
</g>
<g id="2002676430"><polygon points="456,185 756,185 756,481 456,481 "
style="fill:#F4D03F; stroke-width:1;stroke:Black;"/>
<polygon points="453,188 753,188 753,484 453,484 "
style="fill:#F4D03F; stroke-width:1;stroke:Black;"/>
<text style="font-family:Arial;font-size:12px;kerning:0;word-spacing:-1px;fill:Black;font-weight:bold;">
<tspan x="506" y="203">foaf:Document et al. G101 (7.5e5)</tspan>
</text>
<line x1="457" y1="206" x2="751" y2="206"
 style="stroke-width:1;stroke:Black;"/>
<text style="font-family:Arial;font-size:12px;kerning:0;word-spacing:-1px;fill:Black;">
<tspan x="457" y="218">bcn-n:createdBy (7.5e5) [1] D -&gt; IRI</tspan>
<tspan x="457" y="233">bcn-n:hasNumber (7.7e5) [*] D</tspan>
<tspan x="457" y="248">bcn-n:leychileCode (7.5e5) [*] D</tspan>
<tspan x="457" y="263">bcn-n:promulgationDate (5.3e5) [*] </tspan>
<tspan x="457" y="278">bcn-n:publishDate (7.7e5) [*] </tspan>
<tspan x="457" y="293">bcn-n:type (7.5e5) [1] D -&gt; IRI</tspan>
<tspan x="457" y="308">dc:identifier (4198) [1] </tspan>
<tspan x="457" y="323">dc:language (5.1e5) [1] D</tspan>
<tspan x="457" y="338">dc:title (7.7e5) [*] </tspan>
<tspan x="457" y="353">rdf:type (3.0e6) [*]  -&gt; IRI</tspan>
<tspan x="457" y="368">rdfs:label (8.0e5) [*] </tspan>
<tspan x="457" y="383">skos:prefLabel (5.5e5) [*] </tspan>
</text>
<text style="font-family:Arial;font-size:11px;kerning:0;word-spacing:-1px;fill:Black;font-weight:bold;">
<tspan x="457" y="398">bcn-n:Norm (7.5e5)</tspan>
<tspan x="457" y="413">bcn-r:Documento (7.5e5)</tspan>
<tspan x="457" y="428">foaf:Document (7.5e5)</tspan>
</text>
</g>
<g id="2002676441"><polygon points="286,16 586,16 586,69 286,69 "
style="fill:#F4D03F; stroke-width:1;stroke:Black;"/>
<text style="font-family:Arial;font-size:12px;kerning:0;word-spacing:-1px;fill:Black;font-weight:bold;">
<tspan x="362" y="31">bcn-n:RecastedText (324)</tspan>
</text>
<line x1="290" y1="34" x2="584" y2="34"
 style="stroke-width:1;stroke:Black;"/>
<text style="font-family:Arial;font-size:12px;kerning:0;word-spacing:-1px;fill:Black;">
<tspan x="290" y="46">rdf:type (1487) [*]  -&gt; IRI</tspan>
</text>
</g>
<g id="2002676463"><polygon points="67,380 287,380 287,425 67,425 "
style="fill:#F4D03F; stroke-width:1;stroke:Black;"/>
<text style="font-family:Arial;font-size:12px;kerning:0;word-spacing:-1px;fill:Black;font-weight:bold;">
<tspan x="91" y="395">bcn-n:CategoryByKeyword (5)</tspan>
</text>
</g>
<g id="2002676452"><polygon points="69,268 344,268 344,313 69,313 "
style="fill:#F4D03F; stroke-width:1;stroke:Black;"/>
<text style="font-family:Arial;font-size:12px;kerning:0;word-spacing:-1px;fill:Black;font-weight:bold;">
<tspan x="153" y="283">skos:Collection (6)</tspan>
</text>
<line x1="73" y1="286" x2="342" y2="286"
 style="stroke-width:1;stroke:Black;"/>
<text style="font-family:Arial;font-size:12px;kerning:0;word-spacing:-1px;fill:Black;">
<tspan x="73" y="298">rdf:type (11) [*]  -&gt; IRI</tspan>
</text>
</g>
<g id="2002676474"><polygon points="435,583 735,583 735,663 435,663 "
style="fill:#F4D03F; stroke-width:1;stroke:Black;"/>
<text style="font-family:Arial;font-size:12px;kerning:0;word-spacing:-1px;fill:Black;font-weight:bold;">
<tspan x="506" y="598">bcn-n:NormInstance (3.9e5)</tspan>
</text>
<line x1="439" y1="601" x2="733" y2="601"
 style="stroke-width:1;stroke:Black;"/>
<text style="font-family:Arial;font-size:12px;kerning:0;word-spacing:-1px;fill:Black;">
<tspan x="439" y="613">bcn-n:hasHtmlDocument (3.9e5) [*] D -&gt; IRI</tspan>
<tspan x="439" y="628">bcn-n:hasXmlDocument (3.9e5) [*] D -&gt; IRI</tspan>
<tspan x="439" y="643">bcn-n:isLatestVersion (3.9e5) [*] D</tspan>
<tspan x="439" y="658">bcn-n:versionDate (4.1e5) [*] </tspan>
</text>
</g>
<g id="2002676419"><polygon points="846,590 1048,590 1048,660 846,660 "
style="fill:#F4D03F; stroke-width:1;stroke:Black;"/>
<text style="font-family:Arial;font-size:12px;kerning:0;word-spacing:-1px;fill:Black;font-weight:bold;">
<tspan x="879" y="605">bcn-n:RootNorm (3.6e5)</tspan>
</text>
</g>
<g id="2002676308"><path d="M735,639 L846,639 "
style="fill:none;stroke-width:1;stroke:Black;"/>
<line x1="840" y1="636" x2="846" y2="639"
 style="stroke-width:1;stroke:Black;"/>
<line x1="840" y1="642" x2="846" y2="639"
 style="stroke-width:1;stroke:Black;"/>
<text style="font-family:Arial;font-size:12px;kerning:0;word-spacing:-1px;fill:Black;">
<tspan x="739" y="637">bcn-n:versionOf  </tspan>
</text>
</g>
<g id="2002676313"><path d="M126,425 L126,483 "
style="fill:none;stroke-width:1;stroke:Black;"/>
<line x1="123" y1="477" x2="126" y2="483"
 style="stroke-width:1;stroke:Black;"/>
<line x1="129" y1="477" x2="126" y2="483"
 style="stroke-width:1;stroke:Black;"/>
<text style="font-family:Arial;font-size:12px;kerning:0;word-spacing:-1px;fill:Black;">
<tspan x="128" y="440">frbr:subject  </tspan>
</text>
</g>
<g id="2002676318"><path d="M880,275 L753,275 "
style="fill:none;stroke-width:1;stroke:Black;"/>
<line x1="759" y1="272" x2="753" y2="275"
 style="stroke-width:1;stroke:Black;"/>
<line x1="759" y1="278" x2="753" y2="275"
 style="stroke-width:1;stroke:Black;"/>
<text style="font-family:Arial;font-size:12px;kerning:0;word-spacing:-1px;fill:Black;">
<tspan x="793" y="288">bcn-n:rectifies  </tspan>
</text>
</g>
<g id="2002676323"><path d="M557,484 L557,583 "
style="fill:none;stroke-width:1;stroke:Black;"/>
<line x1="554" y1="577" x2="557" y2="583"
 style="stroke-width:1;stroke:Black;"/>
<line x1="560" y1="577" x2="557" y2="583"
 style="stroke-width:1;stroke:Black;"/>
<text style="font-family:Arial;font-size:12px;kerning:0;word-spacing:-1px;fill:Black;">
<tspan x="559" y="499">bcn-n:isRegulatedBy  D</tspan>
<tspan x="559" y="514">bcn-n:isRecastedBy  DR</tspan>
</text>
</g>
<g id="2002676328"><path d="M586,63 L731,63 735,65 737,69 737,188 "
style="fill:none;stroke-width:1;stroke:Black;"/>
<line x1="734" y1="182" x2="737" y2="188"
 style="stroke-width:1;stroke:Black;"/>
<line x1="740" y1="182" x2="737" y2="188"
 style="stroke-width:1;stroke:Black;"/>
<text style="font-family:Arial;font-size:12px;kerning:0;word-spacing:-1px;fill:Black;">
<tspan x="590" y="31">bcn-n:agreeWith  </tspan>
<tspan x="590" y="46">bcn-n:regulates  </tspan>
<tspan x="590" y="61">bcn-n:recasts  </tspan>
</text>
</g>
<g id="2002676333"><path d="M344,289 L453,289 "
style="fill:none;stroke-width:1;stroke:Black;"/>
<line x1="447" y1="286" x2="453" y2="289"
 style="stroke-width:1;stroke:Black;"/>
<line x1="447" y1="292" x2="453" y2="289"
 style="stroke-width:1;stroke:Black;"/>
<text style="font-family:Arial;font-size:12px;kerning:0;word-spacing:-1px;fill:Black;">
<tspan x="348" y="287">skos:member  </tspan>
</text>
</g>
<g id="2002676338"><path d="M313,313 L313,483 "
style="fill:none;stroke-width:1;stroke:Black;"/>
<line x1="310" y1="477" x2="313" y2="483"
 style="stroke-width:1;stroke:Black;"/>
<line x1="316" y1="477" x2="313" y2="483"
 style="stroke-width:1;stroke:Black;"/>
<text style="font-family:Arial;font-size:12px;kerning:0;word-spacing:-1px;fill:Black;">
<tspan x="315" y="328">skos:member  </tspan>
</text>
</g>
<g id="2002676343"><path d="M135,313 L135,380 "
style="fill:none;stroke-width:1;stroke:Black;"/>
<line x1="132" y1="374" x2="135" y2="380"
 style="stroke-width:1;stroke:Black;"/>
<line x1="138" y1="374" x2="135" y2="380"
 style="stroke-width:1;stroke:Black;"/>
<text style="font-family:Arial;font-size:12px;kerning:0;word-spacing:-1px;fill:Black;">
<tspan x="137" y="328">skos:</tspan>
<tspan x="137" y="343">member  </tspan>
</text>
</g>
<g id="2002676348"><path d="M846,607 L735,607 "
style="fill:none;stroke-width:1;stroke:Black;"/>
<line x1="741" y1="604" x2="735" y2="607"
 style="stroke-width:1;stroke:Black;"/>
<line x1="741" y1="610" x2="735" y2="607"
 style="stroke-width:1;stroke:Black;"/>
<text style="font-family:Arial;font-size:12px;kerning:0;word-spacing:-1px;fill:Black;">
<tspan x="739" y="620">bcn-n:hasVersion  </tspan>
</text>
</g>
<g id="2002676353"><path d="M286,52 L182,52 178,50 176,46 176,16 178,12 182,10 436,10 436,16 "
style="fill:none;stroke-width:1;stroke:Black;"/>
<line x1="433" y1="10" x2="436" y2="16"
 style="stroke-width:1;stroke:Black;"/>
<line x1="439" y1="10" x2="436" y2="16"
 style="stroke-width:1;stroke:Black;"/>
<text style="font-family:Arial;font-size:12px;kerning:0;word-spacing:-1px;fill:Black;">
<tspan x="186" y="65">bcn-n:agreeWith  </tspan>
</text>
</g>
<g id="2002676358"><path d="M480,484 L480,501 478,505 474,507 371,507 "
style="fill:none;stroke-width:1;stroke:Black;"/>
<line x1="377" y1="504" x2="371" y2="507"
 style="stroke-width:1;stroke:Black;"/>
<line x1="377" y1="510" x2="371" y2="507"
 style="stroke-width:1;stroke:Black;"/>
<text style="font-family:Arial;font-size:12px;kerning:0;word-spacing:-1px;fill:Black;">
<tspan x="482" y="499">frbr:subject  </tspan>
</text>
</g>
<g id="2002676363"><path d="M453,244 L351,244 347,242 345,238 345,69 "
style="fill:none;stroke-width:1;stroke:Black;"/>
<line x1="342" y1="75" x2="345" y2="69"
 style="stroke-width:1;stroke:Black;"/>
<line x1="348" y1="75" x2="345" y2="69"
 style="stroke-width:1;stroke:Black;"/>
<text style="font-family:Arial;font-size:12px;kerning:0;word-spacing:-1px;fill:Black;">
<tspan x="353" y="257">bcn-n:agreeWith  </tspan>
</text>
</g>
<g id="2002676368"><path d="M753,307 L880,307 "
style="fill:none;stroke-width:1;stroke:Black;"/>
<line x1="874" y1="304" x2="880" y2="307"
 style="stroke-width:1;stroke:Black;"/>
<line x1="874" y1="310" x2="880" y2="307"
 style="stroke-width:1;stroke:Black;"/>
<text style="font-family:Arial;font-size:12px;kerning:0;word-spacing:-1px;fill:Black;">
<tspan x="757" y="305">bcn-n:isRectifiedBy  </tspan>
</text>
</g>
<g id="2002676373"><path d="M537,188 L537,81 539,77 543,75 631,75 635,77 637,81 637,188 "
style="fill:none;stroke-width:1;stroke:Black;"/>
<line x1="634" y1="182" x2="637" y2="188"
 style="stroke-width:1;stroke:Black;"/>
<line x1="640" y1="182" x2="637" y2="188"
 style="stroke-width:1;stroke:Black;"/>
<text style="font-family:Arial;font-size:12px;kerning:0;word-spacing:-1px;fill:Black;">
<tspan x="424" y="94">bcn-n:isModifiedBy  </tspan>
<tspan x="424" y="109">bcn-n:modifiesTo  </tspan>
<tspan x="424" y="124">bcn-n:agreeWith  </tspan>
<tspan x="424" y="139">bcn-n:regulates  </tspan>
<tspan x="424" y="154">bcn-n:isRectifiedBy  </tspan>
<tspan x="424" y="169">bcn-n:rectifies  </tspan>
<tspan x="424" y="184">bcn-n:recasts  </tspan>
</text>
</g>
<g id="2002676378"><path d="M753,471 L847,471 851,473 853,477 853,590 "
style="fill:none;stroke-width:2;stroke:Fuchsia;"/>
<polygon points="763,476 753,471 763,466 "
style="fill:Silver;stroke-width:1;stroke:Black;"/>
<text style="font-family:Arial;font-size:12px;kerning:0;word-spacing:-1px;fill:Black;">
<tspan x="757" y="469"> </tspan>
</text>
</g>
<g id="2002676380"><path d="M435,626 L373,626 "
style="fill:none;stroke-width:2;stroke:Fuchsia;"/>
<polygon points="425,631 435,626 425,621 "
style="fill:Silver;stroke-width:1;stroke:Black;"/>
<text style="font-family:Arial;font-size:12px;kerning:0;word-spacing:-1px;fill:Black;">
<tspan x="421" y="639"> </tspan>
</text>
</g>
<g id="2002676382"><path d="M701,484 L701,583 "
style="fill:none;stroke-width:2;stroke:Fuchsia;"/>
<polygon points="706,494 701,484 696,494 "
style="fill:Silver;stroke-width:1;stroke:Black;"/>
<text style="font-family:Arial;font-size:12px;kerning:0;word-spacing:-1px;fill:Black;">
<tspan x="703" y="499"> </tspan>
</text>
</g>
<g id="2002676384"><path d="M245,313 L245,380 "
style="fill:none;stroke-width:2;stroke:Fuchsia;"/>
<polygon points="250,323 245,313 240,323 "
style="fill:Silver;stroke-width:1;stroke:Black;"/>
<text style="font-family:Arial;font-size:12px;kerning:0;word-spacing:-1px;fill:Black;">
<tspan x="247" y="328"> </tspan>
</text>
</g>
</svg>
