<?xml version="1.0" encoding="UTF-8" standalone="no"?>
<!DOCTYPE svg PUBLIC "-//W3C//DTD SVG 1.1//EN"
"http://www.w3.org/Graphics/SVG/1.1/DTD/svg11.dtd">
<svg version="1.1" xmlns="http://www.w3.org/2000/svg"
xmlns:xlink="http://www.w3.org/1999/xlink" xml:space="preserve"
 width="1522" height="1283" viewBox="0 0 1522 1283">
 onmousemove="movetip(evt)" onmouseup="endmove()">
<rect x="0" y="0" width="100%" height="100%" style="fill:White;"/>
<script type="application/ecmascript"> <![CDATA[
var dragtipid = null; var dragcase = false; function init(evt){
if (window.svgDocument==null) svgDocument = evt.target.ownerDocument;
}
function movetip(evt){if (dragtipid!=null){ dragcase = true;
var tip=svgDocument.getElementById(dragtipid);
tip.setAttributeNS(null,"x",evt.clientX-2);
tip.setAttributeNS(null,"y",evt.clientY-2);
}}
function endmove(){dragtipid = null;}
function startmove(evt,id){dragtipid = id; dragcase = false;
var tip=svgDocument.getElementById(dragtipid);
tip.setAttributeNS(null,"x",evt.clientX-2);
tip.setAttributeNS(null,"y",evt.clientY-2);
}
function Showtip(evt,id){ dragtipid = null;
var tip=svgDocument.getElementById(id);
var vis=tip.getAttributeNS(null,"visibility");
if (vis=="hidden"){
tip.setAttributeNS(null,"x",evt.clientX-2);
tip.setAttributeNS(null,"y",evt.clientY-2);
tip.setAttributeNS(null,"visibility","visible");
}}
function Hidetip(id){ dragtipid = null; if (dragcase==false){
var tip=svgDocument.getElementById(id);
tip.setAttributeNS(null,"visibility","hidden");
}}
]]></script>
<defs><linearGradient id="activ1" x1="0%" y1="0%" x2="100%" y2="0%">
<stop offset="0%" style="stop-color:#FFFF00;stop-opacity:1"/>
<stop offset="100%" style="stop-color:#FFFFF0;stop-opacity:1"/>
</linearGradient></defs>
<g id="2002697056"><polygon points="668,1223 968,1223 968,1273 668,1273 "
style="fill:#F4D03F; stroke-width:1;stroke:Black;"/>
<text style="font-family:Arial;font-size:12px;kerning:0;word-spacing:-1px;fill:Black;font-weight:bold;">
<tspan x="694" y="1238">colil:RelevantBibliographicResource (5.1e8)</tspan>
</text>
<line x1="672" y1="1241" x2="966" y2="1241"
 style="stroke-width:1;stroke:Black;"/>
<text style="font-family:Arial;font-size:12px;kerning:0;word-spacing:-1px;fill:Black;">
<tspan x="672" y="1253">colil:RelevantScore (5.1e8) [1] D</tspan>
<tspan x="672" y="1268">rdf:type (5.1e8) [*]  -&gt;  owl:Class</tspan>
</text>
</g>
<g id="2002697111"><polygon points="675,1004 975,1004 975,1084 675,1084 "
style="fill:#F4D03F; stroke-width:1;stroke:Black;"/>
<text style="font-family:Arial;font-size:12px;kerning:0;word-spacing:-1px;fill:Black;font-weight:bold;">
<tspan x="744" y="1019">colil:ReferencePaper (1.5e7)</tspan>
</text>
<line x1="679" y1="1022" x2="973" y2="1022"
 style="stroke-width:1;stroke:Black;"/>
<text style="font-family:Arial;font-size:12px;kerning:0;word-spacing:-1px;fill:Black;">
<tspan x="679" y="1034">bibo:doi (2.4e6) [1] </tspan>
<tspan x="679" y="1049">colil:pmcid (2.5e6) [1] </tspan>
<tspan x="679" y="1064">rdf:type (2.6e7) [*]  -&gt;  owl:Class</tspan>
<tspan x="679" y="1079">rdfs:seeAlso (2.3e7) [*]  -&gt;  colil:PubMed</tspan>
</text>
</g>
<g id="2002696803"><polygon points="29,804 329,804 329,870 29,870 "
style="fill:#F4D03F; stroke-width:1;stroke:Black;"/>
<text style="font-family:Arial;font-size:12px;kerning:0;word-spacing:-1px;fill:Black;font-weight:bold;">
<tspan x="37" y="819">gr:ProductOrServicesSomeInstancesPlaceholder </tspan>
<tspan x="172" y="835">(3)</tspan>
</text>
<line x1="33" y1="838" x2="327" y2="838"
 style="stroke-width:1;stroke:Black;"/>
<text style="font-family:Arial;font-size:12px;kerning:0;word-spacing:-1px;fill:Black;">
<tspan x="33" y="850">rdf:type (6) [*]  -&gt;  owl:Class</tspan>
<tspan x="33" y="865">rdfs:comment (3) [*] </tspan>
</text>
</g>
<g id="2002696935"><polygon points="457,1015 666,1015 666,1065 457,1065 "
style="fill:#F4D03F; stroke-width:1;stroke:Black;"/>
<text style="font-family:Arial;font-size:12px;kerning:0;word-spacing:-1px;fill:Black;font-weight:bold;">
<tspan x="502" y="1030">doco:Section (1.1e7)</tspan>
</text>
<line x1="461" y1="1033" x2="664" y2="1033"
 style="stroke-width:1;stroke:Black;"/>
<text style="font-family:Arial;font-size:12px;kerning:0;word-spacing:-1px;fill:Black;">
<tspan x="461" y="1045">dc:title (1.1e7) [1] </tspan>
<tspan x="461" y="1060">rdf:type (1.1e7) [*]  -&gt;  owl:Class</tspan>
</text>
</g>
<g id="2002696880"><polygon points="489,919 673,919 673,969 489,969 "
style="fill:#F4D03F; stroke-width:1;stroke:Black;"/>
<text style="font-family:Arial;font-size:12px;kerning:0;word-spacing:-1px;fill:Black;font-weight:bold;">
<tspan x="524" y="934">colil:Context (1.6e8)</tspan>
</text>
<line x1="493" y1="937" x2="671" y2="937"
 style="stroke-width:1;stroke:Black;"/>
<text style="font-family:Arial;font-size:12px;kerning:0;word-spacing:-1px;fill:Black;">
<tspan x="493" y="949">rdf:type (1.6e8) [*]  -&gt;  owl:Class</tspan>
<tspan x="493" y="964">rdf:value (1.6e8) [1] </tspan>
</text>
</g>
<g id="2002696990"><polygon points="320,1128 561,1128 561,1208 320,1208 "
style="fill:#F4D03F; stroke-width:1;stroke:Black;"/>
<text style="font-family:Arial;font-size:12px;kerning:0;word-spacing:-1px;fill:Black;font-weight:bold;">
<tspan x="366" y="1143">colil:CitationPaper (3.4e6)</tspan>
</text>
<line x1="324" y1="1146" x2="559" y2="1146"
 style="stroke-width:1;stroke:Black;"/>
<text style="font-family:Arial;font-size:12px;kerning:0;word-spacing:-1px;fill:Black;">
<tspan x="324" y="1158">bibo:doi (3.3e6) [1] </tspan>
<tspan x="324" y="1173">colil:pmcid (3.4e6) [1] </tspan>
<tspan x="324" y="1188">rdf:type (7.1e6) [*]  -&gt;  owl:Class</tspan>
<tspan x="324" y="1203">rdfs:seeAlso (1.3e7) [*]  -&gt;  colil:PubMed</tspan>
</text>
</g>
<g id="2002696814"><polygon points="704,1124 899,1124 899,1169 704,1169 "
style="fill:#F4D03F; stroke-width:1;stroke:Black;"/>
<text style="font-family:Arial;font-size:12px;kerning:0;word-spacing:-1px;fill:Black;font-weight:bold;">
<tspan x="725" y="1139">colil:RelevantPaper (8.9e6)</tspan>
</text>
</g>
<g id="2002697078"><polygon points="942,710 1242,710 1242,851 942,851 "
style="fill:#F4D03F; stroke-width:1;stroke:Black;"/>
<polygon points="939,713 1239,713 1239,854 939,854 "
style="fill:#F4D03F; stroke-width:1;stroke:Black;"/>
<text style="font-family:Arial;font-size:12px;kerning:0;word-spacing:-1px;fill:Black;font-weight:bold;">
<tspan x="1002" y="728">owl:AnnotationProperty or owl:</tspan>
<tspan x="981" y="744">inverseFunctionalProperty G107 (~14)</tspan>
</text>
<line x1="943" y1="747" x2="1237" y2="747"
 style="stroke-width:1;stroke:Black;"/>
<text style="font-family:Arial;font-size:12px;kerning:0;word-spacing:-1px;fill:Black;">
<tspan x="943" y="759">rdf:type (31 68%d) [*]  -&gt;  owl:Class</tspan>
<tspan x="943" y="774">rdfs:isDefinedBy ( -Infinity%d) [*]  -&gt;  owl:Ontology</tspan>
<tspan x="943" y="789">rdfs:range (13) [*]  -&gt;  gr:PriceSpecification,gr:</tspan>
<tspan x="943" y="804">ProductOrServiceSomeInstancePlaceholder,owl:</tspan>
<tspan x="943" y="819">Class</tspan>
</text>
<text style="font-family:Arial;font-size:11px;kerning:0;word-spacing:-1px;fill:Black;font-weight:bold;">
<tspan x="943" y="834">owl:AnnotationProperty (10)</tspan>
<tspan x="943" y="849">owl:inverseFunctionalProperty (4)</tspan>
</text>
</g>
<g id="2002696858"><polygon points="771,319 1071,319 1071,364 771,364 "
style="fill:#F4D03F; stroke-width:1;stroke:Black;"/>
<text style="font-family:Arial;font-size:12px;kerning:0;word-spacing:-1px;fill:Black;font-weight:bold;">
<tspan x="876" y="334">rdfs:Class (104)</tspan>
</text>
</g>
<g id="2002696979"><polygon points="494,75 794,75 794,245 494,245 "
style="fill:#F4D03F; stroke-width:1;stroke:Black;"/>
<text style="font-family:Arial;font-size:12px;kerning:0;word-spacing:-1px;fill:Black;font-weight:bold;">
<tspan x="604" y="90">owl:Class (24)</tspan>
</text>
<line x1="498" y1="93" x2="792" y2="93"
 style="stroke-width:1;stroke:Black;"/>
<text style="font-family:Arial;font-size:12px;kerning:0;word-spacing:-1px;fill:Black;">
<tspan x="498" y="105">owl:unionOf (10 50%d) [*] D -&gt; IRI</tspan>
<tspan x="498" y="120">rdf:type (13) [*]  -&gt;  owl:Class</tspan>
<tspan x="498" y="135">rdfs:isDefinedBy () [*]  -&gt;  owl:Ontology</tspan>
<tspan x="498" y="150">rdfs:label (8) [1] </tspan>
<tspan x="498" y="165">&lt;-rdf:type (7.2e8)  &lt;-  gr:</tspan>
<tspan x="498" y="180">LocationOfSalesOrServiceProvisioning,gr:</tspan>
<tspan x="498" y="195">ProductOrServicesSomeInstancesPlaceholder..(29)</tspan>
<tspan x="498" y="210">&lt;-rdfs:range (32)  &lt;-  rdf:Property et al.,owl:</tspan>
<tspan x="498" y="225">InverseFunctionalProperty or owl:SymmetricProperty..</tspan>
<tspan x="498" y="240">(4)</tspan>
</text>
</g>
<g id="2002696968"><polygon points="938,110 1156,110 1156,190 938,190 "
style="fill:#F4D03F; stroke-width:1;stroke:Black;"/>
<text style="font-family:Arial;font-size:12px;kerning:0;word-spacing:-1px;fill:Black;font-weight:bold;">
<tspan x="992" y="125">owl:Restriction (30)</tspan>
</text>
<line x1="942" y1="128" x2="1154" y2="128"
 style="stroke-width:1;stroke:Black;"/>
<text style="font-family:Arial;font-size:12px;kerning:0;word-spacing:-1px;fill:Black;">
<tspan x="942" y="140">owl:maxCardinality (9) [1] D</tspan>
<tspan x="942" y="155">owl:onDataRange (2 50%d) [1] D -&gt; IRI</tspan>
<tspan x="942" y="170">owl:qualifiedCardinality (6) [1] D</tspan>
<tspan x="942" y="185">rdf:type (30 50%d) [*]  -&gt;  owl:Class</tspan>
</text>
</g>
<g id="2002696957"><polygon points="679,525 979,525 979,635 679,635 "
style="fill:#F4D03F; stroke-width:1;stroke:Black;"/>
<text style="font-family:Arial;font-size:12px;kerning:0;word-spacing:-1px;fill:Black;font-weight:bold;">
<tspan x="761" y="540">gr:PriceSpecification (1)</tspan>
</text>
<line x1="683" y1="543" x2="977" y2="543"
 style="stroke-width:1;stroke:Black;"/>
<text style="font-family:Arial;font-size:12px;kerning:0;word-spacing:-1px;fill:Black;">
<tspan x="683" y="555">rdf:type (2) [*]  -&gt;  owl:Class</tspan>
<tspan x="683" y="570">rdfs:comment (1) [*] </tspan>
<tspan x="683" y="585">rdfs:label (1) [1] </tspan>
<tspan x="683" y="600">&lt;-rdfs:range (2)  &lt;-  rdf:Property et al.,owl:</tspan>
<tspan x="683" y="615">InverseFunctionalProperty or owl:SymmetricProperty..</tspan>
<tspan x="683" y="630">(4)</tspan>
</text>
</g>
<g id="2002697001"><polygon points="1114,489 1477,489 1477,704 1114,704 "
style="fill:#F4D03F; stroke-width:1;stroke:Black;"/>
<polygon points="1111,492 1474,492 1474,707 1111,707 "
style="fill:#F4D03F; stroke-width:1;stroke:Black;"/>
<text style="font-family:Arial;font-size:12px;kerning:0;word-spacing:-1px;fill:Black;font-weight:bold;">
<tspan x="1205" y="507">rdf:Property et al. G106 (~274)</tspan>
</text>
<line x1="1115" y1="510" x2="1472" y2="510"
 style="stroke-width:1;stroke:Black;"/>
<text style="font-family:Arial;font-size:12px;kerning:0;word-spacing:-1px;fill:Black;">
<tspan x="1115" y="522">rdf:type (310 35%d) [*]  -&gt;  owl:Class</tspan>
<tspan x="1115" y="537">rdfs:comment (104) [*] </tspan>
<tspan x="1115" y="552">rdfs:isDefinedBy (6 -1317%d) [*]  -&gt;  owl:Ontology</tspan>
<tspan x="1115" y="567">rdfs:label (181) [1] </tspan>
<tspan x="1115" y="582">rdfs:range (324 7%d) [*]  -&gt;  gr:PriceSpecification,gr:</tspan>
<tspan x="1115" y="597">ProductOrServiceSomeInstancePlaceholder,owl:Class</tspan>
<tspan x="1115" y="612">rdfs:seeAlso (2) [*]  -&gt;  colil:PubMed</tspan>
<tspan x="1115" y="627">rdfs:type (2) [1] D -&gt; IRI</tspan>
</text>
<text style="font-family:Arial;font-size:11px;kerning:0;word-spacing:-1px;fill:Black;font-weight:bold;">
<tspan x="1115" y="642">owl:DatatypeProperty (8)</tspan>
<tspan x="1115" y="657">owl:ObjectProperty (10)</tspan>
<tspan x="1115" y="672">owl:OntologyProperty (9)</tspan>
<tspan x="1115" y="687">rdf:Property (247)</tspan>
</text>
</g>
<g id="2002697100"><polygon points="842,254 1050,254 1050,299 842,299 "
style="fill:#F4D03F; stroke-width:1;stroke:Black;"/>
<text style="font-family:Arial;font-size:12px;kerning:0;word-spacing:-1px;fill:Black;font-weight:bold;">
<tspan x="892" y="269">gr:Manufacturer (1)</tspan>
</text>
<line x1="846" y1="272" x2="1048" y2="272"
 style="stroke-width:1;stroke:Black;"/>
<text style="font-family:Arial;font-size:12px;kerning:0;word-spacing:-1px;fill:Black;">
<tspan x="846" y="284">rdf:type (1) [*]  -&gt;  owl:Class</tspan>
</text>
</g>
<g id="2002696847"><polygon points="14,135 314,135 314,290 14,290 "
style="fill:#F4D03F; stroke-width:1;stroke:Black;"/>
<text style="font-family:Arial;font-size:12px;kerning:0;word-spacing:-1px;fill:Black;font-weight:bold;">
<tspan x="104" y="150">gr:BusinessEntity (1)</tspan>
</text>
<line x1="18" y1="153" x2="312" y2="153"
 style="stroke-width:1;stroke:Black;"/>
<text style="font-family:Arial;font-size:12px;kerning:0;word-spacing:-1px;fill:Black;">
<tspan x="18" y="165">foaf:homepage (1) [1] D -&gt; IRI</tspan>
<tspan x="18" y="180">foaf:logo (1) [1] D -&gt; IRI</tspan>
<tspan x="18" y="195">foaf:maker (1) [1] D -&gt; IRI</tspan>
<tspan x="18" y="210">gr:legalName (1) [1] D</tspan>
<tspan x="18" y="225">owl:sameAs (2) [*] D -&gt; IRI</tspan>
<tspan x="18" y="240">rdf:type (1) [*]  -&gt;  owl:Class</tspan>
<tspan x="18" y="255">rdfs:isDefinedBy (1) [*]  -&gt;  owl:Ontology</tspan>
<tspan x="18" y="270">rdfs:seeAlso (3) [*]  -&gt;  colil:PubMed</tspan>
<tspan x="18" y="285">vcard-rdf:ADR (2) [*]  -&gt; IRI</tspan>
</text>
</g>
<g id="2002696836"><polygon points="421,704 758,704 758,845 421,845 "
style="fill:#F4D03F; stroke-width:1;stroke:Black;"/>
<polygon points="418,707 755,707 755,848 418,848 "
style="fill:#F4D03F; stroke-width:1;stroke:Black;"/>
<text style="font-family:Arial;font-size:12px;kerning:0;word-spacing:-1px;fill:Black;font-weight:bold;">
<tspan x="422" y="722">owl:InverseFunctionalProperty or owl:SymmetricProperty </tspan>
<tspan x="558" y="738">G108 (~7)</tspan>
</text>
<line x1="422" y1="741" x2="753" y2="741"
 style="stroke-width:1;stroke:Black;"/>
<text style="font-family:Arial;font-size:12px;kerning:0;word-spacing:-1px;fill:Black;">
<tspan x="422" y="753">rdf:type (11 55%d) [*]  -&gt;  owl:Class</tspan>
<tspan x="422" y="768">rdfs:label (4) [1] </tspan>
<tspan x="422" y="783">rdfs:range ( -Infinity%d) [*]  -&gt;  gr:PriceSpecification,gr:</tspan>
<tspan x="422" y="798">ProductOrServiceSomeInstancePlaceholder,owl:Class</tspan>
</text>
<text style="font-family:Arial;font-size:11px;kerning:0;word-spacing:-1px;fill:Black;font-weight:bold;">
<tspan x="422" y="813">owl:InverseFunctionalProperty (5)</tspan>
<tspan x="422" y="828">owl:SymmetricProperty (2)</tspan>
</text>
</g>
<g id="2002696924"><polygon points="111,693 346,693 346,773 111,773 "
style="fill:#F4D03F; stroke-width:1;stroke:Black;"/>
<text style="font-family:Arial;font-size:12px;kerning:0;word-spacing:-1px;fill:Black;font-weight:bold;">
<tspan x="147" y="708">gr:TypeAndQuantityNode (3)</tspan>
</text>
<line x1="115" y1="711" x2="344" y2="711"
 style="stroke-width:1;stroke:Black;"/>
<text style="font-family:Arial;font-size:12px;kerning:0;word-spacing:-1px;fill:Black;">
<tspan x="115" y="723">gr:amountOfThisGood (3) [1] D</tspan>
<tspan x="115" y="738">gr:hasUnitOfMeasurement (3) [1] D</tspan>
<tspan x="115" y="753">rdf:type (3) [*]  -&gt;  owl:Class</tspan>
<tspan x="115" y="768">rdfs:comment (3) [*] </tspan>
</text>
</g>
<g id="2002696869"><polygon points="1182,22 1482,22 1482,237 1182,237 "
style="fill:#F4D03F; stroke-width:1;stroke:Black;"/>
<text style="font-family:Arial;font-size:12px;kerning:0;word-spacing:-1px;fill:Black;font-weight:bold;">
<tspan x="1286" y="37">owl:Ontology (7)</tspan>
</text>
<line x1="1186" y1="40" x2="1480" y2="40"
 style="stroke-width:1;stroke:Black;"/>
<text style="font-family:Arial;font-size:12px;kerning:0;word-spacing:-1px;fill:Black;">
<tspan x="1186" y="52">dc:publisher (4) [1] D</tspan>
<tspan x="1186" y="67">dc:title (1) [1] </tspan>
<tspan x="1186" y="82">owl:imports (7) [*] D -&gt; IRI</tspan>
<tspan x="1186" y="97">owl:priorVersion (1 -100%d) [1] D -&gt; IRI</tspan>
<tspan x="1186" y="112">owl:versionInfo (2) [*] D</tspan>
<tspan x="1186" y="127">rdf:type (4) [*]  -&gt;  owl:Class</tspan>
<tspan x="1186" y="142">rdfs:comment (4) [*] </tspan>
<tspan x="1186" y="157">rdfs:isDefinedBy (12) [*]  -&gt;  owl:Ontology</tspan>
<tspan x="1186" y="172">rdfs:label (1) [1] </tspan>
<tspan x="1186" y="187">rdfs:seeAlso (5) [*]  -&gt;  colil:PubMed</tspan>
<tspan x="1186" y="202">&lt;-rdfs:isDefinedBy (1)  &lt;-  gr:</tspan>
<tspan x="1186" y="217">LocationOfSalesOrServiceProvisioning,owl:Class..</tspan>
<tspan x="1186" y="232">(10)</tspan>
</text>
</g>
<g id="2002697034"><polygon points="365,567 665,567 665,677 365,677 "
style="fill:#F4D03F; stroke-width:1;stroke:Black;"/>
<text style="font-family:Arial;font-size:12px;kerning:0;word-spacing:-1px;fill:Black;font-weight:bold;">
<tspan x="373" y="582">gr:ProductOrServiceSomeInstancePlaceholder (1)</tspan>
</text>
<line x1="369" y1="585" x2="663" y2="585"
 style="stroke-width:1;stroke:Black;"/>
<text style="font-family:Arial;font-size:12px;kerning:0;word-spacing:-1px;fill:Black;">
<tspan x="369" y="597">rdf:type (2) [*]  -&gt;  owl:Class</tspan>
<tspan x="369" y="612">rdfs:comment (1) [*] </tspan>
<tspan x="369" y="627">rdfs:label (1) [1] </tspan>
<tspan x="369" y="642">&lt;-rdfs:range (1)  &lt;-  rdf:Property et al.,owl:</tspan>
<tspan x="369" y="657">InverseFunctionalProperty or owl:SymmetricProperty..</tspan>
<tspan x="369" y="672">(4)</tspan>
</text>
</g>
<g id="2002697067"><polygon points="176,330 476,330 476,515 176,515 "
style="fill:#F4D03F; stroke-width:1;stroke:Black;"/>
<text style="font-family:Arial;font-size:12px;kerning:0;word-spacing:-1px;fill:Black;font-weight:bold;">
<tspan x="288" y="345">gr:Offering (3)</tspan>
</text>
<line x1="180" y1="348" x2="474" y2="348"
 style="stroke-width:1;stroke:Black;"/>
<text style="font-family:Arial;font-size:12px;kerning:0;word-spacing:-1px;fill:Black;">
<tspan x="180" y="360">gr:acceptedPaymentMethods (18) [*] D -&gt; IRI</tspan>
<tspan x="180" y="375">gr:availableDeliveryMethods (3) [1] D -&gt; IRI</tspan>
<tspan x="180" y="390">gr:eligibleCustomerTypes (9) [*] D -&gt; IRI</tspan>
<tspan x="180" y="405">gr:eligibleRegions (738) [*] D</tspan>
<tspan x="180" y="420">gr:hasBusinessFunction (6) [*] D -&gt; IRI</tspan>
<tspan x="180" y="435">gr:validFrom (3) [1] D</tspan>
<tspan x="180" y="450">gr:validThrough (3) [1] D</tspan>
<tspan x="180" y="465">rdf:type (3) [*]  -&gt;  owl:Class</tspan>
<tspan x="180" y="480">rdfs:comment (3) [*] </tspan>
<tspan x="180" y="495">rdfs:isDefinedBy (3) [*]  -&gt;  owl:Ontology</tspan>
<tspan x="180" y="510">rdfs:seeAlso (1) [*]  -&gt;  colil:PubMed</tspan>
</text>
</g>
<g id="2002696913"><polygon points="13,531 245,531 245,643 13,643 "
style="fill:#F4D03F; stroke-width:1;stroke:Black;"/>
<text style="font-family:Arial;font-size:12px;kerning:0;word-spacing:-1px;fill:Black;font-weight:bold;">
<tspan x="122" y="546">gr:</tspan>
<tspan x="18" y="562">LocationOfSalesOrServiceProvisioning </tspan>
<tspan x="122" y="578">(1)</tspan>
</text>
<line x1="17" y1="581" x2="243" y2="581"
 style="stroke-width:1;stroke:Black;"/>
<text style="font-family:Arial;font-size:12px;kerning:0;word-spacing:-1px;fill:Black;">
<tspan x="17" y="593">rdf:type (1) [*]  -&gt;  owl:Class</tspan>
<tspan x="17" y="608">rdfs:isDefinedBy (1) [*]  -&gt;  owl:Ontology</tspan>
<tspan x="17" y="623">rdfs:label (1) [1] </tspan>
<tspan x="17" y="638">vcard-rdf:ADR (2) [*]  -&gt; IRI</tspan>
</text>
</g>
<g id="2002696946"><polygon points="1036,1058 1249,1058 1249,1153 1036,1153 "
style="fill:#F4D03F; stroke-width:1;stroke:Black;"/>
<polygon points="1033,1061 1246,1061 1246,1156 1033,1156 "
style="fill:#F4D03F; stroke-width:1;stroke:Black;"/>
<text style="font-family:Arial;font-size:12px;kerning:0;word-spacing:-1px;fill:Black;font-weight:bold;">
<tspan x="1041" y="1076">vcard-rdf:internet et al. G104 (~12)</tspan>
</text>
<line x1="1037" y1="1079" x2="1244" y2="1079"
 style="stroke-width:1;stroke:Black;"/>
<text style="font-family:Arial;font-size:12px;kerning:0;word-spacing:-1px;fill:Black;">
<tspan x="1037" y="1091">rdf:type (12) [*]  -&gt;  owl:Class</tspan>
<tspan x="1037" y="1106">rdf:value (8) [1] </tspan>
</text>
<text style="font-family:Arial;font-size:11px;kerning:0;word-spacing:-1px;fill:Black;font-weight:bold;">
<tspan x="1037" y="1121">vcard-rdf:internet (4)</tspan>
<tspan x="1037" y="1136">vcard-rdf:voice (4)</tspan>
<tspan x="1037" y="1151">vcard-rdf:work (4)</tspan>
</text>
</g>
<g id="2002696781"><polygon points="1045,1198 1285,1198 1285,1263 1045,1263 "
style="fill:#F4D03F; stroke-width:1;stroke:Black;"/>
<polygon points="1042,1201 1282,1201 1282,1266 1042,1266 "
style="fill:#F4D03F; stroke-width:1;stroke:Black;"/>
<text style="font-family:Arial;font-size:12px;kerning:0;word-spacing:-1px;fill:Black;font-weight:bold;">
<tspan x="1054" y="1216">sd:Feature or sd:Language G105 (~8)</tspan>
</text>
<line x1="1046" y1="1219" x2="1280" y2="1219"
 style="stroke-width:1;stroke:Black;"/>
<text style="font-family:Arial;font-size:12px;kerning:0;word-spacing:-1px;fill:Black;">
<tspan x="1046" y="1231">rdf:type (3 -67%d) [*]  -&gt;  owl:Class</tspan>
</text>
<text style="font-family:Arial;font-size:11px;kerning:0;word-spacing:-1px;fill:Black;font-weight:bold;">
<tspan x="1046" y="1246">sd:Feature (5)</tspan>
<tspan x="1046" y="1261">sd:Language (3)</tspan>
</text>
</g>
<g id="2002696902"><polygon points="1333,1055 1510,1055 1510,1120 1333,1120 "
style="fill:#F4D03F; stroke-width:1;stroke:Black;"/>
<text style="font-family:Arial;font-size:12px;kerning:0;word-spacing:-1px;fill:Black;font-weight:bold;">
<tspan x="1354" y="1070">owl:NamedIndividual (4)</tspan>
</text>
<line x1="1337" y1="1073" x2="1508" y2="1073"
 style="stroke-width:1;stroke:Black;"/>
<text style="font-family:Arial;font-size:12px;kerning:0;word-spacing:-1px;fill:Black;">
<tspan x="1337" y="1085">dc:creator (12) [*] D</tspan>
<tspan x="1337" y="1100">dc:title (1) [1] </tspan>
<tspan x="1337" y="1115">rdf:type (3) [*]  -&gt;  owl:Class</tspan>
</text>
</g>
<g id="2002697089"><polygon points="1279,880 1508,880 1508,945 1279,945 "
style="fill:#F4D03F; stroke-width:1;stroke:Black;"/>
<text style="font-family:Arial;font-size:12px;kerning:0;word-spacing:-1px;fill:Black;font-weight:bold;">
<tspan x="1346" y="895">rdfs:Datatype (5)</tspan>
</text>
<line x1="1283" y1="898" x2="1506" y2="898"
 style="stroke-width:1;stroke:Black;"/>
<text style="font-family:Arial;font-size:12px;kerning:0;word-spacing:-1px;fill:Black;">
<tspan x="1283" y="910">rdf:type (5) [*]  -&gt;  owl:Class</tspan>
<tspan x="1283" y="925">rdfs:isDefinedBy () [*]  -&gt;  owl:Ontology</tspan>
<tspan x="1283" y="940">rdfs:seeAlso (4) [*]  -&gt;  colil:PubMed</tspan>
</text>
</g>
<g id="2002696891"><polygon points="1288,952 1506,952 1506,1002 1288,1002 "
style="fill:#F4D03F; stroke-width:1;stroke:Black;"/>
<text style="font-family:Arial;font-size:12px;kerning:0;word-spacing:-1px;fill:Black;font-weight:bold;">
<tspan x="1369" y="967">rdf:List (1)</tspan>
</text>
<line x1="1292" y1="970" x2="1504" y2="970"
 style="stroke-width:1;stroke:Black;"/>
<text style="font-family:Arial;font-size:12px;kerning:0;word-spacing:-1px;fill:Black;">
<tspan x="1292" y="982">rdf:type (1) [*]  -&gt;  owl:Class</tspan>
<tspan x="1292" y="997">rdfs:isDefinedBy () [*]  -&gt;  owl:Ontology</tspan>
</text>
</g>
<g id="2002697045"><polygon points="1325,1128 1512,1128 1512,1268 1325,1268 "
style="fill:#F4D03F; stroke-width:1;stroke:Black;"/>
<text style="font-family:Arial;font-size:12px;kerning:0;word-spacing:-1px;fill:Black;font-weight:bold;">
<tspan x="1394" y="1143">vspx: (1)</tspan>
</text>
<line x1="1329" y1="1146" x2="1510" y2="1146"
 style="stroke-width:1;stroke:Black;"/>
<text style="font-family:Arial;font-size:12px;kerning:0;word-spacing:-1px;fill:Black;">
<tspan x="1329" y="1158">dav:ownerUser (1) [1]  -&gt; IRI</tspan>
<tspan x="1329" y="1173">dct:created (1) [1] </tspan>
<tspan x="1329" y="1188">dct:extent (1) [1] </tspan>
<tspan x="1329" y="1203">dct:modified (1) [1] </tspan>
<tspan x="1329" y="1218">rdf:type (1) [*]  -&gt;  owl:Class</tspan>
<tspan x="1329" y="1233">vspx:pageId (1) [1] D</tspan>
<tspan x="1329" y="1248">vspx:title (1) [1] D</tspan>
<tspan x="1329" y="1263">vspx:type (1) [1] D</tspan>
</text>
</g>
<g id="2002697012"><polygon points="23,917 245,917 245,962 23,962 "
style="fill:#F4D03F; stroke-width:1;stroke:Black;"/>
<text style="font-family:Arial;font-size:12px;kerning:0;word-spacing:-1px;fill:Black;font-weight:bold;">
<tspan x="53" y="932">unibw:C_AKE112003-tax (1)</tspan>
</text>
<line x1="27" y1="935" x2="243" y2="935"
 style="stroke-width:1;stroke:Black;"/>
<text style="font-family:Arial;font-size:12px;kerning:0;word-spacing:-1px;fill:Black;">
<tspan x="27" y="947">rdfs:seeAlso (1) [*]  -&gt;  colil:PubMed</tspan>
</text>
</g>
<g id="2002697023"><polygon points="38,978 338,978 338,1044 38,1044 "
style="fill:#F4D03F; stroke-width:1;stroke:Black;"/>
<polygon points="35,981 335,981 335,1047 35,1047 "
style="fill:#F4D03F; stroke-width:1;stroke:Black;"/>
<text style="font-family:Arial;font-size:12px;kerning:0;word-spacing:-1px;fill:Black;font-weight:bold;">
<tspan x="43" y="996">unibw:C_AAB316003-tax or unibw:C_AKJ315005-</tspan>
<tspan x="146" y="1012">tax G102 (~2)</tspan>
</text>
<text style="font-family:Arial;font-size:11px;kerning:0;word-spacing:-1px;fill:Black;font-weight:bold;">
<tspan x="39" y="1027">unibw:C_AAB316003-tax (1)</tspan>
<tspan x="39" y="1042">unibw:C_AKJ315005-tax (1)</tspan>
</text>
</g>
<g id="2002696792"><polygon points="994,386 1256,386 1256,451 994,451 "
style="fill:#F4D03F; stroke-width:1;stroke:Black;"/>
<text style="font-family:Arial;font-size:12px;kerning:0;word-spacing:-1px;fill:Black;font-weight:bold;">
<tspan x="1012" y="401">gr:ActualProductOrServicesInstance (1)</tspan>
</text>
<line x1="998" y1="404" x2="1254" y2="404"
 style="stroke-width:1;stroke:Black;"/>
<text style="font-family:Arial;font-size:12px;kerning:0;word-spacing:-1px;fill:Black;">
<tspan x="998" y="416">rdf:type (2) [*]  -&gt;  owl:Class</tspan>
<tspan x="998" y="431">rdfs:comment (1) [*] </tspan>
<tspan x="998" y="446">rdfs:label (1) [1] </tspan>
</text>
</g>
<g id="2002696825"><polygon points="998,880 1270,880 1270,1020 998,1020 "
style="fill:#F4D03F; stroke-width:1;stroke:Black;"/>
<text style="font-family:Arial;font-size:12px;kerning:0;word-spacing:-1px;fill:Black;font-weight:bold;">
<tspan x="1075" y="895">colil:PubMed (1.6e7)</tspan>
</text>
<line x1="1002" y1="898" x2="1268" y2="898"
 style="stroke-width:1;stroke:Black;"/>
<text style="font-family:Arial;font-size:12px;kerning:0;word-spacing:-1px;fill:Black;">
<tspan x="1002" y="910">colil:Authors (1.6e7) [1] D</tspan>
<tspan x="1002" y="925">rdf:type (1.6e7) [*]  -&gt;  owl:Class</tspan>
<tspan x="1002" y="940">togows:dp (1.6e7) [1] D</tspan>
<tspan x="1002" y="955">togows:pmid (1.6e7) [1] D</tspan>
<tspan x="1002" y="970">togows:so (1.6e7) [1] D</tspan>
<tspan x="1002" y="985">togows:ti (1.6e7) [1] D</tspan>
<tspan x="1002" y="1000">&lt;-rdfs:seeAlso (1.6e7)  &lt;-  unibw:C_AKE112003-</tspan>
<tspan x="1002" y="1015">tax,gr:Offering..(8)</tspan>
</text>
</g>
<g id="2002696574"><path d="M494,81 L358,81 354,79 352,75 352,71 354,67 358,65 495,65 499,67 501,71 501,75 "
style="fill:none;stroke-width:1;stroke:Black;"/>
<line x1="498" y1="69" x2="501" y2="75"
 style="stroke-width:1;stroke:Black;"/>
<line x1="504" y1="69" x2="501" y2="75"
 style="stroke-width:1;stroke:Black;"/>
<text style="font-family:Arial;font-size:12px;kerning:0;word-spacing:-1px;fill:Black;">
<tspan x="363" y="94">owl:complementOf  DR</tspan>
<tspan x="363" y="109">rdfs:subClassOf  </tspan>
</text>
</g>
<g id="2002696634"><path d="M1012,254 L1012,190 "
style="fill:none;stroke-width:1;stroke:Black;"/>
<line x1="1009" y1="196" x2="1012" y2="190"
 style="stroke-width:1;stroke:Black;"/>
<line x1="1015" y1="196" x2="1012" y2="190"
 style="stroke-width:1;stroke:Black;"/>
<text style="font-family:Arial;font-size:12px;kerning:0;word-spacing:-1px;fill:Black;">
<tspan x="893" y="250">owl:equivalentClass  </tspan>
</text>
</g>
<g id="2002696664"><path d="M476,411 L994,411 "
style="fill:none;stroke-width:1;stroke:Black;"/>
<line x1="988" y1="408" x2="994" y2="411"
 style="stroke-width:1;stroke:Black;"/>
<line x1="988" y1="414" x2="994" y2="411"
 style="stroke-width:1;stroke:Black;"/>
<text style="font-family:Arial;font-size:12px;kerning:0;word-spacing:-1px;fill:Black;">
<tspan x="480" y="409">gr:includes  D</tspan>
</text>
</g>
<g id="2002696694"><path d="M794,174 L938,174 "
style="fill:none;stroke-width:1;stroke:Black;"/>
<line x1="932" y1="171" x2="938" y2="174"
 style="stroke-width:1;stroke:Black;"/>
<line x1="932" y1="177" x2="938" y2="174"
 style="stroke-width:1;stroke:Black;"/>
<text style="font-family:Arial;font-size:12px;kerning:0;word-spacing:-1px;fill:Black;">
<tspan x="798" y="172">owl:equivalentClass  </tspan>
</text>
</g>
<g id="2002696749"><path d="M938,127 L794,127 "
style="fill:none;stroke-width:1;stroke:Black;"/>
<line x1="800" y1="124" x2="794" y2="127"
 style="stroke-width:1;stroke:Black;"/>
<line x1="800" y1="130" x2="794" y2="127"
 style="stroke-width:1;stroke:Black;"/>
<text style="font-family:Arial;font-size:12px;kerning:0;word-spacing:-1px;fill:Black;">
<tspan x="798" y="140">owl:someValuesFrom  D</tspan>
<tspan x="798" y="155">owl:onClass  DR</tspan>
</text>
</g>
<g id="2002696754"><path d="M742,707 L742,673 744,669 748,667 1111,667 "
style="fill:none;stroke-width:1;stroke:Black;"/>
<line x1="1105" y1="664" x2="1111" y2="667"
 style="stroke-width:1;stroke:Black;"/>
<line x1="1105" y1="670" x2="1111" y2="667"
 style="stroke-width:1;stroke:Black;"/>
<text style="font-family:Arial;font-size:12px;kerning:0;word-spacing:-1px;fill:Black;">
<tspan x="632" y="703">rdfs:subPropertyOf  </tspan>
</text>
</g>
<g id="2002696773"><path d="M251,870 L251,981 "
style="fill:none;stroke-width:2;stroke:Fuchsia;"/>
<polygon points="256,880 251,870 246,880 "
style="fill:Silver;stroke-width:1;stroke:Black;"/>
<text style="font-family:Arial;font-size:12px;kerning:0;word-spacing:-1px;fill:Black;">
<tspan x="253" y="885"> </tspan>
</text>
</g>
<g id="2002696775"><path d="M128,870 L128,917 "
style="fill:none;stroke-width:2;stroke:Fuchsia;"/>
<polygon points="133,880 128,870 123,880 "
style="fill:Silver;stroke-width:1;stroke:Black;"/>
<text style="font-family:Arial;font-size:12px;kerning:0;word-spacing:-1px;fill:Black;">
<tspan x="130" y="885"> </tspan>
</text>
</g>
<g id="2002696739"><path d="M633,1015 L633,969 "
style="fill:none;stroke-width:1;stroke:Black;"/>
<line x1="630" y1="975" x2="633" y2="969"
 style="stroke-width:1;stroke:Black;"/>
<line x1="636" y1="975" x2="633" y2="969"
 style="stroke-width:1;stroke:Black;"/>
<text style="font-family:Arial;font-size:12px;kerning:0;word-spacing:-1px;fill:Black;">
<tspan x="548" y="1011">doco:contains  </tspan>
</text>
</g>
<g id="2002696679"><path d="M673,945 L854,945 858,947 860,951 860,1004 "
style="fill:none;stroke-width:1;stroke:Black;"/>
<line x1="857" y1="998" x2="860" y2="1004"
 style="stroke-width:1;stroke:Black;"/>
<line x1="863" y1="998" x2="860" y2="1004"
 style="stroke-width:1;stroke:Black;"/>
<text style="font-family:Arial;font-size:12px;kerning:0;word-spacing:-1px;fill:Black;">
<tspan x="677" y="943">colil:mentions  DR</tspan>
</text>
</g>
<g id="2002696684"><path d="M468,1128 L468,1065 "
style="fill:none;stroke-width:1;stroke:Black;"/>
<line x1="465" y1="1071" x2="468" y2="1065"
 style="stroke-width:1;stroke:Black;"/>
<line x1="471" y1="1071" x2="468" y2="1065"
 style="stroke-width:1;stroke:Black;"/>
<text style="font-family:Arial;font-size:12px;kerning:0;word-spacing:-1px;fill:Black;">
<tspan x="383" y="1124">doco:contains  </tspan>
</text>
</g>
<g id="2002696594"><path d="M555,1128 L555,1084 557,1080 561,1078 675,1078 "
style="fill:none;stroke-width:1;stroke:Black;"/>
<line x1="669" y1="1075" x2="675" y2="1078"
 style="stroke-width:1;stroke:Black;"/>
<line x1="669" y1="1081" x2="675" y2="1078"
 style="stroke-width:1;stroke:Black;"/>
<text style="font-family:Arial;font-size:12px;kerning:0;word-spacing:-1px;fill:Black;">
<tspan x="476" y="1124">bibo:cites  DR</tspan>
</text>
</g>
<g id="2002696659"><path d="M358,1128 L358,957 360,953 364,951 489,951 "
style="fill:none;stroke-width:1;stroke:Black;"/>
<line x1="483" y1="948" x2="489" y2="951"
 style="stroke-width:1;stroke:Black;"/>
<line x1="483" y1="954" x2="489" y2="951"
 style="stroke-width:1;stroke:Black;"/>
<text style="font-family:Arial;font-size:12px;kerning:0;word-spacing:-1px;fill:Black;">
<tspan x="273" y="1124">doco:contains  </tspan>
</text>
</g>
<g id="2002696609"><path d="M704,1152 L573,1152 569,1150 567,1146 567,1132 569,1128 573,1126 686,1126 690,1128 692,1132 692,1135 694,1139 698,1141 704,1141 "
style="fill:none;stroke-width:1;stroke:Black;"/>
<line x1="698" y1="1138" x2="704" y2="1141"
 style="stroke-width:1;stroke:Black;"/>
<line x1="698" y1="1144" x2="704" y2="1141"
 style="stroke-width:1;stroke:Black;"/>
<text style="font-family:Arial;font-size:12px;kerning:0;word-spacing:-1px;fill:Black;">
<tspan x="575" y="1165">colil:cocitationWith  DR</tspan>
</text>
</g>
<g id="2002696744"><path d="M1111,641 L665,641 "
style="fill:none;stroke-width:1;stroke:Black;"/>
<line x1="671" y1="638" x2="665" y2="641"
 style="stroke-width:1;stroke:Black;"/>
<line x1="671" y1="644" x2="665" y2="641"
 style="stroke-width:1;stroke:Black;"/>
<text style="font-family:Arial;font-size:12px;kerning:0;word-spacing:-1px;fill:Black;">
<tspan x="1035" y="654">rdfs:domain  </tspan>
</text>
</g>
<g id="2002696619"><path d="M939,802 L800,802 796,800 794,796 794,763 796,759 800,757 939,757 "
style="fill:none;stroke-width:1;stroke:Black;"/>
<line x1="933" y1="754" x2="939" y2="757"
 style="stroke-width:1;stroke:Black;"/>
<line x1="933" y1="760" x2="939" y2="757"
 style="stroke-width:1;stroke:Black;"/>
<text style="font-family:Arial;font-size:12px;kerning:0;word-spacing:-1px;fill:Black;">
<tspan x="827" y="815">rdfs:subPropertyOf  </tspan>
</text>
</g>
<g id="2002696604"><path d="M755,748 L939,748 "
style="fill:none;stroke-width:1;stroke:Black;"/>
<line x1="933" y1="745" x2="939" y2="748"
 style="stroke-width:1;stroke:Black;"/>
<line x1="933" y1="751" x2="939" y2="748"
 style="stroke-width:1;stroke:Black;"/>
<text style="font-family:Arial;font-size:12px;kerning:0;word-spacing:-1px;fill:Black;">
<tspan x="759" y="746">rdfs:subPropertyOf  </tspan>
</text>
</g>
<g id="2002696759"><path d="M1239,771 L1353,771 1357,769 1359,765 1359,707 "
style="fill:none;stroke-width:1;stroke:Black;"/>
<line x1="1356" y1="713" x2="1359" y2="707"
 style="stroke-width:1;stroke:Black;"/>
<line x1="1362" y1="713" x2="1359" y2="707"
 style="stroke-width:1;stroke:Black;"/>
<text style="font-family:Arial;font-size:12px;kerning:0;word-spacing:-1px;fill:Black;">
<tspan x="1243" y="769">rdfs:subPropertyOf  </tspan>
</text>
</g>
<g id="2002696669"><path d="M1111,677 L989,677 985,679 983,683 983,713 "
style="fill:none;stroke-width:1;stroke:Black;"/>
<line x1="980" y1="707" x2="983" y2="713"
 style="stroke-width:1;stroke:Black;"/>
<line x1="986" y1="707" x2="983" y2="713"
 style="stroke-width:1;stroke:Black;"/>
<text style="font-family:Arial;font-size:12px;kerning:0;word-spacing:-1px;fill:Black;">
<tspan x="999" y="690">rdfs:subPropertyOf  </tspan>
</text>
</g>
<g id="2002696764"><path d="M1111,518 L994,518 990,516 988,512 988,506 990,502 994,500 1111,500 "
style="fill:none;stroke-width:1;stroke:Black;"/>
<line x1="1105" y1="497" x2="1111" y2="500"
 style="stroke-width:1;stroke:Black;"/>
<line x1="1105" y1="503" x2="1111" y2="500"
 style="stroke-width:1;stroke:Black;"/>
<text style="font-family:Arial;font-size:12px;kerning:0;word-spacing:-1px;fill:Black;">
<tspan x="999" y="531">rdfs:subPropertyOf  </tspan>
</text>
</g>
<g id="2002696719"><path d="M476,476 L679,476 683,478 685,482 685,525 "
style="fill:none;stroke-width:1;stroke:Black;"/>
<line x1="682" y1="519" x2="685" y2="525"
 style="stroke-width:1;stroke:Black;"/>
<line x1="688" y1="519" x2="685" y2="525"
 style="stroke-width:1;stroke:Black;"/>
<text style="font-family:Arial;font-size:12px;kerning:0;word-spacing:-1px;fill:Black;">
<tspan x="480" y="474">gr:hasPriceSpecification  DR</tspan>
</text>
</g>
<g id="2002696714"><path d="M1111,539 L979,539 "
style="fill:none;stroke-width:1;stroke:Black;"/>
<line x1="985" y1="536" x2="979" y2="539"
 style="stroke-width:1;stroke:Black;"/>
<line x1="985" y1="542" x2="979" y2="539"
 style="stroke-width:1;stroke:Black;"/>
<text style="font-family:Arial;font-size:12px;kerning:0;word-spacing:-1px;fill:Black;">
<tspan x="1035" y="552">rdfs:domain  </tspan>
</text>
</g>
<g id="2002696769"><path d="M1031,364 L1031,386 "
style="fill:none;stroke-width:2;stroke:Fuchsia;"/>
<polygon points="1036,374 1031,364 1026,374 "
style="fill:Silver;stroke-width:1;stroke:Black;"/>
<text style="font-family:Arial;font-size:12px;kerning:0;word-spacing:-1px;fill:Black;">
<tspan x="1033" y="379"> </tspan>
</text>
</g>
<g id="2002696771"><path d="M920,364 L920,525 "
style="fill:none;stroke-width:2;stroke:Fuchsia;"/>
<polygon points="925,374 920,364 915,374 "
style="fill:Silver;stroke-width:1;stroke:Black;"/>
<text style="font-family:Arial;font-size:12px;kerning:0;word-spacing:-1px;fill:Black;">
<tspan x="922" y="379"> </tspan>
</text>
</g>
<g id="2002696649"><path d="M1199,386 L1199,314 1197,310 1193,308 791,308 787,306 785,302 785,245 "
style="fill:none;stroke-width:1;stroke:Black;"/>
<line x1="782" y1="251" x2="785" y2="245"
 style="stroke-width:1;stroke:Black;"/>
<line x1="788" y1="251" x2="785" y2="245"
 style="stroke-width:1;stroke:Black;"/>
<text style="font-family:Arial;font-size:12px;kerning:0;word-spacing:-1px;fill:Black;">
<tspan x="1101" y="382">rdfs:subClassOf  </tspan>
</text>
</g>
<g id="2002696654"><path d="M833,525 L833,405 831,401 827,399 713,399 709,397 707,393 707,245 "
style="fill:none;stroke-width:1;stroke:Black;"/>
<line x1="704" y1="251" x2="707" y2="245"
 style="stroke-width:1;stroke:Black;"/>
<line x1="710" y1="251" x2="707" y2="245"
 style="stroke-width:1;stroke:Black;"/>
<text style="font-family:Arial;font-size:12px;kerning:0;word-spacing:-1px;fill:Black;">
<tspan x="735" y="521">rdfs:subClassOf  </tspan>
</text>
</g>
<g id="2002696589"><path d="M1056,190 L1056,285 1058,289 1062,291 1308,291 1312,293 1314,297 1314,492 "
style="fill:none;stroke-width:1;stroke:Black;"/>
<line x1="1311" y1="486" x2="1314" y2="492"
 style="stroke-width:1;stroke:Black;"/>
<line x1="1317" y1="486" x2="1314" y2="492"
 style="stroke-width:1;stroke:Black;"/>
<text style="font-family:Arial;font-size:12px;kerning:0;word-spacing:-1px;fill:Black;">
<tspan x="1058" y="205">owl:onProperty  D</tspan>
</text>
</g>
<g id="2002696724"><path d="M1463,492 L1463,237 "
style="fill:none;stroke-width:1;stroke:Black;"/>
<line x1="1460" y1="243" x2="1463" y2="237"
 style="stroke-width:1;stroke:Black;"/>
<line x1="1466" y1="243" x2="1463" y2="237"
 style="stroke-width:1;stroke:Black;"/>
<text style="font-family:Arial;font-size:12px;kerning:0;word-spacing:-1px;fill:Black;">
<tspan x="1322" y="488">rdfs:isDescribedUsing  D</tspan>
</text>
</g>
<g id="2002696689"><path d="M238,135 L238,62 240,58 244,56 1055,56 1059,58 1061,62 1061,110 "
style="fill:none;stroke-width:1;stroke:Black;"/>
<line x1="1058" y1="104" x2="1061" y2="110"
 style="stroke-width:1;stroke:Black;"/>
<line x1="1064" y1="104" x2="1061" y2="110"
 style="stroke-width:1;stroke:Black;"/>
<text style="font-family:Arial;font-size:12px;kerning:0;word-spacing:-1px;fill:Black;">
<tspan x="119" y="131">owl:equivalentClass  </tspan>
</text>
</g>
<g id="2002696579"><path d="M1182,35 L100,35 96,37 94,41 94,135 "
style="fill:none;stroke-width:1;stroke:Black;"/>
<line x1="91" y1="129" x2="94" y2="135"
 style="stroke-width:1;stroke:Black;"/>
<line x1="97" y1="129" x2="94" y2="135"
 style="stroke-width:1;stroke:Black;"/>
<text style="font-family:Arial;font-size:12px;kerning:0;word-spacing:-1px;fill:Black;">
<tspan x="1058" y="48">gr:BusinessEntity  DR</tspan>
</text>
</g>
<g id="2002696599"><path d="M176,773 L176,804 "
style="fill:none;stroke-width:1;stroke:Black;"/>
<line x1="173" y1="798" x2="176" y2="804"
 style="stroke-width:1;stroke:Black;"/>
<line x1="179" y1="798" x2="176" y2="804"
 style="stroke-width:1;stroke:Black;"/>
<text style="font-family:Arial;font-size:12px;kerning:0;word-spacing:-1px;fill:Black;">
<tspan x="178" y="788">gr:typeOfGood  DR</tspan>
</text>
</g>
<g id="2002696614"><path d="M1389,707 L1389,751 1391,755 1395,757 1482,757 1486,755 1488,751 1488,22 1486,18 1482,16 703,16 699,18 697,22 697,75 "
style="fill:none;stroke-width:1;stroke:Black;"/>
<line x1="694" y1="69" x2="697" y2="75"
 style="stroke-width:1;stroke:Black;"/>
<line x1="700" y1="69" x2="697" y2="75"
 style="stroke-width:1;stroke:Black;"/>
<text style="font-family:Arial;font-size:12px;kerning:0;word-spacing:-1px;fill:Black;">
<tspan x="1391" y="722">rdfs:domain  </tspan>
</text>
</g>
<g id="2002696779"><path d="M771,347 L657,347 653,349 651,353 651,567 "
style="fill:none;stroke-width:2;stroke:Fuchsia;"/>
<polygon points="761,352 771,347 761,342 "
style="fill:Silver;stroke-width:1;stroke:Black;"/>
<text style="font-family:Arial;font-size:12px;kerning:0;word-spacing:-1px;fill:Black;">
<tspan x="757" y="360"> </tspan>
</text>
</g>
<g id="2002696624"><path d="M645,567 L645,245 "
style="fill:none;stroke-width:1;stroke:Black;"/>
<line x1="642" y1="251" x2="645" y2="245"
 style="stroke-width:1;stroke:Black;"/>
<line x1="648" y1="251" x2="645" y2="245"
 style="stroke-width:1;stroke:Black;"/>
<text style="font-family:Arial;font-size:12px;kerning:0;word-spacing:-1px;fill:Black;">
<tspan x="547" y="563">rdfs:subClassOf  </tspan>
</text>
</g>
<g id="2002696729"><path d="M206,290 L206,330 "
style="fill:none;stroke-width:1;stroke:Black;"/>
<line x1="203" y1="324" x2="206" y2="330"
 style="stroke-width:1;stroke:Black;"/>
<line x1="209" y1="324" x2="206" y2="330"
 style="stroke-width:1;stroke:Black;"/>
<text style="font-family:Arial;font-size:12px;kerning:0;word-spacing:-1px;fill:Black;">
<tspan x="208" y="305">gr:offers  DR</tspan>
</text>
</g>
<g id="2002696674"><path d="M431,515 L431,567 "
style="fill:none;stroke-width:1;stroke:Black;"/>
<line x1="428" y1="561" x2="431" y2="567"
 style="stroke-width:1;stroke:Black;"/>
<line x1="434" y1="561" x2="431" y2="567"
 style="stroke-width:1;stroke:Black;"/>
<text style="font-family:Arial;font-size:12px;kerning:0;word-spacing:-1px;fill:Black;">
<tspan x="433" y="530">gr:includes  D</tspan>
</text>
</g>
<g id="2002696734"><path d="M275,515 L275,693 "
style="fill:none;stroke-width:1;stroke:Black;"/>
<line x1="272" y1="687" x2="275" y2="693"
 style="stroke-width:1;stroke:Black;"/>
<line x1="278" y1="687" x2="275" y2="693"
 style="stroke-width:1;stroke:Black;"/>
<text style="font-family:Arial;font-size:12px;kerning:0;word-spacing:-1px;fill:Black;">
<tspan x="277" y="530">gr:includesObject  DR</tspan>
</text>
</g>
<g id="2002696629"><path d="M176,400 L31,400 27,402 25,406 25,531 "
style="fill:none;stroke-width:1;stroke:Black;"/>
<line x1="22" y1="525" x2="25" y2="531"
 style="stroke-width:1;stroke:Black;"/>
<line x1="28" y1="525" x2="25" y2="531"
 style="stroke-width:1;stroke:Black;"/>
<text style="font-family:Arial;font-size:12px;kerning:0;word-spacing:-1px;fill:Black;">
<tspan x="33" y="413">gr:availableAtOrFrom  DR</tspan>
</text>
</g>
<g id="2002696584"><path d="M745,1223 L745,1169 "
style="fill:none;stroke-width:1;stroke:Black;"/>
<line x1="742" y1="1175" x2="745" y2="1169"
 style="stroke-width:1;stroke:Black;"/>
<line x1="748" y1="1175" x2="745" y2="1169"
 style="stroke-width:1;stroke:Black;"/>
<text style="font-family:Arial;font-size:12px;kerning:0;word-spacing:-1px;fill:Black;">
<tspan x="582" y="1219">colil:hasRelevantPaperId  DR</tspan>
</text>
</g>
<g id="2002696704"><path d="M764,1169 L764,1223 "
style="fill:none;stroke-width:1;stroke:Black;"/>
<line x1="761" y1="1217" x2="764" y2="1223"
 style="stroke-width:1;stroke:Black;"/>
<line x1="767" y1="1217" x2="764" y2="1223"
 style="stroke-width:1;stroke:Black;"/>
<text style="font-family:Arial;font-size:12px;kerning:0;word-spacing:-1px;fill:Black;">
<tspan x="766" y="1184">colil:hasRelevantBibliographicResourceOf  DR</tspan>
</text>
</g>
<g id="2002696639"><path d="M1409,1055 L1409,1015 1411,1011 1415,1009 1473,1009 1477,1011 1479,1015 1479,1055 "
style="fill:none;stroke-width:1;stroke:Black;"/>
<line x1="1476" y1="1049" x2="1479" y2="1055"
 style="stroke-width:1;stroke:Black;"/>
<line x1="1482" y1="1049" x2="1479" y2="1055"
 style="stroke-width:1;stroke:Black;"/>
<text style="font-family:Arial;font-size:12px;kerning:0;word-spacing:-1px;fill:Black;">
<tspan x="1324" y="1051">dct:license  DR</tspan>
</text>
</g>
<g id="2002696777"><path d="M801,1084 L801,1124 "
style="fill:none;stroke-width:2;stroke:Fuchsia;"/>
<polygon points="806,1094 801,1084 796,1094 "
style="fill:Silver;stroke-width:1;stroke:Black;"/>
<text style="font-family:Arial;font-size:12px;kerning:0;word-spacing:-1px;fill:Black;">
<tspan x="803" y="1099"> </tspan>
</text>
</g>
<g id="2002696699"><path d="M1200,492 L1200,451 "
style="fill:none;stroke-width:1;stroke:Black;"/>
<line x1="1197" y1="457" x2="1200" y2="451"
 style="stroke-width:1;stroke:Black;"/>
<line x1="1203" y1="457" x2="1200" y2="451"
 style="stroke-width:1;stroke:Black;"/>
<text style="font-family:Arial;font-size:12px;kerning:0;word-spacing:-1px;fill:Black;">
<tspan x="1126" y="488">rdfs:domain  </tspan>
</text>
</g>
<g id="2002696644"><path d="M463,1015 L463,990 465,986 469,984 534,984 538,986 540,990 540,1015 "
style="fill:none;stroke-width:1;stroke:Black;"/>
<line x1="537" y1="1009" x2="540" y2="1015"
 style="stroke-width:1;stroke:Black;"/>
<line x1="543" y1="1009" x2="540" y2="1015"
 style="stroke-width:1;stroke:Black;"/>
<text style="font-family:Arial;font-size:12px;kerning:0;word-spacing:-1px;fill:Black;">
<tspan x="378" y="1011">doco:contains  </tspan>
</text>
</g>
</svg>
