<?xml version="1.0" encoding="UTF-8" standalone="no"?>
<!DOCTYPE svg PUBLIC "-//W3C//DTD SVG 1.1//EN"
"http://www.w3.org/Graphics/SVG/1.1/DTD/svg11.dtd">
<svg version="1.1" xmlns="http://www.w3.org/2000/svg"
xmlns:xlink="http://www.w3.org/1999/xlink" xml:space="preserve"
 width="1107" height="829" viewBox="0 0 1107 829">
 onmousemove="movetip(evt)" onmouseup="endmove()">
<rect x="0" y="0" width="100%" height="100%" style="fill:White;"/>
<script type="application/ecmascript"> <![CDATA[
var dragtipid = null; var dragcase = false; function init(evt){
if (window.svgDocument==null) svgDocument = evt.target.ownerDocument;
}
function movetip(evt){if (dragtipid!=null){ dragcase = true;
var tip=svgDocument.getElementById(dragtipid);
tip.setAttributeNS(null,"x",evt.clientX-2);
tip.setAttributeNS(null,"y",evt.clientY-2);
}}
function endmove(){dragtipid = null;}
function startmove(evt,id){dragtipid = id; dragcase = false;
var tip=svgDocument.getElementById(dragtipid);
tip.setAttributeNS(null,"x",evt.clientX-2);
tip.setAttributeNS(null,"y",evt.clientY-2);
}
function Showtip(evt,id){ dragtipid = null;
var tip=svgDocument.getElementById(id);
var vis=tip.getAttributeNS(null,"visibility");
if (vis=="hidden"){
tip.setAttributeNS(null,"x",evt.clientX-2);
tip.setAttributeNS(null,"y",evt.clientY-2);
tip.setAttributeNS(null,"visibility","visible");
}}
function Hidetip(id){ dragtipid = null; if (dragcase==false){
var tip=svgDocument.getElementById(id);
tip.setAttributeNS(null,"visibility","hidden");
}}
]]></script>
<defs><linearGradient id="activ1" x1="0%" y1="0%" x2="100%" y2="0%">
<stop offset="0%" style="stop-color:#FFFF00;stop-opacity:1"/>
<stop offset="100%" style="stop-color:#FFFFF0;stop-opacity:1"/>
</linearGradient></defs>
<g id="2002683065"><polygon points="155,530 455,530 455,615 155,615 "
style="fill:#F4D03F; stroke-width:1;stroke:Black;"/>
<text style="font-family:Arial;font-size:12px;kerning:0;word-spacing:-1px;fill:Black;font-weight:bold;">
<tspan x="222" y="545">ontolex:LexicalSense (2.1e5)</tspan>
</text>
<line x1="159" y1="548" x2="453" y2="548"
 style="stroke-width:1;stroke:Black;"/>
<text style="font-family:Arial;font-size:12px;kerning:0;word-spacing:-1px;fill:Black;">
<tspan x="159" y="560">rdf:type (2.1e5) [1]  -&gt; IRI</tspan>
</text>
</g>
<g id="2002683043"><polygon points="605,104 857,104 857,427 605,427 "
style="fill:#F4D03F; stroke-width:1;stroke:Black;"/>
<text style="font-family:Arial;font-size:12px;kerning:0;word-spacing:-1px;fill:Black;font-weight:bold;">
<tspan x="642" y="119">ontolex:LexicalConcept (1.2e5)</tspan>
</text>
<line x1="609" y1="122" x2="855" y2="122"
 style="stroke-width:1;stroke:Black;"/>
<text style="font-family:Arial;font-size:12px;kerning:0;word-spacing:-1px;fill:Black;">
<tspan x="609" y="134">dct:subject (1.2e5) [1] D</tspan>
<tspan x="609" y="149">owl:sameAs (1.2e5) [1] D -&gt; IRI</tspan>
<tspan x="609" y="164">princ:definition (1.2e5) [1] D -&gt; IRI</tspan>
<tspan x="609" y="179">princ:partOfSpeech (1.2e5) [1]  -&gt; IRI</tspan>
<tspan x="609" y="194">rdf:type (1.2e5) [1]  -&gt; IRI</tspan>
</text>
</g>
<g id="2002683054"><polygon points="208,90 508,90 508,170 208,170 "
style="fill:#F4D03F; stroke-width:1;stroke:Black;"/>
<text style="font-family:Arial;font-size:12px;kerning:0;word-spacing:-1px;fill:Black;font-weight:bold;">
<tspan x="278" y="105">ontolex:LexicalEntry (1.6e5)</tspan>
</text>
<line x1="212" y1="108" x2="506" y2="108"
 style="stroke-width:1;stroke:Black;"/>
<text style="font-family:Arial;font-size:12px;kerning:0;word-spacing:-1px;fill:Black;">
<tspan x="212" y="120">ontolex:canonicalForm (2.1e5) [*] D -&gt; IRI</tspan>
<tspan x="212" y="135">princ:partOfSpeech (1.6e5) [1]  -&gt; IRI</tspan>
<tspan x="212" y="150">rdf:type (1.6e5) [1]  -&gt; IRI</tspan>
<tspan x="212" y="165">synsem:synBehavior (9.9e4) [*] D -&gt; IRI</tspan>
</text>
</g>
<g id="2002683033"><path d="M611,427 L611,549 609,553 605,555 455,555 "
style="fill:none;stroke-width:1;stroke:Black;"/>
<line x1="461" y1="552" x2="455" y2="555"
 style="stroke-width:1;stroke:Black;"/>
<line x1="461" y1="558" x2="455" y2="555"
 style="stroke-width:1;stroke:Black;"/>
<text style="font-family:Arial;font-size:12px;kerning:0;word-spacing:-1px;fill:Black;">
<tspan x="613" y="442">princ:similar  </tspan>
<tspan x="613" y="457">princ:domain_topic  </tspan>
<tspan x="613" y="472">princ:has_domain_topic  </tspan>
<tspan x="613" y="487">princ:also  </tspan>
<tspan x="613" y="502">princ:has_domain_region  </tspan>
<tspan x="613" y="517">princ:domain_region  </tspan>
<tspan x="613" y="532">princ:is_exemplified_by  </tspan>
<tspan x="613" y="547">princ:exemplifies  </tspan>
</text>
</g>
<g id="2002683038"><path d="M375,170 L375,530 "
style="fill:none;stroke-width:1;stroke:Black;"/>
<line x1="372" y1="524" x2="375" y2="530"
 style="stroke-width:1;stroke:Black;"/>
<line x1="378" y1="524" x2="375" y2="530"
 style="stroke-width:1;stroke:Black;"/>
<text style="font-family:Arial;font-size:12px;kerning:0;word-spacing:-1px;fill:Black;">
<tspan x="377" y="185">ontolex:sense  DR</tspan>
</text>
</g>
<g id="2002683023"><path d="M449,615 L449,812 451,816 455,818 763,818 767,816 769,812 769,427 "
style="fill:none;stroke-width:1;stroke:Black;"/>
<line x1="766" y1="433" x2="769" y2="427"
 style="stroke-width:1;stroke:Black;"/>
<line x1="772" y1="433" x2="769" y2="427"
 style="stroke-width:1;stroke:Black;"/>
<text style="font-family:Arial;font-size:12px;kerning:0;word-spacing:-1px;fill:Black;">
<tspan x="451" y="630">ontolex:isLexicalizedSenseOf  DR</tspan>
<tspan x="451" y="645">princ:similar  </tspan>
<tspan x="451" y="660">princ:domain_topic  </tspan>
<tspan x="451" y="675">princ:has_domain_topic  </tspan>
<tspan x="451" y="690">princ:also  </tspan>
<tspan x="451" y="705">princ:has_domain_region  </tspan>
<tspan x="451" y="720">princ:domain_region  </tspan>
<tspan x="451" y="735">princ:is_exemplified_by  </tspan>
<tspan x="451" y="750">princ:exemplifies  </tspan>
</text>
</g>
<g id="2002683028"><path d="M857,421 L1090,421 1094,419 1096,415 1096,16 1094,12 1090,10 797,10 793,12 791,16 791,104 "
style="fill:none;stroke-width:1;stroke:Black;"/>
<line x1="788" y1="98" x2="791" y2="104"
 style="stroke-width:1;stroke:Black;"/>
<line x1="794" y1="98" x2="791" y2="104"
 style="stroke-width:1;stroke:Black;"/>
<text style="font-family:Arial;font-size:12px;kerning:0;word-spacing:-1px;fill:Black;">
<tspan x="861" y="119">princ:hypernym  DR</tspan>
<tspan x="861" y="134">princ:hyponym  DR</tspan>
<tspan x="861" y="149">princ:similar  </tspan>
<tspan x="861" y="164">princ:holo_member  DR</tspan>
<tspan x="861" y="179">princ:mero_member  DR</tspan>
<tspan x="861" y="194">princ:holo_part  DR</tspan>
<tspan x="861" y="209">princ:mero_part  DR</tspan>
<tspan x="861" y="224">princ:instance_hyponym  DR</tspan>
<tspan x="861" y="239">princ:instance_hypernym  DR</tspan>
<tspan x="861" y="254">princ:domain_topic  </tspan>
<tspan x="861" y="269">princ:has_domain_topic  </tspan>
<tspan x="861" y="284">princ:also  </tspan>
<tspan x="861" y="299">princ:has_domain_region  </tspan>
<tspan x="861" y="314">princ:domain_region  </tspan>
<tspan x="861" y="329">princ:is_exemplified_by  </tspan>
<tspan x="861" y="344">princ:exemplifies  </tspan>
<tspan x="861" y="359">princ:attribute  DR</tspan>
<tspan x="861" y="374">princ:mero_substance  DR</tspan>
<tspan x="861" y="389">princ:holo_substance  DR</tspan>
<tspan x="861" y="404">princ:entails  DR</tspan>
<tspan x="861" y="419">princ:causes  DR</tspan>
</text>
</g>
<g id="2002683018"><path d="M161,530 L161,326 163,322 167,320 339,320 343,322 345,326 345,530 "
style="fill:none;stroke-width:1;stroke:Black;"/>
<line x1="342" y1="524" x2="345" y2="530"
 style="stroke-width:1;stroke:Black;"/>
<line x1="348" y1="524" x2="345" y2="530"
 style="stroke-width:1;stroke:Black;"/>
<text style="font-family:Arial;font-size:12px;kerning:0;word-spacing:-1px;fill:Black;">
<tspan x="11" y="361">princ:derivation  DR</tspan>
<tspan x="11" y="376">princ:similar  </tspan>
<tspan x="11" y="391">princ:antonym  DR</tspan>
<tspan x="11" y="406">princ:domain_topic  </tspan>
<tspan x="11" y="421">princ:has_domain_topic  </tspan>
<tspan x="11" y="436">princ:pertainym  DR</tspan>
<tspan x="11" y="451">princ:also  </tspan>
<tspan x="11" y="466">princ:has_domain_region  </tspan>
<tspan x="11" y="481">princ:domain_region  </tspan>
<tspan x="11" y="496">princ:is_exemplified_by  </tspan>
<tspan x="11" y="511">princ:exemplifies  </tspan>
<tspan x="11" y="526">princ:participle  DR</tspan>
</text>
</g>
</svg>
