<?xml version="1.0" encoding="UTF-8" standalone="no"?>
<!DOCTYPE svg PUBLIC "-//W3C//DTD SVG 1.1//EN"
"http://www.w3.org/Graphics/SVG/1.1/DTD/svg11.dtd">
<svg version="1.1" xmlns="http://www.w3.org/2000/svg"
xmlns:xlink="http://www.w3.org/1999/xlink" xml:space="preserve"
 width="805" height="1042" viewBox="0 0 805 1042">
 onmousemove="movetip(evt)" onmouseup="endmove()">
<rect x="0" y="0" width="100%" height="100%" style="fill:White;"/>
<script type="application/ecmascript"> <![CDATA[
var dragtipid = null; var dragcase = false; function init(evt){
if (window.svgDocument==null) svgDocument = evt.target.ownerDocument;
}
function movetip(evt){if (dragtipid!=null){ dragcase = true;
var tip=svgDocument.getElementById(dragtipid);
tip.setAttributeNS(null,"x",evt.clientX-2);
tip.setAttributeNS(null,"y",evt.clientY-2);
}}
function endmove(){dragtipid = null;}
function startmove(evt,id){dragtipid = id; dragcase = false;
var tip=svgDocument.getElementById(dragtipid);
tip.setAttributeNS(null,"x",evt.clientX-2);
tip.setAttributeNS(null,"y",evt.clientY-2);
}
function Showtip(evt,id){ dragtipid = null;
var tip=svgDocument.getElementById(id);
var vis=tip.getAttributeNS(null,"visibility");
if (vis=="hidden"){
tip.setAttributeNS(null,"x",evt.clientX-2);
tip.setAttributeNS(null,"y",evt.clientY-2);
tip.setAttributeNS(null,"visibility","visible");
}}
function Hidetip(id){ dragtipid = null; if (dragcase==false){
var tip=svgDocument.getElementById(id);
tip.setAttributeNS(null,"visibility","hidden");
}}
]]></script>
<defs><linearGradient id="activ1" x1="0%" y1="0%" x2="100%" y2="0%">
<stop offset="0%" style="stop-color:#FFFF00;stop-opacity:1"/>
<stop offset="100%" style="stop-color:#FFFFF0;stop-opacity:1"/>
</linearGradient></defs>
<g id="2002722218"><polygon points="538,45 793,45 793,185 538,185 "
style="fill:#F4D03F; stroke-width:1;stroke:Black;"/>
<text style="font-family:Arial;font-size:12px;kerning:0;word-spacing:-1px;fill:Black;font-weight:bold;">
<tspan x="606" y="60">skos:Concept (4444)</tspan>
</text>
<line x1="542" y1="63" x2="791" y2="63"
 style="stroke-width:1;stroke:Black;"/>
<text style="font-family:Arial;font-size:12px;kerning:0;word-spacing:-1px;fill:Black;">
<tspan x="542" y="75">rdf:type (4444) [1]  -&gt; IRI</tspan>
<tspan x="542" y="90">skos:altLabel (6737) [*] </tspan>
<tspan x="542" y="105">skos:note (2800) [*] </tspan>
<tspan x="542" y="120">skos:prefLabel (4444) [*] </tspan>
<tspan x="542" y="135">&lt;&gt; skos:broader  </tspan>
<tspan x="542" y="150">&lt;&gt; skos:closeMatch  </tspan>
<tspan x="542" y="165">&lt;&gt; skos:narrower  </tspan>
<tspan x="542" y="180">&lt;&gt; skos:related  </tspan>
</text>
</g>
<g id="2002722229"><polygon points="96,453 378,453 378,533 96,533 "
style="fill:#F4D03F; stroke-width:1;stroke:Black;"/>
<text style="font-family:Arial;font-size:12px;kerning:0;word-spacing:-1px;fill:Black;font-weight:bold;">
<tspan x="197" y="468">cc:License (4)</tspan>
</text>
<line x1="100" y1="471" x2="376" y2="471"
 style="stroke-width:1;stroke:Black;"/>
<text style="font-family:Arial;font-size:12px;kerning:0;word-spacing:-1px;fill:Black;">
<tspan x="100" y="483">rdf:type (4) [1]  -&gt; IRI</tspan>
<tspan x="100" y="498">vocab:oaiSourceIdentifier (1.1e5) [*] </tspan>
<tspan x="100" y="513">vocab:oaiSourceRepository (4) [1]  -&gt; IRI</tspan>
<tspan x="100" y="528">&lt;&gt; odrl:inheritFrom  </tspan>
</text>
</g>
<g id="2002722240"><polygon points="96,274 375,274 375,414 96,414 "
style="fill:#F4D03F; stroke-width:1;stroke:Black;"/>
<text style="font-family:Arial;font-size:12px;kerning:0;word-spacing:-1px;fill:Black;font-weight:bold;">
<tspan x="168" y="289">ore:Aggregation (5.5e5)</tspan>
</text>
<line x1="100" y1="292" x2="373" y2="292"
 style="stroke-width:1;stroke:Black;"/>
<text style="font-family:Arial;font-size:12px;kerning:0;word-spacing:-1px;fill:Black;">
<tspan x="100" y="304">edm:dataProvider (5.5e5) [1] </tspan>
<tspan x="100" y="319">edm:isShownAt (5.5e5) [*]  -&gt; IRI</tspan>
<tspan x="100" y="334">edm:isShownBy (3.4e5) [*]  -&gt; IRI</tspan>
<tspan x="100" y="349">edm:object (3.4e5) [*]  -&gt; IRI</tspan>
<tspan x="100" y="364">edm:provider (5.5e5) [1] </tspan>
<tspan x="100" y="379">rdf:type (5.5e5) [1]  -&gt; IRI</tspan>
<tspan x="100" y="394">vocab:oaiSourceIdentifier (5.5e5) [*] </tspan>
<tspan x="100" y="409">vocab:oaiSourceRepository (5.5e5) [1]  -&gt; IRI</tspan>
</text>
</g>
<g id="2002722251"><polygon points="538,847 795,847 795,1032 538,1032 "
style="fill:#F4D03F; stroke-width:1;stroke:Black;"/>
<text style="font-family:Arial;font-size:12px;kerning:0;word-spacing:-1px;fill:Black;font-weight:bold;">
<tspan x="616" y="862">edm:Place (3975)</tspan>
</text>
<line x1="542" y1="865" x2="793" y2="865"
 style="stroke-width:1;stroke:Black;"/>
<text style="font-family:Arial;font-size:12px;kerning:0;word-spacing:-1px;fill:Black;">
<tspan x="542" y="877">rdf:type (3975) [1]  -&gt; IRI</tspan>
<tspan x="542" y="892">skos:altLabel (521) [*] </tspan>
<tspan x="542" y="907">skos:note (2269) [*] </tspan>
<tspan x="542" y="922">skos:prefLabel (4823) [*] </tspan>
<tspan x="542" y="937">vocab:oaiSourceIdentifier (1.2e5) [*] </tspan>
<tspan x="542" y="952">vocab:oaiSourceRepository (3975) [1]  -&gt; IRI</tspan>
<tspan x="542" y="967">wgs84_pos:lat (817) [*] </tspan>
<tspan x="542" y="982">wgs84_pos:long (842) [*] </tspan>
<tspan x="542" y="997">&lt;&gt; dct:hasPart  </tspan>
<tspan x="542" y="1012">&lt;&gt; dct:isPartOf  </tspan>
<tspan x="542" y="1027">&lt;&gt; owl:sameAs  </tspan>
</text>
</g>
<g id="2002722262"><polygon points="96,45 480,45 480,240 96,240 "
style="fill:White; stroke-width:1;stroke:Black;"/>
<text style="font-family:Arial;font-size:12px;kerning:0;word-spacing:-1px;fill:Black;">
<tspan x="100" y="59">PREFIX edm: &lt;http://www.europeana.eu/schemas/edm/&gt;</tspan>
<tspan x="100" y="74">PREFIX dct: &lt;http://purl.org/dc/terms/&gt;</tspan>
<tspan x="100" y="89">PREFIX dc: &lt;http://purl.org/dc/elements/1.1/&gt;</tspan>
<tspan x="100" y="104">PREFIX rdvocab: &lt;http://rdvocab.info/ElementsGr2/&gt;</tspan>
<tspan x="100" y="119">PREFIX skos: &lt;http://www.w3.org/2004/02/skos/core#&gt;</tspan>
<tspan x="100" y="134">PREFIX vocab: &lt;http://brujula.serdoc.es/vocab#&gt;</tspan>
<tspan x="100" y="149">PREFIX wgs84_pos: &lt;http://www.w3.org/2003/01/geo/wgs84_pos#&gt;</tspan>
<tspan x="100" y="164">PREFIX ore: &lt;http://www.openarchives.org/ore/terms/&gt;</tspan>
<tspan x="100" y="179">PREFIX cc: &lt;http://creativecommons.org/ns#&gt;</tspan>
<tspan x="100" y="194">PREFIX rdf: &lt;http://www.w3.org/1999/02/22-rdf-syntax-ns#&gt;</tspan>
<tspan x="100" y="209">PREFIX owl: &lt;http://www.w3.org/2002/07/owl#&gt;</tspan>
<tspan x="100" y="224">PREFIX odrl: &lt;http://www.w3.org/ns/odrl/2/&gt;</tspan>
</text>
</g>
<g id="2002722273"><polygon points="538,226 795,226 795,775 538,775 "
style="fill:#F4D03F; stroke-width:1;stroke:Black;"/>
<text style="font-family:Arial;font-size:12px;kerning:0;word-spacing:-1px;fill:Black;font-weight:bold;">
<tspan x="592" y="241">edm:ProvidedCHO (5.5e5)</tspan>
</text>
<line x1="542" y1="244" x2="793" y2="244"
 style="stroke-width:1;stroke:Black;"/>
<text style="font-family:Arial;font-size:12px;kerning:0;word-spacing:-1px;fill:Black;">
<tspan x="542" y="256">dc:date (5.5e5) [*] </tspan>
<tspan x="542" y="271">dc:description (8.4e5) [*] </tspan>
<tspan x="542" y="286">dc:format (5.5e5) [*] </tspan>
<tspan x="542" y="301">dc:identifier (9.1e5) [*] </tspan>
<tspan x="542" y="316">dc:language (5.6e5) [*] </tspan>
<tspan x="542" y="331">dc:relation (246) [*] </tspan>
<tspan x="542" y="346">dc:rights (9.4e5) [*] </tspan>
<tspan x="542" y="361">dc:source (10) [*] </tspan>
<tspan x="542" y="376">dc:title (9.1e5) [*] </tspan>
<tspan x="542" y="391">dc:type (8.5e5) [*] </tspan>
<tspan x="542" y="406">dct:alternative (3.2e4) [*] </tspan>
<tspan x="542" y="421">dct:created (510) [*] </tspan>
<tspan x="542" y="436">dct:extent (3.7e5) [*] </tspan>
<tspan x="542" y="451">dct:hasFormat (8) [*] </tspan>
<tspan x="542" y="466">dct:isReferencedBy (3.7e4) [*] </tspan>
<tspan x="542" y="481">dct:isVersionOf (13) [*] </tspan>
<tspan x="542" y="496">dct:issued (2.3e5) [*] </tspan>
<tspan x="542" y="511">dct:medium (5799) [*] </tspan>
<tspan x="542" y="526">dct:provenance (2) [1] </tspan>
<tspan x="542" y="541">dct:tableOfContents (2.5e4) [*] </tspan>
<tspan x="542" y="556">dct:temporal (4.4e4) [*] </tspan>
<tspan x="542" y="571">edm:currentLocation (3.7e5) [*] </tspan>
<tspan x="542" y="586">edm:hasType (3.7e5) [*] </tspan>
<tspan x="542" y="601">edm:type (5.5e5) [*] </tspan>
<tspan x="542" y="616">rdf:type (5.5e5) [1]  -&gt; IRI</tspan>
<tspan x="542" y="631">vocab:oaiSourceIdentifier (5.5e5) [*] </tspan>
<tspan x="542" y="646">vocab:oaiSourceRepository (5.5e5) [1]  -&gt; IRI</tspan>
<tspan x="542" y="661">&lt;&gt; dct:hasPart  </tspan>
<tspan x="542" y="676">&lt;&gt; dct:isPartOf  </tspan>
<tspan x="542" y="691">&lt;&gt; dct:isReplacedBy  </tspan>
<tspan x="542" y="706">&lt;&gt; dct:replaces  </tspan>
<tspan x="542" y="721">&lt;&gt; edm:isNextInSequence  </tspan>
<tspan x="542" y="736">&lt;&gt; edm:isRelatedTo  </tspan>
</text>
</g>
<g id="2002722284"><polygon points="96,568 396,568 396,872 96,872 "
style="fill:#F4D03F; stroke-width:1;stroke:Black;"/>
<text style="font-family:Arial;font-size:12px;kerning:0;word-spacing:-1px;fill:Black;font-weight:bold;">
<tspan x="193" y="583">edm:Agent (1.5e5)</tspan>
</text>
<line x1="100" y1="586" x2="394" y2="586"
 style="stroke-width:1;stroke:Black;"/>
<text style="font-family:Arial;font-size:12px;kerning:0;word-spacing:-1px;fill:Black;">
<tspan x="100" y="598">edm:begin (585) [*] </tspan>
<tspan x="100" y="613">edm:end (580) [*] </tspan>
<tspan x="100" y="628">rdf:type (1.5e5) [1]  -&gt; IRI</tspan>
<tspan x="100" y="643">rdvocab:biographicalInformation (683) [*] </tspan>
<tspan x="100" y="658">rdvocab:dateOfBirth (498) [*] </tspan>
<tspan x="100" y="673">rdvocab:dateOfDeath (524) [*] </tspan>
<tspan x="100" y="688">rdvocab:dateOfEstablishment (48) [1] </tspan>
<tspan x="100" y="703">rdvocab:dateOfTermination (30) [1] </tspan>
<tspan x="100" y="718">rdvocab:gender (691) [*] </tspan>
<tspan x="100" y="733">rdvocab:placeOfBirth (685) [*] </tspan>
<tspan x="100" y="748">rdvocab:placeOfDeath (597) [*] </tspan>
<tspan x="100" y="763">rdvocab:professionOrOccupation (3398) [*] </tspan>
<tspan x="100" y="778">skos:altLabel (4581) [*] </tspan>
<tspan x="100" y="793">skos:note (3710) [*] </tspan>
<tspan x="100" y="808">skos:prefLabel (1.5e5) [*] </tspan>
<tspan x="100" y="823">vocab:oaiSourceIdentifier (1.2e6) [*] </tspan>
<tspan x="100" y="838">vocab:oaiSourceRepository (1.5e5) [1]  -&gt; IRI</tspan>
<tspan x="100" y="853">&lt;&gt; edm:isRelatedTo  </tspan>
</text>
</g>
<g id="2002722173"><path d="M538,608 L396,608 "
style="fill:none;stroke-width:1;stroke:Black;"/>
<line x1="402" y1="605" x2="396" y2="608"
 style="stroke-width:1;stroke:Black;"/>
<line x1="402" y1="611" x2="396" y2="608"
 style="stroke-width:1;stroke:Black;"/>
<text style="font-family:Arial;font-size:12px;kerning:0;word-spacing:-1px;fill:Black;">
<tspan x="433" y="621">dc:creator  </tspan>
<tspan x="433" y="636">dc:subject  </tspan>
<tspan x="433" y="651">dct:isPartOf  </tspan>
<tspan x="433" y="666">dc:publisher  </tspan>
<tspan x="433" y="681">dc:contributor  </tspan>
<tspan x="433" y="696">edm:isRelatedTo  </tspan>
</text>
</g>
<g id="2002722178"><path d="M396,761 L538,761 "
style="fill:none;stroke-width:1;stroke:Black;"/>
<line x1="532" y1="758" x2="538" y2="761"
 style="stroke-width:1;stroke:Black;"/>
<line x1="532" y1="764" x2="538" y2="761"
 style="stroke-width:1;stroke:Black;"/>
<text style="font-family:Arial;font-size:12px;kerning:0;word-spacing:-1px;fill:Black;">
<tspan x="400" y="759">edm:isRelatedTo  </tspan>
</text>
</g>
<g id="2002722183"><path d="M243,872 L243,898 245,902 249,904 538,904 "
style="fill:none;stroke-width:1;stroke:Black;"/>
<line x1="532" y1="901" x2="538" y2="904"
 style="stroke-width:1;stroke:Black;"/>
<line x1="532" y1="907" x2="538" y2="904"
 style="stroke-width:1;stroke:Black;"/>
<text style="font-family:Arial;font-size:12px;kerning:0;word-spacing:-1px;fill:Black;">
<tspan x="245" y="887">owl:sameAs  </tspan>
</text>
</g>
<g id="2002722188"><path d="M688,226 L688,185 "
style="fill:none;stroke-width:1;stroke:Black;"/>
<line x1="685" y1="191" x2="688" y2="185"
 style="stroke-width:1;stroke:Black;"/>
<line x1="691" y1="191" x2="688" y2="185"
 style="stroke-width:1;stroke:Black;"/>
<text style="font-family:Arial;font-size:12px;kerning:0;word-spacing:-1px;fill:Black;">
<tspan x="624" y="222">dc:subject  </tspan>
</text>
</g>
<g id="2002722193"><path d="M538,864 L396,864 "
style="fill:none;stroke-width:1;stroke:Black;"/>
<line x1="402" y1="861" x2="396" y2="864"
 style="stroke-width:1;stroke:Black;"/>
<line x1="402" y1="867" x2="396" y2="864"
 style="stroke-width:1;stroke:Black;"/>
<text style="font-family:Arial;font-size:12px;kerning:0;word-spacing:-1px;fill:Black;">
<tspan x="465" y="877">dct:isPartOf  </tspan>
</text>
</g>
<g id="2002722198"><path d="M235,414 L235,453 "
style="fill:none;stroke-width:1;stroke:Black;"/>
<line x1="232" y1="447" x2="235" y2="453"
 style="stroke-width:1;stroke:Black;"/>
<line x1="238" y1="447" x2="235" y2="453"
 style="stroke-width:1;stroke:Black;"/>
<text style="font-family:Arial;font-size:12px;kerning:0;word-spacing:-1px;fill:Black;">
<tspan x="237" y="429">edm:rights  </tspan>
</text>
</g>
<g id="2002722203"><path d="M729,847 L729,775 "
style="fill:none;stroke-width:1;stroke:Black;"/>
<line x1="726" y1="781" x2="729" y2="775"
 style="stroke-width:1;stroke:Black;"/>
<line x1="732" y1="781" x2="729" y2="775"
 style="stroke-width:1;stroke:Black;"/>
<text style="font-family:Arial;font-size:12px;kerning:0;word-spacing:-1px;fill:Black;">
<tspan x="658" y="828">dct:isPartOf  </tspan>
<tspan x="658" y="843">dct:hasPart  </tspan>
</text>
</g>
<g id="2002722208"><path d="M375,344 L538,344 "
style="fill:none;stroke-width:1;stroke:Black;"/>
<line x1="532" y1="341" x2="538" y2="344"
 style="stroke-width:1;stroke:Black;"/>
<line x1="532" y1="347" x2="538" y2="344"
 style="stroke-width:1;stroke:Black;"/>
<text style="font-family:Arial;font-size:12px;kerning:0;word-spacing:-1px;fill:Black;">
<tspan x="379" y="342">edm:aggregatedCHO  </tspan>
</text>
</g>
<g id="2002722213"><path d="M580,775 L580,847 "
style="fill:none;stroke-width:1;stroke:Black;"/>
<line x1="577" y1="841" x2="580" y2="847"
 style="stroke-width:1;stroke:Black;"/>
<line x1="583" y1="841" x2="580" y2="847"
 style="stroke-width:1;stroke:Black;"/>
<text style="font-family:Arial;font-size:12px;kerning:0;word-spacing:-1px;fill:Black;">
<tspan x="582" y="790">dc:subject  </tspan>
<tspan x="582" y="805">dct:spatial  </tspan>
<tspan x="582" y="820">dct:isPartOf  </tspan>
<tspan x="582" y="835">dct:hasPart  </tspan>
</text>
</g>
</svg>
