<?xml version="1.0" encoding="UTF-8" standalone="no"?>
<!DOCTYPE svg PUBLIC "-//W3C//DTD SVG 1.1//EN"
"http://www.w3.org/Graphics/SVG/1.1/DTD/svg11.dtd">
<svg version="1.1" xmlns="http://www.w3.org/2000/svg"
xmlns:xlink="http://www.w3.org/1999/xlink" xml:space="preserve"
 width="705" height="686" viewBox="0 0 705 686">
 onmousemove="movetip(evt)" onmouseup="endmove()">
<rect x="0" y="0" width="100%" height="100%" style="fill:White;"/>
<script type="application/ecmascript"> <![CDATA[
var dragtipid = null; var dragcase = false; function init(evt){
if (window.svgDocument==null) svgDocument = evt.target.ownerDocument;
}
function movetip(evt){if (dragtipid!=null){ dragcase = true;
var tip=svgDocument.getElementById(dragtipid);
tip.setAttributeNS(null,"x",evt.clientX-2);
tip.setAttributeNS(null,"y",evt.clientY-2);
}}
function endmove(){dragtipid = null;}
function startmove(evt,id){dragtipid = id; dragcase = false;
var tip=svgDocument.getElementById(dragtipid);
tip.setAttributeNS(null,"x",evt.clientX-2);
tip.setAttributeNS(null,"y",evt.clientY-2);
}
function Showtip(evt,id){ dragtipid = null;
var tip=svgDocument.getElementById(id);
var vis=tip.getAttributeNS(null,"visibility");
if (vis=="hidden"){
tip.setAttributeNS(null,"x",evt.clientX-2);
tip.setAttributeNS(null,"y",evt.clientY-2);
tip.setAttributeNS(null,"visibility","visible");
}}
function Hidetip(id){ dragtipid = null; if (dragcase==false){
var tip=svgDocument.getElementById(id);
tip.setAttributeNS(null,"visibility","hidden");
}}
]]></script>
<defs><linearGradient id="activ1" x1="0%" y1="0%" x2="100%" y2="0%">
<stop offset="0%" style="stop-color:#FFFF00;stop-opacity:1"/>
<stop offset="100%" style="stop-color:#FFFFF0;stop-opacity:1"/>
</linearGradient></defs>
<g id="2002712519"><polygon points="21,108 476,108 476,280 21,280 "
style="fill:White; stroke-width:1;stroke:Black;"/>
<text style="font-family:Arial;font-size:12px;kerning:0;word-spacing:-1px;fill:Black;">
<tspan x="25" y="122">PREFIX terms: &lt;http://purl.org/dc/terms/&gt;</tspan>
<tspan x="25" y="137">PREFIX rdfs: &lt;http://www.w3.org/2000/01/rdf-schema#&gt;</tspan>
<tspan x="25" y="152">PREFIX foaf: &lt;http://xmlns.com/foaf/0.1/&gt;</tspan>
<tspan x="25" y="167">PREFIX gnd: &lt;http://d-nb.info/standards/elementset/gnd#&gt;</tspan>
<tspan x="25" y="182">PREFIX rdf: &lt;http://www.w3.org/1999/02/22-rdf-syntax-ns#&gt;</tspan>
<tspan x="25" y="197">PREFIX dc: &lt;http://purl.org/dc/elements/1.1/&gt;</tspan>
<tspan x="25" y="212">PREFIX bibo: &lt;http://purl.org/ontology/bibo/&gt;</tspan>
<tspan x="25" y="227">PREFIX ccs: &lt;https://creativecommons.org/ns#&gt;</tspan>
<tspan x="25" y="242">PREFIX rdar: &lt;http://metadataregistry.org/uri/schema/RDARelationshipsGR2/&gt;</tspan>
<tspan x="25" y="257">PREFIX geonames: &lt;http://www.geonames.org/ontology#&gt;</tspan>
<tspan x="25" y="272">PREFIX umbel: &lt;http://umbel.org/umbel#&gt;</tspan>
</text>
</g>
<g id="2002712530"><polygon points="473,579 619,579 619,624 473,624 "
style="fill:#F4D03F; stroke-width:1;stroke:Black;"/>
<text style="font-family:Arial;font-size:12px;kerning:0;word-spacing:-1px;fill:Black;font-weight:bold;">
<tspan x="518" y="594">rdf:List (1)</tspan>
</text>
<line x1="477" y1="597" x2="617" y2="597"
 style="stroke-width:1;stroke:Black;"/>
<text style="font-family:Arial;font-size:12px;kerning:0;word-spacing:-1px;fill:Black;">
<tspan x="477" y="609">rdf:type (2) [*]  -&gt; IRI</tspan>
</text>
</g>
<g id="2002712541"><polygon points="124,520 424,520 424,550 124,550 "
style="fill:#F4D03F; stroke-width:1;stroke:Black;"/>
<text style="font-family:Arial;font-size:12px;kerning:0;word-spacing:-1px;fill:Black;font-weight:bold;">
<tspan x="222" y="535">rdfs:Resource (41)</tspan>
</text>
</g>
<g id="2002712552"><polygon points="249,626 394,626 394,676 249,676 "
style="fill:#F4D03F; stroke-width:1;stroke:Black;"/>
<text style="font-family:Arial;font-size:12px;kerning:0;word-spacing:-1px;fill:Black;font-weight:bold;">
<tspan x="274" y="641">rdfs:Datatype (1)</tspan>
</text>
<line x1="253" y1="644" x2="392" y2="644"
 style="stroke-width:1;stroke:Black;"/>
<text style="font-family:Arial;font-size:12px;kerning:0;word-spacing:-1px;fill:Black;">
<tspan x="253" y="656">rdf:type (3) [*]  -&gt; IRI</tspan>
<tspan x="253" y="671">&lt;&gt; rdfs:subClassOf  </tspan>
</text>
</g>
<g id="2002712563"><polygon points="250,576 379,576 379,607 250,607 "
style="fill:#F4D03F; stroke-width:1;stroke:Black;"/>
<text style="font-family:Arial;font-size:12px;kerning:0;word-spacing:-1px;fill:Black;font-weight:bold;">
<tspan x="273" y="591">rdfs:Class (18)</tspan>
</text>
</g>
<g id="2002712574"><polygon points="27,579 239,579 239,659 27,659 "
style="fill:#F4D03F; stroke-width:1;stroke:Black;"/>
<text style="font-family:Arial;font-size:12px;kerning:0;word-spacing:-1px;fill:Black;font-weight:bold;">
<tspan x="87" y="594">rdf:Property (22)</tspan>
</text>
<line x1="31" y1="597" x2="237" y2="597"
 style="stroke-width:1;stroke:Black;"/>
<text style="font-family:Arial;font-size:12px;kerning:0;word-spacing:-1px;fill:Black;">
<tspan x="31" y="609">rdf:type (44) [*]  -&gt; IRI</tspan>
<tspan x="31" y="624">rdfs:domain (16) [1] D -&gt; IRI</tspan>
<tspan x="31" y="639">rdfs:range (16) [1] D -&gt; IRI</tspan>
<tspan x="31" y="654">&lt;&gt; rdfs:subPropertyOf  DR</tspan>
</text>
</g>
<g id="2002712585"><polygon points="16,290 238,290 238,475 16,475 "
style="fill:#F4D03F; stroke-width:1;stroke:Black;"/>
<text style="font-family:Arial;font-size:12px;kerning:0;word-spacing:-1px;fill:Black;font-weight:bold;">
<tspan x="64" y="305">foaf:Document (1.3e4)</tspan>
</text>
<line x1="20" y1="308" x2="236" y2="308"
 style="stroke-width:1;stroke:Black;"/>
<text style="font-family:Arial;font-size:12px;kerning:0;word-spacing:-1px;fill:Black;">
<tspan x="20" y="320">bibo:pages (5558) [*] </tspan>
<tspan x="20" y="335">bibo:shortTitle (5762) [*] </tspan>
<tspan x="20" y="350">ccs:License (1.3e4) [1]  -&gt; IRI</tspan>
<tspan x="20" y="365">dc:contributor (1.3e4) [*]  -&gt; IRI</tspan>
<tspan x="20" y="380">dc:creator (6832) [*] </tspan>
<tspan x="20" y="395">gnd:dateOfBirth (6431) [*] </tspan>
<tspan x="20" y="410">gnd:dateOfDeath (2497) [1] </tspan>
<tspan x="20" y="425">rdf:type (1.3e4) [*]  -&gt; IRI</tspan>
<tspan x="20" y="440">terms:identifier (1.3e4) [1] </tspan>
<tspan x="20" y="455">terms:title (1.3e4) [*] </tspan>
<tspan x="20" y="470">umbel:isLike (821) [*]  -&gt; IRI</tspan>
</text>
</g>
<g id="2002712596"><polygon points="376,286 695,286 695,507 376,507 "
style="fill:#F4D03F; stroke-width:1;stroke:Black;"/>
<text style="font-family:Arial;font-size:12px;kerning:0;word-spacing:-1px;fill:Black;font-weight:bold;">
<tspan x="481" y="301">foaf:Person (1.4e5)</tspan>
</text>
<line x1="380" y1="304" x2="693" y2="304"
 style="stroke-width:1;stroke:Black;"/>
<text style="font-family:Arial;font-size:12px;kerning:0;word-spacing:-1px;fill:Black;">
<tspan x="380" y="316">bibo:pages (1) [*] </tspan>
<tspan x="380" y="331">bibo:shortTitle (1) [*] </tspan>
<tspan x="380" y="346">ccs:License (1.4e5) [1]  -&gt; IRI</tspan>
<tspan x="380" y="361">foaf:name (1.4e5) [*] </tspan>
<tspan x="380" y="376">geonames:countryCode (3.0e4) [*] D</tspan>
<tspan x="380" y="391">gnd:dateOfBirth (9.3e4) [*] </tspan>
<tspan x="380" y="406">gnd:dateOfDeath (3.5e4) [1] </tspan>
<tspan x="380" y="421">gnd:variantNameForTheConferenceOrEvent (6722) [*] D</tspan>
<tspan x="380" y="436">rdar:alternateIdentity (1.2e5) [*] D</tspan>
<tspan x="380" y="451">rdf:type (1.4e5) [*]  -&gt; IRI</tspan>
<tspan x="380" y="466">terms:description (2.3e4) [*] </tspan>
<tspan x="380" y="481">terms:identifier (1.4e5) [1] </tspan>
<tspan x="380" y="496">umbel:isLike (8486) [*]  -&gt; IRI</tspan>
</text>
</g>
<g id="2002794407"><polygon points="203,39 507,39 507,91 203,91 "
style="fill:none; stroke-width:1;stroke:Black;"/>
<text style="font-family:Arial;font-size:18px;kerning:0;word-spacing:-1px;fill:Black;font-weight:bold;">
<tspan x="310" y="59">RISM Data</tspan>
<tspan x="248" y="81">http://data.rism.info/sparql</tspan>
</text>
</g>
<g id="2002712501"><path d="M238,398 L376,398 "
style="fill:none;stroke-width:1;stroke:Black;"/>
<line x1="370" y1="395" x2="376" y2="398"
 style="stroke-width:1;stroke:Black;"/>
<line x1="370" y1="401" x2="376" y2="398"
 style="stroke-width:1;stroke:Black;"/>
<text style="font-family:Arial;font-size:12px;kerning:0;word-spacing:-1px;fill:Black;">
<tspan x="242" y="396">terms:creator  </tspan>
</text>
</g>
<g id="2002712506"><path d="M376,366 L238,366 "
style="fill:none;stroke-width:1;stroke:Black;"/>
<line x1="244" y1="363" x2="238" y2="366"
 style="stroke-width:1;stroke:Black;"/>
<line x1="244" y1="369" x2="238" y2="366"
 style="stroke-width:1;stroke:Black;"/>
<text style="font-family:Arial;font-size:12px;kerning:0;word-spacing:-1px;fill:Black;">
<tspan x="249" y="379">foaf:isPrimaryTopicOf  </tspan>
</text>
</g>
<g id="2002712511"><path d="M314,550 L314,576 "
style="fill:none;stroke-width:2;stroke:Fuchsia;"/>
<polygon points="319,560 314,550 309,560 "
style="fill:Silver;stroke-width:1;stroke:Black;"/>
<text style="font-family:Arial;font-size:12px;kerning:0;word-spacing:-1px;fill:Black;">
<tspan x="316" y="565"> </tspan>
</text>
</g>
<g id="2002712513"><path d="M401,550 L401,588 403,592 407,594 473,594 "
style="fill:none;stroke-width:2;stroke:Fuchsia;"/>
<polygon points="406,560 401,550 396,560 "
style="fill:Silver;stroke-width:1;stroke:Black;"/>
<text style="font-family:Arial;font-size:12px;kerning:0;word-spacing:-1px;fill:Black;">
<tspan x="403" y="565"> </tspan>
</text>
</g>
<g id="2002712515"><path d="M314,607 L314,626 "
style="fill:none;stroke-width:2;stroke:Fuchsia;"/>
<polygon points="319,617 314,607 309,617 "
style="fill:Silver;stroke-width:1;stroke:Black;"/>
<text style="font-family:Arial;font-size:12px;kerning:0;word-spacing:-1px;fill:Black;">
<tspan x="316" y="622"> </tspan>
</text>
</g>
<g id="2002712517"><path d="M181,550 L181,579 "
style="fill:none;stroke-width:2;stroke:Fuchsia;"/>
<polygon points="186,560 181,550 176,560 "
style="fill:Silver;stroke-width:1;stroke:Black;"/>
<text style="font-family:Arial;font-size:12px;kerning:0;word-spacing:-1px;fill:Black;">
<tspan x="183" y="565"> </tspan>
</text>
</g>
</svg>
