<?xml version="1.0" encoding="UTF-8" standalone="no"?>
<!DOCTYPE svg PUBLIC "-//W3C//DTD SVG 1.1//EN"
"http://www.w3.org/Graphics/SVG/1.1/DTD/svg11.dtd">
<svg version="1.1" xmlns="http://www.w3.org/2000/svg"
xmlns:xlink="http://www.w3.org/1999/xlink" xml:space="preserve"
 width="1487" height="1116" viewBox="0 0 1487 1116">
 onmousemove="movetip(evt)" onmouseup="endmove()">
<rect x="0" y="0" width="100%" height="100%" style="fill:White;"/>
<script type="application/ecmascript"> <![CDATA[
var dragtipid = null; var dragcase = false; function init(evt){
if (window.svgDocument==null) svgDocument = evt.target.ownerDocument;
}
function movetip(evt){if (dragtipid!=null){ dragcase = true;
var tip=svgDocument.getElementById(dragtipid);
tip.setAttributeNS(null,"x",evt.clientX-2);
tip.setAttributeNS(null,"y",evt.clientY-2);
}}
function endmove(){dragtipid = null;}
function startmove(evt,id){dragtipid = id; dragcase = false;
var tip=svgDocument.getElementById(dragtipid);
tip.setAttributeNS(null,"x",evt.clientX-2);
tip.setAttributeNS(null,"y",evt.clientY-2);
}
function Showtip(evt,id){ dragtipid = null;
var tip=svgDocument.getElementById(id);
var vis=tip.getAttributeNS(null,"visibility");
if (vis=="hidden"){
tip.setAttributeNS(null,"x",evt.clientX-2);
tip.setAttributeNS(null,"y",evt.clientY-2);
tip.setAttributeNS(null,"visibility","visible");
}}
function Hidetip(id){ dragtipid = null; if (dragcase==false){
var tip=svgDocument.getElementById(id);
tip.setAttributeNS(null,"visibility","hidden");
}}
]]></script>
<defs><linearGradient id="activ1" x1="0%" y1="0%" x2="100%" y2="0%">
<stop offset="0%" style="stop-color:#FFFF00;stop-opacity:1"/>
<stop offset="100%" style="stop-color:#FFFFF0;stop-opacity:1"/>
</linearGradient></defs>
<g id="2002723501"><polygon points="289,90 522,90 522,297 289,297 "
style="fill:#F4D03F; stroke-width:1;stroke:Black;"/>
<text style="font-family:Arial;font-size:12px;kerning:0;word-spacing:-1px;fill:Black;font-weight:bold;">
<tspan x="348" y="105">wikiba:Property (39)</tspan>
</text>
<line x1="293" y1="108" x2="520" y2="108"
 style="stroke-width:1;stroke:Black;"/>
<text style="font-family:Arial;font-size:12px;kerning:0;word-spacing:-1px;fill:Black;">
<tspan x="293" y="120">direct:P10 (12) [1] D</tspan>
<tspan x="293" y="135">direct:P12 (13) [1] </tspan>
<tspan x="293" y="150">direct:P22 (5) [1] D</tspan>
<tspan x="293" y="165">dn:P12 (13) [*]  -&gt; IRI</tspan>
<tspan x="293" y="180">rdfs:label (449) [*] </tspan>
<tspan x="293" y="195">schema:description (60) [*] </tspan>
<tspan x="293" y="210">schema:name (44) [*] </tspan>
<tspan x="293" y="225">skos:altLabel (119) [*] </tspan>
<tspan x="293" y="240">skos:prefLabel (44) [*] </tspan>
<tspan x="293" y="255">wikiba:propertyType (39) [1] D -&gt; IRI</tspan>
<tspan x="293" y="270">wikiba:timestamp (39) [1] </tspan>
<tspan x="293" y="285">&lt;&gt; direct:P36  DR</tspan>
</text>
</g>
<g id="2002723512"><polygon points="130,463 430,463 430,633 130,633 "
style="fill:#F4D03F; stroke-width:1;stroke:Black;"/>
<polygon points="127,466 427,466 427,636 127,636 "
style="fill:#F4D03F; stroke-width:1;stroke:Black;"/>
<text style="font-family:Arial;font-size:12px;kerning:0;word-spacing:-1px;fill:Black;font-weight:bold;">
<tspan x="164" y="481">novalue:P14 or novalue:P8 G101 (1192)</tspan>
</text>
<line x1="131" y1="484" x2="425" y2="484"
 style="stroke-width:1;stroke:Black;"/>
<text style="font-family:Arial;font-size:12px;kerning:0;word-spacing:-1px;fill:Black;">
<tspan x="131" y="496">direct:P11 (595) [1] </tspan>
<tspan x="131" y="511">direct:P14 (151 71%d) [*]  -&gt; IRI</tspan>
<tspan x="131" y="526">direct:P15 (1) [1] </tspan>
<tspan x="131" y="541">dn:P14 (119) [*]  -&gt; IRI</tspan>
<tspan x="131" y="556">rdfs:label (606) [*] </tspan>
<tspan x="131" y="571">schema:description (596) [*] </tspan>
<tspan x="131" y="586">wikiba:identifiers (494) [*] </tspan>
<tspan x="131" y="601">wikiba:timestamp (494) [1] </tspan>
</text>
<text style="font-family:Arial;font-size:11px;kerning:0;word-spacing:-1px;fill:Black;font-weight:bold;">
<tspan x="131" y="616">novalue:P14 (804)</tspan>
<tspan x="131" y="631">novalue:P8 (388)</tspan>
</text>
</g>
<g id="2002723523"><polygon points="1207,526 1477,526 1477,571 1207,571 "
style="fill:#F4D03F; stroke-width:1;stroke:Black;"/>
<text style="font-family:Arial;font-size:12px;kerning:0;word-spacing:-1px;fill:Black;font-weight:bold;">
<tspan x="1284" y="541">wikiba:Reference (5)</tspan>
</text>
<line x1="1211" y1="544" x2="1475" y2="544"
 style="stroke-width:1;stroke:Black;"/>
<text style="font-family:Arial;font-size:12px;kerning:0;word-spacing:-1px;fill:Black;">
<tspan x="1211" y="556">re-vn:P12 (2) [*] D -&gt; IRI</tspan>
</text>
</g>
<g id="2002723534"><polygon points="1092,453 1344,453 1344,503 1092,503 "
style="fill:#F4D03F; stroke-width:1;stroke:Black;"/>
<text style="font-family:Arial;font-size:12px;kerning:0;word-spacing:-1px;fill:Black;font-weight:bold;">
<tspan x="1148" y="468">wikiba:TimeValue (1842)</tspan>
</text>
<line x1="1096" y1="471" x2="1342" y2="471"
 style="stroke-width:1;stroke:Black;"/>
<text style="font-family:Arial;font-size:12px;kerning:0;word-spacing:-1px;fill:Black;">
<tspan x="1096" y="483">wikiba:timeCalendarModel (1842) [1] D -&gt; IRI</tspan>
<tspan x="1096" y="498">wikiba:timeValue (1842) [1] D</tspan>
</text>
</g>
<g id="2002723545"><polygon points="40,90 275,90 275,133 40,133 "
style="fill:#F4D03F; stroke-width:1;stroke:Black;"/>
<text style="font-family:Arial;font-size:12px;kerning:0;word-spacing:-1px;fill:Black;font-weight:bold;">
<tspan x="86" y="105">owl:ObjectProperty (272)</tspan>
</text>
</g>
<g id="2002723556"><polygon points="172,697 593,697 593,973 172,973 "
style="fill:White; stroke-width:1;stroke:Black;"/>
<text style="font-family:Arial;font-size:12px;kerning:0;word-spacing:-1px;fill:Black;">
<tspan x="176" y="711">PREFIX direct: &lt;https://lingualibre.org/prop/direct/&gt;</tspan>
<tspan x="176" y="726">PREFIX wikiba: &lt;http://wikiba.se/ontology#&gt;</tspan>
<tspan x="176" y="741">PREFIX statement: &lt;https://lingualibre.org/prop/statement/&gt;</tspan>
<tspan x="176" y="756">PREFIX prop: &lt;https://lingualibre.org/prop/&gt;</tspan>
<tspan x="176" y="771">PREFIX schema: &lt;http://schema.org/&gt;</tspan>
<tspan x="176" y="786">PREFIX owl: &lt;http://www.w3.org/2002/07/owl#&gt;</tspan>
<tspan x="176" y="801">PREFIX novalue: &lt;https://lingualibre.org/prop/novalue/&gt;</tspan>
<tspan x="176" y="816">PREFIX vn: &lt;https://lingualibre.org/prop/statement/value-normalized/&gt;</tspan>
<tspan x="176" y="831">PREFIX dn: &lt;https://lingualibre.org/prop/direct-normalized/&gt;</tspan>
<tspan x="176" y="846">PREFIX qual: &lt;https://lingualibre.org/prop/qualifier/&gt;</tspan>
<tspan x="176" y="861">PREFIX skos: &lt;http://www.w3.org/2004/02/skos/core#&gt;</tspan>
<tspan x="176" y="876">PREFIX rdf: &lt;http://www.w3.org/1999/02/22-rdf-syntax-ns#&gt;</tspan>
<tspan x="176" y="891">PREFIX rdfs: &lt;http://www.w3.org/2000/01/rdf-schema#&gt;</tspan>
<tspan x="176" y="906">PREFIX prov: &lt;http://www.w3.org/ns/prov#&gt;</tspan>
<tspan x="176" y="921">PREFIX re-vn: &lt;https://lingualibre.org/prop/reference/value-normalized/&gt;</tspan>
<tspan x="176" y="936">PREFIX cc: &lt;http://creativecommons.org/ns#&gt;</tspan>
<tspan x="176" y="951">PREFIX st-v: &lt;https://lingualibre.org/prop/statement/value/&gt;</tspan>
<tspan x="176" y="966">PREFIX q-vn: &lt;https://lingualibre.org/prop/qualifier/value-normalized/&gt;</tspan>
</text>
</g>
<g id="2002723567"><polygon points="40,318 234,318 234,443 40,443 "
style="fill:#F4D03F; stroke-width:1;stroke:Black;"/>
<text style="font-family:Arial;font-size:12px;kerning:0;word-spacing:-1px;fill:Black;font-weight:bold;">
<tspan x="93" y="333">novalue:P13 (6)</tspan>
</text>
<line x1="44" y1="336" x2="232" y2="336"
 style="stroke-width:1;stroke:Black;"/>
<text style="font-family:Arial;font-size:12px;kerning:0;word-spacing:-1px;fill:Black;">
<tspan x="44" y="348">direct:P12 (3) [1] </tspan>
<tspan x="44" y="363">direct:P27 (1) [1] </tspan>
<tspan x="44" y="378">direct:P39 (1) [*] </tspan>
<tspan x="44" y="393">dn:P12 (4) [*]  -&gt; IRI</tspan>
<tspan x="44" y="408">rdfs:label (42) [*] </tspan>
<tspan x="44" y="423">wikiba:identifiers (2) [*] </tspan>
<tspan x="44" y="438">wikiba:timestamp (2) [1] </tspan>
</text>
</g>
<g id="2002723578"><polygon points="1080,699 1380,699 1380,744 1080,744 "
style="fill:#F4D03F; stroke-width:1;stroke:Black;"/>
<text style="font-family:Arial;font-size:12px;kerning:0;word-spacing:-1px;fill:Black;font-weight:bold;">
<tspan x="1161" y="714">schema:Dataset (7.0e5)</tspan>
</text>
<line x1="1084" y1="717" x2="1378" y2="717"
 style="stroke-width:1;stroke:Black;"/>
<text style="font-family:Arial;font-size:12px;kerning:0;word-spacing:-1px;fill:Black;">
<tspan x="1084" y="729">wikiba:identifiers (7.0e5) [*] </tspan>
</text>
</g>
<g id="2002723589"><polygon points="1080,628 1380,628 1380,693 1080,693 "
style="fill:#F4D03F; stroke-width:1;stroke:Black;"/>
<text style="font-family:Arial;font-size:12px;kerning:0;word-spacing:-1px;fill:Black;font-weight:bold;">
<tspan x="1178" y="643">schema:Article (8)</tspan>
</text>
<line x1="1084" y1="646" x2="1378" y2="646"
 style="stroke-width:1;stroke:Black;"/>
<text style="font-family:Arial;font-size:12px;kerning:0;word-spacing:-1px;fill:Black;">
<tspan x="1084" y="658">schema:inLanguage (8) [1] D</tspan>
<tspan x="1084" y="673">schema:isPartOf (8) [1] D -&gt; IRI</tspan>
<tspan x="1084" y="688">schema:name (8) [*] </tspan>
</text>
</g>
<g id="2002723600"><polygon points="610,621 910,621 910,1106 610,1106 "
style="fill:#F4D03F; stroke-width:1;stroke:Black;"/>
<text style="font-family:Arial;font-size:12px;kerning:0;word-spacing:-1px;fill:Black;font-weight:bold;">
<tspan x="706" y="636">wikiba:Item (7.0e5)</tspan>
</text>
<line x1="614" y1="639" x2="908" y2="639"
 style="stroke-width:1;stroke:Black;"/>
<text style="font-family:Arial;font-size:12px;kerning:0;word-spacing:-1px;fill:Black;">
<tspan x="614" y="651">direct:P11 (1109) [1] </tspan>
<tspan x="614" y="666">direct:P12 (2.7e4) [1] </tspan>
<tspan x="614" y="681">direct:P13 (172) [*] </tspan>
<tspan x="614" y="696">direct:P14 (1117 77%d) [*]  -&gt; IRI</tspan>
<tspan x="614" y="711">direct:P17 (21) [*] </tspan>
<tspan x="614" y="726">direct:P18 (3782) [1] </tspan>
<tspan x="614" y="741">direct:P19 (3.7e4) [*] </tspan>
<tspan x="614" y="756">direct:P20 (1.4e5) [*] </tspan>
<tspan x="614" y="771">direct:P21 (1.3e4) [*] </tspan>
<tspan x="614" y="786">direct:P26 (155) [1] </tspan>
<tspan x="614" y="801">direct:P28 (1) [1] D</tspan>
<tspan x="614" y="816">direct:P29 (1) [1] D</tspan>
<tspan x="614" y="831">direct:P30 (2) [1] D -&gt; IRI</tspan>
<tspan x="614" y="846">direct:P31 (1) [1] D</tspan>
<tspan x="614" y="861">direct:P38 (1) [1] </tspan>
<tspan x="614" y="876">dn:P12 (5.2e4) [*]  -&gt; IRI</tspan>
<tspan x="614" y="891">dn:P14 (1096) [*]  -&gt; IRI</tspan>
<tspan x="614" y="906">dn:P21 (1.3e4) [*]  -&gt; IRI</tspan>
<tspan x="614" y="921">dn:P28 (1) [1] D -&gt; IRI</tspan>
<tspan x="614" y="936">dn:P29 (1) [1] D -&gt; IRI</tspan>
<tspan x="614" y="951">rdfs:label (7.1e5) [*] </tspan>
<tspan x="614" y="966">schema:description (7.1e5) [*] </tspan>
<tspan x="614" y="981">schema:name (7.1e5) [*] </tspan>
<tspan x="614" y="996">skos:altLabel (1432) [*] </tspan>
<tspan x="614" y="1011">skos:prefLabel (7.1e5) [*] </tspan>
<tspan x="614" y="1026">wikiba:identifiers (2.5e5) [*] </tspan>
<tspan x="614" y="1041">wikiba:timestamp (2.5e5) [1] </tspan>
<tspan x="614" y="1056">&lt;&gt; direct:P24  </tspan>
<tspan x="614" y="1071">&lt;&gt; direct:P32  DR</tspan>
<tspan x="614" y="1086">&lt;&gt; direct:P33  R</tspan>
<tspan x="614" y="1101">&lt;&gt; direct:P37  DR</tspan>
</text>
</g>
<g id="2002723611"><polygon points="979,292 1279,292 1279,402 979,402 "
style="fill:#F4D03F; stroke-width:1;stroke:Black;"/>
<text style="font-family:Arial;font-size:12px;kerning:0;word-spacing:-1px;fill:Black;font-weight:bold;">
<tspan x="1058" y="307">wikiba:Statement (5.1e6)</tspan>
</text>
<line x1="983" y1="310" x2="1277" y2="310"
 style="stroke-width:1;stroke:Black;"/>
<text style="font-family:Arial;font-size:12px;kerning:0;word-spacing:-1px;fill:Black;">
<tspan x="983" y="322">q-vn:P14 (1) [1] D -&gt; IRI</tspan>
<tspan x="983" y="337">qual:P35 (334) [1] D -&gt; IRI</tspan>
<tspan x="983" y="352">qual:P4 (7) [1] D -&gt; IRI</tspan>
<tspan x="983" y="367">nv:P28 (1) [1] D -&gt; IRI</tspan>
<tspan x="983" y="382">nv:P29 (1) [1] D -&gt; IRI</tspan>
<tspan x="983" y="397">statement:P3 (7.0e5) [1]  -&gt; IRI</tspan>
</text>
</g>
<g id="2002723622"><polygon points="1010,229 1178,229 1178,261 1010,261 "
style="fill:#F4D03F; stroke-width:1;stroke:Black;"/>
<text style="font-family:Arial;font-size:12px;kerning:0;word-spacing:-1px;fill:Black;font-weight:bold;">
<tspan x="1047" y="244">novalue:P15 (10)</tspan>
</text>
</g>
<g id="2002723633"><polygon points="1078,773 1378,773 1378,838 1078,838 "
style="fill:#F4D03F; stroke-width:1;stroke:Black;"/>
<text style="font-family:Arial;font-size:12px;kerning:0;word-spacing:-1px;fill:Black;font-weight:bold;">
<tspan x="1182" y="788">owl:Ontology (1)</tspan>
</text>
<line x1="1082" y1="791" x2="1376" y2="791"
 style="stroke-width:1;stroke:Black;"/>
<text style="font-family:Arial;font-size:12px;kerning:0;word-spacing:-1px;fill:Black;">
<tspan x="1082" y="803">cc:license (1) [1] D -&gt; IRI</tspan>
<tspan x="1082" y="818">rdf:type () [1] </tspan>
<tspan x="1082" y="833">schema:softwareVersion (1) [1] D</tspan>
</text>
</g>
<g id="2002723644"><polygon points="610,227 910,227 910,517 610,517 "
style="fill:#F4D03F; stroke-width:1;stroke:Black;"/>
<text style="font-family:Arial;font-size:12px;kerning:0;word-spacing:-1px;fill:Black;font-weight:bold;">
<tspan x="690" y="242">wikiba:BestRank (9.0e6)</tspan>
</text>
<line x1="614" y1="245" x2="908" y2="245"
 style="stroke-width:1;stroke:Black;"/>
<text style="font-family:Arial;font-size:12px;kerning:0;word-spacing:-1px;fill:Black;">
<tspan x="614" y="257">qual:P40 (1) [1] D</tspan>
<tspan x="614" y="272">qual:P41 (1) [1] D</tspan>
<tspan x="614" y="287">nv:P12 (5.9e4) [*] D -&gt; IRI</tspan>
<tspan x="614" y="302">nv:P14 (2084) [*] D -&gt; IRI</tspan>
<tspan x="614" y="317">nv:P21 (3.5e4) [1] D -&gt; IRI</tspan>
<tspan x="614" y="332">statement:P10 (12) [1] D</tspan>
<tspan x="614" y="347">statement:P11 (2488) [1] D</tspan>
<tspan x="614" y="362">statement:P12 (3.4e4) [1] D</tspan>
<tspan x="614" y="377">statement:P13 (722) [1] D</tspan>
<tspan x="614" y="392">statement:P14 (2214 84%d) [*] D -&gt; IRI</tspan>
<tspan x="614" y="407">statement:P15 (2) [1] D</tspan>
<tspan x="614" y="422">statement:P17 (280) [1] D</tspan>
<tspan x="614" y="437">statement:P18 (9069) [1] D</tspan>
<tspan x="614" y="452">statement:P19 (8.9e4) [1] D</tspan>
<tspan x="614" y="467">statement:P3 (1.2e6) [1]  -&gt; IRI</tspan>
<tspan x="614" y="482">statement:P6 (1.2e6) [*] D</tspan>
<tspan x="614" y="497">statement:P7 (1.2e6 99.9%d) [*] D -&gt; IRI</tspan>
<tspan x="614" y="512">statement:P8 (2293) [*] D -&gt; IRI</tspan>
</text>
</g>
<g id="2002723655"><polygon points="1080,577 1380,577 1380,622 1080,622 "
style="fill:#F4D03F; stroke-width:1;stroke:Black;"/>
<text style="font-family:Arial;font-size:12px;kerning:0;word-spacing:-1px;fill:Black;font-weight:bold;">
<tspan x="1172" y="592">owl:Restriction (400)</tspan>
</text>
<line x1="1084" y1="595" x2="1378" y2="595"
 style="stroke-width:1;stroke:Black;"/>
<text style="font-family:Arial;font-size:12px;kerning:0;word-spacing:-1px;fill:Black;">
<tspan x="1084" y="607">owl:someValuesFrom (400) [1] D -&gt; IRI</tspan>
</text>
</g>
<g id="2002723666"><polygon points="659,173 819,173 819,203 659,203 "
style="fill:#F4D03F; stroke-width:1;stroke:Black;"/>
<text style="font-family:Arial;font-size:12px;kerning:0;word-spacing:-1px;fill:Black;font-weight:bold;">
<tspan x="699" y="188">owl:Class (39)</tspan>
</text>
</g>
<g id="2002723677"><polygon points="655,121 848,121 848,150 655,150 "
style="fill:#F4D03F; stroke-width:1;stroke:Black;"/>
<text style="font-family:Arial;font-size:12px;kerning:0;word-spacing:-1px;fill:Black;font-weight:bold;">
<tspan x="677" y="136">owl:DatatypeProperty (96)</tspan>
</text>
</g>
<g id="2002795654"><polygon points="466,20 963,20 963,72 466,72 "
style="fill:none; stroke-width:1;stroke:Black;"/>
<text style="font-family:Arial;font-size:18px;kerning:0;word-spacing:-1px;fill:Black;font-weight:bold;">
<tspan x="611" y="40">LinguaLibre Lexical Data</tspan>
<tspan x="494" y="62">https://lingualibre.org/bigdata/namespace/wdq/sparql</tspan>
</text>
</g>
<g id="2002723410"><path d="M722,621 L722,517 "
style="fill:none;stroke-width:1;stroke:Black;"/>
<line x1="719" y1="523" x2="722" y2="517"
 style="stroke-width:1;stroke:Black;"/>
<line x1="725" y1="523" x2="722" y2="517"
 style="stroke-width:1;stroke:Black;"/>
<text style="font-family:Arial;font-size:12px;kerning:0;word-spacing:-1px;fill:Black;">
<tspan x="655" y="542">prop:P7  R</tspan>
<tspan x="655" y="557">prop:P9  R</tspan>
<tspan x="655" y="572">prop:P6  R</tspan>
<tspan x="655" y="587">prop:P8  R</tspan>
<tspan x="655" y="602">prop:P33  R</tspan>
<tspan x="655" y="617">prop:P38  R</tspan>
</text>
</g>
<g id="2002723415"><path d="M427,493 L610,493 "
style="fill:none;stroke-width:1;stroke:Black;"/>
<line x1="604" y1="490" x2="610" y2="493"
 style="stroke-width:1;stroke:Black;"/>
<line x1="604" y1="496" x2="610" y2="493"
 style="stroke-width:1;stroke:Black;"/>
<text style="font-family:Arial;font-size:12px;kerning:0;word-spacing:-1px;fill:Black;">
<tspan x="431" y="491">prop:P8  R</tspan>
</text>
</g>
<g id="2002723420"><path d="M910,770 L1059,770 1063,768 1065,764 1065,402 "
style="fill:none;stroke-width:1;stroke:Black;"/>
<line x1="1062" y1="408" x2="1065" y2="402"
 style="stroke-width:1;stroke:Black;"/>
<line x1="1068" y1="408" x2="1065" y2="402"
 style="stroke-width:1;stroke:Black;"/>
<text style="font-family:Arial;font-size:12px;kerning:0;word-spacing:-1px;fill:Black;">
<tspan x="914" y="723">prop:P32  DR</tspan>
<tspan x="914" y="738">prop:P30  DR</tspan>
<tspan x="914" y="753">prop:P31  DR</tspan>
<tspan x="914" y="768">prop:P37  DR</tspan>
</text>
</g>
<g id="2002723425"><path d="M1279,309 L1441,309 1445,311 1447,315 1447,526 "
style="fill:none;stroke-width:1;stroke:Black;"/>
<line x1="1444" y1="520" x2="1447" y2="526"
 style="stroke-width:1;stroke:Black;"/>
<line x1="1450" y1="520" x2="1447" y2="526"
 style="stroke-width:1;stroke:Black;"/>
<text style="font-family:Arial;font-size:12px;kerning:0;word-spacing:-1px;fill:Black;">
<tspan x="1283" y="307">prov:wasDerivedFrom  DR</tspan>
</text>
</g>
<g id="2002723430"><path d="M610,397 L234,397 "
style="fill:none;stroke-width:1;stroke:Black;"/>
<line x1="240" y1="394" x2="234" y2="397"
 style="stroke-width:1;stroke:Black;"/>
<line x1="240" y1="400" x2="234" y2="397"
 style="stroke-width:1;stroke:Black;"/>
<text style="font-family:Arial;font-size:12px;kerning:0;word-spacing:-1px;fill:Black;">
<tspan x="527" y="410">statement:P4  </tspan>
</text>
</g>
<g id="2002723435"><path d="M610,472 L427,472 "
style="fill:none;stroke-width:1;stroke:Black;"/>
<line x1="433" y1="469" x2="427" y2="472"
 style="stroke-width:1;stroke:Black;"/>
<line x1="433" y1="475" x2="427" y2="472"
 style="stroke-width:1;stroke:Black;"/>
<text style="font-family:Arial;font-size:12px;kerning:0;word-spacing:-1px;fill:Black;">
<tspan x="518" y="485">statement:P5  D</tspan>
</text>
</g>
<g id="2002723440"><path d="M86,443 L86,652 88,656 92,658 610,658 "
style="fill:none;stroke-width:1;stroke:Black;"/>
<line x1="604" y1="655" x2="610" y2="658"
 style="stroke-width:1;stroke:Black;"/>
<line x1="604" y1="661" x2="610" y2="658"
 style="stroke-width:1;stroke:Black;"/>
<text style="font-family:Arial;font-size:12px;kerning:0;word-spacing:-1px;fill:Black;">
<tspan x="88" y="458">direct:P24  </tspan>
</text>
</g>
<g id="2002723445"><path d="M427,627 L610,627 "
style="fill:none;stroke-width:1;stroke:Black;"/>
<line x1="604" y1="624" x2="610" y2="627"
 style="stroke-width:1;stroke:Black;"/>
<line x1="604" y1="630" x2="610" y2="627"
 style="stroke-width:1;stroke:Black;"/>
<text style="font-family:Arial;font-size:12px;kerning:0;word-spacing:-1px;fill:Black;">
<tspan x="431" y="625">direct:P24  </tspan>
</text>
</g>
<g id="2002723450"><path d="M985,402 L985,651 983,655 979,657 910,657 "
style="fill:none;stroke-width:1;stroke:Black;"/>
<line x1="916" y1="654" x2="910" y2="657"
 style="stroke-width:1;stroke:Black;"/>
<line x1="916" y1="660" x2="910" y2="657"
 style="stroke-width:1;stroke:Black;"/>
<text style="font-family:Arial;font-size:12px;kerning:0;word-spacing:-1px;fill:Black;">
<tspan x="987" y="417">qualif:P34  D</tspan>
</text>
</g>
<g id="2002723455"><path d="M234,428 L610,428 "
style="fill:none;stroke-width:1;stroke:Black;"/>
<line x1="604" y1="425" x2="610" y2="428"
 style="stroke-width:1;stroke:Black;"/>
<line x1="604" y1="431" x2="610" y2="428"
 style="stroke-width:1;stroke:Black;"/>
<text style="font-family:Arial;font-size:12px;kerning:0;word-spacing:-1px;fill:Black;">
<tspan x="238" y="426">prop:P39  R</tspan>
</text>
</g>
<g id="2002723460"><path d="M1185,402 L1185,453 "
style="fill:none;stroke-width:1;stroke:Black;"/>
<line x1="1182" y1="447" x2="1185" y2="453"
 style="stroke-width:1;stroke:Black;"/>
<line x1="1188" y1="447" x2="1185" y2="453"
 style="stroke-width:1;stroke:Black;"/>
<text style="font-family:Arial;font-size:12px;kerning:0;word-spacing:-1px;fill:Black;">
<tspan x="1187" y="417">st-v:P31  DR</tspan>
</text>
</g>
<g id="2002723470"><path d="M289,145 L72,145 68,143 66,139 66,133 "
style="fill:none;stroke-width:1;stroke:Black;"/>
<line x1="63" y1="139" x2="66" y2="133"
 style="stroke-width:1;stroke:Black;"/>
<line x1="69" y1="139" x2="66" y2="133"
 style="stroke-width:1;stroke:Black;"/>
<text style="font-family:Arial;font-size:12px;kerning:0;word-spacing:-1px;fill:Black;">
<tspan x="74" y="158">wikiba:qualifier  D</tspan>
<tspan x="74" y="173">wikiba:directClaim  D</tspan>
<tspan x="74" y="188">wikiba:referenceValue  DR</tspan>
<tspan x="74" y="203">wikiba:reference  D</tspan>
<tspan x="74" y="218">wikiba:qualifierValue  DR</tspan>
<tspan x="74" y="233">wikiba:statementValue  DR</tspan>
<tspan x="74" y="248">wikiba:claim  DR</tspan>
<tspan x="74" y="263">wikiba:statementValueNormalized  DR</tspan>
<tspan x="74" y="278">wikiba:directClaimNormalized  DR</tspan>
<tspan x="74" y="293">wikiba:referenceValueNormalized  DR</tspan>
</text>
</g>
<g id="2002723475"><path d="M795,517 L795,621 "
style="fill:none;stroke-width:1;stroke:Black;"/>
<line x1="792" y1="615" x2="795" y2="621"
 style="stroke-width:1;stroke:Black;"/>
<line x1="798" y1="615" x2="795" y2="621"
 style="stroke-width:1;stroke:Black;"/>
<text style="font-family:Arial;font-size:12px;kerning:0;word-spacing:-1px;fill:Black;">
<tspan x="797" y="532">statement:P4  </tspan>
<tspan x="797" y="547">statement:P2  D</tspan>
<tspan x="797" y="562">statement:P9  D</tspan>
<tspan x="797" y="577">statement:P5  D</tspan>
</text>
</g>
<g id="2002723480"><path d="M522,188 L659,188 "
style="fill:none;stroke-width:1;stroke:Black;"/>
<line x1="653" y1="185" x2="659" y2="188"
 style="stroke-width:1;stroke:Black;"/>
<line x1="653" y1="191" x2="659" y2="188"
 style="stroke-width:1;stroke:Black;"/>
<text style="font-family:Arial;font-size:12px;kerning:0;word-spacing:-1px;fill:Black;">
<tspan x="526" y="186">wikiba:novalue  DR</tspan>
</text>
</g>
<g id="2002723485"><path d="M522,137 L655,137 "
style="fill:none;stroke-width:1;stroke:Black;"/>
<line x1="649" y1="134" x2="655" y2="137"
 style="stroke-width:1;stroke:Black;"/>
<line x1="649" y1="140" x2="655" y2="137"
 style="stroke-width:1;stroke:Black;"/>
<text style="font-family:Arial;font-size:12px;kerning:0;word-spacing:-1px;fill:Black;">
<tspan x="526" y="105">wikiba:qualifier  D</tspan>
<tspan x="526" y="120">wikiba:directClaim  D</tspan>
<tspan x="526" y="135">wikiba:reference  D</tspan>
</text>
</g>
<g id="2002723490"><path d="M522,262 L610,262 "
style="fill:none;stroke-width:1;stroke:Black;"/>
<line x1="604" y1="259" x2="610" y2="262"
 style="stroke-width:1;stroke:Black;"/>
<line x1="604" y1="265" x2="610" y2="262"
 style="stroke-width:1;stroke:Black;"/>
<text style="font-family:Arial;font-size:12px;kerning:0;word-spacing:-1px;fill:Black;">
<tspan x="526" y="260">prop:P36  DR</tspan>
</text>
</g>
<g id="2002723495"><path d="M1229,744 L1229,773 "
style="fill:none;stroke-width:2;stroke:Fuchsia;"/>
<polygon points="1234,754 1229,744 1224,754 "
style="fill:Silver;stroke-width:1;stroke:Black;"/>
<text style="font-family:Arial;font-size:12px;kerning:0;word-spacing:-1px;fill:Black;">
<tspan x="1231" y="759"> </tspan>
</text>
</g>
<g id="2002723497"><path d="M1094,292 L1094,261 "
style="fill:none;stroke-width:2;stroke:Fuchsia;"/>
<polygon points="1099,282 1094,292 1089,282 "
style="fill:Silver;stroke-width:1;stroke:Black;"/>
<text style="font-family:Arial;font-size:12px;kerning:0;word-spacing:-1px;fill:Black;">
<tspan x="1082" y="288"> </tspan>
</text>
</g>
<g id="2002723499"><path d="M910,245 L1010,245 "
style="fill:none;stroke-width:2;stroke:Fuchsia;"/>
<polygon points="920,250 910,245 920,240 "
style="fill:Silver;stroke-width:1;stroke:Black;"/>
<text style="font-family:Arial;font-size:12px;kerning:0;word-spacing:-1px;fill:Black;">
<tspan x="914" y="243"> </tspan>
</text>
</g>
</svg>
