<?xml version="1.0" encoding="UTF-8" standalone="no"?>
<!DOCTYPE svg PUBLIC "-//W3C//DTD SVG 1.1//EN"
"http://www.w3.org/Graphics/SVG/1.1/DTD/svg11.dtd">
<svg version="1.1" xmlns="http://www.w3.org/2000/svg"
xmlns:xlink="http://www.w3.org/1999/xlink" xml:space="preserve"
 width="1201" height="691" viewBox="0 0 1201 691">
 onmousemove="movetip(evt)" onmouseup="endmove()">
<rect x="0" y="0" width="100%" height="100%" style="fill:White;"/>
<script type="application/ecmascript"> <![CDATA[
var dragtipid = null; var dragcase = false; function init(evt){
if (window.svgDocument==null) svgDocument = evt.target.ownerDocument;
}
function movetip(evt){if (dragtipid!=null){ dragcase = true;
var tip=svgDocument.getElementById(dragtipid);
tip.setAttributeNS(null,"x",evt.clientX-2);
tip.setAttributeNS(null,"y",evt.clientY-2);
}}
function endmove(){dragtipid = null;}
function startmove(evt,id){dragtipid = id; dragcase = false;
var tip=svgDocument.getElementById(dragtipid);
tip.setAttributeNS(null,"x",evt.clientX-2);
tip.setAttributeNS(null,"y",evt.clientY-2);
}
function Showtip(evt,id){ dragtipid = null;
var tip=svgDocument.getElementById(id);
var vis=tip.getAttributeNS(null,"visibility");
if (vis=="hidden"){
tip.setAttributeNS(null,"x",evt.clientX-2);
tip.setAttributeNS(null,"y",evt.clientY-2);
tip.setAttributeNS(null,"visibility","visible");
}}
function Hidetip(id){ dragtipid = null; if (dragcase==false){
var tip=svgDocument.getElementById(id);
tip.setAttributeNS(null,"visibility","hidden");
}}
]]></script>
<defs><linearGradient id="activ1" x1="0%" y1="0%" x2="100%" y2="0%">
<stop offset="0%" style="stop-color:#FFFF00;stop-opacity:1"/>
<stop offset="100%" style="stop-color:#FFFFF0;stop-opacity:1"/>
</linearGradient></defs>
<g id="2002683319"><polygon points="149,419 449,419 449,484 149,484 "
style="fill:#F4D03F; stroke-width:1;stroke:Black;"/>
<text style="font-family:Arial;font-size:12px;kerning:0;word-spacing:-1px;fill:Black;font-weight:bold;">
<tspan x="262" y="434">owl:Class (3)</tspan>
</text>
<line x1="153" y1="437" x2="447" y2="437"
 style="stroke-width:1;stroke:Black;"/>
<text style="font-family:Arial;font-size:12px;kerning:0;word-spacing:-1px;fill:Black;">
<tspan x="153" y="449">owl:unionOf (1) [1] D -&gt; IRI</tspan>
<tspan x="153" y="464">rdf:type (3) [*]  -&gt; IRI</tspan>
<tspan x="153" y="479">rdfs:label (2) [1] </tspan>
</text>
</g>
<g id="2002683330"><polygon points="538,417 838,417 838,482 538,482 "
style="fill:#F4D03F; stroke-width:1;stroke:Black;"/>
<text style="font-family:Arial;font-size:12px;kerning:0;word-spacing:-1px;fill:Black;font-weight:bold;">
<tspan x="642" y="432">rdf:Property (23)</tspan>
</text>
<line x1="542" y1="435" x2="836" y2="435"
 style="stroke-width:1;stroke:Black;"/>
<text style="font-family:Arial;font-size:12px;kerning:0;word-spacing:-1px;fill:Black;">
<tspan x="542" y="447">rdf:type (28) [*]  -&gt; IRI</tspan>
<tspan x="542" y="462">rdfs:label (23) [1] </tspan>
<tspan x="542" y="477">rdfs:subPropertyOf (2) [1] D -&gt; IRI</tspan>
</text>
</g>
<g id="2002683341"><polygon points="388,221 688,221 688,376 388,376 "
style="fill:#F4D03F; stroke-width:1;stroke:Black;"/>
<text style="font-family:Arial;font-size:12px;kerning:0;word-spacing:-1px;fill:Black;font-weight:bold;">
<tspan x="465" y="236">e-lion:Submission (2.8e4)</tspan>
</text>
<line x1="392" y1="239" x2="686" y2="239"
 style="stroke-width:1;stroke:Black;"/>
<text style="font-family:Arial;font-size:12px;kerning:0;word-spacing:-1px;fill:Black;">
<tspan x="392" y="251">e-lion:belongsUser (2.8e4) [1] D -&gt; IRI</tspan>
<tspan x="392" y="266">e-lion:submissionAttempNumber (2.8e4) [1] D</tspan>
<tspan x="392" y="281">e-lion:submissionGroupId (2.8e4) [1] D</tspan>
<tspan x="392" y="296">e-lion:submissionId (2.8e4) [1] D</tspan>
<tspan x="392" y="311">e-lion:submissionLatest (2.8e4) [1] D</tspan>
<tspan x="392" y="326">e-lion:submissionStatus (2.8e4) [1] D</tspan>
<tspan x="392" y="341">e-lion:submissionTimeCreated (2.8e4) [1] D</tspan>
<tspan x="392" y="356">e-lion:submissionTimeModified (2.8e4) [1] D</tspan>
<tspan x="392" y="371">rdf:type (2.8e4) [*]  -&gt; IRI</tspan>
</text>
</g>
<g id="2002683352"><polygon points="521,501 821,501 821,546 521,546 "
style="fill:#F4D03F; stroke-width:1;stroke:Black;"/>
<text style="font-family:Arial;font-size:12px;kerning:0;word-spacing:-1px;fill:Black;font-weight:bold;">
<tspan x="600" y="516">owl:OntologyProperty (4)</tspan>
</text>
</g>
<g id="2002683363"><polygon points="514,10 814,10 814,55 514,55 "
style="fill:#F4D03F; stroke-width:1;stroke:Black;"/>
<text style="font-family:Arial;font-size:12px;kerning:0;word-spacing:-1px;fill:Black;font-weight:bold;">
<tspan x="588" y="25">owl:AnnotationProperty (5)</tspan>
</text>
<line x1="518" y1="28" x2="812" y2="28"
 style="stroke-width:1;stroke:Black;"/>
<text style="font-family:Arial;font-size:12px;kerning:0;word-spacing:-1px;fill:Black;">
<tspan x="518" y="40">rdf:type (6) [*]  -&gt; IRI</tspan>
</text>
</g>
<g id="2002683396"><polygon points="531,78 831,78 831,158 531,158 "
style="fill:#F4D03F; stroke-width:1;stroke:Black;"/>
<text style="font-family:Arial;font-size:12px;kerning:0;word-spacing:-1px;fill:Black;font-weight:bold;">
<tspan x="642" y="93">sd:Service (1)</tspan>
</text>
<line x1="535" y1="96" x2="829" y2="96"
 style="stroke-width:1;stroke:Black;"/>
<text style="font-family:Arial;font-size:12px;kerning:0;word-spacing:-1px;fill:Black;">
<tspan x="535" y="108">rdf:type (1) [*]  -&gt; IRI</tspan>
<tspan x="535" y="123">sd:feature (2) [*] D -&gt; IRI</tspan>
<tspan x="535" y="138">sd:resultFormat (8) [*] D -&gt; IRI</tspan>
<tspan x="535" y="153">sd:supportedLanguage (1) [1] D -&gt; IRI</tspan>
</text>
</g>
<g id="2002683374"><polygon points="276,571 576,571 576,681 276,681 "
style="fill:#F4D03F; stroke-width:1;stroke:Black;"/>
<text style="font-family:Arial;font-size:12px;kerning:0;word-spacing:-1px;fill:Black;font-weight:bold;">
<tspan x="380" y="586">owl:Ontology (1)</tspan>
</text>
<line x1="280" y1="589" x2="574" y2="589"
 style="stroke-width:1;stroke:Black;"/>
<text style="font-family:Arial;font-size:12px;kerning:0;word-spacing:-1px;fill:Black;">
<tspan x="280" y="601">owl:imports (1) [1] D -&gt; IRI</tspan>
<tspan x="280" y="616">owl:priorVersion (1) [1] D -&gt; IRI</tspan>
<tspan x="280" y="631">owl:versionInfo (1) [1] D</tspan>
<tspan x="280" y="646">rdf:type (1) [*]  -&gt; IRI</tspan>
<tspan x="280" y="661">rdfs:comment (1) [1] D</tspan>
<tspan x="280" y="676">rdfs:isDefinedBy (3) [*] D -&gt; IRI</tspan>
</text>
</g>
<g id="2002683385"><polygon points="858,41 1191,41 1191,538 858,538 "
style="fill:#F4D03F; stroke-width:1;stroke:Black;"/>
<text style="font-family:Arial;font-size:12px;kerning:0;word-spacing:-1px;fill:Black;font-weight:bold;">
<tspan x="953" y="56">e-lion:Assignment (1343)</tspan>
</text>
<line x1="862" y1="59" x2="1189" y2="59"
 style="stroke-width:1;stroke:Black;"/>
<text style="font-family:Arial;font-size:12px;kerning:0;word-spacing:-1px;fill:Black;">
<tspan x="862" y="71">e-lion:assignmentAllowSubmissionsFromDate (1343) [1] D</tspan>
<tspan x="862" y="86">e-lion:assignmentAlwaysShowDescription (1343) [1] D</tspan>
<tspan x="862" y="101">e-lion:assignmentAttemptReopenMethod (1343) [1] D</tspan>
<tspan x="862" y="116">e-lion:assignmentBlindMarking (1343) [1] D</tspan>
<tspan x="862" y="131">e-lion:assignmentCompletionSubmit (1343) [1] D</tspan>
<tspan x="862" y="146">e-lion:assignmentCutoffDate (1343) [1] D</tspan>
<tspan x="862" y="161">e-lion:assignmentDueDate (1343) [1] D</tspan>
<tspan x="862" y="176">e-lion:assignmentGrade (1343) [1] D</tspan>
<tspan x="862" y="191">e-lion:assignmentId (1343) [1] D</tspan>
<tspan x="862" y="206">e-lion:assignmentIntro (1343) [1] D</tspan>
<tspan x="862" y="221">e-lion:assignmentIntroFormat (1343) [1] D</tspan>
<tspan x="862" y="236">e-lion:assignmentMarkingAllocation (1343) [1] D</tspan>
<tspan x="862" y="251">e-lion:assignmentMarkingWorkflow (1343) [1] D</tspan>
<tspan x="862" y="266">e-lion:assignmentMaxAttempts (1343) [1] D</tspan>
<tspan x="862" y="281">e-lion:assignmentName (1343) [1] D</tspan>
<tspan x="862" y="296">e-lion:assignmentNoSubmissions (1343) [1] D</tspan>
<tspan x="862" y="311">e-lion:assignmentRequireAllTeamMembersSubmit (1343) </tspan>
<tspan x="862" y="326">[1] D</tspan>
<tspan x="862" y="341">e-lion:assignmentRequireSubmissionStatement (1343) [1] </tspan>
<tspan x="862" y="356">D</tspan>
<tspan x="862" y="371">e-lion:assignmentRevealIdenties (1343) [1] D</tspan>
<tspan x="862" y="386">e-lion:assignmentSendLateNotifications (1343) [1] D</tspan>
<tspan x="862" y="401">e-lion:assignmentSendNotifications (1343) [1] D</tspan>
<tspan x="862" y="416">e-lion:assignmentSendStudentNotifications (1343) [1] D</tspan>
<tspan x="862" y="431">e-lion:assignmentSubmissionsDrafts (1343) [1] D</tspan>
<tspan x="862" y="446">e-lion:assignmentTeamSubmission (1343) [1] D</tspan>
<tspan x="862" y="461">e-lion:assignmentTeamSubmissionsGroupingId (1343) [1] </tspan>
<tspan x="862" y="476">D</tspan>
<tspan x="862" y="491">e-lion:assignmentTimeModified (1343) [1] D</tspan>
<tspan x="862" y="506">e-lion:hasCourse (1343) [1] D -&gt; IRI</tspan>
<tspan x="862" y="521">rdf:type (1343) [*]  -&gt; IRI</tspan>
</text>
</g>
<g id="2002683297"><path d="M149,452 L16,452 12,450 10,446 10,419 12,415 16,413 299,413 299,419 "
style="fill:none;stroke-width:1;stroke:Black;"/>
<line x1="296" y1="413" x2="299" y2="419"
 style="stroke-width:1;stroke:Black;"/>
<line x1="302" y1="413" x2="299" y2="419"
 style="stroke-width:1;stroke:Black;"/>
<text style="font-family:Arial;font-size:12px;kerning:0;word-spacing:-1px;fill:Black;">
<tspan x="18" y="465">owl:complementOf  DR</tspan>
</text>
</g>
<g id="2002683302"><path d="M688,299 L858,299 "
style="fill:none;stroke-width:1;stroke:Black;"/>
<line x1="852" y1="296" x2="858" y2="299"
 style="stroke-width:1;stroke:Black;"/>
<line x1="852" y1="302" x2="858" y2="299"
 style="stroke-width:1;stroke:Black;"/>
<text style="font-family:Arial;font-size:12px;kerning:0;word-spacing:-1px;fill:Black;">
<tspan x="692" y="297">e-lion:belongAssignment  DR</tspan>
</text>
</g>
<g id="2002683307"><path d="M531,118 L436,118 432,116 430,112 430,78 432,74 436,72 681,72 681,78 "
style="fill:none;stroke-width:1;stroke:Black;"/>
<line x1="678" y1="72" x2="681" y2="78"
 style="stroke-width:1;stroke:Black;"/>
<line x1="684" y1="72" x2="681" y2="78"
 style="stroke-width:1;stroke:Black;"/>
<text style="font-family:Arial;font-size:12px;kerning:0;word-spacing:-1px;fill:Black;">
<tspan x="438" y="131">sd:url  DR</tspan>
<tspan x="438" y="146">sd:endpoint  DR</tspan>
</text>
</g>
<g id="2002683312"><path d="M538,450 L449,450 "
style="fill:none;stroke-width:1;stroke:Black;"/>
<line x1="455" y1="447" x2="449" y2="450"
 style="stroke-width:1;stroke:Black;"/>
<line x1="455" y1="453" x2="449" y2="450"
 style="stroke-width:1;stroke:Black;"/>
<text style="font-family:Arial;font-size:12px;kerning:0;word-spacing:-1px;fill:Black;">
<tspan x="453" y="463">rdfs:domain  D</tspan>
<tspan x="453" y="478">rdfs:range  D</tspan>
</text>
</g>
<g id="2002683317"><path d="M680,482 L680,501 "
style="fill:none;stroke-width:2;stroke:Fuchsia;"/>
<polygon points="685,492 680,482 675,492 "
style="fill:Silver;stroke-width:1;stroke:Black;"/>
<text style="font-family:Arial;font-size:12px;kerning:0;word-spacing:-1px;fill:Black;">
<tspan x="682" y="497"> </tspan>
</text>
</g>
</svg>
