<?xml version="1.0" encoding="UTF-8" standalone="no"?>
<!DOCTYPE svg PUBLIC "-//W3C//DTD SVG 1.1//EN"
"http://www.w3.org/Graphics/SVG/1.1/DTD/svg11.dtd">
<svg version="1.1" xmlns="http://www.w3.org/2000/svg"
xmlns:xlink="http://www.w3.org/1999/xlink" xml:space="preserve"
 width="1506" height="739" viewBox="0 0 1506 739">
 onmousemove="movetip(evt)" onmouseup="endmove()">
<rect x="0" y="0" width="100%" height="100%" style="fill:White;"/>
<script type="application/ecmascript"> <![CDATA[
var dragtipid = null; var dragcase = false; function init(evt){
if (window.svgDocument==null) svgDocument = evt.target.ownerDocument;
}
function movetip(evt){if (dragtipid!=null){ dragcase = true;
var tip=svgDocument.getElementById(dragtipid);
tip.setAttributeNS(null,"x",evt.clientX-2);
tip.setAttributeNS(null,"y",evt.clientY-2);
}}
function endmove(){dragtipid = null;}
function startmove(evt,id){dragtipid = id; dragcase = false;
var tip=svgDocument.getElementById(dragtipid);
tip.setAttributeNS(null,"x",evt.clientX-2);
tip.setAttributeNS(null,"y",evt.clientY-2);
}
function Showtip(evt,id){ dragtipid = null;
var tip=svgDocument.getElementById(id);
var vis=tip.getAttributeNS(null,"visibility");
if (vis=="hidden"){
tip.setAttributeNS(null,"x",evt.clientX-2);
tip.setAttributeNS(null,"y",evt.clientY-2);
tip.setAttributeNS(null,"visibility","visible");
}}
function Hidetip(id){ dragtipid = null; if (dragcase==false){
var tip=svgDocument.getElementById(id);
tip.setAttributeNS(null,"visibility","hidden");
}}
]]></script>
<defs><linearGradient id="activ1" x1="0%" y1="0%" x2="100%" y2="0%">
<stop offset="0%" style="stop-color:#FFFF00;stop-opacity:1"/>
<stop offset="100%" style="stop-color:#FFFFF0;stop-opacity:1"/>
</linearGradient></defs>
<g id="2002685669"><polygon points="1196,116 1496,116 1496,391 1196,391 "
style="fill:#F4D03F; stroke-width:1;stroke:Black;"/>
<text style="font-family:Arial;font-size:12px;kerning:0;word-spacing:-1px;fill:Black;font-weight:bold;">
<tspan x="1293" y="131">edm:Agent (1.5e5)</tspan>
</text>
<line x1="1200" y1="134" x2="1494" y2="134"
 style="stroke-width:1;stroke:Black;"/>
<text style="font-family:Arial;font-size:12px;kerning:0;word-spacing:-1px;fill:Black;">
<tspan x="1200" y="146">edm:begin (585) [*] </tspan>
<tspan x="1200" y="161">edm:end (580) [*] </tspan>
<tspan x="1200" y="176">rdf:type (1.5e5) [1]  -&gt; IRI</tspan>
<tspan x="1200" y="191">rdvocab:biographicalInformation (683) [*] </tspan>
<tspan x="1200" y="206">rdvocab:dateOfBirth (498) [*] </tspan>
<tspan x="1200" y="221">rdvocab:dateOfDeath (524) [*] </tspan>
<tspan x="1200" y="236">rdvocab:dateOfEstablishment (48) [1] </tspan>
<tspan x="1200" y="251">rdvocab:dateOfTermination (30) [1] </tspan>
<tspan x="1200" y="266">rdvocab:gender (691) [*] </tspan>
<tspan x="1200" y="281">rdvocab:placeOfBirth (685) [*] </tspan>
<tspan x="1200" y="296">rdvocab:placeOfDeath (597) [*] </tspan>
<tspan x="1200" y="311">rdvocab:professionOrOccupation (3398) [*] </tspan>
<tspan x="1200" y="326">skos:altLabel (4581) [*] </tspan>
<tspan x="1200" y="341">skos:note (3710) [*] </tspan>
<tspan x="1200" y="356">skos:prefLabel (1.5e5) [*] </tspan>
<tspan x="1200" y="371">vocab:oaiSourceIdentifier (1.2e6) [*] </tspan>
<tspan x="1200" y="386">vocab:oaiSourceRepository (1.5e5) [1]  -&gt; IRI</tspan>
</text>
</g>
<g id="2002685680"><polygon points="228,416 528,416 528,461 228,461 "
style="fill:#F4D03F; stroke-width:1;stroke:Black;"/>
<text style="font-family:Arial;font-size:12px;kerning:0;word-spacing:-1px;fill:Black;font-weight:bold;">
<tspan x="338" y="431">cc:License (4)</tspan>
</text>
</g>
<g id="2002685735"><polygon points="484,664 784,664 784,729 484,729 "
style="fill:#FBECAE; stroke-width:1;stroke:Black;"/>
<text style="font-family:Arial;font-size:12px;kerning:0;word-spacing:-1px;fill:Black;font-weight:bold;">
<tspan x="498" y="679">edm:ProvidedCHO or cc:License S101 (~5.5e5)</tspan>
</text>
<line x1="488" y1="682" x2="782" y2="682"
 style="stroke-width:1;stroke:Black;"/>
<text style="font-family:Arial;font-size:12px;kerning:0;word-spacing:-1px;fill:Black;">
<tspan x="488" y="694">rdf:type (4) [1]  -&gt; IRI</tspan>
<tspan x="488" y="709">vocab:oaiSourceIdentifier (1.1e5) [*] </tspan>
<tspan x="488" y="724">vocab:oaiSourceRepository (4) [1]  -&gt; IRI</tspan>
</text>
</g>
<g id="2002685713"><polygon points="125,279 425,279 425,359 125,359 "
style="fill:#F4D03F; stroke-width:1;stroke:Black;"/>
<text style="font-family:Arial;font-size:12px;kerning:0;word-spacing:-1px;fill:Black;font-weight:bold;">
<tspan x="216" y="294">skos:Concept (4444)</tspan>
</text>
<line x1="129" y1="297" x2="423" y2="297"
 style="stroke-width:1;stroke:Black;"/>
<text style="font-family:Arial;font-size:12px;kerning:0;word-spacing:-1px;fill:Black;">
<tspan x="129" y="309">rdf:type (4444) [1]  -&gt; IRI</tspan>
<tspan x="129" y="324">skos:altLabel (6737) [*] </tspan>
<tspan x="129" y="339">skos:note (2800) [*] </tspan>
<tspan x="129" y="354">skos:prefLabel (4444) [*] </tspan>
</text>
</g>
<g id="2002685691"><polygon points="87,493 387,493 387,633 87,633 "
style="fill:#F4D03F; stroke-width:1;stroke:Black;"/>
<text style="font-family:Arial;font-size:12px;kerning:0;word-spacing:-1px;fill:Black;font-weight:bold;">
<tspan x="170" y="508">ore:Aggregation (5.5e5)</tspan>
</text>
<line x1="91" y1="511" x2="385" y2="511"
 style="stroke-width:1;stroke:Black;"/>
<text style="font-family:Arial;font-size:12px;kerning:0;word-spacing:-1px;fill:Black;">
<tspan x="91" y="523">edm:dataProvider (5.5e5) [1] </tspan>
<tspan x="91" y="538">edm:isShownAt (5.5e5) [*]  -&gt; IRI</tspan>
<tspan x="91" y="553">edm:isShownBy (3.4e5) [*]  -&gt; IRI</tspan>
<tspan x="91" y="568">edm:object (3.4e5) [*]  -&gt; IRI</tspan>
<tspan x="91" y="583">edm:provider (5.5e5) [1] </tspan>
<tspan x="91" y="598">rdf:type (5.5e5) [1]  -&gt; IRI</tspan>
<tspan x="91" y="613">vocab:oaiSourceIdentifier (5.5e5) [*] </tspan>
<tspan x="91" y="628">vocab:oaiSourceRepository (5.5e5) [1]  -&gt; IRI</tspan>
</text>
</g>
<g id="2002685724"><polygon points="632,257 932,257 932,637 632,637 "
style="fill:#F4D03F; stroke-width:1;stroke:Black;"/>
<text style="font-family:Arial;font-size:12px;kerning:0;word-spacing:-1px;fill:Black;font-weight:bold;">
<tspan x="708" y="272">edm:ProvidedCHO (5.5e5)</tspan>
</text>
<line x1="636" y1="275" x2="930" y2="275"
 style="stroke-width:1;stroke:Black;"/>
<text style="font-family:Arial;font-size:12px;kerning:0;word-spacing:-1px;fill:Black;">
<tspan x="636" y="287">dc:date (5.5e5) [*] </tspan>
<tspan x="636" y="302">dc:description (8.4e5) [*] </tspan>
<tspan x="636" y="317">dc:format (5.5e5) [*] </tspan>
<tspan x="636" y="332">dc:identifier (9.1e5) [*] </tspan>
<tspan x="636" y="347">dc:language (5.6e5) [*] </tspan>
<tspan x="636" y="362">dc:relation (246) [*] </tspan>
<tspan x="636" y="377">dc:rights (9.4e5) [*] </tspan>
<tspan x="636" y="392">dc:source (10) [*] </tspan>
<tspan x="636" y="407">dc:title (9.1e5) [*] </tspan>
<tspan x="636" y="422">dc:type (8.5e5) [*] </tspan>
<tspan x="636" y="437">dct:alternative (3.2e4) [*] </tspan>
<tspan x="636" y="452">dct:created (510) [*] </tspan>
<tspan x="636" y="467">dct:extent (3.7e5) [*] </tspan>
<tspan x="636" y="482">dct:hasFormat (8) [*] </tspan>
<tspan x="636" y="497">dct:isReferencedBy (3.7e4) [*] </tspan>
<tspan x="636" y="512">dct:isVersionOf (13) [*] </tspan>
<tspan x="636" y="527">dct:issued (2.3e5) [*] </tspan>
<tspan x="636" y="542">dct:medium (5799) [*] </tspan>
<tspan x="636" y="557">dct:provenance (2) [1] </tspan>
<tspan x="636" y="572">dct:tableOfContents (2.5e4) [*] </tspan>
<tspan x="636" y="587">dct:temporal (4.4e4) [*] </tspan>
<tspan x="636" y="602">edm:currentLocation (3.7e5) [*] </tspan>
<tspan x="636" y="617">edm:hasType (3.7e5) [*] </tspan>
<tspan x="636" y="632">edm:type (5.5e5) [*] </tspan>
</text>
</g>
<g id="2002685702"><polygon points="739,30 1039,30 1039,170 739,170 "
style="fill:#F4D03F; stroke-width:1;stroke:Black;"/>
<text style="font-family:Arial;font-size:12px;kerning:0;word-spacing:-1px;fill:Black;font-weight:bold;">
<tspan x="839" y="45">edm:Place (3975)</tspan>
</text>
<line x1="743" y1="48" x2="1037" y2="48"
 style="stroke-width:1;stroke:Black;"/>
<text style="font-family:Arial;font-size:12px;kerning:0;word-spacing:-1px;fill:Black;">
<tspan x="743" y="60">rdf:type (3975) [1]  -&gt; IRI</tspan>
<tspan x="743" y="75">skos:altLabel (521) [*] </tspan>
<tspan x="743" y="90">skos:note (2269) [*] </tspan>
<tspan x="743" y="105">skos:prefLabel (4823) [*] </tspan>
<tspan x="743" y="120">vocab:oaiSourceIdentifier (1.2e5) [*] </tspan>
<tspan x="743" y="135">vocab:oaiSourceRepository (3975) [1]  -&gt; IRI</tspan>
<tspan x="743" y="150">wgs84_pos:lat (817) [*] </tspan>
<tspan x="743" y="165">wgs84_pos:long (842) [*] </tspan>
</text>
</g>
<g id="2002685600"><path d="M932,385 L1196,385 "
style="fill:none;stroke-width:1;stroke:Black;"/>
<line x1="1190" y1="382" x2="1196" y2="385"
 style="stroke-width:1;stroke:Black;"/>
<line x1="1190" y1="388" x2="1196" y2="385"
 style="stroke-width:1;stroke:Black;"/>
<text style="font-family:Arial;font-size:12px;kerning:0;word-spacing:-1px;fill:Black;">
<tspan x="936" y="308">dc:creator  </tspan>
<tspan x="936" y="323">dc:publisher  </tspan>
<tspan x="936" y="338">dc:subject  </tspan>
<tspan x="936" y="353">dc:contributor  </tspan>
<tspan x="936" y="368">dct:isPartOf  </tspan>
<tspan x="936" y="383">edm:isRelatedTo  </tspan>
</text>
</g>
<g id="2002685610"><path d="M1196,143 L1039,143 "
style="fill:none;stroke-width:1;stroke:Black;"/>
<line x1="1045" y1="140" x2="1039" y2="143"
 style="stroke-width:1;stroke:Black;"/>
<line x1="1045" y1="146" x2="1039" y2="143"
 style="stroke-width:1;stroke:Black;"/>
<text style="font-family:Arial;font-size:12px;kerning:0;word-spacing:-1px;fill:Black;">
<tspan x="1118" y="156">owl:sameAs  </tspan>
</text>
</g>
<g id="2002685615"><path d="M228,440 L129,440 125,438 123,434 123,410 125,406 129,404 352,404 356,406 358,410 358,416 "
style="fill:none;stroke-width:1;stroke:Black;"/>
<line x1="355" y1="410" x2="358" y2="416"
 style="stroke-width:1;stroke:Black;"/>
<line x1="361" y1="410" x2="358" y2="416"
 style="stroke-width:1;stroke:Black;"/>
<text style="font-family:Arial;font-size:12px;kerning:0;word-spacing:-1px;fill:Black;">
<tspan x="131" y="453">odrl:inheritFrom  </tspan>
</text>
</g>
<g id="2002685625"><path d="M1039,164 L1196,164 "
style="fill:none;stroke-width:1;stroke:Black;"/>
<line x1="1190" y1="161" x2="1196" y2="164"
 style="stroke-width:1;stroke:Black;"/>
<line x1="1190" y1="167" x2="1196" y2="164"
 style="stroke-width:1;stroke:Black;"/>
<text style="font-family:Arial;font-size:12px;kerning:0;word-spacing:-1px;fill:Black;">
<tspan x="1043" y="162">dct:isPartOf  </tspan>
</text>
</g>
<g id="2002685645"><path d="M632,400 L425,400 421,398 419,394 419,359 "
style="fill:none;stroke-width:1;stroke:Black;"/>
<line x1="416" y1="365" x2="419" y2="359"
 style="stroke-width:1;stroke:Black;"/>
<line x1="422" y1="365" x2="419" y2="359"
 style="stroke-width:1;stroke:Black;"/>
<text style="font-family:Arial;font-size:12px;kerning:0;word-spacing:-1px;fill:Black;">
<tspan x="566" y="413">dc:subject  </tspan>
</text>
</g>
<g id="2002685660"><path d="M1196,289 L932,289 "
style="fill:none;stroke-width:1;stroke:Black;"/>
<line x1="938" y1="286" x2="932" y2="289"
 style="stroke-width:1;stroke:Black;"/>
<line x1="938" y1="292" x2="932" y2="289"
 style="stroke-width:1;stroke:Black;"/>
<text style="font-family:Arial;font-size:12px;kerning:0;word-spacing:-1px;fill:Black;">
<tspan x="1091" y="302">edm:isRelatedTo  </tspan>
</text>
</g>
<g id="2002685667"><path d="M484,698 L37,698 33,696 31,692 31,395 33,391 37,389 374,389 378,391 380,395 380,416 "
style="fill:none;stroke-width:2;stroke:Fuchsia;"/>
<polygon points="474,703 484,698 474,693 "
style="fill:Silver;stroke-width:1;stroke:Black;"/>
<text style="font-family:Arial;font-size:12px;kerning:0;word-spacing:-1px;fill:Black;">
<tspan x="470" y="711"> </tspan>
</text>
</g>
<g id="2002685620"><path d="M387,578 L632,578 "
style="fill:none;stroke-width:1;stroke:Black;"/>
<line x1="626" y1="575" x2="632" y2="578"
 style="stroke-width:1;stroke:Black;"/>
<line x1="626" y1="581" x2="632" y2="578"
 style="stroke-width:1;stroke:Black;"/>
<text style="font-family:Arial;font-size:12px;kerning:0;word-spacing:-1px;fill:Black;">
<tspan x="391" y="576">edm:aggregatedCHO  </tspan>
</text>
</g>
<g id="2002685630"><path d="M349,493 L349,461 "
style="fill:none;stroke-width:1;stroke:Black;"/>
<line x1="346" y1="467" x2="349" y2="461"
 style="stroke-width:1;stroke:Black;"/>
<line x1="352" y1="467" x2="349" y2="461"
 style="stroke-width:1;stroke:Black;"/>
<text style="font-family:Arial;font-size:12px;kerning:0;word-spacing:-1px;fill:Black;">
<tspan x="282" y="489">edm:rights  </tspan>
</text>
</g>
<g id="2002685640"><path d="M816,257 L816,170 "
style="fill:none;stroke-width:1;stroke:Black;"/>
<line x1="813" y1="176" x2="816" y2="170"
 style="stroke-width:1;stroke:Black;"/>
<line x1="819" y1="176" x2="816" y2="170"
 style="stroke-width:1;stroke:Black;"/>
<text style="font-family:Arial;font-size:12px;kerning:0;word-spacing:-1px;fill:Black;">
<tspan x="745" y="208">dc:subject  </tspan>
<tspan x="745" y="223">dct:spatial  </tspan>
<tspan x="745" y="238">dct:isPartOf  </tspan>
<tspan x="745" y="253">dct:hasPart  </tspan>
</text>
</g>
<g id="2002685635"><path d="M909,170 L909,257 "
style="fill:none;stroke-width:1;stroke:Black;"/>
<line x1="906" y1="251" x2="909" y2="257"
 style="stroke-width:1;stroke:Black;"/>
<line x1="912" y1="251" x2="909" y2="257"
 style="stroke-width:1;stroke:Black;"/>
<text style="font-family:Arial;font-size:12px;kerning:0;word-spacing:-1px;fill:Black;">
<tspan x="911" y="185">dct:isPartOf  </tspan>
<tspan x="911" y="200">dct:hasPart  </tspan>
</text>
</g>
<g id="2002685665"><path d="M784,694 L821,694 825,692 827,688 827,637 "
style="fill:none;stroke-width:2;stroke:Fuchsia;"/>
<polygon points="794,699 784,694 794,689 "
style="fill:Silver;stroke-width:1;stroke:Black;"/>
<text style="font-family:Arial;font-size:12px;kerning:0;word-spacing:-1px;fill:Black;">
<tspan x="788" y="692"> </tspan>
</text>
</g>
<g id="2002685650"><path d="M739,61 L654,61 650,59 648,55 648,16 650,12 654,10 841,10 845,12 847,16 847,30 "
style="fill:none;stroke-width:1;stroke:Black;"/>
<line x1="844" y1="24" x2="847" y2="30"
 style="stroke-width:1;stroke:Black;"/>
<line x1="850" y1="24" x2="847" y2="30"
 style="stroke-width:1;stroke:Black;"/>
<text style="font-family:Arial;font-size:12px;kerning:0;word-spacing:-1px;fill:Black;">
<tspan x="661" y="74">dct:isPartOf  </tspan>
<tspan x="661" y="89">dct:hasPart  </tspan>
<tspan x="661" y="104">owl:sameAs  </tspan>
</text>
</g>
<g id="2002685605"><path d="M1196,122 L1089,122 1085,120 1083,116 1083,89 1085,85 1089,83 1277,83 1281,85 1283,89 1283,116 "
style="fill:none;stroke-width:1;stroke:Black;"/>
<line x1="1280" y1="110" x2="1283" y2="116"
 style="stroke-width:1;stroke:Black;"/>
<line x1="1286" y1="110" x2="1283" y2="116"
 style="stroke-width:1;stroke:Black;"/>
<text style="font-family:Arial;font-size:12px;kerning:0;word-spacing:-1px;fill:Black;">
<tspan x="1091" y="135">edm:isRelatedTo  </tspan>
</text>
</g>
<g id="2002685655"><path d="M125,297 L16,297 12,295 10,291 10,268 12,264 16,262 143,262 147,264 149,268 149,279 "
style="fill:none;stroke-width:1;stroke:Black;"/>
<line x1="146" y1="273" x2="149" y2="279"
 style="stroke-width:1;stroke:Black;"/>
<line x1="152" y1="273" x2="149" y2="279"
 style="stroke-width:1;stroke:Black;"/>
<text style="font-family:Arial;font-size:12px;kerning:0;word-spacing:-1px;fill:Black;">
<tspan x="23" y="310">skos:closeMatch  </tspan>
<tspan x="23" y="325">skos:related  </tspan>
<tspan x="23" y="340">skos:broader  </tspan>
<tspan x="23" y="355">skos:narrower  </tspan>
</text>
</g>
<g id="2002685595"><path d="M632,279 L474,279 470,277 468,273 468,240 470,236 474,234 688,234 692,236 694,240 694,257 "
style="fill:none;stroke-width:1;stroke:Black;"/>
<line x1="691" y1="251" x2="694" y2="257"
 style="stroke-width:1;stroke:Black;"/>
<line x1="697" y1="251" x2="694" y2="257"
 style="stroke-width:1;stroke:Black;"/>
<text style="font-family:Arial;font-size:12px;kerning:0;word-spacing:-1px;fill:Black;">
<tspan x="494" y="292">dct:isPartOf  </tspan>
<tspan x="494" y="307">dct:isReplacedBy  </tspan>
<tspan x="494" y="322">dct:replaces  </tspan>
<tspan x="494" y="337">dct:hasPart  </tspan>
<tspan x="494" y="352">edm:isRelatedTo  </tspan>
<tspan x="494" y="367">edm:isNextInSequence  </tspan>
</text>
</g>
</svg>
