<?xml version="1.0" encoding="UTF-8" standalone="no"?>
<!DOCTYPE svg PUBLIC "-//W3C//DTD SVG 1.1//EN"
"http://www.w3.org/Graphics/SVG/1.1/DTD/svg11.dtd">
<svg version="1.1" xmlns="http://www.w3.org/2000/svg"
xmlns:xlink="http://www.w3.org/1999/xlink" xml:space="preserve"
 width="1176" height="1035" viewBox="0 0 1176 1035">
 onmousemove="movetip(evt)" onmouseup="endmove()">
<rect x="0" y="0" width="100%" height="100%" style="fill:White;"/>
<script type="application/ecmascript"> <![CDATA[
var dragtipid = null; var dragcase = false; function init(evt){
if (window.svgDocument==null) svgDocument = evt.target.ownerDocument;
}
function movetip(evt){if (dragtipid!=null){ dragcase = true;
var tip=svgDocument.getElementById(dragtipid);
tip.setAttributeNS(null,"x",evt.clientX-2);
tip.setAttributeNS(null,"y",evt.clientY-2);
}}
function endmove(){dragtipid = null;}
function startmove(evt,id){dragtipid = id; dragcase = false;
var tip=svgDocument.getElementById(dragtipid);
tip.setAttributeNS(null,"x",evt.clientX-2);
tip.setAttributeNS(null,"y",evt.clientY-2);
}
function Showtip(evt,id){ dragtipid = null;
var tip=svgDocument.getElementById(id);
var vis=tip.getAttributeNS(null,"visibility");
if (vis=="hidden"){
tip.setAttributeNS(null,"x",evt.clientX-2);
tip.setAttributeNS(null,"y",evt.clientY-2);
tip.setAttributeNS(null,"visibility","visible");
}}
function Hidetip(id){ dragtipid = null; if (dragcase==false){
var tip=svgDocument.getElementById(id);
tip.setAttributeNS(null,"visibility","hidden");
}}
]]></script>
<defs><linearGradient id="activ1" x1="0%" y1="0%" x2="100%" y2="0%">
<stop offset="0%" style="stop-color:#FFFF00;stop-opacity:1"/>
<stop offset="100%" style="stop-color:#FFFFF0;stop-opacity:1"/>
</linearGradient></defs>
<g id="2002715670"><polygon points="54,281 311,281 311,946 54,946 "
style="fill:#F4D03F; stroke-width:1;stroke:Black;"/>
<text style="font-family:Arial;font-size:12px;kerning:0;word-spacing:-1px;fill:Black;font-weight:bold;">
<tspan x="152" y="296">iden: (377)</tspan>
</text>
<line x1="58" y1="299" x2="309" y2="299"
 style="stroke-width:1;stroke:Black;"/>
<text style="font-family:Arial;font-size:12px;kerning:0;word-spacing:-1px;fill:Black;">
<tspan x="58" y="311">assembly:asm_name (377) [1] D</tspan>
<tspan x="58" y="326">assembly:assembly_id (377) [1] D</tspan>
<tspan x="58" y="341">assembly:assembly_level (377) [1] D</tspan>
<tspan x="58" y="356">assembly:bioproject (377) [1] D -&gt; IRI</tspan>
<tspan x="58" y="371">assembly:bioproject_accession (377) [1] D</tspan>
<tspan x="58" y="386">assembly:biosample (363) [1] D -&gt; IRI</tspan>
<tspan x="58" y="401">assembly:biosample_accession (377) [1] D</tspan>
<tspan x="58" y="416">assembly:contig-N50 (293) [1] D</tspan>
<tspan x="58" y="431">assembly:contig-count (293) [1] D</tspan>
<tspan x="58" y="446">assembly:ftp_path (377) [1] D</tspan>
<tspan x="58" y="461">assembly:gbrs_paired_asm (377) [1] D</tspan>
<tspan x="58" y="476">assembly:genome_rep (377) [1] D</tspan>
<tspan x="58" y="491">assembly:infraspecific_name (377) [1] D</tspan>
<tspan x="58" y="506">assembly:isolate (377) [1] D</tspan>
<tspan x="58" y="521">assembly:molecule-count (377) [1] D</tspan>
<tspan x="58" y="536">assembly:organism_name (377) [1] D</tspan>
<tspan x="58" y="551">assembly:paired_asm_comp (377) [1] D</tspan>
<tspan x="58" y="566">assembly:refseq_category (377) [1] D</tspan>
<tspan x="58" y="581">assembly:region-count (377) [1] D</tspan>
<tspan x="58" y="596">assembly:release_date (377) [1] D</tspan>
<tspan x="58" y="611">assembly:release_type (377) [1] D</tspan>
<tspan x="58" y="626">assembly:scaffold-L50 (61) [1] D</tspan>
<tspan x="58" y="641">assembly:scaffold-N50 (61) [1] D</tspan>
<tspan x="58" y="656">assembly:scaffold-N75 (61) [1] D</tspan>
<tspan x="58" y="671">assembly:scaffold-N90 (61) [1] D</tspan>
<tspan x="58" y="686">assembly:scaffold-count (61) [1] D</tspan>
<tspan x="58" y="701">assembly:sequnece (8.1e4) [*] D -&gt; IRI</tspan>
<tspan x="58" y="716">assembly:spanned-gaps (377) [1] D</tspan>
<tspan x="58" y="731">assembly:species_taxid (377) [1] D</tspan>
<tspan x="58" y="746">assembly:submitter (377) [1] D</tspan>
<tspan x="58" y="761">assembly:tax_id (377) [1] D</tspan>
<tspan x="58" y="776">assembly:top-level-count (377) [1] D</tspan>
<tspan x="58" y="791">assembly:total-gap-length (377) [1] D</tspan>
<tspan x="58" y="806">assembly:total-length (377) [1] D</tspan>
<tspan x="58" y="821">assembly:unspanned-gaps (377) [1] D</tspan>
<tspan x="58" y="836">assembly:version_status (377) [1] D</tspan>
<tspan x="58" y="851">assembly:wasDerivedFrom (377) [1] D</tspan>
<tspan x="58" y="866">assembly:wgs_master (377) [1] D</tspan>
<tspan x="58" y="881">rdf:type (754) [*]  -&gt;  owl:Class</tspan>
<tspan x="58" y="896">rdfs:seeAlso (377) [*]  -&gt; IRI</tspan>
</text>
</g>
<g id="2002715681"><polygon points="840,627 1166,627 1166,722 840,722 "
style="fill:#F4D03F; stroke-width:1;stroke:Black;"/>
<text style="font-family:Arial;font-size:12px;kerning:0;word-spacing:-1px;fill:Black;font-weight:bold;">
<tspan x="966" y="642">owl:Class (4)</tspan>
</text>
<line x1="844" y1="645" x2="1164" y2="645"
 style="stroke-width:1;stroke:Black;"/>
<text style="font-family:Arial;font-size:12px;kerning:0;word-spacing:-1px;fill:Black;">
<tspan x="844" y="657">rdf:type (4) [*]  -&gt;  owl:Class</tspan>
<tspan x="844" y="672">rdfs:label (4) [1] </tspan>
<tspan x="844" y="687">&lt;- rdf:type (2.0e6)  &lt;-  owl:DatatypeProperty,sd:Service..(8)</tspan>
<tspan x="844" y="702">&lt;&gt; rdfs:subClassOf  </tspan>
</text>
</g>
<g id="2002715692"><polygon points="880,758 1116,758 1116,823 880,823 "
style="fill:#F4D03F; stroke-width:1;stroke:Black;"/>
<text style="font-family:Arial;font-size:12px;kerning:0;word-spacing:-1px;fill:Black;font-weight:bold;">
<tspan x="924" y="773">owl:DatatypeProperty (28)</tspan>
</text>
<line x1="884" y1="776" x2="1114" y2="776"
 style="stroke-width:1;stroke:Black;"/>
<text style="font-family:Arial;font-size:12px;kerning:0;word-spacing:-1px;fill:Black;">
<tspan x="884" y="788">rdf:type (29) [*]  -&gt;  owl:Class</tspan>
<tspan x="884" y="803">rdfs:label (28) [1] </tspan>
<tspan x="884" y="818">&lt;&gt; rdfs:subPropertyOf  DR</tspan>
</text>
</g>
<g id="2002715703"><polygon points="458,117 715,117 715,227 458,227 "
style="fill:#F4D03F; stroke-width:1;stroke:Black;"/>
<text style="font-family:Arial;font-size:12px;kerning:0;word-spacing:-1px;fill:Black;font-weight:bold;">
<tspan x="547" y="132">sd:Service (1)</tspan>
</text>
<line x1="462" y1="135" x2="713" y2="135"
 style="stroke-width:1;stroke:Black;"/>
<text style="font-family:Arial;font-size:12px;kerning:0;word-spacing:-1px;fill:Black;">
<tspan x="462" y="147">rdf:type (1) [*]  -&gt;  owl:Class</tspan>
<tspan x="462" y="162">sd:feature (2) [*] D -&gt; IRI</tspan>
<tspan x="462" y="177">sd:resultFormat (8) [*] D -&gt; IRI</tspan>
<tspan x="462" y="192">sd:supportedLanguage (1) [1] D -&gt; IRI</tspan>
<tspan x="462" y="207">&lt;&gt; sd:endpoint  DR</tspan>
<tspan x="462" y="222">&lt;&gt; sd:url  DR</tspan>
</text>
</g>
<g id="2002715714"><polygon points="440,869 740,869 740,919 440,919 "
style="fill:#FBECAE; stroke-width:1;stroke:Black;"/>
<text style="font-family:Arial;font-size:12px;kerning:0;word-spacing:-1px;fill:Black;font-weight:bold;">
<tspan x="484" y="884">tax:Rank or owl:Ontology S101 (~30)</tspan>
</text>
<line x1="444" y1="887" x2="738" y2="887"
 style="stroke-width:1;stroke:Black;"/>
<text style="font-family:Arial;font-size:12px;kerning:0;word-spacing:-1px;fill:Black;">
<tspan x="444" y="899">rdf:type (1) [*]  -&gt;  owl:Class</tspan>
<tspan x="444" y="914">rdfs:label (1) [1] </tspan>
</text>
</g>
<g id="2002715725"><polygon points="876,499 1120,499 1120,549 876,549 "
style="fill:#F4D03F; stroke-width:1;stroke:Black;"/>
<text style="font-family:Arial;font-size:12px;kerning:0;word-spacing:-1px;fill:Black;font-weight:bold;">
<tspan x="934" y="514">owl:ObjectProperty (7)</tspan>
</text>
<line x1="880" y1="517" x2="1118" y2="517"
 style="stroke-width:1;stroke:Black;"/>
<text style="font-family:Arial;font-size:12px;kerning:0;word-spacing:-1px;fill:Black;">
<tspan x="880" y="529">rdf:type (11) [*]  -&gt;  owl:Class</tspan>
<tspan x="880" y="544">rdfs:label (7) [1] </tspan>
</text>
</g>
<g id="2002715736"><polygon points="54,973 354,973 354,1018 54,1018 "
style="fill:#F4D03F; stroke-width:1;stroke:Black;"/>
<text style="font-family:Arial;font-size:12px;kerning:0;word-spacing:-1px;fill:Black;font-weight:bold;">
<tspan x="79" y="988">assembly:Assembly_Database_Entry (377)</tspan>
</text>
</g>
<g id="2002715747"><polygon points="464,302 719,302 719,352 464,352 "
style="fill:#F4D03F; stroke-width:1;stroke:Black;"/>
<text style="font-family:Arial;font-size:12px;kerning:0;word-spacing:-1px;fill:Black;font-weight:bold;">
<tspan x="530" y="317">tax:GeneticCode (20)</tspan>
</text>
<line x1="468" y1="320" x2="717" y2="320"
 style="stroke-width:1;stroke:Black;"/>
<text style="font-family:Arial;font-size:12px;kerning:0;word-spacing:-1px;fill:Black;">
<tspan x="468" y="332">rdf:type (20) [*]  -&gt;  owl:Class</tspan>
<tspan x="468" y="347">rdfs:label (20) [1] </tspan>
</text>
</g>
<g id="2002715758"><polygon points="402,973 569,973 569,1018 402,1018 "
style="fill:#F4D03F; stroke-width:1;stroke:Black;"/>
<text style="font-family:Arial;font-size:12px;kerning:0;word-spacing:-1px;fill:Black;font-weight:bold;">
<tspan x="447" y="988">tax:Rank (29)</tspan>
</text>
</g>
<g id="2002715769"><polygon points="54,117 414,117 414,262 54,262 "
style="fill:White; stroke-width:1;stroke:Black;"/>
<text style="font-family:Arial;font-size:12px;kerning:0;word-spacing:-1px;fill:Black;">
<tspan x="58" y="131">PREFIX virtrdf: &lt;http://www.openlinksw.com/schemas/virtrdf#&gt;</tspan>
<tspan x="58" y="146">PREFIX assembly: &lt;http://www.ncbi.nlm.nih.gov/assembly/&gt;</tspan>
<tspan x="58" y="161">PREFIX tax: &lt;http://ddbj.nig.ac.jp/ontologies/taxonomy/&gt;</tspan>
<tspan x="58" y="176">PREFIX owl: &lt;http://www.w3.org/2002/07/owl#&gt;</tspan>
<tspan x="58" y="191">PREFIX rdfs: &lt;http://www.w3.org/2000/01/rdf-schema#&gt;</tspan>
<tspan x="58" y="206">PREFIX sd: &lt;http://www.w3.org/ns/sparql-service-description#&gt;</tspan>
<tspan x="58" y="221">PREFIX dct: &lt;http://purl.org/dc/terms/&gt;</tspan>
<tspan x="58" y="236">PREFIX iden: &lt;http://identifiers.org/&gt;</tspan>
<tspan x="58" y="251">PREFIX rdf: &lt;http://www.w3.org/1999/02/22-rdf-syntax-ns#&gt;</tspan>
</text>
</g>
<g id="2002715780"><polygon points="594,938 782,938 782,1025 594,1025 "
style="fill:#F4D03F; stroke-width:1;stroke:Black;"/>
<text style="font-family:Arial;font-size:12px;kerning:0;word-spacing:-1px;fill:Black;font-weight:bold;">
<tspan x="642" y="953">owl:Ontology (1)</tspan>
</text>
<line x1="598" y1="956" x2="780" y2="956"
 style="stroke-width:1;stroke:Black;"/>
<text style="font-family:Arial;font-size:12px;kerning:0;word-spacing:-1px;fill:Black;">
<tspan x="598" y="968">dct:license (1) [1] D -&gt; IRI</tspan>
<tspan x="598" y="983">owl:versionInfo (1) [1] D</tspan>
<tspan x="598" y="998">rdfs:comment (1) [1] D</tspan>
<tspan x="598" y="1013">rdfs:seeAlso (2) [*]  -&gt; IRI</tspan>
</text>
</g>
<g id="2002715791"><polygon points="436,410 736,410 736,794 436,794 "
style="fill:#F4D03F; stroke-width:1;stroke:Black;"/>
<text style="font-family:Arial;font-size:12px;kerning:0;word-spacing:-1px;fill:Black;font-weight:bold;">
<tspan x="536" y="425">tax:Taxon (2.0e6)</tspan>
</text>
<line x1="440" y1="428" x2="734" y2="428"
 style="stroke-width:1;stroke:Black;"/>
<text style="font-family:Arial;font-size:12px;kerning:0;word-spacing:-1px;fill:Black;">
<tspan x="440" y="440">dct:identifier (2.0e6) [1] D</tspan>
<tspan x="440" y="455">owl:sameAs (1.0e7) [*] D -&gt; IRI</tspan>
<tspan x="440" y="470">rdf:type (2.0e6) [*]  -&gt;  owl:Class</tspan>
<tspan x="440" y="485">rdfs:label (2.0e6) [1] </tspan>
<tspan x="440" y="500">rdfs:seeAlso (2.0e6) [*]  -&gt; IRI</tspan>
<tspan x="440" y="515">tax:acronym (1154) [*] D</tspan>
<tspan x="440" y="530">tax:anamorph (283) [*] D</tspan>
<tspan x="440" y="545">tax:authority (4.3e5) [*] D</tspan>
<tspan x="440" y="560">tax:blastName (239) [1] D</tspan>
<tspan x="440" y="575">tax:commonName (1.4e4) [*] D</tspan>
<tspan x="440" y="590">tax:equivalentName (2.6e4) [*] D</tspan>
<tspan x="440" y="605">tax:genbankAcronym (479) [1] D</tspan>
<tspan x="440" y="620">tax:genbankAnamorph (1) [1] D</tspan>
<tspan x="440" y="635">tax:genbankCommonName (2.9e4) [1] D</tspan>
<tspan x="440" y="650">tax:genbankSynonym (1106) [1] D</tspan>
<tspan x="440" y="665">tax:inPart (523) [*] D</tspan>
<tspan x="440" y="680">tax:includes (4.4e4) [*] D</tspan>
<tspan x="440" y="695">tax:merged (5.2e4) [*] D -&gt; IRI</tspan>
<tspan x="440" y="710">tax:scientificName (2.0e6) [1] D</tspan>
<tspan x="440" y="725">tax:synonym (1.8e5) [*] D</tspan>
<tspan x="440" y="740">tax:teleomorph (176) [*] D</tspan>
<tspan x="440" y="755">tax:typeMaterial (1.3e5) [*] D</tspan>
<tspan x="440" y="770">tax:uniqueName (1.4e5) [*] D</tspan>
<tspan x="440" y="785">&lt;&gt; rdfs:subClassOf  </tspan>
</text>
</g>
<g id="2002796648"><polygon points="366,41 782,41 782,93 366,93 "
style="fill:none; stroke-width:1;stroke:Black;"/>
<text style="font-family:Arial;font-size:18px;kerning:0;word-spacing:-1px;fill:Black;font-weight:bold;">
<tspan x="490" y="61">Genome Microbedb</tspan>
<tspan x="430" y="83">http://genome.microbedb.jp/sparql</tspan>
</text>
</g>
<g id="2002715629"><path d="M591,410 L591,352 "
style="fill:none;stroke-width:1;stroke:Black;"/>
<line x1="588" y1="358" x2="591" y2="352"
 style="stroke-width:1;stroke:Black;"/>
<line x1="594" y1="358" x2="591" y2="352"
 style="stroke-width:1;stroke:Black;"/>
<text style="font-family:Arial;font-size:12px;kerning:0;word-spacing:-1px;fill:Black;">
<tspan x="465" y="391">tax:geneticCode  D</tspan>
<tspan x="465" y="406">tax:geneticCodeMt  DR</tspan>
</text>
</g>
<g id="2002715634"><path d="M311,518 L436,518 "
style="fill:none;stroke-width:1;stroke:Black;"/>
<line x1="430" y1="515" x2="436" y2="518"
 style="stroke-width:1;stroke:Black;"/>
<line x1="430" y1="521" x2="436" y2="518"
 style="stroke-width:1;stroke:Black;"/>
<text style="font-family:Arial;font-size:12px;kerning:0;word-spacing:-1px;fill:Black;">
<tspan x="315" y="516">assembly:taxon  D</tspan>
</text>
</g>
<g id="2002715639"><path d="M588,794 L588,869 "
style="fill:none;stroke-width:1;stroke:Black;"/>
<line x1="585" y1="863" x2="588" y2="869"
 style="stroke-width:1;stroke:Black;"/>
<line x1="591" y1="863" x2="588" y2="869"
 style="stroke-width:1;stroke:Black;"/>
<text style="font-family:Arial;font-size:12px;kerning:0;word-spacing:-1px;fill:Black;">
<tspan x="590" y="809">tax:rank  D</tspan>
</text>
</g>
<g id="2002715644"><path d="M840,692 L736,692 "
style="fill:none;stroke-width:1;stroke:Black;"/>
<line x1="742" y1="689" x2="736" y2="692"
 style="stroke-width:1;stroke:Black;"/>
<line x1="742" y1="695" x2="736" y2="692"
 style="stroke-width:1;stroke:Black;"/>
<text style="font-family:Arial;font-size:12px;kerning:0;word-spacing:-1px;fill:Black;">
<tspan x="740" y="705">rdfs:subClassOf  </tspan>
</text>
</g>
<g id="2002715649"><path d="M998,758 L998,722 "
style="fill:none;stroke-width:1;stroke:Black;"/>
<line x1="995" y1="728" x2="998" y2="722"
 style="stroke-width:1;stroke:Black;"/>
<line x1="1001" y1="728" x2="998" y2="722"
 style="stroke-width:1;stroke:Black;"/>
<text style="font-family:Arial;font-size:12px;kerning:0;word-spacing:-1px;fill:Black;">
<tspan x="915" y="739">rdfs:domain  R</tspan>
<tspan x="915" y="754">rdfs:range  </tspan>
</text>
</g>
<g id="2002715654"><path d="M998,549 L998,627 "
style="fill:none;stroke-width:1;stroke:Black;"/>
<line x1="995" y1="621" x2="998" y2="627"
 style="stroke-width:1;stroke:Black;"/>
<line x1="1001" y1="621" x2="998" y2="627"
 style="stroke-width:1;stroke:Black;"/>
<text style="font-family:Arial;font-size:12px;kerning:0;word-spacing:-1px;fill:Black;">
<tspan x="1000" y="564">rdfs:domain  R</tspan>
<tspan x="1000" y="579">rdfs:range  </tspan>
</text>
</g>
<g id="2002715659"><path d="M736,651 L840,651 "
style="fill:none;stroke-width:1;stroke:Black;"/>
<line x1="834" y1="648" x2="840" y2="651"
 style="stroke-width:1;stroke:Black;"/>
<line x1="834" y1="654" x2="840" y2="651"
 style="stroke-width:1;stroke:Black;"/>
<text style="font-family:Arial;font-size:12px;kerning:0;word-spacing:-1px;fill:Black;">
<tspan x="740" y="649">rdfs:subClassOf  </tspan>
</text>
</g>
<g id="2002715664"><path d="M666,919 L666,938 "
style="fill:none;stroke-width:2;stroke:Fuchsia;"/>
<polygon points="671,929 666,919 661,929 "
style="fill:Silver;stroke-width:1;stroke:Black;"/>
<text style="font-family:Arial;font-size:12px;kerning:0;word-spacing:-1px;fill:Black;">
<tspan x="668" y="934"> </tspan>
</text>
</g>
<g id="2002715666"><path d="M494,919 L494,973 "
style="fill:none;stroke-width:2;stroke:Fuchsia;"/>
<polygon points="499,929 494,919 489,929 "
style="fill:Silver;stroke-width:1;stroke:Black;"/>
<text style="font-family:Arial;font-size:12px;kerning:0;word-spacing:-1px;fill:Black;">
<tspan x="496" y="934"> </tspan>
</text>
</g>
<g id="2002715668"><path d="M182,973 L182,946 "
style="fill:none;stroke-width:2;stroke:Fuchsia;"/>
<polygon points="187,963 182,973 177,963 "
style="fill:Silver;stroke-width:1;stroke:Black;"/>
<text style="font-family:Arial;font-size:12px;kerning:0;word-spacing:-1px;fill:Black;">
<tspan x="170" y="969"> </tspan>
</text>
</g>
</svg>
