<?xml version="1.0" encoding="UTF-8" standalone="no"?>
<!DOCTYPE svg PUBLIC "-//W3C//DTD SVG 1.1//EN"
"http://www.w3.org/Graphics/SVG/1.1/DTD/svg11.dtd">
<svg version="1.1" xmlns="http://www.w3.org/2000/svg"
xmlns:xlink="http://www.w3.org/1999/xlink" xml:space="preserve"
 width="1587" height="1404" viewBox="0 0 1587 1404">
 onmousemove="movetip(evt)" onmouseup="endmove()">
<rect x="0" y="0" width="100%" height="100%" style="fill:White;"/>
<script type="application/ecmascript"> <![CDATA[
var dragtipid = null; var dragcase = false; function init(evt){
if (window.svgDocument==null) svgDocument = evt.target.ownerDocument;
}
function movetip(evt){if (dragtipid!=null){ dragcase = true;
var tip=svgDocument.getElementById(dragtipid);
tip.setAttributeNS(null,"x",evt.clientX-2);
tip.setAttributeNS(null,"y",evt.clientY-2);
}}
function endmove(){dragtipid = null;}
function startmove(evt,id){dragtipid = id; dragcase = false;
var tip=svgDocument.getElementById(dragtipid);
tip.setAttributeNS(null,"x",evt.clientX-2);
tip.setAttributeNS(null,"y",evt.clientY-2);
}
function Showtip(evt,id){ dragtipid = null;
var tip=svgDocument.getElementById(id);
var vis=tip.getAttributeNS(null,"visibility");
if (vis=="hidden"){
tip.setAttributeNS(null,"x",evt.clientX-2);
tip.setAttributeNS(null,"y",evt.clientY-2);
tip.setAttributeNS(null,"visibility","visible");
}}
function Hidetip(id){ dragtipid = null; if (dragcase==false){
var tip=svgDocument.getElementById(id);
tip.setAttributeNS(null,"visibility","hidden");
}}
]]></script>
<defs><linearGradient id="activ1" x1="0%" y1="0%" x2="100%" y2="0%">
<stop offset="0%" style="stop-color:#FFFF00;stop-opacity:1"/>
<stop offset="100%" style="stop-color:#FFFFF0;stop-opacity:1"/>
</linearGradient></defs>
<g id="2002786349"><polygon points="1080,1319 1320,1319 1320,1384 1080,1384 "
style="fill:#F4D03F; stroke-width:1;stroke:Black;"/>
<polygon points="1077,1322 1317,1322 1317,1387 1077,1387 "
style="fill:#F4D03F; stroke-width:1;stroke:Black;"/>
<text style="font-family:Arial;font-size:12px;kerning:0;word-spacing:-1px;fill:Black;font-weight:bold;">
<tspan x="1089" y="1337">sd:Feature or sd:Language G105 (~8)</tspan>
</text>
<line x1="1081" y1="1340" x2="1315" y2="1340"
 style="stroke-width:1;stroke:Black;"/>
<text style="font-family:Arial;font-size:12px;kerning:0;word-spacing:-1px;fill:Black;">
<tspan x="1081" y="1352">rdf:type (3 -67%d) [*]  -&gt;  owl:Class</tspan>
</text>
<text style="font-family:Arial;font-size:11px;kerning:0;word-spacing:-1px;fill:Black;font-weight:bold;">
<tspan x="1081" y="1367">sd:Feature (5)</tspan>
<tspan x="1081" y="1382">sd:Language (3)</tspan>
</text>
</g>
<g id="2002786360"><polygon points="1020,532 1282,532 1282,597 1020,597 "
style="fill:#F4D03F; stroke-width:1;stroke:Black;"/>
<text style="font-family:Arial;font-size:12px;kerning:0;word-spacing:-1px;fill:Black;font-weight:bold;">
<tspan x="1038" y="547">gr:ActualProductOrServicesInstance (1)</tspan>
</text>
<line x1="1024" y1="550" x2="1280" y2="550"
 style="stroke-width:1;stroke:Black;"/>
<text style="font-family:Arial;font-size:12px;kerning:0;word-spacing:-1px;fill:Black;">
<tspan x="1024" y="562">rdf:type (2) [*]  -&gt;  owl:Class</tspan>
<tspan x="1024" y="577">rdfs:comment (1) [*] </tspan>
<tspan x="1024" y="592">rdfs:label (1) [1] </tspan>
</text>
</g>
<g id="2002786371"><polygon points="64,918 364,918 364,984 64,984 "
style="fill:#F4D03F; stroke-width:1;stroke:Black;"/>
<text style="font-family:Arial;font-size:12px;kerning:0;word-spacing:-1px;fill:Black;font-weight:bold;">
<tspan x="72" y="933">gr:ProductOrServicesSomeInstancesPlaceholder </tspan>
<tspan x="207" y="949">(3)</tspan>
</text>
<line x1="68" y1="952" x2="362" y2="952"
 style="stroke-width:1;stroke:Black;"/>
<text style="font-family:Arial;font-size:12px;kerning:0;word-spacing:-1px;fill:Black;">
<tspan x="68" y="964">rdf:type (6) [*]  -&gt;  owl:Class</tspan>
<tspan x="68" y="979">rdfs:comment (3) [*] </tspan>
</text>
</g>
<g id="2002786382"><polygon points="739,1240 934,1240 934,1285 739,1285 "
style="fill:#F4D03F; stroke-width:1;stroke:Black;"/>
<text style="font-family:Arial;font-size:12px;kerning:0;word-spacing:-1px;fill:Black;font-weight:bold;">
<tspan x="760" y="1255">colil:RelevantPaper (8.9e6)</tspan>
</text>
</g>
<g id="2002786393"><polygon points="1027,1001 1299,1001 1299,1141 1027,1141 "
style="fill:#F4D03F; stroke-width:1;stroke:Black;"/>
<text style="font-family:Arial;font-size:12px;kerning:0;word-spacing:-1px;fill:Black;font-weight:bold;">
<tspan x="1104" y="1016">colil:PubMed (1.6e7)</tspan>
</text>
<line x1="1031" y1="1019" x2="1297" y2="1019"
 style="stroke-width:1;stroke:Black;"/>
<text style="font-family:Arial;font-size:12px;kerning:0;word-spacing:-1px;fill:Black;">
<tspan x="1031" y="1031">colil:Authors (1.6e7) [1] D</tspan>
<tspan x="1031" y="1046">rdf:type (1.6e7) [*]  -&gt;  owl:Class</tspan>
<tspan x="1031" y="1061">togows:dp (1.6e7) [1] D</tspan>
<tspan x="1031" y="1076">togows:pmid (1.6e7) [1] D</tspan>
<tspan x="1031" y="1091">togows:so (1.6e7) [1] D</tspan>
<tspan x="1031" y="1106">togows:ti (1.6e7) [1] D</tspan>
<tspan x="1031" y="1121">&lt;-rdfs:seeAlso (1.6e7)  &lt;-  unibw:C_AKE112003-</tspan>
<tspan x="1031" y="1136">tax,gr:Offering..(8)</tspan>
</text>
</g>
<g id="2002786404"><polygon points="456,838 793,838 793,979 456,979 "
style="fill:#F4D03F; stroke-width:1;stroke:Black;"/>
<polygon points="453,841 790,841 790,982 453,982 "
style="fill:#F4D03F; stroke-width:1;stroke:Black;"/>
<text style="font-family:Arial;font-size:12px;kerning:0;word-spacing:-1px;fill:Black;font-weight:bold;">
<tspan x="457" y="856">owl:InverseFunctionalProperty or owl:SymmetricProperty </tspan>
<tspan x="593" y="872">G108 (~7)</tspan>
</text>
<line x1="457" y1="875" x2="788" y2="875"
 style="stroke-width:1;stroke:Black;"/>
<text style="font-family:Arial;font-size:12px;kerning:0;word-spacing:-1px;fill:Black;">
<tspan x="457" y="887">rdf:type (11 55%d) [*]  -&gt;  owl:Class</tspan>
<tspan x="457" y="902">rdfs:label (4) [1] </tspan>
<tspan x="457" y="917">rdfs:range ( -Infinity%d) [*]  -&gt;  gr:PriceSpecification,gr:</tspan>
<tspan x="457" y="932">ProductOrServiceSomeInstancePlaceholder,owl:Class</tspan>
</text>
<text style="font-family:Arial;font-size:11px;kerning:0;word-spacing:-1px;fill:Black;font-weight:bold;">
<tspan x="457" y="947">owl:InverseFunctionalProperty (5)</tspan>
<tspan x="457" y="962">owl:SymmetricProperty (2)</tspan>
</text>
</g>
<g id="2002786415"><polygon points="49,256 349,256 349,411 49,411 "
style="fill:#F4D03F; stroke-width:1;stroke:Black;"/>
<text style="font-family:Arial;font-size:12px;kerning:0;word-spacing:-1px;fill:Black;font-weight:bold;">
<tspan x="139" y="271">gr:BusinessEntity (1)</tspan>
</text>
<line x1="53" y1="274" x2="347" y2="274"
 style="stroke-width:1;stroke:Black;"/>
<text style="font-family:Arial;font-size:12px;kerning:0;word-spacing:-1px;fill:Black;">
<tspan x="53" y="286">foaf:homepage (1) [1] D -&gt; IRI</tspan>
<tspan x="53" y="301">foaf:logo (1) [1] D -&gt; IRI</tspan>
<tspan x="53" y="316">foaf:maker (1) [1] D -&gt; IRI</tspan>
<tspan x="53" y="331">gr:legalName (1) [1] D</tspan>
<tspan x="53" y="346">owl:sameAs (2) [*] D -&gt; IRI</tspan>
<tspan x="53" y="361">rdf:type (1) [*]  -&gt;  owl:Class</tspan>
<tspan x="53" y="376">rdfs:isDefinedBy (1) [*]  -&gt;  owl:Ontology</tspan>
<tspan x="53" y="391">rdfs:seeAlso (3) [*]  -&gt;  colil:PubMed</tspan>
<tspan x="53" y="406">vcard-rdf:ADR (2) [*]  -&gt; IRI</tspan>
</text>
</g>
<g id="2002786426"><polygon points="803,468 1103,468 1103,513 803,513 "
style="fill:#F4D03F; stroke-width:1;stroke:Black;"/>
<text style="font-family:Arial;font-size:12px;kerning:0;word-spacing:-1px;fill:Black;font-weight:bold;">
<tspan x="908" y="483">rdfs:Class (104)</tspan>
</text>
</g>
<g id="2002786437"><polygon points="1217,143 1517,143 1517,358 1217,358 "
style="fill:#F4D03F; stroke-width:1;stroke:Black;"/>
<text style="font-family:Arial;font-size:12px;kerning:0;word-spacing:-1px;fill:Black;font-weight:bold;">
<tspan x="1321" y="158">owl:Ontology (7)</tspan>
</text>
<line x1="1221" y1="161" x2="1515" y2="161"
 style="stroke-width:1;stroke:Black;"/>
<text style="font-family:Arial;font-size:12px;kerning:0;word-spacing:-1px;fill:Black;">
<tspan x="1221" y="173">dc:publisher (4) [1] D</tspan>
<tspan x="1221" y="188">dc:title (1) [1] </tspan>
<tspan x="1221" y="203">owl:imports (7) [*] D -&gt; IRI</tspan>
<tspan x="1221" y="218">owl:priorVersion (1 -100%d) [1] D -&gt; IRI</tspan>
<tspan x="1221" y="233">owl:versionInfo (2) [*] D</tspan>
<tspan x="1221" y="248">rdf:type (4) [*]  -&gt;  owl:Class</tspan>
<tspan x="1221" y="263">rdfs:comment (4) [*] </tspan>
<tspan x="1221" y="278">rdfs:isDefinedBy (12) [*]  -&gt;  owl:Ontology</tspan>
<tspan x="1221" y="293">rdfs:label (1) [1] </tspan>
<tspan x="1221" y="308">rdfs:seeAlso (5) [*]  -&gt;  colil:PubMed</tspan>
<tspan x="1221" y="323">&lt;-rdfs:isDefinedBy (1)  &lt;-  gr:</tspan>
<tspan x="1221" y="338">LocationOfSalesOrServiceProvisioning,owl:Class..</tspan>
<tspan x="1221" y="353">(10)</tspan>
</text>
</g>
<g id="2002786448"><polygon points="524,1026 708,1026 708,1076 524,1076 "
style="fill:#F4D03F; stroke-width:1;stroke:Black;"/>
<text style="font-family:Arial;font-size:12px;kerning:0;word-spacing:-1px;fill:Black;font-weight:bold;">
<tspan x="559" y="1041">colil:Context (1.6e8)</tspan>
</text>
<line x1="528" y1="1044" x2="706" y2="1044"
 style="stroke-width:1;stroke:Black;"/>
<text style="font-family:Arial;font-size:12px;kerning:0;word-spacing:-1px;fill:Black;">
<tspan x="528" y="1056">rdf:type (1.6e8) [*]  -&gt;  owl:Class</tspan>
<tspan x="528" y="1071">rdf:value (1.6e8) [1] </tspan>
</text>
</g>
<g id="2002786459"><polygon points="1323,1068 1541,1068 1541,1118 1323,1118 "
style="fill:#F4D03F; stroke-width:1;stroke:Black;"/>
<text style="font-family:Arial;font-size:12px;kerning:0;word-spacing:-1px;fill:Black;font-weight:bold;">
<tspan x="1404" y="1083">rdf:List (1)</tspan>
</text>
<line x1="1327" y1="1086" x2="1539" y2="1086"
 style="stroke-width:1;stroke:Black;"/>
<text style="font-family:Arial;font-size:12px;kerning:0;word-spacing:-1px;fill:Black;">
<tspan x="1327" y="1098">rdf:type (1) [*]  -&gt;  owl:Class</tspan>
<tspan x="1327" y="1113">rdfs:isDefinedBy () [*]  -&gt;  owl:Ontology</tspan>
</text>
</g>
<g id="2002786470"><polygon points="1400,1130 1577,1130 1577,1195 1400,1195 "
style="fill:#F4D03F; stroke-width:1;stroke:Black;"/>
<text style="font-family:Arial;font-size:12px;kerning:0;word-spacing:-1px;fill:Black;font-weight:bold;">
<tspan x="1421" y="1145">owl:NamedIndividual (4)</tspan>
</text>
<line x1="1404" y1="1148" x2="1575" y2="1148"
 style="stroke-width:1;stroke:Black;"/>
<text style="font-family:Arial;font-size:12px;kerning:0;word-spacing:-1px;fill:Black;">
<tspan x="1404" y="1160">dc:creator (12) [*] D</tspan>
<tspan x="1404" y="1175">dc:title (1) [1] </tspan>
<tspan x="1404" y="1190">rdf:type (3) [*]  -&gt;  owl:Class</tspan>
</text>
</g>
<g id="2002786481"><polygon points="48,652 280,652 280,764 48,764 "
style="fill:#F4D03F; stroke-width:1;stroke:Black;"/>
<text style="font-family:Arial;font-size:12px;kerning:0;word-spacing:-1px;fill:Black;font-weight:bold;">
<tspan x="157" y="667">gr:</tspan>
<tspan x="53" y="683">LocationOfSalesOrServiceProvisioning </tspan>
<tspan x="157" y="699">(1)</tspan>
</text>
<line x1="52" y1="702" x2="278" y2="702"
 style="stroke-width:1;stroke:Black;"/>
<text style="font-family:Arial;font-size:12px;kerning:0;word-spacing:-1px;fill:Black;">
<tspan x="52" y="714">rdf:type (1) [*]  -&gt;  owl:Class</tspan>
<tspan x="52" y="729">rdfs:isDefinedBy (1) [*]  -&gt;  owl:Ontology</tspan>
<tspan x="52" y="744">rdfs:label (1) [1] </tspan>
<tspan x="52" y="759">vcard-rdf:ADR (2) [*]  -&gt; IRI</tspan>
</text>
</g>
<g id="2002786492"><polygon points="146,814 381,814 381,894 146,894 "
style="fill:#F4D03F; stroke-width:1;stroke:Black;"/>
<text style="font-family:Arial;font-size:12px;kerning:0;word-spacing:-1px;fill:Black;font-weight:bold;">
<tspan x="182" y="829">gr:TypeAndQuantityNode (3)</tspan>
</text>
<line x1="150" y1="832" x2="379" y2="832"
 style="stroke-width:1;stroke:Black;"/>
<text style="font-family:Arial;font-size:12px;kerning:0;word-spacing:-1px;fill:Black;">
<tspan x="150" y="844">gr:amountOfThisGood (3) [1] D</tspan>
<tspan x="150" y="859">gr:hasUnitOfMeasurement (3) [1] D</tspan>
<tspan x="150" y="874">rdf:type (3) [*]  -&gt;  owl:Class</tspan>
<tspan x="150" y="889">rdfs:comment (3) [*] </tspan>
</text>
</g>
<g id="2002786503"><polygon points="492,1136 701,1136 701,1186 492,1186 "
style="fill:#F4D03F; stroke-width:1;stroke:Black;"/>
<text style="font-family:Arial;font-size:12px;kerning:0;word-spacing:-1px;fill:Black;font-weight:bold;">
<tspan x="537" y="1151">doco:Section (1.1e7)</tspan>
</text>
<line x1="496" y1="1154" x2="699" y2="1154"
 style="stroke-width:1;stroke:Black;"/>
<text style="font-family:Arial;font-size:12px;kerning:0;word-spacing:-1px;fill:Black;">
<tspan x="496" y="1166">dc:title (1.1e7) [1] </tspan>
<tspan x="496" y="1181">rdf:type (1.1e7) [*]  -&gt;  owl:Class</tspan>
</text>
</g>
<g id="2002786514"><polygon points="1071,1179 1325,1179 1325,1274 1071,1274 "
style="fill:#F4D03F; stroke-width:1;stroke:Black;"/>
<polygon points="1068,1182 1322,1182 1322,1277 1068,1277 "
style="fill:#F4D03F; stroke-width:1;stroke:Black;"/>
<text style="font-family:Arial;font-size:12px;kerning:0;word-spacing:-1px;fill:Black;font-weight:bold;">
<tspan x="1097" y="1197">vcard-rdf:internet et al. G104 (~12)</tspan>
</text>
<line x1="1072" y1="1200" x2="1320" y2="1200"
 style="stroke-width:1;stroke:Black;"/>
<text style="font-family:Arial;font-size:12px;kerning:0;word-spacing:-1px;fill:Black;">
<tspan x="1072" y="1212">rdf:type (12) [*]  -&gt;  owl:Class</tspan>
<tspan x="1072" y="1227">rdf:value (8) [1] </tspan>
</text>
<text style="font-family:Arial;font-size:11px;kerning:0;word-spacing:-1px;fill:Black;font-weight:bold;">
<tspan x="1072" y="1242">vcard-rdf:internet (4)</tspan>
<tspan x="1072" y="1257">vcard-rdf:voice (4)</tspan>
<tspan x="1072" y="1272">vcard-rdf:work (4)</tspan>
</text>
</g>
<g id="2002786525"><polygon points="714,646 1014,646 1014,756 714,756 "
style="fill:#F4D03F; stroke-width:1;stroke:Black;"/>
<text style="font-family:Arial;font-size:12px;kerning:0;word-spacing:-1px;fill:Black;font-weight:bold;">
<tspan x="796" y="661">gr:PriceSpecification (1)</tspan>
</text>
<line x1="718" y1="664" x2="1012" y2="664"
 style="stroke-width:1;stroke:Black;"/>
<text style="font-family:Arial;font-size:12px;kerning:0;word-spacing:-1px;fill:Black;">
<tspan x="718" y="676">rdf:type (2) [*]  -&gt;  owl:Class</tspan>
<tspan x="718" y="691">rdfs:comment (1) [*] </tspan>
<tspan x="718" y="706">rdfs:label (1) [1] </tspan>
<tspan x="718" y="721">&lt;-rdfs:range (2)  &lt;-  rdf:Property et al.,owl:</tspan>
<tspan x="718" y="736">InverseFunctionalProperty or owl:SymmetricProperty..</tspan>
<tspan x="718" y="751">(4)</tspan>
</text>
</g>
<g id="2002786536"><polygon points="973,231 1191,231 1191,311 973,311 "
style="fill:#F4D03F; stroke-width:1;stroke:Black;"/>
<text style="font-family:Arial;font-size:12px;kerning:0;word-spacing:-1px;fill:Black;font-weight:bold;">
<tspan x="1027" y="246">owl:Restriction (30)</tspan>
</text>
<line x1="977" y1="249" x2="1189" y2="249"
 style="stroke-width:1;stroke:Black;"/>
<text style="font-family:Arial;font-size:12px;kerning:0;word-spacing:-1px;fill:Black;">
<tspan x="977" y="261">owl:maxCardinality (9) [1] D</tspan>
<tspan x="977" y="276">owl:onDataRange (2 50%d) [1] D -&gt; IRI</tspan>
<tspan x="977" y="291">owl:qualifiedCardinality (6) [1] D</tspan>
<tspan x="977" y="306">rdf:type (30 50%d) [*]  -&gt;  owl:Class</tspan>
</text>
</g>
<g id="2002786547"><polygon points="529,196 829,196 829,366 529,366 "
style="fill:#F4D03F; stroke-width:1;stroke:Black;"/>
<text style="font-family:Arial;font-size:12px;kerning:0;word-spacing:-1px;fill:Black;font-weight:bold;">
<tspan x="639" y="211">owl:Class (24)</tspan>
</text>
<line x1="533" y1="214" x2="827" y2="214"
 style="stroke-width:1;stroke:Black;"/>
<text style="font-family:Arial;font-size:12px;kerning:0;word-spacing:-1px;fill:Black;">
<tspan x="533" y="226">owl:unionOf (10 50%d) [*] D -&gt; IRI</tspan>
<tspan x="533" y="241">rdf:type (13) [*]  -&gt;  owl:Class</tspan>
<tspan x="533" y="256">rdfs:isDefinedBy () [*]  -&gt;  owl:Ontology</tspan>
<tspan x="533" y="271">rdfs:label (8) [1] </tspan>
<tspan x="533" y="286">&lt;-rdf:type (7.2e8)  &lt;-  gr:</tspan>
<tspan x="533" y="301">LocationOfSalesOrServiceProvisioning,gr:</tspan>
<tspan x="533" y="316">ProductOrServicesSomeInstancesPlaceholder..(29)</tspan>
<tspan x="533" y="331">&lt;-rdfs:range (32)  &lt;-  rdf:Property et al.,owl:</tspan>
<tspan x="533" y="346">InverseFunctionalProperty or owl:SymmetricProperty..</tspan>
<tspan x="533" y="361">(4)</tspan>
</text>
</g>
<g id="2002786558"><polygon points="355,1268 596,1268 596,1348 355,1348 "
style="fill:#F4D03F; stroke-width:1;stroke:Black;"/>
<text style="font-family:Arial;font-size:12px;kerning:0;word-spacing:-1px;fill:Black;font-weight:bold;">
<tspan x="401" y="1283">colil:CitationPaper (3.4e6)</tspan>
</text>
<line x1="359" y1="1286" x2="594" y2="1286"
 style="stroke-width:1;stroke:Black;"/>
<text style="font-family:Arial;font-size:12px;kerning:0;word-spacing:-1px;fill:Black;">
<tspan x="359" y="1298">bibo:doi (3.3e6) [1] </tspan>
<tspan x="359" y="1313">colil:pmcid (3.4e6) [1] </tspan>
<tspan x="359" y="1328">rdf:type (7.1e6) [*]  -&gt;  owl:Class</tspan>
<tspan x="359" y="1343">rdfs:seeAlso (1.3e7) [*]  -&gt;  colil:PubMed</tspan>
</text>
</g>
<g id="2002786569"><polygon points="1149,613 1512,613 1512,828 1149,828 "
style="fill:#F4D03F; stroke-width:1;stroke:Black;"/>
<polygon points="1146,616 1509,616 1509,831 1146,831 "
style="fill:#F4D03F; stroke-width:1;stroke:Black;"/>
<text style="font-family:Arial;font-size:12px;kerning:0;word-spacing:-1px;fill:Black;font-weight:bold;">
<tspan x="1240" y="631">rdf:Property et al. G106 (~274)</tspan>
</text>
<line x1="1150" y1="634" x2="1507" y2="634"
 style="stroke-width:1;stroke:Black;"/>
<text style="font-family:Arial;font-size:12px;kerning:0;word-spacing:-1px;fill:Black;">
<tspan x="1150" y="646">rdf:type (310 35%d) [*]  -&gt;  owl:Class</tspan>
<tspan x="1150" y="661">rdfs:comment (104) [*] </tspan>
<tspan x="1150" y="676">rdfs:isDefinedBy (6 -1317%d) [*]  -&gt;  owl:Ontology</tspan>
<tspan x="1150" y="691">rdfs:label (181) [1] </tspan>
<tspan x="1150" y="706">rdfs:range (324 7%d) [*]  -&gt;  gr:PriceSpecification,gr:</tspan>
<tspan x="1150" y="721">ProductOrServiceSomeInstancePlaceholder,owl:Class</tspan>
<tspan x="1150" y="736">rdfs:seeAlso (2) [*]  -&gt;  colil:PubMed</tspan>
<tspan x="1150" y="751">rdfs:type (2) [1] D -&gt; IRI</tspan>
</text>
<text style="font-family:Arial;font-size:11px;kerning:0;word-spacing:-1px;fill:Black;font-weight:bold;">
<tspan x="1150" y="766">owl:DatatypeProperty (8)</tspan>
<tspan x="1150" y="781">owl:ObjectProperty (10)</tspan>
<tspan x="1150" y="796">owl:OntologyProperty (9)</tspan>
<tspan x="1150" y="811">rdf:Property (247)</tspan>
</text>
</g>
<g id="2002786580"><polygon points="58,1058 280,1058 280,1103 58,1103 "
style="fill:#F4D03F; stroke-width:1;stroke:Black;"/>
<text style="font-family:Arial;font-size:12px;kerning:0;word-spacing:-1px;fill:Black;font-weight:bold;">
<tspan x="88" y="1073">unibw:C_AKE112003-tax (1)</tspan>
</text>
<line x1="62" y1="1076" x2="278" y2="1076"
 style="stroke-width:1;stroke:Black;"/>
<text style="font-family:Arial;font-size:12px;kerning:0;word-spacing:-1px;fill:Black;">
<tspan x="62" y="1088">rdfs:seeAlso (1) [*]  -&gt;  colil:PubMed</tspan>
</text>
</g>
<g id="2002786591"><polygon points="73,1106 373,1106 373,1172 73,1172 "
style="fill:#F4D03F; stroke-width:1;stroke:Black;"/>
<polygon points="70,1109 370,1109 370,1175 70,1175 "
style="fill:#F4D03F; stroke-width:1;stroke:Black;"/>
<text style="font-family:Arial;font-size:12px;kerning:0;word-spacing:-1px;fill:Black;font-weight:bold;">
<tspan x="78" y="1124">unibw:C_AAB316003-tax or unibw:C_AKJ315005-</tspan>
<tspan x="181" y="1140">tax G102 (~2)</tspan>
</text>
<text style="font-family:Arial;font-size:11px;kerning:0;word-spacing:-1px;fill:Black;font-weight:bold;">
<tspan x="74" y="1155">unibw:C_AAB316003-tax (1)</tspan>
<tspan x="74" y="1170">unibw:C_AKJ315005-tax (1)</tspan>
</text>
</g>
<g id="2002786602"><polygon points="400,708 700,708 700,818 400,818 "
style="fill:#F4D03F; stroke-width:1;stroke:Black;"/>
<text style="font-family:Arial;font-size:12px;kerning:0;word-spacing:-1px;fill:Black;font-weight:bold;">
<tspan x="408" y="723">gr:ProductOrServiceSomeInstancePlaceholder (1)</tspan>
</text>
<line x1="404" y1="726" x2="698" y2="726"
 style="stroke-width:1;stroke:Black;"/>
<text style="font-family:Arial;font-size:12px;kerning:0;word-spacing:-1px;fill:Black;">
<tspan x="404" y="738">rdf:type (2) [*]  -&gt;  owl:Class</tspan>
<tspan x="404" y="753">rdfs:comment (1) [*] </tspan>
<tspan x="404" y="768">rdfs:label (1) [1] </tspan>
<tspan x="404" y="783">&lt;-rdfs:range (1)  &lt;-  rdf:Property et al.,owl:</tspan>
<tspan x="404" y="798">InverseFunctionalProperty or owl:SymmetricProperty..</tspan>
<tspan x="404" y="813">(4)</tspan>
</text>
</g>
<g id="2002786613"><polygon points="1360,1249 1547,1249 1547,1389 1360,1389 "
style="fill:#F4D03F; stroke-width:1;stroke:Black;"/>
<text style="font-family:Arial;font-size:12px;kerning:0;word-spacing:-1px;fill:Black;font-weight:bold;">
<tspan x="1429" y="1264">vspx: (1)</tspan>
</text>
<line x1="1364" y1="1267" x2="1545" y2="1267"
 style="stroke-width:1;stroke:Black;"/>
<text style="font-family:Arial;font-size:12px;kerning:0;word-spacing:-1px;fill:Black;">
<tspan x="1364" y="1279">dav:ownerUser (1) [1]  -&gt; IRI</tspan>
<tspan x="1364" y="1294">dct:created (1) [1] </tspan>
<tspan x="1364" y="1309">dct:extent (1) [1] </tspan>
<tspan x="1364" y="1324">dct:modified (1) [1] </tspan>
<tspan x="1364" y="1339">rdf:type (1) [*]  -&gt;  owl:Class</tspan>
<tspan x="1364" y="1354">vspx:pageId (1) [1] D</tspan>
<tspan x="1364" y="1369">vspx:title (1) [1] D</tspan>
<tspan x="1364" y="1384">vspx:type (1) [1] D</tspan>
</text>
</g>
<g id="2002786624"><polygon points="703,1344 1003,1344 1003,1394 703,1394 "
style="fill:#F4D03F; stroke-width:1;stroke:Black;"/>
<text style="font-family:Arial;font-size:12px;kerning:0;word-spacing:-1px;fill:Black;font-weight:bold;">
<tspan x="729" y="1359">colil:RelevantBibliographicResource (5.1e8)</tspan>
</text>
<line x1="707" y1="1362" x2="1001" y2="1362"
 style="stroke-width:1;stroke:Black;"/>
<text style="font-family:Arial;font-size:12px;kerning:0;word-spacing:-1px;fill:Black;">
<tspan x="707" y="1374">colil:RelevantScore (5.1e8) [1] D</tspan>
<tspan x="707" y="1389">rdf:type (5.1e8) [*]  -&gt;  owl:Class</tspan>
</text>
</g>
<g id="2002786635"><polygon points="211,451 511,451 511,636 211,636 "
style="fill:#F4D03F; stroke-width:1;stroke:Black;"/>
<text style="font-family:Arial;font-size:12px;kerning:0;word-spacing:-1px;fill:Black;font-weight:bold;">
<tspan x="323" y="466">gr:Offering (3)</tspan>
</text>
<line x1="215" y1="469" x2="509" y2="469"
 style="stroke-width:1;stroke:Black;"/>
<text style="font-family:Arial;font-size:12px;kerning:0;word-spacing:-1px;fill:Black;">
<tspan x="215" y="481">gr:acceptedPaymentMethods (18) [*] D -&gt; IRI</tspan>
<tspan x="215" y="496">gr:availableDeliveryMethods (3) [1] D -&gt; IRI</tspan>
<tspan x="215" y="511">gr:eligibleCustomerTypes (9) [*] D -&gt; IRI</tspan>
<tspan x="215" y="526">gr:eligibleRegions (738) [*] D</tspan>
<tspan x="215" y="541">gr:hasBusinessFunction (6) [*] D -&gt; IRI</tspan>
<tspan x="215" y="556">gr:validFrom (3) [1] D</tspan>
<tspan x="215" y="571">gr:validThrough (3) [1] D</tspan>
<tspan x="215" y="586">rdf:type (3) [*]  -&gt;  owl:Class</tspan>
<tspan x="215" y="601">rdfs:comment (3) [*] </tspan>
<tspan x="215" y="616">rdfs:isDefinedBy (3) [*]  -&gt;  owl:Ontology</tspan>
<tspan x="215" y="631">rdfs:seeAlso (1) [*]  -&gt;  colil:PubMed</tspan>
</text>
</g>
<g id="2002786646"><polygon points="977,834 1277,834 1277,975 977,975 "
style="fill:#F4D03F; stroke-width:1;stroke:Black;"/>
<polygon points="974,837 1274,837 1274,978 974,978 "
style="fill:#F4D03F; stroke-width:1;stroke:Black;"/>
<text style="font-family:Arial;font-size:12px;kerning:0;word-spacing:-1px;fill:Black;font-weight:bold;">
<tspan x="1037" y="852">owl:AnnotationProperty or owl:</tspan>
<tspan x="1016" y="868">inverseFunctionalProperty G107 (~14)</tspan>
</text>
<line x1="978" y1="871" x2="1272" y2="871"
 style="stroke-width:1;stroke:Black;"/>
<text style="font-family:Arial;font-size:12px;kerning:0;word-spacing:-1px;fill:Black;">
<tspan x="978" y="883">rdf:type (31 68%d) [*]  -&gt;  owl:Class</tspan>
<tspan x="978" y="898">rdfs:isDefinedBy ( -Infinity%d) [*]  -&gt;  owl:Ontology</tspan>
<tspan x="978" y="913">rdfs:range (13) [*]  -&gt;  gr:PriceSpecification,gr:</tspan>
<tspan x="978" y="928">ProductOrServiceSomeInstancePlaceholder,owl:</tspan>
<tspan x="978" y="943">Class</tspan>
</text>
<text style="font-family:Arial;font-size:11px;kerning:0;word-spacing:-1px;fill:Black;font-weight:bold;">
<tspan x="978" y="958">owl:AnnotationProperty (10)</tspan>
<tspan x="978" y="973">owl:inverseFunctionalProperty (4)</tspan>
</text>
</g>
<g id="2002786657"><polygon points="1314,997 1543,997 1543,1062 1314,1062 "
style="fill:#F4D03F; stroke-width:1;stroke:Black;"/>
<text style="font-family:Arial;font-size:12px;kerning:0;word-spacing:-1px;fill:Black;font-weight:bold;">
<tspan x="1381" y="1012">rdfs:Datatype (5)</tspan>
</text>
<line x1="1318" y1="1015" x2="1541" y2="1015"
 style="stroke-width:1;stroke:Black;"/>
<text style="font-family:Arial;font-size:12px;kerning:0;word-spacing:-1px;fill:Black;">
<tspan x="1318" y="1027">rdf:type (5) [*]  -&gt;  owl:Class</tspan>
<tspan x="1318" y="1042">rdfs:isDefinedBy () [*]  -&gt;  owl:Ontology</tspan>
<tspan x="1318" y="1057">rdfs:seeAlso (4) [*]  -&gt;  colil:PubMed</tspan>
</text>
</g>
<g id="2002786668"><polygon points="877,375 1085,375 1085,420 877,420 "
style="fill:#F4D03F; stroke-width:1;stroke:Black;"/>
<text style="font-family:Arial;font-size:12px;kerning:0;word-spacing:-1px;fill:Black;font-weight:bold;">
<tspan x="927" y="390">gr:Manufacturer (1)</tspan>
</text>
<line x1="881" y1="393" x2="1083" y2="393"
 style="stroke-width:1;stroke:Black;"/>
<text style="font-family:Arial;font-size:12px;kerning:0;word-spacing:-1px;fill:Black;">
<tspan x="881" y="405">rdf:type (1) [*]  -&gt;  owl:Class</tspan>
</text>
</g>
<g id="2002786679"><polygon points="710,1125 1010,1125 1010,1205 710,1205 "
style="fill:#F4D03F; stroke-width:1;stroke:Black;"/>
<text style="font-family:Arial;font-size:12px;kerning:0;word-spacing:-1px;fill:Black;font-weight:bold;">
<tspan x="779" y="1140">colil:ReferencePaper (1.5e7)</tspan>
</text>
<line x1="714" y1="1143" x2="1008" y2="1143"
 style="stroke-width:1;stroke:Black;"/>
<text style="font-family:Arial;font-size:12px;kerning:0;word-spacing:-1px;fill:Black;">
<tspan x="714" y="1155">bibo:doi (2.4e6) [1] </tspan>
<tspan x="714" y="1170">colil:pmcid (2.5e6) [1] </tspan>
<tspan x="714" y="1185">rdf:type (2.6e7) [*]  -&gt;  owl:Class</tspan>
<tspan x="714" y="1200">rdfs:seeAlso (2.3e7) [*]  -&gt;  colil:PubMed</tspan>
</text>
</g>
<g id="2002794290"><polygon points="618,56 935,56 935,108 618,108 "
style="fill:none; stroke-width:1;stroke:Black;"/>
<text style="font-family:Arial;font-size:18px;kerning:0;word-spacing:-1px;fill:Black;font-weight:bold;">
<tspan x="713" y="76">COLIL DBCLS</tspan>
<tspan x="668" y="98">https://colil.dbcls.jp/sparql</tspan>
</text>
</g>
<g id="2002786690"><path d="M529,202 L393,202 389,204 387,208 387,257 389,261 393,263 529,263 "
style="fill:none;stroke-width:1;stroke:Black;"/>
<line x1="523" y1="260" x2="529" y2="263"
 style="stroke-width:1;stroke:Black;"/>
<line x1="523" y1="266" x2="529" y2="263"
 style="stroke-width:1;stroke:Black;"/>
<text style="font-family:Arial;font-size:12px;kerning:0;word-spacing:-1px;fill:Black;">
<tspan x="398" y="215">owl:complementOf  DR</tspan>
<tspan x="398" y="230">rdfs:subClassOf  </tspan>
</text>
</g>
<g id="2002786695"><path d="M1217,156 L135,156 131,158 129,162 129,256 "
style="fill:none;stroke-width:1;stroke:Black;"/>
<line x1="126" y1="250" x2="129" y2="256"
 style="stroke-width:1;stroke:Black;"/>
<line x1="132" y1="250" x2="129" y2="256"
 style="stroke-width:1;stroke:Black;"/>
<text style="font-family:Arial;font-size:12px;kerning:0;word-spacing:-1px;fill:Black;">
<tspan x="1093" y="169">gr:BusinessEntity  DR</tspan>
</text>
</g>
<g id="2002786700"><path d="M780,1344 L780,1285 "
style="fill:none;stroke-width:1;stroke:Black;"/>
<line x1="777" y1="1291" x2="780" y2="1285"
 style="stroke-width:1;stroke:Black;"/>
<line x1="783" y1="1291" x2="780" y2="1285"
 style="stroke-width:1;stroke:Black;"/>
<text style="font-family:Arial;font-size:12px;kerning:0;word-spacing:-1px;fill:Black;">
<tspan x="617" y="1340">colil:hasRelevantPaperId  DR</tspan>
</text>
</g>
<g id="2002786705"><path d="M1091,311 L1091,406 1093,410 1097,412 1343,412 1347,414 1349,418 1349,616 "
style="fill:none;stroke-width:1;stroke:Black;"/>
<line x1="1346" y1="610" x2="1349" y2="616"
 style="stroke-width:1;stroke:Black;"/>
<line x1="1352" y1="610" x2="1349" y2="616"
 style="stroke-width:1;stroke:Black;"/>
<text style="font-family:Arial;font-size:12px;kerning:0;word-spacing:-1px;fill:Black;">
<tspan x="1093" y="326">owl:onProperty  D</tspan>
</text>
</g>
<g id="2002786710"><path d="M590,1268 L590,1205 592,1201 596,1199 710,1199 "
style="fill:none;stroke-width:1;stroke:Black;"/>
<line x1="704" y1="1196" x2="710" y2="1199"
 style="stroke-width:1;stroke:Black;"/>
<line x1="704" y1="1202" x2="710" y2="1199"
 style="stroke-width:1;stroke:Black;"/>
<text style="font-family:Arial;font-size:12px;kerning:0;word-spacing:-1px;fill:Black;">
<tspan x="511" y="1264">bibo:cites  DR</tspan>
</text>
</g>
<g id="2002786715"><path d="M211,894 L211,918 "
style="fill:none;stroke-width:1;stroke:Black;"/>
<line x1="208" y1="912" x2="211" y2="918"
 style="stroke-width:1;stroke:Black;"/>
<line x1="214" y1="912" x2="211" y2="918"
 style="stroke-width:1;stroke:Black;"/>
<text style="font-family:Arial;font-size:12px;kerning:0;word-spacing:-1px;fill:Black;">
<tspan x="213" y="909">gr:typeOfGood  DR</tspan>
</text>
</g>
<g id="2002786720"><path d="M790,869 L974,869 "
style="fill:none;stroke-width:1;stroke:Black;"/>
<line x1="968" y1="866" x2="974" y2="869"
 style="stroke-width:1;stroke:Black;"/>
<line x1="968" y1="872" x2="974" y2="869"
 style="stroke-width:1;stroke:Black;"/>
<text style="font-family:Arial;font-size:12px;kerning:0;word-spacing:-1px;fill:Black;">
<tspan x="794" y="867">rdfs:subPropertyOf  </tspan>
</text>
</g>
<g id="2002786725"><path d="M739,1268 L608,1268 604,1266 602,1262 602,1256 604,1252 608,1250 739,1250 "
style="fill:none;stroke-width:1;stroke:Black;"/>
<line x1="733" y1="1247" x2="739" y2="1250"
 style="stroke-width:1;stroke:Black;"/>
<line x1="733" y1="1253" x2="739" y2="1250"
 style="stroke-width:1;stroke:Black;"/>
<text style="font-family:Arial;font-size:12px;kerning:0;word-spacing:-1px;fill:Black;">
<tspan x="610" y="1281">colil:cocitationWith  DR</tspan>
</text>
</g>
<g id="2002786730"><path d="M1424,831 L1424,872 1426,876 1430,878 1517,878 1521,876 1523,872 1523,143 1521,139 1517,137 738,137 734,139 732,143 732,196 "
style="fill:none;stroke-width:1;stroke:Black;"/>
<line x1="729" y1="190" x2="732" y2="196"
 style="stroke-width:1;stroke:Black;"/>
<line x1="735" y1="190" x2="732" y2="196"
 style="stroke-width:1;stroke:Black;"/>
<text style="font-family:Arial;font-size:12px;kerning:0;word-spacing:-1px;fill:Black;">
<tspan x="1426" y="846">rdfs:domain  </tspan>
</text>
</g>
<g id="2002786735"><path d="M974,944 L859,944 855,942 853,938 853,918 855,914 859,912 974,912 "
style="fill:none;stroke-width:1;stroke:Black;"/>
<line x1="968" y1="909" x2="974" y2="912"
 style="stroke-width:1;stroke:Black;"/>
<line x1="968" y1="915" x2="974" y2="912"
 style="stroke-width:1;stroke:Black;"/>
<text style="font-family:Arial;font-size:12px;kerning:0;word-spacing:-1px;fill:Black;">
<tspan x="862" y="957">rdfs:subPropertyOf  </tspan>
</text>
</g>
<g id="2002786740"><path d="M680,708 L680,366 "
style="fill:none;stroke-width:1;stroke:Black;"/>
<line x1="677" y1="372" x2="680" y2="366"
 style="stroke-width:1;stroke:Black;"/>
<line x1="683" y1="372" x2="680" y2="366"
 style="stroke-width:1;stroke:Black;"/>
<text style="font-family:Arial;font-size:12px;kerning:0;word-spacing:-1px;fill:Black;">
<tspan x="582" y="704">rdfs:subClassOf  </tspan>
</text>
</g>
<g id="2002786745"><path d="M211,521 L66,521 62,523 60,527 60,652 "
style="fill:none;stroke-width:1;stroke:Black;"/>
<line x1="57" y1="646" x2="60" y2="652"
 style="stroke-width:1;stroke:Black;"/>
<line x1="63" y1="646" x2="60" y2="652"
 style="stroke-width:1;stroke:Black;"/>
<text style="font-family:Arial;font-size:12px;kerning:0;word-spacing:-1px;fill:Black;">
<tspan x="68" y="534">gr:availableAtOrFrom  DR</tspan>
</text>
</g>
<g id="2002786750"><path d="M1009,375 L1009,311 "
style="fill:none;stroke-width:1;stroke:Black;"/>
<line x1="1006" y1="317" x2="1009" y2="311"
 style="stroke-width:1;stroke:Black;"/>
<line x1="1012" y1="317" x2="1009" y2="311"
 style="stroke-width:1;stroke:Black;"/>
<text style="font-family:Arial;font-size:12px;kerning:0;word-spacing:-1px;fill:Black;">
<tspan x="890" y="371">owl:equivalentClass  </tspan>
</text>
</g>
<g id="2002786755"><path d="M1400,1136 L1311,1136 1307,1134 1305,1130 1305,1130 1307,1126 1311,1124 1406,1124 1406,1130 "
style="fill:none;stroke-width:1;stroke:Black;"/>
<line x1="1403" y1="1124" x2="1406" y2="1130"
 style="stroke-width:1;stroke:Black;"/>
<line x1="1409" y1="1124" x2="1406" y2="1130"
 style="stroke-width:1;stroke:Black;"/>
<text style="font-family:Arial;font-size:12px;kerning:0;word-spacing:-1px;fill:Black;">
<tspan x="1313" y="1149">dct:license  DR</tspan>
</text>
</g>
<g id="2002786760"><path d="M498,1136 L498,1111 500,1107 504,1105 569,1105 573,1107 575,1111 575,1136 "
style="fill:none;stroke-width:1;stroke:Black;"/>
<line x1="572" y1="1130" x2="575" y2="1136"
 style="stroke-width:1;stroke:Black;"/>
<line x1="578" y1="1130" x2="575" y2="1136"
 style="stroke-width:1;stroke:Black;"/>
<text style="font-family:Arial;font-size:12px;kerning:0;word-spacing:-1px;fill:Black;">
<tspan x="413" y="1132">doco:contains  </tspan>
</text>
</g>
<g id="2002786765"><path d="M1234,532 L1234,435 1232,431 1228,429 826,429 822,427 820,423 820,366 "
style="fill:none;stroke-width:1;stroke:Black;"/>
<line x1="817" y1="372" x2="820" y2="366"
 style="stroke-width:1;stroke:Black;"/>
<line x1="823" y1="372" x2="820" y2="366"
 style="stroke-width:1;stroke:Black;"/>
<text style="font-family:Arial;font-size:12px;kerning:0;word-spacing:-1px;fill:Black;">
<tspan x="1136" y="528">rdfs:subClassOf  </tspan>
</text>
</g>
<g id="2002786770"><path d="M868,646 L868,528 866,524 862,522 748,522 744,520 742,516 742,366 "
style="fill:none;stroke-width:1;stroke:Black;"/>
<line x1="739" y1="372" x2="742" y2="366"
 style="stroke-width:1;stroke:Black;"/>
<line x1="745" y1="372" x2="742" y2="366"
 style="stroke-width:1;stroke:Black;"/>
<text style="font-family:Arial;font-size:12px;kerning:0;word-spacing:-1px;fill:Black;">
<tspan x="770" y="642">rdfs:subClassOf  </tspan>
</text>
</g>
<g id="2002786775"><path d="M393,1268 L393,1076 395,1072 399,1070 524,1070 "
style="fill:none;stroke-width:1;stroke:Black;"/>
<line x1="518" y1="1067" x2="524" y2="1070"
 style="stroke-width:1;stroke:Black;"/>
<line x1="518" y1="1073" x2="524" y2="1070"
 style="stroke-width:1;stroke:Black;"/>
<text style="font-family:Arial;font-size:12px;kerning:0;word-spacing:-1px;fill:Black;">
<tspan x="308" y="1264">doco:contains  </tspan>
</text>
</g>
<g id="2002786780"><path d="M511,538 L1020,538 "
style="fill:none;stroke-width:1;stroke:Black;"/>
<line x1="1014" y1="535" x2="1020" y2="538"
 style="stroke-width:1;stroke:Black;"/>
<line x1="1014" y1="541" x2="1020" y2="538"
 style="stroke-width:1;stroke:Black;"/>
<text style="font-family:Arial;font-size:12px;kerning:0;word-spacing:-1px;fill:Black;">
<tspan x="515" y="536">gr:includes  D</tspan>
</text>
</g>
<g id="2002786785"><path d="M1146,798 L1024,798 1020,800 1018,804 1018,837 "
style="fill:none;stroke-width:1;stroke:Black;"/>
<line x1="1015" y1="831" x2="1018" y2="837"
 style="stroke-width:1;stroke:Black;"/>
<line x1="1021" y1="831" x2="1018" y2="837"
 style="stroke-width:1;stroke:Black;"/>
<text style="font-family:Arial;font-size:12px;kerning:0;word-spacing:-1px;fill:Black;">
<tspan x="1034" y="811">rdfs:subPropertyOf  </tspan>
</text>
</g>
<g id="2002786790"><path d="M466,636 L466,708 "
style="fill:none;stroke-width:1;stroke:Black;"/>
<line x1="463" y1="702" x2="466" y2="708"
 style="stroke-width:1;stroke:Black;"/>
<line x1="469" y1="702" x2="466" y2="708"
 style="stroke-width:1;stroke:Black;"/>
<text style="font-family:Arial;font-size:12px;kerning:0;word-spacing:-1px;fill:Black;">
<tspan x="468" y="651">gr:includes  D</tspan>
</text>
</g>
<g id="2002786795"><path d="M708,1066 L889,1066 893,1068 895,1072 895,1125 "
style="fill:none;stroke-width:1;stroke:Black;"/>
<line x1="892" y1="1119" x2="895" y2="1125"
 style="stroke-width:1;stroke:Black;"/>
<line x1="898" y1="1119" x2="895" y2="1125"
 style="stroke-width:1;stroke:Black;"/>
<text style="font-family:Arial;font-size:12px;kerning:0;word-spacing:-1px;fill:Black;">
<tspan x="712" y="1064">colil:mentions  DR</tspan>
</text>
</g>
<g id="2002786800"><path d="M503,1268 L503,1186 "
style="fill:none;stroke-width:1;stroke:Black;"/>
<line x1="500" y1="1192" x2="503" y2="1186"
 style="stroke-width:1;stroke:Black;"/>
<line x1="506" y1="1192" x2="503" y2="1186"
 style="stroke-width:1;stroke:Black;"/>
<text style="font-family:Arial;font-size:12px;kerning:0;word-spacing:-1px;fill:Black;">
<tspan x="418" y="1264">doco:contains  </tspan>
</text>
</g>
<g id="2002786805"><path d="M273,256 L273,183 275,179 279,177 1080,177 1084,179 1086,183 1086,231 "
style="fill:none;stroke-width:1;stroke:Black;"/>
<line x1="1083" y1="225" x2="1086" y2="231"
 style="stroke-width:1;stroke:Black;"/>
<line x1="1089" y1="225" x2="1086" y2="231"
 style="stroke-width:1;stroke:Black;"/>
<text style="font-family:Arial;font-size:12px;kerning:0;word-spacing:-1px;fill:Black;">
<tspan x="154" y="252">owl:equivalentClass  </tspan>
</text>
</g>
<g id="2002786810"><path d="M829,295 L973,295 "
style="fill:none;stroke-width:1;stroke:Black;"/>
<line x1="967" y1="292" x2="973" y2="295"
 style="stroke-width:1;stroke:Black;"/>
<line x1="967" y1="298" x2="973" y2="295"
 style="stroke-width:1;stroke:Black;"/>
<text style="font-family:Arial;font-size:12px;kerning:0;word-spacing:-1px;fill:Black;">
<tspan x="833" y="293">owl:equivalentClass  </tspan>
</text>
</g>
<g id="2002786815"><path d="M1235,616 L1235,597 "
style="fill:none;stroke-width:1;stroke:Black;"/>
<line x1="1232" y1="603" x2="1235" y2="597"
 style="stroke-width:1;stroke:Black;"/>
<line x1="1238" y1="603" x2="1235" y2="597"
 style="stroke-width:1;stroke:Black;"/>
<text style="font-family:Arial;font-size:12px;kerning:0;word-spacing:-1px;fill:Black;">
<tspan x="1161" y="612">rdfs:domain  </tspan>
</text>
</g>
<g id="2002786820"><path d="M799,1285 L799,1344 "
style="fill:none;stroke-width:1;stroke:Black;"/>
<line x1="796" y1="1338" x2="799" y2="1344"
 style="stroke-width:1;stroke:Black;"/>
<line x1="802" y1="1338" x2="799" y2="1344"
 style="stroke-width:1;stroke:Black;"/>
<text style="font-family:Arial;font-size:12px;kerning:0;word-spacing:-1px;fill:Black;">
<tspan x="801" y="1300">colil:hasRelevantBibliographicResourceOf  DR</tspan>
</text>
</g>
<g id="2002786825"><path d="M1146,660 L1014,660 "
style="fill:none;stroke-width:1;stroke:Black;"/>
<line x1="1020" y1="657" x2="1014" y2="660"
 style="stroke-width:1;stroke:Black;"/>
<line x1="1020" y1="663" x2="1014" y2="660"
 style="stroke-width:1;stroke:Black;"/>
<text style="font-family:Arial;font-size:12px;kerning:0;word-spacing:-1px;fill:Black;">
<tspan x="1070" y="673">rdfs:domain  </tspan>
</text>
</g>
<g id="2002786830"><path d="M511,597 L714,597 718,599 720,603 720,646 "
style="fill:none;stroke-width:1;stroke:Black;"/>
<line x1="717" y1="640" x2="720" y2="646"
 style="stroke-width:1;stroke:Black;"/>
<line x1="723" y1="640" x2="720" y2="646"
 style="stroke-width:1;stroke:Black;"/>
<text style="font-family:Arial;font-size:12px;kerning:0;word-spacing:-1px;fill:Black;">
<tspan x="515" y="595">gr:hasPriceSpecification  DR</tspan>
</text>
</g>
<g id="2002786835"><path d="M1498,616 L1498,358 "
style="fill:none;stroke-width:1;stroke:Black;"/>
<line x1="1495" y1="364" x2="1498" y2="358"
 style="stroke-width:1;stroke:Black;"/>
<line x1="1501" y1="364" x2="1498" y2="358"
 style="stroke-width:1;stroke:Black;"/>
<text style="font-family:Arial;font-size:12px;kerning:0;word-spacing:-1px;fill:Black;">
<tspan x="1357" y="612">rdfs:isDescribedUsing  D</tspan>
</text>
</g>
<g id="2002786840"><path d="M241,411 L241,451 "
style="fill:none;stroke-width:1;stroke:Black;"/>
<line x1="238" y1="445" x2="241" y2="451"
 style="stroke-width:1;stroke:Black;"/>
<line x1="244" y1="445" x2="241" y2="451"
 style="stroke-width:1;stroke:Black;"/>
<text style="font-family:Arial;font-size:12px;kerning:0;word-spacing:-1px;fill:Black;">
<tspan x="243" y="426">gr:offers  DR</tspan>
</text>
</g>
<g id="2002786845"><path d="M310,636 L310,814 "
style="fill:none;stroke-width:1;stroke:Black;"/>
<line x1="307" y1="808" x2="310" y2="814"
 style="stroke-width:1;stroke:Black;"/>
<line x1="313" y1="808" x2="310" y2="814"
 style="stroke-width:1;stroke:Black;"/>
<text style="font-family:Arial;font-size:12px;kerning:0;word-spacing:-1px;fill:Black;">
<tspan x="312" y="651">gr:includesObject  DR</tspan>
</text>
</g>
<g id="2002786850"><path d="M668,1136 L668,1076 "
style="fill:none;stroke-width:1;stroke:Black;"/>
<line x1="665" y1="1082" x2="668" y2="1076"
 style="stroke-width:1;stroke:Black;"/>
<line x1="671" y1="1082" x2="668" y2="1076"
 style="stroke-width:1;stroke:Black;"/>
<text style="font-family:Arial;font-size:12px;kerning:0;word-spacing:-1px;fill:Black;">
<tspan x="583" y="1132">doco:contains  </tspan>
</text>
</g>
<g id="2002786855"><path d="M1146,762 L700,762 "
style="fill:none;stroke-width:1;stroke:Black;"/>
<line x1="706" y1="759" x2="700" y2="762"
 style="stroke-width:1;stroke:Black;"/>
<line x1="706" y1="765" x2="700" y2="762"
 style="stroke-width:1;stroke:Black;"/>
<text style="font-family:Arial;font-size:12px;kerning:0;word-spacing:-1px;fill:Black;">
<tspan x="1070" y="775">rdfs:domain  </tspan>
</text>
</g>
<g id="2002786860"><path d="M973,248 L829,248 "
style="fill:none;stroke-width:1;stroke:Black;"/>
<line x1="835" y1="245" x2="829" y2="248"
 style="stroke-width:1;stroke:Black;"/>
<line x1="835" y1="251" x2="829" y2="248"
 style="stroke-width:1;stroke:Black;"/>
<text style="font-family:Arial;font-size:12px;kerning:0;word-spacing:-1px;fill:Black;">
<tspan x="833" y="261">owl:someValuesFrom  D</tspan>
<tspan x="833" y="276">owl:onClass  DR</tspan>
</text>
</g>
<g id="2002786865"><path d="M777,841 L777,794 779,790 783,788 1146,788 "
style="fill:none;stroke-width:1;stroke:Black;"/>
<line x1="1140" y1="785" x2="1146" y2="788"
 style="stroke-width:1;stroke:Black;"/>
<line x1="1140" y1="791" x2="1146" y2="788"
 style="stroke-width:1;stroke:Black;"/>
<text style="font-family:Arial;font-size:12px;kerning:0;word-spacing:-1px;fill:Black;">
<tspan x="667" y="837">rdfs:subPropertyOf  </tspan>
</text>
</g>
<g id="2002786870"><path d="M1274,892 L1388,892 1392,890 1394,886 1394,831 "
style="fill:none;stroke-width:1;stroke:Black;"/>
<line x1="1391" y1="837" x2="1394" y2="831"
 style="stroke-width:1;stroke:Black;"/>
<line x1="1397" y1="837" x2="1394" y2="831"
 style="stroke-width:1;stroke:Black;"/>
<text style="font-family:Arial;font-size:12px;kerning:0;word-spacing:-1px;fill:Black;">
<tspan x="1278" y="890">rdfs:subPropertyOf  </tspan>
</text>
</g>
<g id="2002786875"><path d="M1146,639 L1029,639 1025,637 1023,633 1023,628 1025,624 1029,622 1146,622 "
style="fill:none;stroke-width:1;stroke:Black;"/>
<line x1="1140" y1="619" x2="1146" y2="622"
 style="stroke-width:1;stroke:Black;"/>
<line x1="1140" y1="625" x2="1146" y2="622"
 style="stroke-width:1;stroke:Black;"/>
<text style="font-family:Arial;font-size:12px;kerning:0;word-spacing:-1px;fill:Black;">
<tspan x="1034" y="652">rdfs:subPropertyOf  </tspan>
</text>
</g>
<g id="2002786880"><path d="M1066,513 L1066,532 "
style="fill:none;stroke-width:2;stroke:Fuchsia;"/>
<polygon points="1071,523 1066,513 1061,523 "
style="fill:Silver;stroke-width:1;stroke:Black;"/>
<text style="font-family:Arial;font-size:12px;kerning:0;word-spacing:-1px;fill:Black;">
<tspan x="1068" y="528"> </tspan>
</text>
</g>
<g id="2002786882"><path d="M955,513 L955,646 "
style="fill:none;stroke-width:2;stroke:Fuchsia;"/>
<polygon points="960,523 955,513 950,523 "
style="fill:Silver;stroke-width:1;stroke:Black;"/>
<text style="font-family:Arial;font-size:12px;kerning:0;word-spacing:-1px;fill:Black;">
<tspan x="957" y="528"> </tspan>
</text>
</g>
<g id="2002786884"><path d="M286,984 L286,1109 "
style="fill:none;stroke-width:2;stroke:Fuchsia;"/>
<polygon points="291,994 286,984 281,994 "
style="fill:Silver;stroke-width:1;stroke:Black;"/>
<text style="font-family:Arial;font-size:12px;kerning:0;word-spacing:-1px;fill:Black;">
<tspan x="288" y="999"> </tspan>
</text>
</g>
<g id="2002786886"><path d="M163,984 L163,1058 "
style="fill:none;stroke-width:2;stroke:Fuchsia;"/>
<polygon points="168,994 163,984 158,994 "
style="fill:Silver;stroke-width:1;stroke:Black;"/>
<text style="font-family:Arial;font-size:12px;kerning:0;word-spacing:-1px;fill:Black;">
<tspan x="165" y="999"> </tspan>
</text>
</g>
<g id="2002786888"><path d="M836,1205 L836,1240 "
style="fill:none;stroke-width:2;stroke:Fuchsia;"/>
<polygon points="841,1215 836,1205 831,1215 "
style="fill:Silver;stroke-width:1;stroke:Black;"/>
<text style="font-family:Arial;font-size:12px;kerning:0;word-spacing:-1px;fill:Black;">
<tspan x="838" y="1220"> </tspan>
</text>
</g>
<g id="2002786890"><path d="M803,485 L692,485 688,487 686,491 686,708 "
style="fill:none;stroke-width:2;stroke:Fuchsia;"/>
<polygon points="793,490 803,485 793,480 "
style="fill:Silver;stroke-width:1;stroke:Black;"/>
<text style="font-family:Arial;font-size:12px;kerning:0;word-spacing:-1px;fill:Black;">
<tspan x="789" y="498"> </tspan>
</text>
</g>
</svg>
