<?xml version="1.0" encoding="UTF-8" standalone="no"?>
<!DOCTYPE svg PUBLIC "-//W3C//DTD SVG 1.1//EN"
"http://www.w3.org/Graphics/SVG/1.1/DTD/svg11.dtd">
<svg version="1.1" xmlns="http://www.w3.org/2000/svg"
xmlns:xlink="http://www.w3.org/1999/xlink" xml:space="preserve"
 width="1177" height="1557" viewBox="0 0 1177 1557">
 onmousemove="movetip(evt)" onmouseup="endmove()">
<rect x="0" y="0" width="100%" height="100%" style="fill:White;"/>
<script type="application/ecmascript"> <![CDATA[
var dragtipid = null; var dragcase = false; function init(evt){
if (window.svgDocument==null) svgDocument = evt.target.ownerDocument;
}
function movetip(evt){if (dragtipid!=null){ dragcase = true;
var tip=svgDocument.getElementById(dragtipid);
tip.setAttributeNS(null,"x",evt.clientX-2);
tip.setAttributeNS(null,"y",evt.clientY-2);
}}
function endmove(){dragtipid = null;}
function startmove(evt,id){dragtipid = id; dragcase = false;
var tip=svgDocument.getElementById(dragtipid);
tip.setAttributeNS(null,"x",evt.clientX-2);
tip.setAttributeNS(null,"y",evt.clientY-2);
}
function Showtip(evt,id){ dragtipid = null;
var tip=svgDocument.getElementById(id);
var vis=tip.getAttributeNS(null,"visibility");
if (vis=="hidden"){
tip.setAttributeNS(null,"x",evt.clientX-2);
tip.setAttributeNS(null,"y",evt.clientY-2);
tip.setAttributeNS(null,"visibility","visible");
}}
function Hidetip(id){ dragtipid = null; if (dragcase==false){
var tip=svgDocument.getElementById(id);
tip.setAttributeNS(null,"visibility","hidden");
}}
]]></script>
<defs><linearGradient id="activ1" x1="0%" y1="0%" x2="100%" y2="0%">
<stop offset="0%" style="stop-color:#FFFF00;stop-opacity:1"/>
<stop offset="100%" style="stop-color:#FFFFF0;stop-opacity:1"/>
</linearGradient></defs>
<g id="2002718981"><polygon points="549,488 804,488 804,792 549,792 "
style="fill:#F4D03F; stroke-width:1;stroke:Black;"/>
<text style="font-family:Arial;font-size:12px;kerning:0;word-spacing:-1px;fill:Black;font-weight:bold;">
<tspan x="618" y="503">skosxl:Label (1.1e6)</tspan>
</text>
<line x1="553" y1="506" x2="802" y2="506"
 style="stroke-width:1;stroke:Black;"/>
<text style="font-family:Arial;font-size:12px;kerning:0;word-spacing:-1px;fill:Black;">
<tspan x="553" y="518">aimsa:hasTermType (2.7e5) [*] D</tspan>
<tspan x="553" y="533">dct:created (1.1e6) [1] </tspan>
<tspan x="553" y="548">dct:modified (1.7e5) [1] </tspan>
<tspan x="553" y="563">owl:deprecated (410) [1] </tspan>
<tspan x="553" y="578">rdf:type (1.1e6) [*]  -&gt; IRI</tspan>
<tspan x="553" y="593">skos:notation (1.1e6) [1] D</tspan>
<tspan x="553" y="608">skosxl:literalForm (1.1e6) [1] </tspan>
<tspan x="553" y="623">void:inDataset (1.1e6) [1]  -&gt; IRI</tspan>
<tspan x="553" y="638">&lt;&gt; aimsa:hasAcronym  DR</tspan>
<tspan x="553" y="653">&lt;&gt; aimsa:hasOldName  DR</tspan>
<tspan x="553" y="668">&lt;&gt; aimsa:hasRelatedTerm  DR</tspan>
<tspan x="553" y="683">&lt;&gt; aimsa:hasScientificName  DR</tspan>
<tspan x="553" y="698">&lt;&gt; aimsa:hasSymbol  DR</tspan>
<tspan x="553" y="713">&lt;&gt; aimsa:hasSynonym  DR</tspan>
<tspan x="553" y="728">&lt;&gt; aimsa:isAcronymOf  DR</tspan>
<tspan x="553" y="743">&lt;&gt; aimsa:isOldNameOf  DR</tspan>
<tspan x="553" y="758">&lt;&gt; aimsa:isSymbolFor  DR</tspan>
<tspan x="553" y="773">&lt;&gt; aimsa:scientificNameOf  DR</tspan>
</text>
</g>
<g id="2002718992"><polygon points="395,1477 749,1477 749,1543 395,1543 "
style="fill:#F4D03F; stroke-width:1;stroke:Black;"/>
<polygon points="392,1480 746,1480 746,1546 392,1546 "
style="fill:#F4D03F; stroke-width:1;stroke:Black;"/>
<text style="font-family:Arial;font-size:12px;kerning:0;word-spacing:-1px;fill:Black;font-weight:bold;">
<tspan x="399" y="1495">owl:SymmetricProperty or owl:TransitiveProperty G101 (14)</tspan>
</text>
<text style="font-family:Arial;font-size:11px;kerning:0;word-spacing:-1px;fill:Black;font-weight:bold;">
<tspan x="396" y="1510">owl:SymmetricProperty (12)</tspan>
<tspan x="396" y="1525">owl:TransitiveProperty (2)</tspan>
</text>
</g>
<g id="2002719003"><polygon points="392,1166 604,1166 604,1246 392,1246 "
style="fill:#F4D03F; stroke-width:1;stroke:Black;"/>
<text style="font-family:Arial;font-size:12px;kerning:0;word-spacing:-1px;fill:Black;font-weight:bold;">
<tspan x="458" y="1181">owl:Class (22)</tspan>
</text>
<line x1="396" y1="1184" x2="602" y2="1184"
 style="stroke-width:1;stroke:Black;"/>
<text style="font-family:Arial;font-size:12px;kerning:0;word-spacing:-1px;fill:Black;">
<tspan x="396" y="1196">owl:complementOf (20) [1] D -&gt; IRI</tspan>
<tspan x="396" y="1211">owl:unionOf (2) [*]  -&gt; IRI</tspan>
<tspan x="396" y="1226">rdf:type (22) [*]  -&gt; IRI</tspan>
</text>
</g>
<g id="2002719014"><polygon points="582,368 804,368 804,448 582,448 "
style="fill:#F4D03F; stroke-width:1;stroke:Black;"/>
<text style="font-family:Arial;font-size:12px;kerning:0;word-spacing:-1px;fill:Black;font-weight:bold;">
<tspan x="620" y="383">skos:ConceptScheme (1)</tspan>
</text>
<line x1="586" y1="386" x2="802" y2="386"
 style="stroke-width:1;stroke:Black;"/>
<text style="font-family:Arial;font-size:12px;kerning:0;word-spacing:-1px;fill:Black;">
<tspan x="586" y="398">dct:modified (1) [1] </tspan>
<tspan x="586" y="413">rdf:type (1) [*]  -&gt; IRI</tspan>
<tspan x="586" y="428">skos:prefLabel (1) [*] </tspan>
<tspan x="586" y="443">void:inDataset (1) [1]  -&gt; IRI</tspan>
</text>
</g>
<g id="2002719025"><polygon points="392,1292 620,1292 620,1417 392,1417 "
style="fill:#F4D03F; stroke-width:1;stroke:Black;"/>
<text style="font-family:Arial;font-size:12px;kerning:0;word-spacing:-1px;fill:Black;font-weight:bold;">
<tspan x="435" y="1307">owl:ObjectProperty (159)</tspan>
</text>
<line x1="396" y1="1310" x2="618" y2="1310"
 style="stroke-width:1;stroke:Black;"/>
<text style="font-family:Arial;font-size:12px;kerning:0;word-spacing:-1px;fill:Black;">
<tspan x="396" y="1322">dct:created (1) [1] </tspan>
<tspan x="396" y="1337">rdf:type (173) [*]  -&gt; IRI</tspan>
<tspan x="396" y="1352">rdfs:comment (478) [*] </tspan>
<tspan x="396" y="1367">rdfs:domain (22) [1]  -&gt; IRI</tspan>
<tspan x="396" y="1382">rdfs:label (542) [*] </tspan>
<tspan x="396" y="1397">&lt;&gt; owl:inverseOf  DR</tspan>
<tspan x="396" y="1412">&lt;&gt; rdfs:subPropertyOf  </tspan>
</text>
</g>
<g id="2002719036"><polygon points="701,1293 892,1293 892,1343 701,1343 "
style="fill:#F4D03F; stroke-width:1;stroke:Black;"/>
<text style="font-family:Arial;font-size:12px;kerning:0;word-spacing:-1px;fill:Black;font-weight:bold;">
<tspan x="749" y="1308">rdfs:Datatype (4)</tspan>
</text>
<line x1="705" y1="1311" x2="890" y2="1311"
 style="stroke-width:1;stroke:Black;"/>
<text style="font-family:Arial;font-size:12px;kerning:0;word-spacing:-1px;fill:Black;">
<tspan x="705" y="1323">rdf:type (4) [*]  -&gt; IRI</tspan>
<tspan x="705" y="1338">&lt;&gt; owl:equivalentClass  DR</tspan>
</text>
</g>
<g id="2002719047"><polygon points="544,818 804,818 804,928 544,928 "
style="fill:#F4D03F; stroke-width:1;stroke:Black;"/>
<text style="font-family:Arial;font-size:12px;kerning:0;word-spacing:-1px;fill:Black;font-weight:bold;">
<tspan x="632" y="833">foaf:Image (60)</tspan>
</text>
<line x1="548" y1="836" x2="802" y2="836"
 style="stroke-width:1;stroke:Black;"/>
<text style="font-family:Arial;font-size:12px;kerning:0;word-spacing:-1px;fill:Black;">
<tspan x="548" y="848">dct:created (60) [1] </tspan>
<tspan x="548" y="863">dct:modified (49) [1] </tspan>
<tspan x="548" y="878">dct:source (60) [1]  -&gt; IRI</tspan>
<tspan x="548" y="893">rdf:type (60) [*]  -&gt; IRI</tspan>
<tspan x="548" y="908">rdf:value (60) [1] </tspan>
<tspan x="548" y="923">rdfs:comment (60) [*] </tspan>
</text>
</g>
<g id="2002719058"><polygon points="51,101 351,101 351,1547 51,1547 "
style="fill:#F4D03F; stroke-width:1;stroke:Black;"/>
<text style="font-family:Arial;font-size:12px;kerning:0;word-spacing:-1px;fill:Black;font-weight:bold;">
<tspan x="140" y="116">skos:Concept (4.1e4)</tspan>
</text>
<line x1="55" y1="119" x2="349" y2="119"
 style="stroke-width:1;stroke:Black;"/>
<text style="font-family:Arial;font-size:12px;kerning:0;word-spacing:-1px;fill:Black;">
<tspan x="55" y="131">aimsa:hasCodeISO3Country (220) [1] D</tspan>
<tspan x="55" y="146">aimsa:isPartOfSubvocabulary (1965) [*] D</tspan>
<tspan x="55" y="161">aimsa:m49Code (280) [1] </tspan>
<tspan x="55" y="176">aimst:labelToRemoveValue (6) [1] D</tspan>
<tspan x="55" y="191">aimst:newAltLabelValue (1) [1] D</tspan>
<tspan x="55" y="206">aimst:oldAltLabelValue (1) [1] D</tspan>
<tspan x="55" y="221">aimst:updateDate (7) [1] D</tspan>
<tspan x="55" y="236">dct:created (4.1e4) [1] </tspan>
<tspan x="55" y="251">dct:modified (4.1e4) [1] </tspan>
<tspan x="55" y="266">owl:deprecated (60) [1] </tspan>
<tspan x="55" y="281">rdf:type (4.1e4) [*]  -&gt; IRI</tspan>
<tspan x="55" y="296">skos:altLabel (1.7e5) [*] </tspan>
<tspan x="55" y="311">skos:broadMatch (262) [*] D -&gt; IRI</tspan>
<tspan x="55" y="326">skos:closeMatch (1.4e4) [*] D -&gt; IRI</tspan>
<tspan x="55" y="341">skos:definition (1.3e4) [*] D -&gt; IRI</tspan>
<tspan x="55" y="356">skos:editorialNote (1.1e4) [*] D</tspan>
<tspan x="55" y="371">skos:exactMatch (3.2e4) [*]  -&gt; IRI</tspan>
<tspan x="55" y="386">skos:example (3) [*] D</tspan>
<tspan x="55" y="401">skos:historyNote (283) [*] D</tspan>
<tspan x="55" y="416">skos:narrowMatch (73) [*] D -&gt; IRI</tspan>
<tspan x="55" y="431">skos:note (29) [*] D</tspan>
<tspan x="55" y="446">skos:prefLabel (9.8e5) [*] </tspan>
<tspan x="55" y="461">skos:scopeNote (1.7e4) [*] D</tspan>
<tspan x="55" y="476">void:inDataset (4.1e4) [1]  -&gt; IRI</tspan>
<tspan x="55" y="491">&lt;&gt; aimsa:affects  DR</tspan>
<tspan x="55" y="506">&lt;&gt; aimsa:afflicts  DR</tspan>
<tspan x="55" y="521">&lt;&gt; aimsa:causes  DR</tspan>
<tspan x="55" y="536">&lt;&gt; aimsa:compose  DR</tspan>
<tspan x="55" y="551">&lt;&gt; aimsa:hasCommonNameConcept  DR</tspan>
<tspan x="55" y="566">&lt;&gt; aimsa:hasComponent  DR</tspan>
<tspan x="55" y="581">&lt;&gt; aimsa:hasDisease  DR</tspan>
<tspan x="55" y="596">&lt;&gt; aimsa:hasGoalOrProcess  DR</tspan>
<tspan x="55" y="611">&lt;&gt; aimsa:hasHost  DR</tspan>
<tspan x="55" y="626">&lt;&gt; aimsa:hasMember  DR</tspan>
<tspan x="55" y="641">&lt;&gt; aimsa:hasObjectOfActivity  DR</tspan>
<tspan x="55" y="656">&lt;&gt; aimsa:hasPart  DR</tspan>
<tspan x="55" y="671">&lt;&gt; aimsa:hasPathogen  DR</tspan>
<tspan x="55" y="686">&lt;&gt; aimsa:hasPest  DR</tspan>
<tspan x="55" y="701">&lt;&gt; aimsa:hasProduct  DR</tspan>
<tspan x="55" y="716">&lt;&gt; aimsa:hasProperty  DR</tspan>
<tspan x="55" y="731">&lt;&gt; aimsa:hasSymptom  DR</tspan>
<tspan x="55" y="746">&lt;&gt; aimsa:hasTaxonomicConcept  DR</tspan>
<tspan x="55" y="761">&lt;&gt; aimsa:hasTaxonomicRank  DR</tspan>
<tspan x="55" y="776">&lt;&gt; aimsa:hasType  DR</tspan>
<tspan x="55" y="791">&lt;&gt; aimsa:includes  DR</tspan>
<tspan x="55" y="806">&lt;&gt; aimsa:indicates  DR</tspan>
<tspan x="55" y="821">&lt;&gt; aimsa:isAchievedByMeansOf  DR</tspan>
<tspan x="55" y="836">&lt;&gt; aimsa:isAffectedBy  DR</tspan>
<tspan x="55" y="851">&lt;&gt; aimsa:isAfflictedBy  DR</tspan>
<tspan x="55" y="866">&lt;&gt; aimsa:isCausedBy  DR</tspan>
<tspan x="55" y="881">&lt;&gt; aimsa:isComponentOf  DR</tspan>
<tspan x="55" y="896">&lt;&gt; aimsa:isComposedOf  DR</tspan>
<tspan x="55" y="911">&lt;&gt; aimsa:isDerivedFrom  DR</tspan>
<tspan x="55" y="926">&lt;&gt; aimsa:isDiseaseFor  DR</tspan>
<tspan x="55" y="941">&lt;&gt; aimsa:isHostFor  DR</tspan>
<tspan x="55" y="956">&lt;&gt; aimsa:isIncludedIn  DR</tspan>
<tspan x="55" y="971">&lt;&gt; aimsa:isMadeFrom  DR</tspan>
<tspan x="55" y="986">&lt;&gt; aimsa:isMeasuredBy  DR</tspan>
<tspan x="55" y="1001">&lt;&gt; aimsa:isMemberOf  DR</tspan>
<tspan x="55" y="1016">&lt;&gt; aimsa:isObjectOfActivity  DR</tspan>
<tspan x="55" y="1031">&lt;&gt; aimsa:isPartOf  DR</tspan>
<tspan x="55" y="1046">&lt;&gt; aimsa:isPathogenOf  DR</tspan>
<tspan x="55" y="1061">&lt;&gt; aimsa:isPreventedBy  DR</tspan>
<tspan x="55" y="1076">&lt;&gt; aimsa:isProcessFor  DR</tspan>
<tspan x="55" y="1091">&lt;&gt; aimsa:isProducedBy  DR</tspan>
<tspan x="55" y="1106">&lt;&gt; aimsa:isPropertyOf  DR</tspan>
<tspan x="55" y="1121">&lt;&gt; aimsa:isSourceOf  DR</tspan>
<tspan x="55" y="1136">&lt;&gt; aimsa:isSpatiallyIncludedIn  DR</tspan>
<tspan x="55" y="1151">&lt;&gt; aimsa:isStudiedBy  DR</tspan>
<tspan x="55" y="1166">&lt;&gt; aimsa:isTaxonomicRankOf  DR</tspan>
<tspan x="55" y="1181">&lt;&gt; aimsa:isUseOf  DR</tspan>
<tspan x="55" y="1196">&lt;&gt; aimsa:isUsedAs  DR</tspan>
<tspan x="55" y="1211">&lt;&gt; aimsa:isUsedIn  DR</tspan>
<tspan x="55" y="1226">&lt;&gt; aimsa:isUsedToMake  DR</tspan>
<tspan x="55" y="1241">&lt;&gt; aimsa:makeUseOf  DR</tspan>
<tspan x="55" y="1256">&lt;&gt; aimsa:measures  DR</tspan>
<tspan x="55" y="1271">&lt;&gt; aimsa:pestOf  DR</tspan>
<tspan x="55" y="1286">&lt;&gt; aimsa:prevents  DR</tspan>
<tspan x="55" y="1301">&lt;&gt; aimsa:produces  DR</tspan>
<tspan x="55" y="1316">&lt;&gt; aimsa:productOf  DR</tspan>
<tspan x="55" y="1331">&lt;&gt; aimsa:spatiallyIncludes  DR</tspan>
<tspan x="55" y="1346">&lt;&gt; aimsa:study  DR</tspan>
<tspan x="55" y="1361">&lt;&gt; aimsa:surroundedBy  DR</tspan>
<tspan x="55" y="1376">&lt;&gt; aimsa:surrounds  DR</tspan>
<tspan x="55" y="1391">&lt;&gt; aimsa:typeOf  DR</tspan>
<tspan x="55" y="1406">&lt;&gt; aimsa:usesProcess  DR</tspan>
<tspan x="55" y="1421">&lt;&gt; dct:isReplacedBy  D</tspan>
<tspan x="55" y="1436">&lt;&gt; skos:broader  DR</tspan>
<tspan x="55" y="1451">&lt;&gt; skos:narrower  DR</tspan>
<tspan x="55" y="1466">&lt;&gt; skos:related  DR</tspan>
<tspan x="55" y="1481">&lt;&gt; skos:relatedMatch  D</tspan>
</text>
</g>
<g id="2002719069"><polygon points="584,214 804,214 804,339 584,339 "
style="fill:#F4D03F; stroke-width:1;stroke:Black;"/>
<text style="font-family:Arial;font-size:12px;kerning:0;word-spacing:-1px;fill:Black;font-weight:bold;">
<tspan x="640" y="229">voaf:Vocabulary (1)</tspan>
</text>
<line x1="588" y1="232" x2="802" y2="232"
 style="stroke-width:1;stroke:Black;"/>
<text style="font-family:Arial;font-size:12px;kerning:0;word-spacing:-1px;fill:Black;">
<tspan x="588" y="244">dc:creator (6) [*] D</tspan>
<tspan x="588" y="259">dc:rights (1) [1] D</tspan>
<tspan x="588" y="274">dct:creator (1) [1] D -&gt; IRI</tspan>
<tspan x="588" y="289">dct:licence (1) [1] D -&gt; IRI</tspan>
<tspan x="588" y="304">dct:modified (1) [1] </tspan>
<tspan x="588" y="319">voaf:classNumber (1) [1] D</tspan>
<tspan x="588" y="334">voaf:propertyNumber (1) [1] D</tspan>
</text>
</g>
<g id="2002719080"><polygon points="595,101 793,101 793,146 595,146 "
style="fill:#F4D03F; stroke-width:1;stroke:Black;"/>
<text style="font-family:Arial;font-size:12px;kerning:0;word-spacing:-1px;fill:Black;font-weight:bold;">
<tspan x="648" y="116">owl:Ontology (2)</tspan>
</text>
<line x1="599" y1="119" x2="791" y2="119"
 style="stroke-width:1;stroke:Black;"/>
<text style="font-family:Arial;font-size:12px;kerning:0;word-spacing:-1px;fill:Black;">
<tspan x="599" y="131">rdf:type (3) [*]  -&gt; IRI</tspan>
</text>
</g>
<g id="2002719091"><polygon points="476,1039 776,1039 776,1119 476,1119 "
style="fill:#F4D03F; stroke-width:1;stroke:Black;"/>
<text style="font-family:Arial;font-size:12px;kerning:0;word-spacing:-1px;fill:Black;font-weight:bold;">
<tspan x="552" y="1054">owl:DatatypeProperty (14)</tspan>
</text>
<line x1="480" y1="1057" x2="774" y2="1057"
 style="stroke-width:1;stroke:Black;"/>
<text style="font-family:Arial;font-size:12px;kerning:0;word-spacing:-1px;fill:Black;">
<tspan x="480" y="1069">rdf:type (24) [*]  -&gt; IRI</tspan>
<tspan x="480" y="1084">rdfs:comment (12) [*] </tspan>
<tspan x="480" y="1099">rdfs:domain (14) [1]  -&gt; IRI</tspan>
<tspan x="480" y="1114">rdfs:label (27) [*] </tspan>
</text>
</g>
<g id="2002719102"><polygon points="816,101 1167,101 1167,290 816,290 "
style="fill:White; stroke-width:1;stroke:Black;"/>
<text style="font-family:Arial;font-size:12px;kerning:0;word-spacing:-1px;fill:Black;">
<tspan x="820" y="115">PREFIX aimsa: &lt;http://aims.fao.org/aos/agrontology#&gt;</tspan>
<tspan x="820" y="130">PREFIX skos: &lt;http://www.w3.org/2004/02/skos/core#&gt;</tspan>
<tspan x="820" y="145">PREFIX owl: &lt;http://www.w3.org/2002/07/owl#&gt;</tspan>
<tspan x="820" y="160">PREFIX rdfs: &lt;http://www.w3.org/2000/01/rdf-schema#&gt;</tspan>
<tspan x="820" y="175">PREFIX dct: &lt;http://purl.org/dc/terms/&gt;</tspan>
<tspan x="820" y="190">PREFIX rdf: &lt;http://www.w3.org/1999/02/22-rdf-syntax-ns#&gt;</tspan>
<tspan x="820" y="205">PREFIX skosxl: &lt;http://www.w3.org/2008/05/skos-xl#&gt;</tspan>
<tspan x="820" y="220">PREFIX voaf: &lt;http://purl.org/vocommons/voaf#&gt;</tspan>
<tspan x="820" y="235">PREFIX aimst: &lt;http://aims.fao.org/aos/agrovoc/temporary/&gt;</tspan>
<tspan x="820" y="250">PREFIX foaf: &lt;http://xmlns.com/foaf/0.1/&gt;</tspan>
<tspan x="820" y="265">PREFIX dc: &lt;http://purl.org/dc/elements/1.1/&gt;</tspan>
<tspan x="820" y="280">PREFIX void: &lt;http://rdfs.org/ns/void#&gt;</tspan>
</text>
</g>
<g id="2002719113"><polygon points="699,1376 892,1376 892,1441 699,1441 "
style="fill:#F4D03F; stroke-width:1;stroke:Black;"/>
<text style="font-family:Arial;font-size:12px;kerning:0;word-spacing:-1px;fill:Black;font-weight:bold;">
<tspan x="763" y="1391">rdf:List (17)</tspan>
</text>
<line x1="703" y1="1394" x2="890" y2="1394"
 style="stroke-width:1;stroke:Black;"/>
<text style="font-family:Arial;font-size:12px;kerning:0;word-spacing:-1px;fill:Black;">
<tspan x="703" y="1406">rdf:first (17) [1] </tspan>
<tspan x="703" y="1421">rdf:type (17) [*]  -&gt; IRI</tspan>
<tspan x="703" y="1436">&lt;&gt; rdf:rest  </tspan>
</text>
</g>
<g id="2002719124"><polygon points="499,967 739,967 739,1012 499,1012 "
style="fill:#F4D03F; stroke-width:1;stroke:Black;"/>
<text style="font-family:Arial;font-size:12px;kerning:0;word-spacing:-1px;fill:Black;font-weight:bold;">
<tspan x="541" y="982">owl:FunctionalProperty (10)</tspan>
</text>
</g>
<g id="2002795420"><polygon points="427,20 772,20 772,72 427,72 "
style="fill:none; stroke-width:1;stroke:Black;"/>
<text style="font-family:Arial;font-size:18px;kerning:0;word-spacing:-1px;fill:Black;font-weight:bold;">
<tspan x="550" y="40">AGROVOC</tspan>
<tspan x="477" y="62">https://agrovoc.fao.org/sparql</tspan>
</text>
</g>
<g id="2002718910"><path d="M351,638 L549,638 "
style="fill:none;stroke-width:1;stroke:Black;"/>
<line x1="543" y1="635" x2="549" y2="638"
 style="stroke-width:1;stroke:Black;"/>
<line x1="543" y1="641" x2="549" y2="638"
 style="stroke-width:1;stroke:Black;"/>
<text style="font-family:Arial;font-size:12px;kerning:0;word-spacing:-1px;fill:Black;">
<tspan x="355" y="621">skosxl:prefLabel  R</tspan>
<tspan x="355" y="636">skosxl:altLabel  R</tspan>
</text>
</g>
<g id="2002718915"><path d="M620,1318 L701,1318 "
style="fill:none;stroke-width:1;stroke:Black;"/>
<line x1="695" y1="1315" x2="701" y2="1318"
 style="stroke-width:1;stroke:Black;"/>
<line x1="695" y1="1321" x2="701" y2="1318"
 style="stroke-width:1;stroke:Black;"/>
<text style="font-family:Arial;font-size:12px;kerning:0;word-spacing:-1px;fill:Black;">
<tspan x="624" y="1316">rdfs:range  </tspan>
</text>
</g>
<g id="2002718920"><path d="M582,378 L351,378 "
style="fill:none;stroke-width:1;stroke:Black;"/>
<line x1="357" y1="375" x2="351" y2="378"
 style="stroke-width:1;stroke:Black;"/>
<line x1="357" y1="381" x2="351" y2="378"
 style="stroke-width:1;stroke:Black;"/>
<text style="font-family:Arial;font-size:12px;kerning:0;word-spacing:-1px;fill:Black;">
<tspan x="436" y="391">skos:hasTopConcept  DR</tspan>
</text>
</g>
<g id="2002718925"><path d="M351,868 L544,868 "
style="fill:none;stroke-width:1;stroke:Black;"/>
<line x1="538" y1="865" x2="544" y2="868"
 style="stroke-width:1;stroke:Black;"/>
<line x1="538" y1="871" x2="544" y2="868"
 style="stroke-width:1;stroke:Black;"/>
<text style="font-family:Arial;font-size:12px;kerning:0;word-spacing:-1px;fill:Black;">
<tspan x="355" y="866">foaf:depiction  DR</tspan>
</text>
</g>
<g id="2002718930"><path d="M351,434 L582,434 "
style="fill:none;stroke-width:1;stroke:Black;"/>
<line x1="576" y1="431" x2="582" y2="434"
 style="stroke-width:1;stroke:Black;"/>
<line x1="576" y1="437" x2="582" y2="434"
 style="stroke-width:1;stroke:Black;"/>
<text style="font-family:Arial;font-size:12px;kerning:0;word-spacing:-1px;fill:Black;">
<tspan x="355" y="417">skos:inScheme  DR</tspan>
<tspan x="355" y="432">skos:topConceptOf  DR</tspan>
</text>
</g>
<g id="2002718935"><path d="M689,448 L689,488 "
style="fill:none;stroke-width:1;stroke:Black;"/>
<line x1="686" y1="482" x2="689" y2="488"
 style="stroke-width:1;stroke:Black;"/>
<line x1="692" y1="482" x2="689" y2="488"
 style="stroke-width:1;stroke:Black;"/>
<text style="font-family:Arial;font-size:12px;kerning:0;word-spacing:-1px;fill:Black;">
<tspan x="691" y="463">skosxl:prefLabel  R</tspan>
</text>
</g>
<g id="2002718940"><path d="M538,1119 L538,1166 "
style="fill:none;stroke-width:1;stroke:Black;"/>
<line x1="535" y1="1160" x2="538" y2="1166"
 style="stroke-width:1;stroke:Black;"/>
<line x1="541" y1="1160" x2="538" y2="1166"
 style="stroke-width:1;stroke:Black;"/>
<text style="font-family:Arial;font-size:12px;kerning:0;word-spacing:-1px;fill:Black;">
<tspan x="540" y="1134">rdfs:range  </tspan>
</text>
</g>
<g id="2002718945"><path d="M796,1343 L796,1376 "
style="fill:none;stroke-width:1;stroke:Black;"/>
<line x1="793" y1="1370" x2="796" y2="1376"
 style="stroke-width:1;stroke:Black;"/>
<line x1="799" y1="1370" x2="796" y2="1376"
 style="stroke-width:1;stroke:Black;"/>
<text style="font-family:Arial;font-size:12px;kerning:0;word-spacing:-1px;fill:Black;">
<tspan x="798" y="1358">owl:oneOf  DR</tspan>
</text>
</g>
<g id="2002718950"><path d="M692,339 L692,368 "
style="fill:none;stroke-width:1;stroke:Black;"/>
<line x1="689" y1="362" x2="692" y2="368"
 style="stroke-width:1;stroke:Black;"/>
<line x1="695" y1="362" x2="692" y2="368"
 style="stroke-width:1;stroke:Black;"/>
<text style="font-family:Arial;font-size:12px;kerning:0;word-spacing:-1px;fill:Black;">
<tspan x="694" y="354">voaf:dataset  D</tspan>
</text>
</g>
<g id="2002718955"><path d="M614,1119 L614,1292 "
style="fill:none;stroke-width:1;stroke:Black;"/>
<line x1="611" y1="1286" x2="614" y2="1292"
 style="stroke-width:1;stroke:Black;"/>
<line x1="617" y1="1286" x2="614" y2="1292"
 style="stroke-width:1;stroke:Black;"/>
<text style="font-family:Arial;font-size:12px;kerning:0;word-spacing:-1px;fill:Black;">
<tspan x="616" y="1134">rdfs:subPropertyOf  </tspan>
</text>
</g>
<g id="2002718960"><path d="M770,1119 L770,1293 "
style="fill:none;stroke-width:1;stroke:Black;"/>
<line x1="767" y1="1287" x2="770" y2="1293"
 style="stroke-width:1;stroke:Black;"/>
<line x1="773" y1="1287" x2="770" y2="1293"
 style="stroke-width:1;stroke:Black;"/>
<text style="font-family:Arial;font-size:12px;kerning:0;word-spacing:-1px;fill:Black;">
<tspan x="772" y="1134">rdfs:range  </tspan>
</text>
</g>
<g id="2002718965"><path d="M722,146 L722,214 "
style="fill:none;stroke-width:1;stroke:Black;"/>
<line x1="719" y1="208" x2="722" y2="214"
 style="stroke-width:1;stroke:Black;"/>
<line x1="725" y1="208" x2="722" y2="214"
 style="stroke-width:1;stroke:Black;"/>
<text style="font-family:Arial;font-size:12px;kerning:0;word-spacing:-1px;fill:Black;">
<tspan x="724" y="161">owl:imports  D</tspan>
</text>
</g>
<g id="2002718970"><path d="M501,1292 L501,1246 "
style="fill:none;stroke-width:1;stroke:Black;"/>
<line x1="498" y1="1252" x2="501" y2="1246"
 style="stroke-width:1;stroke:Black;"/>
<line x1="504" y1="1252" x2="501" y2="1246"
 style="stroke-width:1;stroke:Black;"/>
<text style="font-family:Arial;font-size:12px;kerning:0;word-spacing:-1px;fill:Black;">
<tspan x="437" y="1288">rdfs:range  </tspan>
</text>
</g>
<g id="2002718975"><path d="M517,1417 L517,1480 "
style="fill:none;stroke-width:2;stroke:Fuchsia;"/>
<polygon points="522,1427 517,1417 512,1427 "
style="fill:Silver;stroke-width:1;stroke:Black;"/>
<text style="font-family:Arial;font-size:12px;kerning:0;word-spacing:-1px;fill:Black;">
<tspan x="519" y="1432"> </tspan>
</text>
</g>
<g id="2002718977"><path d="M619,1039 L619,1012 "
style="fill:none;stroke-width:2;stroke:Fuchsia;"/>
<polygon points="624,1029 619,1039 614,1029 "
style="fill:Silver;stroke-width:1;stroke:Black;"/>
<text style="font-family:Arial;font-size:12px;kerning:0;word-spacing:-1px;fill:Black;">
<tspan x="607" y="1035"> </tspan>
</text>
</g>
<g id="2002718979"><path d="M663,146 L663,214 "
style="fill:none;stroke-width:2;stroke:Fuchsia;"/>
<polygon points="668,156 663,146 658,156 "
style="fill:Silver;stroke-width:1;stroke:Black;"/>
<text style="font-family:Arial;font-size:12px;kerning:0;word-spacing:-1px;fill:Black;">
<tspan x="665" y="161"> </tspan>
</text>
</g>
</svg>
