<?xml version="1.0" encoding="UTF-8" standalone="no"?>
<!DOCTYPE svg PUBLIC "-//W3C//DTD SVG 1.1//EN"
"http://www.w3.org/Graphics/SVG/1.1/DTD/svg11.dtd">
<svg version="1.1" xmlns="http://www.w3.org/2000/svg"
xmlns:xlink="http://www.w3.org/1999/xlink" xml:space="preserve"
 width="768" height="494" viewBox="0 0 768 494">
 onmousemove="movetip(evt)" onmouseup="endmove()">
<rect x="0" y="0" width="100%" height="100%" style="fill:White;"/>
<script type="application/ecmascript"> <![CDATA[
var dragtipid = null; var dragcase = false; function init(evt){
if (window.svgDocument==null) svgDocument = evt.target.ownerDocument;
}
function movetip(evt){if (dragtipid!=null){ dragcase = true;
var tip=svgDocument.getElementById(dragtipid);
tip.setAttributeNS(null,"x",evt.clientX-2);
tip.setAttributeNS(null,"y",evt.clientY-2);
}}
function endmove(){dragtipid = null;}
function startmove(evt,id){dragtipid = id; dragcase = false;
var tip=svgDocument.getElementById(dragtipid);
tip.setAttributeNS(null,"x",evt.clientX-2);
tip.setAttributeNS(null,"y",evt.clientY-2);
}
function Showtip(evt,id){ dragtipid = null;
var tip=svgDocument.getElementById(id);
var vis=tip.getAttributeNS(null,"visibility");
if (vis=="hidden"){
tip.setAttributeNS(null,"x",evt.clientX-2);
tip.setAttributeNS(null,"y",evt.clientY-2);
tip.setAttributeNS(null,"visibility","visible");
}}
function Hidetip(id){ dragtipid = null; if (dragcase==false){
var tip=svgDocument.getElementById(id);
tip.setAttributeNS(null,"visibility","hidden");
}}
]]></script>
<defs><linearGradient id="activ1" x1="0%" y1="0%" x2="100%" y2="0%">
<stop offset="0%" style="stop-color:#FFFF00;stop-opacity:1"/>
<stop offset="100%" style="stop-color:#FFFFF0;stop-opacity:1"/>
</linearGradient></defs>
<g id="2002718775"><polygon points="507,220 724,220 724,300 507,300 "
style="fill:#F4D03F; stroke-width:1;stroke:Black;"/>
<text style="font-family:Arial;font-size:12px;kerning:0;word-spacing:-1px;fill:Black;font-weight:bold;">
<tspan x="578" y="235">owl:Class (3)</tspan>
</text>
<line x1="511" y1="238" x2="722" y2="238"
 style="stroke-width:1;stroke:Black;"/>
<text style="font-family:Arial;font-size:12px;kerning:0;word-spacing:-1px;fill:Black;">
<tspan x="511" y="250">owl:unionOf (1) [1] D -&gt; IRI</tspan>
<tspan x="511" y="265">rdf:type (3) [*]  -&gt; IRI</tspan>
<tspan x="511" y="280">rdfs:label (2) [1] </tspan>
<tspan x="511" y="295">&lt;&gt; owl:complementOf  DR</tspan>
</text>
</g>
<g id="2002718786"><polygon points="390,114 758,114 758,200 390,200 "
style="fill:White; stroke-width:1;stroke:Black;"/>
<text style="font-family:Arial;font-size:12px;kerning:0;word-spacing:-1px;fill:Black;">
<tspan x="394" y="128">PREFIX virtrdf: &lt;http://www.openlinksw.com/schemas/virtrdf#&gt;</tspan>
<tspan x="394" y="143">PREFIX owl: &lt;http://www.w3.org/2002/07/owl#&gt;</tspan>
<tspan x="394" y="158">PREFIX rdfs: &lt;http://www.w3.org/2000/01/rdf-schema#&gt;</tspan>
<tspan x="394" y="173">PREFIX sd: &lt;http://www.w3.org/ns/sparql-service-description#&gt;</tspan>
<tspan x="394" y="188">PREFIX rdf: &lt;http://www.w3.org/1999/02/22-rdf-syntax-ns#&gt;</tspan>
</text>
</g>
<g id="2002718797"><polygon points="84,297 384,297 384,342 84,342 "
style="fill:#F4D03F; stroke-width:1;stroke:Black;"/>
<text style="font-family:Arial;font-size:12px;kerning:0;word-spacing:-1px;fill:Black;font-weight:bold;">
<tspan x="163" y="312">owl:OntologyProperty (4)</tspan>
</text>
</g>
<g id="2002718808"><polygon points="84,374 384,374 384,484 84,484 "
style="fill:#F4D03F; stroke-width:1;stroke:Black;"/>
<text style="font-family:Arial;font-size:12px;kerning:0;word-spacing:-1px;fill:Black;font-weight:bold;">
<tspan x="188" y="389">owl:Ontology (1)</tspan>
</text>
<line x1="88" y1="392" x2="382" y2="392"
 style="stroke-width:1;stroke:Black;"/>
<text style="font-family:Arial;font-size:12px;kerning:0;word-spacing:-1px;fill:Black;">
<tspan x="88" y="404">owl:imports (1) [1] D -&gt; IRI</tspan>
<tspan x="88" y="419">owl:priorVersion (1) [1] D -&gt; IRI</tspan>
<tspan x="88" y="434">owl:versionInfo (1) [1] D</tspan>
<tspan x="88" y="449">rdf:type (1) [*]  -&gt; IRI</tspan>
<tspan x="88" y="464">rdfs:comment (1) [1] D</tspan>
<tspan x="88" y="479">rdfs:isDefinedBy (3) [*] D -&gt; IRI</tspan>
</text>
</g>
<g id="2002718819"><polygon points="84,97 384,97 384,207 84,207 "
style="fill:#F4D03F; stroke-width:1;stroke:Black;"/>
<text style="font-family:Arial;font-size:12px;kerning:0;word-spacing:-1px;fill:Black;font-weight:bold;">
<tspan x="195" y="112">sd:Service (1)</tspan>
</text>
<line x1="88" y1="115" x2="382" y2="115"
 style="stroke-width:1;stroke:Black;"/>
<text style="font-family:Arial;font-size:12px;kerning:0;word-spacing:-1px;fill:Black;">
<tspan x="88" y="127">rdf:type (1) [*]  -&gt; IRI</tspan>
<tspan x="88" y="142">sd:feature (2) [*] D -&gt; IRI</tspan>
<tspan x="88" y="157">sd:resultFormat (8) [*] D -&gt; IRI</tspan>
<tspan x="88" y="172">sd:supportedLanguage (1) [1] D -&gt; IRI</tspan>
<tspan x="88" y="187">&lt;&gt; sd:endpoint  DR</tspan>
<tspan x="88" y="202">&lt;&gt; sd:url  DR</tspan>
</text>
</g>
<g id="2002718830"><polygon points="84,213 384,213 384,278 84,278 "
style="fill:#F4D03F; stroke-width:1;stroke:Black;"/>
<text style="font-family:Arial;font-size:12px;kerning:0;word-spacing:-1px;fill:Black;font-weight:bold;">
<tspan x="188" y="228">rdf:Property (23)</tspan>
</text>
<line x1="88" y1="231" x2="382" y2="231"
 style="stroke-width:1;stroke:Black;"/>
<text style="font-family:Arial;font-size:12px;kerning:0;word-spacing:-1px;fill:Black;">
<tspan x="88" y="243">rdf:type (28) [*]  -&gt; IRI</tspan>
<tspan x="88" y="258">rdfs:label (23) [1] </tspan>
<tspan x="88" y="273">rdfs:subPropertyOf (2) [1] D -&gt; IRI</tspan>
</text>
</g>
<g id="2002718841"><polygon points="515,335 724,335 724,380 515,380 "
style="fill:#F4D03F; stroke-width:1;stroke:Black;"/>
<text style="font-family:Arial;font-size:12px;kerning:0;word-spacing:-1px;fill:Black;font-weight:bold;">
<tspan x="543" y="350">owl:AnnotationProperty (5)</tspan>
</text>
<line x1="519" y1="353" x2="722" y2="353"
 style="stroke-width:1;stroke:Black;"/>
<text style="font-family:Arial;font-size:12px;kerning:0;word-spacing:-1px;fill:Black;">
<tspan x="519" y="365">rdf:type (6) [*]  -&gt; IRI</tspan>
</text>
</g>
<g id="2002795770"><polygon points="225,26 602,26 602,78 225,78 "
style="fill:none; stroke-width:1;stroke:Black;"/>
<text style="font-family:Arial;font-size:18px;kerning:0;word-spacing:-1px;fill:Black;font-weight:bold;">
<tspan x="351" y="46">SS-Framework</tspan>
<tspan x="262" y="68">http://www.ss-framework.com/sparql</tspan>
</text>
</g>
<g id="2002718768"><path d="M384,264 L507,264 "
style="fill:none;stroke-width:1;stroke:Black;"/>
<line x1="501" y1="261" x2="507" y2="264"
 style="stroke-width:1;stroke:Black;"/>
<line x1="501" y1="267" x2="507" y2="264"
 style="stroke-width:1;stroke:Black;"/>
<text style="font-family:Arial;font-size:12px;kerning:0;word-spacing:-1px;fill:Black;">
<tspan x="388" y="247">rdfs:domain  D</tspan>
<tspan x="388" y="262">rdfs:range  D</tspan>
</text>
</g>
<g id="2002718773"><path d="M236,278 L236,297 "
style="fill:none;stroke-width:2;stroke:Fuchsia;"/>
<polygon points="241,288 236,278 231,288 "
style="fill:Silver;stroke-width:1;stroke:Black;"/>
<text style="font-family:Arial;font-size:12px;kerning:0;word-spacing:-1px;fill:Black;">
<tspan x="238" y="293"> </tspan>
</text>
</g>
</svg>
