<?xml version="1.0" encoding="UTF-8" standalone="no"?>
<!DOCTYPE svg PUBLIC "-//W3C//DTD SVG 1.1//EN"
"http://www.w3.org/Graphics/SVG/1.1/DTD/svg11.dtd">
<svg version="1.1" xmlns="http://www.w3.org/2000/svg"
xmlns:xlink="http://www.w3.org/1999/xlink" xml:space="preserve"
 width="736" height="466" viewBox="0 0 736 466">
 onmousemove="movetip(evt)" onmouseup="endmove()">
<rect x="0" y="0" width="100%" height="100%" style="fill:White;"/>
<script type="application/ecmascript"> <![CDATA[
var dragtipid = null; var dragcase = false; function init(evt){
if (window.svgDocument==null) svgDocument = evt.target.ownerDocument;
}
function movetip(evt){if (dragtipid!=null){ dragcase = true;
var tip=svgDocument.getElementById(dragtipid);
tip.setAttributeNS(null,"x",evt.clientX-2);
tip.setAttributeNS(null,"y",evt.clientY-2);
}}
function endmove(){dragtipid = null;}
function startmove(evt,id){dragtipid = id; dragcase = false;
var tip=svgDocument.getElementById(dragtipid);
tip.setAttributeNS(null,"x",evt.clientX-2);
tip.setAttributeNS(null,"y",evt.clientY-2);
}
function Showtip(evt,id){ dragtipid = null;
var tip=svgDocument.getElementById(id);
var vis=tip.getAttributeNS(null,"visibility");
if (vis=="hidden"){
tip.setAttributeNS(null,"x",evt.clientX-2);
tip.setAttributeNS(null,"y",evt.clientY-2);
tip.setAttributeNS(null,"visibility","visible");
}}
function Hidetip(id){ dragtipid = null; if (dragcase==false){
var tip=svgDocument.getElementById(id);
tip.setAttributeNS(null,"visibility","hidden");
}}
]]></script>
<defs><linearGradient id="activ1" x1="0%" y1="0%" x2="100%" y2="0%">
<stop offset="0%" style="stop-color:#FFFF00;stop-opacity:1"/>
<stop offset="100%" style="stop-color:#FFFFF0;stop-opacity:1"/>
</linearGradient></defs>
<g id="2002680569"><polygon points="244,10 424,10 424,265 244,265 "
style="fill:#F4D03F; stroke-width:1;stroke:Black;"/>
<text style="font-family:Arial;font-size:7px;kerning:0;word-spacing:-1px;fill:Black;font-weight:bold;">
<tspan x="298" y="19">skos:Concept (3.5e5)</tspan>
</text>
<line x1="247" y1="20" x2="423" y2="20"
 style="stroke-width:1;stroke:Black;"/>
<text style="font-family:Arial;font-size:7px;kerning:0;word-spacing:-1px;fill:Black;">
<tspan x="247" y="27">dc:identifier (3.5e5) [*] D</tspan>
<tspan x="247" y="36">dct:date (2.6e5) [1] </tspan>
<tspan x="247" y="45">dct:identifier (3.5e5) [*] D</tspan>
<tspan x="247" y="54">dct:modified (5287) [*] D</tspan>
<tspan x="247" y="63">owl:deprecated (2.7e5) [*] D</tspan>
<tspan x="247" y="72">owl:versionInfo (3.5e5) [*] </tspan>
<tspan x="247" y="81">pav:authoredOn (3.5e5) [*] D</tspan>
<tspan x="247" y="90">pav:version (3.5e5) [1] D</tspan>
<tspan x="247" y="99">rdf:type (3.5e5) [*]  -&gt; IRI</tspan>
<tspan x="247" y="108">skos:altLabel (3.5e5) [*] </tspan>
<tspan x="247" y="117">skos:closeMatch (36) [1] D -&gt; IRI</tspan>
<tspan x="247" y="126">skos:definition (3.5e5) [*] D</tspan>
<tspan x="247" y="135">skos:notation (3.5e5) [*] D</tspan>
<tspan x="247" y="144">skos:note (3.5e5) [*] D</tspan>
<tspan x="247" y="153">skos:prefLabel (3.5e5) [*] </tspan>
<tspan x="247" y="162">void:inDataset (2.7e5) [1] D -&gt; IRI</tspan>
</text>
</g>
<g id="2002680602"><polygon points="550,395 730,395 730,452 550,452 "
style="fill:#F4D03F; stroke-width:1;stroke:Black;"/>
<text style="font-family:Arial;font-size:7px;kerning:0;word-spacing:-1px;fill:Black;font-weight:bold;">
<tspan x="602" y="405">altr:Representation (3)</tspan>
</text>
<line x1="553" y1="406" x2="729" y2="406"
 style="stroke-width:1;stroke:Black;"/>
<text style="font-family:Arial;font-size:7px;kerning:0;word-spacing:-1px;fill:Black;">
<tspan x="553" y="413">altr:isProfilesDefault (3) [1] D</tspan>
<tspan x="553" y="422">dct:conformsTo (3) [*]  -&gt; IRI</tspan>
<tspan x="553" y="431">dct:format (3) [1] D</tspan>
<tspan x="553" y="440">prof:hasToken (3) [1] D</tspan>
<tspan x="553" y="449">rdf:type (3) [*]  -&gt; IRI</tspan>
</text>
</g>
<g id="2002680536"><polygon points="514,76 694,76 694,169 514,169 "
style="fill:#F4D03F; stroke-width:1;stroke:Black;"/>
<text style="font-family:Arial;font-size:7px;kerning:0;word-spacing:-1px;fill:Black;font-weight:bold;">
<tspan x="559" y="85">skos:ConceptScheme (21)</tspan>
</text>
<line x1="517" y1="87" x2="693" y2="87"
 style="stroke-width:1;stroke:Black;"/>
<text style="font-family:Arial;font-size:7px;kerning:0;word-spacing:-1px;fill:Black;">
<tspan x="517" y="94">dct:alternative (21) [1] </tspan>
<tspan x="517" y="103">dct:creator (21) [1] </tspan>
<tspan x="517" y="112">dct:date (21) [1] </tspan>
<tspan x="517" y="121">dct:publisher (21) [1] </tspan>
<tspan x="517" y="130">dct:title (21) [1] </tspan>
<tspan x="517" y="139">owl:versionInfo (21) [*] </tspan>
<tspan x="517" y="148">rdf:type (21) [*]  -&gt; IRI</tspan>
<tspan x="517" y="157">skos:altLabel (21) [*] </tspan>
<tspan x="517" y="166">skos:prefLabel (21) [*] </tspan>
</text>
</g>
<g id="2002680547"><polygon points="252,403 432,403 432,460 252,460 "
style="fill:#F4D03F; stroke-width:1;stroke:Black;"/>
<text style="font-family:Arial;font-size:7px;kerning:0;word-spacing:-1px;fill:Black;font-weight:bold;">
<tspan x="314" y="412">dcat:Dataset (1)</tspan>
</text>
<line x1="254" y1="413" x2="431" y2="413"
 style="stroke-width:1;stroke:Black;"/>
<text style="font-family:Arial;font-size:7px;kerning:0;word-spacing:-1px;fill:Black;">
<tspan x="254" y="420">dct:hasPart (2) [*] D -&gt; IRI</tspan>
<tspan x="254" y="429">dct:publisher (1) [1] </tspan>
<tspan x="254" y="438">dct:subject (3) [*] D -&gt; IRI</tspan>
<tspan x="254" y="447">dct:title (1) [1] </tspan>
<tspan x="254" y="456">rdf:type (1) [*]  -&gt; IRI</tspan>
</text>
</g>
<g id="2002680558"><polygon points="255,284 435,284 435,359 255,359 "
style="fill:#F4D03F; stroke-width:1;stroke:Black;"/>
<polygon points="253,286 433,286 433,361 253,361 "
style="fill:#F4D03F; stroke-width:1;stroke:Black;"/>
<text style="font-family:Arial;font-size:7px;kerning:0;word-spacing:-1px;fill:Black;font-weight:bold;">
<tspan x="265" y="295">ssom:Mapping or rdf:Statement G101 (9.1e5)</tspan>
</text>
<line x1="256" y1="296" x2="432" y2="296"
 style="stroke-width:1;stroke:Black;"/>
<text style="font-family:Arial;font-size:7px;kerning:0;word-spacing:-1px;fill:Black;">
<tspan x="256" y="303">dc:modified (9.1e5) [1] D</tspan>
<tspan x="256" y="312">rdf:type (1.8e6) [*]  -&gt; IRI</tspan>
<tspan x="256" y="321">registry:status (9.1e5) [1] D -&gt; IRI</tspan>
<tspan x="256" y="330">ssom:mapping_justification (9.1e5) [1] D -&gt; IRI</tspan>
<tspan x="256" y="339">ssom:predicate_id (9.1e5) [1] D -&gt; IRI</tspan>
</text>
<text style="font-family:Arial;font-size:7px;kerning:0;word-spacing:-1px;fill:Black;font-weight:bold;">
<tspan x="256" y="348">rdf:Statement (9.1e5)</tspan>
<tspan x="256" y="357">ssom:Mapping (9.1e5)</tspan>
</text>
</g>
<g id="2002680591"><polygon points="43,276 223,276 223,423 43,423 "
style="fill:#F4D03F; stroke-width:1;stroke:Black;"/>
<text style="font-family:Arial;font-size:7px;kerning:0;word-spacing:-1px;fill:Black;font-weight:bold;">
<tspan x="96" y="285">skos:Collection (300)</tspan>
</text>
<line x1="45" y1="287" x2="221" y2="287"
 style="stroke-width:1;stroke:Black;"/>
<text style="font-family:Arial;font-size:7px;kerning:0;word-spacing:-1px;fill:Black;">
<tspan x="45" y="294">dct:alternative (300) [1] </tspan>
<tspan x="45" y="303">dct:conformsTo (6) [*]  -&gt; IRI</tspan>
<tspan x="45" y="312">dct:creator (300) [1] </tspan>
<tspan x="45" y="321">dct:date (300) [1] </tspan>
<tspan x="45" y="330">dct:license (125) [1] D -&gt; IRI</tspan>
<tspan x="45" y="339">dct:publisher (300) [1] </tspan>
<tspan x="45" y="348">dct:title (300) [1] </tspan>
<tspan x="45" y="357">grg:RE_RegisterManager (300) [1] D</tspan>
<tspan x="45" y="366">grg:RE_RegisterOwner (300) [1] D</tspan>
<tspan x="45" y="375">owl:versionInfo (300) [*] </tspan>
<tspan x="45" y="384">rdf:type (300) [*]  -&gt; IRI</tspan>
<tspan x="45" y="393">rdfs:comment (300) [1] D</tspan>
<tspan x="45" y="402">rdfs:seeAlso (73) [1] D -&gt; IRI</tspan>
<tspan x="45" y="411">skos:altLabel (300) [*] </tspan>
<tspan x="45" y="420">skos:prefLabel (300) [*] </tspan>
</text>
</g>
<g id="2002680580"><polygon points="543,285 723,285 723,361 543,361 "
style="fill:#F4D03F; stroke-width:1;stroke:Black;"/>
<polygon points="541,287 721,287 721,362 541,362 "
style="fill:#F4D03F; stroke-width:1;stroke:Black;"/>
<text style="font-family:Arial;font-size:7px;kerning:0;word-spacing:-1px;fill:Black;font-weight:bold;">
<tspan x="544" y="296">http://xmlns.com/foaf/0.1/Person or http://www.w3.</tspan>
<tspan x="577" y="306">org/ns/prov#Agent G102 (9.1e5)</tspan>
</text>
<line x1="544" y1="307" x2="720" y2="307"
 style="stroke-width:1;stroke:Black;"/>
<text style="font-family:Arial;font-size:7px;kerning:0;word-spacing:-1px;fill:Black;">
<tspan x="544" y="314">org:memberOf (9.1e5) [1] D</tspan>
<tspan x="544" y="323">rdf:type (1.8e6) [*] </tspan>
<tspan x="544" y="332">registry:name (9.1e5) [1] D</tspan>
<tspan x="544" y="341">registry:title (9.1e5) [1] D</tspan>
</text>
<text style="font-family:Arial;font-size:7px;kerning:0;word-spacing:-1px;fill:Black;font-weight:bold;">
<tspan x="544" y="350">http://www.w3.org/ns/prov#Agent (9.1e5)</tspan>
<tspan x="544" y="359">http://xmlns.com/foaf/0.1/Person (9.1e5)</tspan>
</text>
</g>
<g id="2002680501"><path d="M191,276 L191,261 192,259 194,257 244,257 "
style="fill:none;stroke-width:1;stroke:Black;"/>
<line x1="241" y1="256" x2="244" y2="257"
 style="stroke-width:1;stroke:Black;"/>
<line x1="241" y1="259" x2="244" y2="257"
 style="stroke-width:1;stroke:Black;"/>
<text style="font-family:Arial;font-size:7px;kerning:0;word-spacing:-1px;fill:Black;">
<tspan x="129" y="273">skos:member  DR</tspan>
</text>
</g>
<g id="2002680506"><path d="M433,327 L541,327 "
style="fill:none;stroke-width:1;stroke:Black;"/>
<line x1="538" y1="325" x2="541" y2="327"
 style="stroke-width:1;stroke:Black;"/>
<line x1="538" y1="329" x2="541" y2="327"
 style="stroke-width:1;stroke:Black;"/>
<text style="font-family:Arial;font-size:7px;kerning:0;word-spacing:-1px;fill:Black;">
<tspan x="436" y="326">registry:submitter  DR</tspan>
</text>
</g>
<g id="2002680511"><path d="M244,13 L122,13 119,12 118,10 118,10 119,7 122,6 335,6 335,10 "
style="fill:none;stroke-width:1;stroke:Black;"/>
<line x1="334" y1="6" x2="335" y2="10"
 style="stroke-width:1;stroke:Black;"/>
<line x1="337" y1="6" x2="335" y2="10"
 style="stroke-width:1;stroke:Black;"/>
<text style="font-family:Arial;font-size:7px;kerning:0;word-spacing:-1px;fill:Black;">
<tspan x="123" y="21">dct:isVersionOf  D</tspan>
<tspan x="123" y="30">dct:isReplacedBy  DR</tspan>
<tspan x="123" y="39">dct:replaces  DR</tspan>
<tspan x="123" y="48">ont:hasProperty  DR</tspan>
<tspan x="123" y="57">ont:hasObjectOfInterest  DR</tspan>
<tspan x="123" y="66">ont:hasMatrix  DR</tspan>
<tspan x="123" y="75">ont:hasApplicableProperty  DR</tspan>
<tspan x="123" y="84">ont:hasApplicableObjectOfInterest  </tspan>
<tspan x="123" y="93">DR</tspan>
<tspan x="123" y="102">ont:hasApplicableMatrix  DR</tspan>
<tspan x="123" y="111">ont:hasApplicableContextObject  DR</tspan>
<tspan x="123" y="120">owl:sameAs  D</tspan>
<tspan x="123" y="129">pav:hasCurrentVersion  DR</tspan>
<tspan x="123" y="138">pav:previousVersion  DR</tspan>
<tspan x="123" y="147">pav:hasVersion  DR</tspan>
<tspan x="123" y="156">puv:property  DR</tspan>
<tspan x="123" y="165">puv:matrix  DR</tspan>
<tspan x="123" y="174">puv:chemicalObject  DR</tspan>
<tspan x="123" y="183">puv:statistic  DR</tspan>
<tspan x="123" y="192">qudt:hasQuantityKind  DR</tspan>
<tspan x="123" y="201">skos:related  D</tspan>
<tspan x="123" y="210">skos:broader  D</tspan>
<tspan x="123" y="219">skos:narrower  D</tspan>
<tspan x="123" y="228">skos:exactMatch  D</tspan>
<tspan x="123" y="237">skos:broadMatch  D</tspan>
<tspan x="123" y="246">skos:narrowMatch  DR</tspan>
</text>
</g>
<g id="2002680516"><path d="M424,154 L514,154 "
style="fill:none;stroke-width:1;stroke:Black;"/>
<line x1="511" y1="152" x2="514" y2="154"
 style="stroke-width:1;stroke:Black;"/>
<line x1="511" y1="156" x2="514" y2="154"
 style="stroke-width:1;stroke:Black;"/>
<text style="font-family:Arial;font-size:7px;kerning:0;word-spacing:-1px;fill:Black;">
<tspan x="427" y="144">skos:inScheme  DR</tspan>
<tspan x="427" y="153">skos:topConceptOf  DR</tspan>
</text>
</g>
<g id="2002680521"><path d="M514,106 L424,106 "
style="fill:none;stroke-width:1;stroke:Black;"/>
<line x1="428" y1="104" x2="424" y2="106"
 style="stroke-width:1;stroke:Black;"/>
<line x1="428" y1="107" x2="424" y2="106"
 style="stroke-width:1;stroke:Black;"/>
<text style="font-family:Arial;font-size:7px;kerning:0;word-spacing:-1px;fill:Black;">
<tspan x="427" y="113">skos:hasTopConcept  DR</tspan>
</text>
</g>
<g id="2002680526"><path d="M432,424 L550,424 "
style="fill:none;stroke-width:1;stroke:Black;"/>
<line x1="547" y1="422" x2="550" y2="424"
 style="stroke-width:1;stroke:Black;"/>
<line x1="547" y1="426" x2="550" y2="424"
 style="stroke-width:1;stroke:Black;"/>
<text style="font-family:Arial;font-size:7px;kerning:0;word-spacing:-1px;fill:Black;">
<tspan x="435" y="414">altr:hasRepresentation  DR</tspan>
<tspan x="435" y="423">altr:hasDefaultRepresentation  DR</tspan>
</text>
</g>
<g id="2002680531"><path d="M433,305 L501,305 503,304 505,301 505,213 503,211 501,209 424,209 "
style="fill:none;stroke-width:1;stroke:Black;"/>
<line x1="428" y1="208" x2="424" y2="209"
 style="stroke-width:1;stroke:Black;"/>
<line x1="428" y1="211" x2="424" y2="209"
 style="stroke-width:1;stroke:Black;"/>
<text style="font-family:Arial;font-size:7px;kerning:0;word-spacing:-1px;fill:Black;">
<tspan x="436" y="294">ssom:subject_id  D</tspan>
<tspan x="436" y="303">ssom:object_id  D</tspan>
</text>
</g>
</svg>
