<?xml version="1.0" encoding="UTF-8" standalone="no"?>
<!DOCTYPE svg PUBLIC "-//W3C//DTD SVG 1.1//EN"
"http://www.w3.org/Graphics/SVG/1.1/DTD/svg11.dtd">
<svg version="1.1" xmlns="http://www.w3.org/2000/svg"
xmlns:xlink="http://www.w3.org/1999/xlink" xml:space="preserve"
 width="1165" height="769" viewBox="0 0 1165 769">
 onmousemove="movetip(evt)" onmouseup="endmove()">
<rect x="0" y="0" width="100%" height="100%" style="fill:White;"/>
<script type="application/ecmascript"> <![CDATA[
var dragtipid = null; var dragcase = false; function init(evt){
if (window.svgDocument==null) svgDocument = evt.target.ownerDocument;
}
function movetip(evt){if (dragtipid!=null){ dragcase = true;
var tip=svgDocument.getElementById(dragtipid);
tip.setAttributeNS(null,"x",evt.clientX-2);
tip.setAttributeNS(null,"y",evt.clientY-2);
}}
function endmove(){dragtipid = null;}
function startmove(evt,id){dragtipid = id; dragcase = false;
var tip=svgDocument.getElementById(dragtipid);
tip.setAttributeNS(null,"x",evt.clientX-2);
tip.setAttributeNS(null,"y",evt.clientY-2);
}
function Showtip(evt,id){ dragtipid = null;
var tip=svgDocument.getElementById(id);
var vis=tip.getAttributeNS(null,"visibility");
if (vis=="hidden"){
tip.setAttributeNS(null,"x",evt.clientX-2);
tip.setAttributeNS(null,"y",evt.clientY-2);
tip.setAttributeNS(null,"visibility","visible");
}}
function Hidetip(id){ dragtipid = null; if (dragcase==false){
var tip=svgDocument.getElementById(id);
tip.setAttributeNS(null,"visibility","hidden");
}}
]]></script>
<defs><linearGradient id="activ1" x1="0%" y1="0%" x2="100%" y2="0%">
<stop offset="0%" style="stop-color:#FFFF00;stop-opacity:1"/>
<stop offset="100%" style="stop-color:#FFFFF0;stop-opacity:1"/>
</linearGradient></defs>
<g id="2002724624"><polygon points="784,649 1008,649 1008,759 784,759 "
style="fill:#F4D03F; stroke-width:1;stroke:Black;"/>
<text style="font-family:Arial;font-size:12px;kerning:0;word-spacing:-1px;fill:Black;font-weight:bold;">
<tspan x="850" y="664">owl:Ontology (1)</tspan>
</text>
<line x1="788" y1="667" x2="1006" y2="667"
 style="stroke-width:1;stroke:Black;"/>
<text style="font-family:Arial;font-size:12px;kerning:0;word-spacing:-1px;fill:Black;">
<tspan x="788" y="679">owl:imports (1) [1] D -&gt; IRI</tspan>
<tspan x="788" y="694">owl:priorVersion (1) [1] D -&gt; IRI</tspan>
<tspan x="788" y="709">owl:versionInfo (1) [1] D</tspan>
<tspan x="788" y="724">rdf:type (1) [*]  -&gt; IRI</tspan>
<tspan x="788" y="739">rdfs:comment (1) [*] </tspan>
<tspan x="788" y="754">rdfs:isDefinedBy (3) [*] D -&gt; IRI</tspan>
</text>
</g>
<g id="2002724635"><polygon points="990,228 1153,228 1153,273 990,273 "
style="fill:#F4D03F; stroke-width:1;stroke:Black;"/>
<text style="font-family:Arial;font-size:12px;kerning:0;word-spacing:-1px;fill:Black;font-weight:bold;">
<tspan x="1000" y="243">owl:OntologyProperty (4)</tspan>
</text>
</g>
<g id="2002724646"><polygon points="784,598 1008,598 1008,643 784,643 "
style="fill:#F4D03F; stroke-width:1;stroke:Black;"/>
<text style="font-family:Arial;font-size:12px;kerning:0;word-spacing:-1px;fill:Black;font-weight:bold;">
<tspan x="820" y="613">owl:AnnotationProperty (5)</tspan>
</text>
<line x1="788" y1="616" x2="1006" y2="616"
 style="stroke-width:1;stroke:Black;"/>
<text style="font-family:Arial;font-size:12px;kerning:0;word-spacing:-1px;fill:Black;">
<tspan x="788" y="628">rdf:type (6) [*]  -&gt; IRI</tspan>
</text>
</g>
<g id="2002724657"><polygon points="58,387 358,387 358,482 58,482 "
style="fill:#F4D03F; stroke-width:1;stroke:Black;"/>
<text style="font-family:Arial;font-size:12px;kerning:0;word-spacing:-1px;fill:Black;font-weight:bold;">
<tspan x="139" y="402">mschema:CATA (2.9e5)</tspan>
</text>
<line x1="62" y1="405" x2="356" y2="405"
 style="stroke-width:1;stroke:Black;"/>
<text style="font-family:Arial;font-size:12px;kerning:0;word-spacing:-1px;fill:Black;">
<tspan x="62" y="417">mschema:dir (2.9e5) [1] D</tspan>
<tspan x="62" y="432">mschema:lb (2.9e5 16%d) [1] D -&gt; IRI</tspan>
<tspan x="62" y="447">mschema:ub (2.9e5 19%d) [1] D -&gt; IRI</tspan>
<tspan x="62" y="462">rdf:type (2.9e5) [*]  -&gt; IRI</tspan>
<tspan x="62" y="477">rdfs:label (2.9e5) [*] </tspan>
</text>
</g>
<g id="2002724668"><polygon points="458,481 687,481 687,756 458,756 "
style="fill:#F4D03F; stroke-width:1;stroke:Black;"/>
<text style="font-family:Arial;font-size:12px;kerning:0;word-spacing:-1px;fill:Black;font-weight:bold;">
<tspan x="501" y="496">mschema:CHEM (5.5e6)</tspan>
</text>
<line x1="462" y1="499" x2="685" y2="499"
 style="stroke-width:1;stroke:Black;"/>
<text style="font-family:Arial;font-size:12px;kerning:0;word-spacing:-1px;fill:Black;">
<tspan x="462" y="511">mschema:charge (1.7e7) [*] D</tspan>
<tspan x="462" y="526">mschema:chemInMNXref (2.2e7) [1] D</tspan>
<tspan x="462" y="541">mschema:formula (1.7e7) [*] D</tspan>
<tspan x="462" y="556">mschema:inchi (1.6e7) [*] D</tspan>
<tspan x="462" y="571">mschema:inchikey (1.6e7) [*] D</tspan>
<tspan x="462" y="586">mschema:mass (6.2e6) [*] D</tspan>
<tspan x="462" y="601">mschema:smiles (1.8e7) [*] D</tspan>
<tspan x="462" y="616">owl:deprecated (1.9e6) [1] </tspan>
<tspan x="462" y="631">rdf:type (2.2e7) [*]  -&gt; IRI</tspan>
<tspan x="462" y="646">rdfs:comment (2.0e7) [*] </tspan>
<tspan x="462" y="661">rdfs:label (2.2e7) [*] </tspan>
<tspan x="462" y="676">&lt;&gt; mschema:chemIsom  DR</tspan>
<tspan x="462" y="691">&lt;&gt; mschema:chemRefer  D</tspan>
<tspan x="462" y="706">&lt;&gt; mschema:chemReplacedBy  D</tspan>
<tspan x="462" y="721">&lt;&gt; mschema:chemSource  D</tspan>
<tspan x="462" y="736">&lt;&gt; mschema:chemXref  D</tspan>
<tspan x="462" y="751">&lt;&gt; mschema:hasIsomericChild  D</tspan>
</text>
</g>
<g id="2002724679"><polygon points="779,370 1155,370 1155,470 779,470 "
style="fill:White; stroke-width:1;stroke:Black;"/>
<text style="font-family:Arial;font-size:12px;kerning:0;word-spacing:-1px;fill:Black;">
<tspan x="783" y="384">PREFIX virtrdf: &lt;http://www.openlinksw.com/schemas/virtrdf#&gt;</tspan>
<tspan x="783" y="399">PREFIX mschema: &lt;https://rdf.metanetx.org/schema/&gt;</tspan>
<tspan x="783" y="414">PREFIX owl: &lt;http://www.w3.org/2002/07/owl#&gt;</tspan>
<tspan x="783" y="429">PREFIX rdfs: &lt;http://www.w3.org/2000/01/rdf-schema#&gt;</tspan>
<tspan x="783" y="444">PREFIX sd: &lt;http://www.w3.org/ns/sparql-service-description#&gt;</tspan>
<tspan x="783" y="459">PREFIX rdf: &lt;http://www.w3.org/1999/02/22-rdf-syntax-ns#&gt;</tspan>
</text>
</g>
<g id="2002724690"><polygon points="803,200 955,200 955,250 803,250 "
style="fill:#F4D03F; stroke-width:1;stroke:Black;"/>
<text style="font-family:Arial;font-size:12px;kerning:0;word-spacing:-1px;fill:Black;font-weight:bold;">
<tspan x="840" y="215">rdf:Propert (4)</tspan>
</text>
<line x1="807" y1="218" x2="953" y2="218"
 style="stroke-width:1;stroke:Black;"/>
<text style="font-family:Arial;font-size:12px;kerning:0;word-spacing:-1px;fill:Black;">
<tspan x="807" y="230">rdf:type (16) [*]  -&gt; IRI</tspan>
<tspan x="807" y="245">rdfs:comment (16) [*] </tspan>
</text>
</g>
<g id="2002724701"><polygon points="58,610 358,610 358,750 58,750 "
style="fill:#F4D03F; stroke-width:1;stroke:Black;"/>
<text style="font-family:Arial;font-size:12px;kerning:0;word-spacing:-1px;fill:Black;font-weight:bold;">
<tspan x="139" y="625">mschema:PEPT (2.9e5)</tspan>
</text>
<line x1="62" y1="628" x2="356" y2="628"
 style="stroke-width:1;stroke:Black;"/>
<text style="font-family:Arial;font-size:12px;kerning:0;word-spacing:-1px;fill:Black;">
<tspan x="62" y="640">mschema:geneName (2.3e6) [*] D</tspan>
<tspan x="62" y="655">mschema:peptRefer (9.9e5) [1] D -&gt; IRI</tspan>
<tspan x="62" y="670">mschema:peptSource (9.9e5) [1] D -&gt; IRI</tspan>
<tspan x="62" y="685">mschema:peptXref (9.9e5) [1] D -&gt; IRI</tspan>
<tspan x="62" y="700">rdf:type (1.1e6) [*]  -&gt; IRI</tspan>
<tspan x="62" y="715">rdfs:comment (1.1e6) [*] </tspan>
<tspan x="62" y="730">rdfs:label (1.1e6) [*] </tspan>
</text>
</g>
<g id="2002724712"><polygon points="56,13 356,13 356,228 56,228 "
style="fill:#F4D03F; stroke-width:1;stroke:Black;"/>
<text style="font-family:Arial;font-size:12px;kerning:0;word-spacing:-1px;fill:Black;font-weight:bold;">
<tspan x="136" y="28">mschema:REAC (7.8e5)</tspan>
</text>
<line x1="60" y1="31" x2="354" y2="31"
 style="stroke-width:1;stroke:Black;"/>
<text style="font-family:Arial;font-size:12px;kerning:0;word-spacing:-1px;fill:Black;">
<tspan x="60" y="43">mschema:classification (6.3e5) [*] D</tspan>
<tspan x="60" y="58">mschema:isBalanced (1.2e6) [*] D</tspan>
<tspan x="60" y="73">mschema:isTransport (1.2e6) [*] D</tspan>
<tspan x="60" y="88">mschema:reacInMNXref (2.9e6) [1] D</tspan>
<tspan x="60" y="103">mschema:reacRefer (1.2e6) [*] D -&gt; IRI</tspan>
<tspan x="60" y="118">mschema:reacSource (1.2e6) [*] D -&gt; IRI</tspan>
<tspan x="60" y="133">mschema:reacXref (5.7e6) [*] D -&gt; IRI</tspan>
<tspan x="60" y="148">owl:deprecated (1.1e6) [1] </tspan>
<tspan x="60" y="163">rdf:type (2.9e6) [*]  -&gt; IRI</tspan>
<tspan x="60" y="178">rdfs:comment (1.8e6) [*] </tspan>
<tspan x="60" y="193">rdfs:label (2.9e6) [*] </tspan>
<tspan x="60" y="208">&lt;&gt; mschema:mnxr  DR</tspan>
<tspan x="60" y="223">&lt;&gt; mschema:reacReplacedBy  D</tspan>
</text>
</g>
<g id="2002724723"><polygon points="458,118 685,118 685,243 458,243 "
style="fill:#F4D03F; stroke-width:1;stroke:Black;"/>
<text style="font-family:Arial;font-size:12px;kerning:0;word-spacing:-1px;fill:Black;font-weight:bold;">
<tspan x="505" y="133">mschema:COMP (204)</tspan>
</text>
<line x1="462" y1="136" x2="683" y2="136"
 style="stroke-width:1;stroke:Black;"/>
<text style="font-family:Arial;font-size:12px;kerning:0;word-spacing:-1px;fill:Black;">
<tspan x="462" y="148">mschema:compInMNXref (728) [1] D</tspan>
<tspan x="462" y="163">rdf:type (744) [*]  -&gt; IRI</tspan>
<tspan x="462" y="178">rdfs:comment (760) [*] </tspan>
<tspan x="462" y="193">rdfs:label (744) [*] </tspan>
<tspan x="462" y="208">&lt;&gt; mschema:compRefer  D</tspan>
<tspan x="462" y="223">&lt;&gt; mschema:compSource  D</tspan>
<tspan x="462" y="238">&lt;&gt; mschema:compXref  D</tspan>
</text>
</g>
<g id="2002724734"><polygon points="149,527 361,527 361,577 149,577 "
style="fill:#F4D03F; stroke-width:1;stroke:Black;"/>
<text style="font-family:Arial;font-size:12px;kerning:0;word-spacing:-1px;fill:Black;font-weight:bold;">
<tspan x="187" y="542">mschema:CPLX (3.7e5)</tspan>
</text>
<line x1="153" y1="545" x2="359" y2="545"
 style="stroke-width:1;stroke:Black;"/>
<text style="font-family:Arial;font-size:12px;kerning:0;word-spacing:-1px;fill:Black;">
<tspan x="153" y="557">rdf:type (3.7e5) [*]  -&gt; IRI</tspan>
<tspan x="153" y="572">rdfs:label (3.7e5) [*] </tspan>
</text>
</g>
<g id="2002724745"><polygon points="456,249 684,249 684,475 456,475 "
style="fill:#F4D03F; stroke-width:1;stroke:Black;"/>
<text style="font-family:Arial;font-size:12px;kerning:0;word-spacing:-1px;fill:Black;font-weight:bold;">
<tspan x="506" y="264">mschema:MNET (960)</tspan>
</text>
<line x1="460" y1="267" x2="682" y2="267"
 style="stroke-width:1;stroke:Black;"/>
<text style="font-family:Arial;font-size:12px;kerning:0;word-spacing:-1px;fill:Black;">
<tspan x="460" y="279">mschema:canGrow (3840) [1] D</tspan>
<tspan x="460" y="294">mschema:chemCount (3840) [*] D</tspan>
<tspan x="460" y="309">mschema:compCount (3840) [1] D</tspan>
<tspan x="460" y="324">mschema:default_LB (3840) [1] D</tspan>
<tspan x="460" y="339">mschema:default_UB (3840) [1] D</tspan>
<tspan x="460" y="354">mschema:lineage (3840) [1] D</tspan>
<tspan x="460" y="369">mschema:organism (3840) [1] D</tspan>
<tspan x="460" y="384">mschema:peptCount (3840) [*] D</tspan>
<tspan x="460" y="399">mschema:reacCount (3840) [*] D</tspan>
<tspan x="460" y="414">mschema:specCount (3840) [*] D</tspan>
<tspan x="460" y="429">mschema:taxid (3840) [1] D -&gt; IRI</tspan>
<tspan x="460" y="444">rdf:type (3840) [*]  -&gt; IRI</tspan>
<tspan x="460" y="459">rdfs:label (3840) [*] </tspan>
</text>
</g>
<g id="2002724756"><polygon points="843,20 1143,20 1143,145 843,145 "
style="fill:#F4D03F; stroke-width:1;stroke:Black;"/>
<text style="font-family:Arial;font-size:12px;kerning:0;word-spacing:-1px;fill:Black;font-weight:bold;">
<tspan x="944" y="35">rdf:Property (215)</tspan>
</text>
<line x1="847" y1="38" x2="1141" y2="38"
 style="stroke-width:1;stroke:Black;"/>
<text style="font-family:Arial;font-size:12px;kerning:0;word-spacing:-1px;fill:Black;">
<tspan x="847" y="50">owl:deprecated (16) [1] </tspan>
<tspan x="847" y="65">owl:seeAlso (16) [1] D -&gt; IRI</tspan>
<tspan x="847" y="80">rdf:type (796) [*]  -&gt; IRI</tspan>
<tspan x="847" y="95">rdfs:comment (720) [*] </tspan>
<tspan x="847" y="110">rdfs:label (23) [*] </tspan>
<tspan x="847" y="125">rdfs:seeAlso (16) [1] D -&gt; IRI</tspan>
<tspan x="847" y="140">&lt;&gt; rdfs:subPropertyOf  </tspan>
</text>
</g>
<g id="2002724767"><polygon points="805,284 1048,284 1048,364 805,364 "
style="fill:#F4D03F; stroke-width:1;stroke:Black;"/>
<text style="font-family:Arial;font-size:12px;kerning:0;word-spacing:-1px;fill:Black;font-weight:bold;">
<tspan x="889" y="299">owl:Class (3)</tspan>
</text>
<line x1="809" y1="302" x2="1046" y2="302"
 style="stroke-width:1;stroke:Black;"/>
<text style="font-family:Arial;font-size:12px;kerning:0;word-spacing:-1px;fill:Black;">
<tspan x="809" y="314">owl:unionOf (1) [1] D -&gt; IRI</tspan>
<tspan x="809" y="329">rdf:type (3) [*]  -&gt; IRI</tspan>
<tspan x="809" y="344">rdfs:label (2) [*] </tspan>
<tspan x="809" y="359">&lt;&gt; owl:complementOf  DR</tspan>
</text>
</g>
<g id="2002724778"><polygon points="58,276 317,276 317,341 58,341 "
style="fill:#F4D03F; stroke-width:1;stroke:Black;"/>
<text style="font-family:Arial;font-size:12px;kerning:0;word-spacing:-1px;fill:Black;font-weight:bold;">
<tspan x="121" y="291">mschema:GPR (7.7e5)</tspan>
</text>
<line x1="62" y1="294" x2="315" y2="294"
 style="stroke-width:1;stroke:Black;"/>
<text style="font-family:Arial;font-size:12px;kerning:0;word-spacing:-1px;fill:Black;">
<tspan x="62" y="306">rdf:type (7.7e5) [*]  -&gt; IRI</tspan>
<tspan x="62" y="321">rdfs:comment (7.7e5) [*] </tspan>
<tspan x="62" y="336">rdfs:label (7.7e5) [*] </tspan>
</text>
</g>
<g id="2002724789"><polygon points="475,13 732,13 732,68 475,68 "
style="fill:#F4D03F; stroke-width:1;stroke:Black;"/>
<text style="font-family:Arial;font-size:12px;kerning:0;word-spacing:-1px;fill:Black;font-weight:bold;">
<tspan x="534" y="28">mschema:PART (3.9e5)</tspan>
</text>
<line x1="479" y1="31" x2="730" y2="31"
 style="stroke-width:1;stroke:Black;"/>
<text style="font-family:Arial;font-size:12px;kerning:0;word-spacing:-1px;fill:Black;">
<tspan x="479" y="43">mschema:coef (3.9e5) [1] D</tspan>
<tspan x="479" y="58">rdf:type (3.9e5) [*]  -&gt; IRI</tspan>
</text>
</g>
<g id="2002724800"><polygon points="783,482 1005,482 1005,592 783,592 "
style="fill:#F4D03F; stroke-width:1;stroke:Black;"/>
<text style="font-family:Arial;font-size:12px;kerning:0;word-spacing:-1px;fill:Black;font-weight:bold;">
<tspan x="855" y="497">sd:Service (1)</tspan>
</text>
<line x1="787" y1="500" x2="1003" y2="500"
 style="stroke-width:1;stroke:Black;"/>
<text style="font-family:Arial;font-size:12px;kerning:0;word-spacing:-1px;fill:Black;">
<tspan x="787" y="512">rdf:type (1) [*]  -&gt; IRI</tspan>
<tspan x="787" y="527">sd:feature (2) [*] D -&gt; IRI</tspan>
<tspan x="787" y="542">sd:resultFormat (8) [*] D -&gt; IRI</tspan>
<tspan x="787" y="557">sd:supportedLanguage (1) [1] D -&gt; IRI</tspan>
<tspan x="787" y="572">&lt;&gt; sd:endpoint  DR</tspan>
<tspan x="787" y="587">&lt;&gt; sd:url  DR</tspan>
</text>
</g>
<g id="2002724562"><path d="M711,68 L711,521 709,525 705,527 687,527 "
style="fill:none;stroke-width:1;stroke:Black;"/>
<line x1="693" y1="524" x2="687" y2="527"
 style="stroke-width:1;stroke:Black;"/>
<line x1="693" y1="530" x2="687" y2="527"
 style="stroke-width:1;stroke:Black;"/>
<text style="font-family:Arial;font-size:12px;kerning:0;word-spacing:-1px;fill:Black;">
<tspan x="713" y="83">mschema:chem  DR</tspan>
</text>
</g>
<g id="2002724567"><path d="M978,145 L978,284 "
style="fill:none;stroke-width:1;stroke:Black;"/>
<line x1="975" y1="278" x2="978" y2="284"
 style="stroke-width:1;stroke:Black;"/>
<line x1="981" y1="278" x2="978" y2="284"
 style="stroke-width:1;stroke:Black;"/>
<text style="font-family:Arial;font-size:12px;kerning:0;word-spacing:-1px;fill:Black;">
<tspan x="980" y="160">rdfs:range  </tspan>
<tspan x="980" y="175">rdfs:domain  </tspan>
</text>
</g>
<g id="2002724572"><path d="M580,68 L580,118 "
style="fill:none;stroke-width:1;stroke:Black;"/>
<line x1="577" y1="112" x2="580" y2="118"
 style="stroke-width:1;stroke:Black;"/>
<line x1="583" y1="112" x2="580" y2="118"
 style="stroke-width:1;stroke:Black;"/>
<text style="font-family:Arial;font-size:12px;kerning:0;word-spacing:-1px;fill:Black;">
<tspan x="582" y="83">mschema:comp  DR</tspan>
</text>
</g>
<g id="2002724577"><path d="M253,482 L253,527 "
style="fill:none;stroke-width:1;stroke:Black;"/>
<line x1="250" y1="521" x2="253" y2="527"
 style="stroke-width:1;stroke:Black;"/>
<line x1="256" y1="521" x2="253" y2="527"
 style="stroke-width:1;stroke:Black;"/>
<text style="font-family:Arial;font-size:12px;kerning:0;word-spacing:-1px;fill:Black;">
<tspan x="255" y="497">mschema:cplx  DR</tspan>
</text>
</g>
<g id="2002724582"><path d="M187,341 L187,387 "
style="fill:none;stroke-width:1;stroke:Black;"/>
<line x1="184" y1="381" x2="187" y2="387"
 style="stroke-width:1;stroke:Black;"/>
<line x1="190" y1="381" x2="187" y2="387"
 style="stroke-width:1;stroke:Black;"/>
<text style="font-family:Arial;font-size:12px;kerning:0;word-spacing:-1px;fill:Black;">
<tspan x="189" y="356">mschema:cata  DR</tspan>
</text>
</g>
<g id="2002724587"><path d="M103,482 L103,610 "
style="fill:none;stroke-width:1;stroke:Black;"/>
<line x1="100" y1="604" x2="103" y2="610"
 style="stroke-width:1;stroke:Black;"/>
<line x1="106" y1="604" x2="103" y2="610"
 style="stroke-width:1;stroke:Black;"/>
<text style="font-family:Arial;font-size:12px;kerning:0;word-spacing:-1px;fill:Black;">
<tspan x="105" y="497">mschema:pept  DR</tspan>
</text>
</g>
<g id="2002724592"><path d="M876,145 L876,200 "
style="fill:none;stroke-width:1;stroke:Black;"/>
<line x1="873" y1="194" x2="876" y2="200"
 style="stroke-width:1;stroke:Black;"/>
<line x1="879" y1="194" x2="876" y2="200"
 style="stroke-width:1;stroke:Black;"/>
<text style="font-family:Arial;font-size:12px;kerning:0;word-spacing:-1px;fill:Black;">
<tspan x="878" y="160">owl:sameAs  DR</tspan>
</text>
</g>
<g id="2002724597"><path d="M880,250 L880,284 "
style="fill:none;stroke-width:1;stroke:Black;"/>
<line x1="877" y1="278" x2="880" y2="284"
 style="stroke-width:1;stroke:Black;"/>
<line x1="883" y1="278" x2="880" y2="284"
 style="stroke-width:1;stroke:Black;"/>
<text style="font-family:Arial;font-size:12px;kerning:0;word-spacing:-1px;fill:Black;">
<tspan x="882" y="265">rdfs:range  </tspan>
<tspan x="882" y="280">rdfs:domain  </tspan>
</text>
</g>
<g id="2002724602"><path d="M356,45 L475,45 "
style="fill:none;stroke-width:1;stroke:Black;"/>
<line x1="469" y1="42" x2="475" y2="45"
 style="stroke-width:1;stroke:Black;"/>
<line x1="469" y1="48" x2="475" y2="45"
 style="stroke-width:1;stroke:Black;"/>
<text style="font-family:Arial;font-size:12px;kerning:0;word-spacing:-1px;fill:Black;">
<tspan x="360" y="28">mschema:left  DR</tspan>
<tspan x="360" y="43">mschema:right  DR</tspan>
</text>
</g>
<g id="2002724607"><path d="M253,577 L253,610 "
style="fill:none;stroke-width:1;stroke:Black;"/>
<line x1="250" y1="604" x2="253" y2="610"
 style="stroke-width:1;stroke:Black;"/>
<line x1="256" y1="604" x2="253" y2="610"
 style="stroke-width:1;stroke:Black;"/>
<text style="font-family:Arial;font-size:12px;kerning:0;word-spacing:-1px;fill:Black;">
<tspan x="255" y="592">mschema:subu  DR</tspan>
</text>
</g>
<g id="2002724612"><path d="M193,276 L193,228 "
style="fill:none;stroke-width:1;stroke:Black;"/>
<line x1="190" y1="234" x2="193" y2="228"
 style="stroke-width:1;stroke:Black;"/>
<line x1="196" y1="234" x2="193" y2="228"
 style="stroke-width:1;stroke:Black;"/>
<text style="font-family:Arial;font-size:12px;kerning:0;word-spacing:-1px;fill:Black;">
<tspan x="84" y="272">mschema:reac  DR</tspan>
</text>
</g>
<g id="2002724617"><path d="M456,308 L317,308 "
style="fill:none;stroke-width:1;stroke:Black;"/>
<line x1="323" y1="305" x2="317" y2="308"
 style="stroke-width:1;stroke:Black;"/>
<line x1="323" y1="311" x2="317" y2="308"
 style="stroke-width:1;stroke:Black;"/>
<text style="font-family:Arial;font-size:12px;kerning:0;word-spacing:-1px;fill:Black;">
<tspan x="351" y="321">mschema:gpr  DR</tspan>
</text>
</g>
<g id="2002724622"><path d="M1066,145 L1066,228 "
style="fill:none;stroke-width:2;stroke:Fuchsia;"/>
<polygon points="1071,155 1066,145 1061,155 "
style="fill:Silver;stroke-width:1;stroke:Black;"/>
<text style="font-family:Arial;font-size:12px;kerning:0;word-spacing:-1px;fill:Black;">
<tspan x="1068" y="160"> </tspan>
</text>
</g>
</svg>
