<?xml version="1.0" encoding="UTF-8" standalone="no"?>
<!DOCTYPE svg PUBLIC "-//W3C//DTD SVG 1.1//EN"
"http://www.w3.org/Graphics/SVG/1.1/DTD/svg11.dtd">
<svg version="1.1" xmlns="http://www.w3.org/2000/svg"
xmlns:xlink="http://www.w3.org/1999/xlink" xml:space="preserve"
 width="1464" height="1102" viewBox="0 0 1464 1102">
 onmousemove="movetip(evt)" onmouseup="endmove()">
<rect x="0" y="0" width="100%" height="100%" style="fill:White;"/>
<script type="application/ecmascript"> <![CDATA[
var dragtipid = null; var dragcase = false; function init(evt){
if (window.svgDocument==null) svgDocument = evt.target.ownerDocument;
}
function movetip(evt){if (dragtipid!=null){ dragcase = true;
var tip=svgDocument.getElementById(dragtipid);
tip.setAttributeNS(null,"x",evt.clientX-2);
tip.setAttributeNS(null,"y",evt.clientY-2);
}}
function endmove(){dragtipid = null;}
function startmove(evt,id){dragtipid = id; dragcase = false;
var tip=svgDocument.getElementById(dragtipid);
tip.setAttributeNS(null,"x",evt.clientX-2);
tip.setAttributeNS(null,"y",evt.clientY-2);
}
function Showtip(evt,id){ dragtipid = null;
var tip=svgDocument.getElementById(id);
var vis=tip.getAttributeNS(null,"visibility");
if (vis=="hidden"){
tip.setAttributeNS(null,"x",evt.clientX-2);
tip.setAttributeNS(null,"y",evt.clientY-2);
tip.setAttributeNS(null,"visibility","visible");
}}
function Hidetip(id){ dragtipid = null; if (dragcase==false){
var tip=svgDocument.getElementById(id);
tip.setAttributeNS(null,"visibility","hidden");
}}
]]></script>
<defs><linearGradient id="activ1" x1="0%" y1="0%" x2="100%" y2="0%">
<stop offset="0%" style="stop-color:#FFFF00;stop-opacity:1"/>
<stop offset="100%" style="stop-color:#FFFFF0;stop-opacity:1"/>
</linearGradient></defs>
<g id="2002720246"><polygon points="658,473 949,473 949,565 658,565 "
style="fill:#F4D03F; stroke-width:1;stroke:Black;"/>
<text style="font-family:Arial;font-size:12px;kerning:0;word-spacing:-1px;fill:Black;font-weight:bold;">
<tspan x="739" y="488">frbroo:F1_Work (1.0e5)</tspan>
</text>
<line x1="662" y1="491" x2="947" y2="491"
 style="stroke-width:1;stroke:Black;"/>
<text style="font-family:Arial;font-size:12px;kerning:0;word-spacing:-1px;fill:Black;">
<tspan x="662" y="503">owl:sameAs (3.4e4) [1]  -&gt; IRI</tspan>
<tspan x="662" y="518">rdf:type (1.0e5) [1]  -&gt; IRI</tspan>
<tspan x="662" y="533">rdfs:comment (1.0e5) [1] </tspan>
<tspan x="662" y="548">rdfs:label (1.0e5) [*] </tspan>
<tspan x="662" y="563">&lt;&gt; frbroo:R2_is_derivative_of  </tspan>
</text>
</g>
<g id="2002720257"><polygon points="715,136 916,136 916,198 715,198 "
style="fill:#F4D03F; stroke-width:1;stroke:Black;"/>
<text style="font-family:Arial;font-size:12px;kerning:0;word-spacing:-1px;fill:Black;font-weight:bold;">
<tspan x="741" y="150">void:DatasetDescription (1)</tspan>
</text>
<line x1="719" y1="153" x2="914" y2="153"
 style="stroke-width:1;stroke:Black;"/>
<text style="font-family:Arial;font-size:12px;kerning:0;word-spacing:-1px;fill:Black;">
<tspan x="719" y="165">dct:creator (1) [1] D -&gt; IRI</tspan>
<tspan x="719" y="180">dct:title (1) [1] D</tspan>
<tspan x="719" y="195">rdf:type (1) [1]  -&gt; IRI</tspan>
</text>
</g>
<g id="2002720268"><polygon points="1073,717 1357,717 1357,780 1073,780 "
style="fill:#F4D03F; stroke-width:1;stroke:Black;"/>
<text style="font-family:Arial;font-size:12px;kerning:0;word-spacing:-1px;fill:Black;font-weight:bold;">
<tspan x="1131" y="732">cidoc-rm:E56_Language (183)</tspan>
</text>
<line x1="1076" y1="735" x2="1355" y2="735"
 style="stroke-width:1;stroke:Black;"/>
<text style="font-family:Arial;font-size:12px;kerning:0;word-spacing:-1px;fill:Black;">
<tspan x="1076" y="747">owl:sameAs (177) [1]  -&gt; IRI</tspan>
<tspan x="1076" y="762">rdf:type (183) [1]  -&gt; IRI</tspan>
<tspan x="1076" y="777">rdfs:label (183) [*] </tspan>
</text>
</g>
<g id="2002720279"><polygon points="585,1029 875,1029 875,1092 585,1092 "
style="fill:#F4D03F; stroke-width:1;stroke:Black;"/>
<text style="font-family:Arial;font-size:12px;kerning:0;word-spacing:-1px;fill:Black;font-weight:bold;">
<tspan x="638" y="1044">cidoc-rm:E41_Appellation (1.1e5)</tspan>
</text>
<line x1="589" y1="1046" x2="873" y2="1046"
 style="stroke-width:1;stroke:Black;"/>
<text style="font-family:Arial;font-size:12px;kerning:0;word-spacing:-1px;fill:Black;">
<tspan x="589" y="1058">cidoc-rm:P190_has_symbolic_content (1.1e5) [1] </tspan>
<tspan x="589" y="1073">rdf:type (1.1e5) [1]  -&gt; IRI</tspan>
<tspan x="589" y="1088">rdfs:label (1.0e5) [*] </tspan>
</text>
</g>
<g id="2002720290"><polygon points="1149,542 1439,542 1439,634 1149,634 "
style="fill:#F4D03F; stroke-width:1;stroke:Black;"/>
<text style="font-family:Arial;font-size:12px;kerning:0;word-spacing:-1px;fill:Black;font-weight:bold;">
<tspan x="1225" y="557">cidoc-rm:E55_Type (389)</tspan>
</text>
<line x1="1153" y1="560" x2="1437" y2="560"
 style="stroke-width:1;stroke:Black;"/>
<text style="font-family:Arial;font-size:12px;kerning:0;word-spacing:-1px;fill:Black;">
<tspan x="1153" y="572">owl:sameAs (227) [1]  -&gt; IRI</tspan>
<tspan x="1153" y="587">rdf:type (389) [1]  -&gt; IRI</tspan>
<tspan x="1153" y="602">rdfs:comment (5) [1] </tspan>
<tspan x="1153" y="617">rdfs:label (399) [*] </tspan>
<tspan x="1153" y="632">&lt;&gt; cidoc-rm:P2_has_type  </tspan>
</text>
</g>
<g id="2002720301"><polygon points="38,119 371,119 371,280 38,280 "
style="fill:White; stroke-width:1;stroke:Black;"/>
<text style="font-family:Arial;font-size:12px;kerning:0;word-spacing:-1px;fill:Black;">
<tspan x="42" y="133">PREFIX cidoc-rm: &lt;http://www.cidoc-crm.org/cidoc-crm/&gt;</tspan>
<tspan x="42" y="148">PREFIX void: &lt;http://rdfs.org/ns/void#&gt;</tspan>
<tspan x="42" y="163">PREFIX frbroo: &lt;http://iflastandards.info/ns/fr/frbr/frbroo/&gt;</tspan>
<tspan x="42" y="178">PREFIX rdfs: &lt;http://www.w3.org/2000/01/rdf-schema#&gt;</tspan>
<tspan x="42" y="193">PREFIX dct: &lt;http://purl.org/dc/terms/&gt;</tspan>
<tspan x="42" y="208">PREFIX skos: &lt;http://www.w3.org/2004/02/skos/core#&gt;</tspan>
<tspan x="42" y="223">PREFIX foaf: &lt;http://xmlns.com/foaf/0.1/&gt;</tspan>
<tspan x="42" y="238">PREFIX owl: &lt;http://www.w3.org/2002/07/owl#&gt;</tspan>
<tspan x="42" y="253">PREFIX rdf: &lt;http://www.w3.org/1999/02/22-rdf-syntax-ns#&gt;</tspan>
<tspan x="42" y="268">PREFIX regap: &lt;http://metadataregistry.org/uri/profile/regap/&gt;</tspan>
</text>
</g>
<g id="2002720312"><polygon points="36,346 326,346 326,389 36,389 "
style="fill:#F4D03F; stroke-width:1;stroke:Black;"/>
<text style="font-family:Arial;font-size:12px;kerning:0;word-spacing:-1px;fill:Black;font-weight:bold;">
<tspan x="53" y="361">frbroo:F3_Manifestation_Product_Type (4.0e4)</tspan>
</text>
<line x1="40" y1="363" x2="324" y2="363"
 style="stroke-width:1;stroke:Black;"/>
<text style="font-family:Arial;font-size:12px;kerning:0;word-spacing:-1px;fill:Black;">
<tspan x="40" y="375">rdf:type (4.0e4) [1]  -&gt; IRI</tspan>
</text>
</g>
<g id="2002720323"><polygon points="715,257 913,257 913,320 715,320 "
style="fill:#F4D03F; stroke-width:1;stroke:Black;"/>
<text style="font-family:Arial;font-size:12px;kerning:0;word-spacing:-1px;fill:Black;font-weight:bold;">
<tspan x="773" y="272">void:Linkset (1)</tspan>
</text>
<line x1="719" y1="275" x2="911" y2="275"
 style="stroke-width:1;stroke:Black;"/>
<text style="font-family:Arial;font-size:12px;kerning:0;word-spacing:-1px;fill:Black;">
<tspan x="719" y="287">rdf:type (1) [1]  -&gt; IRI</tspan>
<tspan x="719" y="302">void:linkPredicate (1) [1] D -&gt; IRI</tspan>
<tspan x="719" y="317">void:triples (1) [1] </tspan>
</text>
</g>
<g id="2002720334"><polygon points="110,620 333,620 333,664 110,664 "
style="fill:#F4D03F; stroke-width:1;stroke:Black;"/>
<text style="font-family:Arial;font-size:12px;kerning:0;word-spacing:-1px;fill:Black;font-weight:bold;">
<tspan x="141" y="635">frbroo:F26_Recording (1.0e5)</tspan>
</text>
<line x1="114" y1="638" x2="331" y2="638"
 style="stroke-width:1;stroke:Black;"/>
<text style="font-family:Arial;font-size:12px;kerning:0;word-spacing:-1px;fill:Black;">
<tspan x="114" y="650">rdf:type (1.0e5) [1]  -&gt; IRI</tspan>
</text>
</g>
<g id="2002720345"><polygon points="1034,294 1286,294 1286,343 1034,343 "
style="fill:#F4D03F; stroke-width:1;stroke:Black;"/>
<text style="font-family:Arial;font-size:12px;kerning:0;word-spacing:-1px;fill:Black;font-weight:bold;">
<tspan x="1113" y="309">skos:Concept (1)</tspan>
</text>
<line x1="1038" y1="312" x2="1284" y2="312"
 style="stroke-width:1;stroke:Black;"/>
<text style="font-family:Arial;font-size:12px;kerning:0;word-spacing:-1px;fill:Black;">
<tspan x="1038" y="324">rdf:type (1) [1]  -&gt; IRI</tspan>
<tspan x="1038" y="339">skos:prefLabel (1) [1] D</tspan>
</text>
</g>
<g id="2002720356"><polygon points="1053,818 1344,818 1344,875 1053,875 "
style="fill:#F4D03F; stroke-width:1;stroke:Black;"/>
<text style="font-family:Arial;font-size:12px;kerning:0;word-spacing:-1px;fill:Black;font-weight:bold;">
<tspan x="1106" y="833">cidoc-rm:E40_Legal_Body (9477)</tspan>
</text>
<line x1="1057" y1="835" x2="1342" y2="835"
 style="stroke-width:1;stroke:Black;"/>
<text style="font-family:Arial;font-size:12px;kerning:0;word-spacing:-1px;fill:Black;">
<tspan x="1057" y="847">rdf:type (9477) [1]  -&gt; IRI</tspan>
<tspan x="1057" y="862">rdfs:label (9477) [*] </tspan>
</text>
</g>
<g id="2002720367"><polygon points="327,447 618,447 618,491 327,491 "
style="fill:#F4D03F; stroke-width:1;stroke:Black;"/>
<text style="font-family:Arial;font-size:12px;kerning:0;word-spacing:-1px;fill:Black;font-weight:bold;">
<tspan x="354" y="462">frbroo:F24_Publication_Expression (1.0e5)</tspan>
</text>
<line x1="331" y1="465" x2="616" y2="465"
 style="stroke-width:1;stroke:Black;"/>
<text style="font-family:Arial;font-size:12px;kerning:0;word-spacing:-1px;fill:Black;">
<tspan x="331" y="477">rdf:type (1.0e5) [1]  -&gt; IRI</tspan>
</text>
</g>
<g id="2002720378"><polygon points="759,348 1032,348 1032,455 759,455 "
style="fill:#F4D03F; stroke-width:1;stroke:Black;"/>
<text style="font-family:Arial;font-size:12px;kerning:0;word-spacing:-1px;fill:Black;font-weight:bold;">
<tspan x="806" y="363">cidoc-rm:E54_Dimension (4406)</tspan>
</text>
<line x1="763" y1="366" x2="1030" y2="366"
 style="stroke-width:1;stroke:Black;"/>
<text style="font-family:Arial;font-size:12px;kerning:0;word-spacing:-1px;fill:Black;">
<tspan x="763" y="378">cidoc-rm:P180_has_currency (408) [1] D -&gt; IRI</tspan>
<tspan x="763" y="393">cidoc-rm:P181_has_amount (408) [1] D</tspan>
<tspan x="763" y="408">cidoc-rm:P90_has_value (3998) [1] D</tspan>
<tspan x="763" y="423">cidoc-rm:P91_has_unit (3998) [1] D -&gt; IRI</tspan>
<tspan x="763" y="438">rdf:type (4406) [1]  -&gt; IRI</tspan>
<tspan x="763" y="453">rdfs:label (408) [*] </tspan>
</text>
</g>
<g id="2002720389"><polygon points="155,908 371,908 371,994 155,994 "
style="fill:#F4D03F; stroke-width:1;stroke:Black;"/>
<text style="font-family:Arial;font-size:12px;kerning:0;word-spacing:-1px;fill:Black;font-weight:bold;">
<tspan x="191" y="923">cidoc-rm:E53_Place (379)</tspan>
</text>
<line x1="159" y1="925" x2="369" y2="925"
 style="stroke-width:1;stroke:Black;"/>
<text style="font-family:Arial;font-size:12px;kerning:0;word-spacing:-1px;fill:Black;">
<tspan x="159" y="937">owl:sameAs (370) [1]  -&gt; IRI</tspan>
<tspan x="159" y="952">rdf:type (379) [1]  -&gt; IRI</tspan>
<tspan x="159" y="967">rdfs:label (379) [*] </tspan>
</text>
</g>
<g id="2002720400"><polygon points="931,126 1109,126 1109,276 931,276 "
style="fill:#F4D03F; stroke-width:1;stroke:Black;"/>
<text style="font-family:Arial;font-size:12px;kerning:0;word-spacing:-1px;fill:Black;font-weight:bold;">
<tspan x="981" y="141">owl:Class (46)</tspan>
</text>
<line x1="935" y1="143" x2="1107" y2="143"
 style="stroke-width:1;stroke:Black;"/>
<text style="font-family:Arial;font-size:12px;kerning:0;word-spacing:-1px;fill:Black;">
<tspan x="935" y="155">owl:sameAs (46) [1]  -&gt; IRI</tspan>
<tspan x="935" y="170">rdf:type (46) [1]  -&gt; IRI</tspan>
<tspan x="935" y="185">rdfs:comment (46) [1] </tspan>
<tspan x="935" y="200">rdfs:isDefinedBy (46) [1]  -&gt; IRI</tspan>
<tspan x="935" y="215">rdfs:label (46) [*] </tspan>
<tspan x="935" y="230">regap:name (56) [*] </tspan>
<tspan x="935" y="245">skos:definition (45) [1] </tspan>
<tspan x="935" y="260">skos:scopeNote (35) [1] </tspan>
<tspan x="935" y="275">&lt;&gt; rdfs:subClassOf  </tspan>
</text>
</g>
<g id="2002720411"><polygon points="1147,436 1437,436 1437,507 1147,507 "
style="fill:#F4D03F; stroke-width:1;stroke:Black;"/>
<text style="font-family:Arial;font-size:12px;kerning:0;word-spacing:-1px;fill:Black;font-weight:bold;">
<tspan x="1219" y="451">cidoc-rm:E35_Title (2.0e5)</tspan>
</text>
<line x1="1151" y1="453" x2="1436" y2="453"
 style="stroke-width:1;stroke:Black;"/>
<text style="font-family:Arial;font-size:12px;kerning:0;word-spacing:-1px;fill:Black;">
<tspan x="1151" y="465">cidoc-rm:P190_has_symbolic_content (2.0e5) [1] </tspan>
<tspan x="1151" y="480">rdf:type (2.0e5) [1]  -&gt; IRI</tspan>
</text>
</g>
<g id="2002720422"><polygon points="221,704 453,704 453,747 221,747 "
style="fill:#F4D03F; stroke-width:1;stroke:Black;"/>
<text style="font-family:Arial;font-size:12px;kerning:0;word-spacing:-1px;fill:Black;font-weight:bold;">
<tspan x="239" y="719">frbroo:F21_Recording_Work (1.0e5)</tspan>
</text>
<line x1="225" y1="721" x2="451" y2="721"
 style="stroke-width:1;stroke:Black;"/>
<text style="font-family:Arial;font-size:12px;kerning:0;word-spacing:-1px;fill:Black;">
<tspan x="225" y="733">rdf:type (1.0e5) [1]  -&gt; IRI</tspan>
</text>
</g>
<g id="2002720433"><polygon points="209,798 499,798 499,861 209,861 "
style="fill:#F4D03F; stroke-width:1;stroke:Black;"/>
<text style="font-family:Arial;font-size:12px;kerning:0;word-spacing:-1px;fill:Black;font-weight:bold;">
<tspan x="255" y="813">frbroo:F29_Recording_Event (1.0e5)</tspan>
</text>
<line x1="213" y1="815" x2="498" y2="815"
 style="stroke-width:1;stroke:Black;"/>
<text style="font-family:Arial;font-size:12px;kerning:0;word-spacing:-1px;fill:Black;">
<tspan x="213" y="827">cidoc-rm:P4_has_time-span (1.5e4) [1]  -&gt; IRI</tspan>
<tspan x="213" y="842">cidoc-rm:P9_consists_of (4.6e5) [*] D -&gt; IRI</tspan>
<tspan x="213" y="857">rdf:type (1.0e5) [1]  -&gt; IRI</tspan>
</text>
</g>
<g id="2002720444"><polygon points="404,376 670,376 670,419 404,419 "
style="fill:#F4D03F; stroke-width:1;stroke:Black;"/>
<text style="font-family:Arial;font-size:12px;kerning:0;word-spacing:-1px;fill:Black;font-weight:bold;">
<tspan x="439" y="391">frbroo:F30_Publicatio_Event (1.0e5)</tspan>
</text>
<line x1="408" y1="393" x2="668" y2="393"
 style="stroke-width:1;stroke:Black;"/>
<text style="font-family:Arial;font-size:12px;kerning:0;word-spacing:-1px;fill:Black;">
<tspan x="408" y="405">rdf:type (1.0e5) [1]  -&gt; IRI</tspan>
</text>
</g>
<g id="2002720455"><polygon points="1235,111 1421,111 1421,276 1235,276 "
style="fill:#F4D03F; stroke-width:1;stroke:Black;"/>
<text style="font-family:Arial;font-size:12px;kerning:0;word-spacing:-1px;fill:Black;font-weight:bold;">
<tspan x="1280" y="126">rdf:Property (449)</tspan>
</text>
<line x1="1239" y1="129" x2="1419" y2="129"
 style="stroke-width:1;stroke:Black;"/>
<text style="font-family:Arial;font-size:12px;kerning:0;word-spacing:-1px;fill:Black;">
<tspan x="1239" y="141">owl:sameAs (142) [1]  -&gt; IRI</tspan>
<tspan x="1239" y="156">rdf:type (449) [1]  -&gt; IRI</tspan>
<tspan x="1239" y="171">rdfs:comment (295) [1] </tspan>
<tspan x="1239" y="186">rdfs:isDefinedBy (142) [1]  -&gt; IRI</tspan>
<tspan x="1239" y="201">rdfs:label (1938) [*] </tspan>
<tspan x="1239" y="216">regap:name (142) [*] </tspan>
<tspan x="1239" y="231">skos:definition (71) [1] </tspan>
<tspan x="1239" y="246">skos:scopeNote (31) [1] </tspan>
<tspan x="1239" y="261">&lt;&gt; owl:inverseOf  DR</tspan>
<tspan x="1239" y="276">&lt;&gt; rdfs:subPropertyOf  D</tspan>
</text>
</g>
<g id="2002720466"><polygon points="378,134 583,134 583,342 378,342 "
style="fill:#F4D03F; stroke-width:1;stroke:Black;"/>
<text style="font-family:Arial;font-size:12px;kerning:0;word-spacing:-1px;fill:Black;font-weight:bold;">
<tspan x="437" y="149">void:Dataset (1)</tspan>
</text>
<line x1="381" y1="151" x2="581" y2="151"
 style="stroke-width:1;stroke:Black;"/>
<text style="font-family:Arial;font-size:12px;kerning:0;word-spacing:-1px;fill:Black;">
<tspan x="381" y="163">dct:created (1) [1] D</tspan>
<tspan x="381" y="178">dct:issued (1) [1] D</tspan>
<tspan x="381" y="193">dct:license (1) [1] D -&gt; IRI</tspan>
<tspan x="381" y="208">rdf:type (1) [1]  -&gt; IRI</tspan>
<tspan x="381" y="223">void:classPartition (17) [*] D -&gt; IRI</tspan>
<tspan x="381" y="238">void:classes (1) [1] D</tspan>
<tspan x="381" y="253">void:distinctObjects (1) [1] D</tspan>
<tspan x="381" y="268">void:distinctSubjects (1) [1] D</tspan>
<tspan x="381" y="283">void:entities (1) [1] </tspan>
<tspan x="381" y="298">void:properties (1) [1] D</tspan>
<tspan x="381" y="313">void:propertyPartition (35) [*] D -&gt; IRI</tspan>
<tspan x="381" y="328">void:triples (1) [1] </tspan>
<tspan x="381" y="343">void:vocabulary (15) [*] D -&gt; IRI</tspan>
</text>
</g>
<g id="2002720477"><polygon points="615,698 905,698 905,784 615,784 "
style="fill:#F4D03F; stroke-width:1;stroke:Black;"/>
<text style="font-family:Arial;font-size:12px;kerning:0;word-spacing:-1px;fill:Black;font-weight:bold;">
<tspan x="676" y="713">cidoc-rm:E42_Identifier (1.1e5)</tspan>
</text>
<line x1="619" y1="715" x2="903" y2="715"
 style="stroke-width:1;stroke:Black;"/>
<text style="font-family:Arial;font-size:12px;kerning:0;word-spacing:-1px;fill:Black;">
<tspan x="619" y="727">cidoc-rm:P190_has_symbolic_content (1.1e5) [1] </tspan>
<tspan x="619" y="742">rdf:type (1.1e5) [1]  -&gt; IRI</tspan>
<tspan x="619" y="757">rdfs:label (1.0e5) [*] </tspan>
</text>
</g>
<g id="2002720488"><polygon points="585,889 875,889 875,995 585,995 "
style="fill:#F4D03F; stroke-width:1;stroke:Black;"/>
<text style="font-family:Arial;font-size:12px;kerning:0;word-spacing:-1px;fill:Black;font-weight:bold;">
<tspan x="649" y="904">cidoc-rm:E21_Person (1.0e5)</tspan>
</text>
<line x1="589" y1="906" x2="873" y2="906"
 style="stroke-width:1;stroke:Black;"/>
<text style="font-family:Arial;font-size:12px;kerning:0;word-spacing:-1px;fill:Black;">
<tspan x="589" y="918">foaf:familyName (1.0e5) [1] D</tspan>
<tspan x="589" y="933">foaf:givenName (1.0e5) [1] D</tspan>
<tspan x="589" y="948">foaf:name (1.0e5) [1] D</tspan>
<tspan x="589" y="963">owl:sameAs (2.2e4) [1]  -&gt; IRI</tspan>
<tspan x="589" y="978">rdf:type (1.0e5) [1]  -&gt; IRI</tspan>
<tspan x="589" y="993">rdfs:label (1.0e5) [*] </tspan>
</text>
</g>
<g id="2002720499"><polygon points="296,534 554,534 554,591 296,591 "
style="fill:#F4D03F; stroke-width:1;stroke:Black;"/>
<text style="font-family:Arial;font-size:12px;kerning:0;word-spacing:-1px;fill:Black;font-weight:bold;">
<tspan x="347" y="549">cidoc-rm:E7_Activity (1.0e5)</tspan>
</text>
<line x1="300" y1="552" x2="552" y2="552"
 style="stroke-width:1;stroke:Black;"/>
<text style="font-family:Arial;font-size:12px;kerning:0;word-spacing:-1px;fill:Black;">
<tspan x="300" y="564">cidoc-rm:P4_has_time-span (7.5e4) [1]  -&gt; IRI</tspan>
<tspan x="300" y="579">rdf:type (1.0e5) [1]  -&gt; IRI</tspan>
</text>
</g>
<g id="2002796974"><polygon points="536,31 939,31 939,81 536,81 "
style="fill:none; stroke-width:1;stroke:Black;"/>
<text style="font-family:Arial;font-size:17px;kerning:0;word-spacing:-1px;fill:Black;font-weight:bold;">
<tspan x="678" y="50">Cinémathèque</tspan>
<tspan x="581" y="71">https://data.cinematheque.qc.ca/sparql</tspan>
</text>
</g>
<g id="2002720091"><path d="M884,473 L884,455 "
style="fill:none;stroke-width:1;stroke:Black;"/>
<line x1="881" y1="461" x2="884" y2="455"
 style="stroke-width:1;stroke:Black;"/>
<line x1="887" y1="461" x2="884" y2="455"
 style="stroke-width:1;stroke:Black;"/>
<text style="font-family:Arial;font-size:12px;kerning:0;word-spacing:-1px;fill:Black;">
<tspan x="706" y="470">cidoc-rm:P43_has_dimension  R</tspan>
</text>
</g>
<g id="2002720096"><path d="M1183,780 L1183,799 1185,802 1189,804 1353,804 1357,806 1359,810 1359,1054 1357,1058 1353,1060 875,1060 "
style="fill:none;stroke-width:1;stroke:Black;"/>
<line x1="881" y1="1057" x2="875" y2="1060"
 style="stroke-width:1;stroke:Black;"/>
<line x1="881" y1="1063" x2="875" y2="1060"
 style="stroke-width:1;stroke:Black;"/>
<text style="font-family:Arial;font-size:12px;kerning:0;word-spacing:-1px;fill:Black;">
<tspan x="1185" y="795">cidoc-rm:P1_is_identified_by  R</tspan>
</text>
</g>
<g id="2002720101"><path d="M1276,507 L1276,542 "
style="fill:none;stroke-width:1;stroke:Black;"/>
<line x1="1273" y1="536" x2="1276" y2="542"
 style="stroke-width:1;stroke:Black;"/>
<line x1="1279" y1="536" x2="1276" y2="542"
 style="stroke-width:1;stroke:Black;"/>
<text style="font-family:Arial;font-size:12px;kerning:0;word-spacing:-1px;fill:Black;">
<tspan x="1278" y="522">cidoc-rm:P2_has_type  </tspan>
</text>
</g>
<g id="2002720106"><path d="M1032,382 L1447,382 1451,384 1453,388 1453,565 1451,569 1447,571 1439,571 "
style="fill:none;stroke-width:1;stroke:Black;"/>
<line x1="1445" y1="568" x2="1439" y2="571"
 style="stroke-width:1;stroke:Black;"/>
<line x1="1445" y1="574" x2="1439" y2="571"
 style="stroke-width:1;stroke:Black;"/>
<text style="font-family:Arial;font-size:12px;kerning:0;word-spacing:-1px;fill:Black;">
<tspan x="1036" y="381">cidoc-rm:P2_has_type  </tspan>
</text>
</g>
<g id="2002720111"><path d="M1053,824 L867,824 863,822 862,818 862,784 "
style="fill:none;stroke-width:1;stroke:Black;"/>
<line x1="859" y1="790" x2="862" y2="784"
 style="stroke-width:1;stroke:Black;"/>
<line x1="864" y1="790" x2="862" y2="784"
 style="stroke-width:1;stroke:Black;"/>
<text style="font-family:Arial;font-size:12px;kerning:0;word-spacing:-1px;fill:Black;">
<tspan x="890" y="837">cidoc-rm:P48_has_preferred_</tspan>
<tspan x="890" y="852">identifier  </tspan>
</text>
</g>
<g id="2002720116"><path d="M215,798 L215,664 "
style="fill:none;stroke-width:1;stroke:Black;"/>
<line x1="212" y1="670" x2="215" y2="664"
 style="stroke-width:1;stroke:Black;"/>
<line x1="218" y1="670" x2="215" y2="664"
 style="stroke-width:1;stroke:Black;"/>
<text style="font-family:Arial;font-size:12px;kerning:0;word-spacing:-1px;fill:Black;">
<tspan x="87" y="794">frbroo:R21_created  DR</tspan>
</text>
</g>
<g id="2002720121"><path d="M447,798 L447,747 "
style="fill:none;stroke-width:1;stroke:Black;"/>
<line x1="444" y1="753" x2="447" y2="747"
 style="stroke-width:1;stroke:Black;"/>
<line x1="450" y1="753" x2="447" y2="747"
 style="stroke-width:1;stroke:Black;"/>
<text style="font-family:Arial;font-size:12px;kerning:0;word-spacing:-1px;fill:Black;">
<tspan x="228" y="794">frbroo:R22_created_a_realization_of  DR</tspan>
</text>
</g>
<g id="2002720126"><path d="M730,995 L730,1029 "
style="fill:none;stroke-width:1;stroke:Black;"/>
<line x1="727" y1="1023" x2="730" y2="1029"
 style="stroke-width:1;stroke:Black;"/>
<line x1="733" y1="1023" x2="730" y2="1029"
 style="stroke-width:1;stroke:Black;"/>
<text style="font-family:Arial;font-size:12px;kerning:0;word-spacing:-1px;fill:Black;">
<tspan x="732" y="1010">cidoc-rm:P1_is_identified_by  R</tspan>
</text>
</g>
<g id="2002720131"><path d="M326,362 L759,362 "
style="fill:none;stroke-width:1;stroke:Black;"/>
<line x1="753" y1="359" x2="759" y2="362"
 style="stroke-width:1;stroke:Black;"/>
<line x1="753" y1="365" x2="759" y2="362"
 style="stroke-width:1;stroke:Black;"/>
<text style="font-family:Arial;font-size:12px;kerning:0;word-spacing:-1px;fill:Black;">
<tspan x="330" y="360">cidoc-rm:P43_has_dimension  R</tspan>
</text>
</g>
<g id="2002720136"><path d="M371,942 L546,942 550,940 552,936 552,830 554,826 558,824 615,824 619,822 620,818 620,784 "
style="fill:none;stroke-width:1;stroke:Black;"/>
<line x1="618" y1="790" x2="620" y2="784"
 style="stroke-width:1;stroke:Black;"/>
<line x1="623" y1="790" x2="620" y2="784"
 style="stroke-width:1;stroke:Black;"/>
<text style="font-family:Arial;font-size:12px;kerning:0;word-spacing:-1px;fill:Black;">
<tspan x="375" y="926">cidoc-rm:P48_has_preferred_</tspan>
<tspan x="375" y="941">identifier  </tspan>
</text>
</g>
<g id="2002720141"><path d="M1149,603 L840,603 836,605 834,609 834,698 "
style="fill:none;stroke-width:1;stroke:Black;"/>
<line x1="832" y1="692" x2="834" y2="698"
 style="stroke-width:1;stroke:Black;"/>
<line x1="837" y1="692" x2="834" y2="698"
 style="stroke-width:1;stroke:Black;"/>
<text style="font-family:Arial;font-size:12px;kerning:0;word-spacing:-1px;fill:Black;">
<tspan x="985" y="616">cidoc-rm:P48_has_preferred_</tspan>
<tspan x="985" y="631">identifier  </tspan>
</text>
</g>
<g id="2002720146"><path d="M1073,749 L905,749 "
style="fill:none;stroke-width:1;stroke:Black;"/>
<line x1="911" y1="746" x2="905" y2="749"
 style="stroke-width:1;stroke:Black;"/>
<line x1="911" y1="752" x2="905" y2="749"
 style="stroke-width:1;stroke:Black;"/>
<text style="font-family:Arial;font-size:12px;kerning:0;word-spacing:-1px;fill:Black;">
<tspan x="909" y="762">cidoc-rm:P48_has_preferred_</tspan>
<tspan x="909" y="777">identifier  </tspan>
</text>
</g>
<g id="2002720151"><path d="M284,861 L284,908 "
style="fill:none;stroke-width:1;stroke:Black;"/>
<line x1="281" y1="902" x2="284" y2="908"
 style="stroke-width:1;stroke:Black;"/>
<line x1="287" y1="902" x2="284" y2="908"
 style="stroke-width:1;stroke:Black;"/>
<text style="font-family:Arial;font-size:12px;kerning:0;word-spacing:-1px;fill:Black;">
<tspan x="286" y="875">cidoc-rm:P7_took_place_at  DR</tspan>
</text>
</g>
<g id="2002720156"><path d="M1274,276 L1274,294 "
style="fill:none;stroke-width:1;stroke:Black;"/>
<line x1="1271" y1="288" x2="1274" y2="294"
 style="stroke-width:1;stroke:Black;"/>
<line x1="1277" y1="288" x2="1274" y2="294"
 style="stroke-width:1;stroke:Black;"/>
<text style="font-family:Arial;font-size:12px;kerning:0;word-spacing:-1px;fill:Black;">
<tspan x="1276" y="291">regap:status  R</tspan>
</text>
</g>
<g id="2002720161"><path d="M949,491 L1147,491 "
style="fill:none;stroke-width:1;stroke:Black;"/>
<line x1="1141" y1="488" x2="1147" y2="491"
 style="stroke-width:1;stroke:Black;"/>
<line x1="1141" y1="494" x2="1147" y2="491"
 style="stroke-width:1;stroke:Black;"/>
<text style="font-family:Arial;font-size:12px;kerning:0;word-spacing:-1px;fill:Black;">
<tspan x="953" y="489">cidoc-rm:P102_has_title  DR</tspan>
</text>
</g>
<g id="2002720166"><path d="M440,534 L440,491 "
style="fill:none;stroke-width:1;stroke:Black;"/>
<line x1="438" y1="497" x2="440" y2="491"
 style="stroke-width:1;stroke:Black;"/>
<line x1="443" y1="497" x2="440" y2="491"
 style="stroke-width:1;stroke:Black;"/>
<text style="font-family:Arial;font-size:12px;kerning:0;word-spacing:-1px;fill:Black;">
<tspan x="225" y="531">cidoc-rm:P16_used_specific_object  DR</tspan>
</text>
</g>
<g id="2002720171"><path d="M333,647 L1191,647 1195,649 1196,652 1196,717 "
style="fill:none;stroke-width:1;stroke:Black;"/>
<line x1="1194" y1="711" x2="1196" y2="717"
 style="stroke-width:1;stroke:Black;"/>
<line x1="1199" y1="711" x2="1196" y2="717"
 style="stroke-width:1;stroke:Black;"/>
<text style="font-family:Arial;font-size:12px;kerning:0;word-spacing:-1px;fill:Black;">
<tspan x="337" y="645">cidoc-rm:P72_has_language  DR</tspan>
</text>
</g>
<g id="2002720176"><path d="M1059,276 L1059,294 "
style="fill:none;stroke-width:1;stroke:Black;"/>
<line x1="1056" y1="288" x2="1059" y2="294"
 style="stroke-width:1;stroke:Black;"/>
<line x1="1062" y1="288" x2="1059" y2="294"
 style="stroke-width:1;stroke:Black;"/>
<text style="font-family:Arial;font-size:12px;kerning:0;word-spacing:-1px;fill:Black;">
<tspan x="1061" y="291">regap:status  R</tspan>
</text>
</g>
<g id="2002720181"><path d="M371,969 L545,969 549,971 551,975 551,1044 553,1047 557,1049 585,1049 "
style="fill:none;stroke-width:1;stroke:Black;"/>
<line x1="579" y1="1046" x2="585" y2="1049"
 style="stroke-width:1;stroke:Black;"/>
<line x1="579" y1="1052" x2="585" y2="1049"
 style="stroke-width:1;stroke:Black;"/>
<text style="font-family:Arial;font-size:12px;kerning:0;word-spacing:-1px;fill:Black;">
<tspan x="375" y="967">cidoc-rm:P1_is_identified_by  R</tspan>
</text>
</g>
<g id="2002720186"><path d="M196,389 L196,449 197,453 201,455 327,455 "
style="fill:none;stroke-width:1;stroke:Black;"/>
<line x1="321" y1="452" x2="327" y2="455"
 style="stroke-width:1;stroke:Black;"/>
<line x1="321" y1="458" x2="327" y2="455"
 style="stroke-width:1;stroke:Black;"/>
<text style="font-family:Arial;font-size:12px;kerning:0;word-spacing:-1px;fill:Black;">
<tspan x="198" y="404">frbroo:CLR6_should_carry  DR</tspan>
</text>
</g>
<g id="2002720191"><path d="M1235,174 L1109,174 "
style="fill:none;stroke-width:1;stroke:Black;"/>
<line x1="1115" y1="171" x2="1109" y2="174"
 style="stroke-width:1;stroke:Black;"/>
<line x1="1115" y1="177" x2="1109" y2="174"
 style="stroke-width:1;stroke:Black;"/>
<text style="font-family:Arial;font-size:12px;kerning:0;word-spacing:-1px;fill:Black;">
<tspan x="1153" y="187">rdfs:range  D</tspan>
<tspan x="1153" y="202">rdfs:domain  D</tspan>
</text>
</g>
<g id="2002720196"><path d="M725,889 L725,784 "
style="fill:none;stroke-width:1;stroke:Black;"/>
<line x1="722" y1="790" x2="725" y2="784"
 style="stroke-width:1;stroke:Black;"/>
<line x1="728" y1="790" x2="725" y2="784"
 style="stroke-width:1;stroke:Black;"/>
<text style="font-family:Arial;font-size:12px;kerning:0;word-spacing:-1px;fill:Black;">
<tspan x="563" y="871">cidoc-rm:P48_has_preferred_</tspan>
<tspan x="563" y="886">identifier  </tspan>
</text>
</g>
<g id="2002720201"><path d="M543,419 L543,447 "
style="fill:none;stroke-width:1;stroke:Black;"/>
<line x1="540" y1="441" x2="543" y2="447"
 style="stroke-width:1;stroke:Black;"/>
<line x1="546" y1="441" x2="543" y2="447"
 style="stroke-width:1;stroke:Black;"/>
<text style="font-family:Arial;font-size:12px;kerning:0;word-spacing:-1px;fill:Black;">
<tspan x="545" y="434">frbroo:R24_created  DR</tspan>
</text>
</g>
<g id="2002720206"><path d="M715,145 L583,145 "
style="fill:none;stroke-width:1;stroke:Black;"/>
<line x1="589" y1="142" x2="583" y2="145"
 style="stroke-width:1;stroke:Black;"/>
<line x1="589" y1="148" x2="583" y2="145"
 style="stroke-width:1;stroke:Black;"/>
<text style="font-family:Arial;font-size:12px;kerning:0;word-spacing:-1px;fill:Black;">
<tspan x="597" y="158">foaf:primaryTopic  DR</tspan>
</text>
</g>
<g id="2002720211"><path d="M1101,875 L1101,1036 1099,1040 1095,1042 875,1042 "
style="fill:none;stroke-width:1;stroke:Black;"/>
<line x1="881" y1="1039" x2="875" y2="1042"
 style="stroke-width:1;stroke:Black;"/>
<line x1="881" y1="1044" x2="875" y2="1042"
 style="stroke-width:1;stroke:Black;"/>
<text style="font-family:Arial;font-size:12px;kerning:0;word-spacing:-1px;fill:Black;">
<tspan x="1103" y="890">cidoc-rm:P1_is_identified_by  R</tspan>
</text>
</g>
<g id="2002720216"><path d="M1237,634 L1237,666 1239,670 1243,672 1377,672 1381,674 1383,678 1383,1068 1381,1072 1377,1074 875,1074 "
style="fill:none;stroke-width:1;stroke:Black;"/>
<line x1="881" y1="1071" x2="875" y2="1074"
 style="stroke-width:1;stroke:Black;"/>
<line x1="881" y1="1076" x2="875" y2="1074"
 style="stroke-width:1;stroke:Black;"/>
<text style="font-family:Arial;font-size:12px;kerning:0;word-spacing:-1px;fill:Black;">
<tspan x="1239" y="649">cidoc-rm:P1_is_identified_by  R</tspan>
</text>
</g>
<g id="2002720221"><path d="M949,556 L1149,556 "
style="fill:none;stroke-width:1;stroke:Black;"/>
<line x1="1143" y1="553" x2="1149" y2="556"
 style="stroke-width:1;stroke:Black;"/>
<line x1="1143" y1="559" x2="1149" y2="556"
 style="stroke-width:1;stroke:Black;"/>
<text style="font-family:Arial;font-size:12px;kerning:0;word-spacing:-1px;fill:Black;">
<tspan x="953" y="554">cidoc-rm:P2_has_type  </tspan>
</text>
</g>
<g id="2002720226"><path d="M721,257 L721,227 719,223 715,221 583,221 "
style="fill:none;stroke-width:1;stroke:Black;"/>
<line x1="589" y1="218" x2="583" y2="221"
 style="stroke-width:1;stroke:Black;"/>
<line x1="589" y1="224" x2="583" y2="221"
 style="stroke-width:1;stroke:Black;"/>
<text style="font-family:Arial;font-size:12px;kerning:0;word-spacing:-1px;fill:Black;">
<tspan x="635" y="239">void:target  D</tspan>
<tspan x="635" y="254">void:subset  DR</tspan>
</text>
</g>
<g id="2002720231"><path d="M554,586 L1149,586 "
style="fill:none;stroke-width:1;stroke:Black;"/>
<line x1="1143" y1="583" x2="1149" y2="586"
 style="stroke-width:1;stroke:Black;"/>
<line x1="1143" y1="589" x2="1149" y2="586"
 style="stroke-width:1;stroke:Black;"/>
<text style="font-family:Arial;font-size:12px;kerning:0;word-spacing:-1px;fill:Black;">
<tspan x="558" y="584">cidoc-rm:P2_has_type  </tspan>
</text>
</g>
<g id="2002720236"><path d="M453,720 L603,720 607,718 609,714 609,698 611,694 615,692 794,692 798,690 800,686 800,565 "
style="fill:none;stroke-width:1;stroke:Black;"/>
<line x1="797" y1="571" x2="800" y2="565"
 style="stroke-width:1;stroke:Black;"/>
<line x1="802" y1="571" x2="800" y2="565"
 style="stroke-width:1;stroke:Black;"/>
<text style="font-family:Arial;font-size:12px;kerning:0;word-spacing:-1px;fill:Black;">
<tspan x="457" y="719">frbroo:R2_is_derivative_of  </tspan>
</text>
</g>
<g id="2002720241"><path d="M327,474 L146,474 142,476 140,480 140,620 "
style="fill:none;stroke-width:1;stroke:Black;"/>
<line x1="137" y1="615" x2="140" y2="620"
 style="stroke-width:1;stroke:Black;"/>
<line x1="143" y1="615" x2="140" y2="620"
 style="stroke-width:1;stroke:Black;"/>
<text style="font-family:Arial;font-size:12px;kerning:0;word-spacing:-1px;fill:Black;">
<tspan x="149" y="487">cidoc-rm:P165_incorporates  DR</tspan>
</text>
</g>
</svg>
