<?xml version="1.0" encoding="UTF-8" standalone="no"?>
<!DOCTYPE svg PUBLIC "-//W3C//DTD SVG 1.1//EN"
"http://www.w3.org/Graphics/SVG/1.1/DTD/svg11.dtd">
<svg version="1.1" xmlns="http://www.w3.org/2000/svg"
xmlns:xlink="http://www.w3.org/1999/xlink" xml:space="preserve"
 width="1502" height="977" viewBox="0 0 1502 977">
 onmousemove="movetip(evt)" onmouseup="endmove()">
<rect x="0" y="0" width="100%" height="100%" style="fill:White;"/>
<script type="application/ecmascript"> <![CDATA[
var dragtipid = null; var dragcase = false; function init(evt){
if (window.svgDocument==null) svgDocument = evt.target.ownerDocument;
}
function movetip(evt){if (dragtipid!=null){ dragcase = true;
var tip=svgDocument.getElementById(dragtipid);
tip.setAttributeNS(null,"x",evt.clientX-2);
tip.setAttributeNS(null,"y",evt.clientY-2);
}}
function endmove(){dragtipid = null;}
function startmove(evt,id){dragtipid = id; dragcase = false;
var tip=svgDocument.getElementById(dragtipid);
tip.setAttributeNS(null,"x",evt.clientX-2);
tip.setAttributeNS(null,"y",evt.clientY-2);
}
function Showtip(evt,id){ dragtipid = null;
var tip=svgDocument.getElementById(id);
var vis=tip.getAttributeNS(null,"visibility");
if (vis=="hidden"){
tip.setAttributeNS(null,"x",evt.clientX-2);
tip.setAttributeNS(null,"y",evt.clientY-2);
tip.setAttributeNS(null,"visibility","visible");
}}
function Hidetip(id){ dragtipid = null; if (dragcase==false){
var tip=svgDocument.getElementById(id);
tip.setAttributeNS(null,"visibility","hidden");
}}
]]></script>
<defs><linearGradient id="activ1" x1="0%" y1="0%" x2="100%" y2="0%">
<stop offset="0%" style="stop-color:#FFFF00;stop-opacity:1"/>
<stop offset="100%" style="stop-color:#FFFFF0;stop-opacity:1"/>
</linearGradient></defs>
<g id="2002721842"><polygon points="813,102 1061,102 1061,197 813,197 "
style="fill:#F4D03F; stroke-width:1;stroke:Black;"/>
<text style="font-family:Arial;font-size:12px;kerning:0;word-spacing:-1px;fill:Black;font-weight:bold;">
<tspan x="850" y="117">vocab:OrderInformation (7.7e5)</tspan>
</text>
<line x1="817" y1="120" x2="1059" y2="120"
 style="stroke-width:1;stroke:Black;"/>
<text style="font-family:Arial;font-size:12px;kerning:0;word-spacing:-1px;fill:Black;">
<tspan x="817" y="132">rdf:type (7.7e5) [*]  -&gt;  owl:Class</tspan>
<tspan x="817" y="147">rdfs:label (7.8e5) [*] </tspan>
<tspan x="817" y="162">schema:offeredBy (7.8e5) [*] D</tspan>
<tspan x="817" y="177">vocab:ean (6.0e5) [*] </tspan>
<tspan x="817" y="192">vocab:labelNumber (7.9e5) [*] D</tspan>
</text>
</g>
<g id="2002721853"><polygon points="151,631 374,631 374,711 151,711 "
style="fill:#F4D03F; stroke-width:1;stroke:Black;"/>
<text style="font-family:Arial;font-size:12px;kerning:0;word-spacing:-1px;fill:Black;font-weight:bold;">
<tspan x="216" y="646">owl:Ontology (1)</tspan>
</text>
<line x1="155" y1="649" x2="372" y2="649"
 style="stroke-width:1;stroke:Black;"/>
<text style="font-family:Arial;font-size:12px;kerning:0;word-spacing:-1px;fill:Black;">
<tspan x="155" y="661">owl:versionNumber (1) [1] </tspan>
<tspan x="155" y="676">rdf:type (1) [*]  -&gt;  owl:Class</tspan>
<tspan x="155" y="691">rdfs:comment (1) [*] </tspan>
<tspan x="155" y="706">rdfs:label (1) [*] </tspan>
</text>
</g>
<g id="2002721864"><polygon points="891,754 1127,754 1127,864 891,864 "
style="fill:#F4D03F; stroke-width:1;stroke:Black;"/>
<text style="font-family:Arial;font-size:12px;kerning:0;word-spacing:-1px;fill:Black;font-weight:bold;">
<tspan x="942" y="769">owl:ObjectProperty (20)</tspan>
</text>
<line x1="895" y1="772" x2="1125" y2="772"
 style="stroke-width:1;stroke:Black;"/>
<text style="font-family:Arial;font-size:12px;kerning:0;word-spacing:-1px;fill:Black;">
<tspan x="895" y="784">owl:inverseOf (1) [1] D -&gt; IRI</tspan>
<tspan x="895" y="799">rdf:type (23) [*]  -&gt;  owl:Class</tspan>
<tspan x="895" y="814">rdfs:comment (20) [*] </tspan>
<tspan x="895" y="829">rdfs:domain (20) [1]  -&gt; IRI</tspan>
<tspan x="895" y="844">rdfs:label (20) [*] </tspan>
<tspan x="895" y="859">&lt;&gt; rdfs:subPropertyOf  </tspan>
</text>
</g>
<g id="2002721875"><polygon points="816,245 1116,245 1116,591 816,591 "
style="fill:#F4D03F; stroke-width:1;stroke:Black;"/>
<polygon points="813,248 1113,248 1113,594 813,594 "
style="fill:#F4D03F; stroke-width:1;stroke:Black;"/>
<text style="font-family:Arial;font-size:12px;kerning:0;word-spacing:-1px;fill:Black;font-weight:bold;">
<tspan x="817" y="263">vocab:Album or schema:MusicAlbum G101 (7.4e5)</tspan>
</text>
<line x1="817" y1="266" x2="1111" y2="266"
 style="stroke-width:1;stroke:Black;"/>
<text style="font-family:Arial;font-size:12px;kerning:0;word-spacing:-1px;fill:Black;">
<tspan x="817" y="278">owl:sameAs (6.9e5) [*]  -&gt; IRI</tspan>
<tspan x="817" y="293">rdf:type (2.2e6) [*]  -&gt;  owl:Class</tspan>
<tspan x="817" y="308">rdfs:label (7.4e5) [*] </tspan>
<tspan x="817" y="323">schema:datePublished (7.4e5) [1] D</tspan>
<tspan x="817" y="338">schema:duration (6.2e5) [1] D</tspan>
<tspan x="817" y="353">skos:prefLabel (7.4e5) [*] </tspan>
<tspan x="817" y="368">vocab:buyAdvice (3.1e4) [1] D</tspan>
<tspan x="817" y="383">vocab:dvdAnnotation (1.8e4) [1] D</tspan>
<tspan x="817" y="398">vocab:dvdSoundFormat (2.3e4) [1] D</tspan>
<tspan x="817" y="413">vocab:ean (5.9e5) [*] </tspan>
<tspan x="817" y="428">vocab:fullCover (7.4e5) [1] D</tspan>
<tspan x="817" y="443">vocab:genreCode (7.1e5) [1] D</tspan>
<tspan x="817" y="458">vocab:lending (7.4e5) [1] D</tspan>
<tspan x="817" y="473">vocab:mediaDescription (3.0e6) [*] D</tspan>
<tspan x="817" y="488">vocab:numberOfDiscs (7.4e5) [1] D</tspan>
<tspan x="817" y="503">vocab:objectAvailable (7.4e5) [1] D</tspan>
<tspan x="817" y="518">vocab:possibleToDigitize (7.4e5) [1] D</tspan>
<tspan x="817" y="533">vocab:userRating (7.4e5) [1] D</tspan>
<tspan x="817" y="548">&lt;&gt; vocab:related  </tspan>
</text>
<text style="font-family:Arial;font-size:11px;kerning:0;word-spacing:-1px;fill:Black;font-weight:bold;">
<tspan x="817" y="563">schema:MusicAlbum (7.4e5)</tspan>
<tspan x="817" y="578">vocab:Album (7.4e5)</tspan>
</text>
</g>
<g id="2002721886"><polygon points="384,467 583,467 583,517 384,517 "
style="fill:#F4D03F; stroke-width:1;stroke:Black;"/>
<text style="font-family:Arial;font-size:12px;kerning:0;word-spacing:-1px;fill:Black;font-weight:bold;">
<tspan x="422" y="482">vocab:DVDRegion (9)</tspan>
</text>
<line x1="388" y1="485" x2="581" y2="485"
 style="stroke-width:1;stroke:Black;"/>
<text style="font-family:Arial;font-size:12px;kerning:0;word-spacing:-1px;fill:Black;">
<tspan x="388" y="497">rdf:type (9) [*]  -&gt;  owl:Class</tspan>
<tspan x="388" y="512">rdfs:label (9) [*] </tspan>
</text>
</g>
<g id="2002721897"><polygon points="58,334 329,334 329,518 58,518 "
style="fill:#F4D03F; stroke-width:1;stroke:Black;"/>
<text style="font-family:Arial;font-size:12px;kerning:0;word-spacing:-1px;fill:Black;font-weight:bold;">
<tspan x="112" y="349">schema:MusicGroup (5.4e5)</tspan>
</text>
<line x1="62" y1="352" x2="327" y2="352"
 style="stroke-width:1;stroke:Black;"/>
<text style="font-family:Arial;font-size:12px;kerning:0;word-spacing:-1px;fill:Black;">
<tspan x="62" y="364">owl:sameAs (3.8e5) [*]  -&gt; IRI</tspan>
<tspan x="62" y="379">rdf:type (1.3e6) [*]  -&gt;  owl:Class</tspan>
<tspan x="62" y="394">rdfs:label (5.4e5) [*] </tspan>
<tspan x="62" y="409">schema:description (1339) [1] D</tspan>
<tspan x="62" y="424">schema:keywords (1.5e5) [*] D</tspan>
<tspan x="62" y="439">skos:altLabel (2.6e4) [*] D</tspan>
<tspan x="62" y="454">skos:hiddenLabel (3.5e5) [*] </tspan>
<tspan x="62" y="469">skos:prefLabel (5.4e5) [*] </tspan>
<tspan x="62" y="484">vocab:beginYear (4.4e4) [1] D</tspan>
<tspan x="62" y="499">vocab:endYear (2.0e4) [1] D</tspan>
</text>
</g>
<g id="2002721908"><polygon points="1033,627 1218,627 1218,672 1033,672 "
style="fill:#F4D03F; stroke-width:1;stroke:Black;"/>
<text style="font-family:Arial;font-size:12px;kerning:0;word-spacing:-1px;fill:Black;font-weight:bold;">
<tspan x="1055" y="642">owl:ReflexiveProperty (1)</tspan>
</text>
</g>
<g id="2002721919"><polygon points="664,621 874,621 874,671 664,671 "
style="fill:#F4D03F; stroke-width:1;stroke:Black;"/>
<text style="font-family:Arial;font-size:12px;kerning:0;word-spacing:-1px;fill:Black;font-weight:bold;">
<tspan x="686" y="636">vocab:BroadcastStandard (8)</tspan>
</text>
<line x1="668" y1="639" x2="872" y2="639"
 style="stroke-width:1;stroke:Black;"/>
<text style="font-family:Arial;font-size:12px;kerning:0;word-spacing:-1px;fill:Black;">
<tspan x="668" y="651">rdf:type (8) [*]  -&gt;  owl:Class</tspan>
<tspan x="668" y="666">rdfs:label (8) [*] </tspan>
</text>
</g>
<g id="2002721930"><polygon points="1149,846 1492,846 1492,957 1149,957 "
style="fill:White; stroke-width:1;stroke:Black;"/>
<text style="font-family:Arial;font-size:12px;kerning:0;word-spacing:-1px;fill:Black;">
<tspan x="1153" y="860">PREFIX vocab: &lt;https://data.muziekweb.nl/vocab/&gt;</tspan>
<tspan x="1153" y="875">PREFIX schema: &lt;http://schema.org/&gt;</tspan>
<tspan x="1153" y="890">PREFIX owl: &lt;http://www.w3.org/2002/07/owl#&gt;</tspan>
<tspan x="1153" y="905">PREFIX rdfs: &lt;http://www.w3.org/2000/01/rdf-schema#&gt;</tspan>
<tspan x="1153" y="920">PREFIX skos: &lt;http://www.w3.org/2004/02/skos/core#&gt;</tspan>
<tspan x="1153" y="935">PREFIX void: &lt;http://rdfs.org/ns/void#&gt;</tspan>
<tspan x="1153" y="950">PREFIX rdf: &lt;http://www.w3.org/1999/02/22-rdf-syntax-ns#&gt;</tspan>
</text>
</g>
<g id="2002721941"><polygon points="453,328 660,328 660,408 453,408 "
style="fill:#F4D03F; stroke-width:1;stroke:Black;"/>
<text style="font-family:Arial;font-size:12px;kerning:0;word-spacing:-1px;fill:Black;font-weight:bold;">
<tspan x="480" y="343">vocab:ExternalLink (4.0e5)</tspan>
</text>
<line x1="457" y1="346" x2="658" y2="346"
 style="stroke-width:1;stroke:Black;"/>
<text style="font-family:Arial;font-size:12px;kerning:0;word-spacing:-1px;fill:Black;">
<tspan x="457" y="358">rdf:type (4.0e5) [*]  -&gt;  owl:Class</tspan>
<tspan x="457" y="373">rdfs:label (4.0e5) [*] </tspan>
<tspan x="457" y="388">schema:url (4.0e5) [1] D</tspan>
<tspan x="457" y="403">vocab:provider (4.0e5) [1] D</tspan>
</text>
</g>
<g id="2002721952"><polygon points="310,249 514,249 514,314 310,314 "
style="fill:#F4D03F; stroke-width:1;stroke:Black;"/>
<text style="font-family:Arial;font-size:12px;kerning:0;word-spacing:-1px;fill:Black;font-weight:bold;">
<tspan x="344" y="264">vocab:Performer (6.7e4)</tspan>
</text>
<line x1="314" y1="267" x2="512" y2="267"
 style="stroke-width:1;stroke:Black;"/>
<text style="font-family:Arial;font-size:12px;kerning:0;word-spacing:-1px;fill:Black;">
<tspan x="314" y="279">rdf:type (2.1e5) [*]  -&gt;  owl:Class</tspan>
<tspan x="314" y="294">rdfs:label (6.7e4) [*] </tspan>
<tspan x="314" y="309">&lt;&gt; vocab:contemporary  DR</tspan>
</text>
</g>
<g id="2002721963"><polygon points="1149,779 1383,779 1383,824 1149,824 "
style="fill:#F4D03F; stroke-width:1;stroke:Black;"/>
<text style="font-family:Arial;font-size:12px;kerning:0;word-spacing:-1px;fill:Black;font-weight:bold;">
<tspan x="1188" y="794">vocab:BestOfAlbum (1.0e4)</tspan>
</text>
</g>
<g id="2002721974"><polygon points="630,705 875,705 875,755 630,755 "
style="fill:#F4D03F; stroke-width:1;stroke:Black;"/>
<text style="font-family:Arial;font-size:12px;kerning:0;word-spacing:-1px;fill:Black;font-weight:bold;">
<tspan x="687" y="720">vocab:MediaFormat (5)</tspan>
</text>
<line x1="634" y1="723" x2="873" y2="723"
 style="stroke-width:1;stroke:Black;"/>
<text style="font-family:Arial;font-size:12px;kerning:0;word-spacing:-1px;fill:Black;">
<tspan x="634" y="735">rdf:type (5) [*]  -&gt;  owl:Class</tspan>
<tspan x="634" y="750">rdfs:label (5) [*] </tspan>
</text>
</g>
<g id="2002721985"><polygon points="1036,691 1219,691 1219,735 1036,735 "
style="fill:#F4D03F; stroke-width:1;stroke:Black;"/>
<text style="font-family:Arial;font-size:12px;kerning:0;word-spacing:-1px;fill:Black;font-weight:bold;">
<tspan x="1051" y="706">owl:SymmetricProperty (2)</tspan>
</text>
</g>
<g id="2002721996"><polygon points="66,174 276,174 276,254 66,254 "
style="fill:#F4D03F; stroke-width:1;stroke:Black;"/>
<text style="font-family:Arial;font-size:12px;kerning:0;word-spacing:-1px;fill:Black;font-weight:bold;">
<tspan x="117" y="189">vocab:Alias (2.6e4)</tspan>
</text>
<line x1="70" y1="192" x2="274" y2="192"
 style="stroke-width:1;stroke:Black;"/>
<text style="font-family:Arial;font-size:12px;kerning:0;word-spacing:-1px;fill:Black;">
<tspan x="70" y="204">rdf:type (2.6e4) [*]  -&gt;  owl:Class</tspan>
<tspan x="70" y="219">rdfs:label (2.6e4) [*] </tspan>
<tspan x="70" y="234">skos:hiddenLabel (1.8e4) [*] </tspan>
<tspan x="70" y="249">skos:prefLabel (2.6e4) [*] </tspan>
</text>
</g>
<g id="2002722007"><polygon points="1149,205 1422,205 1422,285 1149,285 "
style="fill:#F4D03F; stroke-width:1;stroke:Black;"/>
<polygon points="1146,208 1419,208 1419,288 1146,288 "
style="fill:#F4D03F; stroke-width:1;stroke:Black;"/>
<text style="font-family:Arial;font-size:12px;kerning:0;word-spacing:-1px;fill:Black;font-weight:bold;">
<tspan x="1168" y="223">vocab:PopularAlbum et al. G102 (6.9e5)</tspan>
</text>
<text style="font-family:Arial;font-size:11px;kerning:0;word-spacing:-1px;fill:Black;font-weight:bold;">
<tspan x="1150" y="238">vocab:ClassicalAlbum (1.6e5)</tspan>
<tspan x="1150" y="253">vocab:CollectionAlbum (8.0e4)</tspan>
<tspan x="1150" y="268">vocab:OriginalSoundTrack (1.3e4)</tspan>
<tspan x="1150" y="283">vocab:PopularAlbum (4.4e5)</tspan>
</text>
</g>
<g id="2002722018"><polygon points="1234,326 1419,326 1419,436 1234,436 "
style="fill:#F4D03F; stroke-width:1;stroke:Black;"/>
<text style="font-family:Arial;font-size:12px;kerning:0;word-spacing:-1px;fill:Black;font-weight:bold;">
<tspan x="1274" y="341">vocab:Genre (636)</tspan>
</text>
<line x1="1238" y1="344" x2="1417" y2="344"
 style="stroke-width:1;stroke:Black;"/>
<text style="font-family:Arial;font-size:12px;kerning:0;word-spacing:-1px;fill:Black;">
<tspan x="1238" y="356">rdf:type (636) [*]  -&gt;  owl:Class</tspan>
<tspan x="1238" y="371">rdfs:comment (334) [*] </tspan>
<tspan x="1238" y="386">rdfs:label (2748) [*] </tspan>
<tspan x="1238" y="401">&lt;&gt; skos:broader  DR</tspan>
<tspan x="1238" y="416">&lt;&gt; skos:narrower  DR</tspan>
</text>
</g>
<g id="2002722029"><polygon points="457,558 659,558 659,608 457,608 "
style="fill:#F4D03F; stroke-width:1;stroke:Black;"/>
<text style="font-family:Arial;font-size:12px;kerning:0;word-spacing:-1px;fill:Black;font-weight:bold;">
<tspan x="496" y="573">vocab:MediaType (17)</tspan>
</text>
<line x1="461" y1="576" x2="657" y2="576"
 style="stroke-width:1;stroke:Black;"/>
<text style="font-family:Arial;font-size:12px;kerning:0;word-spacing:-1px;fill:Black;">
<tspan x="461" y="588">rdf:type (31) [*]  -&gt;  owl:Class</tspan>
<tspan x="461" y="603">rdfs:label (17) [*] </tspan>
</text>
</g>
<g id="2002722040"><polygon points="151,737 382,737 382,817 151,817 "
style="fill:#F4D03F; stroke-width:1;stroke:Black;"/>
<text style="font-family:Arial;font-size:12px;kerning:0;word-spacing:-1px;fill:Black;font-weight:bold;">
<tspan x="222" y="752">void:Dataset (1)</tspan>
</text>
<line x1="155" y1="755" x2="380" y2="755"
 style="stroke-width:1;stroke:Black;"/>
<text style="font-family:Arial;font-size:12px;kerning:0;word-spacing:-1px;fill:Black;">
<tspan x="155" y="767">owl:versionNumber (1) [1] </tspan>
<tspan x="155" y="782">rdf:type (1) [*]  -&gt;  owl:Class</tspan>
<tspan x="155" y="797">rdfs:comment (1) [*] </tspan>
<tspan x="155" y="812">rdfs:label (1) [*] </tspan>
</text>
</g>
<g id="2002722051"><polygon points="326,101 497,101 497,146 326,146 "
style="fill:#F4D03F; stroke-width:1;stroke:Black;"/>
<text style="font-family:Arial;font-size:12px;kerning:0;word-spacing:-1px;fill:Black;font-weight:bold;">
<tspan x="337" y="116">schema:Composer (9367)</tspan>
</text>
</g>
<g id="2002722062"><polygon points="809,887 1076,887 1076,967 809,967 "
style="fill:#F4D03F; stroke-width:1;stroke:Black;"/>
<text style="font-family:Arial;font-size:12px;kerning:0;word-spacing:-1px;fill:Black;font-weight:bold;">
<tspan x="868" y="902">owl:DatatypeProperty (20)</tspan>
</text>
<line x1="813" y1="905" x2="1074" y2="905"
 style="stroke-width:1;stroke:Black;"/>
<text style="font-family:Arial;font-size:12px;kerning:0;word-spacing:-1px;fill:Black;">
<tspan x="813" y="917">rdf:type (20) [*]  -&gt;  owl:Class</tspan>
<tspan x="813" y="932">rdfs:comment (20) [*] </tspan>
<tspan x="813" y="947">rdfs:domain (20) [1]  -&gt; IRI</tspan>
<tspan x="813" y="962">rdfs:label (20) [*] </tspan>
</text>
</g>
<g id="2002722073"><polygon points="1194,109 1412,109 1412,159 1194,159 "
style="fill:#F4D03F; stroke-width:1;stroke:Black;"/>
<text style="font-family:Arial;font-size:12px;kerning:0;word-spacing:-1px;fill:Black;font-weight:bold;">
<tspan x="1248" y="124">vocab:Label (3.6e4)</tspan>
</text>
<line x1="1198" y1="127" x2="1410" y2="127"
 style="stroke-width:1;stroke:Black;"/>
<text style="font-family:Arial;font-size:12px;kerning:0;word-spacing:-1px;fill:Black;">
<tspan x="1198" y="139">rdf:type (3.6e4) [*]  -&gt;  owl:Class</tspan>
<tspan x="1198" y="154">rdfs:label (3.7e4) [*] </tspan>
</text>
</g>
<g id="2002722084"><polygon points="69,557 369,557 369,622 69,622 "
style="fill:#F4D03F; stroke-width:1;stroke:Black;"/>
<polygon points="66,560 366,560 366,625 66,625 "
style="fill:#F4D03F; stroke-width:1;stroke:Black;"/>
<text style="font-family:Arial;font-size:12px;kerning:0;word-spacing:-1px;fill:Black;font-weight:bold;">
<tspan x="92" y="575">vocab:PopularPerformer et al. G103 (5.0e5)</tspan>
</text>
<text style="font-family:Arial;font-size:11px;kerning:0;word-spacing:-1px;fill:Black;font-weight:bold;">
<tspan x="70" y="590">vocab:ClassicalPerformer (1.1e5)</tspan>
<tspan x="70" y="605">vocab:ImportantPerformer (143)</tspan>
<tspan x="70" y="620">vocab:PopularPerformer (3.9e5)</tspan>
</text>
</g>
<g id="2002722095"><polygon points="521,102 726,102 726,147 521,147 "
style="fill:#F4D03F; stroke-width:1;stroke:Black;"/>
<text style="font-family:Arial;font-size:12px;kerning:0;word-spacing:-1px;fill:Black;font-weight:bold;">
<tspan x="556" y="117">schema:Person (1.6e5)</tspan>
</text>
<line x1="525" y1="120" x2="724" y2="120"
 style="stroke-width:1;stroke:Black;"/>
<text style="font-family:Arial;font-size:12px;kerning:0;word-spacing:-1px;fill:Black;">
<tspan x="525" y="132">rdf:type (5.0e5) [*]  -&gt;  owl:Class</tspan>
</text>
</g>
<g id="2002722106"><polygon points="436,834 692,834 692,944 436,944 "
style="fill:#F4D03F; stroke-width:1;stroke:Black;"/>
<text style="font-family:Arial;font-size:12px;kerning:0;word-spacing:-1px;fill:Black;font-weight:bold;">
<tspan x="527" y="849">owl:Class (1)</tspan>
</text>
<line x1="440" y1="852" x2="690" y2="852"
 style="stroke-width:1;stroke:Black;"/>
<text style="font-family:Arial;font-size:12px;kerning:0;word-spacing:-1px;fill:Black;">
<tspan x="440" y="864">rdf:type (1) [*]  -&gt;  owl:Class</tspan>
<tspan x="440" y="879">rdfs:comment (1) [*] </tspan>
<tspan x="440" y="894">rdfs:label (1) [*] </tspan>
<tspan x="440" y="909">rdfs:subClassOf (1) [*]  -&gt; IRI</tspan>
<tspan x="440" y="924">&lt;- rdf:type (636)  &lt;-  vocab:Album or schema:</tspan>
<tspan x="440" y="939">MusicAlbum,vocab:MediaFormat..(18)</tspan>
</text>
</g>
<g id="2002794983"><polygon points="314,25 1221,25 1221,81 314,81 "
style="fill:none; stroke-width:1;stroke:Black;"/>
<text style="font-family:Arial;font-size:18px;kerning:0;word-spacing:-1px;fill:Black;font-weight:bold;">
<tspan x="697" y="45">Muziekweb Data </tspan>
<tspan x="343" y="67">https://api.data.muziekweb.nl/datasets/MuziekwebOrganization/Muziekweb/services/Muziekweb/sparql</tspan>
</text>
</g>
<g id="2002721695"><path d="M979,248 L979,197 "
style="fill:none;stroke-width:1;stroke:Black;"/>
<line x1="976" y1="203" x2="979" y2="197"
 style="stroke-width:1;stroke:Black;"/>
<line x1="982" y1="203" x2="979" y2="197"
 style="stroke-width:1;stroke:Black;"/>
<text style="font-family:Arial;font-size:12px;kerning:0;word-spacing:-1px;fill:Black;">
<tspan x="827" y="244">vocab:orderInformation  DR</tspan>
</text>
</g>
<g id="2002721700"><path d="M440,517 L440,737 438,741 434,743 382,743 "
style="fill:none;stroke-width:1;stroke:Black;"/>
<line x1="388" y1="740" x2="382" y2="743"
 style="stroke-width:1;stroke:Black;"/>
<line x1="388" y1="746" x2="382" y2="743"
 style="stroke-width:1;stroke:Black;"/>
<text style="font-family:Arial;font-size:12px;kerning:0;word-spacing:-1px;fill:Black;">
<tspan x="442" y="532">rdfs:isDefinedBy  R</tspan>
</text>
</g>
<g id="2002721705"><path d="M809,950 L244,950 240,948 238,944 238,817 "
style="fill:none;stroke-width:1;stroke:Black;"/>
<line x1="235" y1="823" x2="238" y2="817"
 style="stroke-width:1;stroke:Black;"/>
<line x1="241" y1="823" x2="238" y2="817"
 style="stroke-width:1;stroke:Black;"/>
<text style="font-family:Arial;font-size:12px;kerning:0;word-spacing:-1px;fill:Black;">
<tspan x="700" y="963">rdfs:isDefinedBy  R</tspan>
</text>
</g>
<g id="2002721710"><path d="M813,286 L514,286 "
style="fill:none;stroke-width:1;stroke:Black;"/>
<line x1="520" y1="283" x2="514" y2="286"
 style="stroke-width:1;stroke:Black;"/>
<line x1="520" y1="289" x2="514" y2="286"
 style="stroke-width:1;stroke:Black;"/>
<text style="font-family:Arial;font-size:12px;kerning:0;word-spacing:-1px;fill:Black;">
<tspan x="730" y="299">vocab:related  </tspan>
</text>
</g>
<g id="2002721715"><path d="M1061,141 L1194,141 "
style="fill:none;stroke-width:1;stroke:Black;"/>
<line x1="1188" y1="138" x2="1194" y2="141"
 style="stroke-width:1;stroke:Black;"/>
<line x1="1188" y1="144" x2="1194" y2="141"
 style="stroke-width:1;stroke:Black;"/>
<text style="font-family:Arial;font-size:12px;kerning:0;word-spacing:-1px;fill:Black;">
<tspan x="1065" y="139">vocab:label  DR</tspan>
</text>
</g>
<g id="2002721720"><path d="M260,737 L260,711 "
style="fill:none;stroke-width:1;stroke:Black;"/>
<line x1="257" y1="717" x2="260" y2="711"
 style="stroke-width:1;stroke:Black;"/>
<line x1="263" y1="717" x2="260" y2="711"
 style="stroke-width:1;stroke:Black;"/>
<text style="font-family:Arial;font-size:12px;kerning:0;word-spacing:-1px;fill:Black;">
<tspan x="170" y="733">void:subSet  DR</tspan>
</text>
</g>
<g id="2002721725"><path d="M813,575 L659,575 "
style="fill:none;stroke-width:1;stroke:Black;"/>
<line x1="665" y1="572" x2="659" y2="575"
 style="stroke-width:1;stroke:Black;"/>
<line x1="665" y1="578" x2="659" y2="575"
 style="stroke-width:1;stroke:Black;"/>
<text style="font-family:Arial;font-size:12px;kerning:0;word-spacing:-1px;fill:Black;">
<tspan x="698" y="588">vocab:mediaType  D</tspan>
</text>
</g>
<g id="2002721730"><path d="M329,454 L813,454 "
style="fill:none;stroke-width:1;stroke:Black;"/>
<line x1="807" y1="451" x2="813" y2="454"
 style="stroke-width:1;stroke:Black;"/>
<line x1="807" y1="457" x2="813" y2="454"
 style="stroke-width:1;stroke:Black;"/>
<text style="font-family:Arial;font-size:12px;kerning:0;word-spacing:-1px;fill:Black;">
<tspan x="333" y="437">vocab:related  </tspan>
<tspan x="333" y="452">vocab:album  R</tspan>
</text>
</g>
<g id="2002721735"><path d="M837,594 L837,621 "
style="fill:none;stroke-width:1;stroke:Black;"/>
<line x1="834" y1="615" x2="837" y2="621"
 style="stroke-width:1;stroke:Black;"/>
<line x1="840" y1="615" x2="837" y2="621"
 style="stroke-width:1;stroke:Black;"/>
<text style="font-family:Arial;font-size:12px;kerning:0;word-spacing:-1px;fill:Black;">
<tspan x="839" y="609">vocab:broadcastStandard  DR</tspan>
</text>
</g>
<g id="2002721740"><path d="M813,254 L692,254 688,252 686,248 686,147 "
style="fill:none;stroke-width:1;stroke:Black;"/>
<line x1="683" y1="153" x2="686" y2="147"
 style="stroke-width:1;stroke:Black;"/>
<line x1="689" y1="153" x2="686" y2="147"
 style="stroke-width:1;stroke:Black;"/>
<text style="font-family:Arial;font-size:12px;kerning:0;word-spacing:-1px;fill:Black;">
<tspan x="705" y="267">vocab:performer  D</tspan>
</text>
</g>
<g id="2002721745"><path d="M329,369 L453,369 "
style="fill:none;stroke-width:1;stroke:Black;"/>
<line x1="447" y1="366" x2="453" y2="369"
 style="stroke-width:1;stroke:Black;"/>
<line x1="447" y1="372" x2="453" y2="369"
 style="stroke-width:1;stroke:Black;"/>
<text style="font-family:Arial;font-size:12px;kerning:0;word-spacing:-1px;fill:Black;">
<tspan x="333" y="367">vocab:externalLink  R</tspan>
</text>
</g>
<g id="2002721750"><path d="M813,368 L660,368 "
style="fill:none;stroke-width:1;stroke:Black;"/>
<line x1="666" y1="365" x2="660" y2="368"
 style="stroke-width:1;stroke:Black;"/>
<line x1="666" y1="371" x2="660" y2="368"
 style="stroke-width:1;stroke:Black;"/>
<text style="font-family:Arial;font-size:12px;kerning:0;word-spacing:-1px;fill:Black;">
<tspan x="693" y="381">vocab:externalLink  R</tspan>
</text>
</g>
<g id="2002721755"><path d="M581,147 L581,269 583,273 587,275 813,275 "
style="fill:none;stroke-width:1;stroke:Black;"/>
<line x1="807" y1="272" x2="813" y2="275"
 style="stroke-width:1;stroke:Black;"/>
<line x1="807" y1="278" x2="813" y2="275"
 style="stroke-width:1;stroke:Black;"/>
<text style="font-family:Arial;font-size:12px;kerning:0;word-spacing:-1px;fill:Black;">
<tspan x="583" y="162">vocab:album  R</tspan>
</text>
</g>
<g id="2002721760"><path d="M504,608 L504,755 502,759 498,761 382,761 "
style="fill:none;stroke-width:1;stroke:Black;"/>
<line x1="388" y1="758" x2="382" y2="761"
 style="stroke-width:1;stroke:Black;"/>
<line x1="388" y1="764" x2="382" y2="761"
 style="stroke-width:1;stroke:Black;"/>
<text style="font-family:Arial;font-size:12px;kerning:0;word-spacing:-1px;fill:Black;">
<tspan x="506" y="623">rdfs:isDefinedBy  R</tspan>
</text>
</g>
<g id="2002721765"><path d="M99,334 L99,254 "
style="fill:none;stroke-width:1;stroke:Black;"/>
<line x1="96" y1="260" x2="99" y2="254"
 style="stroke-width:1;stroke:Black;"/>
<line x1="102" y1="260" x2="99" y2="254"
 style="stroke-width:1;stroke:Black;"/>
<text style="font-family:Arial;font-size:12px;kerning:0;word-spacing:-1px;fill:Black;">
<tspan x="11" y="330">vocab:alias  DR</tspan>
</text>
</g>
<g id="2002721770"><path d="M1011,594 L1011,724 1009,728 1005,730 875,730 "
style="fill:none;stroke-width:1;stroke:Black;"/>
<line x1="881" y1="727" x2="875" y2="730"
 style="stroke-width:1;stroke:Black;"/>
<line x1="881" y1="733" x2="875" y2="730"
 style="stroke-width:1;stroke:Black;"/>
<text style="font-family:Arial;font-size:12px;kerning:0;word-spacing:-1px;fill:Black;">
<tspan x="1013" y="609">vocab:digitalMediaFormat  DR</tspan>
</text>
</g>
<g id="2002721775"><path d="M813,498 L583,498 "
style="fill:none;stroke-width:1;stroke:Black;"/>
<line x1="589" y1="495" x2="583" y2="498"
 style="stroke-width:1;stroke:Black;"/>
<line x1="589" y1="501" x2="583" y2="498"
 style="stroke-width:1;stroke:Black;"/>
<text style="font-family:Arial;font-size:12px;kerning:0;word-spacing:-1px;fill:Black;">
<tspan x="691" y="511">vocab:dvdRegion  DR</tspan>
</text>
</g>
<g id="2002721780"><path d="M813,418 L329,418 "
style="fill:none;stroke-width:1;stroke:Black;"/>
<line x1="335" y1="415" x2="329" y2="418"
 style="stroke-width:1;stroke:Black;"/>
<line x1="335" y1="421" x2="329" y2="418"
 style="stroke-width:1;stroke:Black;"/>
<text style="font-family:Arial;font-size:12px;kerning:0;word-spacing:-1px;fill:Black;">
<tspan x="705" y="431">vocab:performer  D</tspan>
</text>
</g>
<g id="2002721785"><path d="M1113,381 L1234,381 "
style="fill:none;stroke-width:1;stroke:Black;"/>
<line x1="1228" y1="378" x2="1234" y2="381"
 style="stroke-width:1;stroke:Black;"/>
<line x1="1228" y1="384" x2="1234" y2="381"
 style="stroke-width:1;stroke:Black;"/>
<text style="font-family:Arial;font-size:12px;kerning:0;word-spacing:-1px;fill:Black;">
<tspan x="1117" y="379">vocab:genre  DR</tspan>
</text>
</g>
<g id="2002721790"><path d="M891,803 L382,803 "
style="fill:none;stroke-width:1;stroke:Black;"/>
<line x1="388" y1="800" x2="382" y2="803"
 style="stroke-width:1;stroke:Black;"/>
<line x1="388" y1="806" x2="382" y2="803"
 style="stroke-width:1;stroke:Black;"/>
<text style="font-family:Arial;font-size:12px;kerning:0;word-spacing:-1px;fill:Black;">
<tspan x="782" y="816">rdfs:isDefinedBy  R</tspan>
</text>
</g>
<g id="2002721795"><path d="M809,929 L692,929 "
style="fill:none;stroke-width:1;stroke:Black;"/>
<line x1="698" y1="926" x2="692" y2="929"
 style="stroke-width:1;stroke:Black;"/>
<line x1="698" y1="932" x2="692" y2="929"
 style="stroke-width:1;stroke:Black;"/>
<text style="font-family:Arial;font-size:12px;kerning:0;word-spacing:-1px;fill:Black;">
<tspan x="743" y="942">rdfs:range  </tspan>
</text>
</g>
<g id="2002721800"><path d="M891,847 L692,847 "
style="fill:none;stroke-width:1;stroke:Black;"/>
<line x1="698" y1="844" x2="692" y2="847"
 style="stroke-width:1;stroke:Black;"/>
<line x1="698" y1="850" x2="692" y2="847"
 style="stroke-width:1;stroke:Black;"/>
<text style="font-family:Arial;font-size:12px;kerning:0;word-spacing:-1px;fill:Black;">
<tspan x="825" y="860">rdfs:range  </tspan>
</text>
</g>
<g id="2002721805"><path d="M707,755 L707,787 705,791 701,793 382,793 "
style="fill:none;stroke-width:1;stroke:Black;"/>
<line x1="388" y1="790" x2="382" y2="793"
 style="stroke-width:1;stroke:Black;"/>
<line x1="388" y1="796" x2="382" y2="793"
 style="stroke-width:1;stroke:Black;"/>
<text style="font-family:Arial;font-size:12px;kerning:0;word-spacing:-1px;fill:Black;">
<tspan x="709" y="770">rdfs:isDefinedBy  R</tspan>
</text>
</g>
<g id="2002721810"><path d="M664,654 L542,654 538,656 536,660 536,773 534,777 530,779 382,779 "
style="fill:none;stroke-width:1;stroke:Black;"/>
<line x1="388" y1="776" x2="382" y2="779"
 style="stroke-width:1;stroke:Black;"/>
<line x1="388" y1="782" x2="382" y2="779"
 style="stroke-width:1;stroke:Black;"/>
<text style="font-family:Arial;font-size:12px;kerning:0;word-spacing:-1px;fill:Black;">
<tspan x="555" y="667">rdfs:isDefinedBy  R</tspan>
</text>
</g>
<g id="2002721815"><path d="M281,334 L281,287 283,283 287,281 310,281 "
style="fill:none;stroke-width:1;stroke:Black;"/>
<line x1="304" y1="278" x2="310" y2="281"
 style="stroke-width:1;stroke:Black;"/>
<line x1="304" y1="284" x2="310" y2="281"
 style="stroke-width:1;stroke:Black;"/>
<text style="font-family:Arial;font-size:12px;kerning:0;word-spacing:-1px;fill:Black;">
<tspan x="150" y="300">vocab:related  </tspan>
<tspan x="150" y="315">vocab:seeAlso  DR</tspan>
<tspan x="150" y="330">vocab:influencedBy  DR</tspan>
</text>
</g>
<g id="2002721820"><path d="M952,887 L952,864 "
style="fill:none;stroke-width:1;stroke:Black;"/>
<line x1="949" y1="870" x2="952" y2="864"
 style="stroke-width:1;stroke:Black;"/>
<line x1="955" y1="870" x2="952" y2="864"
 style="stroke-width:1;stroke:Black;"/>
<text style="font-family:Arial;font-size:12px;kerning:0;word-spacing:-1px;fill:Black;">
<tspan x="842" y="883">rdfs:subPropertyOf  </tspan>
</text>
</g>
<g id="2002721825"><path d="M436,869 L305,869 301,867 299,863 299,817 "
style="fill:none;stroke-width:1;stroke:Black;"/>
<line x1="296" y1="823" x2="299" y2="817"
 style="stroke-width:1;stroke:Black;"/>
<line x1="302" y1="823" x2="299" y2="817"
 style="stroke-width:1;stroke:Black;"/>
<text style="font-family:Arial;font-size:12px;kerning:0;word-spacing:-1px;fill:Black;">
<tspan x="327" y="882">rdfs:isDefinedBy  R</tspan>
</text>
</g>
<g id="2002721830"><path d="M183,518 L183,560 "
style="fill:none;stroke-width:2;stroke:Fuchsia;"/>
<polygon points="188,528 183,518 178,528 "
style="fill:Silver;stroke-width:1;stroke:Black;"/>
<text style="font-family:Arial;font-size:12px;kerning:0;word-spacing:-1px;fill:Black;">
<tspan x="185" y="533"> </tspan>
</text>
</g>
<g id="2002721834"><path d="M521,122 L497,122 "
style="fill:none;stroke-width:2;stroke:Fuchsia;"/>
<polygon points="511,127 521,122 511,117 "
style="fill:Silver;stroke-width:1;stroke:Black;"/>
<text style="font-family:Arial;font-size:12px;kerning:0;word-spacing:-1px;fill:Black;">
<tspan x="507" y="135"> </tspan>
</text>
</g>
<g id="2002721836"><path d="M1091,754 L1091,735 "
style="fill:none;stroke-width:2;stroke:Fuchsia;"/>
<polygon points="1096,744 1091,754 1086,744 "
style="fill:Silver;stroke-width:1;stroke:Black;"/>
<text style="font-family:Arial;font-size:12px;kerning:0;word-spacing:-1px;fill:Black;">
<tspan x="1079" y="750"> </tspan>
</text>
</g>
<g id="2002721838"><path d="M1113,268 L1146,268 "
style="fill:none;stroke-width:2;stroke:Fuchsia;"/>
<polygon points="1123,273 1113,268 1123,263 "
style="fill:Silver;stroke-width:1;stroke:Black;"/>
<text style="font-family:Arial;font-size:12px;kerning:0;word-spacing:-1px;fill:Black;">
<tspan x="1117" y="266"> </tspan>
</text>
</g>
<g id="2002721840"><path d="M1127,691 L1127,672 "
style="fill:none;stroke-width:2;stroke:Fuchsia;"/>
<polygon points="1132,681 1127,691 1122,681 "
style="fill:Silver;stroke-width:1;stroke:Black;"/>
<text style="font-family:Arial;font-size:12px;kerning:0;word-spacing:-1px;fill:Black;">
<tspan x="1115" y="687"> </tspan>
</text>
</g>
</svg>
