<?xml version="1.0" encoding="UTF-8" standalone="no"?>
<!DOCTYPE svg PUBLIC "-//W3C//DTD SVG 1.1//EN"
"http://www.w3.org/Graphics/SVG/1.1/DTD/svg11.dtd">
<svg version="1.1" xmlns="http://www.w3.org/2000/svg"
xmlns:xlink="http://www.w3.org/1999/xlink" xml:space="preserve"
 width="824" height="637" viewBox="0 0 824 637">
 onmousemove="movetip(evt)" onmouseup="endmove()">
<rect x="0" y="0" width="100%" height="100%" style="fill:White;"/>
<script type="application/ecmascript"> <![CDATA[
var dragtipid = null; var dragcase = false; function init(evt){
if (window.svgDocument==null) svgDocument = evt.target.ownerDocument;
}
function movetip(evt){if (dragtipid!=null){ dragcase = true;
var tip=svgDocument.getElementById(dragtipid);
tip.setAttributeNS(null,"x",evt.clientX-2);
tip.setAttributeNS(null,"y",evt.clientY-2);
}}
function endmove(){dragtipid = null;}
function startmove(evt,id){dragtipid = id; dragcase = false;
var tip=svgDocument.getElementById(dragtipid);
tip.setAttributeNS(null,"x",evt.clientX-2);
tip.setAttributeNS(null,"y",evt.clientY-2);
}
function Showtip(evt,id){ dragtipid = null;
var tip=svgDocument.getElementById(id);
var vis=tip.getAttributeNS(null,"visibility");
if (vis=="hidden"){
tip.setAttributeNS(null,"x",evt.clientX-2);
tip.setAttributeNS(null,"y",evt.clientY-2);
tip.setAttributeNS(null,"visibility","visible");
}}
function Hidetip(id){ dragtipid = null; if (dragcase==false){
var tip=svgDocument.getElementById(id);
tip.setAttributeNS(null,"visibility","hidden");
}}
]]></script>
<defs><linearGradient id="activ1" x1="0%" y1="0%" x2="100%" y2="0%">
<stop offset="0%" style="stop-color:#FFFF00;stop-opacity:1"/>
<stop offset="100%" style="stop-color:#FFFFF0;stop-opacity:1"/>
</linearGradient></defs>
<g id="2002719828"><polygon points="29,217 255,217 255,627 29,627 "
style="fill:#F4D03F; stroke-width:1;stroke:Black;"/>
<text style="font-family:Arial;font-size:12px;kerning:0;word-spacing:-1px;fill:Black;font-weight:bold;">
<tspan x="53" y="232">ontolex:LexicalConcept (1.2e5)</tspan>
</text>
<line x1="33" y1="235" x2="253" y2="235"
 style="stroke-width:1;stroke:Black;"/>
<text style="font-family:Arial;font-size:12px;kerning:0;word-spacing:-1px;fill:Black;">
<tspan x="33" y="247">dct:subject (1.2e5) [1] D</tspan>
<tspan x="33" y="262">owl:sameAs (1.2e5) [1] D -&gt; IRI</tspan>
<tspan x="33" y="277">princ:definition (1.2e5) [1] D -&gt; IRI</tspan>
<tspan x="33" y="292">princ:partOfSpeech (1.2e5) [1]  -&gt; IRI</tspan>
<tspan x="33" y="307">rdf:type (1.2e5) [1]  -&gt; IRI</tspan>
<tspan x="33" y="322">&lt;&gt; princ:also  </tspan>
<tspan x="33" y="337">&lt;&gt; princ:attribute  DR</tspan>
<tspan x="33" y="352">&lt;&gt; princ:causes  DR</tspan>
<tspan x="33" y="367">&lt;&gt; princ:domain_region  </tspan>
<tspan x="33" y="382">&lt;&gt; princ:domain_topic  </tspan>
<tspan x="33" y="397">&lt;&gt; princ:entails  DR</tspan>
<tspan x="33" y="412">&lt;&gt; princ:exemplifies  </tspan>
<tspan x="33" y="427">&lt;&gt; princ:has_domain_region  </tspan>
<tspan x="33" y="442">&lt;&gt; princ:has_domain_topic  </tspan>
<tspan x="33" y="457">&lt;&gt; princ:holo_member  DR</tspan>
<tspan x="33" y="472">&lt;&gt; princ:holo_part  DR</tspan>
<tspan x="33" y="487">&lt;&gt; princ:holo_substance  DR</tspan>
<tspan x="33" y="502">&lt;&gt; princ:hypernym  DR</tspan>
<tspan x="33" y="517">&lt;&gt; princ:hyponym  DR</tspan>
<tspan x="33" y="532">&lt;&gt; princ:instance_hypernym  DR</tspan>
<tspan x="33" y="547">&lt;&gt; princ:instance_hyponym  DR</tspan>
<tspan x="33" y="562">&lt;&gt; princ:is_exemplified_by  </tspan>
<tspan x="33" y="577">&lt;&gt; princ:mero_member  DR</tspan>
<tspan x="33" y="592">&lt;&gt; princ:mero_part  DR</tspan>
<tspan x="33" y="607">&lt;&gt; princ:mero_substance  DR</tspan>
<tspan x="33" y="622">&lt;&gt; princ:similar  </tspan>
</text>
</g>
<g id="2002719839"><polygon points="29,113 364,113 364,211 29,211 "
style="fill:White; stroke-width:1;stroke:Black;"/>
<text style="font-family:Arial;font-size:12px;kerning:0;word-spacing:-1px;fill:Black;">
<tspan x="33" y="127">PREFIX princ: &lt;http://wordnet-rdf.princeton.edu/ontology#&gt;</tspan>
<tspan x="33" y="142">PREFIX ontolex: &lt;http://www.w3.org/ns/lemon/ontolex#&gt;</tspan>
<tspan x="33" y="157">PREFIX rdf: &lt;http://www.w3.org/1999/02/22-rdf-syntax-ns#&gt;</tspan>
<tspan x="33" y="172">PREFIX owl: &lt;http://www.w3.org/2002/07/owl#&gt;</tspan>
<tspan x="33" y="187">PREFIX dct: &lt;http://purl.org/dc/terms/&gt;</tspan>
<tspan x="33" y="202">PREFIX synsem: &lt;http://www.w3.org/ns/lemon/synsem#&gt;</tspan>
</text>
</g>
<g id="2002719850"><polygon points="567,212 814,212 814,487 567,487 "
style="fill:#F4D03F; stroke-width:1;stroke:Black;"/>
<text style="font-family:Arial;font-size:12px;kerning:0;word-spacing:-1px;fill:Black;font-weight:bold;">
<tspan x="607" y="227">ontolex:LexicalSense (2.1e5)</tspan>
</text>
<line x1="571" y1="230" x2="812" y2="230"
 style="stroke-width:1;stroke:Black;"/>
<text style="font-family:Arial;font-size:12px;kerning:0;word-spacing:-1px;fill:Black;">
<tspan x="571" y="242">rdf:type (2.1e5) [1]  -&gt; IRI</tspan>
<tspan x="571" y="257">&lt;&gt; princ:also  </tspan>
<tspan x="571" y="272">&lt;&gt; princ:antonym  DR</tspan>
<tspan x="571" y="287">&lt;&gt; princ:derivation  DR</tspan>
<tspan x="571" y="302">&lt;&gt; princ:domain_region  </tspan>
<tspan x="571" y="317">&lt;&gt; princ:domain_topic  </tspan>
<tspan x="571" y="332">&lt;&gt; princ:exemplifies  </tspan>
<tspan x="571" y="347">&lt;&gt; princ:has_domain_region  </tspan>
<tspan x="571" y="362">&lt;&gt; princ:has_domain_topic  </tspan>
<tspan x="571" y="377">&lt;&gt; princ:is_exemplified_by  </tspan>
<tspan x="571" y="392">&lt;&gt; princ:participle  DR</tspan>
<tspan x="571" y="407">&lt;&gt; princ:pertainym  DR</tspan>
<tspan x="571" y="422">&lt;&gt; princ:similar  </tspan>
</text>
</g>
<g id="2002719861"><polygon points="566,541 814,541 814,621 566,621 "
style="fill:#F4D03F; stroke-width:1;stroke:Black;"/>
<text style="font-family:Arial;font-size:12px;kerning:0;word-spacing:-1px;fill:Black;font-weight:bold;">
<tspan x="610" y="556">ontolex:LexicalEntry (1.6e5)</tspan>
</text>
<line x1="570" y1="559" x2="812" y2="559"
 style="stroke-width:1;stroke:Black;"/>
<text style="font-family:Arial;font-size:12px;kerning:0;word-spacing:-1px;fill:Black;">
<tspan x="570" y="571">ontolex:canonicalForm (2.1e5) [*] D -&gt; IRI</tspan>
<tspan x="570" y="586">princ:partOfSpeech (1.6e5) [1]  -&gt; IRI</tspan>
<tspan x="570" y="601">rdf:type (1.6e5) [1]  -&gt; IRI</tspan>
<tspan x="570" y="616">synsem:synBehavior (9.9e4) [*] D -&gt; IRI</tspan>
</text>
</g>
<g id="2002793612"><polygon points="68,45 786,45 786,98 68,98 "
style="fill:none; stroke-width:1;stroke:Black;"/>
<text style="font-family:Arial;font-size:18px;kerning:0;word-spacing:-1px;fill:Black;font-weight:bold;">
<tspan x="347" y="65">Princeton WordNet</tspan>
<tspan x="115" y="87">https://api.triplydb.com/datasets/princeton/wordnet/services/wordnet/sparql</tspan>
</text>
</g>
<g id="2002719813"><path d="M709,541 L709,487 "
style="fill:none;stroke-width:1;stroke:Black;"/>
<line x1="706" y1="493" x2="709" y2="487"
 style="stroke-width:1;stroke:Black;"/>
<line x1="712" y1="493" x2="709" y2="487"
 style="stroke-width:1;stroke:Black;"/>
<text style="font-family:Arial;font-size:12px;kerning:0;word-spacing:-1px;fill:Black;">
<tspan x="606" y="537">ontolex:sense  DR</tspan>
</text>
</g>
<g id="2002719818"><path d="M567,224 L255,224 "
style="fill:none;stroke-width:1;stroke:Black;"/>
<line x1="261" y1="221" x2="255" y2="224"
 style="stroke-width:1;stroke:Black;"/>
<line x1="261" y1="227" x2="255" y2="224"
 style="stroke-width:1;stroke:Black;"/>
<text style="font-family:Arial;font-size:12px;kerning:0;word-spacing:-1px;fill:Black;">
<tspan x="379" y="237">ontolex:isLexicalizedSenseOf  DR</tspan>
<tspan x="379" y="252">princ:similar  </tspan>
<tspan x="379" y="267">princ:domain_topic  </tspan>
<tspan x="379" y="282">princ:has_domain_topic  </tspan>
<tspan x="379" y="297">princ:also  </tspan>
<tspan x="379" y="312">princ:domain_region  </tspan>
<tspan x="379" y="327">princ:has_domain_region  </tspan>
<tspan x="379" y="342">princ:exemplifies  </tspan>
<tspan x="379" y="357">princ:is_exemplified_by  </tspan>
</text>
</g>
<g id="2002719823"><path d="M255,481 L567,481 "
style="fill:none;stroke-width:1;stroke:Black;"/>
<line x1="561" y1="478" x2="567" y2="481"
 style="stroke-width:1;stroke:Black;"/>
<line x1="561" y1="484" x2="567" y2="481"
 style="stroke-width:1;stroke:Black;"/>
<text style="font-family:Arial;font-size:12px;kerning:0;word-spacing:-1px;fill:Black;">
<tspan x="259" y="374">princ:similar  </tspan>
<tspan x="259" y="389">princ:domain_topic  </tspan>
<tspan x="259" y="404">princ:has_domain_topic  </tspan>
<tspan x="259" y="419">princ:also  </tspan>
<tspan x="259" y="434">princ:domain_region  </tspan>
<tspan x="259" y="449">princ:has_domain_region  </tspan>
<tspan x="259" y="464">princ:exemplifies  </tspan>
<tspan x="259" y="479">princ:is_exemplified_by  </tspan>
</text>
</g>
</svg>
