<?xml version="1.0" encoding="UTF-8" standalone="no"?>
<!DOCTYPE svg PUBLIC "-//W3C//DTD SVG 1.1//EN"
"http://www.w3.org/Graphics/SVG/1.1/DTD/svg11.dtd">
<svg version="1.1" xmlns="http://www.w3.org/2000/svg"
xmlns:xlink="http://www.w3.org/1999/xlink" xml:space="preserve"
 width="827" height="574" viewBox="0 0 827 574">
 onmousemove="movetip(evt)" onmouseup="endmove()">
<rect x="0" y="0" width="100%" height="100%" style="fill:White;"/>
<script type="application/ecmascript"> <![CDATA[
var dragtipid = null; var dragcase = false; function init(evt){
if (window.svgDocument==null) svgDocument = evt.target.ownerDocument;
}
function movetip(evt){if (dragtipid!=null){ dragcase = true;
var tip=svgDocument.getElementById(dragtipid);
tip.setAttributeNS(null,"x",evt.clientX-2);
tip.setAttributeNS(null,"y",evt.clientY-2);
}}
function endmove(){dragtipid = null;}
function startmove(evt,id){dragtipid = id; dragcase = false;
var tip=svgDocument.getElementById(dragtipid);
tip.setAttributeNS(null,"x",evt.clientX-2);
tip.setAttributeNS(null,"y",evt.clientY-2);
}
function Showtip(evt,id){ dragtipid = null;
var tip=svgDocument.getElementById(id);
var vis=tip.getAttributeNS(null,"visibility");
if (vis=="hidden"){
tip.setAttributeNS(null,"x",evt.clientX-2);
tip.setAttributeNS(null,"y",evt.clientY-2);
tip.setAttributeNS(null,"visibility","visible");
}}
function Hidetip(id){ dragtipid = null; if (dragcase==false){
var tip=svgDocument.getElementById(id);
tip.setAttributeNS(null,"visibility","hidden");
}}
]]></script>
<defs><linearGradient id="activ1" x1="0%" y1="0%" x2="100%" y2="0%">
<stop offset="0%" style="stop-color:#FFFF00;stop-opacity:1"/>
<stop offset="100%" style="stop-color:#FFFFF0;stop-opacity:1"/>
</linearGradient></defs>
<g id="2002719828"><polygon points="32,154 258,154 258,564 32,564 "
style="fill:#F4D03F; stroke-width:1;stroke:Black;"/>
<text style="font-family:Arial;font-size:12px;kerning:0;word-spacing:-1px;fill:Black;font-weight:bold;">
<tspan x="56" y="169">ontolex:LexicalConcept (1.2e5)</tspan>
</text>
<line x1="36" y1="172" x2="256" y2="172"
 style="stroke-width:1;stroke:Black;"/>
<text style="font-family:Arial;font-size:12px;kerning:0;word-spacing:-1px;fill:Black;">
<tspan x="36" y="184">dct:subject (1.2e5) [1] D</tspan>
<tspan x="36" y="199">owl:sameAs (1.2e5) [1] D -&gt; IRI</tspan>
<tspan x="36" y="214">princ:definition (1.2e5) [1] D -&gt; IRI</tspan>
<tspan x="36" y="229">princ:partOfSpeech (1.2e5) [1]  -&gt; IRI</tspan>
<tspan x="36" y="244">rdf:type (1.2e5) [1]  -&gt; IRI</tspan>
<tspan x="36" y="259">&lt;&gt; princ:also  </tspan>
<tspan x="36" y="274">&lt;&gt; princ:attribute  DR</tspan>
<tspan x="36" y="289">&lt;&gt; princ:causes  DR</tspan>
<tspan x="36" y="304">&lt;&gt; princ:domain_region  </tspan>
<tspan x="36" y="319">&lt;&gt; princ:domain_topic  </tspan>
<tspan x="36" y="334">&lt;&gt; princ:entails  DR</tspan>
<tspan x="36" y="349">&lt;&gt; princ:exemplifies  </tspan>
<tspan x="36" y="364">&lt;&gt; princ:has_domain_region  </tspan>
<tspan x="36" y="379">&lt;&gt; princ:has_domain_topic  </tspan>
<tspan x="36" y="394">&lt;&gt; princ:holo_member  DR</tspan>
<tspan x="36" y="409">&lt;&gt; princ:holo_part  DR</tspan>
<tspan x="36" y="424">&lt;&gt; princ:holo_substance  DR</tspan>
<tspan x="36" y="439">&lt;&gt; princ:hypernym  DR</tspan>
<tspan x="36" y="454">&lt;&gt; princ:hyponym  DR</tspan>
<tspan x="36" y="469">&lt;&gt; princ:instance_hypernym  DR</tspan>
<tspan x="36" y="484">&lt;&gt; princ:instance_hyponym  DR</tspan>
<tspan x="36" y="499">&lt;&gt; princ:is_exemplified_by  </tspan>
<tspan x="36" y="514">&lt;&gt; princ:mero_member  DR</tspan>
<tspan x="36" y="529">&lt;&gt; princ:mero_part  DR</tspan>
<tspan x="36" y="544">&lt;&gt; princ:mero_substance  DR</tspan>
<tspan x="36" y="559">&lt;&gt; princ:similar  </tspan>
</text>
</g>
<g id="2002719839"><polygon points="32,47 367,47 367,145 32,145 "
style="fill:White; stroke-width:1;stroke:Black;"/>
<text style="font-family:Arial;font-size:12px;kerning:0;word-spacing:-1px;fill:Black;">
<tspan x="36" y="61">PREFIX princ: &lt;http://wordnet-rdf.princeton.edu/ontology#&gt;</tspan>
<tspan x="36" y="76">PREFIX ontolex: &lt;http://www.w3.org/ns/lemon/ontolex#&gt;</tspan>
<tspan x="36" y="91">PREFIX rdf: &lt;http://www.w3.org/1999/02/22-rdf-syntax-ns#&gt;</tspan>
<tspan x="36" y="106">PREFIX owl: &lt;http://www.w3.org/2002/07/owl#&gt;</tspan>
<tspan x="36" y="121">PREFIX dct: &lt;http://purl.org/dc/terms/&gt;</tspan>
<tspan x="36" y="136">PREFIX synsem: &lt;http://www.w3.org/ns/lemon/synsem#&gt;</tspan>
</text>
</g>
<g id="2002719850"><polygon points="570,155 817,155 817,430 570,430 "
style="fill:#F4D03F; stroke-width:1;stroke:Black;"/>
<text style="font-family:Arial;font-size:12px;kerning:0;word-spacing:-1px;fill:Black;font-weight:bold;">
<tspan x="610" y="170">ontolex:LexicalSense (2.1e5)</tspan>
</text>
<line x1="574" y1="173" x2="815" y2="173"
 style="stroke-width:1;stroke:Black;"/>
<text style="font-family:Arial;font-size:12px;kerning:0;word-spacing:-1px;fill:Black;">
<tspan x="574" y="185">rdf:type (2.1e5) [1]  -&gt; IRI</tspan>
<tspan x="574" y="200">&lt;&gt; princ:also  </tspan>
<tspan x="574" y="215">&lt;&gt; princ:antonym  DR</tspan>
<tspan x="574" y="230">&lt;&gt; princ:derivation  DR</tspan>
<tspan x="574" y="245">&lt;&gt; princ:domain_region  </tspan>
<tspan x="574" y="260">&lt;&gt; princ:domain_topic  </tspan>
<tspan x="574" y="275">&lt;&gt; princ:exemplifies  </tspan>
<tspan x="574" y="290">&lt;&gt; princ:has_domain_region  </tspan>
<tspan x="574" y="305">&lt;&gt; princ:has_domain_topic  </tspan>
<tspan x="574" y="320">&lt;&gt; princ:is_exemplified_by  </tspan>
<tspan x="574" y="335">&lt;&gt; princ:participle  DR</tspan>
<tspan x="574" y="350">&lt;&gt; princ:pertainym  DR</tspan>
<tspan x="574" y="365">&lt;&gt; princ:similar  </tspan>
</text>
</g>
<g id="2002719861"><polygon points="569,484 817,484 817,564 569,564 "
style="fill:#F4D03F; stroke-width:1;stroke:Black;"/>
<text style="font-family:Arial;font-size:12px;kerning:0;word-spacing:-1px;fill:Black;font-weight:bold;">
<tspan x="613" y="499">ontolex:LexicalEntry (1.6e5)</tspan>
</text>
<line x1="573" y1="502" x2="815" y2="502"
 style="stroke-width:1;stroke:Black;"/>
<text style="font-family:Arial;font-size:12px;kerning:0;word-spacing:-1px;fill:Black;">
<tspan x="573" y="514">ontolex:canonicalForm (2.1e5) [*] D -&gt; IRI</tspan>
<tspan x="573" y="529">princ:partOfSpeech (1.6e5) [1]  -&gt; IRI</tspan>
<tspan x="573" y="544">rdf:type (1.6e5) [1]  -&gt; IRI</tspan>
<tspan x="573" y="559">synsem:synBehavior (9.9e4) [*] D -&gt; IRI</tspan>
</text>
</g>
<g id="2002719813"><path d="M712,484 L712,430 "
style="fill:none;stroke-width:1;stroke:Black;"/>
<line x1="709" y1="436" x2="712" y2="430"
 style="stroke-width:1;stroke:Black;"/>
<line x1="715" y1="436" x2="712" y2="430"
 style="stroke-width:1;stroke:Black;"/>
<text style="font-family:Arial;font-size:12px;kerning:0;word-spacing:-1px;fill:Black;">
<tspan x="609" y="480">ontolex:sense  DR</tspan>
</text>
</g>
<g id="2002719818"><path d="M570,167 L258,167 "
style="fill:none;stroke-width:1;stroke:Black;"/>
<line x1="264" y1="164" x2="258" y2="167"
 style="stroke-width:1;stroke:Black;"/>
<line x1="264" y1="170" x2="258" y2="167"
 style="stroke-width:1;stroke:Black;"/>
<text style="font-family:Arial;font-size:12px;kerning:0;word-spacing:-1px;fill:Black;">
<tspan x="382" y="180">ontolex:isLexicalizedSenseOf  DR</tspan>
<tspan x="382" y="195">princ:similar  </tspan>
<tspan x="382" y="210">princ:domain_topic  </tspan>
<tspan x="382" y="225">princ:has_domain_topic  </tspan>
<tspan x="382" y="240">princ:also  </tspan>
<tspan x="382" y="255">princ:domain_region  </tspan>
<tspan x="382" y="270">princ:has_domain_region  </tspan>
<tspan x="382" y="285">princ:exemplifies  </tspan>
<tspan x="382" y="300">princ:is_exemplified_by  </tspan>
</text>
</g>
<g id="2002719823"><path d="M258,424 L570,424 "
style="fill:none;stroke-width:1;stroke:Black;"/>
<line x1="564" y1="421" x2="570" y2="424"
 style="stroke-width:1;stroke:Black;"/>
<line x1="564" y1="427" x2="570" y2="424"
 style="stroke-width:1;stroke:Black;"/>
<text style="font-family:Arial;font-size:12px;kerning:0;word-spacing:-1px;fill:Black;">
<tspan x="262" y="317">princ:similar  </tspan>
<tspan x="262" y="332">princ:domain_topic  </tspan>
<tspan x="262" y="347">princ:has_domain_topic  </tspan>
<tspan x="262" y="362">princ:also  </tspan>
<tspan x="262" y="377">princ:domain_region  </tspan>
<tspan x="262" y="392">princ:has_domain_region  </tspan>
<tspan x="262" y="407">princ:exemplifies  </tspan>
<tspan x="262" y="422">princ:is_exemplified_by  </tspan>
</text>
</g>
</svg>
