<?xml version="1.0" encoding="UTF-8" standalone="no"?>
<!DOCTYPE svg PUBLIC "-//W3C//DTD SVG 1.1//EN"
"http://www.w3.org/Graphics/SVG/1.1/DTD/svg11.dtd">
<svg version="1.1" xmlns="http://www.w3.org/2000/svg"
xmlns:xlink="http://www.w3.org/1999/xlink" xml:space="preserve"
 width="1822" height="1373" viewBox="0 0 1822 1373">
 onmousemove="movetip(evt)" onmouseup="endmove()">
<rect x="0" y="0" width="100%" height="100%" style="fill:White;"/>
<script type="application/ecmascript"> <![CDATA[
var dragtipid = null; var dragcase = false; function init(evt){
if (window.svgDocument==null) svgDocument = evt.target.ownerDocument;
}
function movetip(evt){if (dragtipid!=null){ dragcase = true;
var tip=svgDocument.getElementById(dragtipid);
tip.setAttributeNS(null,"x",evt.clientX-2);
tip.setAttributeNS(null,"y",evt.clientY-2);
}}
function endmove(){dragtipid = null;}
function startmove(evt,id){dragtipid = id; dragcase = false;
var tip=svgDocument.getElementById(dragtipid);
tip.setAttributeNS(null,"x",evt.clientX-2);
tip.setAttributeNS(null,"y",evt.clientY-2);
}
function Showtip(evt,id){ dragtipid = null;
var tip=svgDocument.getElementById(id);
var vis=tip.getAttributeNS(null,"visibility");
if (vis=="hidden"){
tip.setAttributeNS(null,"x",evt.clientX-2);
tip.setAttributeNS(null,"y",evt.clientY-2);
tip.setAttributeNS(null,"visibility","visible");
}}
function Hidetip(id){ dragtipid = null; if (dragcase==false){
var tip=svgDocument.getElementById(id);
tip.setAttributeNS(null,"visibility","hidden");
}}
]]></script>
<defs><linearGradient id="activ1" x1="0%" y1="0%" x2="100%" y2="0%">
<stop offset="0%" style="stop-color:#FFFF00;stop-opacity:1"/>
<stop offset="100%" style="stop-color:#FFFFF0;stop-opacity:1"/>
</linearGradient></defs>
<g id="2002722555"><polygon points="1175,1235 1436,1235 1436,1345 1175,1345 "
style="fill:#F4D03F; stroke-width:1;stroke:Black;"/>
<text style="font-family:Arial;font-size:12px;kerning:0;word-spacing:-1px;fill:Black;font-weight:bold;">
<tspan x="1231" y="1250">owl:DatatypeProperty (28)</tspan>
</text>
<line x1="1179" y1="1253" x2="1434" y2="1253"
 style="stroke-width:1;stroke:Black;"/>
<text style="font-family:Arial;font-size:12px;kerning:0;word-spacing:-1px;fill:Black;">
<tspan x="1179" y="1265">dct:description (27) [1] </tspan>
<tspan x="1179" y="1280">rdf:type (28) [*]  -&gt;  owl:Class</tspan>
<tspan x="1179" y="1295">rdfs:comment (27) [1] </tspan>
<tspan x="1179" y="1310">rdfs:label (27) [*] </tspan>
<tspan x="1179" y="1325">&lt;&gt; owl:propertyDisjointWith  DR</tspan>
<tspan x="1179" y="1340">&lt;&gt; rdfs:subPropertyOf  </tspan>
</text>
</g>
<g id="2002722566"><polygon points="1615,1096 1812,1096 1812,1141 1615,1141 "
style="fill:#F4D03F; stroke-width:1;stroke:Black;"/>
<text style="font-family:Arial;font-size:12px;kerning:0;word-spacing:-1px;fill:Black;font-weight:bold;">
<tspan x="1637" y="1111">owl:AnnotationProperty (1)</tspan>
</text>
<line x1="1619" y1="1114" x2="1810" y2="1114"
 style="stroke-width:1;stroke:Black;"/>
<text style="font-family:Arial;font-size:12px;kerning:0;word-spacing:-1px;fill:Black;">
<tspan x="1619" y="1126">rdf:type (1) [*]  -&gt;  owl:Class</tspan>
</text>
</g>
<g id="2002722577"><polygon points="26,964 244,964 244,1224 26,1224 "
style="fill:#F4D03F; stroke-width:1;stroke:Black;"/>
<text style="font-family:Arial;font-size:12px;kerning:0;word-spacing:-1px;fill:Black;font-weight:bold;">
<tspan x="91" y="979">void:Dataset (1)</tspan>
</text>
<line x1="30" y1="982" x2="242" y2="982"
 style="stroke-width:1;stroke:Black;"/>
<text style="font-family:Arial;font-size:12px;kerning:0;word-spacing:-1px;fill:Black;">
<tspan x="30" y="994">dct:created (1) [1] </tspan>
<tspan x="30" y="1009">dct:creator (1) [1] </tspan>
<tspan x="30" y="1024">dct:description (1) [1] </tspan>
<tspan x="30" y="1039">dct:license (1) [1] D -&gt; IRI</tspan>
<tspan x="30" y="1054">dct:publisher (1) [1] D</tspan>
<tspan x="30" y="1069">dct:subject (1) [1] D -&gt; IRI</tspan>
<tspan x="30" y="1084">dct:title (1) [1] </tspan>
<tspan x="30" y="1099">foaf:homepage (1) [1] D -&gt; IRI</tspan>
<tspan x="30" y="1114">foaf:page (1) [1] D -&gt; IRI</tspan>
<tspan x="30" y="1129">rdf:type (1) [*]  -&gt;  owl:Class</tspan>
<tspan x="30" y="1144">rdfs:comment (1) [1] </tspan>
<tspan x="30" y="1159">void:dataDump (6) [*] D</tspan>
<tspan x="30" y="1174">void:feature (1) [1] D -&gt; IRI</tspan>
<tspan x="30" y="1189">void:uriLookupEndpoint (1) [1] D -&gt; IRI</tspan>
<tspan x="30" y="1204">void:uriSpace (1) [1] D</tspan>
</text>
</g>
<g id="2002722588"><polygon points="1238,613 1538,613 1538,828 1238,828 "
style="fill:#F4D03F; stroke-width:1;stroke:Black;"/>
<text style="font-family:Arial;font-size:12px;kerning:0;word-spacing:-1px;fill:Black;font-weight:bold;">
<tspan x="1308" y="628">meshvocab:Concept (4.6e6)</tspan>
</text>
<line x1="1242" y1="631" x2="1536" y2="631"
 style="stroke-width:1;stroke:Black;"/>
<text style="font-family:Arial;font-size:12px;kerning:0;word-spacing:-1px;fill:Black;">
<tspan x="1242" y="643">meshvocab:active (4.7e5) [1] </tspan>
<tspan x="1242" y="658">meshvocab:casn1_label (2.5e5) [1] D</tspan>
<tspan x="1242" y="673">meshvocab:identifier (4.6e6) [1] </tspan>
<tspan x="1242" y="688">meshvocab:lastActiveYear (4454) [1] </tspan>
<tspan x="1242" y="703">meshvocab:registryNumber (3.7e6) [1] D</tspan>
<tspan x="1242" y="718">meshvocab:relatedRegistryNumber (4.4e5) [*] D</tspan>
<tspan x="1242" y="733">meshvocab:scopeNote (3.5e5) [1] D</tspan>
<tspan x="1242" y="748">rdf:type (4.6e6) [*]  -&gt;  owl:Class</tspan>
<tspan x="1242" y="763">rdfs:label (4.6e6) [*] </tspan>
<tspan x="1242" y="778">&lt;&gt; meshvocab:Concept  DR</tspan>
<tspan x="1242" y="793">&lt;&gt; meshvocab:broaderConcept  DR</tspan>
<tspan x="1242" y="808">&lt;&gt; meshvocab:narrowerConcept  DR</tspan>
<tspan x="1242" y="823">&lt;&gt; meshvocab:relatedConcept  DR</tspan>
</text>
</g>
<g id="2002722599"><polygon points="1107,243 1473,243 1473,519 1107,519 "
style="fill:#F4D03F; stroke-width:1;stroke:Black;"/>
<polygon points="1104,246 1470,246 1470,522 1104,522 "
style="fill:#F4D03F; stroke-width:1;stroke:Black;"/>
<text style="font-family:Arial;font-size:12px;kerning:0;word-spacing:-1px;fill:Black;font-weight:bold;">
<tspan x="1142" y="261">meshvocab:GeographicalDescriptor or meshvocab:</tspan>
<tspan x="1204" y="277">PublicationType G103 (6298)</tspan>
</text>
<line x1="1108" y1="280" x2="1468" y2="280"
 style="stroke-width:1;stroke:Black;"/>
<text style="font-family:Arial;font-size:12px;kerning:0;word-spacing:-1px;fill:Black;">
<tspan x="1108" y="292">meshvocab:active (590) [1] </tspan>
<tspan x="1108" y="307">meshvocab:annotation (3862) [1] </tspan>
<tspan x="1108" y="322">meshvocab:dateCreated (6298) [1] </tspan>
<tspan x="1108" y="337">meshvocab:dateEstablished (5764) [1] </tspan>
<tspan x="1108" y="352">meshvocab:dateRevised (6157) [1] </tspan>
<tspan x="1108" y="367">meshvocab:historyNote (3710) [1] </tspan>
<tspan x="1108" y="382">meshvocab:identifier (6298) [1] </tspan>
<tspan x="1108" y="397">meshvocab:nlmClassificationNumber (97) [1] </tspan>
<tspan x="1108" y="412">meshvocab:onlineNote (460) [1] </tspan>
<tspan x="1108" y="427">meshvocab:previousIndexing (728) [*] </tspan>
<tspan x="1108" y="442">rdf:type (6298) [*]  -&gt;  owl:Class</tspan>
<tspan x="1108" y="457">rdfs:label (6298) [*] </tspan>
<tspan x="1108" y="472">&lt;&gt; meshvocab:broaderDescriptor  </tspan>
<tspan x="1108" y="487">&lt;&gt; meshvocab:seeAlso  </tspan>
</text>
<text style="font-family:Arial;font-size:11px;kerning:0;word-spacing:-1px;fill:Black;font-weight:bold;">
<tspan x="1108" y="502">meshvocab:GeographicalDescriptor (4356)</tspan>
<tspan x="1108" y="517">meshvocab:PublicationType (1942)</tspan>
</text>
</g>
<g id="2002722610"><polygon points="1600,1217 1808,1217 1808,1336 1600,1336 "
style="fill:#F4D03F; stroke-width:1;stroke:Black;"/>
<text style="font-family:Arial;font-size:12px;kerning:0;word-spacing:-1px;fill:Black;font-weight:bold;">
<tspan x="1637" y="1232">owl:ObjectProperty (21)</tspan>
</text>
<line x1="1604" y1="1235" x2="1806" y2="1235"
 style="stroke-width:1;stroke:Black;"/>
<text style="font-family:Arial;font-size:12px;kerning:0;word-spacing:-1px;fill:Black;">
<tspan x="1604" y="1247">dct:description (20) [1] </tspan>
<tspan x="1604" y="1262">rdf:type (22) [*]  -&gt;  owl:Class</tspan>
<tspan x="1604" y="1277">rdfs:comment (20) [1] </tspan>
<tspan x="1604" y="1292">rdfs:label (20) [*] </tspan>
<tspan x="1604" y="1307">&lt;&gt; rdfs:subPropertyOf  </tspan>
</text>
</g>
<g id="2002722621"><polygon points="1105,888 1405,888 1405,1163 1105,1163 "
style="fill:#F4D03F; stroke-width:1;stroke:Black;"/>
<polygon points="1102,891 1402,891 1402,1166 1102,1166 "
style="fill:#F4D03F; stroke-width:1;stroke:Black;"/>
<text style="font-family:Arial;font-size:12px;kerning:0;word-spacing:-1px;fill:Black;font-weight:bold;">
<tspan x="1118" y="906">meshvocab:SCR_Chemical et al. G104 (3.1e6)</tspan>
</text>
<line x1="1106" y1="909" x2="1400" y2="909"
 style="stroke-width:1;stroke:Black;"/>
<text style="font-family:Arial;font-size:12px;kerning:0;word-spacing:-1px;fill:Black;">
<tspan x="1106" y="921">meshvocab:active (3.3e5) [1] </tspan>
<tspan x="1106" y="936">meshvocab:dateCreated (3.1e6) [1] </tspan>
<tspan x="1106" y="951">meshvocab:dateRevised (2.3e6) [1] </tspan>
<tspan x="1106" y="966">meshvocab:frequency (3.1e6) [1] </tspan>
<tspan x="1106" y="981">meshvocab:identifier (3.1e6) [1] </tspan>
<tspan x="1106" y="996">meshvocab:lastActiveYear (3528) [1] </tspan>
<tspan x="1106" y="1011">meshvocab:note (2.3e6) [1] </tspan>
<tspan x="1106" y="1026">meshvocab:previousIndexing (5.8e5) [*] </tspan>
<tspan x="1106" y="1041">meshvocab:source (2.7e6) [*] </tspan>
<tspan x="1106" y="1056">rdf:type (3.1e6) [*]  -&gt;  owl:Class</tspan>
<tspan x="1106" y="1071">rdfs:label (3.1e6) [*] </tspan>
</text>
<text style="font-family:Arial;font-size:11px;kerning:0;word-spacing:-1px;fill:Black;font-weight:bold;">
<tspan x="1106" y="1086">meshvocab:SCR_Anatomy (47)</tspan>
<tspan x="1106" y="1101">meshvocab:SCR_Chemical (2.7e6)</tspan>
<tspan x="1106" y="1116">meshvocab:SCR_Disease (7.2e4)</tspan>
<tspan x="1106" y="1131">meshvocab:SCR_Organism (3.5e5)</tspan>
<tspan x="1106" y="1146">meshvocab:SCR_Population (5292)</tspan>
<tspan x="1106" y="1161">meshvocab:SCR_Protocol (1.3e4)</tspan>
</text>
</g>
<g id="2002722632"><polygon points="670,1209 1025,1209 1025,1349 670,1349 "
style="fill:#F4D03F; stroke-width:1;stroke:Black;"/>
<text style="font-family:Arial;font-size:12px;kerning:0;word-spacing:-1px;fill:Black;font-weight:bold;">
<tspan x="807" y="1224">owl:Class (17)</tspan>
</text>
<line x1="674" y1="1227" x2="1023" y2="1227"
 style="stroke-width:1;stroke:Black;"/>
<text style="font-family:Arial;font-size:12px;kerning:0;word-spacing:-1px;fill:Black;">
<tspan x="674" y="1239">dct:description (17) [1] </tspan>
<tspan x="674" y="1254">rdf:type (17) [*]  -&gt;  owl:Class</tspan>
<tspan x="674" y="1269">rdfs:comment (17) [1] </tspan>
<tspan x="674" y="1284">rdfs:label (17) [*] </tspan>
<tspan x="674" y="1299">&lt;- rdf:type (2.4e7)  &lt;-  void:DatasetDescription,sd:Service..(17)</tspan>
<tspan x="674" y="1314">&lt;&gt; owl:disjointWith  DR</tspan>
<tspan x="674" y="1329">&lt;&gt; rdfs:subClassOf  </tspan>
</text>
</g>
<g id="2002722643"><polygon points="1487,307 1787,307 1787,462 1487,462 "
style="fill:#F4D03F; stroke-width:1;stroke:Black;"/>
<text style="font-family:Arial;font-size:12px;kerning:0;word-spacing:-1px;fill:Black;font-weight:bold;">
<tspan x="1561" y="322">meshvocab:CheckTag (22)</tspan>
</text>
<line x1="1491" y1="325" x2="1785" y2="325"
 style="stroke-width:1;stroke:Black;"/>
<text style="font-family:Arial;font-size:12px;kerning:0;word-spacing:-1px;fill:Black;">
<tspan x="1491" y="337">meshvocab:active (2) [1] </tspan>
<tspan x="1491" y="352">meshvocab:annotation (22) [1] </tspan>
<tspan x="1491" y="367">meshvocab:dateCreated (22) [1] </tspan>
<tspan x="1491" y="382">meshvocab:dateEstablished (18) [1] </tspan>
<tspan x="1491" y="397">meshvocab:dateRevised (22) [1] </tspan>
<tspan x="1491" y="412">meshvocab:historyNote (22) [1] </tspan>
<tspan x="1491" y="427">meshvocab:identifier (22) [1] </tspan>
<tspan x="1491" y="442">rdf:type (22) [*]  -&gt;  owl:Class</tspan>
<tspan x="1491" y="457">rdfs:label (22) [*] </tspan>
</text>
</g>
<g id="2002722654"><polygon points="408,1042 642,1042 642,1152 408,1152 "
style="fill:#F4D03F; stroke-width:1;stroke:Black;"/>
<text style="font-family:Arial;font-size:12px;kerning:0;word-spacing:-1px;fill:Black;font-weight:bold;">
<tspan x="486" y="1057">sd:Service (1)</tspan>
</text>
<line x1="412" y1="1060" x2="640" y2="1060"
 style="stroke-width:1;stroke:Black;"/>
<text style="font-family:Arial;font-size:12px;kerning:0;word-spacing:-1px;fill:Black;">
<tspan x="412" y="1072">rdf:type (1) [*]  -&gt;  owl:Class</tspan>
<tspan x="412" y="1087">sd:feature (2) [*] D -&gt; IRI</tspan>
<tspan x="412" y="1102">sd:resultFormat (8) [*] D -&gt; IRI</tspan>
<tspan x="412" y="1117">sd:supportedLanguage (1) [1] D -&gt; IRI</tspan>
<tspan x="412" y="1132">&lt;&gt; sd:endpoint  DR</tspan>
<tspan x="412" y="1147">&lt;&gt; sd:url  DR</tspan>
</text>
</g>
<g id="2002722665"><polygon points="34,893 251,893 251,943 34,943 "
style="fill:#F4D03F; stroke-width:1;stroke:Black;"/>
<text style="font-family:Arial;font-size:12px;kerning:0;word-spacing:-1px;fill:Black;font-weight:bold;">
<tspan x="96" y="908">owl:Ontology (1)</tspan>
</text>
<line x1="38" y1="911" x2="249" y2="911"
 style="stroke-width:1;stroke:Black;"/>
<text style="font-family:Arial;font-size:12px;kerning:0;word-spacing:-1px;fill:Black;">
<tspan x="38" y="923">owl:versionInfo (1) [1] </tspan>
<tspan x="38" y="938">rdf:type (1) [*]  -&gt;  owl:Class</tspan>
</text>
</g>
<g id="2002722676"><polygon points="64,500 364,500 364,700 64,700 "
style="fill:#F4D03F; stroke-width:1;stroke:Black;"/>
<text style="font-family:Arial;font-size:12px;kerning:0;word-spacing:-1px;fill:Black;font-weight:bold;">
<tspan x="140" y="515">meshvocab:Qualifier (864)</tspan>
</text>
<line x1="68" y1="518" x2="362" y2="518"
 style="stroke-width:1;stroke:Black;"/>
<text style="font-family:Arial;font-size:12px;kerning:0;word-spacing:-1px;fill:Black;">
<tspan x="68" y="530">meshvocab:active (84) [1] </tspan>
<tspan x="68" y="545">meshvocab:annotation (864) [1] </tspan>
<tspan x="68" y="560">meshvocab:dateCreated (864) [1] </tspan>
<tspan x="68" y="575">meshvocab:dateEstablished (864) [1] </tspan>
<tspan x="68" y="590">meshvocab:dateRevised (864) [1] </tspan>
<tspan x="68" y="605">meshvocab:historyNote (864) [1] </tspan>
<tspan x="68" y="620">meshvocab:identifier (864) [1] </tspan>
<tspan x="68" y="635">meshvocab:lastActiveYear (8) [1] </tspan>
<tspan x="68" y="650">meshvocab:onlineNote (844) [1] </tspan>
<tspan x="68" y="665">rdf:type (864) [*]  -&gt;  owl:Class</tspan>
<tspan x="68" y="680">rdfs:label (864) [*] </tspan>
<tspan x="68" y="695">&lt;&gt; meshvocab:broaderQualifier  DR</tspan>
</text>
</g>
<g id="2002722687"><polygon points="410,746 744,746 744,1036 410,1036 "
style="fill:#F4D03F; stroke-width:1;stroke:Black;"/>
<text style="font-family:Arial;font-size:12px;kerning:0;word-spacing:-1px;fill:Black;font-weight:bold;">
<tspan x="471" y="761">meshvocab:TopicalDescriptor (3.2e5)</tspan>
</text>
<line x1="414" y1="764" x2="742" y2="764"
 style="stroke-width:1;stroke:Black;"/>
<text style="font-family:Arial;font-size:12px;kerning:0;word-spacing:-1px;fill:Black;">
<tspan x="414" y="776">meshvocab:active (3.0e4) [1] </tspan>
<tspan x="414" y="791">meshvocab:annotation (1.4e5) [1] </tspan>
<tspan x="414" y="806">meshvocab:considerAlso (729) [1] D</tspan>
<tspan x="414" y="821">meshvocab:dateCreated (3.2e5) [1] </tspan>
<tspan x="414" y="836">meshvocab:dateEstablished (3.1e5) [1] </tspan>
<tspan x="414" y="851">meshvocab:dateRevised (3.0e5) [1] </tspan>
<tspan x="414" y="866">meshvocab:historyNote (2.8e5) [1] </tspan>
<tspan x="414" y="881">meshvocab:identifier (3.2e5) [1] </tspan>
<tspan x="414" y="896">meshvocab:lastActiveYear (76) [1] </tspan>
<tspan x="414" y="911">meshvocab:nlmClassificationNumber (6.2e4) [1] </tspan>
<tspan x="414" y="926">meshvocab:onlineNote (3.3e4) [1] </tspan>
<tspan x="414" y="941">meshvocab:previousIndexing (2.9e5) [*] </tspan>
<tspan x="414" y="956">meshvocab:publicMeSHNote (2.7e5) [1] D</tspan>
<tspan x="414" y="971">rdf:type (3.2e5) [*]  -&gt;  owl:Class</tspan>
<tspan x="414" y="986">rdfs:label (3.2e5) [*] </tspan>
<tspan x="414" y="1001">&lt;&gt; meshvocab:broaderDescriptor  </tspan>
<tspan x="414" y="1016">&lt;&gt; meshvocab:pharmacologicalAction  R</tspan>
<tspan x="414" y="1031">&lt;&gt; meshvocab:seeAlso  </tspan>
</text>
</g>
<g id="2002722698"><polygon points="38,1253 220,1253 220,1363 38,1363 "
style="fill:#F4D03F; stroke-width:1;stroke:Black;"/>
<text style="font-family:Arial;font-size:12px;kerning:0;word-spacing:-1px;fill:Black;font-weight:bold;">
<tspan x="52" y="1268">void:DatasetDescription (1)</tspan>
</text>
<line x1="42" y1="1271" x2="218" y2="1271"
 style="stroke-width:1;stroke:Black;"/>
<text style="font-family:Arial;font-size:12px;kerning:0;word-spacing:-1px;fill:Black;">
<tspan x="42" y="1283">dct:creator (1) [1] </tspan>
<tspan x="42" y="1298">dct:date (1) [1] D</tspan>
<tspan x="42" y="1313">dct:description (1) [1] </tspan>
<tspan x="42" y="1328">dct:title (1) [1] </tspan>
<tspan x="42" y="1343">owl:versionInfo (1) [1] </tspan>
<tspan x="42" y="1358">rdf:type (1) [*]  -&gt;  owl:Class</tspan>
</text>
</g>
<g id="2002722709"><polygon points="635,438 935,438 935,638 635,638 "
style="fill:#F4D03F; stroke-width:1;stroke:Black;"/>
<text style="font-family:Arial;font-size:12px;kerning:0;word-spacing:-1px;fill:Black;font-weight:bold;">
<tspan x="715" y="453">meshvocab:Term (8.5e6)</tspan>
</text>
<line x1="639" y1="456" x2="933" y2="456"
 style="stroke-width:1;stroke:Black;"/>
<text style="font-family:Arial;font-size:12px;kerning:0;word-spacing:-1px;fill:Black;">
<tspan x="639" y="468">meshvocab:abbreviation (873) [1] D</tspan>
<tspan x="639" y="483">meshvocab:active (8.7e5) [1] </tspan>
<tspan x="639" y="498">meshvocab:altLabel (1.3e6) [*] D</tspan>
<tspan x="639" y="513">meshvocab:dateCreated (6.0e6) [1] </tspan>
<tspan x="639" y="528">meshvocab:entryVersion (1.8e5) [1] D</tspan>
<tspan x="639" y="543">meshvocab:identifier (8.5e6) [1] </tspan>
<tspan x="639" y="558">meshvocab:lastActiveYear (1.3e4) [1] </tspan>
<tspan x="639" y="573">meshvocab:lexicalTag (8.5e6) [1] D</tspan>
<tspan x="639" y="588">meshvocab:prefLabel (8.5e6) [1] D</tspan>
<tspan x="639" y="603">meshvocab:sortVersion (4.3e4) [1] D</tspan>
<tspan x="639" y="618">meshvocab:thesaurusID (9.0e6) [*] D</tspan>
<tspan x="639" y="633">rdf:type (8.5e6) [*]  -&gt;  owl:Class</tspan>
</text>
</g>
<g id="2002722720"><polygon points="59,162 405,162 405,358 59,358 "
style="fill:#F4D03F; stroke-width:1;stroke:Black;"/>
<polygon points="56,165 402,165 402,361 56,361 "
style="fill:#F4D03F; stroke-width:1;stroke:Black;"/>
<text style="font-family:Arial;font-size:12px;kerning:0;word-spacing:-1px;fill:Black;font-weight:bold;">
<tspan x="64" y="180">meshvocab:AllowedDescriptorQualifierPair or meshvocab:</tspan>
<tspan x="95" y="196">DisallowedDescriptorQualifierPair G105 (6.8e6)</tspan>
</text>
<line x1="60" y1="199" x2="400" y2="199"
 style="stroke-width:1;stroke:Black;"/>
<text style="font-family:Arial;font-size:12px;kerning:0;word-spacing:-1px;fill:Black;">
<tspan x="60" y="211">meshvocab:active (6.8e5) [1] </tspan>
<tspan x="60" y="226">meshvocab:lastActiveYear (5.3e4) [1] </tspan>
<tspan x="60" y="241">rdf:type (6.8e6) [*]  -&gt;  owl:Class</tspan>
<tspan x="60" y="256">rdfs:label (6.8e6) [*] </tspan>
<tspan x="60" y="271">&lt;&gt; meshvocab:useInstead  D</tspan>
</text>
<text style="font-family:Arial;font-size:11px;kerning:0;word-spacing:-1px;fill:Black;font-weight:bold;">
<tspan x="60" y="286">meshvocab:AllowedDescriptorQualifierPair (6.8e6)</tspan>
<tspan x="60" y="301">meshvocab:DisallowedDescriptorQualifierPair (1.1e4)</tspan>
</text>
</g>
<g id="2002722731"><polygon points="29,787 254,787 254,882 29,882 "
style="fill:#F4D03F; stroke-width:1;stroke:Black;"/>
<text style="font-family:Arial;font-size:12px;kerning:0;word-spacing:-1px;fill:Black;font-weight:bold;">
<tspan x="50" y="802">meshvocab:TreeNumber (6.8e5)</tspan>
</text>
<line x1="33" y1="805" x2="252" y2="805"
 style="stroke-width:1;stroke:Black;"/>
<text style="font-family:Arial;font-size:12px;kerning:0;word-spacing:-1px;fill:Black;">
<tspan x="33" y="817">meshvocab:active (8.2e4) [1] </tspan>
<tspan x="33" y="832">meshvocab:lastActiveYear (1.7e4) [1] </tspan>
<tspan x="33" y="847">rdf:type (6.8e5) [*]  -&gt;  owl:Class</tspan>
<tspan x="33" y="862">rdfs:label (6.8e5) [*] </tspan>
<tspan x="33" y="877">&lt;&gt; meshvocab:parentTreeNumber  DR</tspan>
</text>
</g>
<g id="2002722742"><polygon points="1611,1153 1805,1153 1805,1198 1611,1198 "
style="fill:#F4D03F; stroke-width:1;stroke:Black;"/>
<text style="font-family:Arial;font-size:12px;kerning:0;word-spacing:-1px;fill:Black;font-weight:bold;">
<tspan x="1636" y="1168">owl:TransitiveProperty (1)</tspan>
</text>
</g>
<g id="2002722753"><polygon points="264,1198 646,1198 646,1343 264,1343 "
style="fill:White; stroke-width:1;stroke:Black;"/>
<text style="font-family:Arial;font-size:12px;kerning:0;word-spacing:-1px;fill:Black;">
<tspan x="268" y="1212">PREFIX virtrdf: &lt;http://www.openlinksw.com/schemas/virtrdf#&gt;</tspan>
<tspan x="268" y="1227">PREFIX meshvocab: &lt;http://id.nlm.nih.gov/mesh/vocab#&gt;</tspan>
<tspan x="268" y="1242">PREFIX owl: &lt;http://www.w3.org/2002/07/owl#&gt;</tspan>
<tspan x="268" y="1257">PREFIX void: &lt;http://rdfs.org/ns/void#&gt;</tspan>
<tspan x="268" y="1272">PREFIX dct: &lt;http://purl.org/dc/terms/&gt;</tspan>
<tspan x="268" y="1287">PREFIX sd: &lt;http://www.w3.org/ns/sparql-service-description#&gt;</tspan>
<tspan x="268" y="1302">PREFIX rdfs: &lt;http://www.w3.org/2000/01/rdf-schema#&gt;</tspan>
<tspan x="268" y="1317">PREFIX foaf: &lt;http://xmlns.com/foaf/0.1/&gt;</tspan>
<tspan x="268" y="1332">PREFIX rdf: &lt;http://www.w3.org/1999/02/22-rdf-syntax-ns#&gt;</tspan>
</text>
</g>
<g id="2002797739"><polygon points="765,68 1129,68 1129,120 765,120 "
style="fill:none; stroke-width:1;stroke:Black;"/>
<text style="font-family:Arial;font-size:18px;kerning:0;word-spacing:-1px;fill:Black;font-weight:bold;">
<tspan x="816" y="88">Medical Subject Headings RDF</tspan>
<tspan x="808" y="110">https://id.nlm.nih.gov/mesh/sparql</tspan>
</text>
</g>
<g id="2002722358"><path d="M672,1036 L672,1176 674,1180 678,1182 1596,1182 1600,1180 1602,1176 1602,734 1600,730 1596,728 1538,728 "
style="fill:none;stroke-width:1;stroke:Black;"/>
<line x1="1544" y1="725" x2="1538" y2="728"
 style="stroke-width:1;stroke:Black;"/>
<line x1="1544" y1="731" x2="1538" y2="728"
 style="stroke-width:1;stroke:Black;"/>
<text style="font-family:Arial;font-size:12px;kerning:0;word-spacing:-1px;fill:Black;">
<tspan x="674" y="1051">meshvocab:preferredConcept  R</tspan>
<tspan x="674" y="1066">meshvocab:concept  R</tspan>
</text>
</g>
<g id="2002722368"><path d="M1391,522 L1391,613 "
style="fill:none;stroke-width:1;stroke:Black;"/>
<line x1="1388" y1="607" x2="1391" y2="613"
 style="stroke-width:1;stroke:Black;"/>
<line x1="1394" y1="607" x2="1391" y2="613"
 style="stroke-width:1;stroke:Black;"/>
<text style="font-family:Arial;font-size:12px;kerning:0;word-spacing:-1px;fill:Black;">
<tspan x="1393" y="537">meshvocab:preferredConcept  R</tspan>
<tspan x="1393" y="552">meshvocab:concept  R</tspan>
</text>
</g>
<g id="2002722373"><path d="M1402,1090 L1802,1090 1806,1088 1808,1084 1808,194 1806,190 1802,188 402,188 "
style="fill:none;stroke-width:1;stroke:Black;"/>
<line x1="408" y1="185" x2="402" y2="188"
 style="stroke-width:1;stroke:Black;"/>
<line x1="408" y1="191" x2="402" y2="188"
 style="stroke-width:1;stroke:Black;"/>
<text style="font-family:Arial;font-size:12px;kerning:0;word-spacing:-1px;fill:Black;">
<tspan x="1406" y="1058">meshvocab:preferredMappedTo  </tspan>
<tspan x="1406" y="1073">meshvocab:indexerConsiderAlso  </tspan>
<tspan x="1406" y="1088">meshvocab:mappedTo  </tspan>
</text>
</g>
<g id="2002722378"><path d="M736,746 L736,638 "
style="fill:none;stroke-width:1;stroke:Black;"/>
<line x1="733" y1="644" x2="736" y2="638"
 style="stroke-width:1;stroke:Black;"/>
<line x1="739" y1="644" x2="736" y2="638"
 style="stroke-width:1;stroke:Black;"/>
<text style="font-family:Arial;font-size:12px;kerning:0;word-spacing:-1px;fill:Black;">
<tspan x="573" y="742">meshvocab:preferredTerm  R</tspan>
</text>
</g>
<g id="2002722383"><path d="M1335,891 L1335,828 "
style="fill:none;stroke-width:1;stroke:Black;"/>
<line x1="1332" y1="834" x2="1335" y2="828"
 style="stroke-width:1;stroke:Black;"/>
<line x1="1338" y1="834" x2="1335" y2="828"
 style="stroke-width:1;stroke:Black;"/>
<text style="font-family:Arial;font-size:12px;kerning:0;word-spacing:-1px;fill:Black;">
<tspan x="1155" y="872">meshvocab:preferredConcept  R</tspan>
<tspan x="1155" y="887">meshvocab:concept  R</tspan>
</text>
</g>
<g id="2002722388"><path d="M1102,976 L935,976 931,974 929,970 929,638 "
style="fill:none;stroke-width:1;stroke:Black;"/>
<line x1="926" y1="644" x2="929" y2="638"
 style="stroke-width:1;stroke:Black;"/>
<line x1="932" y1="644" x2="929" y2="638"
 style="stroke-width:1;stroke:Black;"/>
<text style="font-family:Arial;font-size:12px;kerning:0;word-spacing:-1px;fill:Black;">
<tspan x="937" y="989">meshvocab:preferredTerm  R</tspan>
</text>
</g>
<g id="2002722393"><path d="M1175,1297 L1025,1297 "
style="fill:none;stroke-width:1;stroke:Black;"/>
<line x1="1031" y1="1294" x2="1025" y2="1297"
 style="stroke-width:1;stroke:Black;"/>
<line x1="1031" y1="1300" x2="1025" y2="1297"
 style="stroke-width:1;stroke:Black;"/>
<text style="font-family:Arial;font-size:12px;kerning:0;word-spacing:-1px;fill:Black;">
<tspan x="1109" y="1310">rdfs:range  </tspan>
</text>
</g>
<g id="2002722398"><path d="M1208,246 L1208,162 1206,158 1202,156 47,156 43,158 41,162 41,787 "
style="fill:none;stroke-width:1;stroke:Black;"/>
<line x1="38" y1="781" x2="41" y2="787"
 style="stroke-width:1;stroke:Black;"/>
<line x1="44" y1="781" x2="41" y2="787"
 style="stroke-width:1;stroke:Black;"/>
<text style="font-family:Arial;font-size:12px;kerning:0;word-spacing:-1px;fill:Black;">
<tspan x="1058" y="242">meshvocab:treeNumber  R</tspan>
</text>
</g>
<g id="2002722408"><path d="M1641,307 L1641,182 1639,178 1635,176 787,176 783,178 781,182 781,438 "
style="fill:none;stroke-width:1;stroke:Black;"/>
<line x1="778" y1="432" x2="781" y2="438"
 style="stroke-width:1;stroke:Black;"/>
<line x1="784" y1="432" x2="781" y2="438"
 style="stroke-width:1;stroke:Black;"/>
<text style="font-family:Arial;font-size:12px;kerning:0;word-spacing:-1px;fill:Black;">
<tspan x="1478" y="303">meshvocab:preferredTerm  R</tspan>
</text>
</g>
<g id="2002722413"><path d="M1102,1016 L744,1016 "
style="fill:none;stroke-width:1;stroke:Black;"/>
<line x1="750" y1="1013" x2="744" y2="1016"
 style="stroke-width:1;stroke:Black;"/>
<line x1="750" y1="1019" x2="744" y2="1016"
 style="stroke-width:1;stroke:Black;"/>
<text style="font-family:Arial;font-size:12px;kerning:0;word-spacing:-1px;fill:Black;">
<tspan x="891" y="1029">meshvocab:preferredMappedTo  </tspan>
<tspan x="891" y="1044">meshvocab:indexerConsiderAlso  </tspan>
<tspan x="891" y="1059">meshvocab:pharmacologicalAction  R</tspan>
<tspan x="891" y="1074">meshvocab:mappedTo  </tspan>
</text>
</g>
<g id="2002722418"><path d="M1104,396 L330,396 326,398 324,402 324,500 "
style="fill:none;stroke-width:1;stroke:Black;"/>
<line x1="321" y1="494" x2="324" y2="500"
 style="stroke-width:1;stroke:Black;"/>
<line x1="327" y1="494" x2="324" y2="500"
 style="stroke-width:1;stroke:Black;"/>
<text style="font-family:Arial;font-size:12px;kerning:0;word-spacing:-1px;fill:Black;">
<tspan x="919" y="409">meshvocab:allowableQualifier  R</tspan>
</text>
</g>
<g id="2002722423"><path d="M501,746 L501,700 499,696 495,694 364,694 "
style="fill:none;stroke-width:1;stroke:Black;"/>
<line x1="370" y1="691" x2="364" y2="694"
 style="stroke-width:1;stroke:Black;"/>
<line x1="370" y1="697" x2="364" y2="694"
 style="stroke-width:1;stroke:Black;"/>
<text style="font-family:Arial;font-size:12px;kerning:0;word-spacing:-1px;fill:Black;">
<tspan x="318" y="742">meshvocab:allowableQualifier  R</tspan>
</text>
</g>
<g id="2002722428"><path d="M139,964 L139,943 "
style="fill:none;stroke-width:1;stroke:Black;"/>
<line x1="136" y1="949" x2="139" y2="943"
 style="stroke-width:1;stroke:Black;"/>
<line x1="142" y1="949" x2="139" y2="943"
 style="stroke-width:1;stroke:Black;"/>
<text style="font-family:Arial;font-size:12px;kerning:0;word-spacing:-1px;fill:Black;">
<tspan x="39" y="960">void:vocabulary  D</tspan>
</text>
</g>
<g id="2002722433"><path d="M1600,1223 L1025,1223 "
style="fill:none;stroke-width:1;stroke:Black;"/>
<line x1="1031" y1="1220" x2="1025" y2="1223"
 style="stroke-width:1;stroke:Black;"/>
<line x1="1031" y1="1226" x2="1025" y2="1223"
 style="stroke-width:1;stroke:Black;"/>
<text style="font-family:Arial;font-size:12px;kerning:0;word-spacing:-1px;fill:Black;">
<tspan x="1506" y="1236">rdfs:range  </tspan>
<tspan x="1506" y="1251">rdfs:domain  DR</tspan>
</text>
</g>
<g id="2002722438"><path d="M1357,613 L1357,568 1355,564 1351,562 935,562 "
style="fill:none;stroke-width:1;stroke:Black;"/>
<line x1="941" y1="559" x2="935" y2="562"
 style="stroke-width:1;stroke:Black;"/>
<line x1="941" y1="565" x2="935" y2="562"
 style="stroke-width:1;stroke:Black;"/>
<text style="font-family:Arial;font-size:12px;kerning:0;word-spacing:-1px;fill:Black;">
<tspan x="1194" y="594">meshvocab:preferredTerm  R</tspan>
<tspan x="1194" y="609">meshvocab:term  DR</tspan>
</text>
</g>
<g id="2002722443"><path d="M1436,1310 L1600,1310 "
style="fill:none;stroke-width:1;stroke:Black;"/>
<line x1="1594" y1="1307" x2="1600" y2="1310"
 style="stroke-width:1;stroke:Black;"/>
<line x1="1594" y1="1313" x2="1600" y2="1310"
 style="stroke-width:1;stroke:Black;"/>
<text style="font-family:Arial;font-size:12px;kerning:0;word-spacing:-1px;fill:Black;">
<tspan x="1440" y="1308">rdfs:subPropertyOf  </tspan>
</text>
</g>
<g id="2002722448"><path d="M1600,1278 L1436,1278 "
style="fill:none;stroke-width:1;stroke:Black;"/>
<line x1="1442" y1="1275" x2="1436" y2="1278"
 style="stroke-width:1;stroke:Black;"/>
<line x1="1442" y1="1281" x2="1436" y2="1278"
 style="stroke-width:1;stroke:Black;"/>
<text style="font-family:Arial;font-size:12px;kerning:0;word-spacing:-1px;fill:Black;">
<tspan x="1488" y="1291">rdfs:subPropertyOf  </tspan>
</text>
</g>
<g id="2002722453"><path d="M1186,522 L1186,797 1184,801 1180,803 744,803 "
style="fill:none;stroke-width:1;stroke:Black;"/>
<line x1="750" y1="800" x2="744" y2="803"
 style="stroke-width:1;stroke:Black;"/>
<line x1="750" y1="806" x2="744" y2="803"
 style="stroke-width:1;stroke:Black;"/>
<text style="font-family:Arial;font-size:12px;kerning:0;word-spacing:-1px;fill:Black;">
<tspan x="1188" y="537">meshvocab:broaderDescriptor  </tspan>
<tspan x="1188" y="552">meshvocab:seeAlso  </tspan>
</text>
</g>
<g id="2002722458"><path d="M402,350 L559,350 563,352 565,356 565,746 "
style="fill:none;stroke-width:1;stroke:Black;"/>
<line x1="562" y1="740" x2="565" y2="746"
 style="stroke-width:1;stroke:Black;"/>
<line x1="568" y1="740" x2="565" y2="746"
 style="stroke-width:1;stroke:Black;"/>
<text style="font-family:Arial;font-size:12px;kerning:0;word-spacing:-1px;fill:Black;">
<tspan x="406" y="333">meshvocab:hasDescriptor  </tspan>
<tspan x="406" y="348">meshvocab:useInstead  D</tspan>
</text>
</g>
<g id="2002722463"><path d="M244,1109 L408,1109 "
style="fill:none;stroke-width:1;stroke:Black;"/>
<line x1="402" y1="1106" x2="408" y2="1109"
 style="stroke-width:1;stroke:Black;"/>
<line x1="402" y1="1112" x2="408" y2="1109"
 style="stroke-width:1;stroke:Black;"/>
<text style="font-family:Arial;font-size:12px;kerning:0;word-spacing:-1px;fill:Black;">
<tspan x="248" y="1107">void:sparqlEndpoint  DR</tspan>
</text>
</g>
<g id="2002722473"><path d="M214,361 L214,500 "
style="fill:none;stroke-width:1;stroke:Black;"/>
<line x1="211" y1="494" x2="214" y2="500"
 style="stroke-width:1;stroke:Black;"/>
<line x1="217" y1="494" x2="214" y2="500"
 style="stroke-width:1;stroke:Black;"/>
<text style="font-family:Arial;font-size:12px;kerning:0;word-spacing:-1px;fill:Black;">
<tspan x="216" y="376">meshvocab:hasQualifier  R</tspan>
</text>
</g>
<g id="2002722478"><path d="M168,700 L168,787 "
style="fill:none;stroke-width:1;stroke:Black;"/>
<line x1="165" y1="781" x2="168" y2="787"
 style="stroke-width:1;stroke:Black;"/>
<line x1="171" y1="781" x2="168" y2="787"
 style="stroke-width:1;stroke:Black;"/>
<text style="font-family:Arial;font-size:12px;kerning:0;word-spacing:-1px;fill:Black;">
<tspan x="170" y="715">meshvocab:treeNumber  R</tspan>
</text>
</g>
<g id="2002722483"><path d="M1104,444 L935,444 "
style="fill:none;stroke-width:1;stroke:Black;"/>
<line x1="941" y1="441" x2="935" y2="444"
 style="stroke-width:1;stroke:Black;"/>
<line x1="941" y1="447" x2="935" y2="444"
 style="stroke-width:1;stroke:Black;"/>
<text style="font-family:Arial;font-size:12px;kerning:0;word-spacing:-1px;fill:Black;">
<tspan x="939" y="457">meshvocab:preferredTerm  R</tspan>
</text>
</g>
<g id="2002722488"><path d="M364,567 L635,567 "
style="fill:none;stroke-width:1;stroke:Black;"/>
<line x1="629" y1="564" x2="635" y2="567"
 style="stroke-width:1;stroke:Black;"/>
<line x1="629" y1="570" x2="635" y2="567"
 style="stroke-width:1;stroke:Black;"/>
<text style="font-family:Arial;font-size:12px;kerning:0;word-spacing:-1px;fill:Black;">
<tspan x="368" y="565">meshvocab:preferredTerm  R</tspan>
</text>
</g>
<g id="2002722493"><path d="M364,666 L1238,666 "
style="fill:none;stroke-width:1;stroke:Black;"/>
<line x1="1232" y1="663" x2="1238" y2="666"
 style="stroke-width:1;stroke:Black;"/>
<line x1="1232" y1="669" x2="1238" y2="666"
 style="stroke-width:1;stroke:Black;"/>
<text style="font-family:Arial;font-size:12px;kerning:0;word-spacing:-1px;fill:Black;">
<tspan x="368" y="649">meshvocab:preferredConcept  R</tspan>
<tspan x="368" y="664">meshvocab:concept  R</tspan>
</text>
</g>
<g id="2002722503"><path d="M744,778 L1142,778 1146,776 1148,772 1148,522 "
style="fill:none;stroke-width:1;stroke:Black;"/>
<line x1="1145" y1="528" x2="1148" y2="522"
 style="stroke-width:1;stroke:Black;"/>
<line x1="1151" y1="528" x2="1148" y2="522"
 style="stroke-width:1;stroke:Black;"/>
<text style="font-family:Arial;font-size:12px;kerning:0;word-spacing:-1px;fill:Black;">
<tspan x="748" y="761">meshvocab:broaderDescriptor  </tspan>
<tspan x="748" y="776">meshvocab:seeAlso  </tspan>
</text>
</g>
<g id="2002722523"><path d="M131,1253 L131,1224 "
style="fill:none;stroke-width:1;stroke:Black;"/>
<line x1="128" y1="1230" x2="131" y2="1224"
 style="stroke-width:1;stroke:Black;"/>
<line x1="134" y1="1230" x2="131" y2="1224"
 style="stroke-width:1;stroke:Black;"/>
<text style="font-family:Arial;font-size:12px;kerning:0;word-spacing:-1px;fill:Black;">
<tspan x="11" y="1249">foaf:primaryTopic  DR</tspan>
</text>
</g>
<g id="2002722528"><path d="M1620,462 L1620,657 1618,661 1614,663 1538,663 "
style="fill:none;stroke-width:1;stroke:Black;"/>
<line x1="1544" y1="660" x2="1538" y2="663"
 style="stroke-width:1;stroke:Black;"/>
<line x1="1544" y1="666" x2="1538" y2="663"
 style="stroke-width:1;stroke:Black;"/>
<text style="font-family:Arial;font-size:12px;kerning:0;word-spacing:-1px;fill:Black;">
<tspan x="1622" y="477">meshvocab:preferredConcept  R</tspan>
</text>
</g>
<g id="2002722533"><path d="M402,290 L1104,290 "
style="fill:none;stroke-width:1;stroke:Black;"/>
<line x1="1098" y1="287" x2="1104" y2="290"
 style="stroke-width:1;stroke:Black;"/>
<line x1="1098" y1="293" x2="1104" y2="290"
 style="stroke-width:1;stroke:Black;"/>
<text style="font-family:Arial;font-size:12px;kerning:0;word-spacing:-1px;fill:Black;">
<tspan x="406" y="288">meshvocab:hasDescriptor  </tspan>
</text>
</g>
<g id="2002722538"><path d="M410,837 L254,837 "
style="fill:none;stroke-width:1;stroke:Black;"/>
<line x1="260" y1="834" x2="254" y2="837"
 style="stroke-width:1;stroke:Black;"/>
<line x1="260" y1="840" x2="254" y2="837"
 style="stroke-width:1;stroke:Black;"/>
<text style="font-family:Arial;font-size:12px;kerning:0;word-spacing:-1px;fill:Black;">
<tspan x="258" y="850">meshvocab:treeNumber  R</tspan>
</text>
</g>
<g id="2002722548"><path d="M244,994 L410,994 "
style="fill:none;stroke-width:1;stroke:Black;"/>
<line x1="404" y1="991" x2="410" y2="994"
 style="stroke-width:1;stroke:Black;"/>
<line x1="404" y1="997" x2="410" y2="994"
 style="stroke-width:1;stroke:Black;"/>
<text style="font-family:Arial;font-size:12px;kerning:0;word-spacing:-1px;fill:Black;">
<tspan x="248" y="992">void:exampleResource  DR</tspan>
</text>
</g>
<g id="2002722553"><path d="M1709,1217 L1709,1198 "
style="fill:none;stroke-width:2;stroke:Fuchsia;"/>
<polygon points="1714,1207 1709,1217 1704,1207 "
style="fill:Silver;stroke-width:1;stroke:Black;"/>
<text style="font-family:Arial;font-size:12px;kerning:0;word-spacing:-1px;fill:Black;">
<tspan x="1697" y="1213"> </tspan>
</text>
</g>
</svg>
