<?xml version="1.0" encoding="UTF-8" standalone="no"?>
<!DOCTYPE svg PUBLIC "-//W3C//DTD SVG 1.1//EN"
"http://www.w3.org/Graphics/SVG/1.1/DTD/svg11.dtd">
<svg version="1.1" xmlns="http://www.w3.org/2000/svg"
xmlns:xlink="http://www.w3.org/1999/xlink" xml:space="preserve"
 width="1286" height="502" viewBox="0 0 1286 502">
 onmousemove="movetip(evt)" onmouseup="endmove()">
<rect x="0" y="0" width="100%" height="100%" style="fill:White;"/>
<script type="application/ecmascript"> <![CDATA[
var dragtipid = null; var dragcase = false; function init(evt){
if (window.svgDocument==null) svgDocument = evt.target.ownerDocument;
}
function movetip(evt){if (dragtipid!=null){ dragcase = true;
var tip=svgDocument.getElementById(dragtipid);
tip.setAttributeNS(null,"x",evt.clientX-2);
tip.setAttributeNS(null,"y",evt.clientY-2);
}}
function endmove(){dragtipid = null;}
function startmove(evt,id){dragtipid = id; dragcase = false;
var tip=svgDocument.getElementById(dragtipid);
tip.setAttributeNS(null,"x",evt.clientX-2);
tip.setAttributeNS(null,"y",evt.clientY-2);
}
function Showtip(evt,id){ dragtipid = null;
var tip=svgDocument.getElementById(id);
var vis=tip.getAttributeNS(null,"visibility");
if (vis=="hidden"){
tip.setAttributeNS(null,"x",evt.clientX-2);
tip.setAttributeNS(null,"y",evt.clientY-2);
tip.setAttributeNS(null,"visibility","visible");
}}
function Hidetip(id){ dragtipid = null; if (dragcase==false){
var tip=svgDocument.getElementById(id);
tip.setAttributeNS(null,"visibility","hidden");
}}
]]></script>
<defs><linearGradient id="activ1" x1="0%" y1="0%" x2="100%" y2="0%">
<stop offset="0%" style="stop-color:#FFFF00;stop-opacity:1"/>
<stop offset="100%" style="stop-color:#FFFFF0;stop-opacity:1"/>
</linearGradient></defs>
<g id="2002768307"><polygon points="28,217 328,217 328,282 28,282 "
style="fill:#F4D03F; stroke-width:1;stroke:Black;"/>
<text style="font-family:Arial;font-size:12px;kerning:0;word-spacing:-1px;fill:Black;font-weight:bold;">
<tspan x="155" y="232">:Skill (9)</tspan>
</text>
<line x1="32" y1="235" x2="326" y2="235"
 style="stroke-width:1;stroke:Black;"/>
<text style="font-family:Arial;font-size:12px;kerning:0;word-spacing:-1px;fill:Black;">
<tspan x="32" y="247">:skillName (9) [1] D</tspan>
<tspan x="32" y="262">n1:tags (91) [*] D</tspan>
<tspan x="32" y="277">rdf:type (9) [1]  -&gt; IRI</tspan>
</text>
</g>
<g id="2002768318"><polygon points="593,31 816,31 816,126 593,126 "
style="fill:#F4D03F; stroke-width:1;stroke:Black;"/>
<text style="font-family:Arial;font-size:12px;kerning:0;word-spacing:-1px;fill:Black;font-weight:bold;">
<tspan x="664" y="46">:OtherInfo (13)</tspan>
</text>
<line x1="597" y1="49" x2="814" y2="49"
 style="stroke-width:1;stroke:Black;"/>
<text style="font-family:Arial;font-size:12px;kerning:0;word-spacing:-1px;fill:Black;">
<tspan x="597" y="61">:otherInfoDescription (6) [1] D</tspan>
<tspan x="597" y="76">:otherInfoType (13) [1] D</tspan>
<tspan x="597" y="91">foaf:homepage (6) [1]  -&gt; IRI</tspan>
<tspan x="597" y="106">foaf:title (7) [1] </tspan>
<tspan x="597" y="121">rdf:type (13) [1]  -&gt; IRI</tspan>
</text>
</g>
<g id="2002768329"><polygon points="407,210 707,210 707,260 407,260 "
style="fill:#F4D03F; stroke-width:1;stroke:Black;"/>
<text style="font-family:Arial;font-size:12px;kerning:0;word-spacing:-1px;fill:Black;font-weight:bold;">
<tspan x="537" y="225">:CV (1)</tspan>
</text>
<line x1="411" y1="228" x2="705" y2="228"
 style="stroke-width:1;stroke:Black;"/>
<text style="font-family:Arial;font-size:12px;kerning:0;word-spacing:-1px;fill:Black;">
<tspan x="411" y="240">:cvDescription (1) [1] D</tspan>
<tspan x="411" y="255">rdf:type (1) [1]  -&gt; IRI</tspan>
</text>
</g>
<g id="2002768340"><polygon points="361,31 563,31 563,156 361,156 "
style="fill:#F4D03F; stroke-width:1;stroke:Black;"/>
<text style="font-family:Arial;font-size:12px;kerning:0;word-spacing:-1px;fill:Black;font-weight:bold;">
<tspan x="421" y="46">foaf:Person (1)</tspan>
</text>
<line x1="365" y1="49" x2="561" y2="49"
 style="stroke-width:1;stroke:Black;"/>
<text style="font-family:Arial;font-size:12px;kerning:0;word-spacing:-1px;fill:Black;">
<tspan x="365" y="61">foaf:account (2) [*] D -&gt; IRI</tspan>
<tspan x="365" y="76">foaf:birthday (1) [1] D</tspan>
<tspan x="365" y="91">foaf:firstName (1) [1] D</tspan>
<tspan x="365" y="106">foaf:homepage (1) [1]  -&gt; IRI</tspan>
<tspan x="365" y="121">foaf:lastName (1) [1] D</tspan>
<tspan x="365" y="136">foaf:title (1) [1] </tspan>
<tspan x="365" y="151">rdf:type (1) [1]  -&gt; IRI</tspan>
</text>
</g>
<g id="2002768351"><polygon points="843,348 1056,348 1056,398 843,398 "
style="fill:#F4D03F; stroke-width:1;stroke:Black;"/>
<text style="font-family:Arial;font-size:12px;kerning:0;word-spacing:-1px;fill:Black;font-weight:bold;">
<tspan x="907" y="363">:Company (10)</tspan>
</text>
<line x1="847" y1="366" x2="1054" y2="366"
 style="stroke-width:1;stroke:Black;"/>
<text style="font-family:Arial;font-size:12px;kerning:0;word-spacing:-1px;fill:Black;">
<tspan x="847" y="378">foaf:name (10) [1] </tspan>
<tspan x="847" y="393">rdf:type (10) [1]  -&gt; IRI</tspan>
</text>
</g>
<g id="2002768362"><polygon points="833,181 1056,181 1056,291 833,291 "
style="fill:#F4D03F; stroke-width:1;stroke:Black;"/>
<text style="font-family:Arial;font-size:12px;kerning:0;word-spacing:-1px;fill:Black;font-weight:bold;">
<tspan x="894" y="196">:WorkHistory (10)</tspan>
</text>
<line x1="837" y1="199" x2="1054" y2="199"
 style="stroke-width:1;stroke:Black;"/>
<text style="font-family:Arial;font-size:12px;kerning:0;word-spacing:-1px;fill:Black;">
<tspan x="837" y="211">:endDate (9) [1] D</tspan>
<tspan x="837" y="226">:isCurrent (10) [1] D</tspan>
<tspan x="837" y="241">:jobDescription (10) [1] D</tspan>
<tspan x="837" y="256">:jobTitle (10) [1] D</tspan>
<tspan x="837" y="271">:startDate (10) [1] D</tspan>
<tspan x="837" y="286">rdf:type (10) [1]  -&gt; IRI</tspan>
</text>
</g>
<g id="2002768373"><polygon points="29,31 329,31 329,171 29,171 "
style="fill:#F4D03F; stroke-width:1;stroke:Black;"/>
<text style="font-family:Arial;font-size:12px;kerning:0;word-spacing:-1px;fill:Black;font-weight:bold;">
<tspan x="117" y="46">nfo:FileDataObject (3)</tspan>
</text>
<line x1="33" y1="49" x2="327" y2="49"
 style="stroke-width:1;stroke:Black;"/>
<text style="font-family:Arial;font-size:12px;kerning:0;word-spacing:-1px;fill:Black;">
<tspan x="33" y="61">dbo:fileExtension (3) [1] D</tspan>
<tspan x="33" y="76">dct:created (3) [1] D</tspan>
<tspan x="33" y="91">dct:format (3) [1] D</tspan>
<tspan x="33" y="106">dct:modified (3) [1] D</tspan>
<tspan x="33" y="121">n1:uuid (3) [1] D</tspan>
<tspan x="33" y="136">nfo:fileName (3) [1] D</tspan>
<tspan x="33" y="151">nfo:fileSize (3) [1] D</tspan>
<tspan x="33" y="166">rdf:type (3) [1]  -&gt; IRI</tspan>
</text>
</g>
<g id="2002768384"><polygon points="29,328 329,328 329,393 29,393 "
style="fill:#F4D03F; stroke-width:1;stroke:Black;"/>
<text style="font-family:Arial;font-size:12px;kerning:0;word-spacing:-1px;fill:Black;font-weight:bold;">
<tspan x="130" y="343">skos:Concept (2)</tspan>
</text>
<line x1="33" y1="346" x2="327" y2="346"
 style="stroke-width:1;stroke:Black;"/>
<text style="font-family:Arial;font-size:12px;kerning:0;word-spacing:-1px;fill:Black;">
<tspan x="33" y="358">rdf:type (2) [1]  -&gt; IRI</tspan>
<tspan x="33" y="373">skos:altLabel (2) [1] D</tspan>
<tspan x="33" y="388">skos:prefLabel (2) [1] </tspan>
</text>
</g>
<g id="2002768395"><polygon points="406,442 706,442 706,492 406,492 "
style="fill:#F4D03F; stroke-width:1;stroke:Black;"/>
<text style="font-family:Arial;font-size:12px;kerning:0;word-spacing:-1px;fill:Black;font-weight:bold;">
<tspan x="501" y="457">:EducationalOrg (1)</tspan>
</text>
<line x1="410" y1="460" x2="704" y2="460"
 style="stroke-width:1;stroke:Black;"/>
<text style="font-family:Arial;font-size:12px;kerning:0;word-spacing:-1px;fill:Black;">
<tspan x="410" y="472">foaf:name (1) [1] </tspan>
<tspan x="410" y="487">rdf:type (1) [1]  -&gt; IRI</tspan>
</text>
</g>
<g id="2002768406"><polygon points="849,29 1276,29 1276,168 849,168 "
style="fill:White; stroke-width:1;stroke:Black;"/>
<text style="font-family:Arial;font-size:12px;kerning:0;word-spacing:-1px;fill:Black;">
<tspan x="853" y="43">PREFIX : &lt;http://rdfs.org/resume-rdf/cv.rdfs#&gt;</tspan>
<tspan x="853" y="58">PREFIX foaf: &lt;http://xmlns.com/foaf/0.1/&gt;</tspan>
<tspan x="853" y="73">PREFIX skos: &lt;http://www.w3.org/2004/02/skos/core#&gt;</tspan>
<tspan x="853" y="88">PREFIX nfo: &lt;http://www.semanticdesktop.org/ontologies/2007/03/22/nfo#&gt;</tspan>
<tspan x="853" y="103">PREFIX dct: &lt;http://purl.org/dc/terms/&gt;</tspan>
<tspan x="853" y="118">PREFIX n1: &lt;https://bittich.be/vocabularies/core/&gt;</tspan>
<tspan x="853" y="133">PREFIX rdf: &lt;http://www.w3.org/1999/02/22-rdf-syntax-ns#&gt;</tspan>
<tspan x="853" y="148">PREFIX n2: &lt;https://bittich.be/concept-schemes/&gt;</tspan>
<tspan x="853" y="163">PREFIX dbo: &lt;http://dbpedia.org/ontology/&gt;</tspan>
</text>
</g>
<g id="2002768417"><polygon points="29,439 329,439 329,489 29,489 "
style="fill:#F4D03F; stroke-width:1;stroke:Black;"/>
<text style="font-family:Arial;font-size:12px;kerning:0;word-spacing:-1px;fill:Black;font-weight:bold;">
<tspan x="106" y="454">skos:ConceptScheme (1)</tspan>
</text>
<line x1="33" y1="457" x2="327" y2="457"
 style="stroke-width:1;stroke:Black;"/>
<text style="font-family:Arial;font-size:12px;kerning:0;word-spacing:-1px;fill:Black;">
<tspan x="33" y="469">rdf:type (1) [1]  -&gt; IRI</tspan>
<tspan x="33" y="484">skos:prefLabel (1) [1] </tspan>
</text>
</g>
<g id="2002768428"><polygon points="406,316 706,316 706,396 406,396 "
style="fill:#F4D03F; stroke-width:1;stroke:Black;"/>
<text style="font-family:Arial;font-size:12px;kerning:0;word-spacing:-1px;fill:Black;font-weight:bold;">
<tspan x="516" y="331">:Education (1)</tspan>
</text>
<line x1="410" y1="334" x2="704" y2="334"
 style="stroke-width:1;stroke:Black;"/>
<text style="font-family:Arial;font-size:12px;kerning:0;word-spacing:-1px;fill:Black;">
<tspan x="410" y="346">:eduDescription (1) [1] D</tspan>
<tspan x="410" y="361">:eduGradDate (1) [1] D</tspan>
<tspan x="410" y="376">:eduStartDate (1) [1] D</tspan>
<tspan x="410" y="391">rdf:type (1) [1]  -&gt; IRI</tspan>
</text>
</g>
<g id="2002768262"><path d="M505,210 L505,156 "
style="fill:none;stroke-width:1;stroke:Black;"/>
<line x1="502" y1="162" x2="505" y2="156"
 style="stroke-width:1;stroke:Black;"/>
<line x1="508" y1="162" x2="505" y2="156"
 style="stroke-width:1;stroke:Black;"/>
<text style="font-family:Arial;font-size:12px;kerning:0;word-spacing:-1px;fill:Black;">
<tspan x="405" y="206">:aboutPerson  DR</tspan>
</text>
</g>
<g id="2002768267"><path d="M407,235 L328,235 "
style="fill:none;stroke-width:1;stroke:Black;"/>
<line x1="334" y1="232" x2="328" y2="235"
 style="stroke-width:1;stroke:Black;"/>
<line x1="334" y1="238" x2="328" y2="235"
 style="stroke-width:1;stroke:Black;"/>
<text style="font-family:Arial;font-size:12px;kerning:0;word-spacing:-1px;fill:Black;">
<tspan x="332" y="248">:hasSkill  DR</tspan>
</text>
</g>
<g id="2002768272"><path d="M190,282 L190,328 "
style="fill:none;stroke-width:1;stroke:Black;"/>
<line x1="187" y1="322" x2="190" y2="328"
 style="stroke-width:1;stroke:Black;"/>
<line x1="193" y1="322" x2="190" y2="328"
 style="stroke-width:1;stroke:Black;"/>
<text style="font-family:Arial;font-size:12px;kerning:0;word-spacing:-1px;fill:Black;">
<tspan x="192" y="297">n2:skill-type  DR</tspan>
</text>
</g>
<g id="2002768277"><path d="M558,260 L558,316 "
style="fill:none;stroke-width:1;stroke:Black;"/>
<line x1="555" y1="310" x2="558" y2="316"
 style="stroke-width:1;stroke:Black;"/>
<line x1="561" y1="310" x2="558" y2="316"
 style="stroke-width:1;stroke:Black;"/>
<text style="font-family:Arial;font-size:12px;kerning:0;word-spacing:-1px;fill:Black;">
<tspan x="560" y="275">:hasEducation  DR</tspan>
</text>
</g>
<g id="2002768282"><path d="M707,227 L833,227 "
style="fill:none;stroke-width:1;stroke:Black;"/>
<line x1="827" y1="224" x2="833" y2="227"
 style="stroke-width:1;stroke:Black;"/>
<line x1="827" y1="230" x2="833" y2="227"
 style="stroke-width:1;stroke:Black;"/>
<text style="font-family:Arial;font-size:12px;kerning:0;word-spacing:-1px;fill:Black;">
<tspan x="711" y="225">:hasWorkHistory  DR</tspan>
</text>
</g>
<g id="2002768287"><path d="M185,393 L185,439 "
style="fill:none;stroke-width:1;stroke:Black;"/>
<line x1="182" y1="433" x2="185" y2="439"
 style="stroke-width:1;stroke:Black;"/>
<line x1="188" y1="433" x2="185" y2="439"
 style="stroke-width:1;stroke:Black;"/>
<text style="font-family:Arial;font-size:12px;kerning:0;word-spacing:-1px;fill:Black;">
<tspan x="187" y="408">skos:topConceptOf  DR</tspan>
<tspan x="187" y="423">skos:inScheme  DR</tspan>
</text>
</g>
<g id="2002768292"><path d="M554,396 L554,442 "
style="fill:none;stroke-width:1;stroke:Black;"/>
<line x1="551" y1="436" x2="554" y2="442"
 style="stroke-width:1;stroke:Black;"/>
<line x1="557" y1="436" x2="554" y2="442"
 style="stroke-width:1;stroke:Black;"/>
<text style="font-family:Arial;font-size:12px;kerning:0;word-spacing:-1px;fill:Black;">
<tspan x="556" y="411">:studiedIn  DR</tspan>
</text>
</g>
<g id="2002768297"><path d="M651,210 L651,126 "
style="fill:none;stroke-width:1;stroke:Black;"/>
<line x1="648" y1="132" x2="651" y2="126"
 style="stroke-width:1;stroke:Black;"/>
<line x1="654" y1="132" x2="651" y2="126"
 style="stroke-width:1;stroke:Black;"/>
<text style="font-family:Arial;font-size:12px;kerning:0;word-spacing:-1px;fill:Black;">
<tspan x="551" y="206">:hasOtherInfo  DR</tspan>
</text>
</g>
<g id="2002768302"><path d="M936,291 L936,348 "
style="fill:none;stroke-width:1;stroke:Black;"/>
<line x1="933" y1="342" x2="936" y2="348"
 style="stroke-width:1;stroke:Black;"/>
<line x1="939" y1="342" x2="936" y2="348"
 style="stroke-width:1;stroke:Black;"/>
<text style="font-family:Arial;font-size:12px;kerning:0;word-spacing:-1px;fill:Black;">
<tspan x="938" y="306">:employedIn  DR</tspan>
</text>
</g>
</svg>
