<?xml version="1.0" encoding="UTF-8" standalone="no"?>
<!DOCTYPE svg PUBLIC "-//W3C//DTD SVG 1.1//EN"
"http://www.w3.org/Graphics/SVG/1.1/DTD/svg11.dtd">
<svg version="1.1" xmlns="http://www.w3.org/2000/svg"
xmlns:xlink="http://www.w3.org/1999/xlink" xml:space="preserve"
 width="2043" height="1202" viewBox="0 0 2043 1202">
 onmousemove="movetip(evt)" onmouseup="endmove()">
<rect x="0" y="0" width="100%" height="100%" style="fill:White;"/>
<script type="application/ecmascript"> <![CDATA[
var dragtipid = null; var dragcase = false; function init(evt){
if (window.svgDocument==null) svgDocument = evt.target.ownerDocument;
}
function movetip(evt){if (dragtipid!=null){ dragcase = true;
var tip=svgDocument.getElementById(dragtipid);
tip.setAttributeNS(null,"x",evt.clientX-2);
tip.setAttributeNS(null,"y",evt.clientY-2);
}}
function endmove(){dragtipid = null;}
function startmove(evt,id){dragtipid = id; dragcase = false;
var tip=svgDocument.getElementById(dragtipid);
tip.setAttributeNS(null,"x",evt.clientX-2);
tip.setAttributeNS(null,"y",evt.clientY-2);
}
function Showtip(evt,id){ dragtipid = null;
var tip=svgDocument.getElementById(id);
var vis=tip.getAttributeNS(null,"visibility");
if (vis=="hidden"){
tip.setAttributeNS(null,"x",evt.clientX-2);
tip.setAttributeNS(null,"y",evt.clientY-2);
tip.setAttributeNS(null,"visibility","visible");
}}
function Hidetip(id){ dragtipid = null; if (dragcase==false){
var tip=svgDocument.getElementById(id);
tip.setAttributeNS(null,"visibility","hidden");
}}
]]></script>
<defs><linearGradient id="activ1" x1="0%" y1="0%" x2="100%" y2="0%">
<stop offset="0%" style="stop-color:#FFFF00;stop-opacity:1"/>
<stop offset="100%" style="stop-color:#FFFFF0;stop-opacity:1"/>
</linearGradient></defs>
<g id="2002735720"><polygon points="1732,1050 2032,1050 2032,1095 1732,1095 "
style="fill:#F4D03F; stroke-width:1;stroke:Black;"/>
<text style="font-family:Arial;font-size:12px;kerning:0;word-spacing:-1px;fill:Black;font-weight:bold;">
<tspan x="1839" y="1065">void:Linkset (2)</tspan>
</text>
<line x1="1736" y1="1068" x2="2030" y2="1068"
 style="stroke-width:1;stroke:Black;"/>
<text style="font-family:Arial;font-size:12px;kerning:0;word-spacing:-1px;fill:Black;">
<tspan x="1736" y="1080">pav:importedOn (2) [1] D</tspan>
</text>
</g>
<g id="2002735731"><polygon points="14,177 440,177 440,722 14,722 "
style="fill:#F4D03F; stroke-width:1;stroke:Black;"/>
<text style="font-family:Arial;font-size:12px;kerning:0;word-spacing:-1px;fill:Black;font-weight:bold;">
<tspan x="124" y="192">aop:AdverseOutcomePathway (465)</tspan>
</text>
<line x1="18" y1="195" x2="438" y2="195"
 style="stroke-width:1;stroke:Black;"/>
<text style="font-family:Arial;font-size:12px;kerning:0;word-spacing:-1px;fill:Black;">
<tspan x="18" y="207">aop:AopContext (140) [1] D</tspan>
<tspan x="18" y="222">aop:LifeStageContext (260) [*] </tspan>
<tspan x="18" y="237">aop:has_evidence (124) [1] D</tspan>
<tspan x="18" y="252">dc:creator (363) [1] D</tspan>
<tspan x="18" y="267">dc:description (533) [*] </tspan>
<tspan x="18" y="282">dc:identifier (465) [1]  -&gt;  obo:GO_0008150 et al.,aop:</tspan>
<tspan x="18" y="297">AdverseOutcomePathway..(6)</tspan>
<tspan x="18" y="312">dc:source (465) [1] </tspan>
<tspan x="18" y="327">dc:title (465) [*] </tspan>
<tspan x="18" y="342">dct:abstract (253) [1] D</tspan>
<tspan x="18" y="357">dct:accessRights (465) [1] D</tspan>
<tspan x="18" y="372">dct:alternative (465) [*] </tspan>
<tspan x="18" y="387">dct:created (465) [1] </tspan>
<tspan x="18" y="402">dct:modified (465) [1] </tspan>
<tspan x="18" y="417">edam:operation_3799 (110) [1] D</tspan>
<tspan x="18" y="432">foaf:page (465) [1]  -&gt;  aop:AdverseOutcomePathway,thes:C54571..(4)</tspan>
<tspan x="18" y="447">obo:PATO_0000047 (266) [*] </tspan>
<tspan x="18" y="462">rdf:type (465) [*]  -&gt; IRI</tspan>
<tspan x="18" y="477">rdfs:label (465) [1] </tspan>
<tspan x="18" y="492">rdfs:seeAlso (465) [1]  -&gt;  aop:AdverseOutcomePathway,aop:KeyEvent,aop:</tspan>
<tspan x="18" y="507">KeyEventRelationship</tspan>
<tspan x="18" y="522">thes:C25217 (125) [1] D</tspan>
<tspan x="18" y="537">thes:C25688 (428) [*] D</tspan>
<tspan x="18" y="552">thes:C25725 (98) [1] D</tspan>
<tspan x="18" y="567">thes:C48192 (130) [1] D</tspan>
<tspan x="18" y="582">&lt;- dc:identifier (465)  &lt;-  obo:GO_0008150 et al.,sio:CHEMINF_000409..(14)</tspan>
<tspan x="18" y="597">&lt;- dct:isPartOf (6119)  &lt;-  thes:C54571,sio:CHEMINF_000446 or sio:</tspan>
<tspan x="18" y="612">CHEMINF_000000..(4)</tspan>
<tspan x="18" y="627">&lt;- foaf:page (465)  &lt;-  aop:AdverseOutcomePathway,thes:C54571..(4)</tspan>
<tspan x="18" y="642">&lt;- rdfs:seeAlso (465)  &lt;-  aop:AdverseOutcomePathway,edam:data_2291..(4)</tspan>
</text>
</g>
<g id="2002735742"><polygon points="13,732 437,732 437,993 13,993 "
style="fill:#F4D03F; stroke-width:1;stroke:Black;"/>
<polygon points="10,735 434,735 434,996 10,996 "
style="fill:#F4D03F; stroke-width:1;stroke:Black;"/>
<text style="font-family:Arial;font-size:12px;kerning:0;word-spacing:-1px;fill:Black;font-weight:bold;">
<tspan x="51" y="750">sio:CHEMINF_000446 or sio:CHEMINF_000000 G101 (386)</tspan>
</text>
<line x1="14" y1="753" x2="432" y2="753"
 style="stroke-width:1;stroke:Black;"/>
<text style="font-family:Arial;font-size:12px;kerning:0;word-spacing:-1px;fill:Black;">
<tspan x="14" y="765">dc:identifier (386) [1]  -&gt;  obo:GO_0008150 et al.,aop:</tspan>
<tspan x="14" y="780">AdverseOutcomePathway..(6)</tspan>
<tspan x="14" y="795">dc:source (386) [1] </tspan>
<tspan x="14" y="810">dc:title (386) [*] </tspan>
<tspan x="14" y="825">dct:alternative (1.3e4) [*] </tspan>
<tspan x="14" y="840">dct:isPartOf (392) [*]  -&gt;  aop:AdverseOutcomePathway,thes:C54571</tspan>
<tspan x="14" y="855">rdf:type (772) [*]  -&gt; IRI</tspan>
<tspan x="14" y="870">sio:CHEMINF_000059 (370) [1] D -&gt; IRI</tspan>
<tspan x="14" y="885">sio:CHEMINF_000446 (386) [1] D</tspan>
<tspan x="14" y="900">sio:CHEMINF_000568 (386) [1] D -&gt; IRI</tspan>
<tspan x="14" y="915">&lt;- dc:identifier (386)  &lt;-  obo:GO_0008150 et al.,sio:CHEMINF_000409..(14)</tspan>
</text>
<text style="font-family:Arial;font-size:11px;kerning:0;word-spacing:-1px;fill:Black;font-weight:bold;">
<tspan x="14" y="930">sio:CHEMINF_000000 (386)</tspan>
<tspan x="14" y="945">sio:CHEMINF_000446 (386)</tspan>
</text>
</g>
<g id="2002735753"><polygon points="1732,703 2032,703 2032,783 1732,783 "
style="fill:#F4D03F; stroke-width:1;stroke:Black;"/>
<text style="font-family:Arial;font-size:12px;kerning:0;word-spacing:-1px;fill:Black;font-weight:bold;">
<tspan x="1802" y="718">sio:CHEMINF_000406 (209)</tspan>
</text>
<line x1="1736" y1="721" x2="2030" y2="721"
 style="stroke-width:1;stroke:Black;"/>
<text style="font-family:Arial;font-size:12px;kerning:0;word-spacing:-1px;fill:Black;">
<tspan x="1736" y="733">dc:identifier (209) [1] </tspan>
<tspan x="1736" y="748">dc:source (209) [1] </tspan>
<tspan x="1736" y="763">rdf:type (209) [*]  -&gt; IRI</tspan>
<tspan x="1736" y="778">sio:CHEMINF_000406 (209) [1] D</tspan>
</text>
</g>
<g id="2002735764"><polygon points="1266,215 1566,215 1566,625 1266,625 "
style="fill:#F4D03F; stroke-width:1;stroke:Black;"/>
<text style="font-family:Arial;font-size:12px;kerning:0;word-spacing:-1px;fill:Black;font-weight:bold;">
<tspan x="1357" y="230">aop:KeyEvent (1425)</tspan>
</text>
<line x1="1270" y1="233" x2="1564" y2="233"
 style="stroke-width:1;stroke:Black;"/>
<text style="font-family:Arial;font-size:12px;kerning:0;word-spacing:-1px;fill:Black;">
<tspan x="1270" y="245">aop:LifeStageContext (378) [*] </tspan>
<tspan x="1270" y="260">dc:description (506) [*] </tspan>
<tspan x="1270" y="275">dc:identifier (1425) [1]  -&gt;  obo:GO_0008150 et al.,</tspan>
<tspan x="1270" y="290">aop:AdverseOutcomePathway..(6)</tspan>
<tspan x="1270" y="305">dc:source (1425) [1] </tspan>
<tspan x="1270" y="320">dc:title (1425) [*] </tspan>
<tspan x="1270" y="335">dct:alternative (1425) [*] </tspan>
<tspan x="1270" y="350">dct:isPartOf (2935) [*]  -&gt;  aop:</tspan>
<tspan x="1270" y="365">AdverseOutcomePathway,thes:C54571</tspan>
<tspan x="1270" y="380">foaf:page (1425) [1]  -&gt;  aop:</tspan>
<tspan x="1270" y="395">AdverseOutcomePathway,thes:C54571..(4)</tspan>
<tspan x="1270" y="410">obo:MMO_0000000 (468) [1] D</tspan>
<tspan x="1270" y="425">obo:PATO_0000001 (826) [*] D</tspan>
<tspan x="1270" y="440">obo:PATO_0000047 (366) [*] </tspan>
<tspan x="1270" y="455">rdf:type (1425) [*]  -&gt; IRI</tspan>
<tspan x="1270" y="470">rdfs:label (1425) [1] </tspan>
<tspan x="1270" y="485">rdfs:seeAlso (1425) [1]  -&gt;  aop:</tspan>
<tspan x="1270" y="500">AdverseOutcomePathway,aop:KeyEvent,aop:</tspan>
<tspan x="1270" y="515">KeyEventRelationship</tspan>
<tspan x="1270" y="530">thes:C25664 (1425) [1] D</tspan>
<tspan x="1270" y="545">&lt;- dc:identifier (1425)  &lt;-  obo:GO_0008150 et al.,sio:</tspan>
<tspan x="1270" y="560">CHEMINF_000409..(14)</tspan>
<tspan x="1270" y="575">&lt;- foaf:page (1425)  &lt;-  aop:AdverseOutcomePathway,</tspan>
<tspan x="1270" y="590">thes:C54571..(4)</tspan>
<tspan x="1270" y="605">&lt;- rdfs:seeAlso (1425)  &lt;-  aop:</tspan>
<tspan x="1270" y="620">AdverseOutcomePathway,edam:data_2291..(4)</tspan>
</text>
</g>
<g id="2002735775"><polygon points="670,837 927,837 927,917 670,917 "
style="fill:#F4D03F; stroke-width:1;stroke:Black;"/>
<text style="font-family:Arial;font-size:12px;kerning:0;word-spacing:-1px;fill:Black;font-weight:bold;">
<tspan x="718" y="852">sio:CHEMINF_000407 (788)</tspan>
</text>
<line x1="674" y1="855" x2="925" y2="855"
 style="stroke-width:1;stroke:Black;"/>
<text style="font-family:Arial;font-size:12px;kerning:0;word-spacing:-1px;fill:Black;">
<tspan x="674" y="867">dc:identifier (788) [1] </tspan>
<tspan x="674" y="882">dc:source (788) [1] </tspan>
<tspan x="674" y="897">rdf:type (788) [*]  -&gt; IRI</tspan>
<tspan x="674" y="912">sio:CHEMINF_000407 (788) [1] D</tspan>
</text>
</g>
<g id="2002735786"><polygon points="1601,106 2032,106 2032,399 1601,399 "
style="fill:White; stroke-width:1;stroke:Black;"/>
<text style="font-family:Arial;font-size:12px;kerning:0;word-spacing:-1px;fill:Black;">
<tspan x="1605" y="120">PREFIX virtrdf: &lt;http://www.openlinksw.com/schemas/virtrdf#&gt;</tspan>
<tspan x="1605" y="135">PREFIX sio: &lt;http://semanticscience.org/resource/&gt;</tspan>
<tspan x="1605" y="150">PREFIX aop: &lt;http://aopkb.org/aop_ontology#&gt;</tspan>
<tspan x="1605" y="165">PREFIX edam: &lt;http://edamontology.org/&gt;</tspan>
<tspan x="1605" y="180">PREFIX thes: &lt;http://ncicb.nci.nih.gov/xml/owl/EVS/Thesaurus.owl#&gt;</tspan>
<tspan x="1605" y="195">PREFIX obo: &lt;http://purl.obolibrary.org/obo/&gt;</tspan>
<tspan x="1605" y="210">PREFIX dct: &lt;http://purl.org/dc/terms/&gt;</tspan>
<tspan x="1605" y="225">PREFIX dc: &lt;http://purl.org/dc/elements/1.1/&gt;</tspan>
<tspan x="1605" y="240">PREFIX sd: &lt;http://www.w3.org/ns/sparql-service-description#&gt;</tspan>
<tspan x="1605" y="255">PREFIX pav: &lt;http://purl.org/pav/&gt;</tspan>
<tspan x="1605" y="270">PREFIX void: &lt;http://rdfs.org/ns/void#&gt;</tspan>
<tspan x="1605" y="285">PREFIX rdfs: &lt;http://www.w3.org/2000/01/rdf-schema#&gt;</tspan>
<tspan x="1605" y="300">PREFIX foaf: &lt;http://xmlns.com/foaf/0.1/&gt;</tspan>
<tspan x="1605" y="315">PREFIX ncbix-13: &lt;http://purl.bioontology.org/ontology/NCBITAXON/131567&gt;</tspan>
<tspan x="1605" y="330">PREFIX rdf: &lt;http://www.w3.org/1999/02/22-rdf-syntax-ns#&gt;</tspan>
<tspan x="1605" y="345">PREFIX skos: &lt;http://www.w3.org/2004/02/skos/core#&gt;</tspan>
<tspan x="1605" y="360">PREFIX ncbix: &lt;http://purl.bioontology.org/ontology/NCBITAXON/&gt;</tspan>
<tspan x="1605" y="375">PREFIX owl: &lt;http://www.w3.org/2002/07/owl#&gt;</tspan>
<tspan x="1605" y="390">PREFIX dcat: &lt;http://www.w3.org/ns/dcat#&gt;</tspan>
</text>
</g>
<g id="2002735797"><polygon points="1732,511 2032,511 2032,591 1732,591 "
style="fill:#F4D03F; stroke-width:1;stroke:Black;"/>
<text style="font-family:Arial;font-size:12px;kerning:0;word-spacing:-1px;fill:Black;font-weight:bold;">
<tspan x="1802" y="526">sio:CHEMINF_000409 (300)</tspan>
</text>
<line x1="1736" y1="529" x2="2030" y2="529"
 style="stroke-width:1;stroke:Black;"/>
<text style="font-family:Arial;font-size:12px;kerning:0;word-spacing:-1px;fill:Black;">
<tspan x="1736" y="541">dc:identifier (300) [1] </tspan>
<tspan x="1736" y="556">dc:source (300) [1] </tspan>
<tspan x="1736" y="571">rdf:type (300) [*]  -&gt; IRI</tspan>
<tspan x="1736" y="586">sio:CHEMINF_000409 (300) [1] D</tspan>
</text>
</g>
<g id="2002735808"><polygon points="1732,891 2032,891 2032,1031 1732,1031 "
style="fill:#F4D03F; stroke-width:1;stroke:Black;"/>
<text style="font-family:Arial;font-size:12px;kerning:0;word-spacing:-1px;fill:Black;font-weight:bold;">
<tspan x="1838" y="906">void:Dataset (4)</tspan>
</text>
<line x1="1736" y1="909" x2="2030" y2="909"
 style="stroke-width:1;stroke:Black;"/>
<text style="font-family:Arial;font-size:12px;kerning:0;word-spacing:-1px;fill:Black;">
<tspan x="1736" y="921">dc:description (4) [*] </tspan>
<tspan x="1736" y="936">dct:accuralPeriodicity (2) [1] D -&gt; IRI</tspan>
<tspan x="1736" y="951">dct:modified (1) [1] </tspan>
<tspan x="1736" y="966">foaf:homepage (2) [1] D -&gt; IRI</tspan>
<tspan x="1736" y="981">pav:createdBy (2) [1] D -&gt; IRI</tspan>
<tspan x="1736" y="996">pav:createdOn (2) [1] D</tspan>
<tspan x="1736" y="1011">pav:createdWith (4 50%d) [*] D -&gt; IRI</tspan>
<tspan x="1736" y="1026">rdf:type (6) [*]  -&gt; IRI</tspan>
</text>
</g>
<g id="2002735819"><polygon points="648,488 948,488 948,778 648,778 "
style="fill:#F4D03F; stroke-width:1;stroke:Black;"/>
<text style="font-family:Arial;font-size:12px;kerning:0;word-spacing:-1px;fill:Black;font-weight:bold;">
<tspan x="746" y="503">thes:C54571 (652)</tspan>
</text>
<line x1="652" y1="506" x2="946" y2="506"
 style="stroke-width:1;stroke:Black;"/>
<text style="font-family:Arial;font-size:12px;kerning:0;word-spacing:-1px;fill:Black;">
<tspan x="652" y="518">dc:description (16) [*] </tspan>
<tspan x="652" y="533">dc:identifier (652) [1]  -&gt;  obo:GO_0008150 et al.,aop:</tspan>
<tspan x="652" y="548">AdverseOutcomePathway..(6)</tspan>
<tspan x="652" y="563">dc:title (652) [*] </tspan>
<tspan x="652" y="578">dct:created (652) [1] </tspan>
<tspan x="652" y="593">dct:isPartOf (574) [*]  -&gt;  aop:</tspan>
<tspan x="652" y="608">AdverseOutcomePathway,thes:C54571</tspan>
<tspan x="652" y="623">dct:modified (652) [1] </tspan>
<tspan x="652" y="638">foaf:page (652) [1]  -&gt;  aop:AdverseOutcomePathway,</tspan>
<tspan x="652" y="653">thes:C54571..(4)</tspan>
<tspan x="652" y="668">rdf:type (652) [*]  -&gt; IRI</tspan>
<tspan x="652" y="683">rdfs:label (652) [1] </tspan>
<tspan x="652" y="698">&lt;- dc:identifier (652)  &lt;-  obo:GO_0008150 et al.,sio:</tspan>
<tspan x="652" y="713">CHEMINF_000409..(14)</tspan>
<tspan x="652" y="728">&lt;- dct:isPartOf (392)  &lt;-  thes:C54571,sio:CHEMINF_</tspan>
<tspan x="652" y="743">000446 or sio:CHEMINF_000000..(4)</tspan>
<tspan x="652" y="758">&lt;- foaf:page (652)  &lt;-  aop:AdverseOutcomePathway,</tspan>
<tspan x="652" y="773">thes:C54571..(4)</tspan>
</text>
</g>
<g id="2002735830"><polygon points="832,1085 1033,1085 1033,1130 832,1130 "
style="fill:#F4D03F; stroke-width:1;stroke:Black;"/>
<text style="font-family:Arial;font-size:12px;kerning:0;word-spacing:-1px;fill:Black;font-weight:bold;">
<tspan x="865" y="1100">edam:data_1027 (1462)</tspan>
</text>
<line x1="836" y1="1103" x2="1031" y2="1103"
 style="stroke-width:1;stroke:Black;"/>
<text style="font-family:Arial;font-size:12px;kerning:0;word-spacing:-1px;fill:Black;">
<tspan x="836" y="1115">edam:data_1027 (1462) [1] D</tspan>
</text>
</g>
<g id="2002735841"><polygon points="1251,1049 1551,1049 1551,1129 1251,1129 "
style="fill:#F4D03F; stroke-width:1;stroke:Black;"/>
<text style="font-family:Arial;font-size:12px;kerning:0;word-spacing:-1px;fill:Black;font-weight:bold;">
<tspan x="1321" y="1064">sio:CHEMINF_000412 (330)</tspan>
</text>
<line x1="1255" y1="1067" x2="1549" y2="1067"
 style="stroke-width:1;stroke:Black;"/>
<text style="font-family:Arial;font-size:12px;kerning:0;word-spacing:-1px;fill:Black;">
<tspan x="1255" y="1079">dc:identifier (330) [1] </tspan>
<tspan x="1255" y="1094">dc:source (330) [1] </tspan>
<tspan x="1255" y="1109">rdf:type (330) [*]  -&gt; IRI</tspan>
<tspan x="1255" y="1124">sio:CHEMINF_000412 (330) [1] D</tspan>
</text>
</g>
<g id="2002735852"><polygon points="1732,799 2032,799 2032,879 1732,879 "
style="fill:#F4D03F; stroke-width:1;stroke:Black;"/>
<text style="font-family:Arial;font-size:12px;kerning:0;word-spacing:-1px;fill:Black;font-weight:bold;">
<tspan x="1843" y="814">sd:Service (1)</tspan>
</text>
<line x1="1736" y1="817" x2="2030" y2="817"
 style="stroke-width:1;stroke:Black;"/>
<text style="font-family:Arial;font-size:12px;kerning:0;word-spacing:-1px;fill:Black;">
<tspan x="1736" y="829">rdf:type (1) [*]  -&gt; IRI</tspan>
<tspan x="1736" y="844">sd:endpoint (1) [1] D -&gt; IRI</tspan>
<tspan x="1736" y="859">sd:resultFormat (2) [*] D -&gt; IRI</tspan>
<tspan x="1736" y="874">sd:supportedLanguage (1) [1] D -&gt; IRI</tspan>
</text>
</g>
<g id="2002735863"><polygon points="1732,415 2032,415 2032,495 1732,495 "
style="fill:#F4D03F; stroke-width:1;stroke:Black;"/>
<text style="font-family:Arial;font-size:12px;kerning:0;word-spacing:-1px;fill:Black;font-weight:bold;">
<tspan x="1806" y="430">sio:CHEMINF_000564 (34)</tspan>
</text>
<line x1="1736" y1="433" x2="2030" y2="433"
 style="stroke-width:1;stroke:Black;"/>
<text style="font-family:Arial;font-size:12px;kerning:0;word-spacing:-1px;fill:Black;">
<tspan x="1736" y="445">dc:identifier (34) [1] </tspan>
<tspan x="1736" y="460">dc:source (34) [1] </tspan>
<tspan x="1736" y="475">rdf:type (34) [*]  -&gt; IRI</tspan>
<tspan x="1736" y="490">sio:CHEMINF_000564 (34) [1] D</tspan>
</text>
</g>
<g id="2002735874"><polygon points="691,946 906,946 906,1011 691,1011 "
style="fill:#F4D03F; stroke-width:1;stroke:Black;"/>
<text style="font-family:Arial;font-size:12px;kerning:0;word-spacing:-1px;fill:Black;font-weight:bold;">
<tspan x="729" y="961">edam:data_1025 (1.2e4)</tspan>
</text>
<line x1="695" y1="964" x2="904" y2="964"
 style="stroke-width:1;stroke:Black;"/>
<text style="font-family:Arial;font-size:12px;kerning:0;word-spacing:-1px;fill:Black;">
<tspan x="695" y="976">dc:identifier (1.2e4) [1] </tspan>
<tspan x="695" y="991">dc:source (1.2e4) [1] </tspan>
<tspan x="695" y="1006">rdf:type (2.4e4) [*]  -&gt; IRI</tspan>
</text>
</g>
<g id="2002735885"><polygon points="959,784 1212,784 1212,829 959,829 "
style="fill:#F4D03F; stroke-width:1;stroke:Black;"/>
<text style="font-family:Arial;font-size:12px;kerning:0;word-spacing:-1px;fill:Black;font-weight:bold;">
<tspan x="1018" y="799">edam:data_2298 (1561)</tspan>
</text>
<line x1="963" y1="802" x2="1210" y2="802"
 style="stroke-width:1;stroke:Black;"/>
<text style="font-family:Arial;font-size:12px;kerning:0;word-spacing:-1px;fill:Black;">
<tspan x="963" y="814">edam:data_2298 (1561) [1] D</tspan>
</text>
</g>
<g id="2002735896"><polygon points="1733,1112 2033,1112 2033,1192 1733,1192 "
style="fill:#F4D03F; stroke-width:1;stroke:Black;"/>
<text style="font-family:Arial;font-size:12px;kerning:0;word-spacing:-1px;fill:Black;font-weight:bold;">
<tspan x="1803" y="1127">sio:CHEMINF_000567 (397)</tspan>
</text>
<line x1="1737" y1="1130" x2="2031" y2="1130"
 style="stroke-width:1;stroke:Black;"/>
<text style="font-family:Arial;font-size:12px;kerning:0;word-spacing:-1px;fill:Black;">
<tspan x="1737" y="1142">dc:identifier (397) [1] </tspan>
<tspan x="1737" y="1157">dc:source (397) [1] </tspan>
<tspan x="1737" y="1172">rdf:type (397) [*]  -&gt; IRI</tspan>
<tspan x="1737" y="1187">sio:CHEMINF_000567 (397) [1] D</tspan>
</text>
</g>
<g id="2002735907"><polygon points="381,1088 576,1088 576,1133 381,1133 "
style="fill:#F4D03F; stroke-width:1;stroke:Black;"/>
<text style="font-family:Arial;font-size:12px;kerning:0;word-spacing:-1px;fill:Black;font-weight:bold;">
<tspan x="411" y="1103">edam:data_1033 (1423)</tspan>
</text>
<line x1="385" y1="1106" x2="574" y2="1106"
 style="stroke-width:1;stroke:Black;"/>
<text style="font-family:Arial;font-size:12px;kerning:0;word-spacing:-1px;fill:Black;">
<tspan x="385" y="1118">edam:data_1033 (1423) [1] D</tspan>
</text>
</g>
<g id="2002735918"><polygon points="603,1041 814,1041 814,1136 603,1136 "
style="fill:#F4D03F; stroke-width:1;stroke:Black;"/>
<text style="font-family:Arial;font-size:12px;kerning:0;word-spacing:-1px;fill:Black;font-weight:bold;">
<tspan x="641" y="1056">edam:data_2291 (7575)</tspan>
</text>
<line x1="607" y1="1059" x2="812" y2="1059"
 style="stroke-width:1;stroke:Black;"/>
<text style="font-family:Arial;font-size:12px;kerning:0;word-spacing:-1px;fill:Black;">
<tspan x="607" y="1071">edam:data_2291 (7575) [1] D</tspan>
<tspan x="607" y="1086">owl:sameAs (511) [1] D -&gt; IRI</tspan>
<tspan x="607" y="1101">rdfs:seeAlso (511) [1]  -&gt;  aop:</tspan>
<tspan x="607" y="1116">AdverseOutcomePathway,aop:</tspan>
<tspan x="607" y="1131">KeyEvent,aop:KeyEventRelationship</tspan>
</text>
</g>
<g id="2002735929"><polygon points="1732,607 2032,607 2032,687 1732,687 "
style="fill:#F4D03F; stroke-width:1;stroke:Black;"/>
<text style="font-family:Arial;font-size:12px;kerning:0;word-spacing:-1px;fill:Black;font-weight:bold;">
<tspan x="1802" y="622">sio:CHEMINF_000408 (407)</tspan>
</text>
<line x1="1736" y1="625" x2="2030" y2="625"
 style="stroke-width:1;stroke:Black;"/>
<text style="font-family:Arial;font-size:12px;kerning:0;word-spacing:-1px;fill:Black;">
<tspan x="1736" y="637">dc:identifier (407) [1] </tspan>
<tspan x="1736" y="652">dc:source (407) [1] </tspan>
<tspan x="1736" y="667">rdf:type (407) [*]  -&gt; IRI</tspan>
<tspan x="1736" y="682">sio:CHEMINF_000408 (407) [1] D</tspan>
</text>
</g>
<g id="2002735940"><polygon points="650,116 950,116 950,481 650,481 "
style="fill:#F4D03F; stroke-width:1;stroke:Black;"/>
<text style="font-family:Arial;font-size:12px;kerning:0;word-spacing:-1px;fill:Black;font-weight:bold;">
<tspan x="705" y="131">aop:KeyEventRelationship (1951)</tspan>
</text>
<line x1="654" y1="134" x2="948" y2="134"
 style="stroke-width:1;stroke:Black;"/>
<text style="font-family:Arial;font-size:12px;kerning:0;word-spacing:-1px;fill:Black;">
<tspan x="654" y="146">dc:description (578) [*] </tspan>
<tspan x="654" y="161">dc:identifier (1951) [1]  -&gt;  obo:GO_0008150 et al.,</tspan>
<tspan x="654" y="176">aop:AdverseOutcomePathway..(6)</tspan>
<tspan x="654" y="191">dct:created (1951) [1] </tspan>
<tspan x="654" y="206">dct:isPartOf (2610) [*]  -&gt;  aop:</tspan>
<tspan x="654" y="221">AdverseOutcomePathway,thes:C54571</tspan>
<tspan x="654" y="236">dct:modified (1951) [1] </tspan>
<tspan x="654" y="251">edam:data_2042 (550) [1] D</tspan>
<tspan x="654" y="266">foaf:page (1951) [1]  -&gt;  aop:</tspan>
<tspan x="654" y="281">AdverseOutcomePathway,thes:C54571..(4)</tspan>
<tspan x="654" y="296">rdf:type (1951) [*]  -&gt; IRI</tspan>
<tspan x="654" y="311">rdfs:label (1951) [1] </tspan>
<tspan x="654" y="326">rdfs:seeAlso (1951) [1]  -&gt;  aop:</tspan>
<tspan x="654" y="341">AdverseOutcomePathway,aop:KeyEvent,aop:</tspan>
<tspan x="654" y="356">KeyEventRelationship</tspan>
<tspan x="654" y="371">thes:C71478 (481) [1] D</tspan>
<tspan x="654" y="386">thes:C80263 (563) [1] D</tspan>
<tspan x="654" y="401">&lt;- dc:identifier (1951)  &lt;-  obo:GO_0008150 et al.,sio:</tspan>
<tspan x="654" y="416">CHEMINF_000409..(14)</tspan>
<tspan x="654" y="431">&lt;- foaf:page (1951)  &lt;-  aop:AdverseOutcomePathway,</tspan>
<tspan x="654" y="446">thes:C54571..(4)</tspan>
<tspan x="654" y="461">&lt;- rdfs:seeAlso (1951)  &lt;-  aop:</tspan>
<tspan x="654" y="476">AdverseOutcomePathway,edam:data_2291..(4)</tspan>
</text>
</g>
<g id="2002735951"><polygon points="1250,819 1550,819 1550,1019 1250,1019 "
style="fill:#F4D03F; stroke-width:1;stroke:Black;"/>
<polygon points="1247,822 1547,822 1547,1022 1247,1022 "
style="fill:#F4D03F; stroke-width:1;stroke:Black;"/>
<text style="font-family:Arial;font-size:12px;kerning:0;word-spacing:-1px;fill:Black;font-weight:bold;">
<tspan x="1293" y="837">obo:GO_0008150 et al. G102 (1196)</tspan>
</text>
<line x1="1251" y1="840" x2="1545" y2="840"
 style="stroke-width:1;stroke:Black;"/>
<text style="font-family:Arial;font-size:12px;kerning:0;word-spacing:-1px;fill:Black;">
<tspan x="1251" y="852">dc:identifier (1196) [1]  -&gt;  obo:GO_0008150 et al.,</tspan>
<tspan x="1251" y="867">aop:AdverseOutcomePathway..(6)</tspan>
<tspan x="1251" y="882">dc:source (1196) [1] </tspan>
<tspan x="1251" y="897">dc:title (1233) [*] </tspan>
<tspan x="1251" y="912">rdf:type (1304) [*]  -&gt; IRI</tspan>
<tspan x="1251" y="927">&lt;- dc:identifier (1196)  &lt;-  obo:GO_0008150 et al.,sio:</tspan>
<tspan x="1251" y="942">CHEMINF_000409..(14)</tspan>
</text>
<text style="font-family:Arial;font-size:11px;kerning:0;word-spacing:-1px;fill:Black;font-weight:bold;">
<tspan x="1251" y="957">aop:CellTypeContext (67)</tspan>
<tspan x="1251" y="972">aop:OrganContext (81)</tspan>
<tspan x="1251" y="987">ncbix-13: (164)</tspan>
<tspan x="1251" y="1002">obo:GO_0008150 (453)</tspan>
<tspan x="1251" y="1017">obo:PATO_0001241 (431)</tspan>
</text>
</g>
<g id="2002797972"><polygon points="877,36 1374,36 1374,88 877,88 "
style="fill:none; stroke-width:1;stroke:Black;"/>
<text style="font-family:Arial;font-size:18px;kerning:0;word-spacing:-1px;fill:Black;font-weight:bold;">
<tspan x="1084" y="56">AOP-Wiki</tspan>
<tspan x="918" y="78">https://aopwiki.rdf.bigcat-bioinformatics.org/sparql</tspan>
</text>
</g>
<g id="2002735585"><path d="M440,605 L648,605 "
style="fill:none;stroke-width:1;stroke:Black;"/>
<line x1="642" y1="602" x2="648" y2="605"
 style="stroke-width:1;stroke:Black;"/>
<line x1="642" y1="608" x2="648" y2="605"
 style="stroke-width:1;stroke:Black;"/>
<text style="font-family:Arial;font-size:12px;kerning:0;word-spacing:-1px;fill:Black;">
<tspan x="444" y="603">thes:C54571  DR</tspan>
</text>
</g>
<g id="2002735590"><path d="M1247,899 L927,899 "
style="fill:none;stroke-width:1;stroke:Black;"/>
<line x1="933" y1="896" x2="927" y2="899"
 style="stroke-width:1;stroke:Black;"/>
<line x1="933" y1="902" x2="927" y2="899"
 style="stroke-width:1;stroke:Black;"/>
<text style="font-family:Arial;font-size:12px;kerning:0;word-spacing:-1px;fill:Black;">
<tspan x="1147" y="912">skos:exactMatch  </tspan>
</text>
</g>
<g id="2002735600"><path d="M1115,829 L1115,979 1113,983 1109,985 906,985 "
style="fill:none;stroke-width:1;stroke:Black;"/>
<line x1="912" y1="982" x2="906" y2="985"
 style="stroke-width:1;stroke:Black;"/>
<line x1="912" y1="988" x2="906" y2="985"
 style="stroke-width:1;stroke:Black;"/>
<text style="font-family:Arial;font-size:12px;kerning:0;word-spacing:-1px;fill:Black;">
<tspan x="1117" y="844">skos:exactMatch  </tspan>
</text>
</g>
<g id="2002735610"><path d="M972,829 L972,871 970,875 966,877 927,877 "
style="fill:none;stroke-width:1;stroke:Black;"/>
<line x1="933" y1="874" x2="927" y2="877"
 style="stroke-width:1;stroke:Black;"/>
<line x1="933" y1="880" x2="927" y2="877"
 style="stroke-width:1;stroke:Black;"/>
<text style="font-family:Arial;font-size:12px;kerning:0;word-spacing:-1px;fill:Black;">
<tspan x="974" y="844">skos:exactMatch  </tspan>
</text>
</g>
<g id="2002735620"><path d="M950,363 L1065,363 1069,365 1071,369 1071,784 "
style="fill:none;stroke-width:1;stroke:Black;"/>
<line x1="1068" y1="778" x2="1071" y2="784"
 style="stroke-width:1;stroke:Black;"/>
<line x1="1074" y1="778" x2="1071" y2="784"
 style="stroke-width:1;stroke:Black;"/>
<text style="font-family:Arial;font-size:12px;kerning:0;word-spacing:-1px;fill:Black;">
<tspan x="954" y="361">edam:data_1025  R</tspan>
</text>
</g>
<g id="2002735630"><path d="M950,292 L1266,292 "
style="fill:none;stroke-width:1;stroke:Black;"/>
<line x1="1260" y1="289" x2="1266" y2="292"
 style="stroke-width:1;stroke:Black;"/>
<line x1="1260" y1="295" x2="1266" y2="292"
 style="stroke-width:1;stroke:Black;"/>
<text style="font-family:Arial;font-size:12px;kerning:0;word-spacing:-1px;fill:Black;">
<tspan x="954" y="275">aop:has_upstream_key_event  DR</tspan>
<tspan x="954" y="290">aop:has_downstream_key_event  DR</tspan>
</text>
</g>
<g id="2002735645"><path d="M1894,1031 L1894,1050 "
style="fill:none;stroke-width:1;stroke:Black;"/>
<line x1="1891" y1="1044" x2="1894" y2="1050"
 style="stroke-width:1;stroke:Black;"/>
<line x1="1897" y1="1044" x2="1894" y2="1050"
 style="stroke-width:1;stroke:Black;"/>
<text style="font-family:Arial;font-size:12px;kerning:0;word-spacing:-1px;fill:Black;">
<tspan x="1896" y="1046">dcat:downloadURL  D</tspan>
</text>
</g>
<g id="2002735655"><path d="M320,177 L320,113 322,109 326,107 1413,107 1417,109 1419,113 1419,215 "
style="fill:none;stroke-width:1;stroke:Black;"/>
<line x1="1416" y1="209" x2="1419" y2="215"
 style="stroke-width:1;stroke:Black;"/>
<line x1="1422" y1="209" x2="1419" y2="215"
 style="stroke-width:1;stroke:Black;"/>
<text style="font-family:Arial;font-size:12px;kerning:0;word-spacing:-1px;fill:Black;">
<tspan x="98" y="143">aop:has_key_event  DR</tspan>
<tspan x="98" y="158">aop:has_adverse_outcome  DR</tspan>
<tspan x="98" y="173">aop:has_molecular_initiating_event  DR</tspan>
</text>
</g>
<g id="2002735660"><path d="M434,974 L691,974 "
style="fill:none;stroke-width:1;stroke:Black;"/>
<line x1="685" y1="971" x2="691" y2="974"
 style="stroke-width:1;stroke:Black;"/>
<line x1="685" y1="977" x2="691" y2="974"
 style="stroke-width:1;stroke:Black;"/>
<text style="font-family:Arial;font-size:12px;kerning:0;word-spacing:-1px;fill:Black;">
<tspan x="438" y="972">skos:exactMatch  </tspan>
</text>
</g>
<g id="2002735665"><path d="M1247,996 L906,996 "
style="fill:none;stroke-width:1;stroke:Black;"/>
<line x1="912" y1="993" x2="906" y2="996"
 style="stroke-width:1;stroke:Black;"/>
<line x1="912" y1="999" x2="906" y2="996"
 style="stroke-width:1;stroke:Black;"/>
<text style="font-family:Arial;font-size:12px;kerning:0;word-spacing:-1px;fill:Black;">
<tspan x="1147" y="1009">skos:exactMatch  </tspan>
</text>
</g>
<g id="2002735675"><path d="M1466,625 L1466,822 "
style="fill:none;stroke-width:1;stroke:Black;"/>
<line x1="1463" y1="816" x2="1466" y2="822"
 style="stroke-width:1;stroke:Black;"/>
<line x1="1469" y1="816" x2="1466" y2="822"
 style="stroke-width:1;stroke:Black;"/>
<text style="font-family:Arial;font-size:12px;kerning:0;word-spacing:-1px;fill:Black;">
<tspan x="1468" y="640">ncbix:131567  D</tspan>
<tspan x="1468" y="655">obo:GO_0008150  DR</tspan>
<tspan x="1468" y="670">obo:PATO_0001241  D</tspan>
<tspan x="1468" y="685">aop:CellTypeContext  D</tspan>
<tspan x="1468" y="700">aop:OrganContext  D</tspan>
</text>
</g>
<g id="2002735685"><path d="M1347,625 L1347,797 1345,801 1341,803 1212,803 "
style="fill:none;stroke-width:1;stroke:Black;"/>
<line x1="1218" y1="800" x2="1212" y2="803"
 style="stroke-width:1;stroke:Black;"/>
<line x1="1218" y1="806" x2="1212" y2="803"
 style="stroke-width:1;stroke:Black;"/>
<text style="font-family:Arial;font-size:12px;kerning:0;word-spacing:-1px;fill:Black;">
<tspan x="1349" y="640">edam:data_1025  R</tspan>
</text>
</g>
<g id="2002735690"><path d="M434,877 L670,877 "
style="fill:none;stroke-width:1;stroke:Black;"/>
<line x1="664" y1="874" x2="670" y2="877"
 style="stroke-width:1;stroke:Black;"/>
<line x1="664" y1="880" x2="670" y2="877"
 style="stroke-width:1;stroke:Black;"/>
<text style="font-family:Arial;font-size:12px;kerning:0;word-spacing:-1px;fill:Black;">
<tspan x="438" y="875">skos:exactMatch  </tspan>
</text>
</g>
<g id="2002735695"><path d="M648,756 L434,756 "
style="fill:none;stroke-width:1;stroke:Black;"/>
<line x1="440" y1="753" x2="434" y2="756"
 style="stroke-width:1;stroke:Black;"/>
<line x1="440" y1="759" x2="434" y2="756"
 style="stroke-width:1;stroke:Black;"/>
<text style="font-family:Arial;font-size:12px;kerning:0;word-spacing:-1px;fill:Black;">
<tspan x="492" y="769">aop:has_chemical_entity  D</tspan>
</text>
</g>
<g id="2002735700"><path d="M440,348 L650,348 "
style="fill:none;stroke-width:1;stroke:Black;"/>
<line x1="644" y1="345" x2="650" y2="348"
 style="stroke-width:1;stroke:Black;"/>
<line x1="644" y1="351" x2="650" y2="348"
 style="stroke-width:1;stroke:Black;"/>
<text style="font-family:Arial;font-size:12px;kerning:0;word-spacing:-1px;fill:Black;">
<tspan x="444" y="346">aop:has_key_event_relationship  DR</tspan>
</text>
</g>
<g id="2002735710"><path d="M869,1011 L869,1085 "
style="fill:none;stroke-width:2;stroke:Fuchsia;"/>
<polygon points="874,1021 869,1011 864,1021 "
style="fill:Silver;stroke-width:1;stroke:Black;"/>
<text style="font-family:Arial;font-size:12px;kerning:0;word-spacing:-1px;fill:Black;">
<tspan x="871" y="1026"> </tspan>
</text>
</g>
<g id="2002735712"><path d="M691,990 L522,990 518,992 516,996 516,1088 "
style="fill:none;stroke-width:2;stroke:Fuchsia;"/>
<polygon points="681,995 691,990 681,985 "
style="fill:Silver;stroke-width:1;stroke:Black;"/>
<text style="font-family:Arial;font-size:12px;kerning:0;word-spacing:-1px;fill:Black;">
<tspan x="677" y="1003"> </tspan>
</text>
</g>
<g id="2002735714"><path d="M752,1011 L752,1041 "
style="fill:none;stroke-width:2;stroke:Fuchsia;"/>
<polygon points="757,1021 752,1011 747,1021 "
style="fill:Silver;stroke-width:1;stroke:Black;"/>
<text style="font-family:Arial;font-size:12px;kerning:0;word-spacing:-1px;fill:Black;">
<tspan x="754" y="1026"> </tspan>
</text>
</g>
<g id="2002735716"><path d="M906,963 L1077,963 1081,961 1083,957 1083,829 "
style="fill:none;stroke-width:2;stroke:Fuchsia;"/>
<polygon points="916,968 906,963 916,958 "
style="fill:Silver;stroke-width:1;stroke:Black;"/>
<text style="font-family:Arial;font-size:12px;kerning:0;word-spacing:-1px;fill:Black;">
<tspan x="910" y="961"> </tspan>
</text>
</g>
<g id="2002735718"><path d="M1874,1031 L1874,1050 "
style="fill:none;stroke-width:2;stroke:Fuchsia;"/>
<polygon points="1879,1041 1874,1031 1869,1041 "
style="fill:Silver;stroke-width:1;stroke:Black;"/>
<text style="font-family:Arial;font-size:12px;kerning:0;word-spacing:-1px;fill:Black;">
<tspan x="1876" y="1046"> </tspan>
</text>
</g>
</svg>
