<?xml version="1.0" encoding="UTF-8" standalone="no"?>
<!DOCTYPE svg PUBLIC "-//W3C//DTD SVG 1.1//EN"
"http://www.w3.org/Graphics/SVG/1.1/DTD/svg11.dtd">
<svg version="1.1" xmlns="http://www.w3.org/2000/svg"
xmlns:xlink="http://www.w3.org/1999/xlink" xml:space="preserve"
 width="1097" height="661" viewBox="0 0 1097 661">
 onmousemove="movetip(evt)" onmouseup="endmove()">
<rect x="0" y="0" width="100%" height="100%" style="fill:White;"/>
<script type="application/ecmascript"> <![CDATA[
var dragtipid = null; var dragcase = false; function init(evt){
if (window.svgDocument==null) svgDocument = evt.target.ownerDocument;
}
function movetip(evt){if (dragtipid!=null){ dragcase = true;
var tip=svgDocument.getElementById(dragtipid);
tip.setAttributeNS(null,"x",evt.clientX-2);
tip.setAttributeNS(null,"y",evt.clientY-2);
}}
function endmove(){dragtipid = null;}
function startmove(evt,id){dragtipid = id; dragcase = false;
var tip=svgDocument.getElementById(dragtipid);
tip.setAttributeNS(null,"x",evt.clientX-2);
tip.setAttributeNS(null,"y",evt.clientY-2);
}
function Showtip(evt,id){ dragtipid = null;
var tip=svgDocument.getElementById(id);
var vis=tip.getAttributeNS(null,"visibility");
if (vis=="hidden"){
tip.setAttributeNS(null,"x",evt.clientX-2);
tip.setAttributeNS(null,"y",evt.clientY-2);
tip.setAttributeNS(null,"visibility","visible");
}}
function Hidetip(id){ dragtipid = null; if (dragcase==false){
var tip=svgDocument.getElementById(id);
tip.setAttributeNS(null,"visibility","hidden");
}}
]]></script>
<defs><linearGradient id="activ1" x1="0%" y1="0%" x2="100%" y2="0%">
<stop offset="0%" style="stop-color:#FFFF00;stop-opacity:1"/>
<stop offset="100%" style="stop-color:#FFFFF0;stop-opacity:1"/>
</linearGradient></defs>
<g id="2002712748"><polygon points="274,114 574,114 574,159 274,159 "
style="fill:#F4D03F; stroke-width:1;stroke:Black;"/>
<text style="font-family:Arial;font-size:12px;kerning:0;word-spacing:-1px;fill:Black;font-weight:bold;">
<tspan x="355" y="129">bcn-n:Rectification (395)</tspan>
</text>
<line x1="278" y1="132" x2="572" y2="132"
 style="stroke-width:1;stroke:Black;"/>
<text style="font-family:Arial;font-size:12px;kerning:0;word-spacing:-1px;fill:Black;">
<tspan x="278" y="144">rdf:type (1938) [*]  -&gt; IRI</tspan>
</text>
</g>
<g id="2002712759"><polygon points="26,351 243,351 243,401 26,401 "
style="fill:#F4D03F; stroke-width:1;stroke:Black;"/>
<text style="font-family:Arial;font-size:12px;kerning:0;word-spacing:-1px;fill:Black;font-weight:bold;">
<tspan x="79" y="366">bcn-n:Treaty (2875)</tspan>
</text>
<line x1="30" y1="369" x2="241" y2="369"
 style="stroke-width:1;stroke:Black;"/>
<text style="font-family:Arial;font-size:12px;kerning:0;word-spacing:-1px;fill:Black;">
<tspan x="30" y="381">bcn-n:isTreatyWith (2184) [*] D -&gt; IRI</tspan>
</text>
</g>
<g id="2002712770"><polygon points="827,229 1087,229 1087,309 827,309 "
style="fill:#F4D03F; stroke-width:1;stroke:Black;"/>
<text style="font-family:Arial;font-size:12px;kerning:0;word-spacing:-1px;fill:Black;font-weight:bold;">
<tspan x="915" y="244">frbr:Subject (5)</tspan>
</text>
<line x1="831" y1="247" x2="1085" y2="247"
 style="stroke-width:1;stroke:Black;"/>
<text style="font-family:Arial;font-size:12px;kerning:0;word-spacing:-1px;fill:Black;">
<tspan x="831" y="259">bcn-n:hasTag (5) [1] D</tspan>
<tspan x="831" y="274">rdf:type (5) [*]  -&gt; IRI</tspan>
<tspan x="831" y="289">rdfs:label (5) [*] </tspan>
<tspan x="831" y="304">skos:prefLabel (5) [*] </tspan>
</text>
</g>
<g id="2002712781"><polygon points="187,424 353,424 353,469 187,469 "
style="fill:#F4D03F; stroke-width:1;stroke:Black;"/>
<text style="font-family:Arial;font-size:12px;kerning:0;word-spacing:-1px;fill:Black;font-weight:bold;">
<tspan x="202" y="439">bcn-n:RootNorm (3.6e5)</tspan>
</text>
</g>
<g id="2002712792"><polygon points="10,235 303,235 303,332 10,332 "
style="fill:#F4D03F; stroke-width:1;stroke:Black;"/>
<text style="font-family:Arial;font-size:12px;kerning:0;word-spacing:-1px;fill:Black;font-weight:bold;">
<tspan x="77" y="250">bcn-n:NormInstance (3.9e5)</tspan>
</text>
<line x1="14" y1="253" x2="301" y2="253"
 style="stroke-width:1;stroke:Black;"/>
<text style="font-family:Arial;font-size:12px;kerning:0;word-spacing:-1px;fill:Black;">
<tspan x="14" y="265">bcn-n:hasHtmlDocument (3.9e5) [*] D -&gt; IRI</tspan>
<tspan x="14" y="280">bcn-n:hasXmlDocument (3.9e5) [*] D -&gt; IRI</tspan>
<tspan x="14" y="295">bcn-n:isLatestVersion (3.9e5) [*] D</tspan>
<tspan x="14" y="310">bcn-n:versionDate (4.1e5) [*] </tspan>
</text>
</g>
<g id="2002712803"><polygon points="843,377 1033,377 1033,422 843,422 "
style="fill:#F4D03F; stroke-width:1;stroke:Black;"/>
<text style="font-family:Arial;font-size:12px;kerning:0;word-spacing:-1px;fill:Black;font-weight:bold;">
<tspan x="885" y="392">skos:Collection (6)</tspan>
</text>
<line x1="847" y1="395" x2="1031" y2="395"
 style="stroke-width:1;stroke:Black;"/>
<text style="font-family:Arial;font-size:12px;kerning:0;word-spacing:-1px;fill:Black;">
<tspan x="847" y="407">rdf:type (11) [*]  -&gt; IRI</tspan>
</text>
</g>
<g id="2002712814"><polygon points="602,109 902,109 902,159 602,159 "
style="fill:#F4D03F; stroke-width:1;stroke:Black;"/>
<text style="font-family:Arial;font-size:12px;kerning:0;word-spacing:-1px;fill:Black;font-weight:bold;">
<tspan x="678" y="124">bcn-n:RecastedText (324)</tspan>
</text>
<line x1="606" y1="127" x2="900" y2="127"
 style="stroke-width:1;stroke:Black;"/>
<text style="font-family:Arial;font-size:12px;kerning:0;word-spacing:-1px;fill:Black;">
<tspan x="606" y="139">rdf:type (1487) [*]  -&gt; IRI</tspan>
<tspan x="606" y="154">&lt;&gt; bcn-n:agreeWith  </tspan>
</text>
</g>
<g id="2002712825"><polygon points="32,500 395,500 395,651 32,651 "
style="fill:White; stroke-width:1;stroke:Black;"/>
<text style="font-family:Arial;font-size:12px;kerning:0;word-spacing:-1px;fill:Black;">
<tspan x="36" y="514">PREFIX bcn-n: &lt;http://datos.bcn.cl/ontologies/bcn-norms#&gt;</tspan>
<tspan x="36" y="529">PREFIX skos: &lt;http://www.w3.org/2004/02/skos/core#&gt;</tspan>
<tspan x="36" y="544">PREFIX dc: &lt;http://purl.org/dc/elements/1.1/&gt;</tspan>
<tspan x="36" y="559">PREFIX frbr: &lt;http://vocab.org/frbr/core#&gt;</tspan>
<tspan x="36" y="574">PREFIX bcn-r: &lt;http://datos.bcn.cl/ontologies/bcn-resources#&gt;</tspan>
<tspan x="36" y="589">PREFIX foaf: &lt;http://xmlns.com/foaf/0.1/&gt;</tspan>
<tspan x="36" y="604">PREFIX rdf: &lt;http://www.w3.org/1999/02/22-rdf-syntax-ns#&gt;</tspan>
<tspan x="36" y="619">PREFIX rdfs: &lt;http://www.w3.org/2000/01/rdf-schema#&gt;</tspan>
<tspan x="36" y="634">PREFIX owl: &lt;http://www.w3.org/2002/07/owl#&gt;</tspan>
</text>
</g>
<g id="2002712836"><polygon points="808,509 1084,509 1084,554 808,554 "
style="fill:#F4D03F; stroke-width:1;stroke:Black;"/>
<text style="font-family:Arial;font-size:12px;kerning:0;word-spacing:-1px;fill:Black;font-weight:bold;">
<tspan x="860" y="524">bcn-n:CategoryByKeyword (5)</tspan>
</text>
</g>
<g id="2002712847"><polygon points="455,234 755,234 755,612 455,612 "
style="fill:#F4D03F; stroke-width:1;stroke:Black;"/>
<polygon points="452,237 752,237 752,615 452,615 "
style="fill:#F4D03F; stroke-width:1;stroke:Black;"/>
<text style="font-family:Arial;font-size:12px;kerning:0;word-spacing:-1px;fill:Black;font-weight:bold;">
<tspan x="505" y="252">foaf:Document et al. G101 (7.5e5)</tspan>
</text>
<line x1="456" y1="255" x2="750" y2="255"
 style="stroke-width:1;stroke:Black;"/>
<text style="font-family:Arial;font-size:12px;kerning:0;word-spacing:-1px;fill:Black;">
<tspan x="456" y="267">bcn-n:createdBy (7.5e5) [1] D -&gt; IRI</tspan>
<tspan x="456" y="282">bcn-n:hasNumber (7.7e5) [*] D</tspan>
<tspan x="456" y="297">bcn-n:leychileCode (7.5e5) [*] D</tspan>
<tspan x="456" y="312">bcn-n:promulgationDate (5.3e5) [*] </tspan>
<tspan x="456" y="327">bcn-n:publishDate (7.7e5) [*] </tspan>
<tspan x="456" y="342">bcn-n:type (7.5e5) [1] D -&gt; IRI</tspan>
<tspan x="456" y="357">dc:identifier (4198) [1] </tspan>
<tspan x="456" y="372">dc:language (5.1e5) [1] D</tspan>
<tspan x="456" y="387">dc:title (7.7e5) [*] </tspan>
<tspan x="456" y="402">rdf:type (3.0e6) [*]  -&gt; IRI</tspan>
<tspan x="456" y="417">rdfs:label (8.0e5) [*] </tspan>
<tspan x="456" y="432">skos:prefLabel (5.5e5) [*] </tspan>
<tspan x="456" y="447">&lt;&gt; bcn-n:agreeWith  </tspan>
<tspan x="456" y="462">&lt;&gt; bcn-n:isModifiedBy  </tspan>
<tspan x="456" y="477">&lt;&gt; bcn-n:isRectifiedBy  </tspan>
<tspan x="456" y="492">&lt;&gt; bcn-n:modifiesTo  </tspan>
<tspan x="456" y="507">&lt;&gt; bcn-n:recasts  </tspan>
<tspan x="456" y="522">&lt;&gt; bcn-n:rectifies  </tspan>
<tspan x="456" y="537">&lt;&gt; bcn-n:regulates  </tspan>
</text>
<text style="font-family:Arial;font-size:11px;kerning:0;word-spacing:-1px;fill:Black;font-weight:bold;">
<tspan x="456" y="552">bcn-n:Norm (7.5e5)</tspan>
<tspan x="456" y="567">bcn-r:Documento (7.5e5)</tspan>
<tspan x="456" y="582">foaf:Document (7.5e5)</tspan>
</text>
</g>
<g id="2002794873"><polygon points="448,33 729,33 729,85 448,85 "
style="fill:none; stroke-width:1;stroke:Black;"/>
<text style="font-family:Arial;font-size:18px;kerning:0;word-spacing:-1px;fill:Black;font-weight:bold;">
<tspan x="507" y="53">Chilean Open Data </tspan>
<tspan x="486" y="75">http://datos.bcn.cl/sparql</tspan>
</text>
</g>
<g id="2002712680"><path d="M291,332 L291,424 "
style="fill:none;stroke-width:1;stroke:Black;"/>
<line x1="288" y1="418" x2="291" y2="424"
 style="stroke-width:1;stroke:Black;"/>
<line x1="294" y1="418" x2="291" y2="424"
 style="stroke-width:1;stroke:Black;"/>
<text style="font-family:Arial;font-size:12px;kerning:0;word-spacing:-1px;fill:Black;">
<tspan x="293" y="347">bcn-n:versionOf  </tspan>
</text>
</g>
<g id="2002712685"><path d="M1043,509 L1043,309 "
style="fill:none;stroke-width:1;stroke:Black;"/>
<line x1="1040" y1="315" x2="1043" y2="309"
 style="stroke-width:1;stroke:Black;"/>
<line x1="1046" y1="315" x2="1043" y2="309"
 style="stroke-width:1;stroke:Black;"/>
<text style="font-family:Arial;font-size:12px;kerning:0;word-spacing:-1px;fill:Black;">
<tspan x="974" y="505">frbr:subject  </tspan>
</text>
</g>
<g id="2002712690"><path d="M494,159 L494,237 "
style="fill:none;stroke-width:1;stroke:Black;"/>
<line x1="491" y1="231" x2="494" y2="237"
 style="stroke-width:1;stroke:Black;"/>
<line x1="497" y1="231" x2="494" y2="237"
 style="stroke-width:1;stroke:Black;"/>
<text style="font-family:Arial;font-size:12px;kerning:0;word-spacing:-1px;fill:Black;">
<tspan x="496" y="174">bcn-n:rectifies  </tspan>
</text>
</g>
<g id="2002712695"><path d="M458,237 L458,159 "
style="fill:none;stroke-width:1;stroke:Black;"/>
<line x1="455" y1="165" x2="458" y2="159"
 style="stroke-width:1;stroke:Black;"/>
<line x1="461" y1="165" x2="458" y2="159"
 style="stroke-width:1;stroke:Black;"/>
<text style="font-family:Arial;font-size:12px;kerning:0;word-spacing:-1px;fill:Black;">
<tspan x="345" y="233">bcn-n:isRectifiedBy  </tspan>
</text>
</g>
<g id="2002712700"><path d="M694,159 L694,237 "
style="fill:none;stroke-width:1;stroke:Black;"/>
<line x1="691" y1="231" x2="694" y2="237"
 style="stroke-width:1;stroke:Black;"/>
<line x1="697" y1="231" x2="694" y2="237"
 style="stroke-width:1;stroke:Black;"/>
<text style="font-family:Arial;font-size:12px;kerning:0;word-spacing:-1px;fill:Black;">
<tspan x="696" y="174">bcn-n:agreeWith  </tspan>
<tspan x="696" y="189">bcn-n:regulates  </tspan>
<tspan x="696" y="204">bcn-n:recasts  </tspan>
</text>
</g>
<g id="2002712705"><path d="M843,399 L752,399 "
style="fill:none;stroke-width:1;stroke:Black;"/>
<line x1="758" y1="396" x2="752" y2="399"
 style="stroke-width:1;stroke:Black;"/>
<line x1="758" y1="402" x2="752" y2="399"
 style="stroke-width:1;stroke:Black;"/>
<text style="font-family:Arial;font-size:12px;kerning:0;word-spacing:-1px;fill:Black;">
<tspan x="756" y="412">skos:member  </tspan>
</text>
</g>
<g id="2002712710"><path d="M452,298 L303,298 "
style="fill:none;stroke-width:1;stroke:Black;"/>
<line x1="309" y1="295" x2="303" y2="298"
 style="stroke-width:1;stroke:Black;"/>
<line x1="309" y1="301" x2="303" y2="298"
 style="stroke-width:1;stroke:Black;"/>
<text style="font-family:Arial;font-size:12px;kerning:0;word-spacing:-1px;fill:Black;">
<tspan x="314" y="311">bcn-n:isRegulatedBy  D</tspan>
<tspan x="314" y="326">bcn-n:isRecastedBy  DR</tspan>
</text>
</g>
<g id="2002712715"><path d="M873,422 L873,509 "
style="fill:none;stroke-width:1;stroke:Black;"/>
<line x1="870" y1="503" x2="873" y2="509"
 style="stroke-width:1;stroke:Black;"/>
<line x1="876" y1="503" x2="873" y2="509"
 style="stroke-width:1;stroke:Black;"/>
<text style="font-family:Arial;font-size:12px;kerning:0;word-spacing:-1px;fill:Black;">
<tspan x="875" y="437">skos:member  </tspan>
</text>
</g>
<g id="2002712720"><path d="M249,424 L249,332 "
style="fill:none;stroke-width:1;stroke:Black;"/>
<line x1="246" y1="338" x2="249" y2="332"
 style="stroke-width:1;stroke:Black;"/>
<line x1="252" y1="338" x2="249" y2="332"
 style="stroke-width:1;stroke:Black;"/>
<text style="font-family:Arial;font-size:12px;kerning:0;word-spacing:-1px;fill:Black;">
<tspan x="144" y="420">bcn-n:hasVersion  </tspan>
</text>
</g>
<g id="2002712725"><path d="M644,237 L644,159 "
style="fill:none;stroke-width:1;stroke:Black;"/>
<line x1="641" y1="165" x2="644" y2="159"
 style="stroke-width:1;stroke:Black;"/>
<line x1="647" y1="165" x2="644" y2="159"
 style="stroke-width:1;stroke:Black;"/>
<text style="font-family:Arial;font-size:12px;kerning:0;word-spacing:-1px;fill:Black;">
<tspan x="546" y="233">bcn-n:agreeWith  </tspan>
</text>
</g>
<g id="2002712730"><path d="M752,254 L827,254 "
style="fill:none;stroke-width:1;stroke:Black;"/>
<line x1="821" y1="251" x2="827" y2="254"
 style="stroke-width:1;stroke:Black;"/>
<line x1="821" y1="257" x2="827" y2="254"
 style="stroke-width:1;stroke:Black;"/>
<text style="font-family:Arial;font-size:12px;kerning:0;word-spacing:-1px;fill:Black;">
<tspan x="756" y="252">frbr:subject  </tspan>
</text>
</g>
<g id="2002712735"><path d="M910,377 L910,309 "
style="fill:none;stroke-width:1;stroke:Black;"/>
<line x1="907" y1="315" x2="910" y2="309"
 style="stroke-width:1;stroke:Black;"/>
<line x1="913" y1="315" x2="910" y2="309"
 style="stroke-width:1;stroke:Black;"/>
<text style="font-family:Arial;font-size:12px;kerning:0;word-spacing:-1px;fill:Black;">
<tspan x="825" y="373">skos:member  </tspan>
</text>
</g>
<g id="2002712740"><path d="M452,475 L347,475 347,469 "
style="fill:none;stroke-width:2;stroke:Fuchsia;"/>
<polygon points="442,480 452,475 442,470 "
style="fill:Silver;stroke-width:1;stroke:Black;"/>
<text style="font-family:Arial;font-size:12px;kerning:0;word-spacing:-1px;fill:Black;">
<tspan x="438" y="488"> </tspan>
</text>
</g>
<g id="2002712742"><path d="M133,332 L133,351 "
style="fill:none;stroke-width:2;stroke:Fuchsia;"/>
<polygon points="138,342 133,332 128,342 "
style="fill:Silver;stroke-width:1;stroke:Black;"/>
<text style="font-family:Arial;font-size:12px;kerning:0;word-spacing:-1px;fill:Black;">
<tspan x="135" y="347"> </tspan>
</text>
</g>
<g id="2002712744"><path d="M452,276 L303,276 "
style="fill:none;stroke-width:2;stroke:Fuchsia;"/>
<polygon points="442,281 452,276 442,271 "
style="fill:Silver;stroke-width:1;stroke:Black;"/>
<text style="font-family:Arial;font-size:12px;kerning:0;word-spacing:-1px;fill:Black;">
<tspan x="438" y="289"> </tspan>
</text>
</g>
<g id="2002712746"><path d="M966,422 L966,509 "
style="fill:none;stroke-width:2;stroke:Fuchsia;"/>
<polygon points="971,432 966,422 961,432 "
style="fill:Silver;stroke-width:1;stroke:Black;"/>
<text style="font-family:Arial;font-size:12px;kerning:0;word-spacing:-1px;fill:Black;">
<tspan x="968" y="437"> </tspan>
</text>
</g>
</svg>
