<?xml version="1.0" encoding="UTF-8" standalone="no"?>
<!DOCTYPE svg PUBLIC "-//W3C//DTD SVG 1.1//EN"
"http://www.w3.org/Graphics/SVG/1.1/DTD/svg11.dtd">
<svg version="1.1" xmlns="http://www.w3.org/2000/svg"
xmlns:xlink="http://www.w3.org/1999/xlink" xml:space="preserve"
 width="1892" height="950" viewBox="0 0 1892 950">
 onmousemove="movetip(evt)" onmouseup="endmove()">
<rect x="0" y="0" width="100%" height="100%" style="fill:White;"/>
<script type="application/ecmascript"> <![CDATA[
var dragtipid = null; var dragcase = false; function init(evt){
if (window.svgDocument==null) svgDocument = evt.target.ownerDocument;
}
function movetip(evt){if (dragtipid!=null){ dragcase = true;
var tip=svgDocument.getElementById(dragtipid);
tip.setAttributeNS(null,"x",evt.clientX-2);
tip.setAttributeNS(null,"y",evt.clientY-2);
}}
function endmove(){dragtipid = null;}
function startmove(evt,id){dragtipid = id; dragcase = false;
var tip=svgDocument.getElementById(dragtipid);
tip.setAttributeNS(null,"x",evt.clientX-2);
tip.setAttributeNS(null,"y",evt.clientY-2);
}
function Showtip(evt,id){ dragtipid = null;
var tip=svgDocument.getElementById(id);
var vis=tip.getAttributeNS(null,"visibility");
if (vis=="hidden"){
tip.setAttributeNS(null,"x",evt.clientX-2);
tip.setAttributeNS(null,"y",evt.clientY-2);
tip.setAttributeNS(null,"visibility","visible");
}}
function Hidetip(id){ dragtipid = null; if (dragcase==false){
var tip=svgDocument.getElementById(id);
tip.setAttributeNS(null,"visibility","hidden");
}}
]]></script>
<defs><linearGradient id="activ1" x1="0%" y1="0%" x2="100%" y2="0%">
<stop offset="0%" style="stop-color:#FFFF00;stop-opacity:1"/>
<stop offset="100%" style="stop-color:#FFFFF0;stop-opacity:1"/>
</linearGradient></defs>
<g id="2002721441"><polygon points="505,405 801,405 801,613 505,613 "
style="fill:#F4D03F; stroke-width:1;stroke:Black;"/>
<text style="font-family:Arial;font-size:12px;kerning:0;word-spacing:-1px;fill:Black;font-weight:bold;">
<tspan x="613" y="420">owl:Class (17)</tspan>
</text>
<line x1="509" y1="423" x2="799" y2="423"
 style="stroke-width:1;stroke:Black;"/>
<text style="font-family:Arial;font-size:12px;kerning:0;word-spacing:-1px;fill:Black;">
<tspan x="509" y="435">owl:unionOf (3) [1] D -&gt; IRI</tspan>
<tspan x="509" y="450">rdf:type (31) [*]  -&gt;  owl:Class</tspan>
<tspan x="509" y="465">rdfs:comment (18) [*] </tspan>
<tspan x="509" y="480">rdfs:label (27) [*] </tspan>
<tspan x="509" y="495">skos:definition (5) [*] </tspan>
<tspan x="509" y="510">skos:example (1) [1] </tspan>
<tspan x="509" y="525">skos:scopeNote (3) [1] </tspan>
<tspan x="509" y="540">&lt;- rdf:type (3.1e4)  &lt;-  entice-core:MedicalTerm,skos:</tspan>
<tspan x="509" y="555">ConceptScheme..(12)</tspan>
<tspan x="509" y="570">&lt;&gt; owl:complementOf  DR</tspan>
<tspan x="509" y="585">&lt;&gt; owl:disjointWith  DR</tspan>
<tspan x="509" y="600">&lt;&gt; rdfs:subClassOf  </tspan>
</text>
</g>
<g id="2002721452"><polygon points="505,73 801,73 801,152 505,152 "
style="fill:#F4D03F; stroke-width:1;stroke:Black;"/>
<text style="font-family:Arial;font-size:12px;kerning:0;word-spacing:-1px;fill:Black;font-weight:bold;">
<tspan x="615" y="88">sd:Service (1)</tspan>
</text>
<line x1="509" y1="91" x2="799" y2="91"
 style="stroke-width:1;stroke:Black;"/>
<text style="font-family:Arial;font-size:12px;kerning:0;word-spacing:-1px;fill:Black;">
<tspan x="509" y="103">rdf:type (1) [*]  -&gt;  owl:Class</tspan>
<tspan x="509" y="118">sd:resultFormat (8) [*] D -&gt; IRI</tspan>
<tspan x="509" y="133">&lt;&gt; sd:endpoint  DR</tspan>
<tspan x="509" y="148">&lt;&gt; sd:url  DR</tspan>
</text>
</g>
<g id="2002721463"><polygon points="1130,779 1340,779 1340,823 1130,823 "
style="fill:#F4D03F; stroke-width:1;stroke:Black;"/>
<text style="font-family:Arial;font-size:12px;kerning:0;word-spacing:-1px;fill:Black;font-weight:bold;">
<tspan x="1141" y="794">owl:InverseFunctionalProperty (2)</tspan>
</text>
</g>
<g id="2002721474"><polygon points="858,294 1060,294 1060,339 858,339 "
style="fill:#F4D03F; stroke-width:1;stroke:Black;"/>
<text style="font-family:Arial;font-size:12px;kerning:0;word-spacing:-1px;fill:Black;font-weight:bold;">
<tspan x="884" y="309">owl:SymmetricProperty (4)</tspan>
</text>
</g>
<g id="2002721485"><polygon points="90,565 380,565 380,941 90,941 "
style="fill:#F4D03F; stroke-width:1;stroke:Black;"/>
<text style="font-family:Arial;font-size:12px;kerning:0;word-spacing:-1px;fill:Black;font-weight:bold;">
<tspan x="189" y="580">owl:Ontology (6)</tspan>
</text>
<line x1="94" y1="583" x2="378" y2="583"
 style="stroke-width:1;stroke:Black;"/>
<text style="font-family:Arial;font-size:12px;kerning:0;word-spacing:-1px;fill:Black;">
<tspan x="94" y="595">data-view:namespaceTransformation (2) [1] D -&gt; IRI</tspan>
<tspan x="94" y="610">dc:date (1) [1] D</tspan>
<tspan x="94" y="625">dc:description (1) [1] D</tspan>
<tspan x="94" y="640">dc:title (4) [1] D</tspan>
<tspan x="94" y="655">dct:contributor (3) [*] D</tspan>
<tspan x="94" y="670">dct:created (1) [1] </tspan>
<tspan x="94" y="685">dct:creator (2) [*] D</tspan>
<tspan x="94" y="700">dct:description (2) [1] D</tspan>
<tspan x="94" y="715">dct:issued (1) [1] D</tspan>
<tspan x="94" y="730">dct:license (1) [1] D -&gt; IRI</tspan>
<tspan x="94" y="745">dct:modified (1) [1] </tspan>
<tspan x="94" y="760">dct:title (2) [1] D</tspan>
<tspan x="94" y="775">owl:imports (4) [1] D -&gt; IRI</tspan>
<tspan x="94" y="790">owl:priorVersion (2) [1] D -&gt; IRI</tspan>
<tspan x="94" y="805">owl:versionInfo (5) [*] D</tspan>
<tspan x="94" y="820">rdf:type (8) [*]  -&gt;  owl:Class</tspan>
<tspan x="94" y="835">rdfs:comment (4) [*] </tspan>
<tspan x="94" y="850">rdfs:label (1) [*] </tspan>
<tspan x="94" y="865">rdfs:seeAlso (6) [*]  -&gt; IRI</tspan>
<tspan x="94" y="880">vann:preferredNamespacePrefix (1) [1] D</tspan>
<tspan x="94" y="895">vann:preferredNamespaceUri (1) [1] D -&gt; IRI</tspan>
<tspan x="94" y="910">&lt;&gt; owl:versionIRI  DR</tspan>
<tspan x="94" y="925">&lt;&gt; rdfs:isDefinedBy  </tspan>
</text>
</g>
<g id="2002721496"><polygon points="1550,420 1790,420 1790,464 1550,464 "
style="fill:#F4D03F; stroke-width:1;stroke:Black;"/>
<text style="font-family:Arial;font-size:12px;kerning:0;word-spacing:-1px;fill:Black;font-weight:bold;">
<tspan x="1569" y="435">entice-core:ExperientialFeature (70)</tspan>
</text>
</g>
<g id="2002721507"><polygon points="508,183 804,183 804,277 508,277 "
style="fill:#F4D03F; stroke-width:1;stroke:Black;"/>
<polygon points="505,186 801,186 801,280 505,280 "
style="fill:#F4D03F; stroke-width:1;stroke:Black;"/>
<text style="font-family:Arial;font-size:12px;kerning:0;word-spacing:-1px;fill:Black;font-weight:bold;">
<tspan x="551" y="201">sd:Feature or sd:Language G103 (8)</tspan>
</text>
<line x1="509" y1="204" x2="799" y2="204"
 style="stroke-width:1;stroke:Black;"/>
<text style="font-family:Arial;font-size:12px;kerning:0;word-spacing:-1px;fill:Black;">
<tspan x="509" y="216">rdf:type (8) [*]  -&gt;  owl:Class</tspan>
<tspan x="509" y="231">rdfs:comment (8) [*] </tspan>
<tspan x="509" y="246">rdfs:label (8) [*] </tspan>
</text>
<text style="font-family:Arial;font-size:11px;kerning:0;word-spacing:-1px;fill:Black;font-weight:bold;">
<tspan x="509" y="260">sd:Feature (5)</tspan>
<tspan x="509" y="275">sd:Language (3)</tspan>
</text>
</g>
<g id="2002721518"><polygon points="1635,184 1864,184 1864,397 1635,397 "
style="fill:#F4D03F; stroke-width:1;stroke:Black;"/>
<text style="font-family:Arial;font-size:12px;kerning:0;word-spacing:-1px;fill:Black;font-weight:bold;">
<tspan x="1690" y="199">skos:Concept (3662)</tspan>
</text>
<line x1="1639" y1="202" x2="1862" y2="202"
 style="stroke-width:1;stroke:Black;"/>
<text style="font-family:Arial;font-size:12px;kerning:0;word-spacing:-1px;fill:Black;">
<tspan x="1639" y="214">rdf:type (2.0e4) [*]  -&gt;  owl:Class</tspan>
<tspan x="1639" y="229">skos:notation (6476) [1] </tspan>
<tspan x="1639" y="244">skos:note (2934) [*] </tspan>
<tspan x="1639" y="259">skos:prefLabel (6476) [1] </tspan>
<tspan x="1639" y="274">&lt;&gt; skos:broader  </tspan>
<tspan x="1639" y="289">&lt;&gt; skos:narrower  </tspan>
</text>
</g>
<g id="2002721529"><polygon points="1563,502 1859,502 1859,592 1563,592 "
style="fill:#F4D03F; stroke-width:1;stroke:Black;"/>
<text style="font-family:Arial;font-size:12px;kerning:0;word-spacing:-1px;fill:Black;font-weight:bold;">
<tspan x="1612" y="517">entice-core:EducationalEpisode (6)</tspan>
</text>
<line x1="1567" y1="520" x2="1857" y2="520"
 style="stroke-width:1;stroke:Black;"/>
<text style="font-family:Arial;font-size:12px;kerning:0;word-spacing:-1px;fill:Black;">
<tspan x="1567" y="532">rdf:type (6) [*]  -&gt;  owl:Class</tspan>
<tspan x="1567" y="547">rdfs:label (6) [*] </tspan>
</text>
</g>
<g id="2002721540"><polygon points="486,727 782,727 782,865 486,865 "
style="fill:#F4D03F; stroke-width:1;stroke:Black;"/>
<polygon points="483,730 780,730 780,868 483,868 "
style="fill:#F4D03F; stroke-width:1;stroke:Black;"/>
<text style="font-family:Arial;font-size:12px;kerning:0;word-spacing:-1px;fill:Black;font-weight:bold;">
<tspan x="519" y="745">owl:AnnotationProperty et al. G102 (35)</tspan>
</text>
<line x1="487" y1="748" x2="778" y2="748"
 style="stroke-width:1;stroke:Black;"/>
<text style="font-family:Arial;font-size:12px;kerning:0;word-spacing:-1px;fill:Black;">
<tspan x="487" y="760">rdf:type (85) [*]  -&gt;  owl:Class</tspan>
<tspan x="487" y="775">rdfs:comment (29) [*] </tspan>
<tspan x="487" y="790">rdfs:label (48) [*] </tspan>
<tspan x="487" y="805">skos:example (1) [1] </tspan>
</text>
<text style="font-family:Arial;font-size:11px;kerning:0;word-spacing:-1px;fill:Black;font-weight:bold;">
<tspan x="487" y="819">owl:AnnotationProperty (20)</tspan>
<tspan x="487" y="834">owl:DatatypeProperty (5)</tspan>
<tspan x="487" y="849">owl:OntologyProperty (9)</tspan>
<tspan x="487" y="864">rdf:List (1)</tspan>
</text>
</g>
<g id="2002721551"><polygon points="505,292 801,292 801,371 505,371 "
style="fill:#F4D03F; stroke-width:1;stroke:Black;"/>
<text style="font-family:Arial;font-size:12px;kerning:0;word-spacing:-1px;fill:Black;font-weight:bold;">
<tspan x="587" y="307">owl:ObjectProperty (28)</tspan>
</text>
<line x1="509" y1="310" x2="799" y2="310"
 style="stroke-width:1;stroke:Black;"/>
<text style="font-family:Arial;font-size:12px;kerning:0;word-spacing:-1px;fill:Black;">
<tspan x="509" y="322">rdf:type (55) [*]  -&gt;  owl:Class</tspan>
<tspan x="509" y="337">rdfs:comment (17) [*] </tspan>
<tspan x="509" y="352">rdfs:label (32) [*] </tspan>
<tspan x="509" y="367">&lt;&gt; owl:inverseOf  DR</tspan>
</text>
</g>
<g id="2002721562"><polygon points="1152,234 1380,234 1380,319 1152,319 "
style="fill:#F4D03F; stroke-width:1;stroke:Black;"/>
<text style="font-family:Arial;font-size:12px;kerning:0;word-spacing:-1px;fill:Black;font-weight:bold;">
<tspan x="1194" y="249">skos:ConceptScheme (5)</tspan>
</text>
<line x1="1156" y1="252" x2="1378" y2="252"
 style="stroke-width:1;stroke:Black;"/>
<text style="font-family:Arial;font-size:12px;kerning:0;word-spacing:-1px;fill:Black;">
<tspan x="1156" y="264">rdf:type (11) [*]  -&gt;  owl:Class</tspan>
<tspan x="1156" y="279">rdfs:label (21) [*] </tspan>
</text>
</g>
<g id="2002721573"><polygon points="290,292 463,292 463,337 290,337 "
style="fill:#F4D03F; stroke-width:1;stroke:Black;"/>
<text style="font-family:Arial;font-size:12px;kerning:0;word-spacing:-1px;fill:Black;font-weight:bold;">
<tspan x="302" y="307">owl:FunctionalProperty (1)</tspan>
</text>
</g>
<g id="2002721584"><polygon points="813,740 1063,740 1063,864 813,864 "
style="fill:#F4D03F; stroke-width:1;stroke:Black;"/>
<text style="font-family:Arial;font-size:12px;kerning:0;word-spacing:-1px;fill:Black;font-weight:bold;">
<tspan x="889" y="755">rdf:Property (128)</tspan>
</text>
<line x1="817" y1="758" x2="1061" y2="758"
 style="stroke-width:1;stroke:Black;"/>
<text style="font-family:Arial;font-size:12px;kerning:0;word-spacing:-1px;fill:Black;">
<tspan x="817" y="770">rdf:type (219) [*]  -&gt;  owl:Class</tspan>
<tspan x="817" y="785">rdfs:comment (113) [*] </tspan>
<tspan x="817" y="800">rdfs:label (169) [*] </tspan>
<tspan x="817" y="815">rdfs:seeAlso (2) [*]  -&gt; IRI</tspan>
<tspan x="817" y="830">skos:definition (28) [*] </tspan>
<tspan x="817" y="845">skos:scopeNote (8) [1] </tspan>
<tspan x="817" y="860">&lt;&gt; rdfs:subPropertyOf  DR</tspan>
</text>
</g>
<g id="2002721595"><polygon points="1045,415 1342,415 1342,613 1045,613 "
style="fill:#F4D03F; stroke-width:1;stroke:Black;"/>
<text style="font-family:Arial;font-size:12px;kerning:0;word-spacing:-1px;fill:Black;font-weight:bold;">
<tspan x="1104" y="430">entice-core:MedicalTerm (7763)</tspan>
</text>
<line x1="1049" y1="433" x2="1340" y2="433"
 style="stroke-width:1;stroke:Black;"/>
<text style="font-family:Arial;font-size:12px;kerning:0;word-spacing:-1px;fill:Black;">
<tspan x="1049" y="445">foaf:homepage (1.3e4) [1] D -&gt; IRI</tspan>
<tspan x="1049" y="460">owl:sameAs (704) [1] D -&gt; IRI</tspan>
<tspan x="1049" y="475">rdf:type (4.2e4) [*]  -&gt;  owl:Class</tspan>
<tspan x="1049" y="490">skos:definition (5920) [*] </tspan>
<tspan x="1049" y="505">skos:notation (1.3e4) [1] </tspan>
<tspan x="1049" y="520">skos:note (5936) [*] </tspan>
<tspan x="1049" y="535">skos:prefLabel (1.3e4) [1] </tspan>
<tspan x="1049" y="550">&lt;&gt; skos:broader  </tspan>
<tspan x="1049" y="565">&lt;&gt; skos:narrower  </tspan>
</text>
</g>
<g id="2002721606"><polygon points="824,429 989,429 989,473 824,473 "
style="fill:#F4D03F; stroke-width:1;stroke:Black;"/>
<text style="font-family:Arial;font-size:12px;kerning:0;word-spacing:-1px;fill:Black;font-weight:bold;">
<tspan x="835" y="444">owl:TransitiveProperty (3)</tspan>
</text>
</g>
<g id="2002721617"><polygon points="193,437 380,437 380,516 193,516 "
style="fill:#F4D03F; stroke-width:1;stroke:Black;"/>
<text style="font-family:Arial;font-size:12px;kerning:0;word-spacing:-1px;fill:Black;font-weight:bold;">
<tspan x="239" y="452">rdfs:Datatype (5)</tspan>
</text>
<line x1="197" y1="454" x2="378" y2="454"
 style="stroke-width:1;stroke:Black;"/>
<text style="font-family:Arial;font-size:12px;kerning:0;word-spacing:-1px;fill:Black;">
<tspan x="197" y="466">rdf:type (5) [*]  -&gt;  owl:Class</tspan>
<tspan x="197" y="481">rdfs:comment (5) [*] </tspan>
<tspan x="197" y="496">rdfs:label (5) [*] </tspan>
<tspan x="197" y="511">rdfs:seeAlso (4) [*]  -&gt; IRI</tspan>
</text>
</g>
<g id="2002721628"><polygon points="106,80 462,80 462,267 106,267 "
style="fill:White; stroke-width:1;stroke:Black;"/>
<text style="font-family:Arial;font-size:12px;kerning:0;word-spacing:-1px;fill:Black;">
<tspan x="110" y="94">PREFIX virtrdf: &lt;http://www.openlinksw.com/schemas/virtrdf#&gt;</tspan>
<tspan x="110" y="109">PREFIX owl: &lt;http://www.w3.org/2002/07/owl#&gt;</tspan>
<tspan x="110" y="124">PREFIX skos: &lt;http://www.w3.org/2004/02/skos/core#&gt;</tspan>
<tspan x="110" y="139">PREFIX rdfs: &lt;http://www.w3.org/2000/01/rdf-schema#&gt;</tspan>
<tspan x="110" y="154">PREFIX entice-core: &lt;http://data.entice.eu/ontology/entice-core/&gt;</tspan>
<tspan x="110" y="169">PREFIX sd: &lt;http://www.w3.org/ns/sparql-service-description#&gt;</tspan>
<tspan x="110" y="184">PREFIX dct: &lt;http://purl.org/dc/terms/&gt;</tspan>
<tspan x="110" y="199">PREFIX rdf: &lt;http://www.w3.org/1999/02/22-rdf-syntax-ns#&gt;</tspan>
<tspan x="110" y="214">PREFIX dc: &lt;http://purl.org/dc/elements/1.1/&gt;</tspan>
<tspan x="110" y="229">PREFIX vann: &lt;http://purl.org/vocab/vann/&gt;</tspan>
<tspan x="110" y="244">PREFIX foaf: &lt;http://xmlns.com/foaf/0.1/&gt;</tspan>
<tspan x="110" y="259">PREFIX data-view: &lt;http://www.w3.org/2003/g/data-view#&gt;</tspan>
</text>
</g>
<g id="2002797623"><polygon points="839,10 1175,10 1175,64 839,64 "
style="fill:none; stroke-width:1;stroke:Black;"/>
<text style="font-family:Arial;font-size:18px;kerning:0;word-spacing:-1px;fill:Black;font-weight:bold;">
<tspan x="960" y="30">Entice Data</tspan>
<tspan x="894" y="52">https://data.entice.eu/sparql</tspan>
</text>
</g>
<g id="2002721302"><path d="M287,516 L287,565 "
style="fill:none;stroke-width:1;stroke:Black;"/>
<line x1="284" y1="559" x2="287" y2="565"
 style="stroke-width:1;stroke:Black;"/>
<line x1="289" y1="559" x2="287" y2="565"
 style="stroke-width:1;stroke:Black;"/>
<text style="font-family:Arial;font-size:12px;kerning:0;word-spacing:-1px;fill:Black;">
<tspan x="289" y="531">rdfs:isDefinedBy  </tspan>
</text>
</g>
<g id="2002721307"><path d="M483,799 L380,799 "
style="fill:none;stroke-width:1;stroke:Black;"/>
<line x1="386" y1="796" x2="380" y2="799"
 style="stroke-width:1;stroke:Black;"/>
<line x1="386" y1="802" x2="380" y2="799"
 style="stroke-width:1;stroke:Black;"/>
<text style="font-family:Arial;font-size:12px;kerning:0;word-spacing:-1px;fill:Black;">
<tspan x="384" y="812">rdfs:isDefinedBy  </tspan>
</text>
</g>
<g id="2002721312"><path d="M1342,447 L1550,447 "
style="fill:none;stroke-width:1;stroke:Black;"/>
<line x1="1544" y1="444" x2="1550" y2="447"
 style="stroke-width:1;stroke:Black;"/>
<line x1="1544" y1="450" x2="1550" y2="447"
 style="stroke-width:1;stroke:Black;"/>
<text style="font-family:Arial;font-size:12px;kerning:0;word-spacing:-1px;fill:Black;">
<tspan x="1346" y="430">entice-core:vrModality  DR</tspan>
<tspan x="1346" y="445">entice-core:virtualEnvironment  DR</tspan>
</text>
</g>
<g id="2002721322"><path d="M1336,415 L1336,383 1338,379 1342,377 1635,377 "
style="fill:none;stroke-width:1;stroke:Black;"/>
<line x1="1629" y1="374" x2="1635" y2="377"
 style="stroke-width:1;stroke:Black;"/>
<line x1="1629" y1="380" x2="1635" y2="377"
 style="stroke-width:1;stroke:Black;"/>
<text style="font-family:Arial;font-size:12px;kerning:0;word-spacing:-1px;fill:Black;">
<tspan x="1250" y="396">skos:narrower  </tspan>
<tspan x="1250" y="411">skos:broader  </tspan>
</text>
</g>
<g id="2002721327"><path d="M914,864 L914,886 912,890 908,892 380,892 "
style="fill:none;stroke-width:1;stroke:Black;"/>
<line x1="386" y1="889" x2="380" y2="892"
 style="stroke-width:1;stroke:Black;"/>
<line x1="386" y1="895" x2="380" y2="892"
 style="stroke-width:1;stroke:Black;"/>
<text style="font-family:Arial;font-size:12px;kerning:0;word-spacing:-1px;fill:Black;">
<tspan x="916" y="878">rdfs:isDefinedBy  </tspan>
</text>
</g>
<g id="2002721332"><path d="M642,730 L642,613 "
style="fill:none;stroke-width:1;stroke:Black;"/>
<line x1="639" y1="618" x2="642" y2="613"
 style="stroke-width:1;stroke:Black;"/>
<line x1="645" y1="618" x2="642" y2="613"
 style="stroke-width:1;stroke:Black;"/>
<text style="font-family:Arial;font-size:12px;kerning:0;word-spacing:-1px;fill:Black;">
<tspan x="569" y="712">rdfs:domain  </tspan>
<tspan x="569" y="727">rdfs:range  </tspan>
</text>
</g>
<g id="2002721337"><path d="M1196,319 L1196,415 "
style="fill:none;stroke-width:1;stroke:Black;"/>
<line x1="1194" y1="409" x2="1196" y2="415"
 style="stroke-width:1;stroke:Black;"/>
<line x1="1199" y1="409" x2="1196" y2="415"
 style="stroke-width:1;stroke:Black;"/>
<text style="font-family:Arial;font-size:12px;kerning:0;word-spacing:-1px;fill:Black;">
<tspan x="1198" y="334">skos:hasTopConcept  D</tspan>
</text>
</g>
<g id="2002721352"><path d="M653,371 L653,405 "
style="fill:none;stroke-width:1;stroke:Black;"/>
<line x1="650" y1="399" x2="653" y2="405"
 style="stroke-width:1;stroke:Black;"/>
<line x1="656" y1="399" x2="653" y2="405"
 style="stroke-width:1;stroke:Black;"/>
<text style="font-family:Arial;font-size:12px;kerning:0;word-spacing:-1px;fill:Black;">
<tspan x="655" y="386">rdfs:domain  </tspan>
<tspan x="655" y="401">rdfs:range  </tspan>
</text>
</g>
<g id="2002721362"><path d="M380,476 L505,476 "
style="fill:none;stroke-width:1;stroke:Black;"/>
<line x1="499" y1="473" x2="505" y2="476"
 style="stroke-width:1;stroke:Black;"/>
<line x1="499" y1="479" x2="505" y2="476"
 style="stroke-width:1;stroke:Black;"/>
<text style="font-family:Arial;font-size:12px;kerning:0;word-spacing:-1px;fill:Black;">
<tspan x="384" y="474">rdfs:subClassOf  </tspan>
</text>
</g>
<g id="2002721367"><path d="M505,582 L380,582 "
style="fill:none;stroke-width:1;stroke:Black;"/>
<line x1="386" y1="579" x2="380" y2="582"
 style="stroke-width:1;stroke:Black;"/>
<line x1="386" y1="585" x2="380" y2="582"
 style="stroke-width:1;stroke:Black;"/>
<text style="font-family:Arial;font-size:12px;kerning:0;word-spacing:-1px;fill:Black;">
<tspan x="406" y="595">rdfs:isDefinedBy  </tspan>
</text>
</g>
<g id="2002721372"><path d="M653,152 L653,186 "
style="fill:none;stroke-width:1;stroke:Black;"/>
<line x1="650" y1="180" x2="653" y2="186"
 style="stroke-width:1;stroke:Black;"/>
<line x1="656" y1="180" x2="653" y2="186"
 style="stroke-width:1;stroke:Black;"/>
<text style="font-family:Arial;font-size:12px;kerning:0;word-spacing:-1px;fill:Black;">
<tspan x="655" y="167">sd:feature  DR</tspan>
<tspan x="655" y="182">sd:supportedLanguage  DR</tspan>
</text>
</g>
<g id="2002721377"><path d="M1828,502 L1828,397 "
style="fill:none;stroke-width:1;stroke:Black;"/>
<line x1="1825" y1="403" x2="1828" y2="397"
 style="stroke-width:1;stroke:Black;"/>
<line x1="1831" y1="403" x2="1828" y2="397"
 style="stroke-width:1;stroke:Black;"/>
<text style="font-family:Arial;font-size:12px;kerning:0;word-spacing:-1px;fill:Black;">
<tspan x="1620" y="498">entice-core:hasLearningObjective  DR</tspan>
</text>
</g>
<g id="2002721382"><path d="M1635,342 L1246,342 1242,344 1240,348 1240,415 "
style="fill:none;stroke-width:1;stroke:Black;"/>
<line x1="1237" y1="409" x2="1240" y2="415"
 style="stroke-width:1;stroke:Black;"/>
<line x1="1243" y1="409" x2="1240" y2="415"
 style="stroke-width:1;stroke:Black;"/>
<text style="font-family:Arial;font-size:12px;kerning:0;word-spacing:-1px;fill:Black;">
<tspan x="1547" y="355">skos:narrower  </tspan>
<tspan x="1547" y="370">skos:broader  </tspan>
</text>
</g>
<g id="2002721387"><path d="M1837,184 L1837,157 1839,153 1843,151 1875,151 1879,153 1881,157 1881,558 1879,562 1875,564 1859,564 "
style="fill:none;stroke-width:1;stroke:Black;"/>
<line x1="1865" y1="561" x2="1859" y2="564"
 style="stroke-width:1;stroke:Black;"/>
<line x1="1865" y1="567" x2="1859" y2="564"
 style="stroke-width:1;stroke:Black;"/>
<text style="font-family:Arial;font-size:12px;kerning:0;word-spacing:-1px;fill:Black;">
<tspan x="1642" y="180">entice-core:learningObjectiveOf  DR</tspan>
</text>
</g>
<g id="2002721392"><path d="M887,740 L887,594 885,590 881,588 801,588 "
style="fill:none;stroke-width:1;stroke:Black;"/>
<line x1="807" y1="585" x2="801" y2="588"
 style="stroke-width:1;stroke:Black;"/>
<line x1="807" y1="591" x2="801" y2="588"
 style="stroke-width:1;stroke:Black;"/>
<text style="font-family:Arial;font-size:12px;kerning:0;word-spacing:-1px;fill:Black;">
<tspan x="814" y="721">rdfs:domain  </tspan>
<tspan x="814" y="736">rdfs:range  </tspan>
</text>
</g>
<g id="2002721397"><path d="M1342,579 L1563,579 "
style="fill:none;stroke-width:1;stroke:Black;"/>
<line x1="1557" y1="576" x2="1563" y2="579"
 style="stroke-width:1;stroke:Black;"/>
<line x1="1557" y1="582" x2="1563" y2="579"
 style="stroke-width:1;stroke:Black;"/>
<text style="font-family:Arial;font-size:12px;kerning:0;word-spacing:-1px;fill:Black;">
<tspan x="1346" y="577">entice-core:inEpisode  DR</tspan>
</text>
</g>
<g id="2002721402"><path d="M1171,415 L1171,319 "
style="fill:none;stroke-width:1;stroke:Black;"/>
<line x1="1168" y1="325" x2="1171" y2="319"
 style="stroke-width:1;stroke:Black;"/>
<line x1="1174" y1="325" x2="1171" y2="319"
 style="stroke-width:1;stroke:Black;"/>
<text style="font-family:Arial;font-size:12px;kerning:0;word-spacing:-1px;fill:Black;">
<tspan x="1050" y="396">skos:inScheme  </tspan>
<tspan x="1050" y="411">skos:topConceptOf  R</tspan>
</text>
</g>
<g id="2002721407"><path d="M1635,252 L1380,252 "
style="fill:none;stroke-width:1;stroke:Black;"/>
<line x1="1386" y1="249" x2="1380" y2="252"
 style="stroke-width:1;stroke:Black;"/>
<line x1="1386" y1="255" x2="1380" y2="252"
 style="stroke-width:1;stroke:Black;"/>
<text style="font-family:Arial;font-size:12px;kerning:0;word-spacing:-1px;fill:Black;">
<tspan x="1513" y="265">skos:inScheme  </tspan>
<tspan x="1513" y="280">skos:topConceptOf  R</tspan>
</text>
</g>
<g id="2002721412"><path d="M505,355 L184,355 180,357 178,361 178,565 "
style="fill:none;stroke-width:1;stroke:Black;"/>
<line x1="175" y1="559" x2="178" y2="565"
 style="stroke-width:1;stroke:Black;"/>
<line x1="181" y1="559" x2="178" y2="565"
 style="stroke-width:1;stroke:Black;"/>
<text style="font-family:Arial;font-size:12px;kerning:0;word-spacing:-1px;fill:Black;">
<tspan x="406" y="368">rdfs:isDefinedBy  </tspan>
</text>
</g>
<g id="2002721417"><path d="M1563,533 L1342,533 "
style="fill:none;stroke-width:1;stroke:Black;"/>
<line x1="1348" y1="530" x2="1342" y2="533"
 style="stroke-width:1;stroke:Black;"/>
<line x1="1348" y1="535" x2="1342" y2="533"
 style="stroke-width:1;stroke:Black;"/>
<text style="font-family:Arial;font-size:12px;kerning:0;word-spacing:-1px;fill:Black;">
<tspan x="1356" y="546">entice-core:containsMedicalTerm  DR</tspan>
</text>
</g>
<g id="2002721422"><path d="M1380,298 L1635,298 "
style="fill:none;stroke-width:1;stroke:Black;"/>
<line x1="1629" y1="295" x2="1635" y2="298"
 style="stroke-width:1;stroke:Black;"/>
<line x1="1629" y1="301" x2="1635" y2="298"
 style="stroke-width:1;stroke:Black;"/>
<text style="font-family:Arial;font-size:12px;kerning:0;word-spacing:-1px;fill:Black;">
<tspan x="1384" y="297">skos:hasTopConcept  D</tspan>
</text>
</g>
<g id="2002721427"><path d="M801,316 L858,316 "
style="fill:none;stroke-width:2;stroke:Fuchsia;"/>
<polygon points="811,321 801,316 811,311 "
style="fill:Silver;stroke-width:1;stroke:Black;"/>
<text style="font-family:Arial;font-size:12px;kerning:0;word-spacing:-1px;fill:Black;">
<tspan x="805" y="314"> </tspan>
</text>
</g>
<g id="2002721429"><path d="M505,314 L463,314 "
style="fill:none;stroke-width:2;stroke:Fuchsia;"/>
<polygon points="495,319 505,314 495,309 "
style="fill:Silver;stroke-width:1;stroke:Black;"/>
<text style="font-family:Arial;font-size:12px;kerning:0;word-spacing:-1px;fill:Black;">
<tspan x="491" y="327"> </tspan>
</text>
</g>
<g id="2002721431"><path d="M801,362 L884,362 888,364 890,368 890,429 "
style="fill:none;stroke-width:2;stroke:Fuchsia;"/>
<polygon points="811,367 801,362 811,357 "
style="fill:Silver;stroke-width:1;stroke:Black;"/>
<text style="font-family:Arial;font-size:12px;kerning:0;word-spacing:-1px;fill:Black;">
<tspan x="805" y="360"> </tspan>
</text>
</g>
<g id="2002721433"><path d="M1712,397 L1712,420 "
style="fill:none;stroke-width:2;stroke:Fuchsia;"/>
<polygon points="1717,407 1712,397 1707,407 "
style="fill:Silver;stroke-width:1;stroke:Black;"/>
<text style="font-family:Arial;font-size:12px;kerning:0;word-spacing:-1px;fill:Black;">
<tspan x="1714" y="412"> </tspan>
</text>
</g>
<g id="2002721435"><path d="M907,740 L907,473 "
style="fill:none;stroke-width:2;stroke:Fuchsia;"/>
<polygon points="912,730 907,740 902,730 "
style="fill:Silver;stroke-width:1;stroke:Black;"/>
<text style="font-family:Arial;font-size:12px;kerning:0;word-spacing:-1px;fill:Black;">
<tspan x="895" y="736"> </tspan>
</text>
</g>
<g id="2002721437"><path d="M1017,740 L1017,339 "
style="fill:none;stroke-width:2;stroke:Fuchsia;"/>
<polygon points="1022,730 1017,740 1012,730 "
style="fill:Silver;stroke-width:1;stroke:Black;"/>
<text style="font-family:Arial;font-size:12px;kerning:0;word-spacing:-1px;fill:Black;">
<tspan x="1005" y="736"> </tspan>
</text>
</g>
<g id="2002721439"><path d="M1063,800 L1130,800 "
style="fill:none;stroke-width:2;stroke:Fuchsia;"/>
<polygon points="1073,805 1063,800 1073,795 "
style="fill:Silver;stroke-width:1;stroke:Black;"/>
<text style="font-family:Arial;font-size:12px;kerning:0;word-spacing:-1px;fill:Black;">
<tspan x="1067" y="798"> </tspan>
</text>
</g>
</svg>
