<?xml version="1.0" encoding="UTF-8" standalone="no"?>
<!DOCTYPE svg PUBLIC "-//W3C//DTD SVG 1.1//EN"
"http://www.w3.org/Graphics/SVG/1.1/DTD/svg11.dtd">
<svg version="1.1" xmlns="http://www.w3.org/2000/svg"
xmlns:xlink="http://www.w3.org/1999/xlink" xml:space="preserve"
 width="790" height="1137" viewBox="0 0 790 1137">
 onmousemove="movetip(evt)" onmouseup="endmove()">
<rect x="0" y="0" width="100%" height="100%" style="fill:White;"/>
<script type="application/ecmascript"> <![CDATA[
var dragtipid = null; var dragcase = false; function init(evt){
if (window.svgDocument==null) svgDocument = evt.target.ownerDocument;
}
function movetip(evt){if (dragtipid!=null){ dragcase = true;
var tip=svgDocument.getElementById(dragtipid);
tip.setAttributeNS(null,"x",evt.clientX-2);
tip.setAttributeNS(null,"y",evt.clientY-2);
}}
function endmove(){dragtipid = null;}
function startmove(evt,id){dragtipid = id; dragcase = false;
var tip=svgDocument.getElementById(dragtipid);
tip.setAttributeNS(null,"x",evt.clientX-2);
tip.setAttributeNS(null,"y",evt.clientY-2);
}
function Showtip(evt,id){ dragtipid = null;
var tip=svgDocument.getElementById(id);
var vis=tip.getAttributeNS(null,"visibility");
if (vis=="hidden"){
tip.setAttributeNS(null,"x",evt.clientX-2);
tip.setAttributeNS(null,"y",evt.clientY-2);
tip.setAttributeNS(null,"visibility","visible");
}}
function Hidetip(id){ dragtipid = null; if (dragcase==false){
var tip=svgDocument.getElementById(id);
tip.setAttributeNS(null,"visibility","hidden");
}}
]]></script>
<defs><linearGradient id="activ1" x1="0%" y1="0%" x2="100%" y2="0%">
<stop offset="0%" style="stop-color:#FFFF00;stop-opacity:1"/>
<stop offset="100%" style="stop-color:#FFFFF0;stop-opacity:1"/>
</linearGradient></defs>
<g id="2002722218"><polygon points="527,151 779,151 779,289 527,289 "
style="fill:#F4D03F; stroke-width:1;stroke:Black;"/>
<text style="font-family:Arial;font-size:12px;kerning:0;word-spacing:-1px;fill:Black;font-weight:bold;">
<tspan x="594" y="166">skos:Concept (4444)</tspan>
</text>
<line x1="531" y1="169" x2="777" y2="169"
 style="stroke-width:1;stroke:Black;"/>
<text style="font-family:Arial;font-size:12px;kerning:0;word-spacing:-1px;fill:Black;">
<tspan x="531" y="181">rdf:type (4444) [1]  -&gt; IRI</tspan>
<tspan x="531" y="196">skos:altLabel (6737) [*] </tspan>
<tspan x="531" y="211">skos:note (2800) [*] </tspan>
<tspan x="531" y="226">skos:prefLabel (4444) [*] </tspan>
<tspan x="531" y="241">&lt;&gt; skos:broader  </tspan>
<tspan x="531" y="256">&lt;&gt; skos:closeMatch  </tspan>
<tspan x="531" y="271">&lt;&gt; skos:narrower  </tspan>
<tspan x="531" y="286">&lt;&gt; skos:related  </tspan>
</text>
</g>
<g id="2002722229"><polygon points="90,528 369,528 369,607 90,607 "
style="fill:#F4D03F; stroke-width:1;stroke:Black;"/>
<text style="font-family:Arial;font-size:12px;kerning:0;word-spacing:-1px;fill:Black;font-weight:bold;">
<tspan x="189" y="543">cc:License (4)</tspan>
</text>
<line x1="94" y1="545" x2="367" y2="545"
 style="stroke-width:1;stroke:Black;"/>
<text style="font-family:Arial;font-size:12px;kerning:0;word-spacing:-1px;fill:Black;">
<tspan x="94" y="557">rdf:type (4) [1]  -&gt; IRI</tspan>
<tspan x="94" y="572">vocab:oaiSourceIdentifier (1.1e5) [*] </tspan>
<tspan x="94" y="587">vocab:oaiSourceRepository (4) [1]  -&gt; IRI</tspan>
<tspan x="94" y="602">&lt;&gt; odrl:inheritFrom  </tspan>
</text>
</g>
<g id="2002722240"><polygon points="90,371 366,371 366,509 90,509 "
style="fill:#F4D03F; stroke-width:1;stroke:Black;"/>
<text style="font-family:Arial;font-size:12px;kerning:0;word-spacing:-1px;fill:Black;font-weight:bold;">
<tspan x="162" y="385">ore:Aggregation (5.5e5)</tspan>
</text>
<line x1="94" y1="388" x2="364" y2="388"
 style="stroke-width:1;stroke:Black;"/>
<text style="font-family:Arial;font-size:12px;kerning:0;word-spacing:-1px;fill:Black;">
<tspan x="94" y="400">edm:dataProvider (5.5e5) [1] </tspan>
<tspan x="94" y="415">edm:isShownAt (5.5e5) [*]  -&gt; IRI</tspan>
<tspan x="94" y="430">edm:isShownBy (3.4e5) [*]  -&gt; IRI</tspan>
<tspan x="94" y="445">edm:object (3.4e5) [*]  -&gt; IRI</tspan>
<tspan x="94" y="460">edm:provider (5.5e5) [1] </tspan>
<tspan x="94" y="475">rdf:type (5.5e5) [1]  -&gt; IRI</tspan>
<tspan x="94" y="490">vocab:oaiSourceIdentifier (5.5e5) [*] </tspan>
<tspan x="94" y="505">vocab:oaiSourceRepository (5.5e5) [1]  -&gt; IRI</tspan>
</text>
</g>
<g id="2002722251"><polygon points="527,945 781,945 781,1127 527,1127 "
style="fill:#F4D03F; stroke-width:1;stroke:Black;"/>
<text style="font-family:Arial;font-size:12px;kerning:0;word-spacing:-1px;fill:Black;font-weight:bold;">
<tspan x="604" y="960">edm:Place (3975)</tspan>
</text>
<line x1="531" y1="962" x2="779" y2="962"
 style="stroke-width:1;stroke:Black;"/>
<text style="font-family:Arial;font-size:12px;kerning:0;word-spacing:-1px;fill:Black;">
<tspan x="531" y="974">rdf:type (3975) [1]  -&gt; IRI</tspan>
<tspan x="531" y="989">skos:altLabel (521) [*] </tspan>
<tspan x="531" y="1004">skos:note (2269) [*] </tspan>
<tspan x="531" y="1019">skos:prefLabel (4823) [*] </tspan>
<tspan x="531" y="1034">vocab:oaiSourceIdentifier (1.2e5) [*] </tspan>
<tspan x="531" y="1049">vocab:oaiSourceRepository (3975) [1]  -&gt; IRI</tspan>
<tspan x="531" y="1064">wgs84_pos:lat (817) [*] </tspan>
<tspan x="531" y="1079">wgs84_pos:long (842) [*] </tspan>
<tspan x="531" y="1094">&lt;&gt; dct:hasPart  </tspan>
<tspan x="531" y="1109">&lt;&gt; dct:isPartOf  </tspan>
<tspan x="531" y="1124">&lt;&gt; owl:sameAs  </tspan>
</text>
</g>
<g id="2002722262"><polygon points="90,152 469,152 469,345 90,345 "
style="fill:White; stroke-width:1;stroke:Black;"/>
<text style="font-family:Arial;font-size:12px;kerning:0;word-spacing:-1px;fill:Black;">
<tspan x="94" y="166">PREFIX edm: &lt;http://www.europeana.eu/schemas/edm/&gt;</tspan>
<tspan x="94" y="181">PREFIX dct: &lt;http://purl.org/dc/terms/&gt;</tspan>
<tspan x="94" y="196">PREFIX dc: &lt;http://purl.org/dc/elements/1.1/&gt;</tspan>
<tspan x="94" y="211">PREFIX rdvocab: &lt;http://rdvocab.info/ElementsGr2/&gt;</tspan>
<tspan x="94" y="226">PREFIX skos: &lt;http://www.w3.org/2004/02/skos/core#&gt;</tspan>
<tspan x="94" y="241">PREFIX vocab: &lt;http://brujula.serdoc.es/vocab#&gt;</tspan>
<tspan x="94" y="256">PREFIX wgs84_pos: &lt;http://www.w3.org/2003/01/geo/wgs84_pos#&gt;</tspan>
<tspan x="94" y="271">PREFIX ore: &lt;http://www.openarchives.org/ore/terms/&gt;</tspan>
<tspan x="94" y="286">PREFIX cc: &lt;http://creativecommons.org/ns#&gt;</tspan>
<tspan x="94" y="301">PREFIX rdf: &lt;http://www.w3.org/1999/02/22-rdf-syntax-ns#&gt;</tspan>
<tspan x="94" y="316">PREFIX owl: &lt;http://www.w3.org/2002/07/owl#&gt;</tspan>
<tspan x="94" y="331">PREFIX odrl: &lt;http://www.w3.org/ns/odrl/2/&gt;</tspan>
</text>
</g>
<g id="2002722273"><polygon points="527,331 781,331 781,873 527,873 "
style="fill:#F4D03F; stroke-width:1;stroke:Black;"/>
<text style="font-family:Arial;font-size:12px;kerning:0;word-spacing:-1px;fill:Black;font-weight:bold;">
<tspan x="581" y="346">edm:ProvidedCHO (5.5e5)</tspan>
</text>
<line x1="531" y1="349" x2="779" y2="349"
 style="stroke-width:1;stroke:Black;"/>
<text style="font-family:Arial;font-size:12px;kerning:0;word-spacing:-1px;fill:Black;">
<tspan x="531" y="361">dc:date (5.5e5) [*] </tspan>
<tspan x="531" y="376">dc:description (8.4e5) [*] </tspan>
<tspan x="531" y="391">dc:format (5.5e5) [*] </tspan>
<tspan x="531" y="406">dc:identifier (9.1e5) [*] </tspan>
<tspan x="531" y="421">dc:language (5.6e5) [*] </tspan>
<tspan x="531" y="436">dc:relation (246) [*] </tspan>
<tspan x="531" y="451">dc:rights (9.4e5) [*] </tspan>
<tspan x="531" y="466">dc:source (10) [*] </tspan>
<tspan x="531" y="481">dc:title (9.1e5) [*] </tspan>
<tspan x="531" y="496">dc:type (8.5e5) [*] </tspan>
<tspan x="531" y="511">dct:alternative (3.2e4) [*] </tspan>
<tspan x="531" y="526">dct:created (510) [*] </tspan>
<tspan x="531" y="541">dct:extent (3.7e5) [*] </tspan>
<tspan x="531" y="556">dct:hasFormat (8) [*] </tspan>
<tspan x="531" y="571">dct:isReferencedBy (3.7e4) [*] </tspan>
<tspan x="531" y="586">dct:isVersionOf (13) [*] </tspan>
<tspan x="531" y="601">dct:issued (2.3e5) [*] </tspan>
<tspan x="531" y="616">dct:medium (5799) [*] </tspan>
<tspan x="531" y="631">dct:provenance (2) [1] </tspan>
<tspan x="531" y="646">dct:tableOfContents (2.5e4) [*] </tspan>
<tspan x="531" y="661">dct:temporal (4.4e4) [*] </tspan>
<tspan x="531" y="676">edm:currentLocation (3.7e5) [*] </tspan>
<tspan x="531" y="691">edm:hasType (3.7e5) [*] </tspan>
<tspan x="531" y="706">edm:type (5.5e5) [*] </tspan>
<tspan x="531" y="721">rdf:type (5.5e5) [1]  -&gt; IRI</tspan>
<tspan x="531" y="736">vocab:oaiSourceIdentifier (5.5e5) [*] </tspan>
<tspan x="531" y="751">vocab:oaiSourceRepository (5.5e5) [1]  -&gt; IRI</tspan>
<tspan x="531" y="766">&lt;&gt; dct:hasPart  </tspan>
<tspan x="531" y="781">&lt;&gt; dct:isPartOf  </tspan>
<tspan x="531" y="796">&lt;&gt; dct:isReplacedBy  </tspan>
<tspan x="531" y="811">&lt;&gt; dct:replaces  </tspan>
<tspan x="531" y="826">&lt;&gt; edm:isNextInSequence  </tspan>
<tspan x="531" y="841">&lt;&gt; edm:isRelatedTo  </tspan>
</text>
</g>
<g id="2002722284"><polygon points="90,669 386,669 386,969 90,969 "
style="fill:#F4D03F; stroke-width:1;stroke:Black;"/>
<text style="font-family:Arial;font-size:12px;kerning:0;word-spacing:-1px;fill:Black;font-weight:bold;">
<tspan x="186" y="684">edm:Agent (1.5e5)</tspan>
</text>
<line x1="94" y1="687" x2="384" y2="687"
 style="stroke-width:1;stroke:Black;"/>
<text style="font-family:Arial;font-size:12px;kerning:0;word-spacing:-1px;fill:Black;">
<tspan x="94" y="699">edm:begin (585) [*] </tspan>
<tspan x="94" y="714">edm:end (580) [*] </tspan>
<tspan x="94" y="729">rdf:type (1.5e5) [1]  -&gt; IRI</tspan>
<tspan x="94" y="744">rdvocab:biographicalInformation (683) [*] </tspan>
<tspan x="94" y="759">rdvocab:dateOfBirth (498) [*] </tspan>
<tspan x="94" y="774">rdvocab:dateOfDeath (524) [*] </tspan>
<tspan x="94" y="789">rdvocab:dateOfEstablishment (48) [1] </tspan>
<tspan x="94" y="804">rdvocab:dateOfTermination (30) [1] </tspan>
<tspan x="94" y="819">rdvocab:gender (691) [*] </tspan>
<tspan x="94" y="834">rdvocab:placeOfBirth (685) [*] </tspan>
<tspan x="94" y="849">rdvocab:placeOfDeath (597) [*] </tspan>
<tspan x="94" y="864">rdvocab:professionOrOccupation (3398) [*] </tspan>
<tspan x="94" y="879">skos:altLabel (4581) [*] </tspan>
<tspan x="94" y="894">skos:note (3710) [*] </tspan>
<tspan x="94" y="909">skos:prefLabel (1.5e5) [*] </tspan>
<tspan x="94" y="924">vocab:oaiSourceIdentifier (1.2e6) [*] </tspan>
<tspan x="94" y="939">vocab:oaiSourceRepository (1.5e5) [1]  -&gt; IRI</tspan>
<tspan x="94" y="954">&lt;&gt; edm:isRelatedTo  </tspan>
</text>
</g>
<g id="2002794049"><polygon points="163,80 654,80 654,131 163,131 "
style="fill:none; stroke-width:1;stroke:Black;"/>
<text style="font-family:Arial;font-size:18px;kerning:0;word-spacing:-1px;fill:Black;font-weight:bold;">
<tspan x="265" y="100">Digital Library of Galicia Open data</tspan>
<tspan x="231" y="122">https://datos-abertos.galiciana.gal/pt/sparql</tspan>
</text>
</g>
<g id="2002722173"><path d="M527,708 L386,708 "
style="fill:none;stroke-width:1;stroke:Black;"/>
<line x1="392" y1="705" x2="386" y2="708"
 style="stroke-width:1;stroke:Black;"/>
<line x1="392" y1="711" x2="386" y2="708"
 style="stroke-width:1;stroke:Black;"/>
<text style="font-family:Arial;font-size:12px;kerning:0;word-spacing:-1px;fill:Black;">
<tspan x="423" y="721">dc:creator  </tspan>
<tspan x="423" y="736">dc:subject  </tspan>
<tspan x="423" y="751">dct:isPartOf  </tspan>
<tspan x="423" y="766">dc:publisher  </tspan>
<tspan x="423" y="781">dc:contributor  </tspan>
<tspan x="423" y="796">edm:isRelatedTo  </tspan>
</text>
</g>
<g id="2002722178"><path d="M386,860 L527,860 "
style="fill:none;stroke-width:1;stroke:Black;"/>
<line x1="521" y1="857" x2="527" y2="860"
 style="stroke-width:1;stroke:Black;"/>
<line x1="521" y1="863" x2="527" y2="860"
 style="stroke-width:1;stroke:Black;"/>
<text style="font-family:Arial;font-size:12px;kerning:0;word-spacing:-1px;fill:Black;">
<tspan x="390" y="858">edm:isRelatedTo  </tspan>
</text>
</g>
<g id="2002722183"><path d="M235,969 L235,995 237,999 241,1001 527,1001 "
style="fill:none;stroke-width:1;stroke:Black;"/>
<line x1="521" y1="998" x2="527" y2="1001"
 style="stroke-width:1;stroke:Black;"/>
<line x1="521" y1="1004" x2="527" y2="1001"
 style="stroke-width:1;stroke:Black;"/>
<text style="font-family:Arial;font-size:12px;kerning:0;word-spacing:-1px;fill:Black;">
<tspan x="237" y="984">owl:sameAs  </tspan>
</text>
</g>
<g id="2002722188"><path d="M675,331 L675,289 "
style="fill:none;stroke-width:1;stroke:Black;"/>
<line x1="672" y1="295" x2="675" y2="289"
 style="stroke-width:1;stroke:Black;"/>
<line x1="678" y1="295" x2="675" y2="289"
 style="stroke-width:1;stroke:Black;"/>
<text style="font-family:Arial;font-size:12px;kerning:0;word-spacing:-1px;fill:Black;">
<tspan x="612" y="327">dc:subject  </tspan>
</text>
</g>
<g id="2002722193"><path d="M527,961 L386,961 "
style="fill:none;stroke-width:1;stroke:Black;"/>
<line x1="392" y1="958" x2="386" y2="961"
 style="stroke-width:1;stroke:Black;"/>
<line x1="392" y1="964" x2="386" y2="961"
 style="stroke-width:1;stroke:Black;"/>
<text style="font-family:Arial;font-size:12px;kerning:0;word-spacing:-1px;fill:Black;">
<tspan x="454" y="974">dct:isPartOf  </tspan>
</text>
</g>
<g id="2002722198"><path d="M227,509 L227,528 "
style="fill:none;stroke-width:1;stroke:Black;"/>
<line x1="224" y1="522" x2="227" y2="528"
 style="stroke-width:1;stroke:Black;"/>
<line x1="230" y1="522" x2="227" y2="528"
 style="stroke-width:1;stroke:Black;"/>
<text style="font-family:Arial;font-size:12px;kerning:0;word-spacing:-1px;fill:Black;">
<tspan x="229" y="524">edm:rights  </tspan>
</text>
</g>
<g id="2002722203"><path d="M715,945 L715,873 "
style="fill:none;stroke-width:1;stroke:Black;"/>
<line x1="712" y1="879" x2="715" y2="873"
 style="stroke-width:1;stroke:Black;"/>
<line x1="718" y1="879" x2="715" y2="873"
 style="stroke-width:1;stroke:Black;"/>
<text style="font-family:Arial;font-size:12px;kerning:0;word-spacing:-1px;fill:Black;">
<tspan x="645" y="926">dct:isPartOf  </tspan>
<tspan x="645" y="941">dct:hasPart  </tspan>
</text>
</g>
<g id="2002722208"><path d="M366,448 L527,448 "
style="fill:none;stroke-width:1;stroke:Black;"/>
<line x1="521" y1="445" x2="527" y2="448"
 style="stroke-width:1;stroke:Black;"/>
<line x1="521" y1="451" x2="527" y2="448"
 style="stroke-width:1;stroke:Black;"/>
<text style="font-family:Arial;font-size:12px;kerning:0;word-spacing:-1px;fill:Black;">
<tspan x="370" y="446">edm:aggregatedCHO  </tspan>
</text>
</g>
<g id="2002722213"><path d="M568,873 L568,945 "
style="fill:none;stroke-width:1;stroke:Black;"/>
<line x1="565" y1="939" x2="568" y2="945"
 style="stroke-width:1;stroke:Black;"/>
<line x1="571" y1="939" x2="568" y2="945"
 style="stroke-width:1;stroke:Black;"/>
<text style="font-family:Arial;font-size:12px;kerning:0;word-spacing:-1px;fill:Black;">
<tspan x="570" y="888">dc:subject  </tspan>
<tspan x="570" y="903">dct:spatial  </tspan>
<tspan x="570" y="918">dct:isPartOf  </tspan>
<tspan x="570" y="933">dct:hasPart  </tspan>
</text>
</g>
</svg>
