<?xml version="1.0" encoding="UTF-8" standalone="no"?>
<!DOCTYPE svg PUBLIC "-//W3C//DTD SVG 1.1//EN"
"http://www.w3.org/Graphics/SVG/1.1/DTD/svg11.dtd">
<svg version="1.1" xmlns="http://www.w3.org/2000/svg"
xmlns:xlink="http://www.w3.org/1999/xlink" xml:space="preserve"
 width="960" height="960" viewBox="0 0 960 960">
 onmousemove="movetip(evt)" onmouseup="endmove()">
<rect x="0" y="0" width="100%" height="100%" style="fill:White;"/>
<script type="application/ecmascript"> <![CDATA[
var dragtipid = null; var dragcase = false; function init(evt){
if (window.svgDocument==null) svgDocument = evt.target.ownerDocument;
}
function movetip(evt){if (dragtipid!=null){ dragcase = true;
var tip=svgDocument.getElementById(dragtipid);
tip.setAttributeNS(null,"x",evt.clientX-2);
tip.setAttributeNS(null,"y",evt.clientY-2);
}}
function endmove(){dragtipid = null;}
function startmove(evt,id){dragtipid = id; dragcase = false;
var tip=svgDocument.getElementById(dragtipid);
tip.setAttributeNS(null,"x",evt.clientX-2);
tip.setAttributeNS(null,"y",evt.clientY-2);
}
function Showtip(evt,id){ dragtipid = null;
var tip=svgDocument.getElementById(id);
var vis=tip.getAttributeNS(null,"visibility");
if (vis=="hidden"){
tip.setAttributeNS(null,"x",evt.clientX-2);
tip.setAttributeNS(null,"y",evt.clientY-2);
tip.setAttributeNS(null,"visibility","visible");
}}
function Hidetip(id){ dragtipid = null; if (dragcase==false){
var tip=svgDocument.getElementById(id);
tip.setAttributeNS(null,"visibility","hidden");
}}
]]></script>
<defs><linearGradient id="activ1" x1="0%" y1="0%" x2="100%" y2="0%">
<stop offset="0%" style="stop-color:#FFFF00;stop-opacity:1"/>
<stop offset="100%" style="stop-color:#FFFFF0;stop-opacity:1"/>
</linearGradient></defs>
<g id="2002679969"><polygon points="67,489 275,489 275,539 67,539 "
style="fill:#F4D03F; stroke-width:1;stroke:Black;"/>
<text style="font-family:Arial;font-size:12px;kerning:0;word-spacing:-1px;fill:Black;font-weight:bold;">
<tspan x="75" y="504">orth:HierarchicalGeneTree (9.1e5)</tspan>
</text>
<line x1="71" y1="507" x2="273" y2="507"
 style="stroke-width:1;stroke:Black;"/>
<text style="font-family:Arial;font-size:12px;kerning:0;word-spacing:-1px;fill:Black;">
<tspan x="71" y="519">dct:identifier (9.1e5) [*] </tspan>
<tspan x="71" y="534">rdf:type (9.1e5) [*]  -&gt;  owl:Class</tspan>
</text>
</g>
<g id="2002680013"><polygon points="275,88 528,88 528,304 275,304 "
style="fill:#F4D03F; stroke-width:1;stroke:Black;"/>
<text style="font-family:Arial;font-size:12px;kerning:0;word-spacing:-1px;fill:Black;font-weight:bold;">
<tspan x="346" y="103">orth:Protein (1.6e7)</tspan>
</text>
<line x1="279" y1="106" x2="526" y2="106"
 style="stroke-width:1;stroke:Black;"/>
<text style="font-family:Arial;font-size:12px;kerning:0;word-spacing:-1px;fill:Black;">
<tspan x="279" y="118">dct:identifier (1.1e8) [*] </tspan>
<tspan x="279" y="133">lscr:xrefEMBLSequence (2.4e6) [1]  -&gt; IRI</tspan>
<tspan x="279" y="148">lscr:xrefNCBIProtein (6.1e6) [*]  -&gt; IRI</tspan>
<tspan x="279" y="163">lscr:xrefNCBIRefSeq (1.8e7) [*]  -&gt; IRI</tspan>
<tspan x="279" y="178">rdf:type (1.6e7) [*]  -&gt;  owl:Class</tspan>
<tspan x="279" y="193">rdfs:comment (1.5e7) [*] </tspan>
<tspan x="279" y="208">rdfs:label (3.3e6) [*] </tspan>
<tspan x="279" y="223">rdfs:seeAlso (1.6e7) [1]  -&gt; IRI</tspan>
</text>
</g>
<g id="2002680145"><polygon points="698,66 906,66 906,116 698,116 "
style="fill:#F4D03F; stroke-width:1;stroke:Black;"/>
<text style="font-family:Arial;font-size:12px;kerning:0;word-spacing:-1px;fill:Black;font-weight:bold;">
<tspan x="731" y="81">obo:SO_0000673 (5.3e6)</tspan>
</text>
<line x1="702" y1="84" x2="904" y2="84"
 style="stroke-width:1;stroke:Black;"/>
<text style="font-family:Arial;font-size:12px;kerning:0;word-spacing:-1px;fill:Black;">
<tspan x="702" y="96">dct:identifier (5.3e6) [*] </tspan>
<tspan x="702" y="111">rdf:type (5.3e6) [*]  -&gt;  owl:Class</tspan>
</text>
</g>
<g id="2002680079"><polygon points="698,122 906,122 906,172 698,172 "
style="fill:#F4D03F; stroke-width:1;stroke:Black;"/>
<text style="font-family:Arial;font-size:12px;kerning:0;word-spacing:-1px;fill:Black;font-weight:bold;">
<tspan x="739" y="137">uniprot:Protein (1.7e7)</tspan>
</text>
<line x1="702" y1="140" x2="904" y2="140"
 style="stroke-width:1;stroke:Black;"/>
<text style="font-family:Arial;font-size:12px;kerning:0;word-spacing:-1px;fill:Black;">
<tspan x="702" y="152">dct:identifier (1.7e7) [*] </tspan>
<tspan x="702" y="167">rdf:type (1.7e7) [*]  -&gt;  owl:Class</tspan>
</text>
</g>
<g id="2002680112"><polygon points="698,10 906,10 906,60 698,60 "
style="fill:#F4D03F; stroke-width:1;stroke:Black;"/>
<text style="font-family:Arial;font-size:12px;kerning:0;word-spacing:-1px;fill:Black;font-weight:bold;">
<tspan x="735" y="25">ensembl:protein (4.9e6)</tspan>
</text>
<line x1="702" y1="28" x2="904" y2="28"
 style="stroke-width:1;stroke:Black;"/>
<text style="font-family:Arial;font-size:12px;kerning:0;word-spacing:-1px;fill:Black;">
<tspan x="702" y="40">dct:identifier (4.9e6) [*] </tspan>
<tspan x="702" y="55">rdf:type (4.9e6) [*]  -&gt;  owl:Class</tspan>
</text>
</g>
<g id="2002680046"><polygon points="698,178 906,178 906,243 698,243 "
style="fill:#F4D03F; stroke-width:1;stroke:Black;"/>
<text style="font-family:Arial;font-size:12px;kerning:0;word-spacing:-1px;fill:Black;font-weight:bold;">
<tspan x="737" y="193">sio:SIO_000750 (2732)</tspan>
</text>
<line x1="702" y1="196" x2="904" y2="196"
 style="stroke-width:1;stroke:Black;"/>
<text style="font-family:Arial;font-size:12px;kerning:0;word-spacing:-1px;fill:Black;">
<tspan x="702" y="208">pav:version (2803) [*] </tspan>
<tspan x="702" y="223">rdf:type (2732) [*]  -&gt;  owl:Class</tspan>
<tspan x="702" y="238">rdfs:comment (2732) [*] </tspan>
</text>
</g>
<g id="2002679958"><polygon points="698,285 906,285 906,350 698,350 "
style="fill:#F4D03F; stroke-width:1;stroke:Black;"/>
<text style="font-family:Arial;font-size:12px;kerning:0;word-spacing:-1px;fill:Black;font-weight:bold;">
<tspan x="752" y="300">orth:Gene (7.5e6)</tspan>
</text>
<line x1="702" y1="303" x2="904" y2="303"
 style="stroke-width:1;stroke:Black;"/>
<text style="font-family:Arial;font-size:12px;kerning:0;word-spacing:-1px;fill:Black;">
<tspan x="702" y="315">dct:identifier (1.8e5) [*] </tspan>
<tspan x="702" y="330">lscr:xrefNCBIGene (6.4e6) [*]  -&gt; IRI</tspan>
<tspan x="702" y="345">rdf:type (1.0e7) [*]  -&gt;  owl:Class</tspan>
</text>
</g>
<g id="2002680035"><polygon points="47,151 255,151 255,216 47,216 "
style="fill:#F4D03F; stroke-width:1;stroke:Black;"/>
<text style="font-family:Arial;font-size:12px;kerning:0;word-spacing:-1px;fill:Black;font-weight:bold;">
<tspan x="69" y="166">orth:TaxonomicRange (3984)</tspan>
</text>
<line x1="51" y1="169" x2="253" y2="169"
 style="stroke-width:1;stroke:Black;"/>
<text style="font-family:Arial;font-size:12px;kerning:0;word-spacing:-1px;fill:Black;">
<tspan x="51" y="181">orth:taxRange (3984) [1] D</tspan>
<tspan x="51" y="196">orth:taxRangeId (3961) [1] D</tspan>
<tspan x="51" y="211">rdf:type (6835) [*]  -&gt;  owl:Class</tspan>
</text>
</g>
<g id="2002679947"><polygon points="13,19 221,19 221,130 13,130 "
style="fill:#F4D03F; stroke-width:1;stroke:Black;"/>
<polygon points="10,22 218,22 218,133 10,133 "
style="fill:#F4D03F; stroke-width:1;stroke:Black;"/>
<text style="font-family:Arial;font-size:12px;kerning:0;word-spacing:-1px;fill:Black;font-weight:bold;">
<tspan x="26" y="37">owl:NamedIndividual or uniprot:</tspan>
<tspan x="73" y="53">Rank G101 (1)</tspan>
</text>
<line x1="14" y1="56" x2="216" y2="56"
 style="stroke-width:1;stroke:Black;"/>
<text style="font-family:Arial;font-size:12px;kerning:0;word-spacing:-1px;fill:Black;">
<tspan x="14" y="68">rdf:type (2) [*]  -&gt;  owl:Class</tspan>
<tspan x="14" y="83">rdfs:isDefinedBy (1) [*] </tspan>
<tspan x="14" y="98">rdfs:label (1) [*] </tspan>
</text>
<text style="font-family:Arial;font-size:11px;kerning:0;word-spacing:-1px;fill:Black;font-weight:bold;">
<tspan x="14" y="113">owl:NamedIndividual (1)</tspan>
<tspan x="14" y="128">uniprot:Rank (1)</tspan>
</text>
</g>
<g id="2002680123"><polygon points="287,489 470,489 470,539 287,539 "
style="fill:#F4D03F; stroke-width:1;stroke:Black;"/>
<text style="font-family:Arial;font-size:12px;kerning:0;word-spacing:-1px;fill:Black;font-weight:bold;">
<tspan x="306" y="504">orth:OrthologyDataset (1)</tspan>
</text>
<line x1="291" y1="507" x2="468" y2="507"
 style="stroke-width:1;stroke:Black;"/>
<text style="font-family:Arial;font-size:12px;kerning:0;word-spacing:-1px;fill:Black;">
<tspan x="291" y="519">pav:version (1) [*] </tspan>
<tspan x="291" y="534">rdf:type (1) [*]  -&gt;  owl:Class</tspan>
</text>
</g>
<g id="2002680057"><polygon points="442,423 650,423 650,468 442,468 "
style="fill:#F4D03F; stroke-width:1;stroke:Black;"/>
<text style="font-family:Arial;font-size:12px;kerning:0;word-spacing:-1px;fill:Black;font-weight:bold;">
<tspan x="486" y="438">orth:Organism (2851)</tspan>
</text>
<line x1="446" y1="441" x2="648" y2="441"
 style="stroke-width:1;stroke:Black;"/>
<text style="font-family:Arial;font-size:12px;kerning:0;word-spacing:-1px;fill:Black;">
<tspan x="446" y="453">rdf:type (2851) [*]  -&gt;  owl:Class</tspan>
</text>
</g>
<g id="2002680024"><polygon points="698,377 906,377 906,427 698,427 "
style="fill:#F4D03F; stroke-width:1;stroke:Black;"/>
<text style="font-family:Arial;font-size:12px;kerning:0;word-spacing:-1px;fill:Black;font-weight:bold;">
<tspan x="731" y="392">obo:SO_0000704 (2.9e6)</tspan>
</text>
<line x1="702" y1="395" x2="904" y2="395"
 style="stroke-width:1;stroke:Black;"/>
<text style="font-family:Arial;font-size:12px;kerning:0;word-spacing:-1px;fill:Black;">
<tspan x="702" y="407">lscr:xrefEnsemblGene (2.9e6) [1] D -</tspan>
<tspan x="702" y="422">&gt; IRI</tspan>
</text>
</g>
<g id="2002680090"><polygon points="39,340 247,340 247,436 39,436 "
style="fill:#F4D03F; stroke-width:1;stroke:Black;"/>
<polygon points="36,343 244,343 244,439 36,439 "
style="fill:#F4D03F; stroke-width:1;stroke:Black;"/>
<text style="font-family:Arial;font-size:12px;kerning:0;word-spacing:-1px;fill:Black;font-weight:bold;">
<tspan x="57" y="358">orth:OrthologsCluster or orth:</tspan>
<tspan x="51" y="374">ParalogsCluster G104 (~3.1e7)</tspan>
</text>
<line x1="40" y1="377" x2="242" y2="377"
 style="stroke-width:1;stroke:Black;"/>
<text style="font-family:Arial;font-size:12px;kerning:0;word-spacing:-1px;fill:Black;">
<tspan x="40" y="389">dct:identifier (3.0e7) [*] </tspan>
<tspan x="40" y="404">rdf:type (3.1e7) [*]  -&gt;  owl:Class</tspan>
</text>
<text style="font-family:Arial;font-size:11px;kerning:0;word-spacing:-1px;fill:Black;font-weight:bold;">
<tspan x="40" y="419">orth:OrthologsCluster (3.0e7)</tspan>
<tspan x="40" y="434">orth:ParalogsCluster (1.4e6)</tspan>
</text>
</g>
<g id="2002679980"><polygon points="10,259 218,259 218,309 10,309 "
style="fill:#F4D03F; stroke-width:1;stroke:Black;"/>
<text style="font-family:Arial;font-size:12px;kerning:0;word-spacing:-1px;fill:Black;font-weight:bold;">
<tspan x="56" y="274">uniprot:Taxon (2851)</tspan>
</text>
<line x1="14" y1="277" x2="216" y2="277"
 style="stroke-width:1;stroke:Black;"/>
<text style="font-family:Arial;font-size:12px;kerning:0;word-spacing:-1px;fill:Black;">
<tspan x="14" y="289">uniprot:mnemonic (1519) [1] D</tspan>
<tspan x="14" y="304">uniprot:scientificName (2851) [1] D</tspan>
</text>
</g>
<g id="2002680134"><polygon points="368,740 576,740 576,835 368,835 "
style="fill:#F4D03F; stroke-width:1;stroke:Black;"/>
<text style="font-family:Arial;font-size:12px;kerning:0;word-spacing:-1px;fill:Black;font-weight:bold;">
<tspan x="405" y="755">owl:ObjectProperty (27)</tspan>
</text>
<line x1="372" y1="758" x2="574" y2="758"
 style="stroke-width:1;stroke:Black;"/>
<text style="font-family:Arial;font-size:12px;kerning:0;word-spacing:-1px;fill:Black;">
<tspan x="372" y="770">rdf:type (35) [*]  -&gt;  owl:Class</tspan>
<tspan x="372" y="785">rdfs:comment (26) [*] </tspan>
<tspan x="372" y="800">rdfs:isDefinedBy (6 67%d) [*]  -&gt; IRI</tspan>
<tspan x="372" y="815">rdfs:label (29) [*] </tspan>
<tspan x="372" y="830">skos:altLabel (5) [*] </tspan>
</text>
</g>
<g id="2002679936"><polygon points="741,606 949,606 949,807 741,807 "
style="fill:#F4D03F; stroke-width:1;stroke:Black;"/>
<polygon points="738,609 946,609 946,810 738,810 "
style="fill:#F4D03F; stroke-width:1;stroke:Black;"/>
<text style="font-family:Arial;font-size:12px;kerning:0;word-spacing:-1px;fill:Black;font-weight:bold;">
<tspan x="755" y="624">owl:AnnotationProperty or owl:</tspan>
<tspan x="758" y="640">DatatypeProperty G105 (~31)</tspan>
</text>
<line x1="742" y1="643" x2="944" y2="643"
 style="stroke-width:1;stroke:Black;"/>
<text style="font-family:Arial;font-size:12px;kerning:0;word-spacing:-1px;fill:Black;">
<tspan x="742" y="655">rdf:type (31) [*]  -&gt;  owl:Class</tspan>
<tspan x="742" y="670">rdfs:comment (29) [*] </tspan>
<tspan x="742" y="685">rdfs:isDefinedBy (7 14%d) [*]  -&gt; IRI</tspan>
<tspan x="742" y="700">rdfs:label (29) [*] </tspan>
<tspan x="742" y="715">rdfs:seeAlso (1) [1] </tspan>
<tspan x="742" y="730">skos:altLabel (2) [*] </tspan>
<tspan x="742" y="745">skos:definition (6) [1] D</tspan>
<tspan x="742" y="760">skos:example (1) [1] D</tspan>
<tspan x="742" y="775">skos:scopeNote (1) [1] D</tspan>
</text>
<text style="font-family:Arial;font-size:11px;kerning:0;word-spacing:-1px;fill:Black;font-weight:bold;">
<tspan x="742" y="790">owl:AnnotationProperty (23)</tspan>
<tspan x="742" y="805">owl:DatatypeProperty (8)</tspan>
</text>
</g>
<g id="2002680068"><polygon points="369,606 577,606 577,701 369,701 "
style="fill:#F4D03F; stroke-width:1;stroke:Black;"/>
<text style="font-family:Arial;font-size:12px;kerning:0;word-spacing:-1px;fill:Black;font-weight:bold;">
<tspan x="418" y="621">owl:Restriction (31)</tspan>
</text>
<line x1="373" y1="624" x2="575" y2="624"
 style="stroke-width:1;stroke:Black;"/>
<text style="font-family:Arial;font-size:12px;kerning:0;word-spacing:-1px;fill:Black;">
<tspan x="373" y="636">owl:hasValue (1) [1] D</tspan>
<tspan x="373" y="651">owl:maxQualifiedCardinality (1) [1] D</tspan>
<tspan x="373" y="666">owl:onDataRange (1) [1] D -&gt; IRI</tspan>
<tspan x="373" y="681">owl:qualifiedCardinality (5) [1] D</tspan>
<tspan x="373" y="696">rdf:type (31) [*]  -&gt;  owl:Class</tspan>
</text>
</g>
<g id="2002680101"><polygon points="12,622 220,622 220,807 12,807 "
style="fill:#F4D03F; stroke-width:1;stroke:Black;"/>
<text style="font-family:Arial;font-size:12px;kerning:0;word-spacing:-1px;fill:Black;font-weight:bold;">
<tspan x="72" y="637">owl:Class (202)</tspan>
</text>
<line x1="16" y1="640" x2="218" y2="640"
 style="stroke-width:1;stroke:Black;"/>
<text style="font-family:Arial;font-size:12px;kerning:0;word-spacing:-1px;fill:Black;">
<tspan x="16" y="652">owl:intersectionOf (3) [1] D -&gt; IRI</tspan>
<tspan x="16" y="667">owl:unionOf (162) [1] D -&gt; IRI</tspan>
<tspan x="16" y="682">rdf:type (202) [*]  -&gt;  owl:Class</tspan>
<tspan x="16" y="697">rdfs:comment (34) [*] </tspan>
<tspan x="16" y="712">rdfs:isDefinedBy (14) [*] </tspan>
<tspan x="16" y="727">rdfs:label (38) [*] </tspan>
<tspan x="16" y="742">rdfs:seeAlso (1) [1] </tspan>
<tspan x="16" y="757">skos:altLabel (26) [*] </tspan>
<tspan x="16" y="772">&lt;-rdf:type (8.1e7)  &lt;-  orth:Organism,</tspan>
<tspan x="16" y="787">orth:OrthologsCluster or orth:</tspan>
<tspan x="16" y="802">ParalogsCluster..(17)</tspan>
</text>
</g>
<g id="2002679991"><polygon points="374,851 582,851 582,947 374,947 "
style="fill:#F4D03F; stroke-width:1;stroke:Black;"/>
<polygon points="371,854 579,854 579,950 371,950 "
style="fill:#F4D03F; stroke-width:1;stroke:Black;"/>
<text style="font-family:Arial;font-size:12px;kerning:0;word-spacing:-1px;fill:Black;font-weight:bold;">
<tspan x="390" y="869">owl:SymmetricProperty et al. </tspan>
<tspan x="447" y="885">G103 (~8)</tspan>
</text>
<text style="font-family:Arial;font-size:11px;kerning:0;word-spacing:-1px;fill:Black;font-weight:bold;">
<tspan x="375" y="900">owl:FunctionalProperty (1)</tspan>
<tspan x="375" y="915">owl:ReflexiveProperty (1)</tspan>
<tspan x="375" y="930">owl:SymmetricProperty (5)</tspan>
<tspan x="375" y="945">owl:TransitiveProperty (1)</tspan>
</text>
</g>
<g id="2002680002"><polygon points="742,842 950,842 950,907 742,907 "
style="fill:#F4D03F; stroke-width:1;stroke:Black;"/>
<text style="font-family:Arial;font-size:12px;kerning:0;word-spacing:-1px;fill:Black;font-weight:bold;">
<tspan x="800" y="857">owl:Ontology (2)</tspan>
</text>
<line x1="746" y1="860" x2="948" y2="860"
 style="stroke-width:1;stroke:Black;"/>
<text style="font-family:Arial;font-size:12px;kerning:0;word-spacing:-1px;fill:Black;">
<tspan x="746" y="872">owl:versionIRI (2) [1] D -&gt; IRI</tspan>
<tspan x="746" y="887">owl:versionInfo (1) [1] D</tspan>
<tspan x="746" y="902">rdf:type (2) [*]  -&gt;  owl:Class</tspan>
</text>
</g>
<g id="2002679815"><path d="M577,693 L738,693 "
style="fill:none;stroke-width:1;stroke:Black;"/>
<line x1="732" y1="690" x2="738" y2="693"
 style="stroke-width:1;stroke:Black;"/>
<line x1="732" y1="696" x2="738" y2="693"
 style="stroke-width:1;stroke:Black;"/>
<text style="font-family:Arial;font-size:12px;kerning:0;word-spacing:-1px;fill:Black;">
<tspan x="581" y="691">owl:onProperty  D</tspan>
</text>
</g>
<g id="2002679825"><path d="M237,489 L237,439 "
style="fill:none;stroke-width:1;stroke:Black;"/>
<line x1="234" y1="445" x2="237" y2="439"
 style="stroke-width:1;stroke:Black;"/>
<line x1="240" y1="445" x2="237" y2="439"
 style="stroke-width:1;stroke:Black;"/>
<text style="font-family:Arial;font-size:12px;kerning:0;word-spacing:-1px;fill:Black;">
<tspan x="97" y="485">obo:CDAO_0000148  DR</tspan>
</text>
</g>
<g id="2002679870"><path d="M220,722 L369,722 373,720 375,716 375,701 "
style="fill:none;stroke-width:1;stroke:Black;"/>
<line x1="372" y1="707" x2="375" y2="701"
 style="stroke-width:1;stroke:Black;"/>
<line x1="378" y1="707" x2="375" y2="701"
 style="stroke-width:1;stroke:Black;"/>
<text style="font-family:Arial;font-size:12px;kerning:0;word-spacing:-1px;fill:Black;">
<tspan x="224" y="705">owl:equivalentClass  D</tspan>
<tspan x="224" y="720">rdfs:subClassOf  </tspan>
</text>
</g>
<g id="2002679880"><path d="M368,795 L220,795 "
style="fill:none;stroke-width:1;stroke:Black;"/>
<line x1="226" y1="792" x2="220" y2="795"
 style="stroke-width:1;stroke:Black;"/>
<line x1="226" y1="798" x2="220" y2="795"
 style="stroke-width:1;stroke:Black;"/>
<text style="font-family:Arial;font-size:12px;kerning:0;word-spacing:-1px;fill:Black;">
<tspan x="283" y="808">rdfs:domain  R</tspan>
<tspan x="283" y="823">rdfs:range  </tspan>
</text>
</g>
<g id="2002679905"><path d="M576,804 L738,804 "
style="fill:none;stroke-width:1;stroke:Black;"/>
<line x1="732" y1="801" x2="738" y2="804"
 style="stroke-width:1;stroke:Black;"/>
<line x1="732" y1="807" x2="738" y2="804"
 style="stroke-width:1;stroke:Black;"/>
<text style="font-family:Arial;font-size:12px;kerning:0;word-spacing:-1px;fill:Black;">
<tspan x="580" y="802">rdfs:subPropertyOf  </tspan>
</text>
</g>
<g id="2002679920"><path d="M244,412 L372,412 376,414 378,418 378,489 "
style="fill:none;stroke-width:1;stroke:Black;"/>
<line x1="375" y1="483" x2="378" y2="489"
 style="stroke-width:1;stroke:Black;"/>
<line x1="381" y1="483" x2="378" y2="489"
 style="stroke-width:1;stroke:Black;"/>
<text style="font-family:Arial;font-size:12px;kerning:0;word-spacing:-1px;fill:Black;">
<tspan x="248" y="410">orth:inDataset  R</tspan>
</text>
</g>
<g id="2002679925"><path d="M738,772 L576,772 "
style="fill:none;stroke-width:1;stroke:Black;"/>
<line x1="582" y1="769" x2="576" y2="772"
 style="stroke-width:1;stroke:Black;"/>
<line x1="582" y1="775" x2="576" y2="772"
 style="stroke-width:1;stroke:Black;"/>
<text style="font-family:Arial;font-size:12px;kerning:0;word-spacing:-1px;fill:Black;">
<tspan x="626" y="785">rdfs:subPropertyOf  </tspan>
</text>
</g>
<g id="2002679930"><path d="M847,350 L847,377 "
style="fill:none;stroke-width:2;stroke:Fuchsia;"/>
<polygon points="852,360 847,350 842,360 "
style="fill:Silver;stroke-width:1;stroke:Black;"/>
<text style="font-family:Arial;font-size:12px;kerning:0;word-spacing:-1px;fill:Black;">
<tspan x="849" y="365"> </tspan>
</text>
</g>
<g id="2002679895"><path d="M528,105 L698,105 "
style="fill:none;stroke-width:1;stroke:Black;"/>
<line x1="692" y1="102" x2="698" y2="105"
 style="stroke-width:1;stroke:Black;"/>
<line x1="692" y1="108" x2="698" y2="105"
 style="stroke-width:1;stroke:Black;"/>
<text style="font-family:Arial;font-size:12px;kerning:0;word-spacing:-1px;fill:Black;">
<tspan x="532" y="103">lscr:xrefEnsemblTranscript  R</tspan>
</text>
</g>
<g id="2002679860"><path d="M528,166 L698,166 "
style="fill:none;stroke-width:1;stroke:Black;"/>
<line x1="692" y1="163" x2="698" y2="166"
 style="stroke-width:1;stroke:Black;"/>
<line x1="692" y1="169" x2="698" y2="166"
 style="stroke-width:1;stroke:Black;"/>
<text style="font-family:Arial;font-size:12px;kerning:0;word-spacing:-1px;fill:Black;">
<tspan x="532" y="149">lscr:xrefUniprot  R</tspan>
<tspan x="532" y="164">lscr:xrefSwissProt  R</tspan>
</text>
</g>
<g id="2002679890"><path d="M528,298 L698,298 "
style="fill:none;stroke-width:1;stroke:Black;"/>
<line x1="692" y1="295" x2="698" y2="298"
 style="stroke-width:1;stroke:Black;"/>
<line x1="692" y1="301" x2="698" y2="298"
 style="stroke-width:1;stroke:Black;"/>
<text style="font-family:Arial;font-size:12px;kerning:0;word-spacing:-1px;fill:Black;">
<tspan x="532" y="296">sio:SIO_010079  R</tspan>
</text>
</g>
<g id="2002679850"><path d="M506,88 L506,30 508,26 512,24 698,24 "
style="fill:none;stroke-width:1;stroke:Black;"/>
<line x1="692" y1="21" x2="698" y2="24"
 style="stroke-width:1;stroke:Black;"/>
<line x1="692" y1="27" x2="698" y2="24"
 style="stroke-width:1;stroke:Black;"/>
<text style="font-family:Arial;font-size:12px;kerning:0;word-spacing:-1px;fill:Black;">
<tspan x="358" y="84">lscr:xrefEnsemblProtein  R</tspan>
</text>
</g>
<g id="2002679820"><path d="M528,229 L698,229 "
style="fill:none;stroke-width:1;stroke:Black;"/>
<line x1="692" y1="226" x2="698" y2="229"
 style="stroke-width:1;stroke:Black;"/>
<line x1="692" y1="232" x2="698" y2="229"
 style="stroke-width:1;stroke:Black;"/>
<text style="font-family:Arial;font-size:12px;kerning:0;word-spacing:-1px;fill:Black;">
<tspan x="532" y="227">obo:RO_0001018  DR</tspan>
</text>
</g>
<g id="2002679840"><path d="M698,333 L528,333 524,335 522,339 522,423 "
style="fill:none;stroke-width:1;stroke:Black;"/>
<line x1="519" y1="417" x2="522" y2="423"
 style="stroke-width:1;stroke:Black;"/>
<line x1="525" y1="417" x2="522" y2="423"
 style="stroke-width:1;stroke:Black;"/>
<text style="font-family:Arial;font-size:12px;kerning:0;word-spacing:-1px;fill:Black;">
<tspan x="602" y="346">orth:organism  R</tspan>
</text>
</g>
<g id="2002679855"><path d="M516,304 L516,423 "
style="fill:none;stroke-width:1;stroke:Black;"/>
<line x1="513" y1="417" x2="516" y2="423"
 style="stroke-width:1;stroke:Black;"/>
<line x1="519" y1="417" x2="516" y2="423"
 style="stroke-width:1;stroke:Black;"/>
<text style="font-family:Arial;font-size:12px;kerning:0;word-spacing:-1px;fill:Black;">
<tspan x="518" y="319">orth:organism  R</tspan>
</text>
</g>
<g id="2002679835"><path d="M244,391 L448,391 452,389 454,385 454,304 "
style="fill:none;stroke-width:1;stroke:Black;"/>
<line x1="451" y1="310" x2="454" y2="304"
 style="stroke-width:1;stroke:Black;"/>
<line x1="457" y1="310" x2="454" y2="304"
 style="stroke-width:1;stroke:Black;"/>
<text style="font-family:Arial;font-size:12px;kerning:0;word-spacing:-1px;fill:Black;">
<tspan x="248" y="389">orth:hasHomologousMember  </tspan>
</text>
</g>
<g id="2002679810"><path d="M244,370 L424,370 428,368 430,364 430,355 428,351 424,349 244,349 "
style="fill:none;stroke-width:1;stroke:Black;"/>
<line x1="250" y1="346" x2="244" y2="349"
 style="stroke-width:1;stroke:Black;"/>
<line x1="250" y1="352" x2="244" y2="349"
 style="stroke-width:1;stroke:Black;"/>
<text style="font-family:Arial;font-size:12px;kerning:0;word-spacing:-1px;fill:Black;">
<tspan x="248" y="368">orth:hasHomologousMember  </tspan>
</text>
</g>
<g id="2002679830"><path d="M237,343 L237,216 "
style="fill:none;stroke-width:1;stroke:Black;"/>
<line x1="234" y1="222" x2="237" y2="216"
 style="stroke-width:1;stroke:Black;"/>
<line x1="240" y1="222" x2="237" y2="216"
 style="stroke-width:1;stroke:Black;"/>
<text style="font-family:Arial;font-size:12px;kerning:0;word-spacing:-1px;fill:Black;">
<tspan x="69" y="339">orth:hasTaxonomicRange  DR</tspan>
</text>
</g>
<g id="2002679932"><path d="M177,216 L177,259 "
style="fill:none;stroke-width:2;stroke:Fuchsia;"/>
<polygon points="182,226 177,216 172,226 "
style="fill:Silver;stroke-width:1;stroke:Black;"/>
<text style="font-family:Arial;font-size:12px;kerning:0;word-spacing:-1px;fill:Black;">
<tspan x="179" y="231"> </tspan>
</text>
</g>
<g id="2002679900"><path d="M581,468 L581,565 579,569 575,571 23,571 19,569 17,565 17,309 "
style="fill:none;stroke-width:1;stroke:Black;"/>
<line x1="14" y1="315" x2="17" y2="309"
 style="stroke-width:1;stroke:Black;"/>
<line x1="20" y1="315" x2="17" y2="309"
 style="stroke-width:1;stroke:Black;"/>
<text style="font-family:Arial;font-size:12px;kerning:0;word-spacing:-1px;fill:Black;">
<tspan x="583" y="483">obo:RO_0002162  DR</tspan>
</text>
</g>
<g id="2002679910"><path d="M134,259 L134,242 132,238 128,236 22,236 18,234 16,230 16,133 "
style="fill:none;stroke-width:1;stroke:Black;"/>
<line x1="13" y1="139" x2="16" y2="133"
 style="stroke-width:1;stroke:Black;"/>
<line x1="19" y1="139" x2="16" y2="133"
 style="stroke-width:1;stroke:Black;"/>
<text style="font-family:Arial;font-size:12px;kerning:0;word-spacing:-1px;fill:Black;">
<tspan x="43" y="255">uniprot:rank  DR</tspan>
</text>
</g>
<g id="2002679885"><path d="M368,759 L254,759 250,757 248,753 248,752 250,748 254,746 368,746 "
style="fill:none;stroke-width:1;stroke:Black;"/>
<line x1="362" y1="743" x2="368" y2="746"
 style="stroke-width:1;stroke:Black;"/>
<line x1="362" y1="749" x2="368" y2="746"
 style="stroke-width:1;stroke:Black;"/>
<text style="font-family:Arial;font-size:12px;kerning:0;word-spacing:-1px;fill:Black;">
<tspan x="256" y="772">owl:inverseOf  DR</tspan>
<tspan x="256" y="787">rdfs:subPropertyOf  </tspan>
</text>
</g>
<g id="2002679934"><path d="M431,835 L431,854 "
style="fill:none;stroke-width:2;stroke:Fuchsia;"/>
<polygon points="436,845 431,835 426,845 "
style="fill:Silver;stroke-width:1;stroke:Black;"/>
<text style="font-family:Arial;font-size:12px;kerning:0;word-spacing:-1px;fill:Black;">
<tspan x="433" y="850"> </tspan>
</text>
</g>
<g id="2002679875"><path d="M369,628 L220,628 "
style="fill:none;stroke-width:1;stroke:Black;"/>
<line x1="226" y1="625" x2="220" y2="628"
 style="stroke-width:1;stroke:Black;"/>
<line x1="226" y1="631" x2="220" y2="628"
 style="stroke-width:1;stroke:Black;"/>
<text style="font-family:Arial;font-size:12px;kerning:0;word-spacing:-1px;fill:Black;">
<tspan x="229" y="641">owl:allValuesFrom  DR</tspan>
<tspan x="229" y="656">owl:someValuesFrom  D</tspan>
<tspan x="229" y="671">owl:onClass  DR</tspan>
</text>
</g>
<g id="2002679845"><path d="M31,807 L31,887 33,891 37,893 255,893 259,891 261,887 261,807 259,803 255,801 220,801 "
style="fill:none;stroke-width:1;stroke:Black;"/>
<line x1="226" y1="798" x2="220" y2="801"
 style="stroke-width:1;stroke:Black;"/>
<line x1="226" y1="804" x2="220" y2="801"
 style="stroke-width:1;stroke:Black;"/>
<text style="font-family:Arial;font-size:12px;kerning:0;word-spacing:-1px;fill:Black;">
<tspan x="33" y="822">owl:equivalentClass  D</tspan>
<tspan x="33" y="837">owl:disjointWith  DR</tspan>
<tspan x="33" y="852">rdfs:subClassOf  </tspan>
</text>
</g>
<g id="2002679915"><path d="M462,701 L462,740 "
style="fill:none;stroke-width:1;stroke:Black;"/>
<line x1="459" y1="734" x2="462" y2="740"
 style="stroke-width:1;stroke:Black;"/>
<line x1="465" y1="734" x2="462" y2="740"
 style="stroke-width:1;stroke:Black;"/>
<text style="font-family:Arial;font-size:12px;kerning:0;word-spacing:-1px;fill:Black;">
<tspan x="464" y="716">owl:onProperty  D</tspan>
</text>
</g>
<g id="2002679805"><path d="M738,651 L601,651 597,653 595,657 595,666 597,670 601,672 738,672 "
style="fill:none;stroke-width:1;stroke:Black;"/>
<line x1="732" y1="669" x2="738" y2="672"
 style="stroke-width:1;stroke:Black;"/>
<line x1="732" y1="675" x2="738" y2="672"
 style="stroke-width:1;stroke:Black;"/>
<text style="font-family:Arial;font-size:12px;kerning:0;word-spacing:-1px;fill:Black;">
<tspan x="626" y="664">rdfs:subPropertyOf  </tspan>
</text>
</g>
<g id="2002679865"><path d="M738,615 L651,615 647,613 645,609 645,605 643,601 639,599 220,599 216,601 214,605 214,622 "
style="fill:none;stroke-width:1;stroke:Black;"/>
<line x1="211" y1="616" x2="214" y2="622"
 style="stroke-width:1;stroke:Black;"/>
<line x1="217" y1="616" x2="214" y2="622"
 style="stroke-width:1;stroke:Black;"/>
<text style="font-family:Arial;font-size:12px;kerning:0;word-spacing:-1px;fill:Black;">
<tspan x="653" y="628">rdfs:domain  R</tspan>
<tspan x="653" y="643">rdfs:range  </tspan>
</text>
</g>
</svg>
