<?xml version="1.0" encoding="UTF-8" standalone="no"?>
<!DOCTYPE svg PUBLIC "-//W3C//DTD SVG 1.1//EN"
"http://www.w3.org/Graphics/SVG/1.1/DTD/svg11.dtd">
<svg version="1.1" xmlns="http://www.w3.org/2000/svg"
xmlns:xlink="http://www.w3.org/1999/xlink" xml:space="preserve"
 width="1400" height="598" viewBox="0 0 1400 598">
 onmousemove="movetip(evt)" onmouseup="endmove()">
<rect x="0" y="0" width="100%" height="100%" style="fill:White;"/>
<script type="application/ecmascript"> <![CDATA[
var dragtipid = null; var dragcase = false; function init(evt){
if (window.svgDocument==null) svgDocument = evt.target.ownerDocument;
}
function movetip(evt){if (dragtipid!=null){ dragcase = true;
var tip=svgDocument.getElementById(dragtipid);
tip.setAttributeNS(null,"x",evt.clientX-2);
tip.setAttributeNS(null,"y",evt.clientY-2);
}}
function endmove(){dragtipid = null;}
function startmove(evt,id){dragtipid = id; dragcase = false;
var tip=svgDocument.getElementById(dragtipid);
tip.setAttributeNS(null,"x",evt.clientX-2);
tip.setAttributeNS(null,"y",evt.clientY-2);
}
function Showtip(evt,id){ dragtipid = null;
var tip=svgDocument.getElementById(id);
var vis=tip.getAttributeNS(null,"visibility");
if (vis=="hidden"){
tip.setAttributeNS(null,"x",evt.clientX-2);
tip.setAttributeNS(null,"y",evt.clientY-2);
tip.setAttributeNS(null,"visibility","visible");
}}
function Hidetip(id){ dragtipid = null; if (dragcase==false){
var tip=svgDocument.getElementById(id);
tip.setAttributeNS(null,"visibility","hidden");
}}
]]></script>
<defs><linearGradient id="activ1" x1="0%" y1="0%" x2="100%" y2="0%">
<stop offset="0%" style="stop-color:#FFFF00;stop-opacity:1"/>
<stop offset="100%" style="stop-color:#FFFFF0;stop-opacity:1"/>
</linearGradient></defs>
<g id="2002716525"><polygon points="713,284 901,284 901,349 713,349 "
style="fill:#F4D03F; stroke-width:1;stroke:Black;"/>
<text style="font-family:Arial;font-size:12px;kerning:0;word-spacing:-1px;fill:Black;font-weight:bold;">
<tspan x="733" y="299">owl:NamedIndividual (707)</tspan>
</text>
<line x1="717" y1="302" x2="899" y2="302"
 style="stroke-width:1;stroke:Black;"/>
<text style="font-family:Arial;font-size:12px;kerning:0;word-spacing:-1px;fill:Black;">
<tspan x="717" y="314">rdf:type (1414) [*]  -&gt; IRI</tspan>
<tspan x="717" y="329">skos:definition (703) [*] </tspan>
<tspan x="717" y="344">skos:prefLabel (934) [*] </tspan>
</text>
</g>
<g id="2002716536"><polygon points="423,108 676,108 676,218 423,218 "
style="fill:#F4D03F; stroke-width:1;stroke:Black;"/>
<text style="font-family:Arial;font-size:12px;kerning:0;word-spacing:-1px;fill:Black;font-weight:bold;">
<tspan x="512" y="123">owl:Class (2)</tspan>
</text>
<line x1="427" y1="126" x2="674" y2="126"
 style="stroke-width:1;stroke:Black;"/>
<text style="font-family:Arial;font-size:12px;kerning:0;word-spacing:-1px;fill:Black;">
<tspan x="427" y="138">owl:intersectionOf (1) [1] D -&gt; IRI</tspan>
<tspan x="427" y="153">rdf:type (2) [*]  -&gt; IRI</tspan>
<tspan x="427" y="168">rdfs:subClassOf (1) [1] D -&gt; IRI</tspan>
<tspan x="427" y="183">skos:definition (2) [*] </tspan>
<tspan x="427" y="198">skos:prefLabel (2) [*] </tspan>
<tspan x="427" y="213">&lt;&gt; owl:equivalentClass  DR</tspan>
</text>
</g>
<g id="2002716547"><polygon points="713,108 933,108 933,158 713,158 "
style="fill:#F4D03F; stroke-width:1;stroke:Black;"/>
<text style="font-family:Arial;font-size:12px;kerning:0;word-spacing:-1px;fill:Black;font-weight:bold;">
<tspan x="772" y="123">owl:Restriction (1)</tspan>
</text>
<line x1="717" y1="126" x2="931" y2="126"
 style="stroke-width:1;stroke:Black;"/>
<text style="font-family:Arial;font-size:12px;kerning:0;word-spacing:-1px;fill:Black;">
<tspan x="717" y="138">owl:onProperty (1) [1] D -&gt; IRI</tspan>
<tspan x="717" y="153">rdf:type (1) [*]  -&gt; IRI</tspan>
</text>
</g>
<g id="2002716558"><polygon points="723,384 869,384 869,429 723,429 "
style="fill:#F4D03F; stroke-width:1;stroke:Black;"/>
<text style="font-family:Arial;font-size:12px;kerning:0;word-spacing:-1px;fill:Black;font-weight:bold;">
<tspan x="743" y="399">skos:Collection (2)</tspan>
</text>
</g>
<g id="2002716569"><polygon points="416,490 675,490 675,585 416,585 "
style="fill:#F4D03F; stroke-width:1;stroke:Black;"/>
<text style="font-family:Arial;font-size:12px;kerning:0;word-spacing:-1px;fill:Black;font-weight:bold;">
<tspan x="478" y="505">owl:ObjectProperty (13)</tspan>
</text>
<line x1="420" y1="508" x2="673" y2="508"
 style="stroke-width:1;stroke:Black;"/>
<text style="font-family:Arial;font-size:12px;kerning:0;word-spacing:-1px;fill:Black;">
<tspan x="420" y="520">rdf:type (13) [*]  -&gt; IRI</tspan>
<tspan x="420" y="535">rdfs:label (26) [*] </tspan>
<tspan x="420" y="550">skos:definition (26) [*] </tspan>
<tspan x="420" y="565">&lt;&gt; owl:inverseOf  DR</tspan>
<tspan x="420" y="580">&lt;&gt; rdfs:subPropertyOf  </tspan>
</text>
</g>
<g id="2002716580"><polygon points="415,262 678,262 678,342 415,342 "
style="fill:#F4D03F; stroke-width:1;stroke:Black;"/>
<text style="font-family:Arial;font-size:12px;kerning:0;word-spacing:-1px;fill:Black;font-weight:bold;">
<tspan x="467" y="277">owl:AnnotationProperty (10)</tspan>
</text>
<line x1="419" y1="280" x2="676" y2="280"
 style="stroke-width:1;stroke:Black;"/>
<text style="font-family:Arial;font-size:12px;kerning:0;word-spacing:-1px;fill:Black;">
<tspan x="419" y="292">rdf:type (10) [*]  -&gt; IRI</tspan>
<tspan x="419" y="307">rdfs:label (20) [*] </tspan>
<tspan x="419" y="322">skos:definition (20) [*] </tspan>
<tspan x="419" y="337">&lt;&gt; rdfs:subPropertyOf  </tspan>
</text>
</g>
<g id="2002716591"><polygon points="1103,174 1390,174 1390,419 1103,419 "
style="fill:#F4D03F; stroke-width:1;stroke:Black;"/>
<text style="font-family:Arial;font-size:12px;kerning:0;word-spacing:-1px;fill:Black;font-weight:bold;">
<tspan x="1190" y="189">skos:Concept (704)</tspan>
</text>
<line x1="1107" y1="192" x2="1388" y2="192"
 style="stroke-width:1;stroke:Black;"/>
<text style="font-family:Arial;font-size:12px;kerning:0;word-spacing:-1px;fill:Black;">
<tspan x="1107" y="204">frdef:eppo_code (241) [*] D</tspan>
<tspan x="1107" y="219">owl:deprecated (1) [1] D</tspan>
<tspan x="1107" y="234">rdfs:comment (5 80%d) [*] D -&gt; IRI</tspan>
<tspan x="1107" y="249">rdfs:isDefinedBy (702 9%d) [1] D -&gt; IRI</tspan>
<tspan x="1107" y="264">rdfs:seeAlso (889 1%d) [*] D -&gt; IRI</tspan>
<tspan x="1107" y="279">skos:altLabel (1496) [*] D</tspan>
<tspan x="1107" y="294">skos:hiddenLabel (94) [*] D</tspan>
<tspan x="1107" y="309">skos:historyNote (1) [1] D</tspan>
<tspan x="1107" y="324">skos:note (1722 99.9%d) [*] D -&gt; IRI</tspan>
<tspan x="1107" y="339">skos:scopeNote (2) [1] D</tspan>
<tspan x="1107" y="354">terms:issued (701) [1] </tspan>
<tspan x="1107" y="369">terms:modified (341 99.9%d) [*]  -&gt; IRI</tspan>
<tspan x="1107" y="384">&lt;&gt; skos:broader  DR</tspan>
<tspan x="1107" y="399">&lt;&gt; skos:narrower  DR</tspan>
<tspan x="1107" y="414">&lt;&gt; skos:related  DR</tspan>
</text>
</g>
<g id="2002716602"><polygon points="37,108 337,108 337,585 37,585 "
style="fill:#F4D03F; stroke-width:1;stroke:Black;"/>
<text style="font-family:Arial;font-size:12px;kerning:0;word-spacing:-1px;fill:Black;font-weight:bold;">
<tspan x="141" y="123">owl:Ontology (2)</tspan>
</text>
<line x1="41" y1="126" x2="335" y2="126"
 style="stroke-width:1;stroke:Black;"/>
<text style="font-family:Arial;font-size:12px;kerning:0;word-spacing:-1px;fill:Black;">
<tspan x="41" y="138">foaf:homepage (1) [1] D -&gt; IRI</tspan>
<tspan x="41" y="153">owl:priorVersion (1) [1] D -&gt; IRI</tspan>
<tspan x="41" y="168">owl:versionInfo (2) [1] D</tspan>
<tspan x="41" y="183">pav:curatedBy (3) [*] D</tspan>
<tspan x="41" y="198">rdf:type (2) [*]  -&gt; IRI</tspan>
<tspan x="41" y="213">skos:definition (2) [*] </tspan>
<tspan x="41" y="228">terms:accessRights (1) [1] D</tspan>
<tspan x="41" y="243">terms:accrualMethod (3 67%d) [*] D -&gt; IRI</tspan>
<tspan x="41" y="258">terms:accrualPeriodicity (1) [1] D -&gt; IRI</tspan>
<tspan x="41" y="273">terms:accrualPolicy (3 67%d) [*] D -&gt; IRI</tspan>
<tspan x="41" y="288">terms:bibliographicCitation (1) [1] D -&gt; IRI</tspan>
<tspan x="41" y="303">terms:contributor (3) [*] D</tspan>
<tspan x="41" y="318">terms:coverage (1) [1] D</tspan>
<tspan x="41" y="333">terms:created (2) [1] D</tspan>
<tspan x="41" y="348">terms:creator (3 67%d) [*] D -&gt; IRI</tspan>
<tspan x="41" y="363">terms:description (1) [1] D</tspan>
<tspan x="41" y="378">terms:format (3) [*] D -&gt; IRI</tspan>
<tspan x="41" y="393">terms:identifier (1) [1] D -&gt; IRI</tspan>
<tspan x="41" y="408">terms:issued (2) [1] </tspan>
<tspan x="41" y="423">terms:license (2) [1] D -&gt; IRI</tspan>
<tspan x="41" y="438">terms:modified (3) [*] </tspan>
<tspan x="41" y="453">terms:publisher (1) [1] D</tspan>
<tspan x="41" y="468">terms:relation (1) [1] D -&gt; IRI</tspan>
<tspan x="41" y="483">terms:rightsHolder (2) [1] D</tspan>
<tspan x="41" y="498">terms:source (8) [*] D</tspan>
<tspan x="41" y="513">terms:title (4) [*] D</tspan>
<tspan x="41" y="528">vann:preferredNamespacePrefix (1) [1] D</tspan>
<tspan x="41" y="543">vann:preferredNamespaceUri (1) [1] D -&gt; IRI</tspan>
<tspan x="41" y="558">&lt;&gt; owl:imports  D</tspan>
<tspan x="41" y="573">&lt;&gt; owl:versionIRI  DR</tspan>
</text>
</g>
<g id="2002716613"><polygon points="1025,444 1390,444 1390,588 1025,588 "
style="fill:White; stroke-width:1;stroke:Black;"/>
<text style="font-family:Arial;font-size:12px;kerning:0;word-spacing:-1px;fill:Black;">
<tspan x="1029" y="458">PREFIX terms: &lt;http://purl.org/dc/terms/&gt;</tspan>
<tspan x="1029" y="473">PREFIX owl: &lt;http://www.w3.org/2002/07/owl#&gt;</tspan>
<tspan x="1029" y="488">PREFIX skos: &lt;http://www.w3.org/2004/02/skos/core#&gt;</tspan>
<tspan x="1029" y="503">PREFIX rdfs: &lt;http://www.w3.org/2000/01/rdf-schema#&gt;</tspan>
<tspan x="1029" y="518">PREFIX rdf: &lt;http://www.w3.org/1999/02/22-rdf-syntax-ns#&gt;</tspan>
<tspan x="1029" y="533">PREFIX vann: &lt;http://purl.org/vocab/vann/&gt;</tspan>
<tspan x="1029" y="548">PREFIX frdef: &lt;http://ontology.inrae.fr/frenchcropusage/res/def/&gt;</tspan>
<tspan x="1029" y="563">PREFIX pav: &lt;http://purl.org/pav/&gt;</tspan>
<tspan x="1029" y="578">PREFIX foaf: &lt;http://xmlns.com/foaf/0.1/&gt;</tspan>
</text>
</g>
<g id="2002716624"><polygon points="510,383 690,383 690,448 510,448 "
style="fill:#F4D03F; stroke-width:1;stroke:Black;"/>
<text style="font-family:Arial;font-size:12px;kerning:0;word-spacing:-1px;fill:Black;font-weight:bold;">
<tspan x="529" y="398">owl:DatatypeProperty (2)</tspan>
</text>
<line x1="514" y1="401" x2="688" y2="401"
 style="stroke-width:1;stroke:Black;"/>
<text style="font-family:Arial;font-size:12px;kerning:0;word-spacing:-1px;fill:Black;">
<tspan x="514" y="413">rdf:type (2) [*]  -&gt; IRI</tspan>
<tspan x="514" y="428">rdfs:label (1) [*] </tspan>
<tspan x="514" y="443">skos:definition (1) [*] </tspan>
</text>
</g>
<g id="2002716635"><polygon points="713,201 899,201 899,260 713,260 "
style="fill:#F4D03F; stroke-width:1;stroke:Black;"/>
<text style="font-family:Arial;font-size:12px;kerning:0;word-spacing:-1px;fill:Black;font-weight:bold;">
<tspan x="733" y="216">skos:ConceptScheme (1)</tspan>
</text>
</g>
<g id="2002794757"><polygon points="505,32 935,32 935,84 505,84 "
style="fill:none; stroke-width:1;stroke:Black;"/>
<text style="font-family:Arial;font-size:18px;kerning:0;word-spacing:-1px;fill:Black;font-weight:bold;">
<tspan x="596" y="52">Thesaurus FrenchCropUsage</tspan>
<tspan x="528" y="74">http://ontology.inrae.fr/frenchcropusage/sparql</tspan>
</text>
</g>
<g id="2002716474"><path d="M543,262 L543,218 "
style="fill:none;stroke-width:1;stroke:Black;"/>
<line x1="540" y1="224" x2="543" y2="218"
 style="stroke-width:1;stroke:Black;"/>
<line x1="546" y1="224" x2="543" y2="218"
 style="stroke-width:1;stroke:Black;"/>
<text style="font-family:Arial;font-size:12px;kerning:0;word-spacing:-1px;fill:Black;">
<tspan x="451" y="243">rdfs:range  DR</tspan>
<tspan x="451" y="258">rdfs:domain  DR</tspan>
</text>
</g>
<g id="2002716479"><path d="M599,448 L599,490 "
style="fill:none;stroke-width:1;stroke:Black;"/>
<line x1="596" y1="484" x2="599" y2="490"
 style="stroke-width:1;stroke:Black;"/>
<line x1="602" y1="484" x2="599" y2="490"
 style="stroke-width:1;stroke:Black;"/>
<text style="font-family:Arial;font-size:12px;kerning:0;word-spacing:-1px;fill:Black;">
<tspan x="601" y="463">rdfs:subPropertyOf  </tspan>
</text>
</g>
<g id="2002716484"><path d="M612,383 L612,342 "
style="fill:none;stroke-width:1;stroke:Black;"/>
<line x1="609" y1="348" x2="612" y2="342"
 style="stroke-width:1;stroke:Black;"/>
<line x1="615" y1="348" x2="612" y2="342"
 style="stroke-width:1;stroke:Black;"/>
<text style="font-family:Arial;font-size:12px;kerning:0;word-spacing:-1px;fill:Black;">
<tspan x="502" y="379">rdfs:subPropertyOf  </tspan>
</text>
</g>
<g id="2002716489"><path d="M494,342 L494,490 "
style="fill:none;stroke-width:1;stroke:Black;"/>
<line x1="491" y1="484" x2="494" y2="490"
 style="stroke-width:1;stroke:Black;"/>
<line x1="497" y1="484" x2="494" y2="490"
 style="stroke-width:1;stroke:Black;"/>
<text style="font-family:Arial;font-size:12px;kerning:0;word-spacing:-1px;fill:Black;">
<tspan x="496" y="357">rdfs:subPropertyOf  </tspan>
</text>
</g>
<g id="2002716494"><path d="M899,254 L1103,254 "
style="fill:none;stroke-width:1;stroke:Black;"/>
<line x1="1097" y1="251" x2="1103" y2="254"
 style="stroke-width:1;stroke:Black;"/>
<line x1="1097" y1="257" x2="1103" y2="254"
 style="stroke-width:1;stroke:Black;"/>
<text style="font-family:Arial;font-size:12px;kerning:0;word-spacing:-1px;fill:Black;">
<tspan x="903" y="252">skos:hasTopConcept  DR</tspan>
</text>
</g>
<g id="2002716499"><path d="M869,401 L1103,401 "
style="fill:none;stroke-width:1;stroke:Black;"/>
<line x1="1097" y1="398" x2="1103" y2="401"
 style="stroke-width:1;stroke:Black;"/>
<line x1="1097" y1="404" x2="1103" y2="401"
 style="stroke-width:1;stroke:Black;"/>
<text style="font-family:Arial;font-size:12px;kerning:0;word-spacing:-1px;fill:Black;">
<tspan x="873" y="399">skos:member  DR</tspan>
</text>
</g>
<g id="2002716504"><path d="M463,490 L463,342 "
style="fill:none;stroke-width:1;stroke:Black;"/>
<line x1="460" y1="348" x2="463" y2="342"
 style="stroke-width:1;stroke:Black;"/>
<line x1="466" y1="348" x2="463" y2="342"
 style="stroke-width:1;stroke:Black;"/>
<text style="font-family:Arial;font-size:12px;kerning:0;word-spacing:-1px;fill:Black;">
<tspan x="353" y="486">rdfs:subPropertyOf  </tspan>
</text>
</g>
<g id="2002716509"><path d="M788,158 L788,201 "
style="fill:none;stroke-width:1;stroke:Black;"/>
<line x1="785" y1="195" x2="788" y2="201"
 style="stroke-width:1;stroke:Black;"/>
<line x1="791" y1="195" x2="788" y2="201"
 style="stroke-width:1;stroke:Black;"/>
<text style="font-family:Arial;font-size:12px;kerning:0;word-spacing:-1px;fill:Black;">
<tspan x="790" y="173">owl:hasValue  DR</tspan>
</text>
</g>
<g id="2002716514"><path d="M1103,207 L899,207 "
style="fill:none;stroke-width:1;stroke:Black;"/>
<line x1="905" y1="204" x2="899" y2="207"
 style="stroke-width:1;stroke:Black;"/>
<line x1="905" y1="210" x2="899" y2="207"
 style="stroke-width:1;stroke:Black;"/>
<text style="font-family:Arial;font-size:12px;kerning:0;word-spacing:-1px;fill:Black;">
<tspan x="970" y="220">skos:inScheme  DR</tspan>
<tspan x="970" y="235">skos:topConceptOf  DR</tspan>
</text>
</g>
<g id="2002716519"><path d="M786,349 L786,384 "
style="fill:none;stroke-width:2;stroke:Fuchsia;"/>
<polygon points="791,359 786,349 781,359 "
style="fill:Silver;stroke-width:1;stroke:Black;"/>
<text style="font-family:Arial;font-size:12px;kerning:0;word-spacing:-1px;fill:Black;">
<tspan x="788" y="364"> </tspan>
</text>
</g>
<g id="2002716521"><path d="M784,284 L784,260 "
style="fill:none;stroke-width:2;stroke:Fuchsia;"/>
<polygon points="789,274 784,284 779,274 "
style="fill:Silver;stroke-width:1;stroke:Black;"/>
<text style="font-family:Arial;font-size:12px;kerning:0;word-spacing:-1px;fill:Black;">
<tspan x="772" y="280"> </tspan>
</text>
</g>
<g id="2002716523"><path d="M901,330 L1103,330 "
style="fill:none;stroke-width:2;stroke:Fuchsia;"/>
<polygon points="911,335 901,330 911,325 "
style="fill:Silver;stroke-width:1;stroke:Black;"/>
<text style="font-family:Arial;font-size:12px;kerning:0;word-spacing:-1px;fill:Black;">
<tspan x="905" y="328"> </tspan>
</text>
</g>
</svg>
