<?xml version="1.0" encoding="UTF-8" standalone="no"?>
<!DOCTYPE svg PUBLIC "-//W3C//DTD SVG 1.1//EN"
"http://www.w3.org/Graphics/SVG/1.1/DTD/svg11.dtd">
<svg version="1.1" xmlns="http://www.w3.org/2000/svg"
xmlns:xlink="http://www.w3.org/1999/xlink" xml:space="preserve"
 width="2353" height="1187" viewBox="0 0 2353 1187">
 onmousemove="movetip(evt)" onmouseup="endmove()">
<rect x="0" y="0" width="100%" height="100%" style="fill:White;"/>
<script type="application/ecmascript"> <![CDATA[
var dragtipid = null; var dragcase = false; function init(evt){
if (window.svgDocument==null) svgDocument = evt.target.ownerDocument;
}
function movetip(evt){if (dragtipid!=null){ dragcase = true;
var tip=svgDocument.getElementById(dragtipid);
tip.setAttributeNS(null,"x",evt.clientX-2);
tip.setAttributeNS(null,"y",evt.clientY-2);
}}
function endmove(){dragtipid = null;}
function startmove(evt,id){dragtipid = id; dragcase = false;
var tip=svgDocument.getElementById(dragtipid);
tip.setAttributeNS(null,"x",evt.clientX-2);
tip.setAttributeNS(null,"y",evt.clientY-2);
}
function Showtip(evt,id){ dragtipid = null;
var tip=svgDocument.getElementById(id);
var vis=tip.getAttributeNS(null,"visibility");
if (vis=="hidden"){
tip.setAttributeNS(null,"x",evt.clientX-2);
tip.setAttributeNS(null,"y",evt.clientY-2);
tip.setAttributeNS(null,"visibility","visible");
}}
function Hidetip(id){ dragtipid = null; if (dragcase==false){
var tip=svgDocument.getElementById(id);
tip.setAttributeNS(null,"visibility","hidden");
}}
]]></script>
<defs><linearGradient id="activ1" x1="0%" y1="0%" x2="100%" y2="0%">
<stop offset="0%" style="stop-color:#FFFF00;stop-opacity:1"/>
<stop offset="100%" style="stop-color:#FFFFF0;stop-opacity:1"/>
</linearGradient></defs>
<g id="2002681961"><polygon points="528,769 828,769 828,849 528,849 "
style="fill:#F4D03F; stroke-width:1;stroke:Black;"/>
<text style="font-family:Arial;font-size:12px;kerning:0;word-spacing:-1px;fill:Black;font-weight:bold;">
<tspan x="604" y="784">owl:DatatypeProperty (14)</tspan>
</text>
<line x1="532" y1="787" x2="826" y2="787"
 style="stroke-width:1;stroke:Black;"/>
<text style="font-family:Arial;font-size:12px;kerning:0;word-spacing:-1px;fill:Black;">
<tspan x="532" y="799">rdf:type (24) [*]  -&gt; IRI</tspan>
<tspan x="532" y="814">rdfs:comment (12) [*] </tspan>
<tspan x="532" y="829">rdfs:domain (14) [1]  -&gt; IRI</tspan>
<tspan x="532" y="844">rdfs:label (27) [*] </tspan>
</text>
</g>
<g id="2002681994"><polygon points="490,884 790,884 790,929 490,929 "
style="fill:#F4D03F; stroke-width:1;stroke:Black;"/>
<text style="font-family:Arial;font-size:12px;kerning:0;word-spacing:-1px;fill:Black;font-weight:bold;">
<tspan x="562" y="899">owl:FunctionalProperty (10)</tspan>
</text>
</g>
<g id="2002681917"><polygon points="960,397 1260,397 1260,492 960,492 "
style="fill:#F4D03F; stroke-width:1;stroke:Black;"/>
<text style="font-family:Arial;font-size:12px;kerning:0;word-spacing:-1px;fill:Black;font-weight:bold;">
<tspan x="1039" y="412">owl:ObjectProperty (159)</tspan>
</text>
<line x1="964" y1="415" x2="1258" y2="415"
 style="stroke-width:1;stroke:Black;"/>
<text style="font-family:Arial;font-size:12px;kerning:0;word-spacing:-1px;fill:Black;">
<tspan x="964" y="427">dct:created (1) [1] </tspan>
<tspan x="964" y="442">rdf:type (173) [*]  -&gt; IRI</tspan>
<tspan x="964" y="457">rdfs:comment (478) [*] </tspan>
<tspan x="964" y="472">rdfs:domain (22) [1]  -&gt; IRI</tspan>
<tspan x="964" y="487">rdfs:label (542) [*] </tspan>
</text>
</g>
<g id="2002681906"><polygon points="679,554 979,554 979,614 679,614 "
style="fill:#F4D03F; stroke-width:1;stroke:Black;"/>
<text style="font-family:Arial;font-size:12px;kerning:0;word-spacing:-1px;fill:Black;font-weight:bold;">
<tspan x="782" y="569">rdfs:Datatype (4)</tspan>
</text>
<line x1="683" y1="572" x2="977" y2="572"
 style="stroke-width:1;stroke:Black;"/>
<text style="font-family:Arial;font-size:12px;kerning:0;word-spacing:-1px;fill:Black;">
<tspan x="683" y="584">rdf:type (4) [*]  -&gt; IRI</tspan>
</text>
</g>
<g id="2002681983"><polygon points="127,514 427,514 427,559 127,559 "
style="fill:#F4D03F; stroke-width:1;stroke:Black;"/>
<text style="font-family:Arial;font-size:12px;kerning:0;word-spacing:-1px;fill:Black;font-weight:bold;">
<tspan x="245" y="529">rdf:List (17)</tspan>
</text>
<line x1="131" y1="532" x2="425" y2="532"
 style="stroke-width:1;stroke:Black;"/>
<text style="font-family:Arial;font-size:12px;kerning:0;word-spacing:-1px;fill:Black;">
<tspan x="131" y="544">rdf:type (17) [*]  -&gt; IRI</tspan>
</text>
</g>
<g id="2002681895"><polygon points="52,737 352,737 352,802 52,802 "
style="fill:#F4D03F; stroke-width:1;stroke:Black;"/>
<text style="font-family:Arial;font-size:12px;kerning:0;word-spacing:-1px;fill:Black;font-weight:bold;">
<tspan x="162" y="752">owl:Class (22)</tspan>
</text>
<line x1="56" y1="755" x2="350" y2="755"
 style="stroke-width:1;stroke:Black;"/>
<text style="font-family:Arial;font-size:12px;kerning:0;word-spacing:-1px;fill:Black;">
<tspan x="56" y="767">owl:complementOf (20) [1] D -&gt; IRI</tspan>
<tspan x="56" y="782">owl:unionOf (2) [*]  -&gt; IRI</tspan>
<tspan x="56" y="797">rdf:type (22) [*]  -&gt; IRI</tspan>
</text>
</g>
<g id="2002681873"><polygon points="1218,673 1518,673 1518,851 1218,851 "
style="fill:#F4D03F; stroke-width:1;stroke:Black;"/>
<text style="font-family:Arial;font-size:12px;kerning:0;word-spacing:-1px;fill:Black;font-weight:bold;">
<tspan x="1310" y="688">skosxl:Label (1.1e6)</tspan>
</text>
<line x1="1222" y1="691" x2="1516" y2="691"
 style="stroke-width:1;stroke:Black;"/>
<text style="font-family:Arial;font-size:12px;kerning:0;word-spacing:-1px;fill:Black;">
<tspan x="1222" y="703">aimsa:hasTermType (2.7e5) [*] D</tspan>
<tspan x="1222" y="718">dct:created (1.1e6) [1] </tspan>
<tspan x="1222" y="733">dct:modified (1.7e5) [1] </tspan>
<tspan x="1222" y="748">owl:deprecated (410) [1] </tspan>
<tspan x="1222" y="763">rdf:type (1.1e6) [*]  -&gt; IRI</tspan>
<tspan x="1222" y="778">skos:notation (1.1e6) [1] D</tspan>
<tspan x="1222" y="793">skosxl:literalForm (1.1e6) [1] </tspan>
<tspan x="1222" y="808">void:inDataset (1.1e6) [1]  -&gt; IRI</tspan>
</text>
</g>
<g id="2002681950"><polygon points="1631,149 1931,149 1931,1177 1631,1177 "
style="fill:#F4D03F; stroke-width:1;stroke:Black;"/>
<text style="font-family:Arial;font-size:12px;kerning:0;word-spacing:-1px;fill:Black;font-weight:bold;">
<tspan x="1720" y="164">skos:Concept (4.1e4)</tspan>
</text>
<line x1="1635" y1="167" x2="1929" y2="167"
 style="stroke-width:1;stroke:Black;"/>
<text style="font-family:Arial;font-size:12px;kerning:0;word-spacing:-1px;fill:Black;">
<tspan x="1635" y="179">aimsa:hasCodeISO3Country (220) [1] D</tspan>
<tspan x="1635" y="194">aimsa:isPartOfSubvocabulary (1965) [*] D</tspan>
<tspan x="1635" y="209">aimsa:m49Code (280) [1] </tspan>
<tspan x="1635" y="224">aimst:labelToRemoveValue (6) [1] D</tspan>
<tspan x="1635" y="239">aimst:newAltLabelValue (1) [1] D</tspan>
<tspan x="1635" y="254">aimst:oldAltLabelValue (1) [1] D</tspan>
<tspan x="1635" y="269">aimst:updateDate (7) [1] D</tspan>
<tspan x="1635" y="284">dct:created (4.1e4) [1] </tspan>
<tspan x="1635" y="299">dct:modified (4.1e4) [1] </tspan>
<tspan x="1635" y="314">owl:deprecated (60) [1] </tspan>
<tspan x="1635" y="329">rdf:type (4.1e4) [*]  -&gt; IRI</tspan>
<tspan x="1635" y="344">skos:altLabel (1.7e5) [*] </tspan>
<tspan x="1635" y="359">skos:broadMatch (262) [*] D -&gt; IRI</tspan>
<tspan x="1635" y="374">skos:closeMatch (1.4e4) [*] D -&gt; IRI</tspan>
<tspan x="1635" y="389">skos:definition (1.3e4) [*] D -&gt; IRI</tspan>
<tspan x="1635" y="404">skos:editorialNote (1.1e4) [*] D</tspan>
<tspan x="1635" y="419">skos:exactMatch (3.2e4) [*]  -&gt; IRI</tspan>
<tspan x="1635" y="434">skos:example (3) [*] D</tspan>
<tspan x="1635" y="449">skos:historyNote (283) [*] D</tspan>
<tspan x="1635" y="464">skos:narrowMatch (73) [*] D -&gt; IRI</tspan>
<tspan x="1635" y="479">skos:note (29) [*] D</tspan>
<tspan x="1635" y="494">skos:prefLabel (9.8e5) [*] </tspan>
<tspan x="1635" y="509">skos:scopeNote (1.7e4) [*] D</tspan>
<tspan x="1635" y="524">void:inDataset (4.1e4) [1]  -&gt; IRI</tspan>
</text>
</g>
<g id="2002681862"><polygon points="904,855 1204,855 1204,921 904,921 "
style="fill:#F4D03F; stroke-width:1;stroke:Black;"/>
<polygon points="901,858 1201,858 1201,924 901,924 "
style="fill:#F4D03F; stroke-width:1;stroke:Black;"/>
<text style="font-family:Arial;font-size:12px;kerning:0;word-spacing:-1px;fill:Black;font-weight:bold;">
<tspan x="910" y="873">owl:SymmetricProperty or owl:TransitiveProperty </tspan>
<tspan x="1019" y="889">G101 (~14)</tspan>
</text>
<text style="font-family:Arial;font-size:11px;kerning:0;word-spacing:-1px;fill:Black;font-weight:bold;">
<tspan x="905" y="904">owl:SymmetricProperty (12)</tspan>
<tspan x="905" y="919">owl:TransitiveProperty (2)</tspan>
</text>
</g>
<g id="2002681884"><polygon points="886,1008 1186,1008 1186,1143 886,1143 "
style="fill:#F4D03F; stroke-width:1;stroke:Black;"/>
<text style="font-family:Arial;font-size:12px;kerning:0;word-spacing:-1px;fill:Black;font-weight:bold;">
<tspan x="963" y="1023">skos:ConceptScheme (1)</tspan>
</text>
<line x1="890" y1="1026" x2="1184" y2="1026"
 style="stroke-width:1;stroke:Black;"/>
<text style="font-family:Arial;font-size:12px;kerning:0;word-spacing:-1px;fill:Black;">
<tspan x="890" y="1038">dct:modified (1) [1] </tspan>
<tspan x="890" y="1053">rdf:type (1) [*]  -&gt; IRI</tspan>
<tspan x="890" y="1068">skos:prefLabel (1) [*] </tspan>
<tspan x="890" y="1083">void:inDataset (1) [1]  -&gt; IRI</tspan>
</text>
</g>
<g id="2002681928"><polygon points="35,1062 335,1062 335,1126 35,1126 "
style="fill:#F4D03F; stroke-width:1;stroke:Black;"/>
<text style="font-family:Arial;font-size:12px;kerning:0;word-spacing:-1px;fill:Black;font-weight:bold;">
<tspan x="139" y="1077">owl:Ontology (2)</tspan>
</text>
<line x1="39" y1="1080" x2="333" y2="1080"
 style="stroke-width:1;stroke:Black;"/>
<text style="font-family:Arial;font-size:12px;kerning:0;word-spacing:-1px;fill:Black;">
<tspan x="39" y="1092">rdf:type (3) [*]  -&gt; IRI</tspan>
</text>
</g>
<g id="2002681939"><polygon points="497,1009 797,1009 797,1134 497,1134 "
style="fill:#F4D03F; stroke-width:1;stroke:Black;"/>
<text style="font-family:Arial;font-size:12px;kerning:0;word-spacing:-1px;fill:Black;font-weight:bold;">
<tspan x="593" y="1024">voaf:Vocabulary (1)</tspan>
</text>
<line x1="501" y1="1027" x2="795" y2="1027"
 style="stroke-width:1;stroke:Black;"/>
<text style="font-family:Arial;font-size:12px;kerning:0;word-spacing:-1px;fill:Black;">
<tspan x="501" y="1039">dc:creator (6) [*] D</tspan>
<tspan x="501" y="1054">dc:rights (1) [1] D</tspan>
<tspan x="501" y="1069">dct:creator (1) [1] D -&gt; IRI</tspan>
<tspan x="501" y="1084">dct:licence (1) [1] D -&gt; IRI</tspan>
<tspan x="501" y="1099">dct:modified (1) [1] </tspan>
<tspan x="501" y="1114">voaf:classNumber (1) [1] D</tspan>
<tspan x="501" y="1129">voaf:propertyNumber (1) [1] D</tspan>
</text>
</g>
<g id="2002681972"><polygon points="970,184 1270,184 1270,294 970,294 "
style="fill:#F4D03F; stroke-width:1;stroke:Black;"/>
<text style="font-family:Arial;font-size:12px;kerning:0;word-spacing:-1px;fill:Black;font-weight:bold;">
<tspan x="1078" y="199">foaf:Image (60)</tspan>
</text>
<line x1="974" y1="202" x2="1268" y2="202"
 style="stroke-width:1;stroke:Black;"/>
<text style="font-family:Arial;font-size:12px;kerning:0;word-spacing:-1px;fill:Black;">
<tspan x="974" y="214">dct:created (60) [1] </tspan>
<tspan x="974" y="229">dct:modified (49) [1] </tspan>
<tspan x="974" y="244">dct:source (60) [1]  -&gt; IRI</tspan>
<tspan x="974" y="259">rdf:type (60) [*]  -&gt; IRI</tspan>
<tspan x="974" y="274">rdf:value (60) [1] </tspan>
<tspan x="974" y="289">rdfs:comment (60) [*] </tspan>
</text>
</g>
<g id="2002681761"><path d="M1631,728 L1518,728 "
style="fill:none;stroke-width:1;stroke:Black;"/>
<line x1="1524" y1="725" x2="1518" y2="728"
 style="stroke-width:1;stroke:Black;"/>
<line x1="1524" y1="731" x2="1518" y2="728"
 style="stroke-width:1;stroke:Black;"/>
<text style="font-family:Arial;font-size:12px;kerning:0;word-spacing:-1px;fill:Black;">
<tspan x="1522" y="741">skosxl:prefLabel  R</tspan>
<tspan x="1522" y="756">skosxl:altLabel  R</tspan>
</text>
</g>
<g id="2002681781"><path d="M960,413 L841,413 837,411 835,407 835,397 837,393 841,391 966,391 966,397 "
style="fill:none;stroke-width:1;stroke:Black;"/>
<line x1="963" y1="391" x2="966" y2="397"
 style="stroke-width:1;stroke:Black;"/>
<line x1="969" y1="391" x2="966" y2="397"
 style="stroke-width:1;stroke:Black;"/>
<text style="font-family:Arial;font-size:12px;kerning:0;word-spacing:-1px;fill:Black;">
<tspan x="848" y="426">owl:inverseOf  DR</tspan>
<tspan x="848" y="441">rdfs:subPropertyOf  </tspan>
</text>
</g>
<g id="2002681821"><path d="M528,796 L352,796 "
style="fill:none;stroke-width:1;stroke:Black;"/>
<line x1="358" y1="793" x2="352" y2="796"
 style="stroke-width:1;stroke:Black;"/>
<line x1="358" y1="799" x2="352" y2="796"
 style="stroke-width:1;stroke:Black;"/>
<text style="font-family:Arial;font-size:12px;kerning:0;word-spacing:-1px;fill:Black;">
<tspan x="462" y="809">rdfs:range  </tspan>
</text>
</g>
<g id="2002681836"><path d="M828,811 L979,811 983,809 985,805 985,492 "
style="fill:none;stroke-width:1;stroke:Black;"/>
<line x1="982" y1="498" x2="985" y2="492"
 style="stroke-width:1;stroke:Black;"/>
<line x1="988" y1="498" x2="985" y2="492"
 style="stroke-width:1;stroke:Black;"/>
<text style="font-family:Arial;font-size:12px;kerning:0;word-spacing:-1px;fill:Black;">
<tspan x="832" y="809">rdfs:subPropertyOf  </tspan>
</text>
</g>
<g id="2002681846"><path d="M1631,222 L1270,222 "
style="fill:none;stroke-width:1;stroke:Black;"/>
<line x1="1276" y1="219" x2="1270" y2="222"
 style="stroke-width:1;stroke:Black;"/>
<line x1="1276" y1="225" x2="1270" y2="222"
 style="stroke-width:1;stroke:Black;"/>
<text style="font-family:Arial;font-size:12px;kerning:0;word-spacing:-1px;fill:Black;">
<tspan x="1530" y="235">foaf:depiction  DR</tspan>
</text>
</g>
<g id="2002681858"><path d="M640,849 L640,884 "
style="fill:none;stroke-width:2;stroke:Fuchsia;"/>
<polygon points="645,859 640,849 635,859 "
style="fill:Silver;stroke-width:1;stroke:Black;"/>
<text style="font-family:Arial;font-size:12px;kerning:0;word-spacing:-1px;fill:Black;">
<tspan x="642" y="864"> </tspan>
</text>
</g>
<g id="2002681851"><path d="M960,454 L64,454 60,456 58,460 58,737 "
style="fill:none;stroke-width:1;stroke:Black;"/>
<line x1="55" y1="731" x2="58" y2="737"
 style="stroke-width:1;stroke:Black;"/>
<line x1="61" y1="731" x2="58" y2="737"
 style="stroke-width:1;stroke:Black;"/>
<text style="font-family:Arial;font-size:12px;kerning:0;word-spacing:-1px;fill:Black;">
<tspan x="894" y="467">rdfs:range  </tspan>
</text>
</g>
<g id="2002681796"><path d="M1186,1040 L1337,1040 1341,1038 1343,1034 1343,851 "
style="fill:none;stroke-width:1;stroke:Black;"/>
<line x1="1340" y1="857" x2="1343" y2="851"
 style="stroke-width:1;stroke:Black;"/>
<line x1="1346" y1="857" x2="1343" y2="851"
 style="stroke-width:1;stroke:Black;"/>
<text style="font-family:Arial;font-size:12px;kerning:0;word-spacing:-1px;fill:Black;">
<tspan x="1190" y="1038">skosxl:prefLabel  R</tspan>
</text>
</g>
<g id="2002681811"><path d="M1931,1171 L2336,1171 2340,1169 2342,1165 2342,96 2340,92 2336,90 1643,90 1639,92 1637,96 1637,149 "
style="fill:none;stroke-width:1;stroke:Black;"/>
<line x1="1634" y1="143" x2="1637" y2="149"
 style="stroke-width:1;stroke:Black;"/>
<line x1="1640" y1="143" x2="1637" y2="149"
 style="stroke-width:1;stroke:Black;"/>
<text style="font-family:Arial;font-size:12px;kerning:0;word-spacing:-1px;fill:Black;">
<tspan x="1935" y="164">aimsa:isTaxonomicRankOf  DR</tspan>
<tspan x="1935" y="179">aimsa:hasTaxonomicRank  DR</tspan>
<tspan x="1935" y="194">aimsa:isIncludedIn  DR</tspan>
<tspan x="1935" y="209">aimsa:includes  DR</tspan>
<tspan x="1935" y="224">aimsa:isUsedAs  DR</tspan>
<tspan x="1935" y="239">aimsa:isUseOf  DR</tspan>
<tspan x="1935" y="254">aimsa:affects  DR</tspan>
<tspan x="1935" y="269">aimsa:isAffectedBy  DR</tspan>
<tspan x="1935" y="284">aimsa:hasPathogen  DR</tspan>
<tspan x="1935" y="299">aimsa:isPathogenOf  DR</tspan>
<tspan x="1935" y="314">aimsa:makeUseOf  DR</tspan>
<tspan x="1935" y="329">aimsa:isUsedIn  DR</tspan>
<tspan x="1935" y="344">aimsa:hasComponent  DR</tspan>
<tspan x="1935" y="359">aimsa:isComponentOf  DR</tspan>
<tspan x="1935" y="374">aimsa:produces  DR</tspan>
<tspan x="1935" y="389">aimsa:isProducedBy  DR</tspan>
<tspan x="1935" y="404">aimsa:causes  DR</tspan>
<tspan x="1935" y="419">aimsa:isCausedBy  DR</tspan>
<tspan x="1935" y="434">aimsa:spatiallyIncludes  DR</tspan>
<tspan x="1935" y="449">aimsa:isSpatiallyIncludedIn  DR</tspan>
<tspan x="1935" y="464">aimsa:hasMember  DR</tspan>
<tspan x="1935" y="479">aimsa:isMemberOf  DR</tspan>
<tspan x="1935" y="494">aimsa:hasObjectOfActivity  DR</tspan>
<tspan x="1935" y="509">aimsa:isObjectOfActivity  DR</tspan>
<tspan x="1935" y="524">aimsa:isProcessFor  DR</tspan>
<tspan x="1935" y="539">aimsa:usesProcess  DR</tspan>
<tspan x="1935" y="554">aimsa:isPropertyOf  DR</tspan>
<tspan x="1935" y="569">aimsa:hasProperty  DR</tspan>
<tspan x="1935" y="584">aimsa:study  DR</tspan>
<tspan x="1935" y="599">aimsa:isSourceOf  DR</tspan>
<tspan x="1935" y="614">aimsa:isStudiedBy  DR</tspan>
<tspan x="1935" y="629">aimsa:isDerivedFrom  DR</tspan>
<tspan x="1935" y="644">aimsa:compose  DR</tspan>
<tspan x="1935" y="659">aimsa:isComposedOf  DR</tspan>
<tspan x="1935" y="674">aimsa:isAchievedByMeansOf  DR</tspan>
<tspan x="1935" y="689">aimsa:hasGoalOrProcess  DR</tspan>
<tspan x="1935" y="704">aimsa:isMadeFrom  DR</tspan>
<tspan x="1935" y="719">aimsa:isUsedToMake  DR</tspan>
<tspan x="1935" y="734">aimsa:productOf  DR</tspan>
<tspan x="1935" y="749">aimsa:hasProduct  DR</tspan>
<tspan x="1935" y="764">aimsa:hasCommonNameConcept  </tspan>
<tspan x="1935" y="779">DR</tspan>
<tspan x="1935" y="794">aimsa:hasTaxonomicConcept  DR</tspan>
<tspan x="1935" y="809">aimsa:afflicts  DR</tspan>
<tspan x="1935" y="824">aimsa:isAfflictedBy  DR</tspan>
<tspan x="1935" y="839">aimsa:isMeasuredBy  DR</tspan>
<tspan x="1935" y="854">aimsa:measures  DR</tspan>
<tspan x="1935" y="869">aimsa:isPartOf  DR</tspan>
<tspan x="1935" y="884">aimsa:hasPart  DR</tspan>
<tspan x="1935" y="899">aimsa:hasDisease  DR</tspan>
<tspan x="1935" y="914">aimsa:isDiseaseFor  DR</tspan>
<tspan x="1935" y="929">aimsa:hasType  DR</tspan>
<tspan x="1935" y="944">aimsa:typeOf  DR</tspan>
<tspan x="1935" y="959">aimsa:hasPest  DR</tspan>
<tspan x="1935" y="974">aimsa:pestOf  DR</tspan>
<tspan x="1935" y="989">aimsa:surrounds  DR</tspan>
<tspan x="1935" y="1004">aimsa:surroundedBy  DR</tspan>
<tspan x="1935" y="1019">aimsa:isPreventedBy  DR</tspan>
<tspan x="1935" y="1034">aimsa:prevents  DR</tspan>
<tspan x="1935" y="1049">aimsa:hasSymptom  DR</tspan>
<tspan x="1935" y="1064">aimsa:indicates  DR</tspan>
<tspan x="1935" y="1079">aimsa:hasHost  DR</tspan>
<tspan x="1935" y="1094">aimsa:isHostFor  DR</tspan>
<tspan x="1935" y="1109">dct:isReplacedBy  D</tspan>
<tspan x="1935" y="1124">skos:narrower  DR</tspan>
<tspan x="1935" y="1139">skos:broader  DR</tspan>
<tspan x="1935" y="1154">skos:related  DR</tspan>
<tspan x="1935" y="1169">skos:relatedMatch  D</tspan>
</text>
</g>
<g id="2002681766"><path d="M1270,673 L1270,521 1272,517 1276,515 1464,515 1468,517 1470,521 1470,673 "
style="fill:none;stroke-width:1;stroke:Black;"/>
<line x1="1467" y1="667" x2="1470" y2="673"
 style="stroke-width:1;stroke:Black;"/>
<line x1="1473" y1="667" x2="1470" y2="673"
 style="stroke-width:1;stroke:Black;"/>
<text style="font-family:Arial;font-size:12px;kerning:0;word-spacing:-1px;fill:Black;">
<tspan x="1102" y="534">aimsa:isAcronymOf  DR</tspan>
<tspan x="1102" y="549">aimsa:hasSynonym  DR</tspan>
<tspan x="1102" y="564">aimsa:hasRelatedTerm  DR</tspan>
<tspan x="1102" y="579">aimsa:scientificNameOf  DR</tspan>
<tspan x="1102" y="594">aimsa:hasScientificName  DR</tspan>
<tspan x="1102" y="609">aimsa:hasAcronym  DR</tspan>
<tspan x="1102" y="624">aimsa:hasOldName  DR</tspan>
<tspan x="1102" y="639">aimsa:isOldNameOf  DR</tspan>
<tspan x="1102" y="654">aimsa:isSymbolFor  DR</tspan>
<tspan x="1102" y="669">aimsa:hasSymbol  DR</tspan>
</text>
</g>
<g id="2002681816"><path d="M1631,1058 L1186,1058 "
style="fill:none;stroke-width:1;stroke:Black;"/>
<line x1="1192" y1="1055" x2="1186" y2="1058"
 style="stroke-width:1;stroke:Black;"/>
<line x1="1192" y1="1061" x2="1186" y2="1058"
 style="stroke-width:1;stroke:Black;"/>
<text style="font-family:Arial;font-size:12px;kerning:0;word-spacing:-1px;fill:Black;">
<tspan x="1498" y="1071">skos:inScheme  DR</tspan>
<tspan x="1498" y="1086">skos:topConceptOf  DR</tspan>
</text>
</g>
<g id="2002681786"><path d="M291,559 L291,737 "
style="fill:none;stroke-width:1;stroke:Black;"/>
<line x1="288" y1="731" x2="291" y2="737"
 style="stroke-width:1;stroke:Black;"/>
<line x1="294" y1="731" x2="291" y2="737"
 style="stroke-width:1;stroke:Black;"/>
<text style="font-family:Arial;font-size:12px;kerning:0;word-spacing:-1px;fill:Black;">
<tspan x="293" y="574">rdf:first  </tspan>
</text>
</g>
<g id="2002681791"><path d="M127,521 L77,521 73,519 71,515 71,487 73,483 77,481 220,481 224,483 226,487 226,514 "
style="fill:none;stroke-width:1;stroke:Black;"/>
<line x1="223" y1="508" x2="226" y2="514"
 style="stroke-width:1;stroke:Black;"/>
<line x1="229" y1="508" x2="226" y2="514"
 style="stroke-width:1;stroke:Black;"/>
<text style="font-family:Arial;font-size:12px;kerning:0;word-spacing:-1px;fill:Black;">
<tspan x="79" y="534">rdf:rest  </tspan>
</text>
</g>
<g id="2002681771"><path d="M960,475 L892,475 888,477 886,481 886,554 "
style="fill:none;stroke-width:1;stroke:Black;"/>
<line x1="883" y1="548" x2="886" y2="554"
 style="stroke-width:1;stroke:Black;"/>
<line x1="889" y1="548" x2="886" y2="554"
 style="stroke-width:1;stroke:Black;"/>
<text style="font-family:Arial;font-size:12px;kerning:0;word-spacing:-1px;fill:Black;">
<tspan x="894" y="488">rdfs:range  </tspan>
</text>
</g>
<g id="2002681831"><path d="M679,566 L538,566 534,564 532,560 532,525 534,521 538,519 794,519 798,521 800,525 800,554 "
style="fill:none;stroke-width:1;stroke:Black;"/>
<line x1="797" y1="548" x2="800" y2="554"
 style="stroke-width:1;stroke:Black;"/>
<line x1="803" y1="548" x2="800" y2="554"
 style="stroke-width:1;stroke:Black;"/>
<text style="font-family:Arial;font-size:12px;kerning:0;word-spacing:-1px;fill:Black;">
<tspan x="540" y="579">owl:equivalentClass  DR</tspan>
</text>
</g>
<g id="2002681826"><path d="M679,587 L377,587 373,585 371,581 371,559 "
style="fill:none;stroke-width:1;stroke:Black;"/>
<line x1="368" y1="565" x2="371" y2="559"
 style="stroke-width:1;stroke:Black;"/>
<line x1="374" y1="565" x2="371" y2="559"
 style="stroke-width:1;stroke:Black;"/>
<text style="font-family:Arial;font-size:12px;kerning:0;word-spacing:-1px;fill:Black;">
<tspan x="596" y="600">owl:oneOf  DR</tspan>
</text>
</g>
<g id="2002681841"><path d="M743,769 L743,614 "
style="fill:none;stroke-width:1;stroke:Black;"/>
<line x1="740" y1="620" x2="743" y2="614"
 style="stroke-width:1;stroke:Black;"/>
<line x1="746" y1="620" x2="743" y2="614"
 style="stroke-width:1;stroke:Black;"/>
<text style="font-family:Arial;font-size:12px;kerning:0;word-spacing:-1px;fill:Black;">
<tspan x="679" y="765">rdfs:range  </tspan>
</text>
</g>
<g id="2002681856"><path d="M1041,492 L1041,858 "
style="fill:none;stroke-width:2;stroke:Fuchsia;"/>
<polygon points="1046,502 1041,492 1036,502 "
style="fill:Silver;stroke-width:1;stroke:Black;"/>
<text style="font-family:Arial;font-size:12px;kerning:0;word-spacing:-1px;fill:Black;">
<tspan x="1043" y="507"> </tspan>
</text>
</g>
<g id="2002681776"><path d="M1186,1101 L1631,1101 "
style="fill:none;stroke-width:1;stroke:Black;"/>
<line x1="1625" y1="1098" x2="1631" y2="1101"
 style="stroke-width:1;stroke:Black;"/>
<line x1="1625" y1="1104" x2="1631" y2="1101"
 style="stroke-width:1;stroke:Black;"/>
<text style="font-family:Arial;font-size:12px;kerning:0;word-spacing:-1px;fill:Black;">
<tspan x="1190" y="1099">skos:hasTopConcept  DR</tspan>
</text>
</g>
<g id="2002681806"><path d="M335,1105 L497,1105 "
style="fill:none;stroke-width:1;stroke:Black;"/>
<line x1="491" y1="1102" x2="497" y2="1105"
 style="stroke-width:1;stroke:Black;"/>
<line x1="491" y1="1108" x2="497" y2="1105"
 style="stroke-width:1;stroke:Black;"/>
<text style="font-family:Arial;font-size:12px;kerning:0;word-spacing:-1px;fill:Black;">
<tspan x="339" y="1103">owl:imports  D</tspan>
</text>
</g>
<g id="2002681860"><path d="M335,1084 L497,1084 "
style="fill:none;stroke-width:2;stroke:Fuchsia;"/>
<polygon points="345,1089 335,1084 345,1079 "
style="fill:Silver;stroke-width:1;stroke:Black;"/>
<text style="font-family:Arial;font-size:12px;kerning:0;word-spacing:-1px;fill:Black;">
<tspan x="339" y="1082"> </tspan>
</text>
</g>
<g id="2002681801"><path d="M797,1094 L886,1094 "
style="fill:none;stroke-width:1;stroke:Black;"/>
<line x1="880" y1="1091" x2="886" y2="1094"
 style="stroke-width:1;stroke:Black;"/>
<line x1="880" y1="1097" x2="886" y2="1094"
 style="stroke-width:1;stroke:Black;"/>
<text style="font-family:Arial;font-size:12px;kerning:0;word-spacing:-1px;fill:Black;">
<tspan x="801" y="1092">voaf:dataset  D</tspan>
</text>
</g>
</svg>
