<?xml version="1.0" encoding="UTF-8" standalone="no"?>
<!DOCTYPE svg PUBLIC "-//W3C//DTD SVG 1.1//EN"
"http://www.w3.org/Graphics/SVG/1.1/DTD/svg11.dtd">
<svg version="1.1" xmlns="http://www.w3.org/2000/svg"
xmlns:xlink="http://www.w3.org/1999/xlink" xml:space="preserve"
 width="1143" height="717" viewBox="0 0 1143 717">
 onmousemove="movetip(evt)" onmouseup="endmove()">
<rect x="0" y="0" width="100%" height="100%" style="fill:White;"/>
<script type="application/ecmascript"> <![CDATA[
var dragtipid = null; var dragcase = false; function init(evt){
if (window.svgDocument==null) svgDocument = evt.target.ownerDocument;
}
function movetip(evt){if (dragtipid!=null){ dragcase = true;
var tip=svgDocument.getElementById(dragtipid);
tip.setAttributeNS(null,"x",evt.clientX-2);
tip.setAttributeNS(null,"y",evt.clientY-2);
}}
function endmove(){dragtipid = null;}
function startmove(evt,id){dragtipid = id; dragcase = false;
var tip=svgDocument.getElementById(dragtipid);
tip.setAttributeNS(null,"x",evt.clientX-2);
tip.setAttributeNS(null,"y",evt.clientY-2);
}
function Showtip(evt,id){ dragtipid = null;
var tip=svgDocument.getElementById(id);
var vis=tip.getAttributeNS(null,"visibility");
if (vis=="hidden"){
tip.setAttributeNS(null,"x",evt.clientX-2);
tip.setAttributeNS(null,"y",evt.clientY-2);
tip.setAttributeNS(null,"visibility","visible");
}}
function Hidetip(id){ dragtipid = null; if (dragcase==false){
var tip=svgDocument.getElementById(id);
tip.setAttributeNS(null,"visibility","hidden");
}}
]]></script>
<defs><linearGradient id="activ1" x1="0%" y1="0%" x2="100%" y2="0%">
<stop offset="0%" style="stop-color:#FFFF00;stop-opacity:1"/>
<stop offset="100%" style="stop-color:#FFFFF0;stop-opacity:1"/>
</linearGradient></defs>
<g id="2002712123"><polygon points="451,303 769,303 769,369 451,369 "
style="fill:#F4D03F; stroke-width:1;stroke:Black;"/>
<polygon points="448,306 766,306 766,371 448,371 "
style="fill:#F4D03F; stroke-width:1;stroke:Black;"/>
<text style="font-family:Arial;font-size:12px;kerning:0;word-spacing:-1px;fill:Black;font-weight:bold;">
<tspan x="520" y="321">owl:DatatypeProperty or ginco:</tspan>
<tspan x="507" y="337">CustomConceptAttribute G101 (94)</tspan>
</text>
<text style="font-family:Arial;font-size:11px;kerning:0;word-spacing:-1px;fill:Black;font-weight:bold;">
<tspan x="452" y="352">ginco:CustomConceptAttribute (8)</tspan>
<tspan x="452" y="367">owl:DatatypeProperty (86)</tspan>
</text>
</g>
<g id="2002712134"><polygon points="486,488 689,488 689,567 486,567 "
style="fill:#F4D03F; stroke-width:1;stroke:Black;"/>
<text style="font-family:Arial;font-size:12px;kerning:0;word-spacing:-1px;fill:Black;font-weight:bold;">
<tspan x="531" y="503">skos:Collection (33)</tspan>
</text>
<line x1="490" y1="506" x2="687" y2="506"
 style="stroke-width:1;stroke:Black;"/>
<text style="font-family:Arial;font-size:12px;kerning:0;word-spacing:-1px;fill:Black;">
<tspan x="490" y="518">dct:created (33) [1] </tspan>
<tspan x="490" y="533">dct:modified (33) [1] </tspan>
<tspan x="490" y="548">skos:prefLabel (33) [*] </tspan>
<tspan x="490" y="563">&lt;&gt; skos:member  D</tspan>
</text>
</g>
<g id="2002712145"><polygon points="452,88 748,88 748,137 452,137 "
style="fill:#F4D03F; stroke-width:1;stroke:Black;"/>
<text style="font-family:Arial;font-size:12px;kerning:0;word-spacing:-1px;fill:Black;font-weight:bold;">
<tspan x="529" y="103">owl:ObjectProperty (396)</tspan>
</text>
<line x1="455" y1="106" x2="746" y2="106"
 style="stroke-width:1;stroke:Black;"/>
<text style="font-family:Arial;font-size:12px;kerning:0;word-spacing:-1px;fill:Black;">
<tspan x="455" y="118">rdfs:subPropertyOf (1.7e4) [1] D -&gt; IRI</tspan>
<tspan x="455" y="133">&lt;&gt; owl:inverseOf  DR</tspan>
</text>
</g>
<g id="2002712156"><polygon points="46,424 343,424 343,707 46,707 "
style="fill:#F4D03F; stroke-width:1;stroke:Black;"/>
<text style="font-family:Arial;font-size:12px;kerning:0;word-spacing:-1px;fill:Black;font-weight:bold;">
<tspan x="119" y="439">skos:ConceptScheme (44)</tspan>
</text>
<line x1="50" y1="442" x2="341" y2="442"
 style="stroke-width:1;stroke:Black;"/>
<text style="font-family:Arial;font-size:12px;kerning:0;word-spacing:-1px;fill:Black;">
<tspan x="50" y="454">dc:contributor (63) [*] D</tspan>
<tspan x="50" y="469">dc:coverage (52) [*] D</tspan>
<tspan x="50" y="484">dc:description (44) [1] D</tspan>
<tspan x="50" y="499">dc:language (62) [*] D</tspan>
<tspan x="50" y="514">dc:publisher (44) [1] D</tspan>
<tspan x="50" y="529">dc:relation (44) [1] D</tspan>
<tspan x="50" y="544">dc:rights (44) [1] D</tspan>
<tspan x="50" y="559">dc:source (44) [1] </tspan>
<tspan x="50" y="574">dc:subject (91) [*] D</tspan>
<tspan x="50" y="589">dc:title (44) [1] D</tspan>
<tspan x="50" y="604">dc:type (42) [1] D</tspan>
<tspan x="50" y="619">dct:created (44) [1] </tspan>
<tspan x="50" y="634">dct:dateSubmitted (53) [*] D</tspan>
<tspan x="50" y="649">dct:issued (44) [1] D</tspan>
<tspan x="50" y="664">dct:modified (44) [1] </tspan>
<tspan x="50" y="679">tdct:modified (4) [1] D</tspan>
</text>
</g>
<g id="2002712167"><polygon points="439,180 769,180 769,230 439,230 "
style="fill:#FBECAE; stroke-width:1;stroke:Black;"/>
<text style="font-family:Arial;font-size:12px;kerning:0;word-spacing:-1px;fill:Black;font-weight:bold;">
<tspan x="453" y="195">owl:ObjectProperty or owl:DatatypeProperty or ginco:</tspan>
<tspan x="498" y="211">CustomConceptAttribute S103 (~490)</tspan>
</text>
<line x1="443" y1="213" x2="767" y2="213"
 style="stroke-width:1;stroke:Black;"/>
<text style="font-family:Arial;font-size:12px;kerning:0;word-spacing:-1px;fill:Black;">
<tspan x="443" y="225">rdfs:label (3722) [1] </tspan>
</text>
</g>
<g id="2002712178"><polygon points="41,317 337,317 337,381 41,381 "
style="fill:#F4D03F; stroke-width:1;stroke:Black;"/>
<text style="font-family:Arial;font-size:12px;kerning:0;word-spacing:-1px;fill:Black;font-weight:bold;">
<tspan x="128" y="332">foaf:Organization (43)</tspan>
</text>
<line x1="44" y1="335" x2="335" y2="335"
 style="stroke-width:1;stroke:Black;"/>
<text style="font-family:Arial;font-size:12px;kerning:0;word-spacing:-1px;fill:Black;">
<tspan x="44" y="347">foaf:homepage (42) [1] D</tspan>
<tspan x="44" y="362">foaf:mbox (40) [1] D</tspan>
<tspan x="44" y="377">foaf:name (43) [1] D</tspan>
</text>
</g>
<g id="2002712189"><polygon points="41,100 392,100 392,276 41,276 "
style="fill:White; stroke-width:1;stroke:Black;"/>
<text style="font-family:Arial;font-size:12px;kerning:0;word-spacing:-1px;fill:Black;">
<tspan x="44" y="114">PREFIX skos: &lt;http://www.w3.org/2004/02/skos/core#&gt;</tspan>
<tspan x="44" y="129">PREFIX dc: &lt;http://purl.org/dc/elements/1.1/&gt;</tspan>
<tspan x="44" y="144">PREFIX foaf: &lt;http://xmlns.com/foaf/0.1/&gt;</tspan>
<tspan x="44" y="159">PREFIX dct: &lt;http://purl.org/dc/terms/&gt;</tspan>
<tspan x="44" y="174">PREFIX skosxl: &lt;http://www.w3.org/2008/05/skos-xl#&gt;</tspan>
<tspan x="44" y="189">PREFIX skosthes: &lt;http://purl.org/iso25964/skos-thes#&gt;</tspan>
<tspan x="44" y="204">PREFIX owl: &lt;http://www.w3.org/2002/07/owl#&gt;</tspan>
<tspan x="44" y="219">PREFIX ginco: &lt;http://data.culture.fr/thesaurus/ginco/ns/&gt;</tspan>
<tspan x="44" y="234">PREFIX rdfs: &lt;http://www.w3.org/2000/01/rdf-schema#&gt;</tspan>
<tspan x="44" y="249">PREFIX rdf: &lt;http://www.w3.org/1999/02/22-rdf-syntax-ns#&gt;</tspan>
<tspan x="44" y="264">PREFIX tdct: &lt;http://purl.org/dc/terms/dataculturethesaurus&gt;</tspan>
</text>
</g>
<g id="2002712200"><polygon points="837,342 1133,342 1133,702 837,702 "
style="fill:#F4D03F; stroke-width:1;stroke:Black;"/>
<text style="font-family:Arial;font-size:12px;kerning:0;word-spacing:-1px;fill:Black;font-weight:bold;">
<tspan x="924" y="357">skos:Concept (1.0e5)</tspan>
</text>
<line x1="841" y1="360" x2="1131" y2="360"
 style="stroke-width:1;stroke:Black;"/>
<text style="font-family:Arial;font-size:12px;kerning:0;word-spacing:-1px;fill:Black;">
<tspan x="841" y="372">dct:created (1.0e5) [1] </tspan>
<tspan x="841" y="387">dct:modified (1.0e5) [1] </tspan>
<tspan x="841" y="402">foaf:depiction (6141) [*] D -&gt; IRI</tspan>
<tspan x="841" y="417">foaf:focus (354) [*] D -&gt; IRI</tspan>
<tspan x="841" y="432">ginco:focus (442) [1] D</tspan>
<tspan x="841" y="447">skos:altLabel (2.9e4) [*] D</tspan>
<tspan x="841" y="462">skos:definition (4460) [*] D</tspan>
<tspan x="841" y="477">skos:example (18) [1] D</tspan>
<tspan x="841" y="492">skos:hiddenLabel (14) [1] D</tspan>
<tspan x="841" y="507">skos:historyNote (219) [*] D</tspan>
<tspan x="841" y="522">skos:notation (7.4e4) [1] D</tspan>
<tspan x="841" y="537">skos:prefLabel (1.1e5) [*] </tspan>
<tspan x="841" y="552">skos:scopeNote (1139) [1] D</tspan>
<tspan x="841" y="567">skosthes:status (1.0e5) [1] </tspan>
<tspan x="841" y="582">&lt;&gt; ginco:TermeAssocie  DR</tspan>
<tspan x="841" y="597">&lt;&gt; skos:broadMatch  D</tspan>
<tspan x="841" y="612">&lt;&gt; skos:broader  DR</tspan>
<tspan x="841" y="627">&lt;&gt; skos:closeMatch  D</tspan>
<tspan x="841" y="642">&lt;&gt; skos:exactMatch  D</tspan>
<tspan x="841" y="657">&lt;&gt; skos:narrowMatch  D</tspan>
<tspan x="841" y="672">&lt;&gt; skos:narrower  DR</tspan>
<tspan x="841" y="687">&lt;&gt; skos:related  DR</tspan>
<tspan x="841" y="702">&lt;&gt; skos:relatedMatch  D</tspan>
</text>
</g>
<g id="2002712211"><polygon points="840,97 1136,97 1136,236 840,236 "
style="fill:#F4D03F; stroke-width:1;stroke:Black;"/>
<polygon points="837,100 1133,100 1133,239 837,239 "
style="fill:#F4D03F; stroke-width:1;stroke:Black;"/>
<text style="font-family:Arial;font-size:12px;kerning:0;word-spacing:-1px;fill:Black;font-weight:bold;">
<tspan x="880" y="115">skosthes:PreferredTerm or skosthes:</tspan>
<tspan x="876" y="131">SimpleNonPreferredTerm G102 (1.3e5)</tspan>
</text>
<line x1="841" y1="133" x2="1131" y2="133"
 style="stroke-width:1;stroke:Black;"/>
<text style="font-family:Arial;font-size:12px;kerning:0;word-spacing:-1px;fill:Black;">
<tspan x="841" y="145">dc:source (32) [1] </tspan>
<tspan x="841" y="160">dct:created (1.3e5) [1] </tspan>
<tspan x="841" y="175">dct:modified (1.3e5) [1] </tspan>
<tspan x="841" y="190">skosthes:status (1.3e5) [1] </tspan>
<tspan x="841" y="205">skosxl:literalForm (1.3e5) [1] </tspan>
</text>
<text style="font-family:Arial;font-size:11px;kerning:0;word-spacing:-1px;fill:Black;font-weight:bold;">
<tspan x="841" y="219">skosthes:PreferredTerm (1.1e5)</tspan>
<tspan x="841" y="234">skosthes:SimpleNonPreferredTerm (2.9e4)</tspan>
</text>
</g>
<g id="2002794528"><polygon points="405,21 775,21 775,72 405,72 "
style="fill:none; stroke-width:1;stroke:Black;"/>
<text style="font-family:Arial;font-size:18px;kerning:0;word-spacing:-1px;fill:Black;font-weight:bold;">
<tspan x="482" y="41">French Cultural Thesaurus</tspan>
<tspan x="441" y="63">http://data.culture.fr/thesaurus/sparql</tspan>
</text>
</g>
<g id="2002712059"><path d="M486,532 L343,532 "
style="fill:none;stroke-width:1;stroke:Black;"/>
<line x1="349" y1="529" x2="343" y2="532"
 style="stroke-width:1;stroke:Black;"/>
<line x1="349" y1="535" x2="343" y2="532"
 style="stroke-width:1;stroke:Black;"/>
<text style="font-family:Arial;font-size:12px;kerning:0;word-spacing:-1px;fill:Black;">
<tspan x="382" y="545">skos:inScheme  R</tspan>
</text>
</g>
<g id="2002712064"><path d="M337,344 L448,344 "
style="fill:none;stroke-width:1;stroke:Black;"/>
<line x1="442" y1="341" x2="448" y2="344"
 style="stroke-width:1;stroke:Black;"/>
<line x1="442" y1="347" x2="448" y2="344"
 style="stroke-width:1;stroke:Black;"/>
<text style="font-family:Arial;font-size:12px;kerning:0;word-spacing:-1px;fill:Black;">
<tspan x="341" y="342">rdf:type  </tspan>
</text>
</g>
<g id="2002712069"><path d="M343,636 L837,636 "
style="fill:none;stroke-width:1;stroke:Black;"/>
<line x1="831" y1="633" x2="837" y2="636"
 style="stroke-width:1;stroke:Black;"/>
<line x1="831" y1="639" x2="837" y2="636"
 style="stroke-width:1;stroke:Black;"/>
<text style="font-family:Arial;font-size:12px;kerning:0;word-spacing:-1px;fill:Black;">
<tspan x="347" y="634">skos:hasTopConcept  DR</tspan>
</text>
</g>
<g id="2002712074"><path d="M689,528 L837,528 "
style="fill:none;stroke-width:1;stroke:Black;"/>
<line x1="831" y1="525" x2="837" y2="528"
 style="stroke-width:1;stroke:Black;"/>
<line x1="831" y1="531" x2="837" y2="528"
 style="stroke-width:1;stroke:Black;"/>
<text style="font-family:Arial;font-size:12px;kerning:0;word-spacing:-1px;fill:Black;">
<tspan x="693" y="526">skos:member  D</tspan>
</text>
</g>
<g id="2002712079"><path d="M837,404 L726,404 722,402 720,398 720,371 "
style="fill:none;stroke-width:1;stroke:Black;"/>
<line x1="717" y1="377" x2="720" y2="371"
 style="stroke-width:1;stroke:Black;"/>
<line x1="723" y1="377" x2="720" y2="371"
 style="stroke-width:1;stroke:Black;"/>
<text style="font-family:Arial;font-size:12px;kerning:0;word-spacing:-1px;fill:Black;">
<tspan x="788" y="417">rdf:type  </tspan>
</text>
</g>
<g id="2002712084"><path d="M837,593 L343,593 "
style="fill:none;stroke-width:1;stroke:Black;"/>
<line x1="349" y1="590" x2="343" y2="593"
 style="stroke-width:1;stroke:Black;"/>
<line x1="349" y1="596" x2="343" y2="593"
 style="stroke-width:1;stroke:Black;"/>
<text style="font-family:Arial;font-size:12px;kerning:0;word-spacing:-1px;fill:Black;">
<tspan x="733" y="606">skos:inScheme  R</tspan>
</text>
</g>
<g id="2002712089"><path d="M866,239 L866,317 865,321 861,323 766,323 "
style="fill:none;stroke-width:1;stroke:Black;"/>
<line x1="772" y1="320" x2="766" y2="323"
 style="stroke-width:1;stroke:Black;"/>
<line x1="772" y1="326" x2="766" y2="323"
 style="stroke-width:1;stroke:Black;"/>
<text style="font-family:Arial;font-size:12px;kerning:0;word-spacing:-1px;fill:Black;">
<tspan x="868" y="254">rdf:type  </tspan>
</text>
</g>
<g id="2002712094"><path d="M659,230 L659,306 "
style="fill:none;stroke-width:1;stroke:Black;"/>
<line x1="656" y1="300" x2="659" y2="306"
 style="stroke-width:1;stroke:Black;"/>
<line x1="662" y1="300" x2="659" y2="306"
 style="stroke-width:1;stroke:Black;"/>
<text style="font-family:Arial;font-size:12px;kerning:0;word-spacing:-1px;fill:Black;">
<tspan x="661" y="245">rdf:type  </tspan>
</text>
</g>
<g id="2002712099"><path d="M1062,342 L1062,239 "
style="fill:none;stroke-width:1;stroke:Black;"/>
<line x1="1059" y1="245" x2="1062" y2="239"
 style="stroke-width:1;stroke:Black;"/>
<line x1="1065" y1="245" x2="1062" y2="239"
 style="stroke-width:1;stroke:Black;"/>
<text style="font-family:Arial;font-size:12px;kerning:0;word-spacing:-1px;fill:Black;">
<tspan x="931" y="308">skosxl:prefLabel  DR</tspan>
<tspan x="931" y="323">skosxl:altLabel  DR</tspan>
<tspan x="931" y="338">skosxl:hiddenLabel  DR</tspan>
</text>
</g>
<g id="2002712104"><path d="M343,459 L460,459 464,457 466,453 466,371 "
style="fill:none;stroke-width:1;stroke:Black;"/>
<line x1="463" y1="377" x2="466" y2="371"
 style="stroke-width:1;stroke:Black;"/>
<line x1="469" y1="377" x2="466" y2="371"
 style="stroke-width:1;stroke:Black;"/>
<text style="font-family:Arial;font-size:12px;kerning:0;word-spacing:-1px;fill:Black;">
<tspan x="347" y="458">rdf:type  </tspan>
</text>
</g>
<g id="2002712109"><path d="M587,488 L587,371 "
style="fill:none;stroke-width:1;stroke:Black;"/>
<line x1="584" y1="377" x2="587" y2="371"
 style="stroke-width:1;stroke:Black;"/>
<line x1="590" y1="377" x2="587" y2="371"
 style="stroke-width:1;stroke:Black;"/>
<text style="font-family:Arial;font-size:12px;kerning:0;word-spacing:-1px;fill:Black;">
<tspan x="540" y="484">rdf:type  </tspan>
</text>
</g>
<g id="2002712114"><path d="M124,424 L124,381 "
style="fill:none;stroke-width:1;stroke:Black;"/>
<line x1="121" y1="387" x2="124" y2="381"
 style="stroke-width:1;stroke:Black;"/>
<line x1="126" y1="387" x2="124" y2="381"
 style="stroke-width:1;stroke:Black;"/>
<text style="font-family:Arial;font-size:12px;kerning:0;word-spacing:-1px;fill:Black;">
<tspan x="44" y="420">dc:creator  DR</tspan>
</text>
</g>
<g id="2002712119"><path d="M547,230 L547,306 "
style="fill:none;stroke-width:2;stroke:Fuchsia;"/>
<polygon points="552,240 547,230 542,240 "
style="fill:Silver;stroke-width:1;stroke:Black;"/>
<text style="font-family:Arial;font-size:12px;kerning:0;word-spacing:-1px;fill:Black;">
<tspan x="549" y="245"> </tspan>
</text>
</g>
<g id="2002712121"><path d="M599,180 L599,137 "
style="fill:none;stroke-width:2;stroke:Fuchsia;"/>
<polygon points="604,170 599,180 594,170 "
style="fill:Silver;stroke-width:1;stroke:Black;"/>
<text style="font-family:Arial;font-size:12px;kerning:0;word-spacing:-1px;fill:Black;">
<tspan x="587" y="176"> </tspan>
</text>
</g>
</svg>
