<?xml version="1.0" encoding="UTF-8" standalone="no"?>
<!DOCTYPE svg PUBLIC "-//W3C//DTD SVG 1.1//EN"
"http://www.w3.org/Graphics/SVG/1.1/DTD/svg11.dtd">
<svg version="1.1" xmlns="http://www.w3.org/2000/svg"
xmlns:xlink="http://www.w3.org/1999/xlink" xml:space="preserve"
 width="1206" height="893" viewBox="0 0 1206 893">
 onmousemove="movetip(evt)" onmouseup="endmove()">
<rect x="0" y="0" width="100%" height="100%" style="fill:White;"/>
<script type="application/ecmascript"> <![CDATA[
var dragtipid = null; var dragcase = false; function init(evt){
if (window.svgDocument==null) svgDocument = evt.target.ownerDocument;
}
function movetip(evt){if (dragtipid!=null){ dragcase = true;
var tip=svgDocument.getElementById(dragtipid);
tip.setAttributeNS(null,"x",evt.clientX-2);
tip.setAttributeNS(null,"y",evt.clientY-2);
}}
function endmove(){dragtipid = null;}
function startmove(evt,id){dragtipid = id; dragcase = false;
var tip=svgDocument.getElementById(dragtipid);
tip.setAttributeNS(null,"x",evt.clientX-2);
tip.setAttributeNS(null,"y",evt.clientY-2);
}
function Showtip(evt,id){ dragtipid = null;
var tip=svgDocument.getElementById(id);
var vis=tip.getAttributeNS(null,"visibility");
if (vis=="hidden"){
tip.setAttributeNS(null,"x",evt.clientX-2);
tip.setAttributeNS(null,"y",evt.clientY-2);
tip.setAttributeNS(null,"visibility","visible");
}}
function Hidetip(id){ dragtipid = null; if (dragcase==false){
var tip=svgDocument.getElementById(id);
tip.setAttributeNS(null,"visibility","hidden");
}}
]]></script>
<defs><linearGradient id="activ1" x1="0%" y1="0%" x2="100%" y2="0%">
<stop offset="0%" style="stop-color:#FFFF00;stop-opacity:1"/>
<stop offset="100%" style="stop-color:#FFFFF0;stop-opacity:1"/>
</linearGradient></defs>
<g id="2002724624"><polygon points="783,773 1007,773 1007,883 783,883 "
style="fill:#F4D03F; stroke-width:1;stroke:Black;"/>
<text style="font-family:Arial;font-size:12px;kerning:0;word-spacing:-1px;fill:Black;font-weight:bold;">
<tspan x="849" y="788">owl:Ontology (1)</tspan>
</text>
<line x1="787" y1="791" x2="1005" y2="791"
 style="stroke-width:1;stroke:Black;"/>
<text style="font-family:Arial;font-size:12px;kerning:0;word-spacing:-1px;fill:Black;">
<tspan x="787" y="803">owl:imports (1) [1] D -&gt; IRI</tspan>
<tspan x="787" y="818">owl:priorVersion (1) [1] D -&gt; IRI</tspan>
<tspan x="787" y="833">owl:versionInfo (1) [1] D</tspan>
<tspan x="787" y="848">rdf:type (1) [*]  -&gt; IRI</tspan>
<tspan x="787" y="863">rdfs:comment (1) [*] </tspan>
<tspan x="787" y="878">rdfs:isDefinedBy (3) [*] D -&gt; IRI</tspan>
</text>
</g>
<g id="2002724635"><polygon points="989,345 1152,345 1152,390 989,390 "
style="fill:#F4D03F; stroke-width:1;stroke:Black;"/>
<text style="font-family:Arial;font-size:12px;kerning:0;word-spacing:-1px;fill:Black;font-weight:bold;">
<tspan x="999" y="360">owl:OntologyProperty (4)</tspan>
</text>
</g>
<g id="2002724646"><polygon points="783,722 1007,722 1007,767 783,767 "
style="fill:#F4D03F; stroke-width:1;stroke:Black;"/>
<text style="font-family:Arial;font-size:12px;kerning:0;word-spacing:-1px;fill:Black;font-weight:bold;">
<tspan x="819" y="737">owl:AnnotationProperty (5)</tspan>
</text>
<line x1="787" y1="740" x2="1005" y2="740"
 style="stroke-width:1;stroke:Black;"/>
<text style="font-family:Arial;font-size:12px;kerning:0;word-spacing:-1px;fill:Black;">
<tspan x="787" y="752">rdf:type (6) [*]  -&gt; IRI</tspan>
</text>
</g>
<g id="2002724657"><polygon points="57,533 357,533 357,628 57,628 "
style="fill:#F4D03F; stroke-width:1;stroke:Black;"/>
<text style="font-family:Arial;font-size:12px;kerning:0;word-spacing:-1px;fill:Black;font-weight:bold;">
<tspan x="138" y="548">mschema:CATA (2.9e5)</tspan>
</text>
<line x1="61" y1="551" x2="355" y2="551"
 style="stroke-width:1;stroke:Black;"/>
<text style="font-family:Arial;font-size:12px;kerning:0;word-spacing:-1px;fill:Black;">
<tspan x="61" y="563">mschema:dir (2.9e5) [1] D</tspan>
<tspan x="61" y="578">mschema:lb (2.9e5 16%d) [1] D -&gt; IRI</tspan>
<tspan x="61" y="593">mschema:ub (2.9e5 19%d) [1] D -&gt; IRI</tspan>
<tspan x="61" y="608">rdf:type (2.9e5) [*]  -&gt; IRI</tspan>
<tspan x="61" y="623">rdfs:label (2.9e5) [*] </tspan>
</text>
</g>
<g id="2002724668"><polygon points="457,605 686,605 686,880 457,880 "
style="fill:#F4D03F; stroke-width:1;stroke:Black;"/>
<text style="font-family:Arial;font-size:12px;kerning:0;word-spacing:-1px;fill:Black;font-weight:bold;">
<tspan x="500" y="620">mschema:CHEM (5.5e6)</tspan>
</text>
<line x1="461" y1="623" x2="684" y2="623"
 style="stroke-width:1;stroke:Black;"/>
<text style="font-family:Arial;font-size:12px;kerning:0;word-spacing:-1px;fill:Black;">
<tspan x="461" y="635">mschema:charge (1.7e7) [*] D</tspan>
<tspan x="461" y="650">mschema:chemInMNXref (2.2e7) [1] D</tspan>
<tspan x="461" y="665">mschema:formula (1.7e7) [*] D</tspan>
<tspan x="461" y="680">mschema:inchi (1.6e7) [*] D</tspan>
<tspan x="461" y="695">mschema:inchikey (1.6e7) [*] D</tspan>
<tspan x="461" y="710">mschema:mass (6.2e6) [*] D</tspan>
<tspan x="461" y="725">mschema:smiles (1.8e7) [*] D</tspan>
<tspan x="461" y="740">owl:deprecated (1.9e6) [1] </tspan>
<tspan x="461" y="755">rdf:type (2.2e7) [*]  -&gt; IRI</tspan>
<tspan x="461" y="770">rdfs:comment (2.0e7) [*] </tspan>
<tspan x="461" y="785">rdfs:label (2.2e7) [*] </tspan>
<tspan x="461" y="800">&lt;&gt; mschema:chemIsom  DR</tspan>
<tspan x="461" y="815">&lt;&gt; mschema:chemRefer  D</tspan>
<tspan x="461" y="830">&lt;&gt; mschema:chemReplacedBy  D</tspan>
<tspan x="461" y="845">&lt;&gt; mschema:chemSource  D</tspan>
<tspan x="461" y="860">&lt;&gt; mschema:chemXref  D</tspan>
<tspan x="461" y="875">&lt;&gt; mschema:hasIsomericChild  D</tspan>
</text>
</g>
<g id="2002724679"><polygon points="820,500 1196,500 1196,600 820,600 "
style="fill:White; stroke-width:1;stroke:Black;"/>
<text style="font-family:Arial;font-size:12px;kerning:0;word-spacing:-1px;fill:Black;">
<tspan x="824" y="514">PREFIX virtrdf: &lt;http://www.openlinksw.com/schemas/virtrdf#&gt;</tspan>
<tspan x="824" y="529">PREFIX mschema: &lt;https://rdf.metanetx.org/schema/&gt;</tspan>
<tspan x="824" y="544">PREFIX owl: &lt;http://www.w3.org/2002/07/owl#&gt;</tspan>
<tspan x="824" y="559">PREFIX rdfs: &lt;http://www.w3.org/2000/01/rdf-schema#&gt;</tspan>
<tspan x="824" y="574">PREFIX sd: &lt;http://www.w3.org/ns/sparql-service-description#&gt;</tspan>
<tspan x="824" y="589">PREFIX rdf: &lt;http://www.w3.org/1999/02/22-rdf-syntax-ns#&gt;</tspan>
</text>
</g>
<g id="2002724690"><polygon points="802,330 954,330 954,380 802,380 "
style="fill:#F4D03F; stroke-width:1;stroke:Black;"/>
<text style="font-family:Arial;font-size:12px;kerning:0;word-spacing:-1px;fill:Black;font-weight:bold;">
<tspan x="839" y="345">rdf:Propert (4)</tspan>
</text>
<line x1="806" y1="348" x2="952" y2="348"
 style="stroke-width:1;stroke:Black;"/>
<text style="font-family:Arial;font-size:12px;kerning:0;word-spacing:-1px;fill:Black;">
<tspan x="806" y="360">rdf:type (16) [*]  -&gt; IRI</tspan>
<tspan x="806" y="375">rdfs:comment (16) [*] </tspan>
</text>
</g>
<g id="2002724701"><polygon points="57,734 357,734 357,874 57,874 "
style="fill:#F4D03F; stroke-width:1;stroke:Black;"/>
<text style="font-family:Arial;font-size:12px;kerning:0;word-spacing:-1px;fill:Black;font-weight:bold;">
<tspan x="138" y="749">mschema:PEPT (2.9e5)</tspan>
</text>
<line x1="61" y1="752" x2="355" y2="752"
 style="stroke-width:1;stroke:Black;"/>
<text style="font-family:Arial;font-size:12px;kerning:0;word-spacing:-1px;fill:Black;">
<tspan x="61" y="764">mschema:geneName (2.3e6) [*] D</tspan>
<tspan x="61" y="779">mschema:peptRefer (9.9e5) [1] D -&gt; IRI</tspan>
<tspan x="61" y="794">mschema:peptSource (9.9e5) [1] D -&gt; IRI</tspan>
<tspan x="61" y="809">mschema:peptXref (9.9e5) [1] D -&gt; IRI</tspan>
<tspan x="61" y="824">rdf:type (1.1e6) [*]  -&gt; IRI</tspan>
<tspan x="61" y="839">rdfs:comment (1.1e6) [*] </tspan>
<tspan x="61" y="854">rdfs:label (1.1e6) [*] </tspan>
</text>
</g>
<g id="2002724712"><polygon points="55,137 355,137 355,352 55,352 "
style="fill:#F4D03F; stroke-width:1;stroke:Black;"/>
<text style="font-family:Arial;font-size:12px;kerning:0;word-spacing:-1px;fill:Black;font-weight:bold;">
<tspan x="135" y="152">mschema:REAC (7.8e5)</tspan>
</text>
<line x1="59" y1="155" x2="353" y2="155"
 style="stroke-width:1;stroke:Black;"/>
<text style="font-family:Arial;font-size:12px;kerning:0;word-spacing:-1px;fill:Black;">
<tspan x="59" y="167">mschema:classification (6.3e5) [*] D</tspan>
<tspan x="59" y="182">mschema:isBalanced (1.2e6) [*] D</tspan>
<tspan x="59" y="197">mschema:isTransport (1.2e6) [*] D</tspan>
<tspan x="59" y="212">mschema:reacInMNXref (2.9e6) [1] D</tspan>
<tspan x="59" y="227">mschema:reacRefer (1.2e6) [*] D -&gt; IRI</tspan>
<tspan x="59" y="242">mschema:reacSource (1.2e6) [*] D -&gt; IRI</tspan>
<tspan x="59" y="257">mschema:reacXref (5.7e6) [*] D -&gt; IRI</tspan>
<tspan x="59" y="272">owl:deprecated (1.1e6) [1] </tspan>
<tspan x="59" y="287">rdf:type (2.9e6) [*]  -&gt; IRI</tspan>
<tspan x="59" y="302">rdfs:comment (1.8e6) [*] </tspan>
<tspan x="59" y="317">rdfs:label (2.9e6) [*] </tspan>
<tspan x="59" y="332">&lt;&gt; mschema:mnxr  DR</tspan>
<tspan x="59" y="347">&lt;&gt; mschema:reacReplacedBy  D</tspan>
</text>
</g>
<g id="2002724723"><polygon points="457,198 684,198 684,323 457,323 "
style="fill:#F4D03F; stroke-width:1;stroke:Black;"/>
<text style="font-family:Arial;font-size:12px;kerning:0;word-spacing:-1px;fill:Black;font-weight:bold;">
<tspan x="504" y="213">mschema:COMP (204)</tspan>
</text>
<line x1="461" y1="216" x2="682" y2="216"
 style="stroke-width:1;stroke:Black;"/>
<text style="font-family:Arial;font-size:12px;kerning:0;word-spacing:-1px;fill:Black;">
<tspan x="461" y="228">mschema:compInMNXref (728) [1] D</tspan>
<tspan x="461" y="243">rdf:type (744) [*]  -&gt; IRI</tspan>
<tspan x="461" y="258">rdfs:comment (760) [*] </tspan>
<tspan x="461" y="273">rdfs:label (744) [*] </tspan>
<tspan x="461" y="288">&lt;&gt; mschema:compRefer  D</tspan>
<tspan x="461" y="303">&lt;&gt; mschema:compSource  D</tspan>
<tspan x="461" y="318">&lt;&gt; mschema:compXref  D</tspan>
</text>
</g>
<g id="2002724734"><polygon points="148,651 360,651 360,701 148,701 "
style="fill:#F4D03F; stroke-width:1;stroke:Black;"/>
<text style="font-family:Arial;font-size:12px;kerning:0;word-spacing:-1px;fill:Black;font-weight:bold;">
<tspan x="186" y="666">mschema:CPLX (3.7e5)</tspan>
</text>
<line x1="152" y1="669" x2="358" y2="669"
 style="stroke-width:1;stroke:Black;"/>
<text style="font-family:Arial;font-size:12px;kerning:0;word-spacing:-1px;fill:Black;">
<tspan x="152" y="681">rdf:type (3.7e5) [*]  -&gt; IRI</tspan>
<tspan x="152" y="696">rdfs:label (3.7e5) [*] </tspan>
</text>
</g>
<g id="2002724745"><polygon points="455,373 683,373 683,599 455,599 "
style="fill:#F4D03F; stroke-width:1;stroke:Black;"/>
<text style="font-family:Arial;font-size:12px;kerning:0;word-spacing:-1px;fill:Black;font-weight:bold;">
<tspan x="505" y="388">mschema:MNET (960)</tspan>
</text>
<line x1="459" y1="391" x2="681" y2="391"
 style="stroke-width:1;stroke:Black;"/>
<text style="font-family:Arial;font-size:12px;kerning:0;word-spacing:-1px;fill:Black;">
<tspan x="459" y="403">mschema:canGrow (3840) [1] D</tspan>
<tspan x="459" y="418">mschema:chemCount (3840) [*] D</tspan>
<tspan x="459" y="433">mschema:compCount (3840) [1] D</tspan>
<tspan x="459" y="448">mschema:default_LB (3840) [1] D</tspan>
<tspan x="459" y="463">mschema:default_UB (3840) [1] D</tspan>
<tspan x="459" y="478">mschema:lineage (3840) [1] D</tspan>
<tspan x="459" y="493">mschema:organism (3840) [1] D</tspan>
<tspan x="459" y="508">mschema:peptCount (3840) [*] D</tspan>
<tspan x="459" y="523">mschema:reacCount (3840) [*] D</tspan>
<tspan x="459" y="538">mschema:specCount (3840) [*] D</tspan>
<tspan x="459" y="553">mschema:taxid (3840) [1] D -&gt; IRI</tspan>
<tspan x="459" y="568">rdf:type (3840) [*]  -&gt; IRI</tspan>
<tspan x="459" y="583">rdfs:label (3840) [*] </tspan>
</text>
</g>
<g id="2002724756"><polygon points="842,144 1142,144 1142,269 842,269 "
style="fill:#F4D03F; stroke-width:1;stroke:Black;"/>
<text style="font-family:Arial;font-size:12px;kerning:0;word-spacing:-1px;fill:Black;font-weight:bold;">
<tspan x="943" y="159">rdf:Property (215)</tspan>
</text>
<line x1="846" y1="162" x2="1140" y2="162"
 style="stroke-width:1;stroke:Black;"/>
<text style="font-family:Arial;font-size:12px;kerning:0;word-spacing:-1px;fill:Black;">
<tspan x="846" y="174">owl:deprecated (16) [1] </tspan>
<tspan x="846" y="189">owl:seeAlso (16) [1] D -&gt; IRI</tspan>
<tspan x="846" y="204">rdf:type (796) [*]  -&gt; IRI</tspan>
<tspan x="846" y="219">rdfs:comment (720) [*] </tspan>
<tspan x="846" y="234">rdfs:label (23) [*] </tspan>
<tspan x="846" y="249">rdfs:seeAlso (16) [1] D -&gt; IRI</tspan>
<tspan x="846" y="264">&lt;&gt; rdfs:subPropertyOf  </tspan>
</text>
</g>
<g id="2002724767"><polygon points="804,414 1047,414 1047,494 804,494 "
style="fill:#F4D03F; stroke-width:1;stroke:Black;"/>
<text style="font-family:Arial;font-size:12px;kerning:0;word-spacing:-1px;fill:Black;font-weight:bold;">
<tspan x="888" y="429">owl:Class (3)</tspan>
</text>
<line x1="808" y1="432" x2="1045" y2="432"
 style="stroke-width:1;stroke:Black;"/>
<text style="font-family:Arial;font-size:12px;kerning:0;word-spacing:-1px;fill:Black;">
<tspan x="808" y="444">owl:unionOf (1) [1] D -&gt; IRI</tspan>
<tspan x="808" y="459">rdf:type (3) [*]  -&gt; IRI</tspan>
<tspan x="808" y="474">rdfs:label (2) [*] </tspan>
<tspan x="808" y="489">&lt;&gt; owl:complementOf  DR</tspan>
</text>
</g>
<g id="2002724778"><polygon points="57,400 316,400 316,465 57,465 "
style="fill:#F4D03F; stroke-width:1;stroke:Black;"/>
<text style="font-family:Arial;font-size:12px;kerning:0;word-spacing:-1px;fill:Black;font-weight:bold;">
<tspan x="120" y="415">mschema:GPR (7.7e5)</tspan>
</text>
<line x1="61" y1="418" x2="314" y2="418"
 style="stroke-width:1;stroke:Black;"/>
<text style="font-family:Arial;font-size:12px;kerning:0;word-spacing:-1px;fill:Black;">
<tspan x="61" y="430">rdf:type (7.7e5) [*]  -&gt; IRI</tspan>
<tspan x="61" y="445">rdfs:comment (7.7e5) [*] </tspan>
<tspan x="61" y="460">rdfs:label (7.7e5) [*] </tspan>
</text>
</g>
<g id="2002724789"><polygon points="474,124 731,124 731,179 474,179 "
style="fill:#F4D03F; stroke-width:1;stroke:Black;"/>
<text style="font-family:Arial;font-size:12px;kerning:0;word-spacing:-1px;fill:Black;font-weight:bold;">
<tspan x="533" y="139">mschema:PART (3.9e5)</tspan>
</text>
<line x1="478" y1="142" x2="729" y2="142"
 style="stroke-width:1;stroke:Black;"/>
<text style="font-family:Arial;font-size:12px;kerning:0;word-spacing:-1px;fill:Black;">
<tspan x="478" y="154">mschema:coef (3.9e5) [1] D</tspan>
<tspan x="478" y="169">rdf:type (3.9e5) [*]  -&gt; IRI</tspan>
</text>
</g>
<g id="2002724800"><polygon points="782,606 1004,606 1004,716 782,716 "
style="fill:#F4D03F; stroke-width:1;stroke:Black;"/>
<text style="font-family:Arial;font-size:12px;kerning:0;word-spacing:-1px;fill:Black;font-weight:bold;">
<tspan x="854" y="621">sd:Service (1)</tspan>
</text>
<line x1="786" y1="624" x2="1002" y2="624"
 style="stroke-width:1;stroke:Black;"/>
<text style="font-family:Arial;font-size:12px;kerning:0;word-spacing:-1px;fill:Black;">
<tspan x="786" y="636">rdf:type (1) [*]  -&gt; IRI</tspan>
<tspan x="786" y="651">sd:feature (2) [*] D -&gt; IRI</tspan>
<tspan x="786" y="666">sd:resultFormat (8) [*] D -&gt; IRI</tspan>
<tspan x="786" y="681">sd:supportedLanguage (1) [1] D -&gt; IRI</tspan>
<tspan x="786" y="696">&lt;&gt; sd:endpoint  DR</tspan>
<tspan x="786" y="711">&lt;&gt; sd:url  DR</tspan>
</text>
</g>
<g id="2002797303"><polygon points="423,48 781,48 781,100 423,100 "
style="fill:none; stroke-width:1;stroke:Black;"/>
<text style="font-family:Arial;font-size:18px;kerning:0;word-spacing:-1px;fill:Black;font-weight:bold;">
<tspan x="539" y="68">MetaNetX RDF</tspan>
<tspan x="477" y="90">https://rdf.metanetx.org/sparql</tspan>
</text>
</g>
<g id="2002724562"><path d="M710,179 L710,645 708,649 704,651 686,651 "
style="fill:none;stroke-width:1;stroke:Black;"/>
<line x1="692" y1="648" x2="686" y2="651"
 style="stroke-width:1;stroke:Black;"/>
<line x1="692" y1="654" x2="686" y2="651"
 style="stroke-width:1;stroke:Black;"/>
<text style="font-family:Arial;font-size:12px;kerning:0;word-spacing:-1px;fill:Black;">
<tspan x="712" y="194">mschema:chem  DR</tspan>
</text>
</g>
<g id="2002724567"><path d="M977,269 L977,414 "
style="fill:none;stroke-width:1;stroke:Black;"/>
<line x1="974" y1="408" x2="977" y2="414"
 style="stroke-width:1;stroke:Black;"/>
<line x1="980" y1="408" x2="977" y2="414"
 style="stroke-width:1;stroke:Black;"/>
<text style="font-family:Arial;font-size:12px;kerning:0;word-spacing:-1px;fill:Black;">
<tspan x="979" y="284">rdfs:range  </tspan>
<tspan x="979" y="299">rdfs:domain  </tspan>
</text>
</g>
<g id="2002724572"><path d="M579,179 L579,198 "
style="fill:none;stroke-width:1;stroke:Black;"/>
<line x1="576" y1="192" x2="579" y2="198"
 style="stroke-width:1;stroke:Black;"/>
<line x1="582" y1="192" x2="579" y2="198"
 style="stroke-width:1;stroke:Black;"/>
<text style="font-family:Arial;font-size:12px;kerning:0;word-spacing:-1px;fill:Black;">
<tspan x="581" y="194">mschema:comp  DR</tspan>
</text>
</g>
<g id="2002724577"><path d="M252,628 L252,651 "
style="fill:none;stroke-width:1;stroke:Black;"/>
<line x1="249" y1="645" x2="252" y2="651"
 style="stroke-width:1;stroke:Black;"/>
<line x1="255" y1="645" x2="252" y2="651"
 style="stroke-width:1;stroke:Black;"/>
<text style="font-family:Arial;font-size:12px;kerning:0;word-spacing:-1px;fill:Black;">
<tspan x="254" y="643">mschema:cplx  DR</tspan>
</text>
</g>
<g id="2002724582"><path d="M186,465 L186,533 "
style="fill:none;stroke-width:1;stroke:Black;"/>
<line x1="183" y1="527" x2="186" y2="533"
 style="stroke-width:1;stroke:Black;"/>
<line x1="189" y1="527" x2="186" y2="533"
 style="stroke-width:1;stroke:Black;"/>
<text style="font-family:Arial;font-size:12px;kerning:0;word-spacing:-1px;fill:Black;">
<tspan x="188" y="480">mschema:cata  DR</tspan>
</text>
</g>
<g id="2002724587"><path d="M102,628 L102,734 "
style="fill:none;stroke-width:1;stroke:Black;"/>
<line x1="99" y1="728" x2="102" y2="734"
 style="stroke-width:1;stroke:Black;"/>
<line x1="105" y1="728" x2="102" y2="734"
 style="stroke-width:1;stroke:Black;"/>
<text style="font-family:Arial;font-size:12px;kerning:0;word-spacing:-1px;fill:Black;">
<tspan x="104" y="643">mschema:pept  DR</tspan>
</text>
</g>
<g id="2002724592"><path d="M875,269 L875,330 "
style="fill:none;stroke-width:1;stroke:Black;"/>
<line x1="872" y1="324" x2="875" y2="330"
 style="stroke-width:1;stroke:Black;"/>
<line x1="878" y1="324" x2="875" y2="330"
 style="stroke-width:1;stroke:Black;"/>
<text style="font-family:Arial;font-size:12px;kerning:0;word-spacing:-1px;fill:Black;">
<tspan x="877" y="284">owl:sameAs  DR</tspan>
</text>
</g>
<g id="2002724597"><path d="M879,380 L879,414 "
style="fill:none;stroke-width:1;stroke:Black;"/>
<line x1="876" y1="408" x2="879" y2="414"
 style="stroke-width:1;stroke:Black;"/>
<line x1="882" y1="408" x2="879" y2="414"
 style="stroke-width:1;stroke:Black;"/>
<text style="font-family:Arial;font-size:12px;kerning:0;word-spacing:-1px;fill:Black;">
<tspan x="881" y="395">rdfs:range  </tspan>
<tspan x="881" y="410">rdfs:domain  </tspan>
</text>
</g>
<g id="2002724602"><path d="M355,169 L474,169 "
style="fill:none;stroke-width:1;stroke:Black;"/>
<line x1="468" y1="166" x2="474" y2="169"
 style="stroke-width:1;stroke:Black;"/>
<line x1="468" y1="172" x2="474" y2="169"
 style="stroke-width:1;stroke:Black;"/>
<text style="font-family:Arial;font-size:12px;kerning:0;word-spacing:-1px;fill:Black;">
<tspan x="359" y="152">mschema:left  DR</tspan>
<tspan x="359" y="167">mschema:right  DR</tspan>
</text>
</g>
<g id="2002724607"><path d="M252,701 L252,734 "
style="fill:none;stroke-width:1;stroke:Black;"/>
<line x1="249" y1="728" x2="252" y2="734"
 style="stroke-width:1;stroke:Black;"/>
<line x1="255" y1="728" x2="252" y2="734"
 style="stroke-width:1;stroke:Black;"/>
<text style="font-family:Arial;font-size:12px;kerning:0;word-spacing:-1px;fill:Black;">
<tspan x="254" y="716">mschema:subu  DR</tspan>
</text>
</g>
<g id="2002724612"><path d="M192,400 L192,352 "
style="fill:none;stroke-width:1;stroke:Black;"/>
<line x1="189" y1="358" x2="192" y2="352"
 style="stroke-width:1;stroke:Black;"/>
<line x1="195" y1="358" x2="192" y2="352"
 style="stroke-width:1;stroke:Black;"/>
<text style="font-family:Arial;font-size:12px;kerning:0;word-spacing:-1px;fill:Black;">
<tspan x="83" y="396">mschema:reac  DR</tspan>
</text>
</g>
<g id="2002724617"><path d="M455,432 L316,432 "
style="fill:none;stroke-width:1;stroke:Black;"/>
<line x1="322" y1="429" x2="316" y2="432"
 style="stroke-width:1;stroke:Black;"/>
<line x1="322" y1="435" x2="316" y2="432"
 style="stroke-width:1;stroke:Black;"/>
<text style="font-family:Arial;font-size:12px;kerning:0;word-spacing:-1px;fill:Black;">
<tspan x="350" y="445">mschema:gpr  DR</tspan>
</text>
</g>
<g id="2002724622"><path d="M1065,269 L1065,345 "
style="fill:none;stroke-width:2;stroke:Fuchsia;"/>
<polygon points="1070,279 1065,269 1060,279 "
style="fill:Silver;stroke-width:1;stroke:Black;"/>
<text style="font-family:Arial;font-size:12px;kerning:0;word-spacing:-1px;fill:Black;">
<tspan x="1067" y="284"> </tspan>
</text>
</g>
</svg>
