<?xml version="1.0" encoding="UTF-8" standalone="no"?>
<!DOCTYPE svg PUBLIC "-//W3C//DTD SVG 1.1//EN"
"http://www.w3.org/Graphics/SVG/1.1/DTD/svg11.dtd">
<svg version="1.1" xmlns="http://www.w3.org/2000/svg"
xmlns:xlink="http://www.w3.org/1999/xlink" xml:space="preserve"
 width="1884" height="1424" viewBox="0 0 1884 1424">
 onmousemove="movetip(evt)" onmouseup="endmove()">
<rect x="0" y="0" width="100%" height="100%" style="fill:White;"/>
<script type="application/ecmascript"> <![CDATA[
var dragtipid = null; var dragcase = false; function init(evt){
if (window.svgDocument==null) svgDocument = evt.target.ownerDocument;
}
function movetip(evt){if (dragtipid!=null){ dragcase = true;
var tip=svgDocument.getElementById(dragtipid);
tip.setAttributeNS(null,"x",evt.clientX-2);
tip.setAttributeNS(null,"y",evt.clientY-2);
}}
function endmove(){dragtipid = null;}
function startmove(evt,id){dragtipid = id; dragcase = false;
var tip=svgDocument.getElementById(dragtipid);
tip.setAttributeNS(null,"x",evt.clientX-2);
tip.setAttributeNS(null,"y",evt.clientY-2);
}
function Showtip(evt,id){ dragtipid = null;
var tip=svgDocument.getElementById(id);
var vis=tip.getAttributeNS(null,"visibility");
if (vis=="hidden"){
tip.setAttributeNS(null,"x",evt.clientX-2);
tip.setAttributeNS(null,"y",evt.clientY-2);
tip.setAttributeNS(null,"visibility","visible");
}}
function Hidetip(id){ dragtipid = null; if (dragcase==false){
var tip=svgDocument.getElementById(id);
tip.setAttributeNS(null,"visibility","hidden");
}}
]]></script>
<defs><linearGradient id="activ1" x1="0%" y1="0%" x2="100%" y2="0%">
<stop offset="0%" style="stop-color:#FFFF00;stop-opacity:1"/>
<stop offset="100%" style="stop-color:#FFFFF0;stop-opacity:1"/>
</linearGradient></defs>
<g id="2002714335"><polygon points="1197,340 1444,340 1444,385 1197,385 "
style="fill:#F4D03F; stroke-width:1;stroke:Black;"/>
<text style="font-family:Arial;font-size:12px;kerning:0;word-spacing:-1px;fill:Black;font-weight:bold;">
<tspan x="1254" y="355">rnce:ConceptStatus (6)</tspan>
</text>
</g>
<g id="2002714346"><polygon points="154,478 351,478 351,523 154,523 "
style="fill:#F4D03F; stroke-width:1;stroke:Black;"/>
<text style="font-family:Arial;font-size:12px;kerning:0;word-spacing:-1px;fill:Black;font-weight:bold;">
<tspan x="186" y="493">rnce:SourceHolder (35)</tspan>
</text>
</g>
<g id="2002714357"><polygon points="1226,276 1449,276 1449,321 1226,321 "
style="fill:#F4D03F; stroke-width:1;stroke:Black;"/>
<text style="font-family:Arial;font-size:12px;kerning:0;word-spacing:-1px;fill:Black;font-weight:bold;">
<tspan x="1274" y="291">rce:ConceptStatus (5)</tspan>
</text>
</g>
<g id="2002714368"><polygon points="1203,895 1460,895 1460,975 1203,975 "
style="fill:#F4D03F; stroke-width:1;stroke:Black;"/>
<text style="font-family:Arial;font-size:12px;kerning:0;word-spacing:-1px;fill:Black;font-weight:bold;">
<tspan x="1273" y="910">swu:LocalUser (185)</tspan>
</text>
<line x1="1207" y1="913" x2="1458" y2="913"
 style="stroke-width:1;stroke:Black;"/>
<text style="font-family:Arial;font-size:12px;kerning:0;word-spacing:-1px;fill:Black;">
<tspan x="1207" y="925">rdf:type (185) [*]  -&gt; IRI</tspan>
<tspan x="1207" y="940">swrdfm:checksum (126) [*] D</tspan>
<tspan x="1207" y="955">swu:hasRole (1) [1] D -&gt; IRI</tspan>
<tspan x="1207" y="970">swu:username (191) [*] D</tspan>
</text>
</g>
<g id="2002714379"><polygon points="1256,620 1449,620 1449,670 1256,670 "
style="fill:#F4D03F; stroke-width:1;stroke:Black;"/>
<text style="font-family:Arial;font-size:12px;kerning:0;word-spacing:-1px;fill:Black;font-weight:bold;">
<tspan x="1317" y="635">rdf:List (931)</tspan>
</text>
<line x1="1260" y1="638" x2="1447" y2="638"
 style="stroke-width:1;stroke:Black;"/>
<text style="font-family:Arial;font-size:12px;kerning:0;word-spacing:-1px;fill:Black;">
<tspan x="1260" y="650">rdf:type (931) [*]  -&gt; IRI</tspan>
<tspan x="1260" y="665">&lt;&gt; rdf:rest  D</tspan>
</text>
</g>
<g id="2002714390"><polygon points="1191,1361 1425,1361 1425,1411 1191,1411 "
style="fill:#F4D03F; stroke-width:1;stroke:Black;"/>
<text style="font-family:Arial;font-size:12px;kerning:0;word-spacing:-1px;fill:Black;font-weight:bold;">
<tspan x="1249" y="1376">swppcm:Settings (1)</tspan>
</text>
<line x1="1195" y1="1379" x2="1423" y2="1379"
 style="stroke-width:1;stroke:Black;"/>
<text style="font-family:Arial;font-size:12px;kerning:0;word-spacing:-1px;fill:Black;">
<tspan x="1195" y="1391">rdf:type (1) [*]  -&gt; IRI</tspan>
<tspan x="1195" y="1406">swppcm:enabled (1) [1] D</tspan>
</text>
</g>
<g id="2002714401"><polygon points="1490,230 1873,230 1873,746 1490,746 "
style="fill:White; stroke-width:1;stroke:Black;"/>
<text style="font-family:Arial;font-size:12px;kerning:0;word-spacing:-1px;fill:Black;">
<tspan x="1494" y="244">PREFIX skos: &lt;http://www.w3.org/2004/02/skos/core#&gt;</tspan>
<tspan x="1494" y="259">PREFIX rnce: &lt;https://data.cultureelerfgoed.nl/id/rnce#&gt;</tspan>
<tspan x="1494" y="274">PREFIX dct: &lt;http://purl.org/dc/terms/&gt;</tspan>
<tspan x="1494" y="289">PREFIX swm: &lt;http://schema.semantic-web.at/ppt/3.2/mapping/&gt;</tspan>
<tspan x="1494" y="304">PREFIX swc: &lt;http://schema.semantic-web.at/ppt/candidate/&gt;</tspan>
<tspan x="1494" y="319">PREFIX swt: &lt;http://schema.semantic-web.at/ppt/template#&gt;</tspan>
<tspan x="1494" y="334">PREFIX swppcm: &lt;http://schema.semantic-web.at/ppcm/2013/5/&gt;</tspan>
<tspan x="1494" y="349">PREFIX adms: &lt;http://www.w3.org/ns/adms#&gt;</tspan>
<tspan x="1494" y="364">PREFIX void: &lt;http://rdfs.org/ns/void#&gt;</tspan>
<tspan x="1494" y="379">PREFIX cht: &lt;https://data.cultureelerfgoed.nl/vocab/id/cht#&gt;</tspan>
<tspan x="1494" y="394">PREFIX swurigen: &lt;http://schema.semantic-web.at/ppt/urigen#&gt;</tspan>
<tspan x="1494" y="409">PREFIX rdf: &lt;http://www.w3.org/1999/02/22-rdf-syntax-ns#&gt;</tspan>
<tspan x="1494" y="424">PREFIX rad: &lt;http://www.w3.org/ns/rad#&gt;</tspan>
<tspan x="1494" y="439">PREFIX rce: &lt;https://data.cultureelerfgoed.nl/vocab/id/rce#&gt;</tspan>
<tspan x="1494" y="454">PREFIX swu: &lt;http://schema.semantic-web.at/users/&gt;</tspan>
<tspan x="1494" y="469">PREFIX swb: &lt;http://schema.semantic-web.at/blacklist/&gt;</tspan>
<tspan x="1494" y="484">PREFIX sws: &lt;http://schema.semantic-web.at/ppt/suggested#&gt;</tspan>
<tspan x="1494" y="499">PREFIX qskos: &lt;http://www.qskos.org/schema/v1/core#&gt;</tspan>
<tspan x="1494" y="514">PREFIX foaf: &lt;http://xmlns.com/foaf/0.1/&gt;</tspan>
<tspan x="1494" y="529">PREFIX sw: &lt;http://www.semantic-web.at/ppcl/&gt;</tspan>
<tspan x="1494" y="544">PREFIX sw-p: &lt;http://schema.semantic-web.at/ppt/&gt;</tspan>
<tspan x="1494" y="559">PREFIX owl: &lt;http://www.w3.org/2002/07/owl#&gt;</tspan>
<tspan x="1494" y="574">PREFIX sw-l: &lt;http://schema.semantic-web.at/sparql/1.0/list/&gt;</tspan>
<tspan x="1494" y="589">PREFIX skosxl: &lt;http://www.w3.org/2008/05/skos-xl#&gt;</tspan>
<tspan x="1494" y="604">PREFIX swe: &lt;http://schema.semantic-web.at/skos/1.0/extension/&gt;</tspan>
<tspan x="1494" y="619">PREFIX swn: &lt;http://schema.semantic-web.at/ppt/NLP/&gt;</tspan>
<tspan x="1494" y="634">PREFIX rdfs: &lt;http://www.w3.org/2000/01/rdf-schema#&gt;</tspan>
<tspan x="1494" y="649">PREFIX swrdfm: &lt;http://semantic-web.com/rdfmapper/&gt;</tspan>
<tspan x="1494" y="664">PREFIX swp: &lt;http://schema.semantic-web.at/ppx/&gt;</tspan>
<tspan x="1494" y="679">PREFIX dbo: &lt;http://dbpedia.org/ontology/&gt;</tspan>
<tspan x="1494" y="694">PREFIX srce: &lt;http://data.cultureelerfgoed.nl/vocab/id/rce#&gt;</tspan>
<tspan x="1494" y="709">PREFIX swwf: &lt;http://schema.semantic-web.at/wf/&gt;</tspan>
</text>
</g>
<g id="2002714412"><polygon points="1596,987 1873,987 1873,1216 1596,1216 "
style="fill:#F4D03F; stroke-width:1;stroke:Black;"/>
<text style="font-family:Arial;font-size:12px;kerning:0;word-spacing:-1px;fill:Black;font-weight:bold;">
<tspan x="1690" y="1002">void:Dataset (1)</tspan>
</text>
<line x1="1600" y1="1005" x2="1871" y2="1005"
 style="stroke-width:1;stroke:Black;"/>
<text style="font-family:Arial;font-size:12px;kerning:0;word-spacing:-1px;fill:Black;">
<tspan x="1600" y="1017">dct:date (1) [1] </tspan>
<tspan x="1600" y="1032">dct:description (4) [*] </tspan>
<tspan x="1600" y="1047">dct:language (1) [1] D</tspan>
<tspan x="1600" y="1062">dct:license (1) [1]  -&gt; IRI</tspan>
<tspan x="1600" y="1077">dct:subject (4) [*] </tspan>
<tspan x="1600" y="1092">dct:title (4) [*] </tspan>
<tspan x="1600" y="1107">rdf:type (1) [*]  -&gt; IRI</tspan>
<tspan x="1600" y="1122">sw:availablelanguages (6) [*] D</tspan>
<tspan x="1600" y="1137">sw:numberOfConceptSchemes (6) [*] D</tspan>
<tspan x="1600" y="1152">sw:numberOfConcepts (6) [*] D</tspan>
<tspan x="1600" y="1167">void:dataDump (9) [*] D -&gt; IRI</tspan>
<tspan x="1600" y="1182">void:sparqlEndpoint (1) [1] D -&gt; IRI</tspan>
<tspan x="1600" y="1197">void:vocabulary (1) [1] D -&gt; IRI</tspan>
</text>
</g>
<g id="2002714423"><polygon points="844,1304 1144,1304 1144,1414 844,1414 "
style="fill:#F4D03F; stroke-width:1;stroke:Black;"/>
<text style="font-family:Arial;font-size:12px;kerning:0;word-spacing:-1px;fill:Black;font-weight:bold;">
<tspan x="927" y="1319">swc:CandidateLabel (1)</tspan>
</text>
<line x1="848" y1="1322" x2="1142" y2="1322"
 style="stroke-width:1;stroke:Black;"/>
<text style="font-family:Arial;font-size:12px;kerning:0;word-spacing:-1px;fill:Black;">
<tspan x="848" y="1334">dct:created (1) [*] </tspan>
<tspan x="848" y="1349">rdf:type (1) [*]  -&gt; IRI</tspan>
<tspan x="848" y="1364">swc:corpus (2) [*] D -&gt; IRI</tspan>
<tspan x="848" y="1379">swc:label (1) [1] D</tspan>
<tspan x="848" y="1394">swc:lang (1) [1] D</tspan>
<tspan x="848" y="1409">swc:term (1) [1] D</tspan>
</text>
</g>
<g id="2002714434"><polygon points="1593,763 1873,763 1873,980 1593,980 "
style="fill:#F4D03F; stroke-width:1;stroke:Black;"/>
<text style="font-family:Arial;font-size:12px;kerning:0;word-spacing:-1px;fill:Black;font-weight:bold;">
<tspan x="1667" y="778">swt:ExportTemplate (2)</tspan>
</text>
<line x1="1597" y1="781" x2="1871" y2="781"
 style="stroke-width:1;stroke:Black;"/>
<text style="font-family:Arial;font-size:12px;kerning:0;word-spacing:-1px;fill:Black;">
<tspan x="1597" y="793">dct:created (2) [*] </tspan>
<tspan x="1597" y="808">dct:date (2) [1] </tspan>
<tspan x="1597" y="823">dct:modified (1) [*] </tspan>
<tspan x="1597" y="838">rdf:type (2) [*]  -&gt; IRI</tspan>
<tspan x="1597" y="853">rdfs:label (2) [*] </tspan>
<tspan x="1597" y="868">swt:action (2) [1] D -&gt; IRI</tspan>
<tspan x="1597" y="883">swt:compress (2) [1] D</tspan>
<tspan x="1597" y="898">swt:format (2) [1] D</tspan>
<tspan x="1597" y="913">swt:graph (1) [1] D -&gt; IRI</tspan>
<tspan x="1597" y="928">swt:module (2) [1] D</tspan>
<tspan x="1597" y="943">swt:prettyPrint (2) [1] D</tspan>
<tspan x="1597" y="958">swt:target (27) [*] D -&gt; IRI</tspan>
</text>
</g>
<g id="2002714445"><polygon points="1016,422 1316,422 1316,462 1016,462 "
style="fill:#F4D03F; stroke-width:1;stroke:Black;"/>
<text style="font-family:Arial;font-size:12px;kerning:0;word-spacing:-1px;fill:Black;font-weight:bold;">
<tspan x="1084" y="437">cht:ObjectTypeCategory (10)</tspan>
</text>
</g>
<g id="2002714456"><polygon points="805,857 1052,857 1052,1012 805,1012 "
style="fill:#F4D03F; stroke-width:1;stroke:Black;"/>
<text style="font-family:Arial;font-size:12px;kerning:0;word-spacing:-1px;fill:Black;font-weight:bold;">
<tspan x="855" y="872">skos:ConceptScheme (9)</tspan>
</text>
<line x1="809" y1="875" x2="1050" y2="875"
 style="stroke-width:1;stroke:Black;"/>
<text style="font-family:Arial;font-size:12px;kerning:0;word-spacing:-1px;fill:Black;">
<tspan x="809" y="887">dct:created (3) [*] </tspan>
<tspan x="809" y="902">dct:description (1) [*] </tspan>
<tspan x="809" y="917">dct:modified (1) [*] </tspan>
<tspan x="809" y="932">dct:subject (1) [*] </tspan>
<tspan x="809" y="947">dct:title (3) [*] </tspan>
<tspan x="809" y="962">owl:deprecated (6) [1] </tspan>
<tspan x="809" y="977">rdf:type (9) [*]  -&gt; IRI</tspan>
<tspan x="809" y="992">rdfs:label (6) [*] </tspan>
<tspan x="809" y="1007">&lt;&gt; dct:isReplacedBy  </tspan>
</text>
</g>
<g id="2002714467"><polygon points="1622,1349 1873,1349 1873,1414 1622,1414 "
style="fill:#F4D03F; stroke-width:1;stroke:Black;"/>
<text style="font-family:Arial;font-size:12px;kerning:0;word-spacing:-1px;fill:Black;font-weight:bold;">
<tspan x="1688" y="1364">swppcm:Property (4)</tspan>
</text>
<line x1="1626" y1="1367" x2="1871" y2="1367"
 style="stroke-width:1;stroke:Black;"/>
<text style="font-family:Arial;font-size:12px;kerning:0;word-spacing:-1px;fill:Black;">
<tspan x="1626" y="1379">rdf:type (4) [*]  -&gt; IRI</tspan>
<tspan x="1626" y="1394">swppcm:predicate (4) [1] D -&gt; IRI</tspan>
<tspan x="1626" y="1409">swppcm:predicateInverse (3) [1] D -&gt; IRI</tspan>
</text>
</g>
<g id="2002714478"><polygon points="435,1364 735,1364 735,1414 435,1414 "
style="fill:#F4D03F; stroke-width:1;stroke:Black;"/>
<text style="font-family:Arial;font-size:12px;kerning:0;word-spacing:-1px;fill:Black;font-weight:bold;">
<tspan x="510" y="1379">swc:CandidateConcept (1)</tspan>
</text>
<line x1="439" y1="1382" x2="733" y2="1382"
 style="stroke-width:1;stroke:Black;"/>
<text style="font-family:Arial;font-size:12px;kerning:0;word-spacing:-1px;fill:Black;">
<tspan x="439" y="1394">dct:created (1) [*] </tspan>
<tspan x="439" y="1409">rdf:type (1) [*]  -&gt; IRI</tspan>
</text>
</g>
<g id="2002714489"><polygon points="1280,489 1445,489 1445,547 1280,547 "
style="fill:#F4D03F; stroke-width:1;stroke:Black;"/>
<text style="font-family:Arial;font-size:12px;kerning:0;word-spacing:-1px;fill:Black;font-weight:bold;">
<tspan x="1311" y="504">rnce:Source (260)</tspan>
</text>
</g>
<g id="2002714500"><polygon points="150,546 354,546 354,591 150,591 "
style="fill:#F4D03F; stroke-width:1;stroke:Black;"/>
<text style="font-family:Arial;font-size:12px;kerning:0;word-spacing:-1px;fill:Black;font-weight:bold;">
<tspan x="190" y="561">rce:SourceHolder (34)</tspan>
</text>
</g>
<g id="2002714511"><polygon points="1289,569 1445,569 1445,599 1289,599 "
style="fill:#F4D03F; stroke-width:1;stroke:Black;"/>
<text style="font-family:Arial;font-size:12px;kerning:0;word-spacing:-1px;fill:Black;font-weight:bold;">
<tspan x="1320" y="584">rce:Source (258)</tspan>
</text>
</g>
<g id="2002714522"><polygon points="250,614 499,614 499,659 250,659 "
style="fill:#F4D03F; stroke-width:1;stroke:Black;"/>
<text style="font-family:Arial;font-size:12px;kerning:0;word-spacing:-1px;fill:Black;font-weight:bold;">
<tspan x="268" y="629">dct:LocationPeriodOrJurisdiction (21)</tspan>
</text>
</g>
<g id="2002714533"><polygon points="911,103 1211,103 1211,198 911,198 "
style="fill:#F4D03F; stroke-width:1;stroke:Black;"/>
<text style="font-family:Arial;font-size:12px;kerning:0;word-spacing:-1px;fill:Black;font-weight:bold;">
<tspan x="1015" y="118">sws:Concept (1)</tspan>
</text>
<line x1="915" y1="121" x2="1209" y2="121"
 style="stroke-width:1;stroke:Black;"/>
<text style="font-family:Arial;font-size:12px;kerning:0;word-spacing:-1px;fill:Black;">
<tspan x="915" y="133">rdf:type (1) [*]  -&gt; IRI</tspan>
<tspan x="915" y="148">skos:prefLabel (1) [*] </tspan>
<tspan x="915" y="163">sws:note (1) [1] D</tspan>
<tspan x="915" y="178">sws:score (1) [1] D</tspan>
<tspan x="915" y="193">swwf:date (1) [1] D</tspan>
</text>
</g>
<g id="2002714544"><polygon points="35,1364 335,1364 335,1414 35,1414 "
style="fill:#F4D03F; stroke-width:1;stroke:Black;"/>
<text style="font-family:Arial;font-size:12px;kerning:0;word-spacing:-1px;fill:Black;font-weight:bold;">
<tspan x="110" y="1379">swc:CandidateRelation (1)</tspan>
</text>
<line x1="39" y1="1382" x2="333" y2="1382"
 style="stroke-width:1;stroke:Black;"/>
<text style="font-family:Arial;font-size:12px;kerning:0;word-spacing:-1px;fill:Black;">
<tspan x="39" y="1394">rdf:type (1) [*]  -&gt; IRI</tspan>
<tspan x="39" y="1409">swc:relationType (1) [1] D</tspan>
</text>
</g>
<g id="2002714555"><polygon points="581,221 959,221 959,725 581,725 "
style="fill:#F4D03F; stroke-width:1;stroke:Black;"/>
<text style="font-family:Arial;font-size:12px;kerning:0;word-spacing:-1px;fill:Black;font-weight:bold;">
<tspan x="709" y="236">skos:Concept (3.1e4)</tspan>
</text>
<line x1="585" y1="239" x2="957" y2="239"
 style="stroke-width:1;stroke:Black;"/>
<text style="font-family:Arial;font-size:12px;kerning:0;word-spacing:-1px;fill:Black;">
<tspan x="585" y="251">dct:created (2.9e4) [*] </tspan>
<tspan x="585" y="266">dct:modified (9783) [*] </tspan>
<tspan x="585" y="281">owl:deprecated (1823) [1] </tspan>
<tspan x="585" y="296">qskos:labelOverlap (1816) [*] D -&gt; IRI</tspan>
<tspan x="585" y="311">qskos:memberOfValuelessAssociativeRelation (1552) [*] D -&gt; IRI</tspan>
<tspan x="585" y="326">rdf:type (8.4e4) [*]  -&gt; IRI</tspan>
<tspan x="585" y="341">rdfs:label (1825) [*] </tspan>
<tspan x="585" y="356">rnce:image (3253) [*] D -&gt; IRI</tspan>
<tspan x="585" y="371">rnce:link (213) [*] D -&gt; IRI</tspan>
<tspan x="585" y="386">rnce:specification (344) [*] D</tspan>
<tspan x="585" y="401">skos:altLabel (3.3e4) [*] D</tspan>
<tspan x="585" y="416">skos:changeNote (4) [*] D -&gt; IRI</tspan>
<tspan x="585" y="431">skos:closeMatch (1486) [*]  -&gt; IRI</tspan>
<tspan x="585" y="446">skos:definition (92) [*] D</tspan>
<tspan x="585" y="461">skos:editorialNote (26) [*] D -&gt; IRI</tspan>
<tspan x="585" y="476">skos:example (3) [1] D</tspan>
<tspan x="585" y="491">skos:hiddenLabel (224) [*] D</tspan>
<tspan x="585" y="506">skos:historyNote (2) [1] D -&gt; IRI</tspan>
<tspan x="585" y="521">skos:notation (7) [1] </tspan>
<tspan x="585" y="536">skos:prefLabel (3.5e4) [*] </tspan>
<tspan x="585" y="551">skos:scopeNote (2.4e4) [*] D</tspan>
<tspan x="585" y="566">sw-p:propagateType (12) [1] D -&gt; IRI</tspan>
<tspan x="585" y="581">swn:corpusStatistic (4063) [*] D -&gt; IRI</tspan>
<tspan x="585" y="596">&lt;&gt; dct:isReplacedBy  </tspan>
<tspan x="585" y="611">&lt;&gt; skos:broadMatch  </tspan>
<tspan x="585" y="626">&lt;&gt; skos:broader  DR</tspan>
<tspan x="585" y="641">&lt;&gt; skos:narrowMatch  </tspan>
<tspan x="585" y="656">&lt;&gt; skos:narrower  DR</tspan>
<tspan x="585" y="671">&lt;&gt; skos:related  DR</tspan>
<tspan x="585" y="686">&lt;&gt; sw-p:inSubtree  D</tspan>
</text>
</g>
<g id="2002714566"><polygon points="1191,1156 1491,1156 1491,1296 1191,1296 "
style="fill:#F4D03F; stroke-width:1;stroke:Black;"/>
<text style="font-family:Arial;font-size:12px;kerning:0;word-spacing:-1px;fill:Black;font-weight:bold;">
<tspan x="1284" y="1171">skos:Collection (11)</tspan>
</text>
<line x1="1195" y1="1174" x2="1489" y2="1174"
 style="stroke-width:1;stroke:Black;"/>
<text style="font-family:Arial;font-size:12px;kerning:0;word-spacing:-1px;fill:Black;">
<tspan x="1195" y="1186">dct:created (4) [*] </tspan>
<tspan x="1195" y="1201">dct:description (4) [*] </tspan>
<tspan x="1195" y="1216">dct:modified (2) [*] </tspan>
<tspan x="1195" y="1231">dct:title (4) [*] </tspan>
<tspan x="1195" y="1246">owl:deprecated (7) [1] </tspan>
<tspan x="1195" y="1261">rdf:type (13) [*]  -&gt; IRI</tspan>
<tspan x="1195" y="1276">rdfs:label (9) [*] </tspan>
<tspan x="1195" y="1291">skos:notation (1) [1] </tspan>
</text>
</g>
<g id="2002714577"><polygon points="1220,753 1460,753 1460,818 1220,818 "
style="fill:#F4D03F; stroke-width:1;stroke:Black;"/>
<text style="font-family:Arial;font-size:12px;kerning:0;word-spacing:-1px;fill:Black;font-weight:bold;">
<tspan x="1264" y="768">skos:OrderedCollection (1)</tspan>
</text>
<line x1="1224" y1="771" x2="1458" y2="771"
 style="stroke-width:1;stroke:Black;"/>
<text style="font-family:Arial;font-size:12px;kerning:0;word-spacing:-1px;fill:Black;">
<tspan x="1224" y="783">dct:created (1) [*] </tspan>
<tspan x="1224" y="798">dct:description (1) [*] </tspan>
<tspan x="1224" y="813">dct:title (1) [*] </tspan>
</text>
</g>
<g id="2002714588"><polygon points="417,1163 680,1163 680,1349 417,1349 "
style="fill:#F4D03F; stroke-width:1;stroke:Black;"/>
<text style="font-family:Arial;font-size:12px;kerning:0;word-spacing:-1px;fill:Black;font-weight:bold;">
<tspan x="477" y="1178">adms:SemanticAsset (3)</tspan>
</text>
<line x1="421" y1="1181" x2="678" y2="1181"
 style="stroke-width:1;stroke:Black;"/>
<text style="font-family:Arial;font-size:12px;kerning:0;word-spacing:-1px;fill:Black;">
<tspan x="421" y="1193">adms:metadataLanguage (2) [1] D -&gt; IRI</tspan>
<tspan x="421" y="1208">adms:status (2) [1]  -&gt; IRI</tspan>
<tspan x="421" y="1223">dct:created (3) [*] </tspan>
<tspan x="421" y="1238">dct:identifier (3) [1] D -&gt; IRI</tspan>
<tspan x="421" y="1253">dct:license (3) [1]  -&gt; IRI</tspan>
<tspan x="421" y="1268">dct:title (12) [*] </tspan>
<tspan x="421" y="1283">foaf:homepage (3) [1] D -&gt; IRI</tspan>
<tspan x="421" y="1298">rad:keyword (12) [*] D</tspan>
<tspan x="421" y="1313">rad:version (3) [1] D</tspan>
<tspan x="421" y="1328">rdf:type (3) [*]  -&gt; IRI</tspan>
</text>
</g>
<g id="2002714599"><polygon points="810,1183 1110,1183 1110,1278 810,1278 "
style="fill:#F4D03F; stroke-width:1;stroke:Black;"/>
<text style="font-family:Arial;font-size:12px;kerning:0;word-spacing:-1px;fill:Black;font-weight:bold;">
<tspan x="853" y="1198">adms:SemanticAssetDistribution (36)</tspan>
</text>
<line x1="814" y1="1201" x2="1108" y2="1201"
 style="stroke-width:1;stroke:Black;"/>
<text style="font-family:Arial;font-size:12px;kerning:0;word-spacing:-1px;fill:Black;">
<tspan x="814" y="1213">adms:accessURL (40) [*] D -&gt; IRI</tspan>
<tspan x="814" y="1228">adms:status (12) [1]  -&gt; IRI</tspan>
<tspan x="814" y="1243">dct:format (36) [1] </tspan>
<tspan x="814" y="1258">dct:title (36) [*] </tspan>
<tspan x="814" y="1273">rdf:type (36) [*]  -&gt; IRI</tspan>
</text>
</g>
<g id="2002714610"><polygon points="600,105 900,105 900,200 600,200 "
style="fill:#F4D03F; stroke-width:1;stroke:Black;"/>
<text style="font-family:Arial;font-size:12px;kerning:0;word-spacing:-1px;fill:Black;font-weight:bold;">
<tspan x="673" y="120">swurigen:UriGenSetting (4)</tspan>
</text>
<line x1="604" y1="123" x2="898" y2="123"
 style="stroke-width:1;stroke:Black;"/>
<text style="font-family:Arial;font-size:12px;kerning:0;word-spacing:-1px;fill:Black;">
<tspan x="604" y="135">rdf:type (4) [*]  -&gt; IRI</tspan>
<tspan x="604" y="150">swurigen:generateUrisForNotations (4) [1] D</tspan>
<tspan x="604" y="165">swurigen:method (4) [1] D</tspan>
<tspan x="604" y="180">swurigen:settingIdentifier (4) [1] D</tspan>
<tspan x="604" y="195">swurigen:target (4) [1] D -&gt; IRI</tspan>
</text>
</g>
<g id="2002714621"><polygon points="1168,204 1402,204 1402,254 1168,254 "
style="fill:#F4D03F; stroke-width:1;stroke:Black;"/>
<text style="font-family:Arial;font-size:12px;kerning:0;word-spacing:-1px;fill:Black;font-weight:bold;">
<tspan x="1217" y="219">swe:OrderDefinition (30)</tspan>
</text>
<line x1="1172" y1="222" x2="1400" y2="222"
 style="stroke-width:1;stroke:Black;"/>
<text style="font-family:Arial;font-size:12px;kerning:0;word-spacing:-1px;fill:Black;">
<tspan x="1172" y="234">rdf:type (30) [*]  -&gt; IRI</tspan>
<tspan x="1172" y="249">sw-l:position (30) [1] D</tspan>
</text>
</g>
<g id="2002714632"><polygon points="212,793 384,793 384,838 212,838 "
style="fill:#F4D03F; stroke-width:1;stroke:Black;"/>
<text style="font-family:Arial;font-size:12px;kerning:0;word-spacing:-1px;fill:Black;font-weight:bold;">
<tspan x="221" y="808">cht:Fysiek-kenmerk (1094)</tspan>
</text>
</g>
<g id="2002714643"><polygon points="1600,1235 1873,1235 1873,1300 1600,1300 "
style="fill:#F4D03F; stroke-width:1;stroke:Black;"/>
<text style="font-family:Arial;font-size:12px;kerning:0;word-spacing:-1px;fill:Black;font-weight:bold;">
<tspan x="1665" y="1250">void:TechnicalFeature (8)</tspan>
</text>
<line x1="1604" y1="1253" x2="1871" y2="1253"
 style="stroke-width:1;stroke:Black;"/>
<text style="font-family:Arial;font-size:12px;kerning:0;word-spacing:-1px;fill:Black;">
<tspan x="1604" y="1265">dct:format (8) [1] </tspan>
<tspan x="1604" y="1280">rdf:type (8) [*]  -&gt; IRI</tspan>
<tspan x="1604" y="1295">rdfs:label (8) [*] </tspan>
</text>
</g>
<g id="2002714654"><polygon points="427,772 678,772 678,867 427,867 "
style="fill:#F4D03F; stroke-width:1;stroke:Black;"/>
<text style="font-family:Arial;font-size:12px;kerning:0;word-spacing:-1px;fill:Black;font-weight:bold;">
<tspan x="482" y="787">rnce:ChtConcept (2.9e4)</tspan>
</text>
<line x1="431" y1="790" x2="676" y2="790"
 style="stroke-width:1;stroke:Black;"/>
<text style="font-family:Arial;font-size:12px;kerning:0;word-spacing:-1px;fill:Black;">
<tspan x="431" y="802">dbo:abstract (2) [1] D</tspan>
<tspan x="431" y="817">owl:sameAs (5) [*] D -&gt; IRI</tspan>
<tspan x="431" y="832">rnce:reference (667) [*] D</tspan>
<tspan x="431" y="847">rnce:sourceIdCht (2770) [*] D</tspan>
<tspan x="431" y="862">srce:hasImage2 (1) [1] D</tspan>
</text>
</g>
<g id="2002714665"><polygon points="186,167 486,167 486,262 186,262 "
style="fill:#F4D03F; stroke-width:1;stroke:Black;"/>
<text style="font-family:Arial;font-size:12px;kerning:0;word-spacing:-1px;fill:Black;font-weight:bold;">
<tspan x="248" y="182">swm:MappingCandidateSet (7)</tspan>
</text>
<line x1="190" y1="185" x2="484" y2="185"
 style="stroke-width:1;stroke:Black;"/>
<text style="font-family:Arial;font-size:12px;kerning:0;word-spacing:-1px;fill:Black;">
<tspan x="190" y="197">dct:created (7) [*] </tspan>
<tspan x="190" y="212">dct:date (7) [1] </tspan>
<tspan x="190" y="227">rdf:type (7) [*]  -&gt; IRI</tspan>
<tspan x="190" y="242">swm:sourceProject (7) [1] D</tspan>
<tspan x="190" y="257">swm:targetProject (7) [1] D</tspan>
</text>
</g>
<g id="2002714676"><polygon points="87,1199 240,1199 240,1249 87,1249 "
style="fill:#F4D03F; stroke-width:1;stroke:Black;"/>
<text style="font-family:Arial;font-size:12px;kerning:0;word-spacing:-1px;fill:Black;font-weight:bold;">
<tspan x="123" y="1214">dct:Agent (24)</tspan>
</text>
<line x1="91" y1="1217" x2="238" y2="1217"
 style="stroke-width:1;stroke:Black;"/>
<text style="font-family:Arial;font-size:12px;kerning:0;word-spacing:-1px;fill:Black;">
<tspan x="91" y="1229">foaf:name (26) [*] D</tspan>
<tspan x="91" y="1244">rdf:type (24) [*]  -&gt; IRI</tspan>
</text>
</g>
<g id="2002714687"><polygon points="1574,134 1874,134 1874,199 1574,199 "
style="fill:#F4D03F; stroke-width:1;stroke:Black;"/>
<text style="font-family:Arial;font-size:12px;kerning:0;word-spacing:-1px;fill:Black;font-weight:bold;">
<tspan x="1656" y="149">swb:blacklistedTerm (2)</tspan>
</text>
<line x1="1578" y1="152" x2="1872" y2="152"
 style="stroke-width:1;stroke:Black;"/>
<text style="font-family:Arial;font-size:12px;kerning:0;word-spacing:-1px;fill:Black;">
<tspan x="1578" y="164">rdf:type (2) [*]  -&gt; IRI</tspan>
<tspan x="1578" y="179">swb:language (2) [1] D</tspan>
<tspan x="1578" y="194">swb:term (2) [1] D</tspan>
</text>
</g>
<g id="2002714698"><polygon points="79,910 379,910 379,1075 79,1075 "
style="fill:#F4D03F; stroke-width:1;stroke:Black;"/>
<text style="font-family:Arial;font-size:12px;kerning:0;word-spacing:-1px;fill:Black;font-weight:bold;">
<tspan x="161" y="925">cht:CHTconcept (2.3e4)</tspan>
</text>
<line x1="83" y1="928" x2="377" y2="928"
 style="stroke-width:1;stroke:Black;"/>
<text style="font-family:Arial;font-size:12px;kerning:0;word-spacing:-1px;fill:Black;">
<tspan x="83" y="940">dct:source (67 46%d) [*] D -&gt; IRI</tspan>
<tspan x="83" y="955">foaf:page (3) [*] D -&gt; IRI</tspan>
<tspan x="83" y="970">rnce:locationSpecificationCht (177) [*] D</tspan>
<tspan x="83" y="985">rnce:memorieVanToelichting (22) [1] D</tspan>
<tspan x="83" y="1000">rnce:opmerkingen (5) [1] D</tspan>
<tspan x="83" y="1015">skosxl:altLabel (7) [*] D -&gt; IRI</tspan>
<tspan x="83" y="1030">skosxl:prefLabel (3) [*] D -&gt; IRI</tspan>
<tspan x="83" y="1045">swp:excludeFromExtraction (7) [1] D</tspan>
</text>
</g>
<g id="2002714709"><polygon points="160,309 460,309 460,434 160,434 "
style="fill:#F4D03F; stroke-width:1;stroke:Black;"/>
<text style="font-family:Arial;font-size:12px;kerning:0;word-spacing:-1px;fill:Black;font-weight:bold;">
<tspan x="222" y="324">swm:MappingCandidate (2497)</tspan>
</text>
<line x1="164" y1="327" x2="458" y2="327"
 style="stroke-width:1;stroke:Black;"/>
<text style="font-family:Arial;font-size:12px;kerning:0;word-spacing:-1px;fill:Black;">
<tspan x="164" y="339">rdf:type (2497) [*]  -&gt; IRI</tspan>
<tspan x="164" y="354">swm:decision (898) [1] D -&gt; IRI</tspan>
<tspan x="164" y="369">swm:rank (2497) [1] </tspan>
<tspan x="164" y="384">swm:reason (2497) [1] D</tspan>
<tspan x="164" y="399">swm:sourcePrefLabel (2497) [1] D</tspan>
<tspan x="164" y="414">swm:status (2497) [1] D</tspan>
<tspan x="164" y="429">swm:targetPrefLabel (2497) [1] D</tspan>
</text>
</g>
<g id="2002797522"><polygon points="666,31 1263,31 1263,86 666,86 "
style="fill:none; stroke-width:1;stroke:Black;"/>
<text style="font-family:Arial;font-size:18px;kerning:0;word-spacing:-1px;fill:Black;font-weight:bold;">
<tspan x="882" y="51">PoolParty Term Cht</tspan>
<tspan x="704" y="73">http://digitaalerfgoed.poolparty.biz/PoolParty/sparql/term/id/cht</tspan>
</text>
</g>
<g id="2002714141"><path d="M1226,304 L959,304 "
style="fill:none;stroke-width:1;stroke:Black;"/>
<line x1="965" y1="301" x2="959" y2="304"
 style="stroke-width:1;stroke:Black;"/>
<line x1="965" y1="307" x2="959" y2="304"
 style="stroke-width:1;stroke:Black;"/>
<text style="font-family:Arial;font-size:12px;kerning:0;word-spacing:-1px;fill:Black;">
<tspan x="1077" y="317">rnce:isConceptStatusOf  R</tspan>
</text>
</g>
<g id="2002714146"><path d="M1256,626 L959,626 "
style="fill:none;stroke-width:1;stroke:Black;"/>
<line x1="965" y1="623" x2="959" y2="626"
 style="stroke-width:1;stroke:Black;"/>
<line x1="965" y1="629" x2="959" y2="626"
 style="stroke-width:1;stroke:Black;"/>
<text style="font-family:Arial;font-size:12px;kerning:0;word-spacing:-1px;fill:Black;">
<tspan x="1191" y="639">rdf:first  DR</tspan>
</text>
</g>
<g id="2002714151"><path d="M581,552 L354,552 "
style="fill:none;stroke-width:1;stroke:Black;"/>
<line x1="360" y1="549" x2="354" y2="552"
 style="stroke-width:1;stroke:Black;"/>
<line x1="360" y1="555" x2="354" y2="552"
 style="stroke-width:1;stroke:Black;"/>
<text style="font-family:Arial;font-size:12px;kerning:0;word-spacing:-1px;fill:Black;">
<tspan x="438" y="565">rnce:hasSourceHolder  D</tspan>
</text>
</g>
<g id="2002714156"><path d="M294,838 L294,910 "
style="fill:none;stroke-width:1;stroke:Black;"/>
<line x1="291" y1="904" x2="294" y2="910"
 style="stroke-width:1;stroke:Black;"/>
<line x1="297" y1="904" x2="294" y2="910"
 style="stroke-width:1;stroke:Black;"/>
<text style="font-family:Arial;font-size:12px;kerning:0;word-spacing:-1px;fill:Black;">
<tspan x="296" y="853">cht:isShapeOf  DR</tspan>
</text>
</g>
<g id="2002714161"><path d="M1737,1216 L1737,1235 "
style="fill:none;stroke-width:1;stroke:Black;"/>
<line x1="1734" y1="1229" x2="1737" y2="1235"
 style="stroke-width:1;stroke:Black;"/>
<line x1="1740" y1="1229" x2="1737" y2="1235"
 style="stroke-width:1;stroke:Black;"/>
<text style="font-family:Arial;font-size:12px;kerning:0;word-spacing:-1px;fill:Black;">
<tspan x="1739" y="1231">void:feature  DR</tspan>
</text>
</g>
<g id="2002714166"><path d="M1593,935 L1460,935 "
style="fill:none;stroke-width:1;stroke:Black;"/>
<line x1="1466" y1="932" x2="1460" y2="935"
 style="stroke-width:1;stroke:Black;"/>
<line x1="1466" y1="938" x2="1460" y2="935"
 style="stroke-width:1;stroke:Black;"/>
<text style="font-family:Arial;font-size:12px;kerning:0;word-spacing:-1px;fill:Black;">
<tspan x="1517" y="948">dct:creator  R</tspan>
</text>
</g>
<g id="2002714171"><path d="M949,725 L949,857 "
style="fill:none;stroke-width:1;stroke:Black;"/>
<line x1="946" y1="851" x2="949" y2="857"
 style="stroke-width:1;stroke:Black;"/>
<line x1="952" y1="851" x2="949" y2="857"
 style="stroke-width:1;stroke:Black;"/>
<text style="font-family:Arial;font-size:12px;kerning:0;word-spacing:-1px;fill:Black;">
<tspan x="951" y="740">skos:inScheme  DR</tspan>
<tspan x="951" y="755">dct:isReplacedBy  </tspan>
<tspan x="951" y="770">skos:topConceptOf  DR</tspan>
</text>
</g>
<g id="2002714176"><path d="M417,1224 L240,1224 "
style="fill:none;stroke-width:1;stroke:Black;"/>
<line x1="246" y1="1221" x2="240" y2="1224"
 style="stroke-width:1;stroke:Black;"/>
<line x1="246" y1="1227" x2="240" y2="1224"
 style="stroke-width:1;stroke:Black;"/>
<text style="font-family:Arial;font-size:12px;kerning:0;word-spacing:-1px;fill:Black;">
<tspan x="249" y="1237">adms:metadataPublisher  DR</tspan>
</text>
</g>
<g id="2002714181"><path d="M1052,935 L1203,935 "
style="fill:none;stroke-width:1;stroke:Black;"/>
<line x1="1197" y1="932" x2="1203" y2="935"
 style="stroke-width:1;stroke:Black;"/>
<line x1="1197" y1="938" x2="1203" y2="935"
 style="stroke-width:1;stroke:Black;"/>
<text style="font-family:Arial;font-size:12px;kerning:0;word-spacing:-1px;fill:Black;">
<tspan x="1056" y="933">dct:creator  R</tspan>
</text>
</g>
<g id="2002714186"><path d="M905,857 L905,725 "
style="fill:none;stroke-width:1;stroke:Black;"/>
<line x1="902" y1="731" x2="905" y2="725"
 style="stroke-width:1;stroke:Black;"/>
<line x1="908" y1="731" x2="905" y2="725"
 style="stroke-width:1;stroke:Black;"/>
<text style="font-family:Arial;font-size:12px;kerning:0;word-spacing:-1px;fill:Black;">
<tspan x="761" y="838">dct:isReplacedBy  </tspan>
<tspan x="761" y="853">skos:hasTopConcept  DR</tspan>
</text>
</g>
<g id="2002714191"><path d="M460,371 L581,371 "
style="fill:none;stroke-width:1;stroke:Black;"/>
<line x1="575" y1="368" x2="581" y2="371"
 style="stroke-width:1;stroke:Black;"/>
<line x1="575" y1="374" x2="581" y2="371"
 style="stroke-width:1;stroke:Black;"/>
<text style="font-family:Arial;font-size:12px;kerning:0;word-spacing:-1px;fill:Black;">
<tspan x="464" y="369">swm:source  DR</tspan>
</text>
</g>
<g id="2002714196"><path d="M607,725 L607,772 "
style="fill:none;stroke-width:1;stroke:Black;"/>
<line x1="604" y1="766" x2="607" y2="772"
 style="stroke-width:1;stroke:Black;"/>
<line x1="610" y1="766" x2="607" y2="772"
 style="stroke-width:1;stroke:Black;"/>
<text style="font-family:Arial;font-size:12px;kerning:0;word-spacing:-1px;fill:Black;">
<tspan x="609" y="740">skos:exactMatch  </tspan>
<tspan x="609" y="755">skos:relatedMatch  D</tspan>
</text>
</g>
<g id="2002714201"><path d="M1280,495 L959,495 "
style="fill:none;stroke-width:1;stroke:Black;"/>
<line x1="965" y1="492" x2="959" y2="495"
 style="stroke-width:1;stroke:Black;"/>
<line x1="965" y1="498" x2="959" y2="495"
 style="stroke-width:1;stroke:Black;"/>
<text style="font-family:Arial;font-size:12px;kerning:0;word-spacing:-1px;fill:Black;">
<tspan x="1173" y="508">rnce:isSourceOf  R</tspan>
</text>
</g>
<g id="2002714206"><path d="M354,584 L581,584 "
style="fill:none;stroke-width:1;stroke:Black;"/>
<line x1="575" y1="581" x2="581" y2="584"
 style="stroke-width:1;stroke:Black;"/>
<line x1="575" y1="587" x2="581" y2="584"
 style="stroke-width:1;stroke:Black;"/>
<text style="font-family:Arial;font-size:12px;kerning:0;word-spacing:-1px;fill:Black;">
<tspan x="358" y="582">rnce:isSourceHolderOf  R</tspan>
</text>
</g>
<g id="2002714211"><path d="M301,309 L301,262 "
style="fill:none;stroke-width:1;stroke:Black;"/>
<line x1="298" y1="268" x2="301" y2="262"
 style="stroke-width:1;stroke:Black;"/>
<line x1="304" y1="268" x2="301" y2="262"
 style="stroke-width:1;stroke:Black;"/>
<text style="font-family:Arial;font-size:12px;kerning:0;word-spacing:-1px;fill:Black;">
<tspan x="122" y="305">swm:containingCandidateSet  D</tspan>
</text>
</g>
<g id="2002714216"><path d="M1165,462 L1165,1140 1163,1144 1159,1146 123,1146 119,1144 117,1140 117,1075 "
style="fill:none;stroke-width:1;stroke:Black;"/>
<line x1="114" y1="1081" x2="117" y2="1075"
 style="stroke-width:1;stroke:Black;"/>
<line x1="120" y1="1081" x2="117" y2="1075"
 style="stroke-width:1;stroke:Black;"/>
<text style="font-family:Arial;font-size:12px;kerning:0;word-spacing:-1px;fill:Black;">
<tspan x="1167" y="477">rnce:isObjectTypeCategoryOf  DR</tspan>
</text>
</g>
<g id="2002714221"><path d="M160,357 L76,357 72,359 70,363 70,618 72,622 76,624 250,624 "
style="fill:none;stroke-width:1;stroke:Black;"/>
<line x1="244" y1="621" x2="250" y2="624"
 style="stroke-width:1;stroke:Black;"/>
<line x1="244" y1="627" x2="250" y2="624"
 style="stroke-width:1;stroke:Black;"/>
<text style="font-family:Arial;font-size:12px;kerning:0;word-spacing:-1px;fill:Black;">
<tspan x="80" y="370">swm:target  D</tspan>
</text>
</g>
<g id="2002714226"><path d="M1191,1162 L758,1162 754,1160 752,1156 752,725 "
style="fill:none;stroke-width:1;stroke:Black;"/>
<line x1="749" y1="731" x2="752" y2="725"
 style="stroke-width:1;stroke:Black;"/>
<line x1="755" y1="731" x2="752" y2="725"
 style="stroke-width:1;stroke:Black;"/>
<text style="font-family:Arial;font-size:12px;kerning:0;word-spacing:-1px;fill:Black;">
<tspan x="1086" y="1175">skos:member  DR</tspan>
</text>
</g>
<g id="2002714231"><path d="M735,1389 L844,1389 "
style="fill:none;stroke-width:1;stroke:Black;"/>
<line x1="838" y1="1386" x2="844" y2="1389"
 style="stroke-width:1;stroke:Black;"/>
<line x1="838" y1="1392" x2="844" y2="1389"
 style="stroke-width:1;stroke:Black;"/>
<text style="font-family:Arial;font-size:12px;kerning:0;word-spacing:-1px;fill:Black;">
<tspan x="739" y="1387">swc:prefLabel  DR</tspan>
</text>
</g>
<g id="2002714236"><path d="M959,541 L1280,541 "
style="fill:none;stroke-width:1;stroke:Black;"/>
<line x1="1274" y1="538" x2="1280" y2="541"
 style="stroke-width:1;stroke:Black;"/>
<line x1="1274" y1="544" x2="1280" y2="541"
 style="stroke-width:1;stroke:Black;"/>
<text style="font-family:Arial;font-size:12px;kerning:0;word-spacing:-1px;fill:Black;">
<tspan x="963" y="539">rnce:hasSource  D</tspan>
</text>
</g>
<g id="2002714241"><path d="M1340,818 L1340,895 "
style="fill:none;stroke-width:1;stroke:Black;"/>
<line x1="1337" y1="889" x2="1340" y2="895"
 style="stroke-width:1;stroke:Black;"/>
<line x1="1343" y1="889" x2="1340" y2="895"
 style="stroke-width:1;stroke:Black;"/>
<text style="font-family:Arial;font-size:12px;kerning:0;word-spacing:-1px;fill:Black;">
<tspan x="1342" y="833">dct:creator  R</tspan>
</text>
</g>
<g id="2002714246"><path d="M810,1210 L680,1210 "
style="fill:none;stroke-width:1;stroke:Black;"/>
<line x1="686" y1="1207" x2="680" y2="1210"
 style="stroke-width:1;stroke:Black;"/>
<line x1="686" y1="1213" x2="680" y2="1210"
 style="stroke-width:1;stroke:Black;"/>
<text style="font-family:Arial;font-size:12px;kerning:0;word-spacing:-1px;fill:Black;">
<tspan x="688" y="1223">rad:distributionOf  DR</tspan>
</text>
</g>
<g id="2002714251"><path d="M435,1389 L335,1389 "
style="fill:none;stroke-width:1;stroke:Black;"/>
<line x1="341" y1="1386" x2="335" y2="1389"
 style="stroke-width:1;stroke:Black;"/>
<line x1="341" y1="1392" x2="335" y2="1389"
 style="stroke-width:1;stroke:Black;"/>
<text style="font-family:Arial;font-size:12px;kerning:0;word-spacing:-1px;fill:Black;">
<tspan x="339" y="1402">swc:broader  DR</tspan>
</text>
</g>
<g id="2002714256"><path d="M1425,1393 L1622,1393 "
style="fill:none;stroke-width:1;stroke:Black;"/>
<line x1="1616" y1="1390" x2="1622" y2="1393"
 style="stroke-width:1;stroke:Black;"/>
<line x1="1616" y1="1396" x2="1622" y2="1393"
 style="stroke-width:1;stroke:Black;"/>
<text style="font-family:Arial;font-size:12px;kerning:0;word-spacing:-1px;fill:Black;">
<tspan x="1429" y="1376">swppcm:contextProperties  DR</tspan>
<tspan x="1429" y="1391">swppcm:negativeProperties  DR</tspan>
</text>
</g>
<g id="2002714261"><path d="M1331,1156 L1331,975 "
style="fill:none;stroke-width:1;stroke:Black;"/>
<line x1="1328" y1="981" x2="1331" y2="975"
 style="stroke-width:1;stroke:Black;"/>
<line x1="1334" y1="981" x2="1331" y2="975"
 style="stroke-width:1;stroke:Black;"/>
<text style="font-family:Arial;font-size:12px;kerning:0;word-spacing:-1px;fill:Black;">
<tspan x="1237" y="1137">dct:creator  R</tspan>
<tspan x="1237" y="1152">dct:contributor  R</tspan>
</text>
</g>
<g id="2002714266"><path d="M680,1242 L810,1242 "
style="fill:none;stroke-width:1;stroke:Black;"/>
<line x1="804" y1="1239" x2="810" y2="1242"
 style="stroke-width:1;stroke:Black;"/>
<line x1="804" y1="1245" x2="810" y2="1242"
 style="stroke-width:1;stroke:Black;"/>
<text style="font-family:Arial;font-size:12px;kerning:0;word-spacing:-1px;fill:Black;">
<tspan x="684" y="1240">rad:distribution  DR</tspan>
</text>
</g>
<g id="2002714271"><path d="M959,282 L1226,282 "
style="fill:none;stroke-width:1;stroke:Black;"/>
<line x1="1220" y1="279" x2="1226" y2="282"
 style="stroke-width:1;stroke:Black;"/>
<line x1="1220" y1="285" x2="1226" y2="282"
 style="stroke-width:1;stroke:Black;"/>
<text style="font-family:Arial;font-size:12px;kerning:0;word-spacing:-1px;fill:Black;">
<tspan x="963" y="280">rnce:hasConceptStatus  D</tspan>
</text>
</g>
<g id="2002714276"><path d="M1596,1096 L1372,1096 1368,1094 1366,1090 1366,975 "
style="fill:none;stroke-width:1;stroke:Black;"/>
<line x1="1363" y1="981" x2="1366" y2="975"
 style="stroke-width:1;stroke:Black;"/>
<line x1="1369" y1="981" x2="1366" y2="975"
 style="stroke-width:1;stroke:Black;"/>
<text style="font-family:Arial;font-size:12px;kerning:0;word-spacing:-1px;fill:Black;">
<tspan x="1497" y="1109">dct:creator  R</tspan>
<tspan x="1497" y="1124">dct:contributor  R</tspan>
<tspan x="1497" y="1139">dct:publisher  DR</tspan>
</text>
</g>
<g id="2002714281"><path d="M959,238 L1168,238 "
style="fill:none;stroke-width:1;stroke:Black;"/>
<line x1="1162" y1="235" x2="1168" y2="238"
 style="stroke-width:1;stroke:Black;"/>
<line x1="1162" y1="241" x2="1168" y2="238"
 style="stroke-width:1;stroke:Black;"/>
<text style="font-family:Arial;font-size:12px;kerning:0;word-spacing:-1px;fill:Black;">
<tspan x="963" y="236">sw-l:orderedBy  D</tspan>
</text>
</g>
<g id="2002714286"><path d="M959,662 L1204,662 1208,664 1210,668 1210,895 "
style="fill:none;stroke-width:1;stroke:Black;"/>
<line x1="1207" y1="889" x2="1210" y2="895"
 style="stroke-width:1;stroke:Black;"/>
<line x1="1213" y1="889" x2="1210" y2="895"
 style="stroke-width:1;stroke:Black;"/>
<text style="font-family:Arial;font-size:12px;kerning:0;word-spacing:-1px;fill:Black;">
<tspan x="963" y="645">dct:creator  R</tspan>
<tspan x="963" y="660">dct:contributor  R</tspan>
</text>
</g>
<g id="2002714291"><path d="M1349,753 L1349,670 "
style="fill:none;stroke-width:1;stroke:Black;"/>
<line x1="1346" y1="676" x2="1349" y2="670"
 style="stroke-width:1;stroke:Black;"/>
<line x1="1352" y1="676" x2="1349" y2="670"
 style="stroke-width:1;stroke:Black;"/>
<text style="font-family:Arial;font-size:12px;kerning:0;word-spacing:-1px;fill:Black;">
<tspan x="1226" y="749">skos:memberList  DR</tspan>
</text>
</g>
<g id="2002714296"><path d="M355,262 L355,309 "
style="fill:none;stroke-width:1;stroke:Black;"/>
<line x1="352" y1="303" x2="355" y2="309"
 style="stroke-width:1;stroke:Black;"/>
<line x1="358" y1="303" x2="355" y2="309"
 style="stroke-width:1;stroke:Black;"/>
<text style="font-family:Arial;font-size:12px;kerning:0;word-spacing:-1px;fill:Black;">
<tspan x="357" y="277">swm:result  DR</tspan>
</text>
</g>
<g id="2002714301"><path d="M218,1075 L218,1107 220,1111 224,1113 1130,1113 1134,1111 1136,1107 1136,462 "
style="fill:none;stroke-width:1;stroke:Black;"/>
<line x1="1133" y1="468" x2="1136" y2="462"
 style="stroke-width:1;stroke:Black;"/>
<line x1="1139" y1="468" x2="1136" y2="462"
 style="stroke-width:1;stroke:Black;"/>
<text style="font-family:Arial;font-size:12px;kerning:0;word-spacing:-1px;fill:Black;">
<tspan x="220" y="1090">rnce:hasObjectTypeCategory  DR</tspan>
</text>
</g>
<g id="2002714306"><path d="M255,910 L255,838 "
style="fill:none;stroke-width:1;stroke:Black;"/>
<line x1="252" y1="844" x2="255" y2="838"
 style="stroke-width:1;stroke:Black;"/>
<line x1="258" y1="844" x2="255" y2="838"
 style="stroke-width:1;stroke:Black;"/>
<text style="font-family:Arial;font-size:12px;kerning:0;word-spacing:-1px;fill:Black;">
<tspan x="153" y="906">cht:hasShape  DR</tspan>
</text>
</g>
<g id="2002714311"><path d="M959,359 L1197,359 "
style="fill:none;stroke-width:2;stroke:Fuchsia;"/>
<polygon points="969,364 959,359 969,354 "
style="fill:Silver;stroke-width:1;stroke:Black;"/>
<text style="font-family:Arial;font-size:12px;kerning:0;word-spacing:-1px;fill:Black;">
<tspan x="963" y="357"> </tspan>
</text>
</g>
<g id="2002714313"><path d="M1367,547 L1367,569 "
style="fill:none;stroke-width:2;stroke:Fuchsia;"/>
<polygon points="1372,557 1367,547 1362,557 "
style="fill:Silver;stroke-width:1;stroke:Black;"/>
<text style="font-family:Arial;font-size:12px;kerning:0;word-spacing:-1px;fill:Black;">
<tspan x="1369" y="562"> </tspan>
</text>
</g>
<g id="2002714315"><path d="M252,523 L252,546 "
style="fill:none;stroke-width:2;stroke:Fuchsia;"/>
<polygon points="257,533 252,523 247,533 "
style="fill:Silver;stroke-width:1;stroke:Black;"/>
<text style="font-family:Arial;font-size:12px;kerning:0;word-spacing:-1px;fill:Black;">
<tspan x="254" y="538"> </tspan>
</text>
</g>
<g id="2002714317"><path d="M587,725 L587,772 "
style="fill:none;stroke-width:2;stroke:Fuchsia;"/>
<polygon points="592,735 587,725 582,735 "
style="fill:Silver;stroke-width:1;stroke:Black;"/>
<text style="font-family:Arial;font-size:12px;kerning:0;word-spacing:-1px;fill:Black;">
<tspan x="589" y="740"> </tspan>
</text>
</g>
<g id="2002714319"><path d="M959,442 L1016,442 "
style="fill:none;stroke-width:2;stroke:Fuchsia;"/>
<polygon points="969,447 959,442 969,437 "
style="fill:Silver;stroke-width:1;stroke:Black;"/>
<text style="font-family:Arial;font-size:12px;kerning:0;word-spacing:-1px;fill:Black;">
<tspan x="963" y="440"> </tspan>
</text>
</g>
<g id="2002714321"><path d="M427,827 L384,827 "
style="fill:none;stroke-width:2;stroke:Fuchsia;"/>
<polygon points="417,832 427,827 417,822 "
style="fill:Silver;stroke-width:1;stroke:Black;"/>
<text style="font-family:Arial;font-size:12px;kerning:0;word-spacing:-1px;fill:Black;">
<tspan x="413" y="840"> </tspan>
</text>
</g>
<g id="2002714323"><path d="M1365,340 L1365,321 "
style="fill:none;stroke-width:2;stroke:Fuchsia;"/>
<polygon points="1370,330 1365,340 1360,330 "
style="fill:Silver;stroke-width:1;stroke:Black;"/>
<text style="font-family:Arial;font-size:12px;kerning:0;word-spacing:-1px;fill:Black;">
<tspan x="1353" y="336"> </tspan>
</text>
</g>
<g id="2002714325"><path d="M458,772 L458,659 "
style="fill:none;stroke-width:2;stroke:Fuchsia;"/>
<polygon points="463,762 458,772 453,762 "
style="fill:Silver;stroke-width:1;stroke:Black;"/>
<text style="font-family:Arial;font-size:12px;kerning:0;word-spacing:-1px;fill:Black;">
<tspan x="446" y="768"> </tspan>
</text>
</g>
<g id="2002714327"><path d="M133,910 L133,651 135,647 139,645 250,645 "
style="fill:none;stroke-width:2;stroke:Fuchsia;"/>
<polygon points="138,900 133,910 128,900 "
style="fill:Silver;stroke-width:1;stroke:Black;"/>
<text style="font-family:Arial;font-size:12px;kerning:0;word-spacing:-1px;fill:Black;">
<tspan x="121" y="906"> </tspan>
</text>
</g>
<g id="2002714329"><path d="M959,520 L1280,520 "
style="fill:none;stroke-width:2;stroke:Fuchsia;"/>
<polygon points="969,525 959,520 969,515 "
style="fill:Silver;stroke-width:1;stroke:Black;"/>
<text style="font-family:Arial;font-size:12px;kerning:0;word-spacing:-1px;fill:Black;">
<tspan x="963" y="518"> </tspan>
</text>
</g>
<g id="2002714331"><path d="M581,484 L351,484 "
style="fill:none;stroke-width:2;stroke:Fuchsia;"/>
<polygon points="571,489 581,484 571,479 "
style="fill:Silver;stroke-width:1;stroke:Black;"/>
<text style="font-family:Arial;font-size:12px;kerning:0;word-spacing:-1px;fill:Black;">
<tspan x="567" y="497"> </tspan>
</text>
</g>
<g id="2002714333"><path d="M732,725 L732,986 730,990 726,992 379,992 "
style="fill:none;stroke-width:2;stroke:Fuchsia;"/>
<polygon points="737,735 732,725 727,735 "
style="fill:Silver;stroke-width:1;stroke:Black;"/>
<text style="font-family:Arial;font-size:12px;kerning:0;word-spacing:-1px;fill:Black;">
<tspan x="734" y="740"> </tspan>
</text>
</g>
</svg>
