<?xml version="1.0" encoding="UTF-8" standalone="no"?>
<!DOCTYPE svg PUBLIC "-//W3C//DTD SVG 1.1//EN"
"http://www.w3.org/Graphics/SVG/1.1/DTD/svg11.dtd">
<svg version="1.1" xmlns="http://www.w3.org/2000/svg"
xmlns:xlink="http://www.w3.org/1999/xlink" xml:space="preserve"
 width="1466" height="899" viewBox="0 0 1466 899">
 onmousemove="movetip(evt)" onmouseup="endmove()">
<rect x="0" y="0" width="100%" height="100%" style="fill:White;"/>
<script type="application/ecmascript"> <![CDATA[
var dragtipid = null; var dragcase = false; function init(evt){
if (window.svgDocument==null) svgDocument = evt.target.ownerDocument;
}
function movetip(evt){if (dragtipid!=null){ dragcase = true;
var tip=svgDocument.getElementById(dragtipid);
tip.setAttributeNS(null,"x",evt.clientX-2);
tip.setAttributeNS(null,"y",evt.clientY-2);
}}
function endmove(){dragtipid = null;}
function startmove(evt,id){dragtipid = id; dragcase = false;
var tip=svgDocument.getElementById(dragtipid);
tip.setAttributeNS(null,"x",evt.clientX-2);
tip.setAttributeNS(null,"y",evt.clientY-2);
}
function Showtip(evt,id){ dragtipid = null;
var tip=svgDocument.getElementById(id);
var vis=tip.getAttributeNS(null,"visibility");
if (vis=="hidden"){
tip.setAttributeNS(null,"x",evt.clientX-2);
tip.setAttributeNS(null,"y",evt.clientY-2);
tip.setAttributeNS(null,"visibility","visible");
}}
function Hidetip(id){ dragtipid = null; if (dragcase==false){
var tip=svgDocument.getElementById(id);
tip.setAttributeNS(null,"visibility","hidden");
}}
]]></script>
<defs><linearGradient id="activ1" x1="0%" y1="0%" x2="100%" y2="0%">
<stop offset="0%" style="stop-color:#FFFF00;stop-opacity:1"/>
<stop offset="100%" style="stop-color:#FFFFF0;stop-opacity:1"/>
</linearGradient></defs>
<g id="2002724136"><polygon points="77,182 307,182 307,320 77,320 "
style="fill:#F4D03F; stroke-width:1;stroke:Black;"/>
<text style="font-family:Arial;font-size:12px;kerning:0;word-spacing:-1px;fill:Black;font-weight:bold;">
<tspan x="135" y="197">class:Author (1.5e8)</tspan>
</text>
<line x1="81" y1="200" x2="305" y2="200"
 style="stroke-width:1;stroke:Black;"/>
<text style="font-family:Arial;font-size:12px;kerning:0;word-spacing:-1px;fill:Black;">
<tspan x="81" y="212">dct:created (1.5e8) [1] </tspan>
<tspan x="81" y="227">foaf:name (1.5e8) [1] </tspan>
<tspan x="81" y="242">property:citationCount (1.5e8) [1] </tspan>
<tspan x="81" y="257">property:hasORCID (3.0e4) [1] </tspan>
<tspan x="81" y="272">property:paperCount (1.5e8) [1] </tspan>
<tspan x="81" y="287">property:paperFamilyCount (1.5e8) [1] </tspan>
<tspan x="81" y="302">property:rank (1.5e8) [1] </tspan>
<tspan x="81" y="317">rdf:type (1.5e8) [*]  -&gt; IRI</tspan>
</text>
</g>
<g id="2002724147"><polygon points="330,494 626,494 626,573 330,573 "
style="fill:#F4D03F; stroke-width:1;stroke:Black;"/>
<polygon points="327,497 623,497 623,576 327,576 "
style="fill:#F4D03F; stroke-width:1;stroke:Black;"/>
<text style="font-family:Arial;font-size:12px;kerning:0;word-spacing:-1px;fill:Black;font-weight:bold;">
<tspan x="365" y="512">class:JournalArticle et al. G101 (9.5e7)</tspan>
</text>
<text style="font-family:Arial;font-size:11px;kerning:0;word-spacing:-1px;fill:Black;font-weight:bold;">
<tspan x="331" y="527">class:JournalArticle (8.6e7)</tspan>
<tspan x="331" y="542">fabio:Book (2.1e6)</tspan>
<tspan x="331" y="557">fabio:BookChapter (2.7e6)</tspan>
<tspan x="331" y="572">fabio:ConferencePaper (4.7e6)</tspan>
</text>
</g>
<g id="2002724158"><polygon points="412,721 612,721 612,785 412,785 "
style="fill:#F4D03F; stroke-width:1;stroke:Black;"/>
<text style="font-family:Arial;font-size:12px;kerning:0;word-spacing:-1px;fill:Black;font-weight:bold;">
<tspan x="467" y="736">rdf:Property (23)</tspan>
</text>
<line x1="416" y1="739" x2="610" y2="739"
 style="stroke-width:1;stroke:Black;"/>
<text style="font-family:Arial;font-size:12px;kerning:0;word-spacing:-1px;fill:Black;">
<tspan x="416" y="751">rdf:type (28) [*]  -&gt; IRI</tspan>
<tspan x="416" y="766">rdfs:label (23) [1] </tspan>
<tspan x="416" y="781">rdfs:subPropertyOf (2) [1] D -&gt; IRI</tspan>
</text>
</g>
<g id="2002724169"><polygon points="1079,599 1456,599 1456,889 1079,889 "
style="fill:White; stroke-width:1;stroke:Black;"/>
<text style="font-family:Arial;font-size:12px;kerning:0;word-spacing:-1px;fill:Black;">
<tspan x="1083" y="613">PREFIX virtrdf: &lt;http://www.openlinksw.com/schemas/virtrdf#&gt;</tspan>
<tspan x="1083" y="628">PREFIX property: &lt;https://makg.org/property/&gt;</tspan>
<tspan x="1083" y="643">PREFIX fabio: &lt;http://purl.org/spar/fabio/&gt;</tspan>
<tspan x="1083" y="658">PREFIX owl: &lt;http://www.w3.org/2002/07/owl#&gt;</tspan>
<tspan x="1083" y="673">PREFIX rdfs: &lt;http://www.w3.org/2000/01/rdf-schema#&gt;</tspan>
<tspan x="1083" y="688">PREFIX class: &lt;https://makg.org/class/&gt;</tspan>
<tspan x="1083" y="703">PREFIX sd: &lt;http://www.w3.org/ns/sparql-service-description#&gt;</tspan>
<tspan x="1083" y="718">PREFIX prism: &lt;http://prismstandard.org/namespaces/basic/2.0/&gt;</tspan>
<tspan x="1083" y="733">PREFIX dct: &lt;http://purl.org/dc/terms/&gt;</tspan>
<tspan x="1083" y="748">PREFIX rdf: &lt;http://www.w3.org/1999/02/22-rdf-syntax-ns#&gt;</tspan>
<tspan x="1083" y="763">PREFIX cito: &lt;http://purl.org/spar/cito/&gt;</tspan>
<tspan x="1083" y="778">PREFIX dbo: &lt;http://dbpedia.org/ontology/&gt;</tspan>
<tspan x="1083" y="793">PREFIX foaf: &lt;http://xmlns.com/foaf/0.1/&gt;</tspan>
<tspan x="1083" y="808">PREFIX wgs84_pos: &lt;http://www.w3.org/2003/01/geo/wgs84_pos#&gt;</tspan>
<tspan x="1083" y="823">PREFIX tl: &lt;http://purl.org/NET/c4dm/timeline.owl#&gt;</tspan>
<tspan x="1083" y="838">PREFIX c4o: &lt;http://purl.org/spar/c4o/&gt;</tspan>
<tspan x="1083" y="853">PREFIX datacite: &lt;http://purl.org/spar/datacite/&gt;</tspan>
<tspan x="1083" y="868">PREFIX org: &lt;http://www.w3.org/ns/org#&gt;</tspan>
<tspan x="1083" y="883">PREFIX iden: &lt;http://id.loc.gov/vocabulary/identifiers/&gt;</tspan>
</text>
</g>
<g id="2002724180"><polygon points="78,640 306,640 306,749 78,749 "
style="fill:#F4D03F; stroke-width:1;stroke:Black;"/>
<text style="font-family:Arial;font-size:12px;kerning:0;word-spacing:-1px;fill:Black;font-weight:bold;">
<tspan x="146" y="655">owl:Ontology (1)</tspan>
</text>
<line x1="82" y1="658" x2="304" y2="658"
 style="stroke-width:1;stroke:Black;"/>
<text style="font-family:Arial;font-size:12px;kerning:0;word-spacing:-1px;fill:Black;">
<tspan x="82" y="670">owl:imports (1) [1] D -&gt; IRI</tspan>
<tspan x="82" y="685">owl:priorVersion (1) [1] D -&gt; IRI</tspan>
<tspan x="82" y="700">owl:versionInfo (1) [1] D</tspan>
<tspan x="82" y="715">rdf:type (1) [*]  -&gt; IRI</tspan>
<tspan x="82" y="730">rdfs:comment (1) [1] D</tspan>
<tspan x="82" y="745">rdfs:isDefinedBy (3) [*] D -&gt; IRI</tspan>
</text>
</g>
<g id="2002724191"><polygon points="411,609 616,609 616,688 411,688 "
style="fill:#F4D03F; stroke-width:1;stroke:Black;"/>
<text style="font-family:Arial;font-size:12px;kerning:0;word-spacing:-1px;fill:Black;font-weight:bold;">
<tspan x="477" y="624">owl:Class (3)</tspan>
</text>
<line x1="415" y1="626" x2="614" y2="626"
 style="stroke-width:1;stroke:Black;"/>
<text style="font-family:Arial;font-size:12px;kerning:0;word-spacing:-1px;fill:Black;">
<tspan x="415" y="638">owl:unionOf (1) [1] D -&gt; IRI</tspan>
<tspan x="415" y="653">rdf:type (3) [*]  -&gt; IRI</tspan>
<tspan x="415" y="668">rdfs:label (2) [1] </tspan>
<tspan x="415" y="683">&lt;&gt; owl:complementOf  DR</tspan>
</text>
</g>
<g id="2002724202"><polygon points="78,760 304,760 304,868 78,868 "
style="fill:#F4D03F; stroke-width:1;stroke:Black;"/>
<text style="font-family:Arial;font-size:12px;kerning:0;word-spacing:-1px;fill:Black;font-weight:bold;">
<tspan x="153" y="775">sd:Service (1)</tspan>
</text>
<line x1="82" y1="778" x2="302" y2="778"
 style="stroke-width:1;stroke:Black;"/>
<text style="font-family:Arial;font-size:12px;kerning:0;word-spacing:-1px;fill:Black;">
<tspan x="82" y="790">rdf:type (1) [*]  -&gt; IRI</tspan>
<tspan x="82" y="805">sd:feature (2) [*] D -&gt; IRI</tspan>
<tspan x="82" y="820">sd:resultFormat (8) [*] D -&gt; IRI</tspan>
<tspan x="82" y="835">sd:supportedLanguage (1) [1] D -&gt; IRI</tspan>
<tspan x="82" y="850">&lt;&gt; sd:endpoint  DR</tspan>
<tspan x="82" y="865">&lt;&gt; sd:url  DR</tspan>
</text>
</g>
<g id="2002724213"><polygon points="78,347 306,347 306,584 78,584 "
style="fill:#F4D03F; stroke-width:1;stroke:Black;"/>
<text style="font-family:Arial;font-size:12px;kerning:0;word-spacing:-1px;fill:Black;font-weight:bold;">
<tspan x="128" y="362">class:Affiliation (2.6e4)</tspan>
</text>
<line x1="82" y1="365" x2="304" y2="365"
 style="stroke-width:1;stroke:Black;"/>
<text style="font-family:Arial;font-size:12px;kerning:0;word-spacing:-1px;fill:Black;">
<tspan x="82" y="377">dct:created (2.6e4) [1] </tspan>
<tspan x="82" y="392">foaf:homepage (1.7e4) [1]  -&gt; IRI</tspan>
<tspan x="82" y="407">foaf:name (2.6e4) [1] </tspan>
<tspan x="82" y="422">owl:sameAs (2.5e4) [1]  -&gt; IRI</tspan>
<tspan x="82" y="437">property:citationCount (2.6e4) [1] </tspan>
<tspan x="82" y="452">property:grid (1.9e4) [1] D -&gt; IRI</tspan>
<tspan x="82" y="467">property:paperCount (2.6e4) [1] </tspan>
<tspan x="82" y="482">property:paperFamilyCount (2.6e4) [1] </tspan>
<tspan x="82" y="497">property:rank (2.6e4) [1] </tspan>
<tspan x="82" y="512">rdf:type (2.6e4) [*]  -&gt; IRI</tspan>
<tspan x="82" y="527">rdfs:seeAlso (2.5e4) [*]  -&gt; IRI</tspan>
<tspan x="82" y="542">wgs84_pos:lat (2.5e4) [1] D</tspan>
<tspan x="82" y="557">wgs84_pos:long (2.5e4) [1] D</tspan>
</text>
</g>
<g id="2002724224"><polygon points="1190,416 1452,416 1452,593 1190,593 "
style="fill:#F4D03F; stroke-width:1;stroke:Black;"/>
<text style="font-family:Arial;font-size:12px;kerning:0;word-spacing:-1px;fill:Black;font-weight:bold;">
<tspan x="1232" y="431">class:ConferenceSeries (5.3e4)</tspan>
</text>
<line x1="1194" y1="434" x2="1450" y2="434"
 style="stroke-width:1;stroke:Black;"/>
<text style="font-family:Arial;font-size:12px;kerning:0;word-spacing:-1px;fill:Black;">
<tspan x="1194" y="446">dct:created (5.3e4) [1] </tspan>
<tspan x="1194" y="461">dct:publisher (189) [1] </tspan>
<tspan x="1194" y="476">foaf:homepage (6280) [1] </tspan>
<tspan x="1194" y="491">foaf:name (5.3e4) [1] </tspan>
<tspan x="1194" y="506">iden:issn (3.7e4) [1] D</tspan>
<tspan x="1194" y="521">property:citationCount (5.3e4) [1] </tspan>
<tspan x="1194" y="536">property:paperCount (5.3e4) [1] </tspan>
<tspan x="1194" y="551">property:paperFamilyCount (5.3e4) [1] </tspan>
<tspan x="1194" y="566">property:rank (5.3e4) [1] </tspan>
<tspan x="1194" y="581">rdf:type (5.3e4) [*]  -&gt; IRI</tspan>
</text>
</g>
<g id="2002724235"><polygon points="727,86 946,86 946,150 727,150 "
style="fill:#F4D03F; stroke-width:1;stroke:Black;"/>
<text style="font-family:Arial;font-size:12px;kerning:0;word-spacing:-1px;fill:Black;font-weight:bold;">
<tspan x="784" y="101">fabio:Work (7.5e4)</tspan>
</text>
<line x1="731" y1="104" x2="944" y2="104"
 style="stroke-width:1;stroke:Black;"/>
<text style="font-family:Arial;font-size:12px;kerning:0;word-spacing:-1px;fill:Black;">
<tspan x="731" y="116">fabio:hasURL (7.5e4) [*] </tspan>
<tspan x="731" y="131">property:resourceType (7.5e4) [1] D</tspan>
<tspan x="731" y="146">rdf:type (7.5e4) [*]  -&gt; IRI</tspan>
</text>
</g>
<g id="2002724246"><polygon points="326,428 539,428 539,477 326,477 "
style="fill:#F4D03F; stroke-width:1;stroke:Black;"/>
<text style="font-family:Arial;font-size:12px;kerning:0;word-spacing:-1px;fill:Black;font-weight:bold;">
<tspan x="348" y="443">fabio:PatentDocument (5.3e7)</tspan>
</text>
<line x1="330" y1="446" x2="537" y2="446"
 style="stroke-width:1;stroke:Black;"/>
<text style="font-family:Arial;font-size:12px;kerning:0;word-spacing:-1px;fill:Black;">
<tspan x="330" y="458">dbo:patent (7.4e7) [*] D -&gt; IRI</tspan>
<tspan x="330" y="473">fabio:hasPatentNumber (7.4e7) [*] D</tspan>
</text>
</g>
<g id="2002724257"><polygon points="1187,103 1455,103 1455,345 1187,345 "
style="fill:#F4D03F; stroke-width:1;stroke:Black;"/>
<text style="font-family:Arial;font-size:12px;kerning:0;word-spacing:-1px;fill:Black;font-weight:bold;">
<tspan x="1226" y="118">class:ConferenceInstance (1.6e4)</tspan>
</text>
<line x1="1191" y1="121" x2="1453" y2="121"
 style="stroke-width:1;stroke:Black;"/>
<text style="font-family:Arial;font-size:12px;kerning:0;word-spacing:-1px;fill:Black;">
<tspan x="1191" y="133">dbo:location (1.6e4 7%d) [1] D -&gt; IRI</tspan>
<tspan x="1191" y="148">dct:created (1.6e4) [1] </tspan>
<tspan x="1191" y="163">foaf:homepage (1.1e4) [1]  -&gt; IRI</tspan>
<tspan x="1191" y="178">foaf:name (1.6e4) [1] </tspan>
<tspan x="1191" y="193">property:abstractRegistrationDate (2236) [1] D</tspan>
<tspan x="1191" y="208">property:citationCount (1.6e4) [1] </tspan>
<tspan x="1191" y="223">property:finalVersionDueDate (5569) [1] D</tspan>
<tspan x="1191" y="238">property:notificationDueDate (6673) [1] D</tspan>
<tspan x="1191" y="253">property:pageCount (1.6e4) [1] D</tspan>
<tspan x="1191" y="268">property:paperFamilyCount (1.6e4) [1] </tspan>
<tspan x="1191" y="283">property:submissionDeadlineDate (1.0e4) [1] D</tspan>
<tspan x="1191" y="298">rdf:type (1.6e4) [*]  -&gt; IRI</tspan>
<tspan x="1191" y="313">tl:end (1.4e4) [1] D</tspan>
<tspan x="1191" y="328">tl:start (1.4e4) [1] D</tspan>
</text>
</g>
<g id="2002724268"><polygon points="80,590 304,590 304,634 80,634 "
style="fill:#F4D03F; stroke-width:1;stroke:Black;"/>
<text style="font-family:Arial;font-size:12px;kerning:0;word-spacing:-1px;fill:Black;font-weight:bold;">
<tspan x="117" y="605">owl:AnnotationProperty (5)</tspan>
</text>
<line x1="84" y1="608" x2="302" y2="608"
 style="stroke-width:1;stroke:Black;"/>
<text style="font-family:Arial;font-size:12px;kerning:0;word-spacing:-1px;fill:Black;">
<tspan x="84" y="620">rdf:type (6) [*]  -&gt; IRI</tspan>
</text>
</g>
<g id="2002724279"><polygon points="688,601 984,601 984,876 688,876 "
style="fill:#F4D03F; stroke-width:1;stroke:Black;"/>
<text style="font-family:Arial;font-size:12px;kerning:0;word-spacing:-1px;fill:Black;font-weight:bold;">
<tspan x="761" y="616">class:FieldOfStudy (7.4e5)</tspan>
</text>
<line x1="692" y1="618" x2="982" y2="618"
 style="stroke-width:1;stroke:Black;"/>
<text style="font-family:Arial;font-size:12px;kerning:0;word-spacing:-1px;fill:Black;">
<tspan x="692" y="630">dct:created (7.4e5) [1] </tspan>
<tspan x="692" y="645">foaf:name (7.4e5) [1] </tspan>
<tspan x="692" y="660">owl:sameAs (2.8e5) [1]  -&gt; IRI</tspan>
<tspan x="692" y="675">property:citationCount (7.4e5) [1] </tspan>
<tspan x="692" y="690">property:level (7.4e5) [1] D</tspan>
<tspan x="692" y="705">property:paperCount (7.4e5) [1] </tspan>
<tspan x="692" y="720">property:paperFamilyCount (7.4e5) [1] </tspan>
<tspan x="692" y="735">property:rank (7.4e5) [1] </tspan>
<tspan x="692" y="750">rdf:type (7.4e5) [*]  -&gt; IRI</tspan>
<tspan x="692" y="765">rdfs:seeAlso (9.8e5) [*]  -&gt; IRI</tspan>
<tspan x="692" y="780">&lt;&gt; property:diseaseHasDiseaseCause  DR</tspan>
<tspan x="692" y="795">&lt;&gt; property:diseaseHasMedicalTreatment  DR</tspan>
<tspan x="692" y="810">&lt;&gt; property:diseaseHasSymptom  DR</tspan>
<tspan x="692" y="825">&lt;&gt; property:isRelatedTo  DR</tspan>
<tspan x="692" y="840">&lt;&gt; property:medicalTreatmentForDiseaseCause  DR</tspan>
<tspan x="692" y="855">&lt;&gt; property:medicalTreatmentForSymptom  DR</tspan>
<tspan x="692" y="870">&lt;&gt; property:symptomHasDiseaseCause  DR</tspan>
</text>
</g>
<g id="2002724290"><polygon points="413,824 612,824 612,868 413,868 "
style="fill:#F4D03F; stroke-width:1;stroke:Black;"/>
<text style="font-family:Arial;font-size:12px;kerning:0;word-spacing:-1px;fill:Black;font-weight:bold;">
<tspan x="442" y="839">owl:OntologyProperty (4)</tspan>
</text>
</g>
<g id="2002724301"><polygon points="332,348 519,348 519,397 332,397 "
style="fill:#F4D03F; stroke-width:1;stroke:Black;"/>
<text style="font-family:Arial;font-size:12px;kerning:0;word-spacing:-1px;fill:Black;font-weight:bold;">
<tspan x="365" y="363">class:Citation (1.6e8)</tspan>
</text>
<line x1="336" y1="366" x2="517" y2="366"
 style="stroke-width:1;stroke:Black;"/>
<text style="font-family:Arial;font-size:12px;kerning:0;word-spacing:-1px;fill:Black;">
<tspan x="336" y="378">c4o:hasContext (2.3e8) [*] D</tspan>
<tspan x="336" y="393">rdf:type (1.6e8) [*]  -&gt; IRI</tspan>
</text>
</g>
<g id="2002724312"><polygon points="687,191 983,191 983,566 687,566 "
style="fill:#F4D03F; stroke-width:1;stroke:Black;"/>
<text style="font-family:Arial;font-size:12px;kerning:0;word-spacing:-1px;fill:Black;font-weight:bold;">
<tspan x="780" y="206">class:Paper (2.4e8)</tspan>
</text>
<line x1="691" y1="208" x2="981" y2="208"
 style="stroke-width:1;stroke:Black;"/>
<text style="font-family:Arial;font-size:12px;kerning:0;word-spacing:-1px;fill:Black;">
<tspan x="691" y="220">datacite:doi (8.9e7) [1] D</tspan>
<tspan x="691" y="235">dbo:publisher (3.3e7) [1] D -&gt; IRI</tspan>
<tspan x="691" y="250">dct:abstract (1.4e8) [1] D</tspan>
<tspan x="691" y="265">dct:created (2.4e8) [1] </tspan>
<tspan x="691" y="280">dct:publisher (9.3e7) [1] </tspan>
<tspan x="691" y="295">dct:title (2.4e8) [*] D</tspan>
<tspan x="691" y="310">fabio:hasPubMedCentralId (5.6e6) [*] D -&gt; IRI</tspan>
<tspan x="691" y="325">fabio:hasPubMedId (3.0e7) [*] D -&gt; IRI</tspan>
<tspan x="691" y="340">fabio:hasURL (4.0e8) [*] </tspan>
<tspan x="691" y="355">prism:endingPage (1.1e8) [1] D</tspan>
<tspan x="691" y="370">prism:issueIdentifier (9.9e7) [1] D</tspan>
<tspan x="691" y="385">prism:keyword (6.8e8) [*] </tspan>
<tspan x="691" y="400">prism:publicationDate (2.4e8) [1] D</tspan>
<tspan x="691" y="415">prism:startingPage (1.2e8) [1] D</tspan>
<tspan x="691" y="430">prism:volume (1.0e8) [1] D</tspan>
<tspan x="691" y="445">property:citationCount (2.4e8) [1] </tspan>
<tspan x="691" y="460">property:estimatedCitationCount (2.4e8) [1] D</tspan>
<tspan x="691" y="475">property:familyId (3.1e6) [1] D</tspan>
<tspan x="691" y="490">property:rank (2.4e8) [1] </tspan>
<tspan x="691" y="505">property:referenceCount (2.4e8) [1] D</tspan>
<tspan x="691" y="520">rdf:type (3.9e8) [*]  -&gt; IRI</tspan>
<tspan x="691" y="535">&lt;&gt; cito:cites  </tspan>
</text>
</g>
<g id="2002797414"><polygon points="598,20 951,20 951,71 598,71 "
style="fill:none; stroke-width:1;stroke:Black;"/>
<text style="font-family:Arial;font-size:18px;kerning:0;word-spacing:-1px;fill:Black;font-weight:bold;">
<tspan x="747" y="40">MAKG</tspan>
<tspan x="680" y="62">https://makg.org/sparql</tspan>
</text>
</g>
<g id="2002724085"><path d="M983,268 L1187,268 "
style="fill:none;stroke-width:1;stroke:Black;"/>
<line x1="1181" y1="265" x2="1187" y2="268"
 style="stroke-width:1;stroke:Black;"/>
<line x1="1181" y1="271" x2="1187" y2="268"
 style="stroke-width:1;stroke:Black;"/>
<text style="font-family:Arial;font-size:12px;kerning:0;word-spacing:-1px;fill:Black;">
<tspan x="987" y="251">property:</tspan>
<tspan x="987" y="266">appearsInConferenceInstance  DR</tspan>
</text>
</g>
<g id="2002724090"><path d="M983,491 L1190,491 "
style="fill:none;stroke-width:1;stroke:Black;"/>
<line x1="1184" y1="488" x2="1190" y2="491"
 style="stroke-width:1;stroke:Black;"/>
<line x1="1184" y1="494" x2="1190" y2="491"
 style="stroke-width:1;stroke:Black;"/>
<text style="font-family:Arial;font-size:12px;kerning:0;word-spacing:-1px;fill:Black;">
<tspan x="987" y="460">property:appearsInJournal  R</tspan>
<tspan x="987" y="475">property:</tspan>
<tspan x="987" y="490">appearsInConferenceSeries  DR</tspan>
</text>
</g>
<g id="2002724095"><path d="M687,263 L307,263 "
style="fill:none;stroke-width:1;stroke:Black;"/>
<line x1="313" y1="260" x2="307" y2="263"
 style="stroke-width:1;stroke:Black;"/>
<line x1="313" y1="266" x2="307" y2="263"
 style="stroke-width:1;stroke:Black;"/>
<text style="font-family:Arial;font-size:12px;kerning:0;word-spacing:-1px;fill:Black;">
<tspan x="612" y="276">dct:creator  R</tspan>
</text>
</g>
<g id="2002724100"><path d="M836,566 L836,601 "
style="fill:none;stroke-width:1;stroke:Black;"/>
<line x1="833" y1="595" x2="836" y2="601"
 style="stroke-width:1;stroke:Black;"/>
<line x1="839" y1="595" x2="836" y2="601"
 style="stroke-width:1;stroke:Black;"/>
<text style="font-family:Arial;font-size:12px;kerning:0;word-spacing:-1px;fill:Black;">
<tspan x="838" y="581">fabio:hasDiscipline  DR</tspan>
</text>
</g>
<g id="2002724105"><path d="M519,379 L687,379 "
style="fill:none;stroke-width:1;stroke:Black;"/>
<line x1="681" y1="376" x2="687" y2="379"
 style="stroke-width:1;stroke:Black;"/>
<line x1="681" y1="382" x2="687" y2="379"
 style="stroke-width:1;stroke:Black;"/>
<text style="font-family:Arial;font-size:12px;kerning:0;word-spacing:-1px;fill:Black;">
<tspan x="523" y="363">cito:hasCitingEntity  DR</tspan>
<tspan x="523" y="378">cito:hasCitedEntity  D</tspan>
</text>
</g>
<g id="2002724110"><path d="M135,320 L135,347 "
style="fill:none;stroke-width:1;stroke:Black;"/>
<line x1="132" y1="341" x2="135" y2="347"
 style="stroke-width:1;stroke:Black;"/>
<line x1="138" y1="341" x2="135" y2="347"
 style="stroke-width:1;stroke:Black;"/>
<text style="font-family:Arial;font-size:12px;kerning:0;word-spacing:-1px;fill:Black;">
<tspan x="137" y="335">org:memberOf  DR</tspan>
</text>
</g>
<g id="2002724115"><path d="M512,721 L512,688 "
style="fill:none;stroke-width:1;stroke:Black;"/>
<line x1="509" y1="694" x2="512" y2="688"
 style="stroke-width:1;stroke:Black;"/>
<line x1="515" y1="694" x2="512" y2="688"
 style="stroke-width:1;stroke:Black;"/>
<text style="font-family:Arial;font-size:12px;kerning:0;word-spacing:-1px;fill:Black;">
<tspan x="430" y="703">rdfs:domain  D</tspan>
<tspan x="430" y="718">rdfs:range  D</tspan>
</text>
</g>
<g id="2002724120"><path d="M1321,345 L1321,416 "
style="fill:none;stroke-width:1;stroke:Black;"/>
<line x1="1318" y1="410" x2="1321" y2="416"
 style="stroke-width:1;stroke:Black;"/>
<line x1="1324" y1="410" x2="1321" y2="416"
 style="stroke-width:1;stroke:Black;"/>
<text style="font-family:Arial;font-size:12px;kerning:0;word-spacing:-1px;fill:Black;">
<tspan x="1323" y="360">dct:isPartOf  DR</tspan>
</text>
</g>
<g id="2002724125"><path d="M836,191 L836,150 "
style="fill:none;stroke-width:1;stroke:Black;"/>
<line x1="833" y1="156" x2="836" y2="150"
 style="stroke-width:1;stroke:Black;"/>
<line x1="839" y1="156" x2="836" y2="150"
 style="stroke-width:1;stroke:Black;"/>
<text style="font-family:Arial;font-size:12px;kerning:0;word-spacing:-1px;fill:Black;">
<tspan x="685" y="172">property:ownResource  DR</tspan>
<tspan x="685" y="187">property:citedResource  DR</tspan>
</text>
</g>
<g id="2002724130"><path d="M512,785 L512,824 "
style="fill:none;stroke-width:2;stroke:Fuchsia;"/>
<polygon points="517,795 512,785 507,795 "
style="fill:Silver;stroke-width:1;stroke:Black;"/>
<text style="font-family:Arial;font-size:12px;kerning:0;word-spacing:-1px;fill:Black;">
<tspan x="514" y="800"> </tspan>
</text>
</g>
<g id="2002724132"><path d="M687,540 L623,540 "
style="fill:none;stroke-width:2;stroke:Fuchsia;"/>
<polygon points="677,545 687,540 677,535 "
style="fill:Silver;stroke-width:1;stroke:Black;"/>
<text style="font-family:Arial;font-size:12px;kerning:0;word-spacing:-1px;fill:Black;">
<tspan x="673" y="553"> </tspan>
</text>
</g>
<g id="2002724134"><path d="M687,453 L539,453 "
style="fill:none;stroke-width:2;stroke:Fuchsia;"/>
<polygon points="677,457 687,453 677,448 "
style="fill:Silver;stroke-width:1;stroke:Black;"/>
<text style="font-family:Arial;font-size:12px;kerning:0;word-spacing:-1px;fill:Black;">
<tspan x="673" y="465"> </tspan>
</text>
</g>
</svg>
