<?xml version="1.0" encoding="UTF-8" standalone="no"?>
<!DOCTYPE svg PUBLIC "-//W3C//DTD SVG 1.1//EN"
"http://www.w3.org/Graphics/SVG/1.1/DTD/svg11.dtd">
<svg version="1.1" xmlns="http://www.w3.org/2000/svg"
xmlns:xlink="http://www.w3.org/1999/xlink" xml:space="preserve"
 width="1735" height="1015" viewBox="0 0 1735 1015">
 onmousemove="movetip(evt)" onmouseup="endmove()">
<rect x="0" y="0" width="100%" height="100%" style="fill:White;"/>
<script type="application/ecmascript"> <![CDATA[
var dragtipid = null; var dragcase = false; function init(evt){
if (window.svgDocument==null) svgDocument = evt.target.ownerDocument;
}
function movetip(evt){if (dragtipid!=null){ dragcase = true;
var tip=svgDocument.getElementById(dragtipid);
tip.setAttributeNS(null,"x",evt.clientX-2);
tip.setAttributeNS(null,"y",evt.clientY-2);
}}
function endmove(){dragtipid = null;}
function startmove(evt,id){dragtipid = id; dragcase = false;
var tip=svgDocument.getElementById(dragtipid);
tip.setAttributeNS(null,"x",evt.clientX-2);
tip.setAttributeNS(null,"y",evt.clientY-2);
}
function Showtip(evt,id){ dragtipid = null;
var tip=svgDocument.getElementById(id);
var vis=tip.getAttributeNS(null,"visibility");
if (vis=="hidden"){
tip.setAttributeNS(null,"x",evt.clientX-2);
tip.setAttributeNS(null,"y",evt.clientY-2);
tip.setAttributeNS(null,"visibility","visible");
}}
function Hidetip(id){ dragtipid = null; if (dragcase==false){
var tip=svgDocument.getElementById(id);
tip.setAttributeNS(null,"visibility","hidden");
}}
]]></script>
<defs><linearGradient id="activ1" x1="0%" y1="0%" x2="100%" y2="0%">
<stop offset="0%" style="stop-color:#FFFF00;stop-opacity:1"/>
<stop offset="100%" style="stop-color:#FFFFF0;stop-opacity:1"/>
</linearGradient></defs>
<g id="2002723012"><polygon points="1215,111 1515,111 1515,221 1215,221 "
style="fill:#F4D03F; stroke-width:1;stroke:Black;"/>
<text style="font-family:Arial;font-size:12px;kerning:0;word-spacing:-1px;fill:Black;font-weight:bold;">
<tspan x="1319" y="126">owl:Ontology (1)</tspan>
</text>
<line x1="1219" y1="129" x2="1513" y2="129"
 style="stroke-width:1;stroke:Black;"/>
<text style="font-family:Arial;font-size:12px;kerning:0;word-spacing:-1px;fill:Black;">
<tspan x="1219" y="141">owl:imports (1) [1] D -&gt; IRI</tspan>
<tspan x="1219" y="156">owl:priorVersion (1) [1] D -&gt; IRI</tspan>
<tspan x="1219" y="171">owl:versionInfo (1) [1] D</tspan>
<tspan x="1219" y="186">rdf:type (1) [*]  -&gt; IRI</tspan>
<tspan x="1219" y="201">rdfs:comment (1) [1] D</tspan>
<tspan x="1219" y="216">rdfs:isDefinedBy (3) [*] D -&gt; IRI</tspan>
</text>
</g>
<g id="2002723023"><polygon points="531,414 831,414 831,483 531,483 "
style="fill:#F4D03F; stroke-width:1;stroke:Black;"/>
<text style="font-family:Arial;font-size:12px;kerning:0;word-spacing:-1px;fill:Black;font-weight:bold;">
<tspan x="624" y="429">faldo:Region (1.5e5)</tspan>
</text>
<line x1="535" y1="432" x2="829" y2="432"
 style="stroke-width:1;stroke:Black;"/>
<text style="font-family:Arial;font-size:12px;kerning:0;word-spacing:-1px;fill:Black;">
<tspan x="535" y="444">rdf:type (1.5e5) [*]  -&gt; IRI</tspan>
</text>
</g>
<g id="2002723034"><polygon points="423,685 623,685 623,735 423,735 "
style="fill:#F4D03F; stroke-width:1;stroke:Black;"/>
<text style="font-family:Arial;font-size:12px;kerning:0;word-spacing:-1px;fill:Black;font-weight:bold;">
<tspan x="459" y="700">ideal:LLPS_Info (2078)</tspan>
</text>
<line x1="427" y1="703" x2="621" y2="703"
 style="stroke-width:1;stroke:Black;"/>
<text style="font-family:Arial;font-size:12px;kerning:0;word-spacing:-1px;fill:Black;">
<tspan x="427" y="715">ideal:llps (2078) [1] D</tspan>
<tspan x="427" y="730">rdf:type (2078) [*]  -&gt; IRI</tspan>
</text>
</g>
<g id="2002723045"><polygon points="10,623 226,623 226,677 10,677 "
style="fill:#F4D03F; stroke-width:1;stroke:Black;"/>
<text style="font-family:Arial;font-size:12px;kerning:0;word-spacing:-1px;fill:Black;font-weight:bold;">
<tspan x="49" y="638">ideal:Modification (7931)</tspan>
</text>
<line x1="14" y1="641" x2="224" y2="641"
 style="stroke-width:1;stroke:Black;"/>
<text style="font-family:Arial;font-size:12px;kerning:0;word-spacing:-1px;fill:Black;">
<tspan x="14" y="653">ideal:modification_name (7719) [1] D</tspan>
<tspan x="14" y="668">rdf:type (7931) [*]  -&gt; IRI</tspan>
</text>
</g>
<g id="2002723056"><polygon points="1046,242 1346,242 1346,311 1046,311 "
style="fill:#F4D03F; stroke-width:1;stroke:Black;"/>
<text style="font-family:Arial;font-size:12px;kerning:0;word-spacing:-1px;fill:Black;font-weight:bold;">
<tspan x="1139" y="257">ideal:Region (6.8e4)</tspan>
</text>
<line x1="1050" y1="260" x2="1344" y2="260"
 style="stroke-width:1;stroke:Black;"/>
<text style="font-family:Arial;font-size:12px;kerning:0;word-spacing:-1px;fill:Black;">
<tspan x="1050" y="272">ideal:chain_id (6.8e4) [*] </tspan>
<tspan x="1050" y="287">ideal:order_disorder (6.8e4) [*] D</tspan>
<tspan x="1050" y="302">rdf:type (6.8e4) [*]  -&gt; IRI</tspan>
</text>
</g>
<g id="2002723067"><polygon points="420,758 642,758 642,803 420,803 "
style="fill:#F4D03F; stroke-width:1;stroke:Black;"/>
<text style="font-family:Arial;font-size:12px;kerning:0;word-spacing:-1px;fill:Black;font-weight:bold;">
<tspan x="443" y="773">core:Cellular_Component (133)</tspan>
</text>
<line x1="424" y1="776" x2="640" y2="776"
 style="stroke-width:1;stroke:Black;"/>
<text style="font-family:Arial;font-size:12px;kerning:0;word-spacing:-1px;fill:Black;">
<tspan x="424" y="788">rdf:type (133) [*]  -&gt; IRI</tspan>
</text>
</g>
<g id="2002723078"><polygon points="908,126 1116,126 1116,171 908,171 "
style="fill:#F4D03F; stroke-width:1;stroke:Black;"/>
<text style="font-family:Arial;font-size:12px;kerning:0;word-spacing:-1px;fill:Black;font-weight:bold;">
<tspan x="940" y="141">ideal:OrderLocation (781)</tspan>
</text>
<line x1="912" y1="144" x2="1114" y2="144"
 style="stroke-width:1;stroke:Black;"/>
<text style="font-family:Arial;font-size:12px;kerning:0;word-spacing:-1px;fill:Black;">
<tspan x="912" y="156">rdf:type (781) [*]  -&gt; IRI</tspan>
</text>
</g>
<g id="2002723089"><polygon points="1088,469 1291,469 1291,519 1088,519 "
style="fill:#F4D03F; stroke-width:1;stroke:Black;"/>
<text style="font-family:Arial;font-size:12px;kerning:0;word-spacing:-1px;fill:Black;font-weight:bold;">
<tspan x="1111" y="484">ideal:InteractionRegion (59)</tspan>
</text>
<line x1="1092" y1="487" x2="1289" y2="487"
 style="stroke-width:1;stroke:Black;"/>
<text style="font-family:Arial;font-size:12px;kerning:0;word-spacing:-1px;fill:Black;">
<tspan x="1092" y="499">ideal:chain_id (59) [*] </tspan>
<tspan x="1092" y="514">rdf:type (59) [*]  -&gt; IRI</tspan>
</text>
</g>
<g id="2002723100"><polygon points="1122,675 1326,675 1326,720 1122,720 "
style="fill:#F4D03F; stroke-width:1;stroke:Black;"/>
<text style="font-family:Arial;font-size:12px;kerning:0;word-spacing:-1px;fill:Black;font-weight:bold;">
<tspan x="1139" y="690">ideal:InteractionProtein (2178)</tspan>
</text>
<line x1="1126" y1="693" x2="1324" y2="693"
 style="stroke-width:1;stroke:Black;"/>
<text style="font-family:Arial;font-size:12px;kerning:0;word-spacing:-1px;fill:Black;">
<tspan x="1126" y="705">rdf:type (2178) [*]  -&gt; IRI</tspan>
</text>
</g>
<g id="2002723111"><polygon points="1306,475 1492,475 1492,520 1306,520 "
style="fill:#F4D03F; stroke-width:1;stroke:Black;"/>
<text style="font-family:Arial;font-size:12px;kerning:0;word-spacing:-1px;fill:Black;font-weight:bold;">
<tspan x="1324" y="490">pdbx-v50:datablock (9769)</tspan>
</text>
<line x1="1310" y1="493" x2="1490" y2="493"
 style="stroke-width:1;stroke:Black;"/>
<text style="font-family:Arial;font-size:12px;kerning:0;word-spacing:-1px;fill:Black;">
<tspan x="1310" y="505">rdf:type (9769) [*]  -&gt; IRI</tspan>
</text>
</g>
<g id="2002723122"><polygon points="11,683 311,683 311,763 11,763 "
style="fill:#F4D03F; stroke-width:1;stroke:Black;"/>
<text style="font-family:Arial;font-size:12px;kerning:0;word-spacing:-1px;fill:Black;font-weight:bold;">
<tspan x="124" y="698">owl:Class (3)</tspan>
</text>
<line x1="15" y1="701" x2="309" y2="701"
 style="stroke-width:1;stroke:Black;"/>
<text style="font-family:Arial;font-size:12px;kerning:0;word-spacing:-1px;fill:Black;">
<tspan x="15" y="713">owl:unionOf (1) [1] D -&gt; IRI</tspan>
<tspan x="15" y="728">rdf:type (3) [*]  -&gt; IRI</tspan>
<tspan x="15" y="743">rdfs:label (2) [1] </tspan>
<tspan x="15" y="758">&lt;&gt; owl:complementOf  DR</tspan>
</text>
</g>
<g id="2002723133"><polygon points="738,559 1006,559 1006,780 738,780 "
style="fill:#F4D03F; stroke-width:1;stroke:Black;"/>
<text style="font-family:Arial;font-size:12px;kerning:0;word-spacing:-1px;fill:Black;font-weight:bold;">
<tspan x="817" y="574">ideal:Protein (1110)</tspan>
</text>
<line x1="742" y1="577" x2="1004" y2="577"
 style="stroke-width:1;stroke:Black;"/>
<text style="font-family:Arial;font-size:12px;kerning:0;word-spacing:-1px;fill:Black;">
<tspan x="742" y="589">ideal:function_desc (1110) [1] D</tspan>
<tspan x="742" y="604">ideal:idealdate (1110) [1] D</tspan>
<tspan x="742" y="619">ideal:name (1110) [1] D</tspan>
<tspan x="742" y="634">ideal:pdbdate (1110) [1] D</tspan>
<tspan x="742" y="649">ideal:sequence (1110) [1] D</tspan>
<tspan x="742" y="664">ideal:sequence_length (1085) [1] D</tspan>
<tspan x="742" y="679">ideal:source_organism (1110) [1] D</tspan>
<tspan x="742" y="694">ideal:synonym (2287) [*] D</tspan>
<tspan x="742" y="709">ideal:uniprotdate (1110) [1] D</tspan>
<tspan x="742" y="724">rdf:type (1110) [*]  -&gt; IRI</tspan>
</text>
</g>
<g id="2002723144"><polygon points="35,111 410,111 410,259 35,259 "
style="fill:White; stroke-width:1;stroke:Black;"/>
<text style="font-family:Arial;font-size:12px;kerning:0;word-spacing:-1px;fill:Black;">
<tspan x="39" y="125">PREFIX virtrdf: &lt;http://www.openlinksw.com/schemas/virtrdf#&gt;</tspan>
<tspan x="39" y="140">PREFIX ideal: &lt;http://ideal-rdf.dbcls.jp/ideal/&gt;</tspan>
<tspan x="39" y="155">PREFIX rdfs: &lt;http://www.w3.org/2000/01/rdf-schema#&gt;</tspan>
<tspan x="39" y="170">PREFIX owl: &lt;http://www.w3.org/2002/07/owl#&gt;</tspan>
<tspan x="39" y="185">PREFIX faldo: &lt;http://biohackathon.org/resource/faldo#&gt;</tspan>
<tspan x="39" y="200">PREFIX sd: &lt;http://www.w3.org/ns/sparql-service-description#&gt;</tspan>
<tspan x="39" y="215">PREFIX rdf: &lt;http://www.w3.org/1999/02/22-rdf-syntax-ns#&gt;</tspan>
<tspan x="39" y="230">PREFIX core: &lt;http://purl.uniprot.org/core/&gt;</tspan>
<tspan x="39" y="245">PREFIX pdbx-v50: &lt;https://rdf.wwpdb.org/schema/pdbx-v50.owl#&gt;</tspan>
</text>
</g>
<g id="2002723155"><polygon points="11,906 311,906 311,951 11,951 "
style="fill:#F4D03F; stroke-width:1;stroke:Black;"/>
<text style="font-family:Arial;font-size:12px;kerning:0;word-spacing:-1px;fill:Black;font-weight:bold;">
<tspan x="90" y="921">owl:OntologyProperty (4)</tspan>
</text>
</g>
<g id="2002723166"><polygon points="1224,592 1529,592 1529,658 1224,658 "
style="fill:#F4D03F; stroke-width:1;stroke:Black;"/>
<text style="font-family:Arial;font-size:12px;kerning:0;word-spacing:-1px;fill:Black;font-weight:bold;">
<tspan x="1312" y="607">ideal:Condition (1.3e4)</tspan>
</text>
<line x1="1228" y1="610" x2="1527" y2="610"
 style="stroke-width:1;stroke:Black;"/>
<text style="font-family:Arial;font-size:12px;kerning:0;word-spacing:-1px;fill:Black;">
<tspan x="1228" y="622">ideal:crystallization_condition (1.3e4) [*] D -&gt; IRI</tspan>
<tspan x="1228" y="637">ideal:method (1.3e4) [1] </tspan>
<tspan x="1228" y="652">rdf:type (1.3e4) [*]  -&gt; IRI</tspan>
</text>
</g>
<g id="2002723177"><polygon points="735,900 977,900 977,945 735,945 "
style="fill:#F4D03F; stroke-width:1;stroke:Black;"/>
<text style="font-family:Arial;font-size:12px;kerning:0;word-spacing:-1px;fill:Black;font-weight:bold;">
<tspan x="802" y="915">core:Protein (6189)</tspan>
</text>
<line x1="739" y1="918" x2="975" y2="918"
 style="stroke-width:1;stroke:Black;"/>
<text style="font-family:Arial;font-size:12px;kerning:0;word-spacing:-1px;fill:Black;">
<tspan x="739" y="930">rdf:type (6189) [*]  -&gt; IRI</tspan>
</text>
</g>
<g id="2002723188"><polygon points="513,262 734,262 734,328 513,328 "
style="fill:#F4D03F; stroke-width:1;stroke:Black;"/>
<text style="font-family:Arial;font-size:12px;kerning:0;word-spacing:-1px;fill:Black;font-weight:bold;">
<tspan x="543" y="277">ideal:DisorderLocation (781)</tspan>
</text>
<line x1="517" y1="280" x2="732" y2="280"
 style="stroke-width:1;stroke:Black;"/>
<text style="font-family:Arial;font-size:12px;kerning:0;word-spacing:-1px;fill:Black;">
<tspan x="517" y="292">rdf:type (781) [*]  -&gt; IRI</tspan>
</text>
</g>
<g id="2002723199"><polygon points="1120,747 1380,747 1380,812 1120,812 "
style="fill:#F4D03F; stroke-width:1;stroke:Black;"/>
<text style="font-family:Arial;font-size:12px;kerning:0;word-spacing:-1px;fill:Black;font-weight:bold;">
<tspan x="1172" y="762">ideal:InteractingPair (2.9e4)</tspan>
</text>
<line x1="1124" y1="765" x2="1378" y2="765"
 style="stroke-width:1;stroke:Black;"/>
<text style="font-family:Arial;font-size:12px;kerning:0;word-spacing:-1px;fill:Black;">
<tspan x="1124" y="777">ideal:chain_id (5.7e4) [*] </tspan>
<tspan x="1124" y="792">ideal:chain_pair (60) [1] D</tspan>
<tspan x="1124" y="807">rdf:type (2.9e4) [*]  -&gt; IRI</tspan>
</text>
</g>
<g id="2002723210"><polygon points="1487,865 1725,865 1725,1005 1487,1005 "
style="fill:#F4D03F; stroke-width:1;stroke:Black;"/>
<text style="font-family:Arial;font-size:12px;kerning:0;word-spacing:-1px;fill:Black;font-weight:bold;">
<tspan x="1539" y="880">ideal:Publication (5779)</tspan>
</text>
<line x1="1491" y1="883" x2="1723" y2="883"
 style="stroke-width:1;stroke:Black;"/>
<text style="font-family:Arial;font-size:12px;kerning:0;word-spacing:-1px;fill:Black;">
<tspan x="1491" y="895">ideal:author (5897) [*] D</tspan>
<tspan x="1491" y="910">ideal:keyword (1) [1] D</tspan>
<tspan x="1491" y="925">ideal:pages (4595) [*] D</tspan>
<tspan x="1491" y="940">ideal:publication (5785) [*] D</tspan>
<tspan x="1491" y="955">ideal:title (5925) [*] D</tspan>
<tspan x="1491" y="970">ideal:volume (4629) [*] D</tspan>
<tspan x="1491" y="985">ideal:year (4724) [*] D</tspan>
<tspan x="1491" y="1000">rdf:type (5779) [*]  -&gt; IRI</tspan>
</text>
</g>
<g id="2002723221"><polygon points="11,802 311,802 311,867 11,867 "
style="fill:#F4D03F; stroke-width:1;stroke:Black;"/>
<text style="font-family:Arial;font-size:12px;kerning:0;word-spacing:-1px;fill:Black;font-weight:bold;">
<tspan x="115" y="817">rdf:Property (23)</tspan>
</text>
<line x1="15" y1="820" x2="309" y2="820"
 style="stroke-width:1;stroke:Black;"/>
<text style="font-family:Arial;font-size:12px;kerning:0;word-spacing:-1px;fill:Black;">
<tspan x="15" y="832">rdf:type (28) [*]  -&gt; IRI</tspan>
<tspan x="15" y="847">rdfs:label (23) [1] </tspan>
<tspan x="15" y="862">rdfs:subPropertyOf (2) [1] D -&gt; IRI</tspan>
</text>
</g>
<g id="2002723232"><polygon points="376,895 676,895 676,1005 376,1005 "
style="fill:#F4D03F; stroke-width:1;stroke:Black;"/>
<text style="font-family:Arial;font-size:12px;kerning:0;word-spacing:-1px;fill:Black;font-weight:bold;">
<tspan x="487" y="910">sd:Service (1)</tspan>
</text>
<line x1="380" y1="913" x2="674" y2="913"
 style="stroke-width:1;stroke:Black;"/>
<text style="font-family:Arial;font-size:12px;kerning:0;word-spacing:-1px;fill:Black;">
<tspan x="380" y="925">rdf:type (1) [*]  -&gt; IRI</tspan>
<tspan x="380" y="940">sd:feature (2) [*] D -&gt; IRI</tspan>
<tspan x="380" y="955">sd:resultFormat (8) [*] D -&gt; IRI</tspan>
<tspan x="380" y="970">sd:supportedLanguage (1) [1] D -&gt; IRI</tspan>
<tspan x="380" y="985">&lt;&gt; sd:endpoint  DR</tspan>
<tspan x="380" y="1000">&lt;&gt; sd:url  DR</tspan>
</text>
</g>
<g id="2002723243"><polygon points="174,415 392,415 392,480 174,480 "
style="fill:#F4D03F; stroke-width:1;stroke:Black;"/>
<text style="font-family:Arial;font-size:12px;kerning:0;word-spacing:-1px;fill:Black;font-weight:bold;">
<tspan x="206" y="430">faldo:ExactPosition (2.9e5)</tspan>
</text>
<line x1="178" y1="433" x2="390" y2="433"
 style="stroke-width:1;stroke:Black;"/>
<text style="font-family:Arial;font-size:12px;kerning:0;word-spacing:-1px;fill:Black;">
<tspan x="178" y="445">faldo:position (3.0e5) [*] D</tspan>
<tspan x="178" y="460">faldo:reference (2.9e5) [1] D -&gt; IRI</tspan>
<tspan x="178" y="475">rdf:type (2.9e5) [*]  -&gt; IRI</tspan>
</text>
</g>
<g id="2002723254"><polygon points="404,550 618,550 618,600 404,600 "
style="fill:#F4D03F; stroke-width:1;stroke:Black;"/>
<text style="font-family:Arial;font-size:12px;kerning:0;word-spacing:-1px;fill:Black;font-weight:bold;">
<tspan x="462" y="565">ideal:Motif (1190)</tspan>
</text>
<line x1="408" y1="568" x2="616" y2="568"
 style="stroke-width:1;stroke:Black;"/>
<text style="font-family:Arial;font-size:12px;kerning:0;word-spacing:-1px;fill:Black;">
<tspan x="408" y="580">ideal:motif_name (527) [1] D</tspan>
<tspan x="408" y="595">rdf:type (1190) [*]  -&gt; IRI</tspan>
</text>
</g>
<g id="2002723265"><polygon points="1116,832 1416,832 1416,957 1116,957 "
style="fill:#F4D03F; stroke-width:1;stroke:Black;"/>
<polygon points="1113,835 1413,835 1413,960 1113,960 "
style="fill:#F4D03F; stroke-width:1;stroke:Black;"/>
<text style="font-family:Arial;font-size:12px;kerning:0;word-spacing:-1px;fill:Black;font-weight:bold;">
<tspan x="1135" y="850">ideal:InteractionCondition et al. G102 (1.7e4)</tspan>
</text>
<line x1="1117" y1="853" x2="1411" y2="853"
 style="stroke-width:1;stroke:Black;"/>
<text style="font-family:Arial;font-size:12px;kerning:0;word-spacing:-1px;fill:Black;">
<tspan x="1117" y="865">ideal:cluster_id (1.7e4) [1] </tspan>
<tspan x="1117" y="880">ideal:oligomeric_state (1.7e4) [1] </tspan>
<tspan x="1117" y="895">ideal:pdb_biomolecule_number (1.7e4) [1] </tspan>
<tspan x="1117" y="910">rdf:type (3.4e4) [*]  -&gt; IRI</tspan>
</text>
<text style="font-family:Arial;font-size:11px;kerning:0;word-spacing:-1px;fill:Black;font-weight:bold;">
<tspan x="1117" y="925">ideal:BiologicalUnit (1.7e4)</tspan>
<tspan x="1117" y="940">ideal:InteractionBiologicalUnit (17)</tspan>
<tspan x="1117" y="955">ideal:InteractionCondition (1.7e4)</tspan>
</text>
</g>
<g id="2002723276"><polygon points="300,283 507,283 507,393 300,393 "
style="fill:#F4D03F; stroke-width:1;stroke:Black;"/>
<text style="font-family:Arial;font-size:12px;kerning:0;word-spacing:-1px;fill:Black;font-weight:bold;">
<tspan x="344" y="298">ideal:Domain (1.0e4)</tspan>
</text>
<line x1="304" y1="301" x2="505" y2="301"
 style="stroke-width:1;stroke:Black;"/>
<text style="font-family:Arial;font-size:12px;kerning:0;word-spacing:-1px;fill:Black;">
<tspan x="304" y="313">ideal:class (1.0e4) [1] D</tspan>
<tspan x="304" y="328">ideal:evalue (1.0e4) [1] D</tspan>
<tspan x="304" y="343">ideal:function (6043) [*] </tspan>
<tspan x="304" y="358">ideal:refdb (1.0e4) [1] D</tspan>
<tspan x="304" y="373">ideal:target (1.0e4) [1] D</tspan>
<tspan x="304" y="388">rdf:type (1.0e4) [*]  -&gt; IRI</tspan>
</text>
</g>
<g id="2002723287"><polygon points="735,960 1035,960 1035,1005 735,1005 "
style="fill:#F4D03F; stroke-width:1;stroke:Black;"/>
<text style="font-family:Arial;font-size:12px;kerning:0;word-spacing:-1px;fill:Black;font-weight:bold;">
<tspan x="809" y="975">owl:AnnotationProperty (5)</tspan>
</text>
<line x1="739" y1="978" x2="1033" y2="978"
 style="stroke-width:1;stroke:Black;"/>
<text style="font-family:Arial;font-size:12px;kerning:0;word-spacing:-1px;fill:Black;">
<tspan x="739" y="990">rdf:type (6) [*]  -&gt; IRI</tspan>
</text>
</g>
<g id="2002723298"><polygon points="1168,376 1372,376 1372,456 1168,456 "
style="fill:#F4D03F; stroke-width:1;stroke:Black;"/>
<text style="font-family:Arial;font-size:12px;kerning:0;word-spacing:-1px;fill:Black;font-weight:bold;">
<tspan x="1211" y="391">ideal:Missing (2.1e4)</tspan>
</text>
<line x1="1172" y1="394" x2="1370" y2="394"
 style="stroke-width:1;stroke:Black;"/>
<text style="font-family:Arial;font-size:12px;kerning:0;word-spacing:-1px;fill:Black;">
<tspan x="1172" y="406">ideal:chain_id (2.1e4) [*] </tspan>
<tspan x="1172" y="421">ideal:identity (2.1e4) [1] D</tspan>
<tspan x="1172" y="436">ideal:method (2.1e4) [1] </tspan>
<tspan x="1172" y="451">rdf:type (2.1e4) [*]  -&gt; IRI</tspan>
</text>
</g>
<g id="2002723309"><polygon points="621,837 833,837 833,882 621,882 "
style="fill:#F4D03F; stroke-width:1;stroke:Black;"/>
<text style="font-family:Arial;font-size:12px;kerning:0;word-spacing:-1px;fill:Black;font-weight:bold;">
<tspan x="643" y="852">ideal:ProteinReference (1110)</tspan>
</text>
<line x1="625" y1="855" x2="831" y2="855"
 style="stroke-width:1;stroke:Black;"/>
<text style="font-family:Arial;font-size:12px;kerning:0;word-spacing:-1px;fill:Black;">
<tspan x="625" y="867">rdf:type (1110) [*]  -&gt; IRI</tspan>
</text>
</g>
<g id="2002723320"><polygon points="853,816 1030,816 1030,878 853,878 "
style="fill:#F4D03F; stroke-width:1;stroke:Black;"/>
<text style="font-family:Arial;font-size:12px;kerning:0;word-spacing:-1px;fill:Black;font-weight:bold;">
<tspan x="888" y="831">ideal:Chain (3.8e4)</tspan>
</text>
<line x1="857" y1="834" x2="1028" y2="834"
 style="stroke-width:1;stroke:Black;"/>
<text style="font-family:Arial;font-size:12px;kerning:0;word-spacing:-1px;fill:Black;">
<tspan x="857" y="846">ideal:chain_id (3.8e4) [*] </tspan>
<tspan x="857" y="861">rdf:type (3.8e4) [*]  -&gt; IRI</tspan>
</text>
</g>
<g id="2002723331"><polygon points="1424,709 1607,709 1607,754 1424,754 "
style="fill:#F4D03F; stroke-width:1;stroke:Black;"/>
<text style="font-family:Arial;font-size:12px;kerning:0;word-spacing:-1px;fill:Black;font-weight:bold;">
<tspan x="1450" y="724">ideal:Interaction (1089)</tspan>
</text>
<line x1="1428" y1="727" x2="1605" y2="727"
 style="stroke-width:1;stroke:Black;"/>
<text style="font-family:Arial;font-size:12px;kerning:0;word-spacing:-1px;fill:Black;">
<tspan x="1428" y="739">rdf:type (1089) [*]  -&gt; IRI</tspan>
</text>
</g>
<g id="2002723342"><polygon points="548,111 745,111 745,191 548,191 "
style="fill:#F4D03F; stroke-width:1;stroke:Black;"/>
<text style="font-family:Arial;font-size:12px;kerning:0;word-spacing:-1px;fill:Black;font-weight:bold;">
<tspan x="590" y="126">ideal:Function (780)</tspan>
</text>
<line x1="552" y1="129" x2="743" y2="129"
 style="stroke-width:1;stroke:Black;"/>
<text style="font-family:Arial;font-size:12px;kerning:0;word-spacing:-1px;fill:Black;">
<tspan x="552" y="141">ideal:comment (780) [1] D</tspan>
<tspan x="552" y="156">ideal:function_type (780) [1] D</tspan>
<tspan x="552" y="171">ideal:pros_type (780) [1] D</tspan>
<tspan x="552" y="186">rdf:type (780) [*]  -&gt; IRI</tspan>
</text>
</g>
<g id="2002798237"><polygon points="425,28 1205,28 1205,86 425,86 "
style="fill:none; stroke-width:1;stroke:Black;"/>
<text style="font-family:Arial;font-size:18px;kerning:0;word-spacing:-1px;fill:Black;font-weight:bold;">
<tspan x="509" y="48">Intrinsically Disordered proteins with Extensive Annotations and Literature</tspan>
<tspan x="689" y="70">https://ideal-rdf.dbcls.jp/sparql</tspan>
</text>
</g>
<g id="2002722820"><path d="M579,191 L579,262 "
style="fill:none;stroke-width:1;stroke:Black;"/>
<line x1="576" y1="256" x2="579" y2="262"
 style="stroke-width:1;stroke:Black;"/>
<line x1="582" y1="256" x2="579" y2="262"
 style="stroke-width:1;stroke:Black;"/>
<text style="font-family:Arial;font-size:12px;kerning:0;word-spacing:-1px;fill:Black;">
<tspan x="581" y="206">ideal:disorder_location  DR</tspan>
</text>
</g>
<g id="2002722825"><path d="M1339,456 L1339,475 "
style="fill:none;stroke-width:1;stroke:Black;"/>
<line x1="1336" y1="469" x2="1339" y2="475"
 style="stroke-width:1;stroke:Black;"/>
<line x1="1342" y1="469" x2="1339" y2="475"
 style="stroke-width:1;stroke:Black;"/>
<text style="font-family:Arial;font-size:12px;kerning:0;word-spacing:-1px;fill:Black;">
<tspan x="1341" y="471">ideal:pdb_id  R</tspan>
</text>
</g>
<g id="2002722830"><path d="M1046,294 L779,294 775,296 773,300 773,414 "
style="fill:none;stroke-width:1;stroke:Black;"/>
<line x1="770" y1="408" x2="773" y2="414"
 style="stroke-width:1;stroke:Black;"/>
<line x1="776" y1="408" x2="773" y2="414"
 style="stroke-width:1;stroke:Black;"/>
<text style="font-family:Arial;font-size:12px;kerning:0;word-spacing:-1px;fill:Black;">
<tspan x="965" y="307">ideal:range  R</tspan>
</text>
</g>
<g id="2002722835"><path d="M220,623 L220,606 222,602 226,600 392,600 396,598 398,594 398,483 400,479 404,477 531,477 "
style="fill:none;stroke-width:1;stroke:Black;"/>
<line x1="525" y1="474" x2="531" y2="477"
 style="stroke-width:1;stroke:Black;"/>
<line x1="525" y1="480" x2="531" y2="477"
 style="stroke-width:1;stroke:Black;"/>
<text style="font-family:Arial;font-size:12px;kerning:0;word-spacing:-1px;fill:Black;">
<tspan x="55" y="619">ideal:modification_region  DR</tspan>
</text>
</g>
<g id="2002722840"><path d="M745,148 L908,148 "
style="fill:none;stroke-width:1;stroke:Black;"/>
<line x1="902" y1="145" x2="908" y2="148"
 style="stroke-width:1;stroke:Black;"/>
<line x1="902" y1="151" x2="908" y2="148"
 style="stroke-width:1;stroke:Black;"/>
<text style="font-family:Arial;font-size:12px;kerning:0;word-spacing:-1px;fill:Black;">
<tspan x="749" y="146">ideal:order_location  DR</tspan>
</text>
</g>
<g id="2002722845"><path d="M913,878 L913,900 "
style="fill:none;stroke-width:1;stroke:Black;"/>
<line x1="910" y1="894" x2="913" y2="900"
 style="stroke-width:1;stroke:Black;"/>
<line x1="916" y1="894" x2="913" y2="900"
 style="stroke-width:1;stroke:Black;"/>
<text style="font-family:Arial;font-size:12px;kerning:0;word-spacing:-1px;fill:Black;">
<tspan x="915" y="893">ideal:uniprot_id  R</tspan>
</text>
</g>
<g id="2002722850"><path d="M734,281 L1046,281 "
style="fill:none;stroke-width:1;stroke:Black;"/>
<line x1="1040" y1="278" x2="1046" y2="281"
 style="stroke-width:1;stroke:Black;"/>
<line x1="1040" y1="284" x2="1046" y2="281"
 style="stroke-width:1;stroke:Black;"/>
<text style="font-family:Arial;font-size:12px;kerning:0;word-spacing:-1px;fill:Black;">
<tspan x="738" y="279">ideal:disorder_region_id  D</tspan>
</text>
</g>
<g id="2002722855"><path d="M847,780 L847,900 "
style="fill:none;stroke-width:1;stroke:Black;"/>
<line x1="844" y1="894" x2="847" y2="900"
 style="stroke-width:1;stroke:Black;"/>
<line x1="850" y1="894" x2="847" y2="900"
 style="stroke-width:1;stroke:Black;"/>
<text style="font-family:Arial;font-size:12px;kerning:0;word-spacing:-1px;fill:Black;">
<tspan x="849" y="795">ideal:uniprot_id  R</tspan>
</text>
</g>
<g id="2002722860"><path d="M957,816 L957,780 "
style="fill:none;stroke-width:1;stroke:Black;"/>
<line x1="954" y1="786" x2="957" y2="780"
 style="stroke-width:1;stroke:Black;"/>
<line x1="960" y1="786" x2="957" y2="780"
 style="stroke-width:1;stroke:Black;"/>
<text style="font-family:Arial;font-size:12px;kerning:0;word-spacing:-1px;fill:Black;">
<tspan x="885" y="812">ideal:idp_id  </tspan>
</text>
</g>
<g id="2002722865"><path d="M1250,835 L1250,812 "
style="fill:none;stroke-width:1;stroke:Black;"/>
<line x1="1247" y1="818" x2="1250" y2="812"
 style="stroke-width:1;stroke:Black;"/>
<line x1="1253" y1="818" x2="1250" y2="812"
 style="stroke-width:1;stroke:Black;"/>
<text style="font-family:Arial;font-size:12px;kerning:0;word-spacing:-1px;fill:Black;">
<tspan x="1118" y="831">ideal:interacting_pair  R</tspan>
</text>
</g>
<g id="2002722870"><path d="M449,393 L449,415 451,419 455,421 531,421 "
style="fill:none;stroke-width:1;stroke:Black;"/>
<line x1="525" y1="418" x2="531" y2="421"
 style="stroke-width:1;stroke:Black;"/>
<line x1="525" y1="424" x2="531" y2="421"
 style="stroke-width:1;stroke:Black;"/>
<text style="font-family:Arial;font-size:12px;kerning:0;word-spacing:-1px;fill:Black;">
<tspan x="451" y="408">ideal:range  R</tspan>
</text>
</g>
<g id="2002722875"><path d="M1520,709 L1520,658 "
style="fill:none;stroke-width:1;stroke:Black;"/>
<line x1="1517" y1="664" x2="1520" y2="658"
 style="stroke-width:1;stroke:Black;"/>
<line x1="1523" y1="664" x2="1520" y2="658"
 style="stroke-width:1;stroke:Black;"/>
<text style="font-family:Arial;font-size:12px;kerning:0;word-spacing:-1px;fill:Black;">
<tspan x="1432" y="705">ideal:condition  </tspan>
</text>
</g>
<g id="2002722880"><path d="M738,679 L617,679 617,685 "
style="fill:none;stroke-width:1;stroke:Black;"/>
<line x1="614" y1="679" x2="617" y2="685"
 style="stroke-width:1;stroke:Black;"/>
<line x1="620" y1="679" x2="617" y2="685"
 style="stroke-width:1;stroke:Black;"/>
<text style="font-family:Arial;font-size:12px;kerning:0;word-spacing:-1px;fill:Black;">
<tspan x="633" y="692">ideal:llps_info  DR</tspan>
</text>
</g>
<g id="2002722885"><path d="M1424,726 L1320,726 1320,720 "
style="fill:none;stroke-width:1;stroke:Black;"/>
<line x1="1317" y1="726" x2="1320" y2="720"
 style="stroke-width:1;stroke:Black;"/>
<line x1="1323" y1="726" x2="1320" y2="720"
 style="stroke-width:1;stroke:Black;"/>
<text style="font-family:Arial;font-size:12px;kerning:0;word-spacing:-1px;fill:Black;">
<tspan x="1328" y="739">ideal:protein  DR</tspan>
</text>
</g>
<g id="2002722890"><path d="M896,559 L896,181 894,177 890,175 745,175 "
style="fill:none;stroke-width:1;stroke:Black;"/>
<line x1="751" y1="172" x2="745" y2="175"
 style="stroke-width:1;stroke:Black;"/>
<line x1="751" y1="178" x2="745" y2="175"
 style="stroke-width:1;stroke:Black;"/>
<text style="font-family:Arial;font-size:12px;kerning:0;word-spacing:-1px;fill:Black;">
<tspan x="815" y="555">ideal:function  </tspan>
</text>
</g>
<g id="2002722895"><path d="M1529,629 L1706,629 1710,631 1712,635 1712,865 "
style="fill:none;stroke-width:1;stroke:Black;"/>
<line x1="1709" y1="859" x2="1712" y2="865"
 style="stroke-width:1;stroke:Black;"/>
<line x1="1715" y1="859" x2="1712" y2="865"
 style="stroke-width:1;stroke:Black;"/>
<text style="font-family:Arial;font-size:12px;kerning:0;word-spacing:-1px;fill:Black;">
<tspan x="1533" y="627">ideal:condition_reference  DR</tspan>
</text>
</g>
<g id="2002722900"><path d="M1006,637 L1224,637 "
style="fill:none;stroke-width:1;stroke:Black;"/>
<line x1="1218" y1="634" x2="1224" y2="637"
 style="stroke-width:1;stroke:Black;"/>
<line x1="1218" y1="640" x2="1224" y2="637"
 style="stroke-width:1;stroke:Black;"/>
<text style="font-family:Arial;font-size:12px;kerning:0;word-spacing:-1px;fill:Black;">
<tspan x="1010" y="635">ideal:condition  </tspan>
</text>
</g>
<g id="2002722905"><path d="M744,780 L744,837 "
style="fill:none;stroke-width:1;stroke:Black;"/>
<line x1="741" y1="831" x2="744" y2="837"
 style="stroke-width:1;stroke:Black;"/>
<line x1="747" y1="831" x2="744" y2="837"
 style="stroke-width:1;stroke:Black;"/>
<text style="font-family:Arial;font-size:12px;kerning:0;word-spacing:-1px;fill:Black;">
<tspan x="746" y="795">rdfs:seeAlso  DR</tspan>
</text>
</g>
<g id="2002722910"><path d="M634,328 L634,414 "
style="fill:none;stroke-width:1;stroke:Black;"/>
<line x1="631" y1="408" x2="634" y2="414"
 style="stroke-width:1;stroke:Black;"/>
<line x1="637" y1="408" x2="634" y2="414"
 style="stroke-width:1;stroke:Black;"/>
<text style="font-family:Arial;font-size:12px;kerning:0;word-spacing:-1px;fill:Black;">
<tspan x="636" y="343">ideal:range  R</tspan>
</text>
</g>
<g id="2002722915"><path d="M1168,424 L831,424 "
style="fill:none;stroke-width:1;stroke:Black;"/>
<line x1="837" y1="421" x2="831" y2="424"
 style="stroke-width:1;stroke:Black;"/>
<line x1="837" y1="427" x2="831" y2="424"
 style="stroke-width:1;stroke:Black;"/>
<text style="font-family:Arial;font-size:12px;kerning:0;word-spacing:-1px;fill:Black;">
<tspan x="1015" y="437">ideal:range  R</tspan>
<tspan x="1015" y="452">ideal:missing_location  DR</tspan>
</text>
</g>
<g id="2002722920"><path d="M1122,703 L1006,703 "
style="fill:none;stroke-width:1;stroke:Black;"/>
<line x1="1012" y1="700" x2="1006" y2="703"
 style="stroke-width:1;stroke:Black;"/>
<line x1="1012" y1="706" x2="1006" y2="703"
 style="stroke-width:1;stroke:Black;"/>
<text style="font-family:Arial;font-size:12px;kerning:0;word-spacing:-1px;fill:Black;">
<tspan x="1048" y="716">ideal:idp_id  </tspan>
</text>
</g>
<g id="2002722925"><path d="M1346,300 L1502,300 1506,302 1508,306 1508,592 "
style="fill:none;stroke-width:1;stroke:Black;"/>
<line x1="1505" y1="586" x2="1508" y2="592"
 style="stroke-width:1;stroke:Black;"/>
<line x1="1511" y1="586" x2="1508" y2="592"
 style="stroke-width:1;stroke:Black;"/>
<text style="font-family:Arial;font-size:12px;kerning:0;word-spacing:-1px;fill:Black;">
<tspan x="1350" y="298">ideal:condition_id  DR</tspan>
</text>
</g>
<g id="2002722930"><path d="M1299,592 L1299,456 "
style="fill:none;stroke-width:1;stroke:Black;"/>
<line x1="1296" y1="462" x2="1299" y2="456"
 style="stroke-width:1;stroke:Black;"/>
<line x1="1302" y1="462" x2="1299" y2="456"
 style="stroke-width:1;stroke:Black;"/>
<text style="font-family:Arial;font-size:12px;kerning:0;word-spacing:-1px;fill:Black;">
<tspan x="1198" y="588">ideal:missing  DR</tspan>
</text>
</g>
<g id="2002722935"><path d="M999,559 L999,323 1001,319 1005,317 1052,317 1052,311 "
style="fill:none;stroke-width:1;stroke:Black;"/>
<line x1="1049" y1="317" x2="1052" y2="311"
 style="stroke-width:1;stroke:Black;"/>
<line x1="1055" y1="317" x2="1052" y2="311"
 style="stroke-width:1;stroke:Black;"/>
<text style="font-family:Arial;font-size:12px;kerning:0;word-spacing:-1px;fill:Black;">
<tspan x="908" y="555">ideal:region  DR</tspan>
</text>
</g>
<g id="2002722940"><path d="M1088,476 L831,476 "
style="fill:none;stroke-width:1;stroke:Black;"/>
<line x1="837" y1="473" x2="831" y2="476"
 style="stroke-width:1;stroke:Black;"/>
<line x1="837" y1="479" x2="831" y2="476"
 style="stroke-width:1;stroke:Black;"/>
<text style="font-family:Arial;font-size:12px;kerning:0;word-spacing:-1px;fill:Black;">
<tspan x="1007" y="489">ideal:range  R</tspan>
</text>
</g>
<g id="2002722945"><path d="M531,441 L392,441 "
style="fill:none;stroke-width:1;stroke:Black;"/>
<line x1="398" y1="438" x2="392" y2="441"
 style="stroke-width:1;stroke:Black;"/>
<line x1="398" y1="444" x2="392" y2="441"
 style="stroke-width:1;stroke:Black;"/>
<text style="font-family:Arial;font-size:12px;kerning:0;word-spacing:-1px;fill:Black;">
<tspan x="442" y="454">faldo:end  DR</tspan>
<tspan x="442" y="469">faldo:begin  DR</tspan>
</text>
</g>
<g id="2002722950"><path d="M941,171 L941,326 939,330 935,332 813,332 809,334 807,338 807,414 "
style="fill:none;stroke-width:1;stroke:Black;"/>
<line x1="804" y1="408" x2="807" y2="414"
 style="stroke-width:1;stroke:Black;"/>
<line x1="810" y1="408" x2="807" y2="414"
 style="stroke-width:1;stroke:Black;"/>
<text style="font-family:Arial;font-size:12px;kerning:0;word-spacing:-1px;fill:Black;">
<tspan x="943" y="186">ideal:range  R</tspan>
</text>
</g>
<g id="2002722955"><path d="M1171,675 L1171,519 "
style="fill:none;stroke-width:1;stroke:Black;"/>
<line x1="1168" y1="525" x2="1171" y2="519"
 style="stroke-width:1;stroke:Black;"/>
<line x1="1174" y1="525" x2="1171" y2="519"
 style="stroke-width:1;stroke:Black;"/>
<text style="font-family:Arial;font-size:12px;kerning:0;word-spacing:-1px;fill:Black;">
<tspan x="1016" y="671">ideal:interaction_region  DR</tspan>
</text>
</g>
<g id="2002722960"><path d="M161,802 L161,763 "
style="fill:none;stroke-width:1;stroke:Black;"/>
<line x1="158" y1="769" x2="161" y2="763"
 style="stroke-width:1;stroke:Black;"/>
<line x1="164" y1="769" x2="161" y2="763"
 style="stroke-width:1;stroke:Black;"/>
<text style="font-family:Arial;font-size:12px;kerning:0;word-spacing:-1px;fill:Black;">
<tspan x="78" y="783">rdfs:domain  D</tspan>
<tspan x="78" y="798">rdfs:range  D</tspan>
</text>
</g>
<g id="2002722965"><path d="M738,638 L226,638 "
style="fill:none;stroke-width:1;stroke:Black;"/>
<line x1="232" y1="635" x2="226" y2="638"
 style="stroke-width:1;stroke:Black;"/>
<line x1="232" y1="641" x2="226" y2="638"
 style="stroke-width:1;stroke:Black;"/>
<text style="font-family:Arial;font-size:12px;kerning:0;word-spacing:-1px;fill:Black;">
<tspan x="613" y="651">ideal:modification  DR</tspan>
</text>
</g>
<g id="2002722970"><path d="M515,735 L515,758 "
style="fill:none;stroke-width:1;stroke:Black;"/>
<line x1="512" y1="752" x2="515" y2="758"
 style="stroke-width:1;stroke:Black;"/>
<line x1="518" y1="752" x2="515" y2="758"
 style="stroke-width:1;stroke:Black;"/>
<text style="font-family:Arial;font-size:12px;kerning:0;word-spacing:-1px;fill:Black;">
<tspan x="517" y="750">ideal:subcellular_location  DR</tspan>
</text>
</g>
<g id="2002722975"><path d="M1072,171 L1072,242 "
style="fill:none;stroke-width:1;stroke:Black;"/>
<line x1="1069" y1="236" x2="1072" y2="242"
 style="stroke-width:1;stroke:Black;"/>
<line x1="1075" y1="236" x2="1072" y2="242"
 style="stroke-width:1;stroke:Black;"/>
<text style="font-family:Arial;font-size:12px;kerning:0;word-spacing:-1px;fill:Black;">
<tspan x="1074" y="186">ideal:order_region_id  D</tspan>
</text>
</g>
<g id="2002722980"><path d="M576,550 L576,483 "
style="fill:none;stroke-width:1;stroke:Black;"/>
<line x1="573" y1="489" x2="576" y2="483"
 style="stroke-width:1;stroke:Black;"/>
<line x1="579" y1="489" x2="576" y2="483"
 style="stroke-width:1;stroke:Black;"/>
<text style="font-family:Arial;font-size:12px;kerning:0;word-spacing:-1px;fill:Black;">
<tspan x="451" y="546">ideal:motif_region  DR</tspan>
</text>
</g>
<g id="2002722985"><path d="M1399,592 L1399,520 "
style="fill:none;stroke-width:1;stroke:Black;"/>
<line x1="1396" y1="526" x2="1399" y2="520"
 style="stroke-width:1;stroke:Black;"/>
<line x1="1402" y1="526" x2="1399" y2="520"
 style="stroke-width:1;stroke:Black;"/>
<text style="font-family:Arial;font-size:12px;kerning:0;word-spacing:-1px;fill:Black;">
<tspan x="1314" y="588">ideal:pdb_id  R</tspan>
</text>
</g>
<g id="2002722990"><path d="M1529,650 L1651,650 1655,652 1657,656 1657,841 1655,845 1651,847 1413,847 "
style="fill:none;stroke-width:1;stroke:Black;"/>
<line x1="1419" y1="844" x2="1413" y2="847"
 style="stroke-width:1;stroke:Black;"/>
<line x1="1419" y1="850" x2="1413" y2="847"
 style="stroke-width:1;stroke:Black;"/>
<text style="font-family:Arial;font-size:12px;kerning:0;word-spacing:-1px;fill:Black;">
<tspan x="1533" y="648">ideal:biological_unit  </tspan>
</text>
</g>
<g id="2002722995"><path d="M738,579 L618,579 "
style="fill:none;stroke-width:1;stroke:Black;"/>
<line x1="624" y1="576" x2="618" y2="579"
 style="stroke-width:1;stroke:Black;"/>
<line x1="624" y1="582" x2="618" y2="579"
 style="stroke-width:1;stroke:Black;"/>
<text style="font-family:Arial;font-size:12px;kerning:0;word-spacing:-1px;fill:Black;">
<tspan x="653" y="592">ideal:motif  DR</tspan>
</text>
</g>
<g id="2002723000"><path d="M807,559 L807,483 "
style="fill:none;stroke-width:1;stroke:Black;"/>
<line x1="804" y1="489" x2="807" y2="483"
 style="stroke-width:1;stroke:Black;"/>
<line x1="810" y1="489" x2="807" y2="483"
 style="stroke-width:1;stroke:Black;"/>
<text style="font-family:Arial;font-size:12px;kerning:0;word-spacing:-1px;fill:Black;">
<tspan x="626" y="525">ideal:dichot_disorder  DR</tspan>
<tspan x="626" y="540">ideal:dichot_known_domain  DR</tspan>
<tspan x="626" y="555">ideal:dichot_cryptic_domain  DR</tspan>
</text>
</g>
<g id="2002723005"><path d="M1113,856 L1030,856 "
style="fill:none;stroke-width:1;stroke:Black;"/>
<line x1="1036" y1="853" x2="1030" y2="856"
 style="stroke-width:1;stroke:Black;"/>
<line x1="1036" y1="859" x2="1030" y2="856"
 style="stroke-width:1;stroke:Black;"/>
<text style="font-family:Arial;font-size:12px;kerning:0;word-spacing:-1px;fill:Black;">
<tspan x="1034" y="869">ideal:chain  R</tspan>
</text>
</g>
<g id="2002723010"><path d="M161,867 L161,906 "
style="fill:none;stroke-width:2;stroke:Fuchsia;"/>
<polygon points="166,877 161,867 156,877 "
style="fill:Silver;stroke-width:1;stroke:Black;"/>
<text style="font-family:Arial;font-size:12px;kerning:0;word-spacing:-1px;fill:Black;">
<tspan x="163" y="882"> </tspan>
</text>
</g>
</svg>
