<?xml version="1.0" encoding="UTF-8" standalone="no"?>
<!DOCTYPE svg PUBLIC "-//W3C//DTD SVG 1.1//EN"
"http://www.w3.org/Graphics/SVG/1.1/DTD/svg11.dtd">
<svg version="1.1" xmlns="http://www.w3.org/2000/svg"
xmlns:xlink="http://www.w3.org/1999/xlink" xml:space="preserve"
 width="1179" height="968" viewBox="0 0 1179 968">
 onmousemove="movetip(evt)" onmouseup="endmove()">
<rect x="0" y="0" width="100%" height="100%" style="fill:White;"/>
<script type="application/ecmascript"> <![CDATA[
var dragtipid = null; var dragcase = false; function init(evt){
if (window.svgDocument==null) svgDocument = evt.target.ownerDocument;
}
function movetip(evt){if (dragtipid!=null){ dragcase = true;
var tip=svgDocument.getElementById(dragtipid);
tip.setAttributeNS(null,"x",evt.clientX-2);
tip.setAttributeNS(null,"y",evt.clientY-2);
}}
function endmove(){dragtipid = null;}
function startmove(evt,id){dragtipid = id; dragcase = false;
var tip=svgDocument.getElementById(dragtipid);
tip.setAttributeNS(null,"x",evt.clientX-2);
tip.setAttributeNS(null,"y",evt.clientY-2);
}
function Showtip(evt,id){ dragtipid = null;
var tip=svgDocument.getElementById(id);
var vis=tip.getAttributeNS(null,"visibility");
if (vis=="hidden"){
tip.setAttributeNS(null,"x",evt.clientX-2);
tip.setAttributeNS(null,"y",evt.clientY-2);
tip.setAttributeNS(null,"visibility","visible");
}}
function Hidetip(id){ dragtipid = null; if (dragcase==false){
var tip=svgDocument.getElementById(id);
tip.setAttributeNS(null,"visibility","hidden");
}}
]]></script>
<defs><linearGradient id="activ1" x1="0%" y1="0%" x2="100%" y2="0%">
<stop offset="0%" style="stop-color:#FFFF00;stop-opacity:1"/>
<stop offset="100%" style="stop-color:#FFFFF0;stop-opacity:1"/>
</linearGradient></defs>
<g id="2002715670"><polygon points="57,214 314,214 314,879 57,879 "
style="fill:#F4D03F; stroke-width:1;stroke:Black;"/>
<text style="font-family:Arial;font-size:12px;kerning:0;word-spacing:-1px;fill:Black;font-weight:bold;">
<tspan x="155" y="229">iden: (377)</tspan>
</text>
<line x1="61" y1="232" x2="312" y2="232"
 style="stroke-width:1;stroke:Black;"/>
<text style="font-family:Arial;font-size:12px;kerning:0;word-spacing:-1px;fill:Black;">
<tspan x="61" y="244">assembly:asm_name (377) [1] D</tspan>
<tspan x="61" y="259">assembly:assembly_id (377) [1] D</tspan>
<tspan x="61" y="274">assembly:assembly_level (377) [1] D</tspan>
<tspan x="61" y="289">assembly:bioproject (377) [1] D -&gt; IRI</tspan>
<tspan x="61" y="304">assembly:bioproject_accession (377) [1] D</tspan>
<tspan x="61" y="319">assembly:biosample (363) [1] D -&gt; IRI</tspan>
<tspan x="61" y="334">assembly:biosample_accession (377) [1] D</tspan>
<tspan x="61" y="349">assembly:contig-N50 (293) [1] D</tspan>
<tspan x="61" y="364">assembly:contig-count (293) [1] D</tspan>
<tspan x="61" y="379">assembly:ftp_path (377) [1] D</tspan>
<tspan x="61" y="394">assembly:gbrs_paired_asm (377) [1] D</tspan>
<tspan x="61" y="409">assembly:genome_rep (377) [1] D</tspan>
<tspan x="61" y="424">assembly:infraspecific_name (377) [1] D</tspan>
<tspan x="61" y="439">assembly:isolate (377) [1] D</tspan>
<tspan x="61" y="454">assembly:molecule-count (377) [1] D</tspan>
<tspan x="61" y="469">assembly:organism_name (377) [1] D</tspan>
<tspan x="61" y="484">assembly:paired_asm_comp (377) [1] D</tspan>
<tspan x="61" y="499">assembly:refseq_category (377) [1] D</tspan>
<tspan x="61" y="514">assembly:region-count (377) [1] D</tspan>
<tspan x="61" y="529">assembly:release_date (377) [1] D</tspan>
<tspan x="61" y="544">assembly:release_type (377) [1] D</tspan>
<tspan x="61" y="559">assembly:scaffold-L50 (61) [1] D</tspan>
<tspan x="61" y="574">assembly:scaffold-N50 (61) [1] D</tspan>
<tspan x="61" y="589">assembly:scaffold-N75 (61) [1] D</tspan>
<tspan x="61" y="604">assembly:scaffold-N90 (61) [1] D</tspan>
<tspan x="61" y="619">assembly:scaffold-count (61) [1] D</tspan>
<tspan x="61" y="634">assembly:sequnece (8.1e4) [*] D -&gt; IRI</tspan>
<tspan x="61" y="649">assembly:spanned-gaps (377) [1] D</tspan>
<tspan x="61" y="664">assembly:species_taxid (377) [1] D</tspan>
<tspan x="61" y="679">assembly:submitter (377) [1] D</tspan>
<tspan x="61" y="694">assembly:tax_id (377) [1] D</tspan>
<tspan x="61" y="709">assembly:top-level-count (377) [1] D</tspan>
<tspan x="61" y="724">assembly:total-gap-length (377) [1] D</tspan>
<tspan x="61" y="739">assembly:total-length (377) [1] D</tspan>
<tspan x="61" y="754">assembly:unspanned-gaps (377) [1] D</tspan>
<tspan x="61" y="769">assembly:version_status (377) [1] D</tspan>
<tspan x="61" y="784">assembly:wasDerivedFrom (377) [1] D</tspan>
<tspan x="61" y="799">assembly:wgs_master (377) [1] D</tspan>
<tspan x="61" y="814">rdf:type (754) [*]  -&gt;  owl:Class</tspan>
<tspan x="61" y="829">rdfs:seeAlso (377) [*]  -&gt; IRI</tspan>
</text>
</g>
<g id="2002715681"><polygon points="843,560 1169,560 1169,655 843,655 "
style="fill:#F4D03F; stroke-width:1;stroke:Black;"/>
<text style="font-family:Arial;font-size:12px;kerning:0;word-spacing:-1px;fill:Black;font-weight:bold;">
<tspan x="969" y="575">owl:Class (4)</tspan>
</text>
<line x1="847" y1="578" x2="1167" y2="578"
 style="stroke-width:1;stroke:Black;"/>
<text style="font-family:Arial;font-size:12px;kerning:0;word-spacing:-1px;fill:Black;">
<tspan x="847" y="590">rdf:type (4) [*]  -&gt;  owl:Class</tspan>
<tspan x="847" y="605">rdfs:label (4) [1] </tspan>
<tspan x="847" y="620">&lt;- rdf:type (2.0e6)  &lt;-  owl:DatatypeProperty,sd:Service..(8)</tspan>
<tspan x="847" y="635">&lt;&gt; rdfs:subClassOf  </tspan>
</text>
</g>
<g id="2002715692"><polygon points="883,691 1119,691 1119,756 883,756 "
style="fill:#F4D03F; stroke-width:1;stroke:Black;"/>
<text style="font-family:Arial;font-size:12px;kerning:0;word-spacing:-1px;fill:Black;font-weight:bold;">
<tspan x="927" y="706">owl:DatatypeProperty (28)</tspan>
</text>
<line x1="887" y1="709" x2="1117" y2="709"
 style="stroke-width:1;stroke:Black;"/>
<text style="font-family:Arial;font-size:12px;kerning:0;word-spacing:-1px;fill:Black;">
<tspan x="887" y="721">rdf:type (29) [*]  -&gt;  owl:Class</tspan>
<tspan x="887" y="736">rdfs:label (28) [1] </tspan>
<tspan x="887" y="751">&lt;&gt; rdfs:subPropertyOf  DR</tspan>
</text>
</g>
<g id="2002715703"><polygon points="461,50 718,50 718,160 461,160 "
style="fill:#F4D03F; stroke-width:1;stroke:Black;"/>
<text style="font-family:Arial;font-size:12px;kerning:0;word-spacing:-1px;fill:Black;font-weight:bold;">
<tspan x="550" y="65">sd:Service (1)</tspan>
</text>
<line x1="465" y1="68" x2="716" y2="68"
 style="stroke-width:1;stroke:Black;"/>
<text style="font-family:Arial;font-size:12px;kerning:0;word-spacing:-1px;fill:Black;">
<tspan x="465" y="80">rdf:type (1) [*]  -&gt;  owl:Class</tspan>
<tspan x="465" y="95">sd:feature (2) [*] D -&gt; IRI</tspan>
<tspan x="465" y="110">sd:resultFormat (8) [*] D -&gt; IRI</tspan>
<tspan x="465" y="125">sd:supportedLanguage (1) [1] D -&gt; IRI</tspan>
<tspan x="465" y="140">&lt;&gt; sd:endpoint  DR</tspan>
<tspan x="465" y="155">&lt;&gt; sd:url  DR</tspan>
</text>
</g>
<g id="2002715714"><polygon points="443,802 743,802 743,852 443,852 "
style="fill:#FBECAE; stroke-width:1;stroke:Black;"/>
<text style="font-family:Arial;font-size:12px;kerning:0;word-spacing:-1px;fill:Black;font-weight:bold;">
<tspan x="487" y="817">tax:Rank or owl:Ontology S101 (~30)</tspan>
</text>
<line x1="447" y1="820" x2="741" y2="820"
 style="stroke-width:1;stroke:Black;"/>
<text style="font-family:Arial;font-size:12px;kerning:0;word-spacing:-1px;fill:Black;">
<tspan x="447" y="832">rdf:type (1) [*]  -&gt;  owl:Class</tspan>
<tspan x="447" y="847">rdfs:label (1) [1] </tspan>
</text>
</g>
<g id="2002715725"><polygon points="879,432 1123,432 1123,482 879,482 "
style="fill:#F4D03F; stroke-width:1;stroke:Black;"/>
<text style="font-family:Arial;font-size:12px;kerning:0;word-spacing:-1px;fill:Black;font-weight:bold;">
<tspan x="937" y="447">owl:ObjectProperty (7)</tspan>
</text>
<line x1="883" y1="450" x2="1121" y2="450"
 style="stroke-width:1;stroke:Black;"/>
<text style="font-family:Arial;font-size:12px;kerning:0;word-spacing:-1px;fill:Black;">
<tspan x="883" y="462">rdf:type (11) [*]  -&gt;  owl:Class</tspan>
<tspan x="883" y="477">rdfs:label (7) [1] </tspan>
</text>
</g>
<g id="2002715736"><polygon points="57,906 357,906 357,951 57,951 "
style="fill:#F4D03F; stroke-width:1;stroke:Black;"/>
<text style="font-family:Arial;font-size:12px;kerning:0;word-spacing:-1px;fill:Black;font-weight:bold;">
<tspan x="82" y="921">assembly:Assembly_Database_Entry (377)</tspan>
</text>
</g>
<g id="2002715747"><polygon points="467,235 722,235 722,285 467,285 "
style="fill:#F4D03F; stroke-width:1;stroke:Black;"/>
<text style="font-family:Arial;font-size:12px;kerning:0;word-spacing:-1px;fill:Black;font-weight:bold;">
<tspan x="533" y="250">tax:GeneticCode (20)</tspan>
</text>
<line x1="471" y1="253" x2="720" y2="253"
 style="stroke-width:1;stroke:Black;"/>
<text style="font-family:Arial;font-size:12px;kerning:0;word-spacing:-1px;fill:Black;">
<tspan x="471" y="265">rdf:type (20) [*]  -&gt;  owl:Class</tspan>
<tspan x="471" y="280">rdfs:label (20) [1] </tspan>
</text>
</g>
<g id="2002715758"><polygon points="405,906 572,906 572,951 405,951 "
style="fill:#F4D03F; stroke-width:1;stroke:Black;"/>
<text style="font-family:Arial;font-size:12px;kerning:0;word-spacing:-1px;fill:Black;font-weight:bold;">
<tspan x="450" y="921">tax:Rank (29)</tspan>
</text>
</g>
<g id="2002715769"><polygon points="57,50 417,50 417,195 57,195 "
style="fill:White; stroke-width:1;stroke:Black;"/>
<text style="font-family:Arial;font-size:12px;kerning:0;word-spacing:-1px;fill:Black;">
<tspan x="61" y="64">PREFIX virtrdf: &lt;http://www.openlinksw.com/schemas/virtrdf#&gt;</tspan>
<tspan x="61" y="79">PREFIX assembly: &lt;http://www.ncbi.nlm.nih.gov/assembly/&gt;</tspan>
<tspan x="61" y="94">PREFIX tax: &lt;http://ddbj.nig.ac.jp/ontologies/taxonomy/&gt;</tspan>
<tspan x="61" y="109">PREFIX owl: &lt;http://www.w3.org/2002/07/owl#&gt;</tspan>
<tspan x="61" y="124">PREFIX rdfs: &lt;http://www.w3.org/2000/01/rdf-schema#&gt;</tspan>
<tspan x="61" y="139">PREFIX sd: &lt;http://www.w3.org/ns/sparql-service-description#&gt;</tspan>
<tspan x="61" y="154">PREFIX dct: &lt;http://purl.org/dc/terms/&gt;</tspan>
<tspan x="61" y="169">PREFIX iden: &lt;http://identifiers.org/&gt;</tspan>
<tspan x="61" y="184">PREFIX rdf: &lt;http://www.w3.org/1999/02/22-rdf-syntax-ns#&gt;</tspan>
</text>
</g>
<g id="2002715780"><polygon points="597,871 785,871 785,958 597,958 "
style="fill:#F4D03F; stroke-width:1;stroke:Black;"/>
<text style="font-family:Arial;font-size:12px;kerning:0;word-spacing:-1px;fill:Black;font-weight:bold;">
<tspan x="645" y="886">owl:Ontology (1)</tspan>
</text>
<line x1="601" y1="889" x2="783" y2="889"
 style="stroke-width:1;stroke:Black;"/>
<text style="font-family:Arial;font-size:12px;kerning:0;word-spacing:-1px;fill:Black;">
<tspan x="601" y="901">dct:license (1) [1] D -&gt; IRI</tspan>
<tspan x="601" y="916">owl:versionInfo (1) [1] D</tspan>
<tspan x="601" y="931">rdfs:comment (1) [1] D</tspan>
<tspan x="601" y="946">rdfs:seeAlso (2) [*]  -&gt; IRI</tspan>
</text>
</g>
<g id="2002715791"><polygon points="439,343 739,343 739,727 439,727 "
style="fill:#F4D03F; stroke-width:1;stroke:Black;"/>
<text style="font-family:Arial;font-size:12px;kerning:0;word-spacing:-1px;fill:Black;font-weight:bold;">
<tspan x="539" y="358">tax:Taxon (2.0e6)</tspan>
</text>
<line x1="443" y1="361" x2="737" y2="361"
 style="stroke-width:1;stroke:Black;"/>
<text style="font-family:Arial;font-size:12px;kerning:0;word-spacing:-1px;fill:Black;">
<tspan x="443" y="373">dct:identifier (2.0e6) [1] D</tspan>
<tspan x="443" y="388">owl:sameAs (1.0e7) [*] D -&gt; IRI</tspan>
<tspan x="443" y="403">rdf:type (2.0e6) [*]  -&gt;  owl:Class</tspan>
<tspan x="443" y="418">rdfs:label (2.0e6) [1] </tspan>
<tspan x="443" y="433">rdfs:seeAlso (2.0e6) [*]  -&gt; IRI</tspan>
<tspan x="443" y="448">tax:acronym (1154) [*] D</tspan>
<tspan x="443" y="463">tax:anamorph (283) [*] D</tspan>
<tspan x="443" y="478">tax:authority (4.3e5) [*] D</tspan>
<tspan x="443" y="493">tax:blastName (239) [1] D</tspan>
<tspan x="443" y="508">tax:commonName (1.4e4) [*] D</tspan>
<tspan x="443" y="523">tax:equivalentName (2.6e4) [*] D</tspan>
<tspan x="443" y="538">tax:genbankAcronym (479) [1] D</tspan>
<tspan x="443" y="553">tax:genbankAnamorph (1) [1] D</tspan>
<tspan x="443" y="568">tax:genbankCommonName (2.9e4) [1] D</tspan>
<tspan x="443" y="583">tax:genbankSynonym (1106) [1] D</tspan>
<tspan x="443" y="598">tax:inPart (523) [*] D</tspan>
<tspan x="443" y="613">tax:includes (4.4e4) [*] D</tspan>
<tspan x="443" y="628">tax:merged (5.2e4) [*] D -&gt; IRI</tspan>
<tspan x="443" y="643">tax:scientificName (2.0e6) [1] D</tspan>
<tspan x="443" y="658">tax:synonym (1.8e5) [*] D</tspan>
<tspan x="443" y="673">tax:teleomorph (176) [*] D</tspan>
<tspan x="443" y="688">tax:typeMaterial (1.3e5) [*] D</tspan>
<tspan x="443" y="703">tax:uniqueName (1.4e5) [*] D</tspan>
<tspan x="443" y="718">&lt;&gt; rdfs:subClassOf  </tspan>
</text>
</g>
<g id="2002715629"><path d="M594,343 L594,285 "
style="fill:none;stroke-width:1;stroke:Black;"/>
<line x1="591" y1="291" x2="594" y2="285"
 style="stroke-width:1;stroke:Black;"/>
<line x1="597" y1="291" x2="594" y2="285"
 style="stroke-width:1;stroke:Black;"/>
<text style="font-family:Arial;font-size:12px;kerning:0;word-spacing:-1px;fill:Black;">
<tspan x="468" y="324">tax:geneticCode  D</tspan>
<tspan x="468" y="339">tax:geneticCodeMt  DR</tspan>
</text>
</g>
<g id="2002715634"><path d="M314,451 L439,451 "
style="fill:none;stroke-width:1;stroke:Black;"/>
<line x1="433" y1="448" x2="439" y2="451"
 style="stroke-width:1;stroke:Black;"/>
<line x1="433" y1="454" x2="439" y2="451"
 style="stroke-width:1;stroke:Black;"/>
<text style="font-family:Arial;font-size:12px;kerning:0;word-spacing:-1px;fill:Black;">
<tspan x="318" y="449">assembly:taxon  D</tspan>
</text>
</g>
<g id="2002715639"><path d="M591,727 L591,802 "
style="fill:none;stroke-width:1;stroke:Black;"/>
<line x1="588" y1="796" x2="591" y2="802"
 style="stroke-width:1;stroke:Black;"/>
<line x1="594" y1="796" x2="591" y2="802"
 style="stroke-width:1;stroke:Black;"/>
<text style="font-family:Arial;font-size:12px;kerning:0;word-spacing:-1px;fill:Black;">
<tspan x="593" y="742">tax:rank  D</tspan>
</text>
</g>
<g id="2002715644"><path d="M843,625 L739,625 "
style="fill:none;stroke-width:1;stroke:Black;"/>
<line x1="745" y1="622" x2="739" y2="625"
 style="stroke-width:1;stroke:Black;"/>
<line x1="745" y1="628" x2="739" y2="625"
 style="stroke-width:1;stroke:Black;"/>
<text style="font-family:Arial;font-size:12px;kerning:0;word-spacing:-1px;fill:Black;">
<tspan x="743" y="638">rdfs:subClassOf  </tspan>
</text>
</g>
<g id="2002715649"><path d="M1001,691 L1001,655 "
style="fill:none;stroke-width:1;stroke:Black;"/>
<line x1="998" y1="661" x2="1001" y2="655"
 style="stroke-width:1;stroke:Black;"/>
<line x1="1004" y1="661" x2="1001" y2="655"
 style="stroke-width:1;stroke:Black;"/>
<text style="font-family:Arial;font-size:12px;kerning:0;word-spacing:-1px;fill:Black;">
<tspan x="918" y="672">rdfs:domain  R</tspan>
<tspan x="918" y="687">rdfs:range  </tspan>
</text>
</g>
<g id="2002715654"><path d="M1001,482 L1001,560 "
style="fill:none;stroke-width:1;stroke:Black;"/>
<line x1="998" y1="554" x2="1001" y2="560"
 style="stroke-width:1;stroke:Black;"/>
<line x1="1004" y1="554" x2="1001" y2="560"
 style="stroke-width:1;stroke:Black;"/>
<text style="font-family:Arial;font-size:12px;kerning:0;word-spacing:-1px;fill:Black;">
<tspan x="1003" y="497">rdfs:domain  R</tspan>
<tspan x="1003" y="512">rdfs:range  </tspan>
</text>
</g>
<g id="2002715659"><path d="M739,584 L843,584 "
style="fill:none;stroke-width:1;stroke:Black;"/>
<line x1="837" y1="581" x2="843" y2="584"
 style="stroke-width:1;stroke:Black;"/>
<line x1="837" y1="587" x2="843" y2="584"
 style="stroke-width:1;stroke:Black;"/>
<text style="font-family:Arial;font-size:12px;kerning:0;word-spacing:-1px;fill:Black;">
<tspan x="743" y="582">rdfs:subClassOf  </tspan>
</text>
</g>
<g id="2002715664"><path d="M669,852 L669,871 "
style="fill:none;stroke-width:2;stroke:Fuchsia;"/>
<polygon points="674,862 669,852 664,862 "
style="fill:Silver;stroke-width:1;stroke:Black;"/>
<text style="font-family:Arial;font-size:12px;kerning:0;word-spacing:-1px;fill:Black;">
<tspan x="671" y="867"> </tspan>
</text>
</g>
<g id="2002715666"><path d="M497,852 L497,906 "
style="fill:none;stroke-width:2;stroke:Fuchsia;"/>
<polygon points="502,862 497,852 492,862 "
style="fill:Silver;stroke-width:1;stroke:Black;"/>
<text style="font-family:Arial;font-size:12px;kerning:0;word-spacing:-1px;fill:Black;">
<tspan x="499" y="867"> </tspan>
</text>
</g>
<g id="2002715668"><path d="M185,906 L185,879 "
style="fill:none;stroke-width:2;stroke:Fuchsia;"/>
<polygon points="190,896 185,906 180,896 "
style="fill:Silver;stroke-width:1;stroke:Black;"/>
<text style="font-family:Arial;font-size:12px;kerning:0;word-spacing:-1px;fill:Black;">
<tspan x="173" y="902"> </tspan>
</text>
</g>
</svg>
