<?xml version="1.0" encoding="UTF-8" standalone="no"?>
<!DOCTYPE svg PUBLIC "-//W3C//DTD SVG 1.1//EN"
"http://www.w3.org/Graphics/SVG/1.1/DTD/svg11.dtd">
<svg version="1.1" xmlns="http://www.w3.org/2000/svg"
xmlns:xlink="http://www.w3.org/1999/xlink" xml:space="preserve"
 width="1095" height="875" viewBox="0 0 1095 875">
 onmousemove="movetip(evt)" onmouseup="endmove()">
<rect x="0" y="0" width="100%" height="100%" style="fill:White;"/>
<script type="application/ecmascript"> <![CDATA[
var dragtipid = null; var dragcase = false; function init(evt){
if (window.svgDocument==null) svgDocument = evt.target.ownerDocument;
}
function movetip(evt){if (dragtipid!=null){ dragcase = true;
var tip=svgDocument.getElementById(dragtipid);
tip.setAttributeNS(null,"x",evt.clientX-2);
tip.setAttributeNS(null,"y",evt.clientY-2);
}}
function endmove(){dragtipid = null;}
function startmove(evt,id){dragtipid = id; dragcase = false;
var tip=svgDocument.getElementById(dragtipid);
tip.setAttributeNS(null,"x",evt.clientX-2);
tip.setAttributeNS(null,"y",evt.clientY-2);
}
function Showtip(evt,id){ dragtipid = null;
var tip=svgDocument.getElementById(id);
var vis=tip.getAttributeNS(null,"visibility");
if (vis=="hidden"){
tip.setAttributeNS(null,"x",evt.clientX-2);
tip.setAttributeNS(null,"y",evt.clientY-2);
tip.setAttributeNS(null,"visibility","visible");
}}
function Hidetip(id){ dragtipid = null; if (dragcase==false){
var tip=svgDocument.getElementById(id);
tip.setAttributeNS(null,"visibility","hidden");
}}
]]></script>
<defs><linearGradient id="activ1" x1="0%" y1="0%" x2="100%" y2="0%">
<stop offset="0%" style="stop-color:#FFFF00;stop-opacity:1"/>
<stop offset="100%" style="stop-color:#FFFFF0;stop-opacity:1"/>
</linearGradient></defs>
<g id="2002724934"><polygon points="492,648 792,648 792,728 492,728 "
style="fill:#F4D03F; stroke-width:1;stroke:Black;"/>
<polygon points="489,651 789,651 789,731 489,731 "
style="fill:#F4D03F; stroke-width:1;stroke:Black;"/>
<text style="font-family:Arial;font-size:12px;kerning:0;word-spacing:-1px;fill:Black;font-weight:bold;">
<tspan x="524" y="666">nerdont:Organization et al. G103 (1.4e4)</tspan>
</text>
<text style="font-family:Arial;font-size:11px;kerning:0;word-spacing:-1px;fill:Black;font-weight:bold;">
<tspan x="493" y="681">nerdont:Location (2276)</tspan>
<tspan x="493" y="696">nerdont:Organization (6209)</tspan>
<tspan x="493" y="711">nerdont:Person (914)</tspan>
<tspan x="493" y="726">nerdont:Time (4643)</tspan>
</text>
</g>
<g id="2002724945"><polygon points="846,621 1016,621 1016,716 846,716 "
style="fill:#F4D03F; stroke-width:1;stroke:Black;"/>
<text style="font-family:Arial;font-size:12px;kerning:0;word-spacing:-1px;fill:Black;font-weight:bold;">
<tspan x="875" y="636">dcat:Distribution (1)</tspan>
</text>
<line x1="850" y1="639" x2="1014" y2="639"
 style="stroke-width:1;stroke:Black;"/>
<text style="font-family:Arial;font-size:12px;kerning:0;word-spacing:-1px;fill:Black;">
<tspan x="850" y="651">dcat:mediaType (1) [1] D</tspan>
<tspan x="850" y="666">dct:description (1) [1] D</tspan>
<tspan x="850" y="681">dct:license (1) [1] D -&gt; IRI</tspan>
<tspan x="850" y="696">dct:title (1) [1] </tspan>
<tspan x="850" y="711">rdf:type (1) [*]  -&gt; IRI</tspan>
</text>
</g>
<g id="2002724956"><polygon points="779,259 1027,259 1027,504 779,504 "
style="fill:#F4D03F; stroke-width:1;stroke:Black;"/>
<polygon points="776,262 1024,262 1024,507 776,507 "
style="fill:#F4D03F; stroke-width:1;stroke:Black;"/>
<text style="font-family:Arial;font-size:12px;kerning:0;word-spacing:-1px;fill:Black;font-weight:bold;">
<tspan x="827" y="277">prov:Entity et al. G101 (1)</tspan>
</text>
<line x1="780" y1="280" x2="1022" y2="280"
 style="stroke-width:1;stroke:Black;"/>
<text style="font-family:Arial;font-size:12px;kerning:0;word-spacing:-1px;fill:Black;">
<tspan x="780" y="292">dcat:contactPoint (1) [1] D -&gt; IRI</tspan>
<tspan x="780" y="307">dcat:keyword (2) [*] D</tspan>
<tspan x="780" y="322">dct:accrualPeriodicity (1) [1] D -&gt; IRI</tspan>
<tspan x="780" y="337">dct:issued (1) [1] D</tspan>
<tspan x="780" y="352">dct:language (1) [1] D -&gt; IRI</tspan>
<tspan x="780" y="367">dct:spatial (1) [1] D -&gt; IRI</tspan>
<tspan x="780" y="382">dct:temporal (1) [1] D -&gt; IRI</tspan>
<tspan x="780" y="397">dct:title (1) [1] </tspan>
<tspan x="780" y="412">owl:versionInfo (1) [1] D</tspan>
<tspan x="780" y="427">pavont:version (1) [1] D</tspan>
<tspan x="780" y="442">powla:documentID (1) [1] </tspan>
<tspan x="780" y="457">rdf:type (3) [*]  -&gt; IRI</tspan>
</text>
<text style="font-family:Arial;font-size:11px;kerning:0;word-spacing:-1px;fill:Black;font-weight:bold;">
<tspan x="780" y="472">dcat:Dataset (1)</tspan>
<tspan x="780" y="487">powla:Corpus (1)</tspan>
<tspan x="780" y="502">prov:Entity (1)</tspan>
</text>
</g>
<g id="2002724967"><polygon points="380,501 595,501 595,546 380,546 "
style="fill:#F4D03F; stroke-width:1;stroke:Black;"/>
<text style="font-family:Arial;font-size:12px;kerning:0;word-spacing:-1px;fill:Black;font-weight:bold;">
<tspan x="404" y="516">powla:DocumentLayer (1110)</tspan>
</text>
<line x1="384" y1="519" x2="593" y2="519"
 style="stroke-width:1;stroke:Black;"/>
<text style="font-family:Arial;font-size:12px;kerning:0;word-spacing:-1px;fill:Black;">
<tspan x="384" y="531">rdf:type (1110) [*]  -&gt; IRI</tspan>
</text>
</g>
<g id="2002724978"><polygon points="51,489 249,489 249,599 51,599 "
style="fill:#F4D03F; stroke-width:1;stroke:Black;"/>
<text style="font-family:Arial;font-size:12px;kerning:0;word-spacing:-1px;fill:Black;font-weight:bold;">
<tspan x="95" y="504">powla:Node (2.9e5)</tspan>
</text>
<line x1="55" y1="507" x2="247" y2="507"
 style="stroke-width:1;stroke:Black;"/>
<text style="font-family:Arial;font-size:12px;kerning:0;word-spacing:-1px;fill:Black;">
<tspan x="55" y="519">geonames:Feature (2744) [1] D</tspan>
<tspan x="55" y="534">nif-core:anchorOf (2.8e5) [1] D</tspan>
<tspan x="55" y="549">powla:string (2.8e5) [1] D</tspan>
<tspan x="55" y="564">rdf:type (6.0e5) [*]  -&gt; IRI</tspan>
<tspan x="55" y="579">&lt;&gt; powla:next  DR</tspan>
<tspan x="55" y="594">&lt;&gt; powla:previous  DR</tspan>
</text>
</g>
<g id="2002724989"><polygon points="822,171 978,171 978,221 822,221 "
style="fill:#F4D03F; stroke-width:1;stroke:Black;"/>
<text style="font-family:Arial;font-size:12px;kerning:0;word-spacing:-1px;fill:Black;font-weight:bold;">
<tspan x="859" y="186">foaf:Person (2)</tspan>
</text>
<line x1="826" y1="189" x2="976" y2="189"
 style="stroke-width:1;stroke:Black;"/>
<text style="font-family:Arial;font-size:12px;kerning:0;word-spacing:-1px;fill:Black;">
<tspan x="826" y="201">foaf:givenName (2) [1] D</tspan>
<tspan x="826" y="216">foaf:mbox (2) [1] D -&gt; IRI</tspan>
</text>
</g>
<g id="2002725000"><polygon points="54,415 354,415 354,465 54,465 "
style="fill:#F4D03F; stroke-width:1;stroke:Black;"/>
<polygon points="51,418 351,418 351,468 51,468 "
style="fill:#F4D03F; stroke-width:1;stroke:Black;"/>
<text style="font-family:Arial;font-size:12px;kerning:0;word-spacing:-1px;fill:Black;font-weight:bold;">
<tspan x="62" y="433">nerdont:Thing or ont:LegalResource G102 (3387)</tspan>
</text>
<text style="font-family:Arial;font-size:11px;kerning:0;word-spacing:-1px;fill:Black;font-weight:bold;">
<tspan x="55" y="448">nerdont:Thing (3387)</tspan>
<tspan x="55" y="463">ont:LegalResource (3387)</tspan>
</text>
</g>
<g id="2002725011"><polygon points="528,279 667,279 667,314 528,314 "
style="fill:#F4D03F; stroke-width:1;stroke:Black;"/>
<text style="font-family:Arial;font-size:12px;kerning:0;word-spacing:-1px;fill:Black;font-weight:bold;">
<tspan x="540" y="294">foaf:Organization (1)</tspan>
</text>
<line x1="532" y1="297" x2="665" y2="297"
 style="stroke-width:1;stroke:Black;"/>
<text style="font-family:Arial;font-size:12px;kerning:0;word-spacing:-1px;fill:Black;">
<tspan x="532" y="309">foaf:name (1) [1] D</tspan>
</text>
</g>
<g id="2002725022"><polygon points="560,91 860,91 860,136 560,136 "
style="fill:#F4D03F; stroke-width:1;stroke:Black;"/>
<text style="font-family:Arial;font-size:12px;kerning:0;word-spacing:-1px;fill:Black;font-weight:bold;">
<tspan x="671" y="106">prov:Agent (3)</tspan>
</text>
<line x1="564" y1="109" x2="858" y2="109"
 style="stroke-width:1;stroke:Black;"/>
<text style="font-family:Arial;font-size:12px;kerning:0;word-spacing:-1px;fill:Black;">
<tspan x="564" y="121">rdf:type (6) [*]  -&gt; IRI</tspan>
</text>
</g>
<g id="2002725033"><polygon points="431,561 645,561 645,611 431,611 "
style="fill:#F4D03F; stroke-width:1;stroke:Black;"/>
<text style="font-family:Arial;font-size:12px;kerning:0;word-spacing:-1px;fill:Black;font-weight:bold;">
<tspan x="473" y="576">nif-core:Phrase (1.7e4)</tspan>
</text>
<line x1="435" y1="579" x2="643" y2="579"
 style="stroke-width:1;stroke:Black;"/>
<text style="font-family:Arial;font-size:12px;kerning:0;word-spacing:-1px;fill:Black;">
<tspan x="435" y="591">nif-core:beginIndex (1.7e4) [1] D</tspan>
<tspan x="435" y="606">nif-core:endIndex (1.7e4) [1] D</tspan>
</text>
</g>
<g id="2002725044"><polygon points="302,343 518,343 518,393 302,393 "
style="fill:#F4D03F; stroke-width:1;stroke:Black;"/>
<text style="font-family:Arial;font-size:12px;kerning:0;word-spacing:-1px;fill:Black;font-weight:bold;">
<tspan x="346" y="358">powla:Document (370)</tspan>
</text>
<line x1="306" y1="361" x2="516" y2="361"
 style="stroke-width:1;stroke:Black;"/>
<text style="font-family:Arial;font-size:12px;kerning:0;word-spacing:-1px;fill:Black;">
<tspan x="306" y="373">powla:documentID (370) [1] </tspan>
<tspan x="306" y="388">rdf:type (370) [*]  -&gt; IRI</tspan>
</text>
</g>
<g id="2002725055"><polygon points="449,748 660,748 660,837 449,837 "
style="fill:#F4D03F; stroke-width:1;stroke:Black;"/>
<text style="font-family:Arial;font-size:12px;kerning:0;word-spacing:-1px;fill:Black;font-weight:bold;">
<tspan x="484" y="763">nif-core:Sentence (8284)</tspan>
</text>
<line x1="453" y1="766" x2="658" y2="766"
 style="stroke-width:1;stroke:Black;"/>
<text style="font-family:Arial;font-size:12px;kerning:0;word-spacing:-1px;fill:Black;">
<tspan x="453" y="793">&lt;&gt; nif-core:nextSentence  DR</tspan>
<tspan x="453" y="808">&lt;&gt; nif-core:previousSentence  DR</tspan>
</text>
</g>
<g id="2002725066"><polygon points="48,91 488,91 488,332 48,332 "
style="fill:White; stroke-width:1;stroke:Black;"/>
<text style="font-family:Arial;font-size:12px;kerning:0;word-spacing:-1px;fill:Black;">
<tspan x="52" y="105">PREFIX nif-core: &lt;http://persistence.uni-leipzig.org/nlp2rdf/ontologies/nif-core#&gt;</tspan>
<tspan x="52" y="120">PREFIX powla: &lt;http://purl.org/powla/powla.owl#&gt;</tspan>
<tspan x="52" y="135">PREFIX dct: &lt;http://purl.org/dc/terms/&gt;</tspan>
<tspan x="52" y="150">PREFIX format.html: &lt;https://universaldependencies.org/format.html#&gt;</tspan>
<tspan x="52" y="165">PREFIX dcat: &lt;http://www.w3.org/ns/dcat#&gt;</tspan>
<tspan x="52" y="180">PREFIX nerdont: &lt;http://nerd.eurecom.fr/ontology#&gt;</tspan>
<tspan x="52" y="195">PREFIX foaf: &lt;http://xmlns.com/foaf/0.1/&gt;</tspan>
<tspan x="52" y="210">PREFIX prov: &lt;http://www.w3.org/ns/prov#&gt;</tspan>
<tspan x="52" y="225">PREFIX skos: &lt;http://www.w3.org/2004/02/skos/core#&gt;</tspan>
<tspan x="52" y="240">PREFIX ont: &lt;http://data.europa.eu/eli/ontology#&gt;</tspan>
<tspan x="52" y="255">PREFIX rdf: &lt;http://www.w3.org/1999/02/22-rdf-syntax-ns#&gt;</tspan>
<tspan x="52" y="270">PREFIX ext-format: &lt;https://universaldependencies.org/ext-format.html#&gt;</tspan>
<tspan x="52" y="285">PREFIX geonames: &lt;http://www.geonames.org/ontology#&gt;</tspan>
<tspan x="52" y="300">PREFIX owl: &lt;http://www.w3.org/2002/07/owl#&gt;</tspan>
<tspan x="52" y="315">PREFIX pavont: &lt;http://pav-ontology.github.io/pav/&gt;</tspan>
</text>
</g>
<g id="2002725077"><polygon points="51,660 259,660 259,865 51,865 "
style="fill:#F4D03F; stroke-width:1;stroke:Black;"/>
<text style="font-family:Arial;font-size:12px;kerning:0;word-spacing:-1px;fill:Black;font-weight:bold;">
<tspan x="95" y="675">nif-core:Word (2.7e5)</tspan>
</text>
<line x1="55" y1="678" x2="257" y2="678"
 style="stroke-width:1;stroke:Black;"/>
<text style="font-family:Arial;font-size:12px;kerning:0;word-spacing:-1px;fill:Black;">
<tspan x="55" y="690">ext-format:NE (2.6e5) [1] D</tspan>
<tspan x="55" y="705">format.html:DEPREL (2.7e5) [1] D</tspan>
<tspan x="55" y="720">format.html:FEATS (2.2e5) [1] D</tspan>
<tspan x="55" y="735">format.html:FORM (2.7e5) [1] D</tspan>
<tspan x="55" y="750">format.html:HEAD (2.7e5) [1] D</tspan>
<tspan x="55" y="765">format.html:ID (2.7e5) [1] D</tspan>
<tspan x="55" y="780">format.html:LEMMA (2.7e5) [1] D</tspan>
<tspan x="55" y="795">format.html:MISC (4.8e4) [1] D</tspan>
<tspan x="55" y="810">format.html:UPOS (2.7e5) [1] D</tspan>
<tspan x="55" y="825">format.html:XPOS (2.7e5) [1] D</tspan>
<tspan x="55" y="840">&lt;&gt; nif-core:nextWord  DR</tspan>
<tspan x="55" y="855">&lt;&gt; nif-core:previousWord  DR</tspan>
</text>
</g>
<g id="2002725088"><polygon points="736,540 926,540 926,607 736,607 "
style="fill:#F4D03F; stroke-width:1;stroke:Black;"/>
<text style="font-family:Arial;font-size:12px;kerning:0;word-spacing:-1px;fill:Black;font-weight:bold;">
<tspan x="782" y="555">skos:Concept (1)</tspan>
</text>
<line x1="740" y1="558" x2="924" y2="558"
 style="stroke-width:1;stroke:Black;"/>
<text style="font-family:Arial;font-size:12px;kerning:0;word-spacing:-1px;fill:Black;">
<tspan x="740" y="570">rdf:type (1) [*]  -&gt; IRI</tspan>
<tspan x="740" y="585">skos:inScheme (1) [1] D -&gt; IRI</tspan>
<tspan x="740" y="600">skos:prefLabel (2) [*] D</tspan>
</text>
</g>
<g id="2002795988"><polygon points="286,15 815,15 815,68 286,68 "
style="fill:none; stroke-width:1;stroke:Black;"/>
<text style="font-family:Arial;font-size:18px;kerning:0;word-spacing:-1px;fill:Black;font-weight:bold;">
<tspan x="312" y="35">Romanian Named Entity Recognition in the Legal domain</tspan>
<tspan x="360" y="57">https://relate.racai.ro/datasets/legalnero/query</tspan>
</text>
</g>
<g id="2002724867"><path d="M971,507 L971,621 "
style="fill:none;stroke-width:1;stroke:Black;"/>
<line x1="968" y1="615" x2="971" y2="621"
 style="stroke-width:1;stroke:Black;"/>
<line x1="974" y1="615" x2="971" y2="621"
 style="stroke-width:1;stroke:Black;"/>
<text style="font-family:Arial;font-size:12px;kerning:0;word-spacing:-1px;fill:Black;">
<tspan x="973" y="522">dcat:distribution  DR</tspan>
</text>
</g>
<g id="2002724872"><path d="M497,501 L497,393 "
style="fill:none;stroke-width:1;stroke:Black;"/>
<line x1="494" y1="399" x2="497" y2="393"
 style="stroke-width:1;stroke:Black;"/>
<line x1="500" y1="399" x2="497" y2="393"
 style="stroke-width:1;stroke:Black;"/>
<text style="font-family:Arial;font-size:12px;kerning:0;word-spacing:-1px;fill:Black;">
<tspan x="357" y="497">powla:hasDocument  DR</tspan>
</text>
</g>
<g id="2002724877"><path d="M900,262 L900,221 "
style="fill:none;stroke-width:1;stroke:Black;"/>
<line x1="897" y1="227" x2="900" y2="221"
 style="stroke-width:1;stroke:Black;"/>
<line x1="903" y1="227" x2="900" y2="221"
 style="stroke-width:1;stroke:Black;"/>
<text style="font-family:Arial;font-size:12px;kerning:0;word-spacing:-1px;fill:Black;">
<tspan x="817" y="258">dct:creator  DR</tspan>
</text>
</g>
<g id="2002724882"><path d="M249,523 L380,523 "
style="fill:none;stroke-width:1;stroke:Black;"/>
<line x1="374" y1="520" x2="380" y2="523"
 style="stroke-width:1;stroke:Black;"/>
<line x1="374" y1="526" x2="380" y2="523"
 style="stroke-width:1;stroke:Black;"/>
<text style="font-family:Arial;font-size:12px;kerning:0;word-spacing:-1px;fill:Black;">
<tspan x="253" y="521">powla:hasLayer  DR</tspan>
</text>
</g>
<g id="2002724887"><path d="M776,349 L518,349 "
style="fill:none;stroke-width:1;stroke:Black;"/>
<line x1="524" y1="346" x2="518" y2="349"
 style="stroke-width:1;stroke:Black;"/>
<line x1="524" y1="352" x2="518" y2="349"
 style="stroke-width:1;stroke:Black;"/>
<text style="font-family:Arial;font-size:12px;kerning:0;word-spacing:-1px;fill:Black;">
<tspan x="612" y="362">powla:hasSubDocument  DR</tspan>
</text>
</g>
<g id="2002724892"><path d="M848,507 L848,540 "
style="fill:none;stroke-width:1;stroke:Black;"/>
<line x1="845" y1="534" x2="848" y2="540"
 style="stroke-width:1;stroke:Black;"/>
<line x1="851" y1="534" x2="848" y2="540"
 style="stroke-width:1;stroke:Black;"/>
<text style="font-family:Arial;font-size:12px;kerning:0;word-spacing:-1px;fill:Black;">
<tspan x="850" y="522">dcat:theme  DR</tspan>
</text>
</g>
<g id="2002724897"><path d="M259,831 L449,831 "
style="fill:none;stroke-width:1;stroke:Black;"/>
<line x1="443" y1="828" x2="449" y2="831"
 style="stroke-width:1;stroke:Black;"/>
<line x1="443" y1="834" x2="449" y2="831"
 style="stroke-width:1;stroke:Black;"/>
<text style="font-family:Arial;font-size:12px;kerning:0;word-spacing:-1px;fill:Black;">
<tspan x="263" y="814">powla:hasParent  DR</tspan>
<tspan x="263" y="829">nif-core:sentence  DR</tspan>
</text>
</g>
<g id="2002724902"><path d="M822,204 L651,204 647,206 645,210 645,279 "
style="fill:none;stroke-width:1;stroke:Black;"/>
<line x1="642" y1="273" x2="645" y2="279"
 style="stroke-width:1;stroke:Black;"/>
<line x1="648" y1="273" x2="645" y2="279"
 style="stroke-width:1;stroke:Black;"/>
<text style="font-family:Arial;font-size:12px;kerning:0;word-spacing:-1px;fill:Black;">
<tspan x="675" y="217">prov:actedOnBehalfOf  DR</tspan>
</text>
</g>
<g id="2002724907"><path d="M776,296 L667,296 "
style="fill:none;stroke-width:1;stroke:Black;"/>
<line x1="673" y1="293" x2="667" y2="296"
 style="stroke-width:1;stroke:Black;"/>
<line x1="673" y1="299" x2="667" y2="296"
 style="stroke-width:1;stroke:Black;"/>
<text style="font-family:Arial;font-size:12px;kerning:0;word-spacing:-1px;fill:Black;">
<tspan x="677" y="309">dct:publisher  DR</tspan>
</text>
</g>
<g id="2002724912"><path d="M518,381 L776,381 "
style="fill:none;stroke-width:1;stroke:Black;"/>
<line x1="770" y1="378" x2="776" y2="381"
 style="stroke-width:1;stroke:Black;"/>
<line x1="770" y1="384" x2="776" y2="381"
 style="stroke-width:1;stroke:Black;"/>
<text style="font-family:Arial;font-size:12px;kerning:0;word-spacing:-1px;fill:Black;">
<tspan x="522" y="379">powla:hasSuperDocument  DR</tspan>
</text>
</g>
<g id="2002724917"><path d="M449,754 L259,754 "
style="fill:none;stroke-width:1;stroke:Black;"/>
<line x1="265" y1="751" x2="259" y2="754"
 style="stroke-width:1;stroke:Black;"/>
<line x1="265" y1="757" x2="259" y2="754"
 style="stroke-width:1;stroke:Black;"/>
<text style="font-family:Arial;font-size:12px;kerning:0;word-spacing:-1px;fill:Black;">
<tspan x="328" y="767">nif-core:word  D</tspan>
<tspan x="328" y="782">nif-core:firstWord  DR</tspan>
<tspan x="328" y="797">nif-core:lastWord  DR</tspan>
</text>
</g>
<g id="2002724922"><path d="M249,580 L431,580 "
style="fill:none;stroke-width:2;stroke:Fuchsia;"/>
<polygon points="259,585 249,580 259,575 "
style="fill:Silver;stroke-width:1;stroke:Black;"/>
<text style="font-family:Arial;font-size:12px;kerning:0;word-spacing:-1px;fill:Black;">
<tspan x="253" y="578"> </tspan>
</text>
</g>
<g id="2002724924"><path d="M191,599 L191,635 193,639 197,641 454,641 458,643 460,647 460,748 "
style="fill:none;stroke-width:2;stroke:Fuchsia;"/>
<polygon points="196,609 191,599 186,609 "
style="fill:Silver;stroke-width:1;stroke:Black;"/>
<text style="font-family:Arial;font-size:12px;kerning:0;word-spacing:-1px;fill:Black;">
<tspan x="193" y="614"> </tspan>
</text>
</g>
<g id="2002724926"><path d="M567,611 L567,651 "
style="fill:none;stroke-width:2;stroke:Fuchsia;"/>
<polygon points="572,621 567,611 562,621 "
style="fill:Silver;stroke-width:1;stroke:Black;"/>
<text style="font-family:Arial;font-size:12px;kerning:0;word-spacing:-1px;fill:Black;">
<tspan x="569" y="626"> </tspan>
</text>
</g>
<g id="2002724928"><path d="M841,136 L841,171 "
style="fill:none;stroke-width:2;stroke:Fuchsia;"/>
<polygon points="846,146 841,136 836,146 "
style="fill:Silver;stroke-width:1;stroke:Black;"/>
<text style="font-family:Arial;font-size:12px;kerning:0;word-spacing:-1px;fill:Black;">
<tspan x="843" y="151"> </tspan>
</text>
</g>
<g id="2002724930"><path d="M150,599 L150,660 "
style="fill:none;stroke-width:2;stroke:Fuchsia;"/>
<polygon points="155,609 150,599 145,609 "
style="fill:Silver;stroke-width:1;stroke:Black;"/>
<text style="font-family:Arial;font-size:12px;kerning:0;word-spacing:-1px;fill:Black;">
<tspan x="152" y="614"> </tspan>
</text>
</g>
<g id="2002724932"><path d="M613,136 L613,279 "
style="fill:none;stroke-width:2;stroke:Fuchsia;"/>
<polygon points="618,146 613,136 608,146 "
style="fill:Silver;stroke-width:1;stroke:Black;"/>
<text style="font-family:Arial;font-size:12px;kerning:0;word-spacing:-1px;fill:Black;">
<tspan x="615" y="151"> </tspan>
</text>
</g>
</svg>
