<?xml version="1.0" encoding="UTF-8" standalone="no"?>
<!DOCTYPE svg PUBLIC "-//W3C//DTD SVG 1.1//EN"
"http://www.w3.org/Graphics/SVG/1.1/DTD/svg11.dtd">
<svg version="1.1" xmlns="http://www.w3.org/2000/svg"
xmlns:xlink="http://www.w3.org/1999/xlink" xml:space="preserve"
 width="830" height="136" viewBox="0 0 830 136">
 onmousemove="movetip(evt)" onmouseup="endmove()">
<rect x="0" y="0" width="100%" height="100%" style="fill:White;"/>
<script type="application/ecmascript"> <![CDATA[
var dragtipid = null; var dragcase = false; function init(evt){
if (window.svgDocument==null) svgDocument = evt.target.ownerDocument;
}
function movetip(evt){if (dragtipid!=null){ dragcase = true;
var tip=svgDocument.getElementById(dragtipid);
tip.setAttributeNS(null,"x",evt.clientX-2);
tip.setAttributeNS(null,"y",evt.clientY-2);
}}
function endmove(){dragtipid = null;}
function startmove(evt,id){dragtipid = id; dragcase = false;
var tip=svgDocument.getElementById(dragtipid);
tip.setAttributeNS(null,"x",evt.clientX-2);
tip.setAttributeNS(null,"y",evt.clientY-2);
}
function Showtip(evt,id){ dragtipid = null;
var tip=svgDocument.getElementById(id);
var vis=tip.getAttributeNS(null,"visibility");
if (vis=="hidden"){
tip.setAttributeNS(null,"x",evt.clientX-2);
tip.setAttributeNS(null,"y",evt.clientY-2);
tip.setAttributeNS(null,"visibility","visible");
}}
function Hidetip(id){ dragtipid = null; if (dragcase==false){
var tip=svgDocument.getElementById(id);
tip.setAttributeNS(null,"visibility","hidden");
}}
]]></script>
<defs><linearGradient id="activ1" x1="0%" y1="0%" x2="100%" y2="0%">
<stop offset="0%" style="stop-color:#FFFF00;stop-opacity:1"/>
<stop offset="100%" style="stop-color:#FFFFF0;stop-opacity:1"/>
</linearGradient></defs>
<g id="2002679401"><polygon points="120,16 420,16 420,126 120,126 "
style="fill:#F4D03F; stroke-width:1;stroke:Black;"/>
<text style="font-family:Arial;font-size:12px;kerning:0;word-spacing:-1px;fill:Black;font-weight:bold;">
<tspan x="209" y="31">skos:Concept (1.8e5)</tspan>
</text>
<line x1="124" y1="34" x2="418" y2="34"
 style="stroke-width:1;stroke:Black;"/>
<text style="font-family:Arial;font-size:12px;kerning:0;word-spacing:-1px;fill:Black;">
<tspan x="124" y="46">dct:created (1.8e5 99.9%d) [*]  -&gt; IRI</tspan>
<tspan x="124" y="61">dct:modified (1.8e5) [1] </tspan>
<tspan x="124" y="76">rdf:type (1.8e5) [1]  -&gt; IRI</tspan>
<tspan x="124" y="91">skos:altLabel (6.2e4) [*] </tspan>
<tspan x="124" y="106">skos:prefLabel (1.8e5) [*] </tspan>
<tspan x="124" y="121">skos:scopeNote (1.6e4) [*] </tspan>
</text>
</g>
<g id="2002679412"><polygon points="520,22 820,22 820,102 520,102 "
style="fill:#F4D03F; stroke-width:1;stroke:Black;"/>
<text style="font-family:Arial;font-size:12px;kerning:0;word-spacing:-1px;fill:Black;font-weight:bold;">
<tspan x="594" y="37">skos:ConceptScheme (29)</tspan>
</text>
<line x1="524" y1="40" x2="818" y2="40"
 style="stroke-width:1;stroke:Black;"/>
<text style="font-family:Arial;font-size:12px;kerning:0;word-spacing:-1px;fill:Black;">
<tspan x="524" y="52">rdf:type (29) [1]  -&gt; IRI</tspan>
<tspan x="524" y="67">rdfs:comment (29) [1] </tspan>
<tspan x="524" y="82">rdfs:label (8) [1] </tspan>
<tspan x="524" y="97">skos:prefLabel (29) [*] </tspan>
</text>
</g>
<g id="2002679381"><path d="M120,49 L16,49 12,47 10,43 10,16 12,12 16,10 270,10 270,16 "
style="fill:none;stroke-width:1;stroke:Black;"/>
<line x1="267" y1="10" x2="270" y2="16"
 style="stroke-width:1;stroke:Black;"/>
<line x1="273" y1="10" x2="270" y2="16"
 style="stroke-width:1;stroke:Black;"/>
<text style="font-family:Arial;font-size:12px;kerning:0;word-spacing:-1px;fill:Black;">
<tspan x="18" y="62">owl:sameAs  </tspan>
<tspan x="18" y="77">skos:closeMatch  </tspan>
<tspan x="18" y="92">skos:broader  </tspan>
<tspan x="18" y="107">skos:narrower  </tspan>
<tspan x="18" y="122">skos:related  </tspan>
</text>
</g>
<g id="2002679386"><path d="M520,49 L420,49 "
style="fill:none;stroke-width:1;stroke:Black;"/>
<line x1="426" y1="46" x2="420" y2="49"
 style="stroke-width:1;stroke:Black;"/>
<line x1="426" y1="52" x2="420" y2="49"
 style="stroke-width:1;stroke:Black;"/>
<text style="font-family:Arial;font-size:12px;kerning:0;word-spacing:-1px;fill:Black;">
<tspan x="442" y="62">owl:sameAs  </tspan>
</text>
</g>
<g id="2002679391"><path d="M520,28 L432,28 428,26 426,22 426,22 428,18 432,16 670,16 670,22 "
style="fill:none;stroke-width:1;stroke:Black;"/>
<line x1="667" y1="16" x2="670" y2="22"
 style="stroke-width:1;stroke:Black;"/>
<line x1="673" y1="16" x2="670" y2="22"
 style="stroke-width:1;stroke:Black;"/>
<text style="font-family:Arial;font-size:12px;kerning:0;word-spacing:-1px;fill:Black;">
<tspan x="442" y="41">owl:sameAs  </tspan>
</text>
</g>
<g id="2002679396"><path d="M420,96 L520,96 "
style="fill:none;stroke-width:1;stroke:Black;"/>
<line x1="514" y1="93" x2="520" y2="96"
 style="stroke-width:1;stroke:Black;"/>
<line x1="514" y1="99" x2="520" y2="96"
 style="stroke-width:1;stroke:Black;"/>
<text style="font-family:Arial;font-size:12px;kerning:0;word-spacing:-1px;fill:Black;">
<tspan x="424" y="79">owl:sameAs  </tspan>
<tspan x="424" y="94">skos:inScheme  </tspan>
</text>
</g>
</svg>
