<?xml version="1.0" encoding="UTF-8" standalone="no"?>
<!DOCTYPE svg PUBLIC "-//W3C//DTD SVG 1.1//EN"
"http://www.w3.org/Graphics/SVG/1.1/DTD/svg11.dtd">
<svg version="1.1" xmlns="http://www.w3.org/2000/svg"
xmlns:xlink="http://www.w3.org/1999/xlink" xml:space="preserve"
 width="1497" height="1336" viewBox="0 0 1497 1336">
 onmousemove="movetip(evt)" onmouseup="endmove()">
<rect x="0" y="0" width="100%" height="100%" style="fill:White;"/>
<script type="application/ecmascript"> <![CDATA[
var dragtipid = null; var dragcase = false; function init(evt){
if (window.svgDocument==null) svgDocument = evt.target.ownerDocument;
}
function movetip(evt){if (dragtipid!=null){ dragcase = true;
var tip=svgDocument.getElementById(dragtipid);
tip.setAttributeNS(null,"x",evt.clientX-2);
tip.setAttributeNS(null,"y",evt.clientY-2);
}}
function endmove(){dragtipid = null;}
function startmove(evt,id){dragtipid = id; dragcase = false;
var tip=svgDocument.getElementById(dragtipid);
tip.setAttributeNS(null,"x",evt.clientX-2);
tip.setAttributeNS(null,"y",evt.clientY-2);
}
function Showtip(evt,id){ dragtipid = null;
var tip=svgDocument.getElementById(id);
var vis=tip.getAttributeNS(null,"visibility");
if (vis=="hidden"){
tip.setAttributeNS(null,"x",evt.clientX-2);
tip.setAttributeNS(null,"y",evt.clientY-2);
tip.setAttributeNS(null,"visibility","visible");
}}
function Hidetip(id){ dragtipid = null; if (dragcase==false){
var tip=svgDocument.getElementById(id);
tip.setAttributeNS(null,"visibility","hidden");
}}
]]></script>
<defs><linearGradient id="activ1" x1="0%" y1="0%" x2="100%" y2="0%">
<stop offset="0%" style="stop-color:#FFFF00;stop-opacity:1"/>
<stop offset="100%" style="stop-color:#FFFFF0;stop-opacity:1"/>
</linearGradient></defs>
<g id="2002718004"><polygon points="195,155 589,155 589,1326 195,1326 "
style="fill:#F4D03F; stroke-width:1;stroke:Black;"/>
<text style="font-family:Arial;font-size:12px;kerning:0;word-spacing:-1px;fill:Black;font-weight:bold;">
<tspan x="309" y="170">schema:ImageObject (8.0e4)</tspan>
</text>
<line x1="199" y1="173" x2="587" y2="173"
 style="stroke-width:1;stroke:Black;"/>
<text style="font-family:Arial;font-size:12px;kerning:0;word-spacing:-1px;fill:Black;">
<tspan x="199" y="185">aas:AffineA (1) [1] D -&gt; IRI</tspan>
<tspan x="199" y="200">aas:AffineB (1) [1] D -&gt; IRI</tspan>
<tspan x="199" y="215">aas:AffineC (1) [1] D -&gt; IRI</tspan>
<tspan x="199" y="230">aas:AffineD (1) [1] D -&gt; IRI</tspan>
<tspan x="199" y="245">aas:AffineX (1) [1] D -&gt; IRI</tspan>
<tspan x="199" y="260">aas:AffineY (1) [1] D -&gt; IRI</tspan>
<tspan x="199" y="275">aas:CropH (1) [1] D -&gt; IRI</tspan>
<tspan x="199" y="290">aas:CropW (1) [1] D -&gt; IRI</tspan>
<tspan x="199" y="305">aas:CropX (1) [1] D -&gt; IRI</tspan>
<tspan x="199" y="320">aas:CropY (1) [1] D -&gt; IRI</tspan>
<tspan x="199" y="335">aas:Curve0x (1) [1] D -&gt; IRI</tspan>
<tspan x="199" y="350">aas:Curve0y (1) [1] D -&gt; IRI</tspan>
<tspan x="199" y="365">aas:Curve1x (1) [1] D -&gt; IRI</tspan>
<tspan x="199" y="380">aas:Curve1y (1) [1] D -&gt; IRI</tspan>
<tspan x="199" y="395">aas:Curve2x (1) [1] D -&gt; IRI</tspan>
<tspan x="199" y="410">aas:Curve2y (1) [1] D -&gt; IRI</tspan>
<tspan x="199" y="425">aas:Curve3x (1) [1] D -&gt; IRI</tspan>
<tspan x="199" y="440">aas:Curve3y (1) [1] D -&gt; IRI</tspan>
<tspan x="199" y="455">aas:Curve4x (1) [1] D -&gt; IRI</tspan>
<tspan x="199" y="470">aas:Curve4y (1) [1] D -&gt; IRI</tspan>
<tspan x="199" y="485">aas:FaceBalanceOrigI (1) [1] D -&gt; IRI</tspan>
<tspan x="199" y="500">aas:FaceBalanceOrigQ (1) [1] D -&gt; IRI</tspan>
<tspan x="199" y="515">aas:FaceBalanceStrength (1) [1] D -&gt; IRI</tspan>
<tspan x="199" y="530">aas:FaceBalanceWarmth (1) [1] D -&gt; IRI</tspan>
<tspan x="199" y="545">auto_1:xmpMM:DerivedFromDocumentID (3372) [*] D -&gt; IRI</tspan>
<tspan x="199" y="560">auto_1:xmpMM:DerivedFromInstanceID (2186) [*] D -&gt; IRI</tspan>
<tspan x="199" y="575">auto_1:xmpMM:DerivedFromOriginalDocumentID (2540) [*] D -&gt; IRI</tspan>
<tspan x="199" y="590">auto_1:xmpMM:DerivedFromRenditionClass (2) [1] D -&gt; IRI</tspan>
<tspan x="199" y="605">auto_1:xmpMM:DocumentID (5758) [*] D -&gt; IRI</tspan>
<tspan x="199" y="620">auto_1:xmpMM:InstanceID (5376) [*] D -&gt; IRI</tspan>
<tspan x="199" y="635">auto_1:xmpMM:ManifestLinkForm (2) [1] D -&gt; IRI</tspan>
<tspan x="199" y="650">auto_1:xmpMM:ManifestPlacedResolutionUnit (1) [1] D -&gt; IRI</tspan>
<tspan x="199" y="665">auto_1:xmpMM:ManifestPlacedXResolution (1) [1] D -&gt; IRI</tspan>
<tspan x="199" y="680">auto_1:xmpMM:ManifestPlacedYResolution (1) [1] D -&gt; IRI</tspan>
<tspan x="199" y="695">auto_1:xmpMM:ManifestReferenceDocumentID (1) [1] D -&gt; IRI</tspan>
<tspan x="199" y="710">auto_1:xmpMM:ManifestReferenceFilePath (1) [1] D -&gt; IRI</tspan>
<tspan x="199" y="725">auto_1:xmpMM:ManifestReferenceInstanceID (1) [1] D -&gt; IRI</tspan>
<tspan x="199" y="740">auto_1:xmpMM:OriginalDocumentID (4041) [*] D -&gt; IRI</tspan>
<tspan x="199" y="755">auto_1:xmpMM:PreservedFileName (46) [*] D -&gt; IRI</tspan>
<tspan x="199" y="770">auto_1:xmpMM:RenditionClass (2) [1] D -&gt; IRI</tspan>
<tspan x="199" y="785">auto_1:xmpMM:VersionID (2) [1] D -&gt; IRI</tspan>
<tspan x="199" y="800">axifca:AEBBracketValue (1) [1] D -&gt; IRI</tspan>
<tspan x="199" y="815">axifca:AFAreaHeight (1) [1] D -&gt; IRI</tspan>
<tspan x="199" y="830">axifca:AFAreaWidth (1) [1] D -&gt; IRI</tspan>
<tspan x="199" y="845">axifca:AFAreaXPositions (1) [1] D -&gt; IRI</tspan>
<tspan x="199" y="860">axifca:AFAreaYPositions (1) [1] D -&gt; IRI</tspan>
<tspan x="199" y="875">axifca:AFImageHeight (1) [1] D -&gt; IRI</tspan>
<tspan x="199" y="890">axifca:AFImageWidth (1) [1] D -&gt; IRI</tspan>
<tspan x="199" y="905">axifca:AFPointsInFocus (1) [1] D -&gt; IRI</tspan>
<tspan x="199" y="920">axifca:AutoExposureBracketing (1) [1] D -&gt; IRI</tspan>
<tspan x="199" y="935">axifca:AutoISO (1) [1] D -&gt; IRI</tspan>
<tspan x="199" y="950">axifca:AutoRotate (1) [1] D -&gt; IRI</tspan>
<tspan x="199" y="965">axifca:BaseISO (1) [1] D -&gt; IRI</tspan>
<tspan x="199" y="980">axifca:BlackMaskBottomBorder (1) [1] D -&gt; IRI</tspan>
<tspan x="199" y="995">axifca:BlackMaskLeftBorder (1) [1] D -&gt; IRI</tspan>
<tspan x="199" y="1010">axifca:BlackMaskRightBorder (1) [1] D -&gt; IRI</tspan>
<tspan x="199" y="1025">axifca:BlackMaskTopBorder (1) [1] D -&gt; IRI</tspan>
<tspan x="199" y="1040">axifca:BracketMode (1) [1] D -&gt; IRI</tspan>
<tspan x="199" y="1055">axifca:BracketShotNumber (1) [1] D -&gt; IRI</tspan>
<tspan x="199" y="1070">axifca:BracketValue (1) [1] D -&gt; IRI</tspan>
<tspan x="199" y="1085">axifca:BulbDuration (1) [1] D -&gt; IRI</tspan>
<tspan x="199" y="1100">axifca:CameraType (1) [1] D -&gt; IRI</tspan>
<tspan x="199" y="1115">axifca:CanonExposureMode (1) [1] D -&gt; IRI</tspan>
<tspan x="199" y="1130">axifca:CanonFirmwareVersion (1) [1] D -&gt; IRI</tspan>
<tspan x="199" y="1145">axifca:CanonFlashMode (1) [1] D -&gt; IRI</tspan>
<tspan x="199" y="1160">axifca:CanonImageHeight (1) [1] D -&gt; IRI</tspan>
<tspan x="199" y="1175">axifca:CanonImageSize (1) [1] D -&gt; IRI</tspan>
<tspan x="199" y="1190">axifca:CanonImageType (1) [1] D -&gt; IRI</tspan>
<tspan x="199" y="1205">axifca:CanonImageWidth (1) [1] D -&gt; IRI</tspan>
<tspan x="199" y="1220">axifca:CanonModelID (1) [1] D -&gt; IRI</tspan>
<tspan x="199" y="1235">axifca:ColorTempAsShot (1) [1] D -&gt; IRI</tspan>
<tspan x="199" y="1250">axifca:ColorTempAuto (1) [1] D -&gt; IRI</tspan>
<tspan x="199" y="1265">axifca:ColorTempCloudy (1) [1] D -&gt; IRI</tspan>
<tspan x="199" y="1280">axifca:ColorTempCustom1 (1) [1] D -&gt; IRI</tspan>
<tspan x="199" y="1295">axifca:ColorTempCustom2 (1) [1] D -&gt; IRI</tspan>
<tspan x="199" y="1310">axifca:ColorTempDaylight (1) [1] D -...</tspan>
</text>
</g>
<g id="2002718015"><polygon points="1057,150 1487,150 1487,1101 1057,1101 "
style="fill:White; stroke-width:1;stroke:Black;"/>
<text style="font-family:Arial;font-size:12px;kerning:0;word-spacing:-1px;fill:Black;">
<tspan x="1061" y="164">PREFIX lio: &lt;https://w3id.org/lio/v1#&gt;</tspan>
<tspan x="1061" y="179">PREFIX exif: &lt;http://ns.adobe.com/exif/1.0/&gt;</tspan>
<tspan x="1061" y="194">PREFIX axifca: &lt;http://ns.adobe.com/exif/1.0/Canon/&gt;</tspan>
<tspan x="1061" y="209">PREFIX xap: &lt;http://ns.adobe.com/xap/1.0/crd/&gt;</tspan>
<tspan x="1061" y="224">PREFIX photoshop: &lt;http://ns.adobe.com/photoshop/1.0/&gt;</tspan>
<tspan x="1061" y="239">PREFIX exifgps: &lt;http://ns.adobe.com/exif/1.0/GPS/&gt;</tspan>
<tspan x="1061" y="254">PREFIX mwg-rs: &lt;http://ns.adobe.com/xap/1.0/mwg-rs/&gt;</tspan>
<tspan x="1061" y="269">PREFIX aas: &lt;http://ns.adobe.com/xap/1.0/aas/&gt;</tspan>
<tspan x="1061" y="284">PREFIX tiff: &lt;http://ns.adobe.com/xap/1.0/tiff/&gt;</tspan>
<tspan x="1061" y="299">PREFIX iptcext: &lt;http://ns.adobe.com/xap/1.0/iptcExt/&gt;</tspan>
<tspan x="1061" y="314">PREFIX schema: &lt;http://schema.org/&gt;</tspan>
<tspan x="1061" y="329">PREFIX auto_1: &lt;&gt;</tspan>
<tspan x="1061" y="344">PREFIX useplus: &lt;http://ns.useplus.org/ldf/xmp/1.0/&gt;</tspan>
<tspan x="1061" y="359">PREFIX xmptpg: &lt;http://ns.adobe.com/xap/1.0/xmpTPg/&gt;</tspan>
<tspan x="1061" y="374">PREFIX n11: &lt;http://ns.adobe.com/xap/1.0/GPano/&gt;</tspan>
<tspan x="1061" y="389">PREFIX dc: &lt;http://purl.org/dc/elements/1.1/&gt;</tspan>
<tspan x="1061" y="404">PREFIX n12: &lt;http://ns.adobe.com/xap/1.0/iptcCore/&gt;</tspan>
<tspan x="1061" y="419">PREFIX n16: &lt;http://ns.adobe.com/xap/1.0/aux/&gt;</tspan>
<tspan x="1061" y="434">PREFIX n13: &lt;http://ns.adobe.com/xap/1.0/exifEX/&gt;</tspan>
<tspan x="1061" y="449">PREFIX n15: &lt;http://ns.adobe.com/xap/1.0/mm/&gt;</tspan>
<tspan x="1061" y="464">PREFIX n14: &lt;http://ns.adobe.com/xap/1.0/xmpDM/&gt;</tspan>
<tspan x="1061" y="479">PREFIX n17: &lt;http://ns.adobe.com/exif/1.0/CanonCustom/&gt;</tspan>
<tspan x="1061" y="494">PREFIX n19: &lt;http://iptc.org/std/Iptc4xmpExt/2008-02-29/LocationShown/1/&gt;</tspan>
<tspan x="1061" y="509">PREFIX wd: &lt;http://www.wikidata.org/entity/&gt;</tspan>
<tspan x="1061" y="524">PREFIX n20: &lt;http://www.iptc.org/std/Iptc4xmpCore/1.0/xmlns/&gt;</tspan>
<tspan x="1061" y="539">PREFIX xmp: &lt;http://ns.adobe.com/xap/1.0/&gt;</tspan>
<tspan x="1061" y="554">PREFIX n22: &lt;http://ns.adobe.com/xap/1.0/microsoft/&gt;</tspan>
<tspan x="1061" y="569">PREFIX n21: &lt;http://ns.adobe.com/xap/1.0/cell/&gt;</tspan>
<tspan x="1061" y="584">PREFIX n23: &lt;http://iptc.org/std/Iptc4xmpExt/2008-02-29/LocationCreated/1/&gt;</tspan>
<tspan x="1061" y="599">PREFIX n26: &lt;http://ns.adobe.com/exif/1.0/InteropIFD/&gt;</tspan>
<tspan x="1061" y="614">PREFIX n27: &lt;http://ns.adobe.com/xap/1.0/MP1/&gt;</tspan>
<tspan x="1061" y="629">PREFIX n25: &lt;http://ns.adobe.com/xap/1.0/photomech/&gt;</tspan>
<tspan x="1061" y="644">PREFIX n28: &lt;http://ns.adobe.com/xap/1.0/digiKam/&gt;</tspan>
<tspan x="1061" y="659">PREFIX n24: &lt;http://www.iptc.org/std/Iptc4xmpCore/1.0/xmlns/#&gt;</tspan>
<tspan x="1061" y="674">PREFIX n29: &lt;http://ns.adobe.com/xap/1.0/rights/&gt;</tspan>
<tspan x="1061" y="689">PREFIX n30: &lt;http://ns.adobe.com/exif/1.0/JFIF/&gt;</tspan>
<tspan x="1061" y="704">PREFIX n31: &lt;http://ns.adobe.com/xap/1.0/pdf/&gt;</tspan>
<tspan x="1061" y="719">PREFIX n32: &lt;http://ns.adobe.com/xap/1.0/acdsee/&gt;</tspan>
<tspan x="1061" y="734">PREFIX dbo: &lt;http://dbpedia.org/ontology/&gt;</tspan>
<tspan x="1061" y="749">PREFIX dbp: &lt;http://dbpedia.org/property/&gt;</tspan>
<tspan x="1061" y="764">PREFIX rdfs: &lt;http://www.w3.org/2000/01/rdf-schema#&gt;</tspan>
<tspan x="1061" y="779">PREFIX n33: &lt;http://ns.adobe.com/exif/1.0/Ducky/&gt;</tspan>
<tspan x="1061" y="794">PREFIX n34: &lt;http://ns.adobe.com/xap/1.0/mediapro/&gt;</tspan>
<tspan x="1061" y="809">PREFIX n35: &lt;http://ns.adobe.com/xap/1.0/MP/&gt;</tspan>
<tspan x="1061" y="824">PREFIX n36: &lt;http://www.w3.org/2003/01/geo/wgs84_pos#&gt;</tspan>
<tspan x="1061" y="839">PREFIX rdf: &lt;http://www.w3.org/1999/02/22-rdf-syntax-ns#&gt;</tspan>
<tspan x="1061" y="854">PREFIX foaf: &lt;http://xmlns.com/foaf/0.1/&gt;</tspan>
<tspan x="1061" y="869">PREFIX n38: &lt;http://ns.adobe.com/xap/1.0/lr/&gt;</tspan>
<tspan x="1061" y="884">PREFIX n39: &lt;http://ns.adobe.com/xap/1.0/exif/&gt;</tspan>
<tspan x="1061" y="899">PREFIX n37: &lt;http://purl.org/net/mw/&gt;</tspan>
<tspan x="1061" y="914">PREFIX n50: &lt;http://vocab.getty.edu/aat/300015637&gt;</tspan>
<tspan x="1061" y="929">PREFIX n49: &lt;http://ns.adobe.com/xap/1.0/x/&gt;</tspan>
<tspan x="1061" y="944">PREFIX n51: &lt;https://www.wikidata.org/wiki/&gt;</tspan>
<tspan x="1061" y="959">PREFIX n52: &lt;http://www.w3.org/1999/U2/22-rdf-syntax-ns#&gt;</tspan>
<tspan x="1061" y="974">PREFIX n45: &lt;http://ns.adobe.com/xap/1.0/xmpNote/&gt;</tspan>
<tspan x="1061" y="989">PREFIX n44: &lt;http://ns.adobe.com/xap/1.0/album/&gt;</tspan>
<tspan x="1061" y="1004">PREFIX dbpedia: &lt;http://dbpedia.org/resource/&gt;</tspan>
<tspan x="1061" y="1019">PREFIX n48: &lt;https://www.sfchronicle.com/bayarea/article/&gt;</tspan>
<tspan x="1061" y="1034">PREFIX n40: &lt;http://ns.useplus.org/ldf/xmp/1.0/CopyrightOwner/1/&gt;</tspan>
<tspan x="1061" y="1049">PREFIX n41: &lt;http://ns.useplus.org/ldf/xmp/1.0/Licensor/1/&gt;</tspan>
<tspan x="1061" y="1064">PREFIX owl: &lt;http://www.w3.org/2002/07/owl#&gt;</tspan>
<tspan x="1061" y="1079">PREFIX n43: &lt;http://ns.adobe.com/xap/1.0/cc/&gt;</tspan>
</text>
</g>
<g id="2002718026"><polygon points="782,1273 1031,1273 1031,1323 782,1323 "
style="fill:#F4D03F; stroke-width:1;stroke:Black;"/>
<text style="font-family:Arial;font-size:12px;kerning:0;word-spacing:-1px;fill:Black;font-weight:bold;">
<tspan x="859" y="1288">n36:Point (4633)</tspan>
</text>
<line x1="786" y1="1291" x2="1029" y2="1291"
 style="stroke-width:1;stroke:Black;"/>
<text style="font-family:Arial;font-size:12px;kerning:0;word-spacing:-1px;fill:Black;">
<tspan x="786" y="1303">n36:lat (4633) [*] </tspan>
<tspan x="786" y="1318">rdf:type (4633) [*]  -&gt; IRI</tspan>
</text>
</g>
<g id="2002718048"><polygon points="740,596 1040,596 1040,1248 740,1248 "
style="fill:#F4D03F; stroke-width:1;stroke:Black;"/>
<text style="font-family:Arial;font-size:12px;kerning:0;word-spacing:-1px;fill:Black;font-weight:bold;">
<tspan x="843" y="611">lio:Image (8.0e4)</tspan>
</text>
<line x1="744" y1="614" x2="1038" y2="614"
 style="stroke-width:1;stroke:Black;"/>
<text style="font-family:Arial;font-size:12px;kerning:0;word-spacing:-1px;fill:Black;">
<tspan x="744" y="626">dbo:date (1) [1] D -&gt; IRI</tspan>
<tspan x="744" y="641">dbo:location (4) [1] D -&gt; IRI</tspan>
<tspan x="744" y="656">dc:rights (3.3e4 95%d) [*]  -&gt; IRI</tspan>
<tspan x="744" y="671">dc:subject (6520) [*] </tspan>
<tspan x="744" y="686">dc:title (4.0e4) [*] </tspan>
<tspan x="744" y="701">lio:IsIn (1685) [*]  -&gt; IRI</tspan>
<tspan x="744" y="716">lio:conveys (588) [*]  -&gt; IRI</tspan>
<tspan x="744" y="731">lio:folderPath (8.4e4) [*] </tspan>
<tspan x="744" y="746">lio:hasArtisticElement (3767) [*]  -&gt; IRI</tspan>
<tspan x="744" y="761">lio:hasColor (3) [*]  -&gt; IRI</tspan>
<tspan x="744" y="776">lio:hasDepictedBackground (1643) [*]  -&gt; IRI</tspan>
<tspan x="744" y="791">lio:hasMachineTag (1.5e5) [*] D -&gt; IRI</tspan>
<tspan x="744" y="806">lio:hasSceneLocation (1.1e4) [*]  -&gt; IRI</tspan>
<tspan x="744" y="821">lio:hasSetting (1.3e4) [*]  -&gt; IRI</tspan>
<tspan x="744" y="836">lio:hasTag (1.0e6 99.9%d) [*]  -&gt; IRI</tspan>
<tspan x="744" y="851">lio:isIn (1073) [*]  -&gt; IRI</tspan>
<tspan x="744" y="866">lio:isRelated (1982) [*]  -&gt; IRI</tspan>
<tspan x="744" y="881">lio:location (4039) [1]  -&gt; IRI</tspan>
<tspan x="744" y="896">lio:materials (4767) [*]  -&gt; IRI</tspan>
<tspan x="744" y="911">lio:oidImageId (2.3e4) [*] D -&gt; IRI</tspan>
<tspan x="744" y="926">lio:technique (8546) [*]  -&gt; IRI</tspan>
<tspan x="744" y="941">n20:AltTextAccessibility (1996) [1] </tspan>
<tspan x="744" y="956">n20:CiEmailWork (8117 99%d) [*]  -&gt; IRI</tspan>
<tspan x="744" y="971">n20:CiUrlWork (3.7e4) [*] </tspan>
<tspan x="744" y="986">n20:ExtDescrAccessibility (1231 99.9%d) [1]  -&gt; IRI</tspan>
<tspan x="744" y="1001">n20:Scene (7756 0.01%d) [*]  -&gt; IRI</tspan>
<tspan x="744" y="1016">n29:WebStatement (8697 4%d) [*]  -&gt; IRI</tspan>
<tspan x="744" y="1031">n29:usageTerms (3.4e4 99.9%d) [1]  -&gt; IRI</tspan>
<tspan x="744" y="1046">n52:type (29) [1] D -&gt; IRI</tspan>
<tspan x="744" y="1061">photoshop:City (1955 98%d) [1]  -&gt; IRI</tspan>
<tspan x="744" y="1076">photoshop:Country (1658 98%d) [1]  -&gt; IRI</tspan>
<tspan x="744" y="1091">photoshop:Credit (1928 99.9%d) [1] D -&gt; IRI</tspan>
<tspan x="744" y="1106">photoshop:DateCreated (4.7e4) [*] </tspan>
<tspan x="744" y="1121">rdf:type (1.6e5) [*]  -&gt; IRI</tspan>
<tspan x="744" y="1136">rdfs:comment (4.1e4 99.9%d) [*]  -&gt; IRI</tspan>
<tspan x="744" y="1151">rdfs:seeAlso (8.7e4) [*] D -&gt; IRI</tspan>
<tspan x="744" y="1166">schema:acquireLicensePage (1996) [*] D</tspan>
<tspan x="744" y="1181">schema:copyrightNotice (3.3e4 95%d) [*] D -&gt; IRI</tspan>
<tspan x="744" y="1196">schema:keywords (6.8e4) [*] D</tspan>
<tspan x="744" y="1211">schema:license (8567) [*] D</tspan>
<tspan x="744" y="1226">schema:name (3.9e4) [*] D</tspan>
<tspan x="744" y="1241">useplus:LicensorURL (2125) [*] </tspan>
</text>
</g>
<g id="2002718059"><polygon points="806,199 1040,199 1040,387 806,387 "
style="fill:#F4D03F; stroke-width:1;stroke:Black;"/>
<text style="font-family:Arial;font-size:12px;kerning:0;word-spacing:-1px;fill:Black;font-weight:bold;">
<tspan x="862" y="214">schema:Person (290)</tspan>
</text>
<line x1="810" y1="217" x2="1038" y2="217"
 style="stroke-width:1;stroke:Black;"/>
<text style="font-family:Arial;font-size:12px;kerning:0;word-spacing:-1px;fill:Black;">
<tspan x="810" y="229">lio:isAiming (1) [1] D -&gt; IRI</tspan>
<tspan x="810" y="244">lio:isDriving (2) [*] D -&gt; IRI</tspan>
<tspan x="810" y="259">lio:isHolding (3) [*]  -&gt; IRI</tspan>
<tspan x="810" y="274">lio:isMaking (2) [1] D -&gt; IRI</tspan>
<tspan x="810" y="289">lio:isTalkingOn (1) [1] D -&gt; IRI</tspan>
<tspan x="810" y="304">lio:isWearing (6) [*]  -&gt; IRI</tspan>
<tspan x="810" y="319">lio:with (4) [*]  -&gt; IRI</tspan>
<tspan x="810" y="334">rdf:type (290) [*]  -&gt; IRI</tspan>
<tspan x="810" y="349">rdfs:label (306) [*] </tspan>
<tspan x="810" y="364">&lt;&gt; lio:is  </tspan>
</text>
</g>
<g id="2002718037"><polygon points="808,148 1042,148 1042,187 808,187 "
style="fill:#F4D03F; stroke-width:1;stroke:Black;"/>
<text style="font-family:Arial;font-size:12px;kerning:0;word-spacing:-1px;fill:Black;font-weight:bold;">
<tspan x="904" y="163">n50: (1)</tspan>
</text>
</g>
<g id="2002793471"><polygon points="525,68 1022,68 1022,120 525,120 "
style="fill:none; stroke-width:1;stroke:Black;"/>
<text style="font-family:Arial;font-size:18px;kerning:0;word-spacing:-1px;fill:Black;font-weight:bold;">
<tspan x="709" y="88">ImageSnippets</tspan>
<tspan x="584" y="110">http://www.imagesnippets.com/sparql/images</tspan>
</text>
</g>
<g id="2002717980"><path d="M589,293 L806,293 "
style="fill:none;stroke-width:1;stroke:Black;"/>
<line x1="800" y1="290" x2="806" y2="293"
 style="stroke-width:1;stroke:Black;"/>
<line x1="800" y1="296" x2="806" y2="293"
 style="stroke-width:1;stroke:Black;"/>
<text style="font-family:Arial;font-size:12px;kerning:0;word-spacing:-1px;fill:Black;">
<tspan x="593" y="246">lio:isPartOf  </tspan>
<tspan x="593" y="261">lio:hasPhotographer  D</tspan>
<tspan x="593" y="276">foaf:depicts  D</tspan>
<tspan x="593" y="291">lio:AOCreator  DR</tspan>
</text>
</g>
<g id="2002717985"><path d="M915,1248 L915,1273 "
style="fill:none;stroke-width:1;stroke:Black;"/>
<line x1="912" y1="1267" x2="915" y2="1273"
 style="stroke-width:1;stroke:Black;"/>
<line x1="918" y1="1267" x2="915" y2="1273"
 style="stroke-width:1;stroke:Black;"/>
<text style="font-family:Arial;font-size:12px;kerning:0;word-spacing:-1px;fill:Black;">
<tspan x="917" y="1263">lio:wasCreatedAt  D</tspan>
</text>
</g>
<g id="2002717990"><path d="M740,952 L589,952 "
style="fill:none;stroke-width:1;stroke:Black;"/>
<line x1="595" y1="949" x2="589" y2="952"
 style="stroke-width:1;stroke:Black;"/>
<line x1="595" y1="955" x2="589" y2="952"
 style="stroke-width:1;stroke:Black;"/>
<text style="font-family:Arial;font-size:12px;kerning:0;word-spacing:-1px;fill:Black;">
<tspan x="618" y="965">schema:thumbnail  D</tspan>
<tspan x="618" y="980">lio:hasVisualPart  </tspan>
</text>
</g>
<g id="2002717995"><path d="M923,596 L923,387 "
style="fill:none;stroke-width:1;stroke:Black;"/>
<line x1="920" y1="393" x2="923" y2="387"
 style="stroke-width:1;stroke:Black;"/>
<line x1="926" y1="393" x2="923" y2="387"
 style="stroke-width:1;stroke:Black;"/>
<text style="font-family:Arial;font-size:12px;kerning:0;word-spacing:-1px;fill:Black;">
<tspan x="802" y="427">schema:creator  D</tspan>
<tspan x="802" y="442">dc:creator  </tspan>
<tspan x="802" y="457">lio:shows  </tspan>
<tspan x="802" y="472">lio:depicts  </tspan>
<tspan x="802" y="487">schema:about  D</tspan>
<tspan x="802" y="502">schema:mentions  D</tspan>
<tspan x="802" y="517">lio:hasInBackground  </tspan>
<tspan x="802" y="532">lio:usesPictorially  </tspan>
<tspan x="802" y="547">lio:hasInForeground  </tspan>
<tspan x="802" y="562">lio:is  </tspan>
<tspan x="802" y="577">foaf:depiction  D</tspan>
<tspan x="802" y="592">n51:Property:P180  D</tspan>
</text>
</g>
<g id="2002718000"><path d="M589,174 L808,174 "
style="fill:none;stroke-width:2;stroke:Fuchsia;"/>
<polygon points="599,179 589,174 599,169 "
style="fill:Silver;stroke-width:1;stroke:Black;"/>
<text style="font-family:Arial;font-size:12px;kerning:0;word-spacing:-1px;fill:Black;">
<tspan x="593" y="172"> </tspan>
</text>
</g>
<g id="2002718002"><path d="M740,931 L589,931 "
style="fill:none;stroke-width:2;stroke:Fuchsia;"/>
<polygon points="730,936 740,931 730,926 "
style="fill:Silver;stroke-width:1;stroke:Black;"/>
<text style="font-family:Arial;font-size:12px;kerning:0;word-spacing:-1px;fill:Black;">
<tspan x="726" y="944"> </tspan>
</text>
</g>
</svg>
