<?xml version="1.0" encoding="UTF-8" standalone="no"?>
<!DOCTYPE svg PUBLIC "-//W3C//DTD SVG 1.1//EN"
"http://www.w3.org/Graphics/SVG/1.1/DTD/svg11.dtd">
<svg version="1.1" xmlns="http://www.w3.org/2000/svg"
xmlns:xlink="http://www.w3.org/1999/xlink" xml:space="preserve"
 width="2043" height="1161" viewBox="0 0 2043 1161">
 onmousemove="movetip(evt)" onmouseup="endmove()">
<rect x="0" y="0" width="100%" height="100%" style="fill:White;"/>
<script type="application/ecmascript"> <![CDATA[
var dragtipid = null; var dragcase = false; function init(evt){
if (window.svgDocument==null) svgDocument = evt.target.ownerDocument;
}
function movetip(evt){if (dragtipid!=null){ dragcase = true;
var tip=svgDocument.getElementById(dragtipid);
tip.setAttributeNS(null,"x",evt.clientX-2);
tip.setAttributeNS(null,"y",evt.clientY-2);
}}
function endmove(){dragtipid = null;}
function startmove(evt,id){dragtipid = id; dragcase = false;
var tip=svgDocument.getElementById(dragtipid);
tip.setAttributeNS(null,"x",evt.clientX-2);
tip.setAttributeNS(null,"y",evt.clientY-2);
}
function Showtip(evt,id){ dragtipid = null;
var tip=svgDocument.getElementById(id);
var vis=tip.getAttributeNS(null,"visibility");
if (vis=="hidden"){
tip.setAttributeNS(null,"x",evt.clientX-2);
tip.setAttributeNS(null,"y",evt.clientY-2);
tip.setAttributeNS(null,"visibility","visible");
}}
function Hidetip(id){ dragtipid = null; if (dragcase==false){
var tip=svgDocument.getElementById(id);
tip.setAttributeNS(null,"visibility","hidden");
}}
]]></script>
<defs><linearGradient id="activ1" x1="0%" y1="0%" x2="100%" y2="0%">
<stop offset="0%" style="stop-color:#FFFF00;stop-opacity:1"/>
<stop offset="100%" style="stop-color:#FFFFF0;stop-opacity:1"/>
</linearGradient></defs>
<g id="2002735720"><polygon points="1732,1012 2032,1012 2032,1057 1732,1057 "
style="fill:#F4D03F; stroke-width:1;stroke:Black;"/>
<text style="font-family:Arial;font-size:12px;kerning:0;word-spacing:-1px;fill:Black;font-weight:bold;">
<tspan x="1839" y="1027">void:Linkset (2)</tspan>
</text>
<line x1="1736" y1="1030" x2="2030" y2="1030"
 style="stroke-width:1;stroke:Black;"/>
<text style="font-family:Arial;font-size:12px;kerning:0;word-spacing:-1px;fill:Black;">
<tspan x="1736" y="1042">pav:importedOn (2) [1] D</tspan>
</text>
</g>
<g id="2002735731"><polygon points="14,136 440,136 440,681 14,681 "
style="fill:#F4D03F; stroke-width:1;stroke:Black;"/>
<text style="font-family:Arial;font-size:12px;kerning:0;word-spacing:-1px;fill:Black;font-weight:bold;">
<tspan x="124" y="151">aop:AdverseOutcomePathway (465)</tspan>
</text>
<line x1="18" y1="154" x2="438" y2="154"
 style="stroke-width:1;stroke:Black;"/>
<text style="font-family:Arial;font-size:12px;kerning:0;word-spacing:-1px;fill:Black;">
<tspan x="18" y="166">aop:AopContext (140) [1] D</tspan>
<tspan x="18" y="181">aop:LifeStageContext (260) [*] </tspan>
<tspan x="18" y="196">aop:has_evidence (124) [1] D</tspan>
<tspan x="18" y="211">dc:creator (363) [1] D</tspan>
<tspan x="18" y="226">dc:description (533) [*] </tspan>
<tspan x="18" y="241">dc:identifier (465) [1]  -&gt;  obo:GO_0008150 et al.,aop:</tspan>
<tspan x="18" y="256">AdverseOutcomePathway..(6)</tspan>
<tspan x="18" y="271">dc:source (465) [1] </tspan>
<tspan x="18" y="286">dc:title (465) [*] </tspan>
<tspan x="18" y="301">dct:abstract (253) [1] D</tspan>
<tspan x="18" y="316">dct:accessRights (465) [1] D</tspan>
<tspan x="18" y="331">dct:alternative (465) [*] </tspan>
<tspan x="18" y="346">dct:created (465) [1] </tspan>
<tspan x="18" y="361">dct:modified (465) [1] </tspan>
<tspan x="18" y="376">edam:operation_3799 (110) [1] D</tspan>
<tspan x="18" y="391">foaf:page (465) [1]  -&gt;  aop:AdverseOutcomePathway,thes:C54571..(4)</tspan>
<tspan x="18" y="406">obo:PATO_0000047 (266) [*] </tspan>
<tspan x="18" y="421">rdf:type (465) [*]  -&gt; IRI</tspan>
<tspan x="18" y="436">rdfs:label (465) [1] </tspan>
<tspan x="18" y="451">rdfs:seeAlso (465) [1]  -&gt;  aop:AdverseOutcomePathway,aop:KeyEvent,aop:</tspan>
<tspan x="18" y="466">KeyEventRelationship</tspan>
<tspan x="18" y="481">thes:C25217 (125) [1] D</tspan>
<tspan x="18" y="496">thes:C25688 (428) [*] D</tspan>
<tspan x="18" y="511">thes:C25725 (98) [1] D</tspan>
<tspan x="18" y="526">thes:C48192 (130) [1] D</tspan>
<tspan x="18" y="541">&lt;- dc:identifier (465)  &lt;-  obo:GO_0008150 et al.,sio:CHEMINF_000409..(14)</tspan>
<tspan x="18" y="556">&lt;- dct:isPartOf (6119)  &lt;-  thes:C54571,sio:CHEMINF_000446 or sio:</tspan>
<tspan x="18" y="571">CHEMINF_000000..(4)</tspan>
<tspan x="18" y="586">&lt;- foaf:page (465)  &lt;-  aop:AdverseOutcomePathway,thes:C54571..(4)</tspan>
<tspan x="18" y="601">&lt;- rdfs:seeAlso (465)  &lt;-  aop:AdverseOutcomePathway,edam:data_2291..(4)</tspan>
</text>
</g>
<g id="2002735742"><polygon points="13,691 437,691 437,952 13,952 "
style="fill:#F4D03F; stroke-width:1;stroke:Black;"/>
<polygon points="10,694 434,694 434,955 10,955 "
style="fill:#F4D03F; stroke-width:1;stroke:Black;"/>
<text style="font-family:Arial;font-size:12px;kerning:0;word-spacing:-1px;fill:Black;font-weight:bold;">
<tspan x="51" y="709">sio:CHEMINF_000446 or sio:CHEMINF_000000 G101 (386)</tspan>
</text>
<line x1="14" y1="712" x2="432" y2="712"
 style="stroke-width:1;stroke:Black;"/>
<text style="font-family:Arial;font-size:12px;kerning:0;word-spacing:-1px;fill:Black;">
<tspan x="14" y="724">dc:identifier (386) [1]  -&gt;  obo:GO_0008150 et al.,aop:</tspan>
<tspan x="14" y="739">AdverseOutcomePathway..(6)</tspan>
<tspan x="14" y="754">dc:source (386) [1] </tspan>
<tspan x="14" y="769">dc:title (386) [*] </tspan>
<tspan x="14" y="784">dct:alternative (1.3e4) [*] </tspan>
<tspan x="14" y="799">dct:isPartOf (392) [*]  -&gt;  aop:AdverseOutcomePathway,thes:C54571</tspan>
<tspan x="14" y="814">rdf:type (772) [*]  -&gt; IRI</tspan>
<tspan x="14" y="829">sio:CHEMINF_000059 (370) [1] D -&gt; IRI</tspan>
<tspan x="14" y="844">sio:CHEMINF_000446 (386) [1] D</tspan>
<tspan x="14" y="859">sio:CHEMINF_000568 (386) [1] D -&gt; IRI</tspan>
<tspan x="14" y="874">&lt;- dc:identifier (386)  &lt;-  obo:GO_0008150 et al.,sio:CHEMINF_000409..(14)</tspan>
</text>
<text style="font-family:Arial;font-size:11px;kerning:0;word-spacing:-1px;fill:Black;font-weight:bold;">
<tspan x="14" y="889">sio:CHEMINF_000000 (386)</tspan>
<tspan x="14" y="904">sio:CHEMINF_000446 (386)</tspan>
</text>
</g>
<g id="2002735753"><polygon points="1732,662 2032,662 2032,742 1732,742 "
style="fill:#F4D03F; stroke-width:1;stroke:Black;"/>
<text style="font-family:Arial;font-size:12px;kerning:0;word-spacing:-1px;fill:Black;font-weight:bold;">
<tspan x="1802" y="677">sio:CHEMINF_000406 (209)</tspan>
</text>
<line x1="1736" y1="680" x2="2030" y2="680"
 style="stroke-width:1;stroke:Black;"/>
<text style="font-family:Arial;font-size:12px;kerning:0;word-spacing:-1px;fill:Black;">
<tspan x="1736" y="692">dc:identifier (209) [1] </tspan>
<tspan x="1736" y="707">dc:source (209) [1] </tspan>
<tspan x="1736" y="722">rdf:type (209) [*]  -&gt; IRI</tspan>
<tspan x="1736" y="737">sio:CHEMINF_000406 (209) [1] D</tspan>
</text>
</g>
<g id="2002735764"><polygon points="1266,174 1566,174 1566,584 1266,584 "
style="fill:#F4D03F; stroke-width:1;stroke:Black;"/>
<text style="font-family:Arial;font-size:12px;kerning:0;word-spacing:-1px;fill:Black;font-weight:bold;">
<tspan x="1357" y="189">aop:KeyEvent (1425)</tspan>
</text>
<line x1="1270" y1="192" x2="1564" y2="192"
 style="stroke-width:1;stroke:Black;"/>
<text style="font-family:Arial;font-size:12px;kerning:0;word-spacing:-1px;fill:Black;">
<tspan x="1270" y="204">aop:LifeStageContext (378) [*] </tspan>
<tspan x="1270" y="219">dc:description (506) [*] </tspan>
<tspan x="1270" y="234">dc:identifier (1425) [1]  -&gt;  obo:GO_0008150 et al.,</tspan>
<tspan x="1270" y="249">aop:AdverseOutcomePathway..(6)</tspan>
<tspan x="1270" y="264">dc:source (1425) [1] </tspan>
<tspan x="1270" y="279">dc:title (1425) [*] </tspan>
<tspan x="1270" y="294">dct:alternative (1425) [*] </tspan>
<tspan x="1270" y="309">dct:isPartOf (2935) [*]  -&gt;  aop:</tspan>
<tspan x="1270" y="324">AdverseOutcomePathway,thes:C54571</tspan>
<tspan x="1270" y="339">foaf:page (1425) [1]  -&gt;  aop:</tspan>
<tspan x="1270" y="354">AdverseOutcomePathway,thes:C54571..(4)</tspan>
<tspan x="1270" y="369">obo:MMO_0000000 (468) [1] D</tspan>
<tspan x="1270" y="384">obo:PATO_0000001 (826) [*] D</tspan>
<tspan x="1270" y="399">obo:PATO_0000047 (366) [*] </tspan>
<tspan x="1270" y="414">rdf:type (1425) [*]  -&gt; IRI</tspan>
<tspan x="1270" y="429">rdfs:label (1425) [1] </tspan>
<tspan x="1270" y="444">rdfs:seeAlso (1425) [1]  -&gt;  aop:</tspan>
<tspan x="1270" y="459">AdverseOutcomePathway,aop:KeyEvent,aop:</tspan>
<tspan x="1270" y="474">KeyEventRelationship</tspan>
<tspan x="1270" y="489">thes:C25664 (1425) [1] D</tspan>
<tspan x="1270" y="504">&lt;- dc:identifier (1425)  &lt;-  obo:GO_0008150 et al.,sio:</tspan>
<tspan x="1270" y="519">CHEMINF_000409..(14)</tspan>
<tspan x="1270" y="534">&lt;- foaf:page (1425)  &lt;-  aop:AdverseOutcomePathway,</tspan>
<tspan x="1270" y="549">thes:C54571..(4)</tspan>
<tspan x="1270" y="564">&lt;- rdfs:seeAlso (1425)  &lt;-  aop:</tspan>
<tspan x="1270" y="579">AdverseOutcomePathway,edam:data_2291..(4)</tspan>
</text>
</g>
<g id="2002735775"><polygon points="670,796 927,796 927,876 670,876 "
style="fill:#F4D03F; stroke-width:1;stroke:Black;"/>
<text style="font-family:Arial;font-size:12px;kerning:0;word-spacing:-1px;fill:Black;font-weight:bold;">
<tspan x="718" y="811">sio:CHEMINF_000407 (788)</tspan>
</text>
<line x1="674" y1="814" x2="925" y2="814"
 style="stroke-width:1;stroke:Black;"/>
<text style="font-family:Arial;font-size:12px;kerning:0;word-spacing:-1px;fill:Black;">
<tspan x="674" y="826">dc:identifier (788) [1] </tspan>
<tspan x="674" y="841">dc:source (788) [1] </tspan>
<tspan x="674" y="856">rdf:type (788) [*]  -&gt; IRI</tspan>
<tspan x="674" y="871">sio:CHEMINF_000407 (788) [1] D</tspan>
</text>
</g>
<g id="2002735786"><polygon points="1601,65 2032,65 2032,358 1601,358 "
style="fill:White; stroke-width:1;stroke:Black;"/>
<text style="font-family:Arial;font-size:12px;kerning:0;word-spacing:-1px;fill:Black;">
<tspan x="1605" y="79">PREFIX virtrdf: &lt;http://www.openlinksw.com/schemas/virtrdf#&gt;</tspan>
<tspan x="1605" y="94">PREFIX sio: &lt;http://semanticscience.org/resource/&gt;</tspan>
<tspan x="1605" y="109">PREFIX aop: &lt;http://aopkb.org/aop_ontology#&gt;</tspan>
<tspan x="1605" y="124">PREFIX edam: &lt;http://edamontology.org/&gt;</tspan>
<tspan x="1605" y="139">PREFIX thes: &lt;http://ncicb.nci.nih.gov/xml/owl/EVS/Thesaurus.owl#&gt;</tspan>
<tspan x="1605" y="154">PREFIX obo: &lt;http://purl.obolibrary.org/obo/&gt;</tspan>
<tspan x="1605" y="169">PREFIX dct: &lt;http://purl.org/dc/terms/&gt;</tspan>
<tspan x="1605" y="184">PREFIX dc: &lt;http://purl.org/dc/elements/1.1/&gt;</tspan>
<tspan x="1605" y="199">PREFIX sd: &lt;http://www.w3.org/ns/sparql-service-description#&gt;</tspan>
<tspan x="1605" y="214">PREFIX pav: &lt;http://purl.org/pav/&gt;</tspan>
<tspan x="1605" y="229">PREFIX void: &lt;http://rdfs.org/ns/void#&gt;</tspan>
<tspan x="1605" y="244">PREFIX rdfs: &lt;http://www.w3.org/2000/01/rdf-schema#&gt;</tspan>
<tspan x="1605" y="259">PREFIX foaf: &lt;http://xmlns.com/foaf/0.1/&gt;</tspan>
<tspan x="1605" y="274">PREFIX ncbix-13: &lt;http://purl.bioontology.org/ontology/NCBITAXON/131567&gt;</tspan>
<tspan x="1605" y="289">PREFIX rdf: &lt;http://www.w3.org/1999/02/22-rdf-syntax-ns#&gt;</tspan>
<tspan x="1605" y="304">PREFIX skos: &lt;http://www.w3.org/2004/02/skos/core#&gt;</tspan>
<tspan x="1605" y="319">PREFIX ncbix: &lt;http://purl.bioontology.org/ontology/NCBITAXON/&gt;</tspan>
<tspan x="1605" y="334">PREFIX owl: &lt;http://www.w3.org/2002/07/owl#&gt;</tspan>
<tspan x="1605" y="349">PREFIX dcat: &lt;http://www.w3.org/ns/dcat#&gt;</tspan>
</text>
</g>
<g id="2002735797"><polygon points="1732,470 2032,470 2032,550 1732,550 "
style="fill:#F4D03F; stroke-width:1;stroke:Black;"/>
<text style="font-family:Arial;font-size:12px;kerning:0;word-spacing:-1px;fill:Black;font-weight:bold;">
<tspan x="1802" y="485">sio:CHEMINF_000409 (300)</tspan>
</text>
<line x1="1736" y1="488" x2="2030" y2="488"
 style="stroke-width:1;stroke:Black;"/>
<text style="font-family:Arial;font-size:12px;kerning:0;word-spacing:-1px;fill:Black;">
<tspan x="1736" y="500">dc:identifier (300) [1] </tspan>
<tspan x="1736" y="515">dc:source (300) [1] </tspan>
<tspan x="1736" y="530">rdf:type (300) [*]  -&gt; IRI</tspan>
<tspan x="1736" y="545">sio:CHEMINF_000409 (300) [1] D</tspan>
</text>
</g>
<g id="2002735808"><polygon points="1732,853 2032,853 2032,993 1732,993 "
style="fill:#F4D03F; stroke-width:1;stroke:Black;"/>
<text style="font-family:Arial;font-size:12px;kerning:0;word-spacing:-1px;fill:Black;font-weight:bold;">
<tspan x="1838" y="868">void:Dataset (4)</tspan>
</text>
<line x1="1736" y1="871" x2="2030" y2="871"
 style="stroke-width:1;stroke:Black;"/>
<text style="font-family:Arial;font-size:12px;kerning:0;word-spacing:-1px;fill:Black;">
<tspan x="1736" y="883">dc:description (4) [*] </tspan>
<tspan x="1736" y="898">dct:accuralPeriodicity (2) [1] D -&gt; IRI</tspan>
<tspan x="1736" y="913">dct:modified (1) [1] </tspan>
<tspan x="1736" y="928">foaf:homepage (2) [1] D -&gt; IRI</tspan>
<tspan x="1736" y="943">pav:createdBy (2) [1] D -&gt; IRI</tspan>
<tspan x="1736" y="958">pav:createdOn (2) [1] D</tspan>
<tspan x="1736" y="973">pav:createdWith (4 50%d) [*] D -&gt; IRI</tspan>
<tspan x="1736" y="988">rdf:type (6) [*]  -&gt; IRI</tspan>
</text>
</g>
<g id="2002735819"><polygon points="648,447 948,447 948,737 648,737 "
style="fill:#F4D03F; stroke-width:1;stroke:Black;"/>
<text style="font-family:Arial;font-size:12px;kerning:0;word-spacing:-1px;fill:Black;font-weight:bold;">
<tspan x="746" y="462">thes:C54571 (652)</tspan>
</text>
<line x1="652" y1="465" x2="946" y2="465"
 style="stroke-width:1;stroke:Black;"/>
<text style="font-family:Arial;font-size:12px;kerning:0;word-spacing:-1px;fill:Black;">
<tspan x="652" y="477">dc:description (16) [*] </tspan>
<tspan x="652" y="492">dc:identifier (652) [1]  -&gt;  obo:GO_0008150 et al.,aop:</tspan>
<tspan x="652" y="507">AdverseOutcomePathway..(6)</tspan>
<tspan x="652" y="522">dc:title (652) [*] </tspan>
<tspan x="652" y="537">dct:created (652) [1] </tspan>
<tspan x="652" y="552">dct:isPartOf (574) [*]  -&gt;  aop:</tspan>
<tspan x="652" y="567">AdverseOutcomePathway,thes:C54571</tspan>
<tspan x="652" y="582">dct:modified (652) [1] </tspan>
<tspan x="652" y="597">foaf:page (652) [1]  -&gt;  aop:AdverseOutcomePathway,</tspan>
<tspan x="652" y="612">thes:C54571..(4)</tspan>
<tspan x="652" y="627">rdf:type (652) [*]  -&gt; IRI</tspan>
<tspan x="652" y="642">rdfs:label (652) [1] </tspan>
<tspan x="652" y="657">&lt;- dc:identifier (652)  &lt;-  obo:GO_0008150 et al.,sio:</tspan>
<tspan x="652" y="672">CHEMINF_000409..(14)</tspan>
<tspan x="652" y="687">&lt;- dct:isPartOf (392)  &lt;-  thes:C54571,sio:CHEMINF_</tspan>
<tspan x="652" y="702">000446 or sio:CHEMINF_000000..(4)</tspan>
<tspan x="652" y="717">&lt;- foaf:page (652)  &lt;-  aop:AdverseOutcomePathway,</tspan>
<tspan x="652" y="732">thes:C54571..(4)</tspan>
</text>
</g>
<g id="2002735830"><polygon points="832,1044 1033,1044 1033,1089 832,1089 "
style="fill:#F4D03F; stroke-width:1;stroke:Black;"/>
<text style="font-family:Arial;font-size:12px;kerning:0;word-spacing:-1px;fill:Black;font-weight:bold;">
<tspan x="865" y="1059">edam:data_1027 (1462)</tspan>
</text>
<line x1="836" y1="1062" x2="1031" y2="1062"
 style="stroke-width:1;stroke:Black;"/>
<text style="font-family:Arial;font-size:12px;kerning:0;word-spacing:-1px;fill:Black;">
<tspan x="836" y="1074">edam:data_1027 (1462) [1] D</tspan>
</text>
</g>
<g id="2002735841"><polygon points="1251,1008 1551,1008 1551,1088 1251,1088 "
style="fill:#F4D03F; stroke-width:1;stroke:Black;"/>
<text style="font-family:Arial;font-size:12px;kerning:0;word-spacing:-1px;fill:Black;font-weight:bold;">
<tspan x="1321" y="1023">sio:CHEMINF_000412 (330)</tspan>
</text>
<line x1="1255" y1="1026" x2="1549" y2="1026"
 style="stroke-width:1;stroke:Black;"/>
<text style="font-family:Arial;font-size:12px;kerning:0;word-spacing:-1px;fill:Black;">
<tspan x="1255" y="1038">dc:identifier (330) [1] </tspan>
<tspan x="1255" y="1053">dc:source (330) [1] </tspan>
<tspan x="1255" y="1068">rdf:type (330) [*]  -&gt; IRI</tspan>
<tspan x="1255" y="1083">sio:CHEMINF_000412 (330) [1] D</tspan>
</text>
</g>
<g id="2002735852"><polygon points="1732,758 2032,758 2032,838 1732,838 "
style="fill:#F4D03F; stroke-width:1;stroke:Black;"/>
<text style="font-family:Arial;font-size:12px;kerning:0;word-spacing:-1px;fill:Black;font-weight:bold;">
<tspan x="1843" y="773">sd:Service (1)</tspan>
</text>
<line x1="1736" y1="776" x2="2030" y2="776"
 style="stroke-width:1;stroke:Black;"/>
<text style="font-family:Arial;font-size:12px;kerning:0;word-spacing:-1px;fill:Black;">
<tspan x="1736" y="788">rdf:type (1) [*]  -&gt; IRI</tspan>
<tspan x="1736" y="803">sd:endpoint (1) [1] D -&gt; IRI</tspan>
<tspan x="1736" y="818">sd:resultFormat (2) [*] D -&gt; IRI</tspan>
<tspan x="1736" y="833">sd:supportedLanguage (1) [1] D -&gt; IRI</tspan>
</text>
</g>
<g id="2002735863"><polygon points="1732,374 2032,374 2032,454 1732,454 "
style="fill:#F4D03F; stroke-width:1;stroke:Black;"/>
<text style="font-family:Arial;font-size:12px;kerning:0;word-spacing:-1px;fill:Black;font-weight:bold;">
<tspan x="1806" y="389">sio:CHEMINF_000564 (34)</tspan>
</text>
<line x1="1736" y1="392" x2="2030" y2="392"
 style="stroke-width:1;stroke:Black;"/>
<text style="font-family:Arial;font-size:12px;kerning:0;word-spacing:-1px;fill:Black;">
<tspan x="1736" y="404">dc:identifier (34) [1] </tspan>
<tspan x="1736" y="419">dc:source (34) [1] </tspan>
<tspan x="1736" y="434">rdf:type (34) [*]  -&gt; IRI</tspan>
<tspan x="1736" y="449">sio:CHEMINF_000564 (34) [1] D</tspan>
</text>
</g>
<g id="2002735874"><polygon points="691,905 906,905 906,970 691,970 "
style="fill:#F4D03F; stroke-width:1;stroke:Black;"/>
<text style="font-family:Arial;font-size:12px;kerning:0;word-spacing:-1px;fill:Black;font-weight:bold;">
<tspan x="729" y="920">edam:data_1025 (1.2e4)</tspan>
</text>
<line x1="695" y1="923" x2="904" y2="923"
 style="stroke-width:1;stroke:Black;"/>
<text style="font-family:Arial;font-size:12px;kerning:0;word-spacing:-1px;fill:Black;">
<tspan x="695" y="935">dc:identifier (1.2e4) [1] </tspan>
<tspan x="695" y="950">dc:source (1.2e4) [1] </tspan>
<tspan x="695" y="965">rdf:type (2.4e4) [*]  -&gt; IRI</tspan>
</text>
</g>
<g id="2002735885"><polygon points="959,743 1212,743 1212,788 959,788 "
style="fill:#F4D03F; stroke-width:1;stroke:Black;"/>
<text style="font-family:Arial;font-size:12px;kerning:0;word-spacing:-1px;fill:Black;font-weight:bold;">
<tspan x="1018" y="758">edam:data_2298 (1561)</tspan>
</text>
<line x1="963" y1="761" x2="1210" y2="761"
 style="stroke-width:1;stroke:Black;"/>
<text style="font-family:Arial;font-size:12px;kerning:0;word-spacing:-1px;fill:Black;">
<tspan x="963" y="773">edam:data_2298 (1561) [1] D</tspan>
</text>
</g>
<g id="2002735896"><polygon points="1733,1071 2033,1071 2033,1151 1733,1151 "
style="fill:#F4D03F; stroke-width:1;stroke:Black;"/>
<text style="font-family:Arial;font-size:12px;kerning:0;word-spacing:-1px;fill:Black;font-weight:bold;">
<tspan x="1803" y="1086">sio:CHEMINF_000567 (397)</tspan>
</text>
<line x1="1737" y1="1089" x2="2031" y2="1089"
 style="stroke-width:1;stroke:Black;"/>
<text style="font-family:Arial;font-size:12px;kerning:0;word-spacing:-1px;fill:Black;">
<tspan x="1737" y="1101">dc:identifier (397) [1] </tspan>
<tspan x="1737" y="1116">dc:source (397) [1] </tspan>
<tspan x="1737" y="1131">rdf:type (397) [*]  -&gt; IRI</tspan>
<tspan x="1737" y="1146">sio:CHEMINF_000567 (397) [1] D</tspan>
</text>
</g>
<g id="2002735907"><polygon points="381,1047 576,1047 576,1092 381,1092 "
style="fill:#F4D03F; stroke-width:1;stroke:Black;"/>
<text style="font-family:Arial;font-size:12px;kerning:0;word-spacing:-1px;fill:Black;font-weight:bold;">
<tspan x="411" y="1062">edam:data_1033 (1423)</tspan>
</text>
<line x1="385" y1="1065" x2="574" y2="1065"
 style="stroke-width:1;stroke:Black;"/>
<text style="font-family:Arial;font-size:12px;kerning:0;word-spacing:-1px;fill:Black;">
<tspan x="385" y="1077">edam:data_1033 (1423) [1] D</tspan>
</text>
</g>
<g id="2002735918"><polygon points="603,1000 814,1000 814,1095 603,1095 "
style="fill:#F4D03F; stroke-width:1;stroke:Black;"/>
<text style="font-family:Arial;font-size:12px;kerning:0;word-spacing:-1px;fill:Black;font-weight:bold;">
<tspan x="641" y="1015">edam:data_2291 (7575)</tspan>
</text>
<line x1="607" y1="1018" x2="812" y2="1018"
 style="stroke-width:1;stroke:Black;"/>
<text style="font-family:Arial;font-size:12px;kerning:0;word-spacing:-1px;fill:Black;">
<tspan x="607" y="1030">edam:data_2291 (7575) [1] D</tspan>
<tspan x="607" y="1045">owl:sameAs (511) [1] D -&gt; IRI</tspan>
<tspan x="607" y="1060">rdfs:seeAlso (511) [1]  -&gt;  aop:</tspan>
<tspan x="607" y="1075">AdverseOutcomePathway,aop:</tspan>
<tspan x="607" y="1090">KeyEvent,aop:KeyEventRelationship</tspan>
</text>
</g>
<g id="2002735929"><polygon points="1732,566 2032,566 2032,646 1732,646 "
style="fill:#F4D03F; stroke-width:1;stroke:Black;"/>
<text style="font-family:Arial;font-size:12px;kerning:0;word-spacing:-1px;fill:Black;font-weight:bold;">
<tspan x="1802" y="581">sio:CHEMINF_000408 (407)</tspan>
</text>
<line x1="1736" y1="584" x2="2030" y2="584"
 style="stroke-width:1;stroke:Black;"/>
<text style="font-family:Arial;font-size:12px;kerning:0;word-spacing:-1px;fill:Black;">
<tspan x="1736" y="596">dc:identifier (407) [1] </tspan>
<tspan x="1736" y="611">dc:source (407) [1] </tspan>
<tspan x="1736" y="626">rdf:type (407) [*]  -&gt; IRI</tspan>
<tspan x="1736" y="641">sio:CHEMINF_000408 (407) [1] D</tspan>
</text>
</g>
<g id="2002735940"><polygon points="650,75 950,75 950,440 650,440 "
style="fill:#F4D03F; stroke-width:1;stroke:Black;"/>
<text style="font-family:Arial;font-size:12px;kerning:0;word-spacing:-1px;fill:Black;font-weight:bold;">
<tspan x="705" y="90">aop:KeyEventRelationship (1951)</tspan>
</text>
<line x1="654" y1="93" x2="948" y2="93"
 style="stroke-width:1;stroke:Black;"/>
<text style="font-family:Arial;font-size:12px;kerning:0;word-spacing:-1px;fill:Black;">
<tspan x="654" y="105">dc:description (578) [*] </tspan>
<tspan x="654" y="120">dc:identifier (1951) [1]  -&gt;  obo:GO_0008150 et al.,</tspan>
<tspan x="654" y="135">aop:AdverseOutcomePathway..(6)</tspan>
<tspan x="654" y="150">dct:created (1951) [1] </tspan>
<tspan x="654" y="165">dct:isPartOf (2610) [*]  -&gt;  aop:</tspan>
<tspan x="654" y="180">AdverseOutcomePathway,thes:C54571</tspan>
<tspan x="654" y="195">dct:modified (1951) [1] </tspan>
<tspan x="654" y="210">edam:data_2042 (550) [1] D</tspan>
<tspan x="654" y="225">foaf:page (1951) [1]  -&gt;  aop:</tspan>
<tspan x="654" y="240">AdverseOutcomePathway,thes:C54571..(4)</tspan>
<tspan x="654" y="255">rdf:type (1951) [*]  -&gt; IRI</tspan>
<tspan x="654" y="270">rdfs:label (1951) [1] </tspan>
<tspan x="654" y="285">rdfs:seeAlso (1951) [1]  -&gt;  aop:</tspan>
<tspan x="654" y="300">AdverseOutcomePathway,aop:KeyEvent,aop:</tspan>
<tspan x="654" y="315">KeyEventRelationship</tspan>
<tspan x="654" y="330">thes:C71478 (481) [1] D</tspan>
<tspan x="654" y="345">thes:C80263 (563) [1] D</tspan>
<tspan x="654" y="360">&lt;- dc:identifier (1951)  &lt;-  obo:GO_0008150 et al.,sio:</tspan>
<tspan x="654" y="375">CHEMINF_000409..(14)</tspan>
<tspan x="654" y="390">&lt;- foaf:page (1951)  &lt;-  aop:AdverseOutcomePathway,</tspan>
<tspan x="654" y="405">thes:C54571..(4)</tspan>
<tspan x="654" y="420">&lt;- rdfs:seeAlso (1951)  &lt;-  aop:</tspan>
<tspan x="654" y="435">AdverseOutcomePathway,edam:data_2291..(4)</tspan>
</text>
</g>
<g id="2002735951"><polygon points="1250,778 1550,778 1550,978 1250,978 "
style="fill:#F4D03F; stroke-width:1;stroke:Black;"/>
<polygon points="1247,781 1547,781 1547,981 1247,981 "
style="fill:#F4D03F; stroke-width:1;stroke:Black;"/>
<text style="font-family:Arial;font-size:12px;kerning:0;word-spacing:-1px;fill:Black;font-weight:bold;">
<tspan x="1293" y="796">obo:GO_0008150 et al. G102 (1196)</tspan>
</text>
<line x1="1251" y1="799" x2="1545" y2="799"
 style="stroke-width:1;stroke:Black;"/>
<text style="font-family:Arial;font-size:12px;kerning:0;word-spacing:-1px;fill:Black;">
<tspan x="1251" y="811">dc:identifier (1196) [1]  -&gt;  obo:GO_0008150 et al.,</tspan>
<tspan x="1251" y="826">aop:AdverseOutcomePathway..(6)</tspan>
<tspan x="1251" y="841">dc:source (1196) [1] </tspan>
<tspan x="1251" y="856">dc:title (1233) [*] </tspan>
<tspan x="1251" y="871">rdf:type (1304) [*]  -&gt; IRI</tspan>
<tspan x="1251" y="886">&lt;- dc:identifier (1196)  &lt;-  obo:GO_0008150 et al.,sio:</tspan>
<tspan x="1251" y="901">CHEMINF_000409..(14)</tspan>
</text>
<text style="font-family:Arial;font-size:11px;kerning:0;word-spacing:-1px;fill:Black;font-weight:bold;">
<tspan x="1251" y="916">aop:CellTypeContext (67)</tspan>
<tspan x="1251" y="931">aop:OrganContext (81)</tspan>
<tspan x="1251" y="946">ncbix-13: (164)</tspan>
<tspan x="1251" y="961">obo:GO_0008150 (453)</tspan>
<tspan x="1251" y="976">obo:PATO_0001241 (431)</tspan>
</text>
</g>
<g id="2002735585"><path d="M440,564 L648,564 "
style="fill:none;stroke-width:1;stroke:Black;"/>
<line x1="642" y1="561" x2="648" y2="564"
 style="stroke-width:1;stroke:Black;"/>
<line x1="642" y1="567" x2="648" y2="564"
 style="stroke-width:1;stroke:Black;"/>
<text style="font-family:Arial;font-size:12px;kerning:0;word-spacing:-1px;fill:Black;">
<tspan x="444" y="562">thes:C54571  DR</tspan>
</text>
</g>
<g id="2002735590"><path d="M1247,858 L927,858 "
style="fill:none;stroke-width:1;stroke:Black;"/>
<line x1="933" y1="855" x2="927" y2="858"
 style="stroke-width:1;stroke:Black;"/>
<line x1="933" y1="861" x2="927" y2="858"
 style="stroke-width:1;stroke:Black;"/>
<text style="font-family:Arial;font-size:12px;kerning:0;word-spacing:-1px;fill:Black;">
<tspan x="1147" y="871">skos:exactMatch  </tspan>
</text>
</g>
<g id="2002735600"><path d="M1115,788 L1115,938 1113,942 1109,944 906,944 "
style="fill:none;stroke-width:1;stroke:Black;"/>
<line x1="912" y1="941" x2="906" y2="944"
 style="stroke-width:1;stroke:Black;"/>
<line x1="912" y1="947" x2="906" y2="944"
 style="stroke-width:1;stroke:Black;"/>
<text style="font-family:Arial;font-size:12px;kerning:0;word-spacing:-1px;fill:Black;">
<tspan x="1117" y="803">skos:exactMatch  </tspan>
</text>
</g>
<g id="2002735610"><path d="M972,788 L972,830 970,834 966,836 927,836 "
style="fill:none;stroke-width:1;stroke:Black;"/>
<line x1="933" y1="833" x2="927" y2="836"
 style="stroke-width:1;stroke:Black;"/>
<line x1="933" y1="839" x2="927" y2="836"
 style="stroke-width:1;stroke:Black;"/>
<text style="font-family:Arial;font-size:12px;kerning:0;word-spacing:-1px;fill:Black;">
<tspan x="974" y="803">skos:exactMatch  </tspan>
</text>
</g>
<g id="2002735620"><path d="M950,322 L1065,322 1069,324 1071,328 1071,743 "
style="fill:none;stroke-width:1;stroke:Black;"/>
<line x1="1068" y1="737" x2="1071" y2="743"
 style="stroke-width:1;stroke:Black;"/>
<line x1="1074" y1="737" x2="1071" y2="743"
 style="stroke-width:1;stroke:Black;"/>
<text style="font-family:Arial;font-size:12px;kerning:0;word-spacing:-1px;fill:Black;">
<tspan x="954" y="320">edam:data_1025  R</tspan>
</text>
</g>
<g id="2002735630"><path d="M950,251 L1266,251 "
style="fill:none;stroke-width:1;stroke:Black;"/>
<line x1="1260" y1="248" x2="1266" y2="251"
 style="stroke-width:1;stroke:Black;"/>
<line x1="1260" y1="254" x2="1266" y2="251"
 style="stroke-width:1;stroke:Black;"/>
<text style="font-family:Arial;font-size:12px;kerning:0;word-spacing:-1px;fill:Black;">
<tspan x="954" y="234">aop:has_upstream_key_event  DR</tspan>
<tspan x="954" y="249">aop:has_downstream_key_event  DR</tspan>
</text>
</g>
<g id="2002735645"><path d="M1894,993 L1894,1012 "
style="fill:none;stroke-width:1;stroke:Black;"/>
<line x1="1891" y1="1006" x2="1894" y2="1012"
 style="stroke-width:1;stroke:Black;"/>
<line x1="1897" y1="1006" x2="1894" y2="1012"
 style="stroke-width:1;stroke:Black;"/>
<text style="font-family:Arial;font-size:12px;kerning:0;word-spacing:-1px;fill:Black;">
<tspan x="1896" y="1008">dcat:downloadURL  D</tspan>
</text>
</g>
<g id="2002735655"><path d="M320,136 L320,72 322,68 326,66 1413,66 1417,68 1419,72 1419,174 "
style="fill:none;stroke-width:1;stroke:Black;"/>
<line x1="1416" y1="168" x2="1419" y2="174"
 style="stroke-width:1;stroke:Black;"/>
<line x1="1422" y1="168" x2="1419" y2="174"
 style="stroke-width:1;stroke:Black;"/>
<text style="font-family:Arial;font-size:12px;kerning:0;word-spacing:-1px;fill:Black;">
<tspan x="98" y="102">aop:has_key_event  DR</tspan>
<tspan x="98" y="117">aop:has_adverse_outcome  DR</tspan>
<tspan x="98" y="132">aop:has_molecular_initiating_event  DR</tspan>
</text>
</g>
<g id="2002735660"><path d="M434,933 L691,933 "
style="fill:none;stroke-width:1;stroke:Black;"/>
<line x1="685" y1="930" x2="691" y2="933"
 style="stroke-width:1;stroke:Black;"/>
<line x1="685" y1="936" x2="691" y2="933"
 style="stroke-width:1;stroke:Black;"/>
<text style="font-family:Arial;font-size:12px;kerning:0;word-spacing:-1px;fill:Black;">
<tspan x="438" y="931">skos:exactMatch  </tspan>
</text>
</g>
<g id="2002735665"><path d="M1247,955 L906,955 "
style="fill:none;stroke-width:1;stroke:Black;"/>
<line x1="912" y1="952" x2="906" y2="955"
 style="stroke-width:1;stroke:Black;"/>
<line x1="912" y1="958" x2="906" y2="955"
 style="stroke-width:1;stroke:Black;"/>
<text style="font-family:Arial;font-size:12px;kerning:0;word-spacing:-1px;fill:Black;">
<tspan x="1147" y="968">skos:exactMatch  </tspan>
</text>
</g>
<g id="2002735675"><path d="M1466,584 L1466,781 "
style="fill:none;stroke-width:1;stroke:Black;"/>
<line x1="1463" y1="775" x2="1466" y2="781"
 style="stroke-width:1;stroke:Black;"/>
<line x1="1469" y1="775" x2="1466" y2="781"
 style="stroke-width:1;stroke:Black;"/>
<text style="font-family:Arial;font-size:12px;kerning:0;word-spacing:-1px;fill:Black;">
<tspan x="1468" y="599">ncbix:131567  D</tspan>
<tspan x="1468" y="614">obo:GO_0008150  DR</tspan>
<tspan x="1468" y="629">obo:PATO_0001241  D</tspan>
<tspan x="1468" y="644">aop:CellTypeContext  D</tspan>
<tspan x="1468" y="659">aop:OrganContext  D</tspan>
</text>
</g>
<g id="2002735685"><path d="M1347,584 L1347,756 1345,760 1341,762 1212,762 "
style="fill:none;stroke-width:1;stroke:Black;"/>
<line x1="1218" y1="759" x2="1212" y2="762"
 style="stroke-width:1;stroke:Black;"/>
<line x1="1218" y1="765" x2="1212" y2="762"
 style="stroke-width:1;stroke:Black;"/>
<text style="font-family:Arial;font-size:12px;kerning:0;word-spacing:-1px;fill:Black;">
<tspan x="1349" y="599">edam:data_1025  R</tspan>
</text>
</g>
<g id="2002735690"><path d="M434,836 L670,836 "
style="fill:none;stroke-width:1;stroke:Black;"/>
<line x1="664" y1="833" x2="670" y2="836"
 style="stroke-width:1;stroke:Black;"/>
<line x1="664" y1="839" x2="670" y2="836"
 style="stroke-width:1;stroke:Black;"/>
<text style="font-family:Arial;font-size:12px;kerning:0;word-spacing:-1px;fill:Black;">
<tspan x="438" y="834">skos:exactMatch  </tspan>
</text>
</g>
<g id="2002735695"><path d="M648,715 L434,715 "
style="fill:none;stroke-width:1;stroke:Black;"/>
<line x1="440" y1="712" x2="434" y2="715"
 style="stroke-width:1;stroke:Black;"/>
<line x1="440" y1="718" x2="434" y2="715"
 style="stroke-width:1;stroke:Black;"/>
<text style="font-family:Arial;font-size:12px;kerning:0;word-spacing:-1px;fill:Black;">
<tspan x="492" y="728">aop:has_chemical_entity  D</tspan>
</text>
</g>
<g id="2002735700"><path d="M440,307 L650,307 "
style="fill:none;stroke-width:1;stroke:Black;"/>
<line x1="644" y1="304" x2="650" y2="307"
 style="stroke-width:1;stroke:Black;"/>
<line x1="644" y1="310" x2="650" y2="307"
 style="stroke-width:1;stroke:Black;"/>
<text style="font-family:Arial;font-size:12px;kerning:0;word-spacing:-1px;fill:Black;">
<tspan x="444" y="305">aop:has_key_event_relationship  DR</tspan>
</text>
</g>
<g id="2002735710"><path d="M869,970 L869,1044 "
style="fill:none;stroke-width:2;stroke:Fuchsia;"/>
<polygon points="874,980 869,970 864,980 "
style="fill:Silver;stroke-width:1;stroke:Black;"/>
<text style="font-family:Arial;font-size:12px;kerning:0;word-spacing:-1px;fill:Black;">
<tspan x="871" y="985"> </tspan>
</text>
</g>
<g id="2002735712"><path d="M691,949 L522,949 518,951 516,955 516,1047 "
style="fill:none;stroke-width:2;stroke:Fuchsia;"/>
<polygon points="681,954 691,949 681,944 "
style="fill:Silver;stroke-width:1;stroke:Black;"/>
<text style="font-family:Arial;font-size:12px;kerning:0;word-spacing:-1px;fill:Black;">
<tspan x="677" y="962"> </tspan>
</text>
</g>
<g id="2002735714"><path d="M752,970 L752,1000 "
style="fill:none;stroke-width:2;stroke:Fuchsia;"/>
<polygon points="757,980 752,970 747,980 "
style="fill:Silver;stroke-width:1;stroke:Black;"/>
<text style="font-family:Arial;font-size:12px;kerning:0;word-spacing:-1px;fill:Black;">
<tspan x="754" y="985"> </tspan>
</text>
</g>
<g id="2002735716"><path d="M906,922 L1077,922 1081,920 1083,916 1083,788 "
style="fill:none;stroke-width:2;stroke:Fuchsia;"/>
<polygon points="916,927 906,922 916,917 "
style="fill:Silver;stroke-width:1;stroke:Black;"/>
<text style="font-family:Arial;font-size:12px;kerning:0;word-spacing:-1px;fill:Black;">
<tspan x="910" y="920"> </tspan>
</text>
</g>
<g id="2002735718"><path d="M1874,993 L1874,1012 "
style="fill:none;stroke-width:2;stroke:Fuchsia;"/>
<polygon points="1879,1003 1874,993 1869,1003 "
style="fill:Silver;stroke-width:1;stroke:Black;"/>
<text style="font-family:Arial;font-size:12px;kerning:0;word-spacing:-1px;fill:Black;">
<tspan x="1876" y="1008"> </tspan>
</text>
</g>
</svg>
