<?xml version="1.0" encoding="UTF-8" standalone="no"?>
<!DOCTYPE svg PUBLIC "-//W3C//DTD SVG 1.1//EN"
"http://www.w3.org/Graphics/SVG/1.1/DTD/svg11.dtd">
<svg version="1.1" xmlns="http://www.w3.org/2000/svg"
xmlns:xlink="http://www.w3.org/1999/xlink" xml:space="preserve"
 width="1067" height="547" viewBox="0 0 1067 547">
 onmousemove="movetip(evt)" onmouseup="endmove()">
<rect x="0" y="0" width="100%" height="100%" style="fill:White;"/>
<script type="application/ecmascript"> <![CDATA[
var dragtipid = null; var dragcase = false; function init(evt){
if (window.svgDocument==null) svgDocument = evt.target.ownerDocument;
}
function movetip(evt){if (dragtipid!=null){ dragcase = true;
var tip=svgDocument.getElementById(dragtipid);
tip.setAttributeNS(null,"x",evt.clientX-2);
tip.setAttributeNS(null,"y",evt.clientY-2);
}}
function endmove(){dragtipid = null;}
function startmove(evt,id){dragtipid = id; dragcase = false;
var tip=svgDocument.getElementById(dragtipid);
tip.setAttributeNS(null,"x",evt.clientX-2);
tip.setAttributeNS(null,"y",evt.clientY-2);
}
function Showtip(evt,id){ dragtipid = null;
var tip=svgDocument.getElementById(id);
var vis=tip.getAttributeNS(null,"visibility");
if (vis=="hidden"){
tip.setAttributeNS(null,"x",evt.clientX-2);
tip.setAttributeNS(null,"y",evt.clientY-2);
tip.setAttributeNS(null,"visibility","visible");
}}
function Hidetip(id){ dragtipid = null; if (dragcase==false){
var tip=svgDocument.getElementById(id);
tip.setAttributeNS(null,"visibility","hidden");
}}
]]></script>
<defs><linearGradient id="activ1" x1="0%" y1="0%" x2="100%" y2="0%">
<stop offset="0%" style="stop-color:#FFFF00;stop-opacity:1"/>
<stop offset="100%" style="stop-color:#FFFFF0;stop-opacity:1"/>
</linearGradient></defs>
<g id="2002711510"><polygon points="11,103 475,103 475,266 11,266 "
style="fill:White; stroke-width:1;stroke:Black;"/>
<text style="font-family:Arial;font-size:12px;kerning:0;word-spacing:-1px;fill:Black;">
<tspan x="15" y="117">PREFIX terms : &lt;http://purl.org/dc/terms/&gt;</tspan>
<tspan x="15" y="132">PREFIX anaee: &lt;http://www.anaee-france.fr/ontology/anaee-france_ontology#&gt;</tspan>
<tspan x="15" y="147">PREFIX vcard: &lt;http://www.w3.org/2006/vcard/ns#&gt;</tspan>
<tspan x="15" y="162">PREFIX rdfs: &lt;http://www.w3.org/2000/01/rdf-schema#&gt;</tspan>
<tspan x="15" y="177">PREFIX foaf: &lt;http://xmlns.com/foaf/0.1/&gt;</tspan>
<tspan x="15" y="192">PREFIX dcat: &lt;http://www.w3.org/ns/dcat#&gt;</tspan>
<tspan x="15" y="207">PREFIX geo: &lt;http://www.w3.org/2003/01/geo/wgs84_pos#&gt;</tspan>
<tspan x="15" y="222">PREFIX org: &lt;http://www.w3.org/ns/org#&gt;</tspan>
<tspan x="15" y="237">PREFIX rdf: &lt;http://www.w3.org/1999/02/22-rdf-syntax-ns#&gt;</tspan>
<tspan x="15" y="252">PREFIX skos: &lt;http://www.w3.org/2004/02/skos/core#&gt;</tspan>
</text>
</g>
<g id="2002711521"><polygon points="485,103 1024,103 1024,190 485,190 "
style="fill:#F4D03F; stroke-width:1;stroke:Black;"/>
<text style="font-family:Arial;font-size:12px;kerning:0;word-spacing:-1px;fill:Black;font-weight:bold;">
<tspan x="668" y="118">anaee:ExperimentalBlock (62)</tspan>
</text>
<line x1="489" y1="121" x2="1022" y2="121"
 style="stroke-width:1;stroke:Black;"/>
<text style="font-family:Arial;font-size:12px;kerning:0;word-spacing:-1px;fill:Black;">
<tspan x="489" y="133">:hasPart (455) [*]  -&gt;  anaee:ExperimentalBlock,anaee:ExperimentalPlot,anaee:ExperimentalSite</tspan>
<tspan x="489" y="148">rdfs:comment (124) [*] </tspan>
<tspan x="489" y="163">rdfs:label (124) [*] </tspan>
<tspan x="489" y="178">&lt;- terms:hasPart (31)  &lt;-  anaee:ExperimentalBlock,anaee:ExperimentalSite,dcat:Catalog</tspan>
</text>
</g>
<g id="2002711532"><polygon points="811,479 1020,479 1020,529 811,529 "
style="fill:#F4D03F; stroke-width:1;stroke:Black;"/>
<text style="font-family:Arial;font-size:12px;kerning:0;word-spacing:-1px;fill:Black;font-weight:bold;">
<tspan x="860" y="494">vcard:Individual (50)</tspan>
</text>
<line x1="815" y1="497" x2="1018" y2="497"
 style="stroke-width:1;stroke:Black;"/>
<text style="font-family:Arial;font-size:12px;kerning:0;word-spacing:-1px;fill:Black;">
<tspan x="815" y="509">vcard:hasEmail (50) [1] D</tspan>
<tspan x="815" y="524">vcard:hasName (50) [1] D</tspan>
</text>
</g>
<g id="2002711543"><polygon points="585,479 792,479 792,529 585,529 "
style="fill:#F4D03F; stroke-width:1;stroke:Black;"/>
<text style="font-family:Arial;font-size:12px;kerning:0;word-spacing:-1px;fill:Black;font-weight:bold;">
<tspan x="628" y="494">org:Organization (16)</tspan>
</text>
<line x1="589" y1="497" x2="790" y2="497"
 style="stroke-width:1;stroke:Black;"/>
<text style="font-family:Arial;font-size:12px;kerning:0;word-spacing:-1px;fill:Black;">
<tspan x="589" y="509">foaf:homepage (16) [1]  -&gt; IRI</tspan>
<tspan x="589" y="524">skos:prefLabel (16) [1] D</tspan>
</text>
</g>
<g id="2002711554"><polygon points="11,289 306,289 306,369 11,369 "
style="fill:#F4D03F; stroke-width:1;stroke:Black;"/>
<text style="font-family:Arial;font-size:12px;kerning:0;word-spacing:-1px;fill:Black;font-weight:bold;">
<tspan x="113" y="304">dcat:Catalog (1)</tspan>
</text>
<line x1="15" y1="307" x2="304" y2="307"
 style="stroke-width:1;stroke:Black;"/>
<text style="font-family:Arial;font-size:12px;kerning:0;word-spacing:-1px;fill:Black;">
<tspan x="15" y="319">terms:description (1) [1] </tspan>
<tspan x="15" y="334">terms:hasPart (30) [*]  -&gt;  anaee:ExperimentalBlock,</tspan>
<tspan x="15" y="349">anaee:ExperimentalPlot,anaee:ExperimentalSite</tspan>
<tspan x="15" y="364">terms:title (1) [1] </tspan>
</text>
</g>
<g id="2002711565"><polygon points="145,388 308,388 308,419 145,419 "
style="fill:#F4D03F; stroke-width:1;stroke:Black;"/>
<text style="font-family:Arial;font-size:12px;kerning:0;word-spacing:-1px;fill:Black;font-weight:bold;">
<tspan x="189" y="403">foaf:agent (1)</tspan>
</text>
</g>
<g id="2002711576"><polygon points="418,287 1023,287 1023,448 418,448 "
style="fill:#F4D03F; stroke-width:1;stroke:Black;"/>
<text style="font-family:Arial;font-size:12px;kerning:0;word-spacing:-1px;fill:Black;font-weight:bold;">
<tspan x="639" y="302">anaee:ExperimentalSite (31)</tspan>
</text>
<line x1="422" y1="305" x2="1021" y2="305"
 style="stroke-width:1;stroke:Black;"/>
<text style="font-family:Arial;font-size:12px;kerning:0;word-spacing:-1px;fill:Black;">
<tspan x="422" y="317">terms:hasPart (51) [*]  -&gt;  anaee:ExperimentalBlock,anaee:ExperimentalPlot,anaee:ExperimentalSite</tspan>
<tspan x="422" y="332">foaf:homepage (20) [1]  -&gt; IRI</tspan>
<tspan x="422" y="347">geo:lat (30) [1] D</tspan>
<tspan x="422" y="362">geo:long (30) [1] D</tspan>
<tspan x="422" y="377">rdfs:comment (56) [*] </tspan>
<tspan x="422" y="392">rdfs:label (60) [*] </tspan>
<tspan x="422" y="407">rdfs:subClassOf (1) [1] D -&gt; IRI</tspan>
<tspan x="422" y="422">&lt;- terms:hasPart (30)  &lt;-  anaee:ExperimentalBlock,anaee:ExperimentalSite,dcat:Catalog</tspan>
<tspan x="422" y="437">&lt;&gt; rdf:type  </tspan>
</text>
</g>
<g id="2002711587"><polygon points="11,467 531,467 531,537 11,537 "
style="fill:#F4D03F; stroke-width:1;stroke:Black;"/>
<text style="font-family:Arial;font-size:12px;kerning:0;word-spacing:-1px;fill:Black;font-weight:bold;">
<tspan x="186" y="482">anaee:ExperimentalPlot (733)</tspan>
</text>
<line x1="15" y1="485" x2="529" y2="485"
 style="stroke-width:1;stroke:Black;"/>
<text style="font-family:Arial;font-size:12px;kerning:0;word-spacing:-1px;fill:Black;">
<tspan x="15" y="497">rdfs:comment (1466) [*] </tspan>
<tspan x="15" y="512">rdfs:label (1466) [*] </tspan>
<tspan x="15" y="527">&lt;- terms:hasPart (455)  &lt;-  anaee:ExperimentalBlock,anaee:ExperimentalSite,dcat:Catalog</tspan>
</text>
</g>
<g id="2002793926"><polygon points="176,21 844,21 844,91 176,91 "
style="fill:none; stroke-width:1;stroke:Black;"/>
<text style="font-family:Arial;font-size:18px;kerning:0;word-spacing:-1px;fill:Black;font-weight:bold;">
<tspan x="407" y="41">AnaEE Sites Blazegraph</tspan>
<tspan x="203" y="63">http://147.100.179.235:8082/blazegraph/namespace/AnaEE_sites/sparql</tspan>
</text>
</g>
<g id="2002711465"><path d="M466,467 L466,448 "
style="fill:none;stroke-width:1;stroke:Black;"/>
<line x1="463" y1="454" x2="466" y2="448"
 style="stroke-width:1;stroke:Black;"/>
<line x1="469" y1="454" x2="466" y2="448"
 style="stroke-width:1;stroke:Black;"/>
<text style="font-family:Arial;font-size:12px;kerning:0;word-spacing:-1px;fill:Black;">
<tspan x="419" y="463">rdf:type  </tspan>
</text>
</g>
<g id="2002711470"><path d="M302,419 L302,436 304,440 308,442 418,442 "
style="fill:none;stroke-width:1;stroke:Black;"/>
<line x1="412" y1="439" x2="418" y2="442"
 style="stroke-width:1;stroke:Black;"/>
<line x1="412" y1="445" x2="418" y2="442"
 style="stroke-width:1;stroke:Black;"/>
<text style="font-family:Arial;font-size:12px;kerning:0;word-spacing:-1px;fill:Black;">
<tspan x="304" y="434">rdf:type  </tspan>
</text>
</g>
<g id="2002711475"><path d="M306,345 L418,345 "
style="fill:none;stroke-width:1;stroke:Black;"/>
<line x1="412" y1="342" x2="418" y2="345"
 style="stroke-width:1;stroke:Black;"/>
<line x1="412" y1="348" x2="418" y2="345"
 style="stroke-width:1;stroke:Black;"/>
<text style="font-family:Arial;font-size:12px;kerning:0;word-spacing:-1px;fill:Black;">
<tspan x="310" y="343">rdf:type  </tspan>
</text>
</g>
<g id="2002711480"><path d="M937,448 L937,479 "
style="fill:none;stroke-width:1;stroke:Black;"/>
<line x1="934" y1="473" x2="937" y2="479"
 style="stroke-width:1;stroke:Black;"/>
<line x1="940" y1="473" x2="937" y2="479"
 style="stroke-width:1;stroke:Black;"/>
<text style="font-family:Arial;font-size:12px;kerning:0;word-spacing:-1px;fill:Black;">
<tspan x="939" y="463">dcat:contactPoint  DR</tspan>
</text>
</g>
<g id="2002711485"><path d="M753,190 L753,287 "
style="fill:none;stroke-width:1;stroke:Black;"/>
<line x1="750" y1="281" x2="753" y2="287"
 style="stroke-width:1;stroke:Black;"/>
<line x1="756" y1="281" x2="753" y2="287"
 style="stroke-width:1;stroke:Black;"/>
<text style="font-family:Arial;font-size:12px;kerning:0;word-spacing:-1px;fill:Black;">
<tspan x="755" y="205">rdf:type  </tspan>
</text>
</g>
<g id="2002711490"><path d="M897,479 L897,448 "
style="fill:none;stroke-width:1;stroke:Black;"/>
<line x1="894" y1="454" x2="897" y2="448"
 style="stroke-width:1;stroke:Black;"/>
<line x1="900" y1="454" x2="897" y2="448"
 style="stroke-width:1;stroke:Black;"/>
<text style="font-family:Arial;font-size:12px;kerning:0;word-spacing:-1px;fill:Black;">
<tspan x="850" y="475">rdf:type  </tspan>
</text>
</g>
<g id="2002711495"><path d="M659,479 L659,448 "
style="fill:none;stroke-width:1;stroke:Black;"/>
<line x1="656" y1="454" x2="659" y2="448"
 style="stroke-width:1;stroke:Black;"/>
<line x1="662" y1="454" x2="659" y2="448"
 style="stroke-width:1;stroke:Black;"/>
<text style="font-family:Arial;font-size:12px;kerning:0;word-spacing:-1px;fill:Black;">
<tspan x="612" y="475">rdf:type  </tspan>
</text>
</g>
<g id="2002711500"><path d="M223,369 L223,388 "
style="fill:none;stroke-width:1;stroke:Black;"/>
<line x1="220" y1="382" x2="223" y2="388"
 style="stroke-width:1;stroke:Black;"/>
<line x1="226" y1="382" x2="223" y2="388"
 style="stroke-width:1;stroke:Black;"/>
<text style="font-family:Arial;font-size:12px;kerning:0;word-spacing:-1px;fill:Black;">
<tspan x="225" y="384">:publisher  DR</tspan>
</text>
</g>
<g id="2002711505"><path d="M710,448 L710,479 "
style="fill:none;stroke-width:1;stroke:Black;"/>
<line x1="707" y1="473" x2="710" y2="479"
 style="stroke-width:1;stroke:Black;"/>
<line x1="713" y1="473" x2="710" y2="479"
 style="stroke-width:1;stroke:Black;"/>
<text style="font-family:Arial;font-size:12px;kerning:0;word-spacing:-1px;fill:Black;">
<tspan x="712" y="463">:creator  DR</tspan>
</text>
</g>
</svg>
