<?xml version="1.0" encoding="UTF-8" standalone="no"?>
<!DOCTYPE svg PUBLIC "-//W3C//DTD SVG 1.1//EN"
"http://www.w3.org/Graphics/SVG/1.1/DTD/svg11.dtd">
<svg version="1.1" xmlns="http://www.w3.org/2000/svg"
xmlns:xlink="http://www.w3.org/1999/xlink" xml:space="preserve"
 width="2090" height="833" viewBox="0 0 2090 833">
 onmousemove="movetip(evt)" onmouseup="endmove()">
<rect x="0" y="0" width="100%" height="100%" style="fill:White;"/>
<script type="application/ecmascript"> <![CDATA[
var dragtipid = null; var dragcase = false; function init(evt){
if (window.svgDocument==null) svgDocument = evt.target.ownerDocument;
}
function movetip(evt){if (dragtipid!=null){ dragcase = true;
var tip=svgDocument.getElementById(dragtipid);
tip.setAttributeNS(null,"x",evt.clientX-2);
tip.setAttributeNS(null,"y",evt.clientY-2);
}}
function endmove(){dragtipid = null;}
function startmove(evt,id){dragtipid = id; dragcase = false;
var tip=svgDocument.getElementById(dragtipid);
tip.setAttributeNS(null,"x",evt.clientX-2);
tip.setAttributeNS(null,"y",evt.clientY-2);
}
function Showtip(evt,id){ dragtipid = null;
var tip=svgDocument.getElementById(id);
var vis=tip.getAttributeNS(null,"visibility");
if (vis=="hidden"){
tip.setAttributeNS(null,"x",evt.clientX-2);
tip.setAttributeNS(null,"y",evt.clientY-2);
tip.setAttributeNS(null,"visibility","visible");
}}
function Hidetip(id){ dragtipid = null; if (dragcase==false){
var tip=svgDocument.getElementById(id);
tip.setAttributeNS(null,"visibility","hidden");
}}
]]></script>
<defs><linearGradient id="activ1" x1="0%" y1="0%" x2="100%" y2="0%">
<stop offset="0%" style="stop-color:#FFFF00;stop-opacity:1"/>
<stop offset="100%" style="stop-color:#FFFFF0;stop-opacity:1"/>
</linearGradient></defs>
<g id="2002687725"><polygon points="530,154 830,154 830,264 530,264 "
style="fill:#F4D03F; stroke-width:1;stroke:Black;"/>
<text style="font-family:Arial;font-size:12px;kerning:0;word-spacing:-1px;fill:Black;font-weight:bold;">
<tspan x="634" y="169">owl:Ontology (1)</tspan>
</text>
<line x1="534" y1="172" x2="828" y2="172"
 style="stroke-width:1;stroke:Black;"/>
<text style="font-family:Arial;font-size:12px;kerning:0;word-spacing:-1px;fill:Black;">
<tspan x="534" y="184">owl:imports (1) [1] D -&gt; IRI</tspan>
<tspan x="534" y="199">owl:priorVersion (1) [1] D -&gt; IRI</tspan>
<tspan x="534" y="214">owl:versionInfo (1) [1] D</tspan>
<tspan x="534" y="229">rdf:type (1) [*]  -&gt; IRI</tspan>
<tspan x="534" y="244">rdfs:comment (1) [1] D</tspan>
<tspan x="534" y="259">rdfs:isDefinedBy (3) [*] D -&gt; IRI</tspan>
</text>
</g>
<g id="2002687736"><polygon points="422,511 722,511 722,651 422,651 "
style="fill:#F4D03F; stroke-width:1;stroke:Black;"/>
<text style="font-family:Arial;font-size:12px;kerning:0;word-spacing:-1px;fill:Black;font-weight:bold;">
<tspan x="514" y="526">class:Author (1.5e8)</tspan>
</text>
<line x1="426" y1="529" x2="720" y2="529"
 style="stroke-width:1;stroke:Black;"/>
<text style="font-family:Arial;font-size:12px;kerning:0;word-spacing:-1px;fill:Black;">
<tspan x="426" y="541">dct:created (1.5e8) [1] </tspan>
<tspan x="426" y="556">foaf:name (1.5e8) [1] </tspan>
<tspan x="426" y="571">property:citationCount (1.5e8) [1] </tspan>
<tspan x="426" y="586">property:hasORCID (3.0e4) [1] </tspan>
<tspan x="426" y="601">property:paperCount (1.5e8) [1] </tspan>
<tspan x="426" y="616">property:paperFamilyCount (1.5e8) [1] </tspan>
<tspan x="426" y="631">property:rank (1.5e8) [1] </tspan>
<tspan x="426" y="646">rdf:type (1.5e8) [*]  -&gt; IRI</tspan>
</text>
</g>
<g id="2002687747"><polygon points="669,16 969,16 969,81 669,81 "
style="fill:#F4D03F; stroke-width:1;stroke:Black;"/>
<text style="font-family:Arial;font-size:12px;kerning:0;word-spacing:-1px;fill:Black;font-weight:bold;">
<tspan x="782" y="31">owl:Class (3)</tspan>
</text>
<line x1="673" y1="34" x2="967" y2="34"
 style="stroke-width:1;stroke:Black;"/>
<text style="font-family:Arial;font-size:12px;kerning:0;word-spacing:-1px;fill:Black;">
<tspan x="673" y="46">owl:unionOf (1) [1] D -&gt; IRI</tspan>
<tspan x="673" y="61">rdf:type (3) [*]  -&gt; IRI</tspan>
<tspan x="673" y="76">rdfs:label (2) [1] </tspan>
</text>
</g>
<g id="2002687758"><polygon points="1041,98 1341,98 1341,143 1041,143 "
style="fill:#F4D03F; stroke-width:1;stroke:Black;"/>
<text style="font-family:Arial;font-size:12px;kerning:0;word-spacing:-1px;fill:Black;font-weight:bold;">
<tspan x="1120" y="113">owl:OntologyProperty (4)</tspan>
</text>
</g>
<g id="2002687769"><polygon points="1058,14 1358,14 1358,79 1058,79 "
style="fill:#F4D03F; stroke-width:1;stroke:Black;"/>
<text style="font-family:Arial;font-size:12px;kerning:0;word-spacing:-1px;fill:Black;font-weight:bold;">
<tspan x="1162" y="29">rdf:Property (23)</tspan>
</text>
<line x1="1062" y1="32" x2="1356" y2="32"
 style="stroke-width:1;stroke:Black;"/>
<text style="font-family:Arial;font-size:12px;kerning:0;word-spacing:-1px;fill:Black;">
<tspan x="1062" y="44">rdf:type (28) [*]  -&gt; IRI</tspan>
<tspan x="1062" y="59">rdfs:label (23) [1] </tspan>
<tspan x="1062" y="74">rdfs:subPropertyOf (2) [1] D -&gt; IRI</tspan>
</text>
</g>
<g id="2002687780"><polygon points="1385,154 1685,154 1685,324 1385,324 "
style="fill:#F4D03F; stroke-width:1;stroke:Black;"/>
<text style="font-family:Arial;font-size:12px;kerning:0;word-spacing:-1px;fill:Black;font-weight:bold;">
<tspan x="1445" y="169">class:ConferenceSeries (5.3e4)</tspan>
</text>
<line x1="1389" y1="172" x2="1683" y2="172"
 style="stroke-width:1;stroke:Black;"/>
<text style="font-family:Arial;font-size:12px;kerning:0;word-spacing:-1px;fill:Black;">
<tspan x="1389" y="184">dct:created (5.3e4) [1] </tspan>
<tspan x="1389" y="199">dct:publisher (189) [1] </tspan>
<tspan x="1389" y="214">foaf:homepage (6280) [1] </tspan>
<tspan x="1389" y="229">foaf:name (5.3e4) [1] </tspan>
<tspan x="1389" y="244">iden:issn (3.7e4) [1] D</tspan>
<tspan x="1389" y="259">property:citationCount (5.3e4) [1] </tspan>
<tspan x="1389" y="274">property:paperCount (5.3e4) [1] </tspan>
<tspan x="1389" y="289">property:paperFamilyCount (5.3e4) [1] </tspan>
<tspan x="1389" y="304">property:rank (5.3e4) [1] </tspan>
<tspan x="1389" y="319">rdf:type (5.3e4) [*]  -&gt; IRI</tspan>
</text>
</g>
<g id="2002687791"><polygon points="985,778 1285,778 1285,823 985,823 "
style="fill:#F4D03F; stroke-width:1;stroke:Black;"/>
<text style="font-family:Arial;font-size:12px;kerning:0;word-spacing:-1px;fill:Black;font-weight:bold;">
<tspan x="1059" y="793">owl:AnnotationProperty (5)</tspan>
</text>
<line x1="989" y1="796" x2="1283" y2="796"
 style="stroke-width:1;stroke:Black;"/>
<text style="font-family:Arial;font-size:12px;kerning:0;word-spacing:-1px;fill:Black;">
<tspan x="989" y="808">rdf:type (6) [*]  -&gt; IRI</tspan>
</text>
</g>
<g id="2002687802"><polygon points="728,570 1028,570 1028,635 728,635 "
style="fill:#F4D03F; stroke-width:1;stroke:Black;"/>
<text style="font-family:Arial;font-size:12px;kerning:0;word-spacing:-1px;fill:Black;font-weight:bold;">
<tspan x="826" y="585">fabio:Work (7.5e4)</tspan>
</text>
<line x1="732" y1="588" x2="1026" y2="588"
 style="stroke-width:1;stroke:Black;"/>
<text style="font-family:Arial;font-size:12px;kerning:0;word-spacing:-1px;fill:Black;">
<tspan x="732" y="600">fabio:hasURL (7.5e4) [*] </tspan>
<tspan x="732" y="615">property:resourceType (7.5e4) [1] D</tspan>
<tspan x="732" y="630">rdf:type (7.5e4) [*]  -&gt; IRI</tspan>
</text>
</g>
<g id="2002687813"><polygon points="1316,686 1616,686 1616,766 1316,766 "
style="fill:#F4D03F; stroke-width:1;stroke:Black;"/>
<polygon points="1313,689 1613,689 1613,769 1313,769 "
style="fill:#F4D03F; stroke-width:1;stroke:Black;"/>
<text style="font-family:Arial;font-size:12px;kerning:0;word-spacing:-1px;fill:Black;font-weight:bold;">
<tspan x="1347" y="704">class:JournalArticle et al. G101 (~9.5e7)</tspan>
</text>
<text style="font-family:Arial;font-size:11px;kerning:0;word-spacing:-1px;fill:Black;font-weight:bold;">
<tspan x="1317" y="719">class:JournalArticle (8.6e7)</tspan>
<tspan x="1317" y="734">fabio:Book (2.1e6)</tspan>
<tspan x="1317" y="749">fabio:BookChapter (2.7e6)</tspan>
<tspan x="1317" y="764">fabio:ConferencePaper (4.7e6)</tspan>
</text>
</g>
<g id="2002687824"><polygon points="1007,689 1307,689 1307,739 1007,739 "
style="fill:#F4D03F; stroke-width:1;stroke:Black;"/>
<text style="font-family:Arial;font-size:12px;kerning:0;word-spacing:-1px;fill:Black;font-weight:bold;">
<tspan x="1072" y="704">fabio:PatentDocument (5.3e7)</tspan>
</text>
<line x1="1011" y1="707" x2="1305" y2="707"
 style="stroke-width:1;stroke:Black;"/>
<text style="font-family:Arial;font-size:12px;kerning:0;word-spacing:-1px;fill:Black;">
<tspan x="1011" y="719">dbo:patent (7.4e7) [*] D -&gt; IRI</tspan>
<tspan x="1011" y="734">fabio:hasPatentNumber (7.4e7) [*] D</tspan>
</text>
</g>
<g id="2002687835"><polygon points="1780,272 2080,272 2080,502 1780,502 "
style="fill:#F4D03F; stroke-width:1;stroke:Black;"/>
<text style="font-family:Arial;font-size:12px;kerning:0;word-spacing:-1px;fill:Black;font-weight:bold;">
<tspan x="1834" y="287">class:ConferenceInstance (1.6e4)</tspan>
</text>
<line x1="1784" y1="290" x2="2078" y2="290"
 style="stroke-width:1;stroke:Black;"/>
<text style="font-family:Arial;font-size:12px;kerning:0;word-spacing:-1px;fill:Black;">
<tspan x="1784" y="302">dbo:location (1.6e4 7%d) [1] D -&gt; IRI</tspan>
<tspan x="1784" y="317">dct:created (1.6e4) [1] </tspan>
<tspan x="1784" y="332">foaf:homepage (1.1e4) [1]  -&gt; IRI</tspan>
<tspan x="1784" y="347">foaf:name (1.6e4) [1] </tspan>
<tspan x="1784" y="362">property:abstractRegistrationDate (2236) [1] D</tspan>
<tspan x="1784" y="377">property:citationCount (1.6e4) [1] </tspan>
<tspan x="1784" y="392">property:finalVersionDueDate (5569) [1] D</tspan>
<tspan x="1784" y="407">property:notificationDueDate (6673) [1] D</tspan>
<tspan x="1784" y="422">property:pageCount (1.6e4) [1] D</tspan>
<tspan x="1784" y="437">property:paperFamilyCount (1.6e4) [1] </tspan>
<tspan x="1784" y="452">property:submissionDeadlineDate (1.0e4) [1] D</tspan>
<tspan x="1784" y="467">rdf:type (1.6e4) [*]  -&gt; IRI</tspan>
<tspan x="1784" y="482">tl:end (1.4e4) [1] D</tspan>
<tspan x="1784" y="497">tl:start (1.4e4) [1] D</tspan>
</text>
</g>
<g id="2002687846"><polygon points="631,688 931,688 931,768 631,768 "
style="fill:#F4D03F; stroke-width:1;stroke:Black;"/>
<text style="font-family:Arial;font-size:12px;kerning:0;word-spacing:-1px;fill:Black;font-weight:bold;">
<tspan x="742" y="703">sd:Service (1)</tspan>
</text>
<line x1="635" y1="706" x2="929" y2="706"
 style="stroke-width:1;stroke:Black;"/>
<text style="font-family:Arial;font-size:12px;kerning:0;word-spacing:-1px;fill:Black;">
<tspan x="635" y="718">rdf:type (1) [*]  -&gt; IRI</tspan>
<tspan x="635" y="733">sd:feature (2) [*] D -&gt; IRI</tspan>
<tspan x="635" y="748">sd:resultFormat (8) [*] D -&gt; IRI</tspan>
<tspan x="635" y="763">sd:supportedLanguage (1) [1] D -&gt; IRI</tspan>
</text>
</g>
<g id="2002687857"><polygon points="749,304 1049,304 1049,507 749,507 "
style="fill:#F4D03F; stroke-width:1;stroke:Black;"/>
<text style="font-family:Arial;font-size:12px;kerning:0;word-spacing:-1px;fill:Black;font-weight:bold;">
<tspan x="823" y="319">class:FieldOfStudy (7.4e5)</tspan>
</text>
<line x1="753" y1="322" x2="1047" y2="322"
 style="stroke-width:1;stroke:Black;"/>
<text style="font-family:Arial;font-size:12px;kerning:0;word-spacing:-1px;fill:Black;">
<tspan x="753" y="334">dct:created (7.4e5) [1] </tspan>
<tspan x="753" y="349">foaf:name (7.4e5) [1] </tspan>
<tspan x="753" y="364">owl:sameAs (2.8e5) [1]  -&gt; IRI</tspan>
<tspan x="753" y="379">property:citationCount (7.4e5) [1] </tspan>
<tspan x="753" y="394">property:level (7.4e5) [1] D</tspan>
<tspan x="753" y="409">property:paperCount (7.4e5) [1] </tspan>
<tspan x="753" y="424">property:paperFamilyCount (7.4e5) [1] </tspan>
<tspan x="753" y="439">property:rank (7.4e5) [1] </tspan>
<tspan x="753" y="454">rdf:type (7.4e5) [*]  -&gt; IRI</tspan>
<tspan x="753" y="469">rdfs:seeAlso (9.8e5) [*]  -&gt; IRI</tspan>
</text>
</g>
<g id="2002687868"><polygon points="10,445 310,445 310,660 10,660 "
style="fill:#F4D03F; stroke-width:1;stroke:Black;"/>
<text style="font-family:Arial;font-size:12px;kerning:0;word-spacing:-1px;fill:Black;font-weight:bold;">
<tspan x="95" y="460">class:Affiliation (2.6e4)</tspan>
</text>
<line x1="14" y1="463" x2="308" y2="463"
 style="stroke-width:1;stroke:Black;"/>
<text style="font-family:Arial;font-size:12px;kerning:0;word-spacing:-1px;fill:Black;">
<tspan x="14" y="475">dct:created (2.6e4) [1] </tspan>
<tspan x="14" y="490">foaf:homepage (1.7e4) [1]  -&gt; IRI</tspan>
<tspan x="14" y="505">foaf:name (2.6e4) [1] </tspan>
<tspan x="14" y="520">owl:sameAs (2.5e4) [1]  -&gt; IRI</tspan>
<tspan x="14" y="535">property:citationCount (2.6e4) [1] </tspan>
<tspan x="14" y="550">property:grid (1.9e4) [1] D -&gt; IRI</tspan>
<tspan x="14" y="565">property:paperCount (2.6e4) [1] </tspan>
<tspan x="14" y="580">property:paperFamilyCount (2.6e4) [1] </tspan>
<tspan x="14" y="595">property:rank (2.6e4) [1] </tspan>
<tspan x="14" y="610">rdf:type (2.6e4) [*]  -&gt; IRI</tspan>
<tspan x="14" y="625">rdfs:seeAlso (2.5e4) [*]  -&gt; IRI</tspan>
<tspan x="14" y="640">wgs84_pos:lat (2.5e4) [1] D</tspan>
<tspan x="14" y="655">wgs84_pos:long (2.5e4) [1] D</tspan>
</text>
</g>
<g id="2002687879"><polygon points="862,242 1162,242 1162,292 862,292 "
style="fill:#F4D03F; stroke-width:1;stroke:Black;"/>
<text style="font-family:Arial;font-size:12px;kerning:0;word-spacing:-1px;fill:Black;font-weight:bold;">
<tspan x="951" y="257">class:Citation (1.6e8)</tspan>
</text>
<line x1="866" y1="260" x2="1160" y2="260"
 style="stroke-width:1;stroke:Black;"/>
<text style="font-family:Arial;font-size:12px;kerning:0;word-spacing:-1px;fill:Black;">
<tspan x="866" y="272">c4o:hasContext (2.3e8) [*] D</tspan>
<tspan x="866" y="287">rdf:type (1.6e8) [*]  -&gt; IRI</tspan>
</text>
</g>
<g id="2002687890"><polygon points="1187,330 1487,330 1487,665 1187,665 "
style="fill:#F4D03F; stroke-width:1;stroke:Black;"/>
<text style="font-family:Arial;font-size:12px;kerning:0;word-spacing:-1px;fill:Black;font-weight:bold;">
<tspan x="1281" y="345">class:Paper (2.4e8)</tspan>
</text>
<line x1="1191" y1="348" x2="1485" y2="348"
 style="stroke-width:1;stroke:Black;"/>
<text style="font-family:Arial;font-size:12px;kerning:0;word-spacing:-1px;fill:Black;">
<tspan x="1191" y="360">datacite:doi (8.9e7) [1] D</tspan>
<tspan x="1191" y="375">dbo:publisher (3.3e7) [1] D -&gt; IRI</tspan>
<tspan x="1191" y="390">dct:abstract (1.4e8) [1] D</tspan>
<tspan x="1191" y="405">dct:created (2.4e8) [1] </tspan>
<tspan x="1191" y="420">dct:publisher (9.3e7) [1] </tspan>
<tspan x="1191" y="435">dct:title (2.4e8) [*] D</tspan>
<tspan x="1191" y="450">fabio:hasPubMedCentralId (5.6e6) [*] D -&gt; IRI</tspan>
<tspan x="1191" y="465">fabio:hasPubMedId (3.0e7) [*] D -&gt; IRI</tspan>
<tspan x="1191" y="480">fabio:hasURL (4.0e8) [*] </tspan>
<tspan x="1191" y="495">prism:endingPage (1.1e8) [1] D</tspan>
<tspan x="1191" y="510">prism:issueIdentifier (9.9e7) [1] D</tspan>
<tspan x="1191" y="525">prism:keyword (6.8e8) [*] </tspan>
<tspan x="1191" y="540">prism:publicationDate (2.4e8) [1] D</tspan>
<tspan x="1191" y="555">prism:startingPage (1.2e8) [1] D</tspan>
<tspan x="1191" y="570">prism:volume (1.0e8) [1] D</tspan>
<tspan x="1191" y="585">property:citationCount (2.4e8) [1] </tspan>
<tspan x="1191" y="600">property:estimatedCitationCount (2.4e8) [1] D</tspan>
<tspan x="1191" y="615">property:familyId (3.1e6) [1] D</tspan>
<tspan x="1191" y="630">property:rank (2.4e8) [1] </tspan>
<tspan x="1191" y="645">property:referenceCount (2.4e8) [1] D</tspan>
<tspan x="1191" y="660">rdf:type (3.9e8) [*]  -&gt; IRI</tspan>
</text>
</g>
<g id="2002687654"><path d="M1487,467 L1780,467 "
style="fill:none;stroke-width:1;stroke:Black;"/>
<line x1="1774" y1="464" x2="1780" y2="467"
 style="stroke-width:1;stroke:Black;"/>
<line x1="1774" y1="470" x2="1780" y2="467"
 style="stroke-width:1;stroke:Black;"/>
<text style="font-family:Arial;font-size:12px;kerning:0;word-spacing:-1px;fill:Black;">
<tspan x="1491" y="450">property:</tspan>
<tspan x="1491" y="465">appearsInConferenceInstance  DR</tspan>
</text>
</g>
<g id="2002687659"><path d="M749,310 L538,310 534,308 532,304 532,304 534,300 538,298 899,298 899,304 "
style="fill:none;stroke-width:1;stroke:Black;"/>
<line x1="896" y1="298" x2="899" y2="304"
 style="stroke-width:1;stroke:Black;"/>
<line x1="902" y1="298" x2="899" y2="304"
 style="stroke-width:1;stroke:Black;"/>
<text style="font-family:Arial;font-size:12px;kerning:0;word-spacing:-1px;fill:Black;">
<tspan x="540" y="323">property:isRelatedTo  DR</tspan>
<tspan x="540" y="338">property:diseaseHasSymptom  DR</tspan>
<tspan x="540" y="353">property:</tspan>
<tspan x="540" y="368">diseaseHasMedicalTreatment  DR</tspan>
<tspan x="540" y="383">property:diseaseHasDiseaseCause  </tspan>
<tspan x="540" y="398">DR</tspan>
<tspan x="540" y="413">property:symptomHasDiseaseCause </tspan>
<tspan x="540" y="428"> DR</tspan>
<tspan x="540" y="443">property:</tspan>
<tspan x="540" y="458">medicalTreatmentForDiseaseCause  </tspan>
<tspan x="540" y="473">DR</tspan>
<tspan x="540" y="488">property:</tspan>
<tspan x="540" y="503">medicalTreatmentForSymptom  DR</tspan>
</text>
</g>
<g id="2002687664"><path d="M631,728 L536,728 532,726 530,722 530,688 532,684 536,682 781,682 781,688 "
style="fill:none;stroke-width:1;stroke:Black;"/>
<line x1="778" y1="682" x2="781" y2="688"
 style="stroke-width:1;stroke:Black;"/>
<line x1="784" y1="682" x2="781" y2="688"
 style="stroke-width:1;stroke:Black;"/>
<text style="font-family:Arial;font-size:12px;kerning:0;word-spacing:-1px;fill:Black;">
<tspan x="538" y="741">sd:url  DR</tspan>
<tspan x="538" y="756">sd:endpoint  DR</tspan>
</text>
</g>
<g id="2002687669"><path d="M1487,399 L1673,399 1677,397 1679,393 1679,324 "
style="fill:none;stroke-width:1;stroke:Black;"/>
<line x1="1676" y1="330" x2="1679" y2="324"
 style="stroke-width:1;stroke:Black;"/>
<line x1="1682" y1="330" x2="1679" y2="324"
 style="stroke-width:1;stroke:Black;"/>
<text style="font-family:Arial;font-size:12px;kerning:0;word-spacing:-1px;fill:Black;">
<tspan x="1491" y="367">property:appearsInJournal  R</tspan>
<tspan x="1491" y="382">property:</tspan>
<tspan x="1491" y="397">appearsInConferenceSeries  DR</tspan>
</text>
</g>
<g id="2002687674"><path d="M1187,550 L722,550 "
style="fill:none;stroke-width:1;stroke:Black;"/>
<line x1="728" y1="547" x2="722" y2="550"
 style="stroke-width:1;stroke:Black;"/>
<line x1="728" y1="553" x2="722" y2="550"
 style="stroke-width:1;stroke:Black;"/>
<text style="font-family:Arial;font-size:12px;kerning:0;word-spacing:-1px;fill:Black;">
<tspan x="1111" y="563">dct:creator  R</tspan>
</text>
</g>
<g id="2002687679"><path d="M669,49 L536,49 532,47 530,43 530,16 532,12 536,10 819,10 819,16 "
style="fill:none;stroke-width:1;stroke:Black;"/>
<line x1="816" y1="10" x2="819" y2="16"
 style="stroke-width:1;stroke:Black;"/>
<line x1="822" y1="10" x2="819" y2="16"
 style="stroke-width:1;stroke:Black;"/>
<text style="font-family:Arial;font-size:12px;kerning:0;word-spacing:-1px;fill:Black;">
<tspan x="538" y="62">owl:complementOf  DR</tspan>
</text>
</g>
<g id="2002687684"><path d="M1162,274 L1373,274 1377,276 1379,280 1379,330 "
style="fill:none;stroke-width:1;stroke:Black;"/>
<line x1="1376" y1="324" x2="1379" y2="330"
 style="stroke-width:1;stroke:Black;"/>
<line x1="1382" y1="324" x2="1379" y2="330"
 style="stroke-width:1;stroke:Black;"/>
<text style="font-family:Arial;font-size:12px;kerning:0;word-spacing:-1px;fill:Black;">
<tspan x="1166" y="257">cito:hasCitingEntity  DR</tspan>
<tspan x="1166" y="272">cito:hasCitedEntity  D</tspan>
</text>
</g>
<g id="2002687689"><path d="M422,567 L310,567 "
style="fill:none;stroke-width:1;stroke:Black;"/>
<line x1="316" y1="564" x2="310" y2="567"
 style="stroke-width:1;stroke:Black;"/>
<line x1="316" y1="570" x2="310" y2="567"
 style="stroke-width:1;stroke:Black;"/>
<text style="font-family:Arial;font-size:12px;kerning:0;word-spacing:-1px;fill:Black;">
<tspan x="314" y="580">org:memberOf  DR</tspan>
</text>
</g>
<g id="2002687694"><path d="M1780,304 L1685,304 "
style="fill:none;stroke-width:1;stroke:Black;"/>
<line x1="1691" y1="301" x2="1685" y2="304"
 style="stroke-width:1;stroke:Black;"/>
<line x1="1691" y1="307" x2="1685" y2="304"
 style="stroke-width:1;stroke:Black;"/>
<text style="font-family:Arial;font-size:12px;kerning:0;word-spacing:-1px;fill:Black;">
<tspan x="1689" y="317">dct:isPartOf  DR</tspan>
</text>
</g>
<g id="2002687699"><path d="M1058,47 L969,47 "
style="fill:none;stroke-width:1;stroke:Black;"/>
<line x1="975" y1="44" x2="969" y2="47"
 style="stroke-width:1;stroke:Black;"/>
<line x1="975" y1="50" x2="969" y2="47"
 style="stroke-width:1;stroke:Black;"/>
<text style="font-family:Arial;font-size:12px;kerning:0;word-spacing:-1px;fill:Black;">
<tspan x="973" y="60">rdfs:domain  D</tspan>
<tspan x="973" y="75">rdfs:range  D</tspan>
</text>
</g>
<g id="2002687704"><path d="M1187,436 L1049,436 "
style="fill:none;stroke-width:1;stroke:Black;"/>
<line x1="1055" y1="433" x2="1049" y2="436"
 style="stroke-width:1;stroke:Black;"/>
<line x1="1055" y1="439" x2="1049" y2="436"
 style="stroke-width:1;stroke:Black;"/>
<text style="font-family:Arial;font-size:12px;kerning:0;word-spacing:-1px;fill:Black;">
<tspan x="1053" y="449">fabio:hasDiscipline  DR</tspan>
</text>
</g>
<g id="2002687709"><path d="M1187,383 L1127,383 1123,381 1121,377 1121,304 1123,300 1127,298 1277,298 1281,300 1283,304 1283,330 "
style="fill:none;stroke-width:1;stroke:Black;"/>
<line x1="1280" y1="324" x2="1283" y2="330"
 style="stroke-width:1;stroke:Black;"/>
<line x1="1286" y1="324" x2="1283" y2="330"
 style="stroke-width:1;stroke:Black;"/>
<text style="font-family:Arial;font-size:12px;kerning:0;word-spacing:-1px;fill:Black;">
<tspan x="1129" y="396">cito:cites  </tspan>
</text>
</g>
<g id="2002687714"><path d="M1187,603 L1028,603 "
style="fill:none;stroke-width:1;stroke:Black;"/>
<line x1="1034" y1="600" x2="1028" y2="603"
 style="stroke-width:1;stroke:Black;"/>
<line x1="1034" y1="606" x2="1028" y2="603"
 style="stroke-width:1;stroke:Black;"/>
<text style="font-family:Arial;font-size:12px;kerning:0;word-spacing:-1px;fill:Black;">
<tspan x="1032" y="616">property:ownResource  DR</tspan>
<tspan x="1032" y="631">property:citedResource  DR</tspan>
</text>
</g>
<g id="2002687719"><path d="M1200,79 L1200,98 "
style="fill:none;stroke-width:2;stroke:Fuchsia;"/>
<polygon points="1205,89 1200,79 1195,89 "
style="fill:Silver;stroke-width:1;stroke:Black;"/>
<text style="font-family:Arial;font-size:12px;kerning:0;word-spacing:-1px;fill:Black;">
<tspan x="1202" y="94"> </tspan>
</text>
</g>
<g id="2002687721"><path d="M1410,665 L1410,689 "
style="fill:none;stroke-width:2;stroke:Fuchsia;"/>
<polygon points="1415,675 1410,665 1405,675 "
style="fill:Silver;stroke-width:1;stroke:Black;"/>
<text style="font-family:Arial;font-size:12px;kerning:0;word-spacing:-1px;fill:Black;">
<tspan x="1412" y="680"> </tspan>
</text>
</g>
<g id="2002687723"><path d="M1228,665 L1228,689 "
style="fill:none;stroke-width:2;stroke:Fuchsia;"/>
<polygon points="1233,675 1228,665 1223,675 "
style="fill:Silver;stroke-width:1;stroke:Black;"/>
<text style="font-family:Arial;font-size:12px;kerning:0;word-spacing:-1px;fill:Black;">
<tspan x="1230" y="680"> </tspan>
</text>
</g>
</svg>
