<?xml version="1.0" encoding="UTF-8" standalone="no"?>
<!DOCTYPE svg PUBLIC "-//W3C//DTD SVG 1.1//EN"
"http://www.w3.org/Graphics/SVG/1.1/DTD/svg11.dtd">
<svg version="1.1" xmlns="http://www.w3.org/2000/svg"
xmlns:xlink="http://www.w3.org/1999/xlink" xml:space="preserve"
 width="1590" height="821" viewBox="0 0 1590 821">
 onmousemove="movetip(evt)" onmouseup="endmove()">
<rect x="0" y="0" width="100%" height="100%" style="fill:White;"/>
<script type="application/ecmascript"> <![CDATA[
var dragtipid = null; var dragcase = false; function init(evt){
if (window.svgDocument==null) svgDocument = evt.target.ownerDocument;
}
function movetip(evt){if (dragtipid!=null){ dragcase = true;
var tip=svgDocument.getElementById(dragtipid);
tip.setAttributeNS(null,"x",evt.clientX-2);
tip.setAttributeNS(null,"y",evt.clientY-2);
}}
function endmove(){dragtipid = null;}
function startmove(evt,id){dragtipid = id; dragcase = false;
var tip=svgDocument.getElementById(dragtipid);
tip.setAttributeNS(null,"x",evt.clientX-2);
tip.setAttributeNS(null,"y",evt.clientY-2);
}
function Showtip(evt,id){ dragtipid = null;
var tip=svgDocument.getElementById(id);
var vis=tip.getAttributeNS(null,"visibility");
if (vis=="hidden"){
tip.setAttributeNS(null,"x",evt.clientX-2);
tip.setAttributeNS(null,"y",evt.clientY-2);
tip.setAttributeNS(null,"visibility","visible");
}}
function Hidetip(id){ dragtipid = null; if (dragcase==false){
var tip=svgDocument.getElementById(id);
tip.setAttributeNS(null,"visibility","hidden");
}}
]]></script>
<defs><linearGradient id="activ1" x1="0%" y1="0%" x2="100%" y2="0%">
<stop offset="0%" style="stop-color:#FFFF00;stop-opacity:1"/>
<stop offset="100%" style="stop-color:#FFFFF0;stop-opacity:1"/>
</linearGradient></defs>
<g id="2002716105"><polygon points="1156,85 1459,85 1459,131 1156,131 "
style="fill:#F4D03F; stroke-width:1;stroke:Black;"/>
<text style="font-family:Arial;font-size:12px;kerning:0;word-spacing:-1px;fill:Black;font-weight:bold;">
<tspan x="1235" y="100">oa:XPathSelector (6.6e4)</tspan>
</text>
</g>
<g id="2002716116"><polygon points="1200,301 1459,301 1459,346 1200,346 "
style="fill:#F4D03F; stroke-width:1;stroke:Black;"/>
<text style="font-family:Arial;font-size:12px;kerning:0;word-spacing:-1px;fill:Black;font-weight:bold;">
<tspan x="1238" y="316">oa:TextPositionSelector (6.6e4)</tspan>
</text>
</g>
<g id="2002716127"><polygon points="398,607 561,607 561,653 398,653 "
style="fill:#F4D03F; stroke-width:1;stroke:Black;"/>
<text style="font-family:Arial;font-size:12px;kerning:0;word-spacing:-1px;fill:Black;font-weight:bold;">
<tspan x="436" y="622">prov:Person (4)</tspan>
</text>
</g>
<g id="2002716138"><polygon points="116,128 373,128 373,208 116,208 "
style="fill:#F4D03F; stroke-width:1;stroke:Black;"/>
<text style="font-family:Arial;font-size:12px;kerning:0;word-spacing:-1px;fill:Black;font-weight:bold;">
<tspan x="179" y="143">prov:SoftwareAgent (7)</tspan>
</text>
<line x1="120" y1="146" x2="371" y2="146"
 style="stroke-width:1;stroke:Black;"/>
<text style="font-family:Arial;font-size:12px;kerning:0;word-spacing:-1px;fill:Black;">
<tspan x="120" y="158">rdf:type (13) [*]  -&gt;  owl:Class</tspan>
<tspan x="120" y="173">rdfs:comment (2) [*] </tspan>
<tspan x="120" y="188">schema:url (7) [1]  -&gt; IRI</tspan>
<tspan x="120" y="203">schema:version (5) [1] D</tspan>
</text>
</g>
<g id="2002716149"><polygon points="373,489 584,489 584,570 373,570 "
style="fill:#F4D03F; stroke-width:1;stroke:Black;"/>
<text style="font-family:Arial;font-size:12px;kerning:0;word-spacing:-1px;fill:Black;font-weight:bold;">
<tspan x="436" y="504">foaf:Person (4)</tspan>
</text>
<line x1="377" y1="507" x2="582" y2="507"
 style="stroke-width:1;stroke:Black;"/>
<text style="font-family:Arial;font-size:12px;kerning:0;word-spacing:-1px;fill:Black;">
<tspan x="377" y="519">foaf:givenName (4) [1] D</tspan>
<tspan x="377" y="534">foaf:mbox (4) [1] D -&gt; IRI</tspan>
<tspan x="377" y="549">foaf:openid (4) [1] D -&gt; IRI</tspan>
<tspan x="377" y="564">rdf:type (8) [*]  -&gt;  owl:Class</tspan>
</text>
</g>
<g id="2002716160"><polygon points="782,628 985,628 985,694 782,694 "
style="fill:#F4D03F; stroke-width:1;stroke:Black;"/>
<text style="font-family:Arial;font-size:12px;kerning:0;word-spacing:-1px;fill:Black;font-weight:bold;">
<tspan x="828" y="643">metashare:Size (7)</tspan>
</text>
<line x1="786" y1="647" x2="983" y2="647"
 style="stroke-width:1;stroke:Black;"/>
<text style="font-family:Arial;font-size:12px;kerning:0;word-spacing:-1px;fill:Black;">
<tspan x="786" y="659">metashare:amount (7) [1] D</tspan>
<tspan x="786" y="674">metashare:sizeUnit (7) [1] D -&gt; IRI</tspan>
<tspan x="786" y="689">rdf:type (7) [*]  -&gt;  owl:Class</tspan>
</text>
</g>
<g id="2002716171"><polygon points="1049,599 1459,599 1459,807 1049,807 "
style="fill:White; stroke-width:1;stroke:Black;"/>
<text style="font-family:Arial;font-size:12px;kerning:0;word-spacing:-1px;fill:Black;">
<tspan x="1053" y="613">PREFIX prov: &lt;http://www.w3.org/ns/prov#&gt;</tspan>
<tspan x="1053" y="628">PREFIX oa: &lt;http://www.w3.org/ns/oa#&gt;</tspan>
<tspan x="1053" y="643">PREFIX schema: &lt;http://schema.org/&gt;</tspan>
<tspan x="1053" y="658">PREFIX rdfs: &lt;http://www.w3.org/2000/01/rdf-schema#&gt;</tspan>
<tspan x="1053" y="673">PREFIX dct: &lt;http://purl.org/dc/terms/&gt;</tspan>
<tspan x="1053" y="688">PREFIX metashare: &lt;http://w3id.org/meta-share/meta-share/&gt;</tspan>
<tspan x="1053" y="703">PREFIX foaf: &lt;http://xmlns.com/foaf/0.1/&gt;</tspan>
<tspan x="1053" y="718">PREFIX inraebsv: &lt;http://ontology.inrae.fr/bsv/ontology/&gt;</tspan>
<tspan x="1053" y="733">PREFIX owl: &lt;http://www.w3.org/2002/07/owl#&gt;</tspan>
<tspan x="1053" y="748">PREFIX rdf: &lt;http://www.w3.org/1999/02/22-rdf-syntax-ns#&gt;</tspan>
<tspan x="1053" y="763">PREFIX dc: &lt;http://purl.org/dc/elements/1.1/&gt;</tspan>
<tspan x="1053" y="778">PREFIX dul: &lt;http://www.ontologydesignpatterns.org/ont/dul/DUL.owl#&gt;</tspan>
<tspan x="1053" y="793">PREFIX frac: &lt;http://www.w3.org/ns/lemon/frac#&gt;</tspan>
</text>
</g>
<g id="2002716182"><polygon points="432,119 723,119 723,216 432,216 "
style="fill:#F4D03F; stroke-width:1;stroke:Black;"/>
<text style="font-family:Arial;font-size:12px;kerning:0;word-spacing:-1px;fill:Black;font-weight:bold;">
<tspan x="534" y="134">dct:Text (2148)</tspan>
</text>
<line x1="436" y1="138" x2="721" y2="138"
 style="stroke-width:1;stroke:Black;"/>
<text style="font-family:Arial;font-size:12px;kerning:0;word-spacing:-1px;fill:Black;">
<tspan x="436" y="150">dc:format (2148) [1] D</tspan>
<tspan x="436" y="165">dc:language (2148) [1] D</tspan>
<tspan x="436" y="180">oa:textDirection (2148) [1] D -&gt; IRI</tspan>
<tspan x="436" y="195">rdfs:comment (2148) [*] </tspan>
<tspan x="436" y="210">schema:url (2148) [1]  -&gt; IRI</tspan>
</text>
</g>
<g id="2002716193"><polygon points="555,252 859,252 859,303 555,303 "
style="fill:#F4D03F; stroke-width:1;stroke:Black;"/>
<text style="font-family:Arial;font-size:12px;kerning:0;word-spacing:-1px;fill:Black;font-weight:bold;">
<tspan x="614" y="267">schema:DigitalDocument (1580)</tspan>
</text>
<line x1="559" y1="270" x2="857" y2="270"
 style="stroke-width:1;stroke:Black;"/>
<text style="font-family:Arial;font-size:12px;kerning:0;word-spacing:-1px;fill:Black;">
<tspan x="559" y="282">frac:total (1074) [1] D</tspan>
<tspan x="559" y="297">schema:isBasedOn (506) [1] D -&gt; IRI</tspan>
</text>
</g>
<g id="2002716204"><polygon points="116,604 331,604 331,650 116,650 "
style="fill:#F4D03F; stroke-width:1;stroke:Black;"/>
<text style="font-family:Arial;font-size:12px;kerning:0;word-spacing:-1px;fill:Black;font-weight:bold;">
<tspan x="187" y="619">prov:Plan (1)</tspan>
</text>
<line x1="120" y1="622" x2="329" y2="622"
 style="stroke-width:1;stroke:Black;"/>
<text style="font-family:Arial;font-size:12px;kerning:0;word-spacing:-1px;fill:Black;">
<tspan x="120" y="634">prov:generatedAtTime (1) [1] D</tspan>
</text>
</g>
<g id="2002716215"><polygon points="1195,363 1459,363 1459,409 1195,409 "
style="fill:#F4D03F; stroke-width:1;stroke:Black;"/>
<text style="font-family:Arial;font-size:12px;kerning:0;word-spacing:-1px;fill:Black;font-weight:bold;">
<tspan x="1218" y="378">inraebsv:AutomaticAnnotation (7.6e4)</tspan>
</text>
</g>
<g id="2002716226"><polygon points="185,350 569,350 569,431 185,431 "
style="fill:#F4D03F; stroke-width:1;stroke:Black;"/>
<text style="font-family:Arial;font-size:12px;kerning:0;word-spacing:-1px;fill:Black;font-weight:bold;">
<tspan x="330" y="365">prov:Activity (69)</tspan>
</text>
<line x1="189" y1="368" x2="567" y2="368"
 style="stroke-width:1;stroke:Black;"/>
<text style="font-family:Arial;font-size:12px;kerning:0;word-spacing:-1px;fill:Black;">
<tspan x="189" y="380">prov:endedAtTime (68) [1] D</tspan>
<tspan x="189" y="395">prov:startedAtTime (69) [1] D</tspan>
<tspan x="189" y="410">rdf:type (69) [*]  -&gt;  owl:Class</tspan>
<tspan x="189" y="425">rdfs:comment (69) [*] </tspan>
</text>
</g>
<g id="2002716237"><polygon points="776,534 987,534 987,600 776,600 "
style="fill:#F4D03F; stroke-width:1;stroke:Black;"/>
<text style="font-family:Arial;font-size:12px;kerning:0;word-spacing:-1px;fill:Black;font-weight:bold;">
<tspan x="830" y="549">prov:Collection (7)</tspan>
</text>
<line x1="780" y1="553" x2="985" y2="553"
 style="stroke-width:1;stroke:Black;"/>
<text style="font-family:Arial;font-size:12px;kerning:0;word-spacing:-1px;fill:Black;">
<tspan x="780" y="565">rdf:type (7) [*]  -&gt;  owl:Class</tspan>
<tspan x="780" y="580">rdfs:comment (7) [*] </tspan>
<tspan x="780" y="595">rdfs:label (7) [*] </tspan>
</text>
</g>
<g id="2002716248"><polygon points="116,677 328,677 328,728 116,728 "
style="fill:#F4D03F; stroke-width:1;stroke:Black;"/>
<text style="font-family:Arial;font-size:12px;kerning:0;word-spacing:-1px;fill:Black;font-weight:bold;">
<tspan x="149" y="692">schema:CreativeWork (7)</tspan>
</text>
<line x1="120" y1="695" x2="326" y2="695"
 style="stroke-width:1;stroke:Black;"/>
<text style="font-family:Arial;font-size:12px;kerning:0;word-spacing:-1px;fill:Black;">
<tspan x="120" y="707">rdf:type (14) [*]  -&gt;  owl:Class</tspan>
<tspan x="120" y="722">schema:url (7) [1]  -&gt; IRI</tspan>
</text>
</g>
<g id="2002716259"><polygon points="812,443 1022,443 1022,489 812,489 "
style="fill:#F4D03F; stroke-width:1;stroke:Black;"/>
<text style="font-family:Arial;font-size:12px;kerning:0;word-spacing:-1px;fill:Black;font-weight:bold;">
<tspan x="865" y="458">prov:Entity (7.9e4)</tspan>
</text>
<line x1="816" y1="461" x2="1020" y2="461"
 style="stroke-width:1;stroke:Black;"/>
<text style="font-family:Arial;font-size:12px;kerning:0;word-spacing:-1px;fill:Black;">
<tspan x="816" y="473">rdf:type (2.3e5) [*]  -&gt;  owl:Class</tspan>
</text>
</g>
<g id="2002716270"><polygon points="1156,153 1459,153 1459,279 1156,279 "
style="fill:#F4D03F; stroke-width:1;stroke:Black;"/>
<text style="font-family:Arial;font-size:12px;kerning:0;word-spacing:-1px;fill:Black;font-weight:bold;">
<tspan x="1222" y="168">oa:TextQuoteSelector (6.6e4)</tspan>
</text>
<line x1="1160" y1="171" x2="1457" y2="171"
 style="stroke-width:1;stroke:Black;"/>
<text style="font-family:Arial;font-size:12px;kerning:0;word-spacing:-1px;fill:Black;">
<tspan x="1160" y="183">oa:end (6.6e4) [1] D</tspan>
<tspan x="1160" y="198">oa:exact (6.6e4) [1] D</tspan>
<tspan x="1160" y="213">oa:prefix (6.6e4) [1] D</tspan>
<tspan x="1160" y="228">oa:start (6.6e4) [1] D</tspan>
<tspan x="1160" y="243">oa:suffix (6.6e4) [1] D</tspan>
<tspan x="1160" y="258">rdf:type (2.0e5) [*]  -&gt;  owl:Class</tspan>
<tspan x="1160" y="273">rdf:value (6.6e4) [1] D</tspan>
</text>
</g>
<g id="2002716281"><polygon points="1147,435 1450,435 1450,531 1147,531 "
style="fill:#F4D03F; stroke-width:1;stroke:Black;"/>
<text style="font-family:Arial;font-size:12px;kerning:0;word-spacing:-1px;fill:Black;font-weight:bold;">
<tspan x="1231" y="450">inraebsv:Bulletin (1074)</tspan>
</text>
<line x1="1151" y1="453" x2="1448" y2="453"
 style="stroke-width:1;stroke:Black;"/>
<text style="font-family:Arial;font-size:12px;kerning:0;word-spacing:-1px;fill:Black;">
<tspan x="1151" y="465">dct:date (1066) [1] D</tspan>
<tspan x="1151" y="480">dct:description (1074) [1] D</tspan>
<tspan x="1151" y="495">dct:spatial (1074) [1] D -&gt; IRI</tspan>
<tspan x="1151" y="510">inraebsv:dateExtractionQuality (1066) [1] D</tspan>
</text>
</g>
<g id="2002716292"><polygon points="729,147 1032,147 1032,192 729,192 "
style="fill:#F4D03F; stroke-width:1;stroke:Black;"/>
<text style="font-family:Arial;font-size:12px;kerning:0;word-spacing:-1px;fill:Black;font-weight:bold;">
<tspan x="794" y="162">oa:ResourceSelection (6.6e4)</tspan>
</text>
<line x1="733" y1="165" x2="1030" y2="165"
 style="stroke-width:1;stroke:Black;"/>
<text style="font-family:Arial;font-size:12px;kerning:0;word-spacing:-1px;fill:Black;">
<tspan x="733" y="177">rdf:type (6.6e4) [*]  -&gt;  owl:Class</tspan>
</text>
</g>
<g id="2002716303"><polygon points="116,484 365,484 365,529 116,529 "
style="fill:#F4D03F; stroke-width:1;stroke:Black;"/>
<text style="font-family:Arial;font-size:12px;kerning:0;word-spacing:-1px;fill:Black;font-weight:bold;">
<tspan x="183" y="499">prov:Association (1)</tspan>
</text>
<line x1="120" y1="502" x2="363" y2="502"
 style="stroke-width:1;stroke:Black;"/>
<text style="font-family:Arial;font-size:12px;kerning:0;word-spacing:-1px;fill:Black;">
<tspan x="120" y="514">rdf:type (1) [*]  -&gt;  owl:Class</tspan>
</text>
</g>
<g id="2002716314"><polygon points="901,340 1150,340 1150,406 901,406 "
style="fill:#F4D03F; stroke-width:1;stroke:Black;"/>
<text style="font-family:Arial;font-size:12px;kerning:0;word-spacing:-1px;fill:Black;font-weight:bold;">
<tspan x="963" y="355">oa:Annotation (7.6e4)</tspan>
</text>
<line x1="905" y1="358" x2="1148" y2="358"
 style="stroke-width:1;stroke:Black;"/>
<text style="font-family:Arial;font-size:12px;kerning:0;word-spacing:-1px;fill:Black;">
<tspan x="905" y="370">oa:hasBody (7.6e4 0.01%d) [1] D -&gt; IRI</tspan>
<tspan x="905" y="385">oa:motivatedBy (7.6e4) [1] D -&gt; IRI</tspan>
</text>
</g>
<g id="2002716325"><polygon points="336,710 640,710 640,807 336,807 "
style="fill:#F4D03F; stroke-width:1;stroke:Black;"/>
<text style="font-family:Arial;font-size:12px;kerning:0;word-spacing:-1px;fill:Black;font-weight:bold;">
<tspan x="416" y="725">owl:DatatypeProperty (2)</tspan>
</text>
<line x1="340" y1="729" x2="638" y2="729"
 style="stroke-width:1;stroke:Black;"/>
<text style="font-family:Arial;font-size:12px;kerning:0;word-spacing:-1px;fill:Black;">
<tspan x="340" y="741">rdf:type (2) [*]  -&gt;  owl:Class</tspan>
<tspan x="340" y="756">rdfs:comment (4) [*] </tspan>
<tspan x="340" y="771">rdfs:domain (1) [1] D -&gt; IRI</tspan>
<tspan x="340" y="786">rdfs:label (4) [*] </tspan>
<tspan x="340" y="801">rdfs:range (2) [1] D -&gt; IRI</tspan>
</text>
</g>
<g id="2002716336"><polygon points="663,714 984,714 984,811 663,811 "
style="fill:#F4D03F; stroke-width:1;stroke:Black;"/>
<text style="font-family:Arial;font-size:12px;kerning:0;word-spacing:-1px;fill:Black;font-weight:bold;">
<tspan x="786" y="729">owl:Class (1)</tspan>
</text>
<line x1="667" y1="733" x2="982" y2="733"
 style="stroke-width:1;stroke:Black;"/>
<text style="font-family:Arial;font-size:12px;kerning:0;word-spacing:-1px;fill:Black;">
<tspan x="667" y="745">rdf:type (1) [*]  -&gt;  owl:Class</tspan>
<tspan x="667" y="760">rdfs:comment (1) [*] </tspan>
<tspan x="667" y="775">rdfs:label (1) [*] </tspan>
<tspan x="667" y="790">rdfs:subClassOf (1) [1] D -&gt; IRI</tspan>
<tspan x="667" y="805">&lt;- rdf:type (1074)  &lt;-  foaf:Person,prov:Collection..(12)</tspan>
</text>
</g>
<g id="2002796223"><polygon points="567,10 904,10 904,63 567,63 "
style="fill:none; stroke-width:1;stroke:Black;"/>
<text style="font-family:Arial;font-size:18px;kerning:0;word-spacing:-1px;fill:Black;font-weight:bold;">
<tspan x="647" y="30">Plant Health Bulletins</tspan>
<tspan x="598" y="52">http://ontology.inrae.fr/bsv/sparql</tspan>
</text>
</g>
<g id="2002716007"><path d="M716,252 L716,216 "
style="fill:none;stroke-width:1;stroke:Black;"/>
<line x1="713" y1="222" x2="716" y2="216"
 style="stroke-width:1;stroke:Black;"/>
<line x1="720" y1="222" x2="716" y2="216"
 style="stroke-width:1;stroke:Black;"/>
<text style="font-family:Arial;font-size:12px;kerning:0;word-spacing:-1px;fill:Black;">
<tspan x="569" y="248">prov:wasDerivedFrom  DR</tspan>
</text>
</g>
<g id="2002716012"><path d="M336,350 L336,208 "
style="fill:none;stroke-width:1;stroke:Black;"/>
<line x1="333" y1="215" x2="336" y2="208"
 style="stroke-width:1;stroke:Black;"/>
<line x1="339" y1="215" x2="336" y2="208"
 style="stroke-width:1;stroke:Black;"/>
<text style="font-family:Arial;font-size:12px;kerning:0;word-spacing:-1px;fill:Black;">
<tspan x="174" y="346">prov:wasAssociatedWith  DR</tspan>
</text>
</g>
<g id="2002716017"><path d="M463,431 L463,489 "
style="fill:none;stroke-width:1;stroke:Black;"/>
<line x1="460" y1="483" x2="463" y2="489"
 style="stroke-width:1;stroke:Black;"/>
<line x1="467" y1="483" x2="463" y2="489"
 style="stroke-width:1;stroke:Black;"/>
<text style="font-family:Arial;font-size:12px;kerning:0;word-spacing:-1px;fill:Black;">
<tspan x="466" y="446">prov:wasAttributedTo  R</tspan>
</text>
</g>
<g id="2002716022"><path d="M290,431 L290,484 "
style="fill:none;stroke-width:1;stroke:Black;"/>
<line x1="287" y1="478" x2="290" y2="484"
 style="stroke-width:1;stroke:Black;"/>
<line x1="293" y1="478" x2="290" y2="484"
 style="stroke-width:1;stroke:Black;"/>
<text style="font-family:Arial;font-size:12px;kerning:0;word-spacing:-1px;fill:Black;">
<tspan x="292" y="446">prov:qualifiedAssociation  DR</tspan>
</text>
</g>
<g id="2002716027"><path d="M816,192 L816,252 "
style="fill:none;stroke-width:1;stroke:Black;"/>
<line x1="813" y1="246" x2="816" y2="252"
 style="stroke-width:1;stroke:Black;"/>
<line x1="819" y1="246" x2="816" y2="252"
 style="stroke-width:1;stroke:Black;"/>
<text style="font-family:Arial;font-size:12px;kerning:0;word-spacing:-1px;fill:Black;">
<tspan x="818" y="207">oa:hasSource  D</tspan>
</text>
</g>
<g id="2002716032"><path d="M1032,170 L1156,170 "
style="fill:none;stroke-width:1;stroke:Black;"/>
<line x1="1150" y1="167" x2="1156" y2="170"
 style="stroke-width:1;stroke:Black;"/>
<line x1="1150" y1="173" x2="1156" y2="170"
 style="stroke-width:1;stroke:Black;"/>
<text style="font-family:Arial;font-size:12px;kerning:0;word-spacing:-1px;fill:Black;">
<tspan x="1036" y="168">oa:hasSelector  DR</tspan>
</text>
</g>
<g id="2002716037"><path d="M150,529 L150,604 "
style="fill:none;stroke-width:1;stroke:Black;"/>
<line x1="147" y1="598" x2="150" y2="604"
 style="stroke-width:1;stroke:Black;"/>
<line x1="153" y1="598" x2="150" y2="604"
 style="stroke-width:1;stroke:Black;"/>
<text style="font-family:Arial;font-size:12px;kerning:0;word-spacing:-1px;fill:Black;">
<tspan x="152" y="544">prov:hadPlan  DR</tspan>
</text>
</g>
<g id="2002716042"><path d="M311,604 L311,555 313,551 317,549 373,549 "
style="fill:none;stroke-width:1;stroke:Black;"/>
<line x1="367" y1="545" x2="373" y2="549"
 style="stroke-width:1;stroke:Black;"/>
<line x1="367" y1="552" x2="373" y2="549"
 style="stroke-width:1;stroke:Black;"/>
<text style="font-family:Arial;font-size:12px;kerning:0;word-spacing:-1px;fill:Black;">
<tspan x="178" y="600">prov:wasAttributedTo  R</tspan>
</text>
</g>
<g id="2002716047"><path d="M569,398 L645,398 649,400 651,404 651,565 653,569 657,571 776,571 "
style="fill:none;stroke-width:1;stroke:Black;"/>
<line x1="770" y1="568" x2="776" y2="571"
 style="stroke-width:1;stroke:Black;"/>
<line x1="770" y1="574" x2="776" y2="571"
 style="stroke-width:1;stroke:Black;"/>
<text style="font-family:Arial;font-size:12px;kerning:0;word-spacing:-1px;fill:Black;">
<tspan x="573" y="396">prov:used  D</tspan>
</text>
</g>
<g id="2002716052"><path d="M472,350 L472,216 "
style="fill:none;stroke-width:1;stroke:Black;"/>
<line x1="469" y1="222" x2="472" y2="216"
 style="stroke-width:1;stroke:Black;"/>
<line x1="475" y1="222" x2="472" y2="216"
 style="stroke-width:1;stroke:Black;"/>
<text style="font-family:Arial;font-size:12px;kerning:0;word-spacing:-1px;fill:Black;">
<tspan x="362" y="346">prov:generated  DR</tspan>
</text>
</g>
<g id="2002716057"><path d="M812,472 L669,472 665,470 663,466 663,381 661,376 657,374 569,374 "
style="fill:none;stroke-width:1;stroke:Black;"/>
<line x1="575" y1="371" x2="569" y2="374"
 style="stroke-width:1;stroke:Black;"/>
<line x1="575" y1="377" x2="569" y2="374"
 style="stroke-width:1;stroke:Black;"/>
<text style="font-family:Arial;font-size:12px;kerning:0;word-spacing:-1px;fill:Black;">
<tspan x="671" y="485">prov:wasGeneratedBy  D</tspan>
</text>
</g>
<g id="2002716062"><path d="M1450,452 L1573,452 1577,450 1579,446 1579,85 1577,81 1573,79 574,79 570,81 568,85 568,119 "
style="fill:none;stroke-width:1;stroke:Black;"/>
<line x1="565" y1="113" x2="568" y2="119"
 style="stroke-width:1;stroke:Black;"/>
<line x1="571" y1="113" x2="568" y2="119"
 style="stroke-width:1;stroke:Black;"/>
<text style="font-family:Arial;font-size:12px;kerning:0;word-spacing:-1px;fill:Black;">
<tspan x="1454" y="450">dul:isRealizedBy  DR</tspan>
</text>
</g>
<g id="2002716067"><path d="M987,340 L987,192 "
style="fill:none;stroke-width:1;stroke:Black;"/>
<line x1="984" y1="198" x2="987" y2="192"
 style="stroke-width:1;stroke:Black;"/>
<line x1="990" y1="198" x2="987" y2="192"
 style="stroke-width:1;stroke:Black;"/>
<text style="font-family:Arial;font-size:12px;kerning:0;word-spacing:-1px;fill:Black;">
<tspan x="887" y="336">oa:hasTarget  DR</tspan>
</text>
</g>
<g id="2002716072"><path d="M886,600 L886,628 "
style="fill:none;stroke-width:1;stroke:Black;"/>
<line x1="882" y1="622" x2="886" y2="628"
 style="stroke-width:1;stroke:Black;"/>
<line x1="889" y1="622" x2="886" y2="628"
 style="stroke-width:1;stroke:Black;"/>
<text style="font-family:Arial;font-size:12px;kerning:0;word-spacing:-1px;fill:Black;">
<tspan x="888" y="615">metashare:size  DR</tspan>
</text>
</g>
<g id="2002716077"><path d="M161,484 L161,208 "
style="fill:none;stroke-width:1;stroke:Black;"/>
<line x1="158" y1="215" x2="161" y2="208"
 style="stroke-width:1;stroke:Black;"/>
<line x1="164" y1="215" x2="161" y2="208"
 style="stroke-width:1;stroke:Black;"/>
<text style="font-family:Arial;font-size:12px;kerning:0;word-spacing:-1px;fill:Black;">
<tspan x="77" y="480">prov:agent  DR</tspan>
</text>
</g>
<g id="2002716082"><path d="M987,565 L1189,565 1193,563 1195,559 1195,531 "
style="fill:none;stroke-width:1;stroke:Black;"/>
<line x1="1192" y1="537" x2="1195" y2="531"
 style="stroke-width:1;stroke:Black;"/>
<line x1="1198" y1="537" x2="1195" y2="531"
 style="stroke-width:1;stroke:Black;"/>
<text style="font-family:Arial;font-size:12px;kerning:0;word-spacing:-1px;fill:Black;">
<tspan x="991" y="563">prov:hadMember  DR</tspan>
</text>
</g>
<g id="2002716087"><path d="M561,216 L561,252 "
style="fill:none;stroke-width:2;stroke:Fuchsia;"/>
<polygon points="566,226 561,216 556,226 "
style="fill:Silver;stroke-width:1;stroke:Black;"/>
<text style="font-family:Arial;font-size:12px;kerning:0;word-spacing:-1px;fill:Black;">
<tspan x="563" y="231"> </tspan>
</text>
</g>
<g id="2002716089"><path d="M833,443 L833,316 831,312 827,310 502,310 498,308 496,304 496,216 "
style="fill:none;stroke-width:2;stroke:Fuchsia;"/>
<polygon points="838,433 833,443 828,433 "
style="fill:Silver;stroke-width:1;stroke:Black;"/>
<text style="font-family:Arial;font-size:12px;kerning:0;word-spacing:-1px;fill:Black;">
<tspan x="821" y="439"> </tspan>
</text>
</g>
<g id="2002716091"><path d="M1022,466 L1147,466 "
style="fill:none;stroke-width:2;stroke:Fuchsia;"/>
<polygon points="1032,471 1022,466 1032,460 "
style="fill:Silver;stroke-width:1;stroke:Black;"/>
<text style="font-family:Arial;font-size:12px;kerning:0;word-spacing:-1px;fill:Black;">
<tspan x="1026" y="463"> </tspan>
</text>
</g>
<g id="2002716093"><path d="M961,443 L961,406 "
style="fill:none;stroke-width:2;stroke:Fuchsia;"/>
<polygon points="966,433 961,443 956,433 "
style="fill:Silver;stroke-width:1;stroke:Black;"/>
<text style="font-family:Arial;font-size:12px;kerning:0;word-spacing:-1px;fill:Black;">
<tspan x="949" y="439"> </tspan>
</text>
</g>
<g id="2002716095"><path d="M1289,131 L1289,153 "
style="fill:none;stroke-width:2;stroke:Fuchsia;"/>
<polygon points="1294,141 1289,131 1284,141 "
style="fill:Silver;stroke-width:1;stroke:Black;"/>
<text style="font-family:Arial;font-size:12px;kerning:0;word-spacing:-1px;fill:Black;">
<tspan x="1291" y="146"> </tspan>
</text>
</g>
<g id="2002716097"><path d="M222,677 L222,650 "
style="fill:none;stroke-width:2;stroke:Fuchsia;"/>
<polygon points="227,667 222,677 217,667 "
style="fill:Silver;stroke-width:1;stroke:Black;"/>
<text style="font-family:Arial;font-size:12px;kerning:0;word-spacing:-1px;fill:Black;">
<tspan x="209" y="673"> </tspan>
</text>
</g>
<g id="2002716099"><path d="M1150,385 L1195,385 "
style="fill:none;stroke-width:2;stroke:Fuchsia;"/>
<polygon points="1160,390 1150,385 1160,380 "
style="fill:Silver;stroke-width:1;stroke:Black;"/>
<text style="font-family:Arial;font-size:12px;kerning:0;word-spacing:-1px;fill:Black;">
<tspan x="1154" y="382"> </tspan>
</text>
</g>
<g id="2002716101"><path d="M479,570 L479,607 "
style="fill:none;stroke-width:2;stroke:Fuchsia;"/>
<polygon points="484,580 479,570 474,580 "
style="fill:Silver;stroke-width:1;stroke:Black;"/>
<text style="font-family:Arial;font-size:12px;kerning:0;word-spacing:-1px;fill:Black;">
<tspan x="481" y="585"> </tspan>
</text>
</g>
<g id="2002716103"><path d="M1311,279 L1311,301 "
style="fill:none;stroke-width:2;stroke:Fuchsia;"/>
<polygon points="1316,289 1311,279 1305,289 "
style="fill:Silver;stroke-width:1;stroke:Black;"/>
<text style="font-family:Arial;font-size:12px;kerning:0;word-spacing:-1px;fill:Black;">
<tspan x="1313" y="294"> </tspan>
</text>
</g>
</svg>
