<?xml version="1.0" encoding="UTF-8" standalone="no"?>
<!DOCTYPE svg PUBLIC "-//W3C//DTD SVG 1.1//EN"
"http://www.w3.org/Graphics/SVG/1.1/DTD/svg11.dtd">
<svg version="1.1" xmlns="http://www.w3.org/2000/svg"
xmlns:xlink="http://www.w3.org/1999/xlink" xml:space="preserve"
 width="948" height="459" viewBox="0 0 948 459">
 onmousemove="movetip(evt)" onmouseup="endmove()">
<rect x="0" y="0" width="100%" height="100%" style="fill:White;"/>
<script type="application/ecmascript"> <![CDATA[
var dragtipid = null; var dragcase = false; function init(evt){
if (window.svgDocument==null) svgDocument = evt.target.ownerDocument;
}
function movetip(evt){if (dragtipid!=null){ dragcase = true;
var tip=svgDocument.getElementById(dragtipid);
tip.setAttributeNS(null,"x",evt.clientX-2);
tip.setAttributeNS(null,"y",evt.clientY-2);
}}
function endmove(){dragtipid = null;}
function startmove(evt,id){dragtipid = id; dragcase = false;
var tip=svgDocument.getElementById(dragtipid);
tip.setAttributeNS(null,"x",evt.clientX-2);
tip.setAttributeNS(null,"y",evt.clientY-2);
}
function Showtip(evt,id){ dragtipid = null;
var tip=svgDocument.getElementById(id);
var vis=tip.getAttributeNS(null,"visibility");
if (vis=="hidden"){
tip.setAttributeNS(null,"x",evt.clientX-2);
tip.setAttributeNS(null,"y",evt.clientY-2);
tip.setAttributeNS(null,"visibility","visible");
}}
function Hidetip(id){ dragtipid = null; if (dragcase==false){
var tip=svgDocument.getElementById(id);
tip.setAttributeNS(null,"visibility","hidden");
}}
]]></script>
<defs><linearGradient id="activ1" x1="0%" y1="0%" x2="100%" y2="0%">
<stop offset="0%" style="stop-color:#FFFF00;stop-opacity:1"/>
<stop offset="100%" style="stop-color:#FFFFF0;stop-opacity:1"/>
</linearGradient></defs>
<g id="2002676106"><polygon points="101,332 276,332 276,397 101,397 "
style="fill:#F4D03F; stroke-width:1;stroke:Black;"/>
<text style="font-family:Arial;font-size:12px;kerning:0;word-spacing:-1px;fill:Black;font-weight:bold;">
<tspan x="142" y="347">rdf:Property (22)</tspan>
</text>
<line x1="105" y1="350" x2="274" y2="350"
 style="stroke-width:1;stroke:Black;"/>
<text style="font-family:Arial;font-size:12px;kerning:0;word-spacing:-1px;fill:Black;">
<tspan x="105" y="362">rdf:type (44) [*]  -&gt; IRI</tspan>
<tspan x="105" y="377">rdfs:domain (16) [1] D -&gt; IRI</tspan>
<tspan x="105" y="392">rdfs:range (16) [1] D -&gt; IRI</tspan>
</text>
</g>
<g id="2002676117"><polygon points="436,361 611,361 611,406 436,406 "
style="fill:#F4D03F; stroke-width:1;stroke:Black;"/>
<text style="font-family:Arial;font-size:12px;kerning:0;word-spacing:-1px;fill:Black;font-weight:bold;">
<tspan x="495" y="376">rdf:List (1)</tspan>
</text>
<line x1="440" y1="379" x2="609" y2="379"
 style="stroke-width:1;stroke:Black;"/>
<text style="font-family:Arial;font-size:12px;kerning:0;word-spacing:-1px;fill:Black;">
<tspan x="440" y="391">rdf:type (2) [*]  -&gt; IRI</tspan>
</text>
</g>
<g id="2002676062"><polygon points="655,271 830,271 830,316 655,316 "
style="fill:#F4D03F; stroke-width:1;stroke:Black;"/>
<text style="font-family:Arial;font-size:12px;kerning:0;word-spacing:-1px;fill:Black;font-weight:bold;">
<tspan x="701" y="286">rdfs:Class (18)</tspan>
</text>
</g>
<g id="2002676084"><polygon points="374,268 549,268 549,313 374,313 "
style="fill:#F4D03F; stroke-width:1;stroke:Black;"/>
<text style="font-family:Arial;font-size:12px;kerning:0;word-spacing:-1px;fill:Black;font-weight:bold;">
<tspan x="409" y="283">rdfs:Resource (41)</tspan>
</text>
</g>
<g id="2002676128"><polygon points="620,14 938,14 938,234 620,234 "
style="fill:#F4D03F; stroke-width:1;stroke:Black;"/>
<text style="font-family:Arial;font-size:12px;kerning:0;word-spacing:-1px;fill:Black;font-weight:bold;">
<tspan x="725" y="29">foaf:Person (1.4e5)</tspan>
</text>
<line x1="624" y1="32" x2="936" y2="32"
 style="stroke-width:1;stroke:Black;"/>
<text style="font-family:Arial;font-size:12px;kerning:0;word-spacing:-1px;fill:Black;">
<tspan x="624" y="44">bibo:pages (1) [*] </tspan>
<tspan x="624" y="59">bibo:shortTitle (1) [*] </tspan>
<tspan x="624" y="74">ccs:License (1.4e5) [1]  -&gt; IRI</tspan>
<tspan x="624" y="89">foaf:name (1.4e5) [*] </tspan>
<tspan x="624" y="104">geonames:countryCode (3.0e4) [*] D</tspan>
<tspan x="624" y="119">gnd:dateOfBirth (9.3e4) [*] </tspan>
<tspan x="624" y="134">gnd:dateOfDeath (3.5e4) [1] </tspan>
<tspan x="624" y="149">gnd:variantNameForTheConferenceOrEvent (6722) [*] D</tspan>
<tspan x="624" y="164">rdar:alternateIdentity (1.2e5) [*] D</tspan>
<tspan x="624" y="179">rdf:type (1.4e5) [*]  -&gt; IRI</tspan>
<tspan x="624" y="194">terms:description (2.3e4) [*] </tspan>
<tspan x="624" y="209">terms:identifier (1.4e5) [1] </tspan>
<tspan x="624" y="224">umbel:isLike (8486) [*]  -&gt; IRI</tspan>
</text>
</g>
<g id="2002676073"><polygon points="96,10 271,10 271,195 96,195 "
style="fill:#F4D03F; stroke-width:1;stroke:Black;"/>
<text style="font-family:Arial;font-size:12px;kerning:0;word-spacing:-1px;fill:Black;font-weight:bold;">
<tspan x="120" y="25">foaf:Document (1.3e4)</tspan>
</text>
<line x1="100" y1="28" x2="269" y2="28"
 style="stroke-width:1;stroke:Black;"/>
<text style="font-family:Arial;font-size:12px;kerning:0;word-spacing:-1px;fill:Black;">
<tspan x="100" y="40">bibo:pages (5558) [*] </tspan>
<tspan x="100" y="55">bibo:shortTitle (5762) [*] </tspan>
<tspan x="100" y="70">ccs:License (1.3e4) [1]  -&gt; IRI</tspan>
<tspan x="100" y="85">dc:contributor (1.3e4) [*]  -&gt; IRI</tspan>
<tspan x="100" y="100">dc:creator (6832) [*] </tspan>
<tspan x="100" y="115">gnd:dateOfBirth (6431) [*] </tspan>
<tspan x="100" y="130">gnd:dateOfDeath (2497) [1] </tspan>
<tspan x="100" y="145">rdf:type (1.3e4) [*]  -&gt; IRI</tspan>
<tspan x="100" y="160">terms:identifier (1.3e4) [1] </tspan>
<tspan x="100" y="175">terms:title (1.3e4) [*] </tspan>
<tspan x="100" y="190">umbel:isLike (821) [*]  -&gt; IRI</tspan>
</text>
</g>
<g id="2002676095"><polygon points="650,367 825,367 825,412 650,412 "
style="fill:#F4D03F; stroke-width:1;stroke:Black;"/>
<text style="font-family:Arial;font-size:12px;kerning:0;word-spacing:-1px;fill:Black;font-weight:bold;">
<tspan x="690" y="382">rdfs:Datatype (1)</tspan>
</text>
<line x1="654" y1="385" x2="823" y2="385"
 style="stroke-width:1;stroke:Black;"/>
<text style="font-family:Arial;font-size:12px;kerning:0;word-spacing:-1px;fill:Black;">
<tspan x="654" y="397">rdf:type (3) [*]  -&gt; IRI</tspan>
</text>
</g>
<g id="2002676034"><path d="M271,160 L620,160 "
style="fill:none;stroke-width:1;stroke:Black;"/>
<line x1="614" y1="157" x2="620" y2="160"
 style="stroke-width:1;stroke:Black;"/>
<line x1="614" y1="163" x2="620" y2="160"
 style="stroke-width:1;stroke:Black;"/>
<text style="font-family:Arial;font-size:12px;kerning:0;word-spacing:-1px;fill:Black;">
<tspan x="275" y="158">terms:creator  </tspan>
</text>
</g>
<g id="2002676049"><path d="M620,91 L271,91 "
style="fill:none;stroke-width:1;stroke:Black;"/>
<line x1="277" y1="88" x2="271" y2="91"
 style="stroke-width:1;stroke:Black;"/>
<line x1="277" y1="94" x2="271" y2="91"
 style="stroke-width:1;stroke:Black;"/>
<text style="font-family:Arial;font-size:12px;kerning:0;word-spacing:-1px;fill:Black;">
<tspan x="493" y="104">foaf:isPrimaryTopicOf  </tspan>
</text>
</g>
<g id="2002676056"><path d="M519,313 L519,361 "
style="fill:none;stroke-width:2;stroke:Fuchsia;"/>
<polygon points="524,323 519,313 514,323 "
style="fill:Silver;stroke-width:1;stroke:Black;"/>
<text style="font-family:Arial;font-size:12px;kerning:0;word-spacing:-1px;fill:Black;">
<tspan x="521" y="328"> </tspan>
</text>
</g>
<g id="2002676044"><path d="M276,366 L408,366 412,368 414,372 414,404 412,408 408,410 250,410 246,408 244,404 244,397 "
style="fill:none;stroke-width:1;stroke:Black;"/>
<line x1="241" y1="403" x2="244" y2="397"
 style="stroke-width:1;stroke:Black;"/>
<line x1="247" y1="403" x2="244" y2="397"
 style="stroke-width:1;stroke:Black;"/>
<text style="font-family:Arial;font-size:12px;kerning:0;word-spacing:-1px;fill:Black;">
<tspan x="280" y="364">rdfs:subPropertyOf  DR</tspan>
</text>
</g>
<g id="2002676054"><path d="M549,293 L655,293 "
style="fill:none;stroke-width:2;stroke:Fuchsia;"/>
<polygon points="559,298 549,293 559,288 "
style="fill:Silver;stroke-width:1;stroke:Black;"/>
<text style="font-family:Arial;font-size:12px;kerning:0;word-spacing:-1px;fill:Black;">
<tspan x="553" y="291"> </tspan>
</text>
</g>
<g id="2002676058"><path d="M737,316 L737,367 "
style="fill:none;stroke-width:2;stroke:Fuchsia;"/>
<polygon points="742,326 737,316 732,326 "
style="fill:Silver;stroke-width:1;stroke:Black;"/>
<text style="font-family:Arial;font-size:12px;kerning:0;word-spacing:-1px;fill:Black;">
<tspan x="739" y="331"> </tspan>
</text>
</g>
<g id="2002676039"><path d="M773,412 L773,442 771,446 767,448 669,448 665,446 663,442 663,412 "
style="fill:none;stroke-width:1;stroke:Black;"/>
<line x1="660" y1="418" x2="663" y2="412"
 style="stroke-width:1;stroke:Black;"/>
<line x1="666" y1="418" x2="663" y2="412"
 style="stroke-width:1;stroke:Black;"/>
<text style="font-family:Arial;font-size:12px;kerning:0;word-spacing:-1px;fill:Black;">
<tspan x="775" y="427">rdfs:subClassOf  </tspan>
</text>
</g>
<g id="2002676060"><path d="M374,279 L269,279 265,281 263,285 263,332 "
style="fill:none;stroke-width:2;stroke:Fuchsia;"/>
<polygon points="364,284 374,279 364,274 "
style="fill:Silver;stroke-width:1;stroke:Black;"/>
<text style="font-family:Arial;font-size:12px;kerning:0;word-spacing:-1px;fill:Black;">
<tspan x="360" y="292"> </tspan>
</text>
</g>
</svg>
