<?xml version="1.0" encoding="UTF-8" standalone="no"?>
<!DOCTYPE svg PUBLIC "-//W3C//DTD SVG 1.1//EN"
"http://www.w3.org/Graphics/SVG/1.1/DTD/svg11.dtd">
<svg version="1.1" xmlns="http://www.w3.org/2000/svg"
xmlns:xlink="http://www.w3.org/1999/xlink" xml:space="preserve"
 width="965" height="505" viewBox="0 0 965 505">
 onmousemove="movetip(evt)" onmouseup="endmove()">
<rect x="0" y="0" width="100%" height="100%" style="fill:White;"/>
<script type="application/ecmascript"> <![CDATA[
var dragtipid = null; var dragcase = false; function init(evt){
if (window.svgDocument==null) svgDocument = evt.target.ownerDocument;
}
function movetip(evt){if (dragtipid!=null){ dragcase = true;
var tip=svgDocument.getElementById(dragtipid);
tip.setAttributeNS(null,"x",evt.clientX-2);
tip.setAttributeNS(null,"y",evt.clientY-2);
}}
function endmove(){dragtipid = null;}
function startmove(evt,id){dragtipid = id; dragcase = false;
var tip=svgDocument.getElementById(dragtipid);
tip.setAttributeNS(null,"x",evt.clientX-2);
tip.setAttributeNS(null,"y",evt.clientY-2);
}
function Showtip(evt,id){ dragtipid = null;
var tip=svgDocument.getElementById(id);
var vis=tip.getAttributeNS(null,"visibility");
if (vis=="hidden"){
tip.setAttributeNS(null,"x",evt.clientX-2);
tip.setAttributeNS(null,"y",evt.clientY-2);
tip.setAttributeNS(null,"visibility","visible");
}}
function Hidetip(id){ dragtipid = null; if (dragcase==false){
var tip=svgDocument.getElementById(id);
tip.setAttributeNS(null,"visibility","hidden");
}}
]]></script>
<defs><linearGradient id="activ1" x1="0%" y1="0%" x2="100%" y2="0%">
<stop offset="0%" style="stop-color:#FFFF00;stop-opacity:1"/>
<stop offset="100%" style="stop-color:#FFFFF0;stop-opacity:1"/>
</linearGradient></defs>
<g id="2002724396"><polygon points="375,363 675,363 675,428 375,428 "
style="fill:#F4D03F; stroke-width:1;stroke:Black;"/>
<text style="font-family:Arial;font-size:12px;kerning:0;word-spacing:-1px;fill:Black;font-weight:bold;">
<tspan x="479" y="378">rdf:Property (23)</tspan>
</text>
<line x1="379" y1="381" x2="673" y2="381"
 style="stroke-width:1;stroke:Black;"/>
<text style="font-family:Arial;font-size:12px;kerning:0;word-spacing:-1px;fill:Black;">
<tspan x="379" y="393">rdf:type (28) [*]  -&gt; IRI</tspan>
<tspan x="379" y="408">rdfs:label (23) [1] </tspan>
<tspan x="379" y="423">rdfs:subPropertyOf (2) [1] D -&gt; IRI</tspan>
</text>
</g>
<g id="2002724407"><polygon points="720,385 955,385 955,495 720,495 "
style="fill:#F4D03F; stroke-width:1;stroke:Black;"/>
<text style="font-family:Arial;font-size:12px;kerning:0;word-spacing:-1px;fill:Black;font-weight:bold;">
<tspan x="798" y="400">sd:Service (1)</tspan>
</text>
<line x1="724" y1="403" x2="953" y2="403"
 style="stroke-width:1;stroke:Black;"/>
<text style="font-family:Arial;font-size:12px;kerning:0;word-spacing:-1px;fill:Black;">
<tspan x="724" y="415">rdf:type (1) [*]  -&gt; IRI</tspan>
<tspan x="724" y="430">sd:feature (2) [*] D -&gt; IRI</tspan>
<tspan x="724" y="445">sd:resultFormat (8) [*] D -&gt; IRI</tspan>
<tspan x="724" y="460">sd:supportedLanguage (1) [1] D -&gt; IRI</tspan>
<tspan x="724" y="475">&lt;&gt; sd:endpoint  DR</tspan>
<tspan x="724" y="490">&lt;&gt; sd:url  DR</tspan>
</text>
</g>
<g id="2002724418"><polygon points="748,102 955,102 955,147 748,147 "
style="fill:#F4D03F; stroke-width:1;stroke:Black;"/>
<text style="font-family:Arial;font-size:12px;kerning:0;word-spacing:-1px;fill:Black;font-weight:bold;">
<tspan x="775" y="117">owl:AnnotationProperty (5)</tspan>
</text>
<line x1="752" y1="120" x2="953" y2="120"
 style="stroke-width:1;stroke:Black;"/>
<text style="font-family:Arial;font-size:12px;kerning:0;word-spacing:-1px;fill:Black;">
<tspan x="752" y="132">rdf:type (6) [*]  -&gt; IRI</tspan>
</text>
</g>
<g id="2002724429"><polygon points="375,249 675,249 675,329 375,329 "
style="fill:#F4D03F; stroke-width:1;stroke:Black;"/>
<text style="font-family:Arial;font-size:12px;kerning:0;word-spacing:-1px;fill:Black;font-weight:bold;">
<tspan x="488" y="264">owl:Class (3)</tspan>
</text>
<line x1="379" y1="267" x2="673" y2="267"
 style="stroke-width:1;stroke:Black;"/>
<text style="font-family:Arial;font-size:12px;kerning:0;word-spacing:-1px;fill:Black;">
<tspan x="379" y="279">owl:unionOf (1) [1] D -&gt; IRI</tspan>
<tspan x="379" y="294">rdf:type (3) [*]  -&gt; IRI</tspan>
<tspan x="379" y="309">rdfs:label (2) [1] </tspan>
<tspan x="379" y="324">&lt;&gt; owl:complementOf  DR</tspan>
</text>
</g>
<g id="2002724440"><polygon points="89,102 342,102 342,197 89,197 "
style="fill:#F4D03F; stroke-width:1;stroke:Black;"/>
<text style="font-family:Arial;font-size:12px;kerning:0;word-spacing:-1px;fill:Black;font-weight:bold;">
<tspan x="169" y="117">oulad:Vle (6268)</tspan>
</text>
<line x1="93" y1="120" x2="340" y2="120"
 style="stroke-width:1;stroke:Black;"/>
<text style="font-family:Arial;font-size:12px;kerning:0;word-spacing:-1px;fill:Black;">
<tspan x="93" y="132">oulad:activity_type (6268) [1] D</tspan>
<tspan x="93" y="147">oulad:id_site (6268) [1] D</tspan>
<tspan x="93" y="162">oulad:week_from (1121) [1] D</tspan>
<tspan x="93" y="177">oulad:week_to (1121) [1] D</tspan>
<tspan x="93" y="192">rdf:type (6268) [*]  -&gt; IRI</tspan>
</text>
</g>
<g id="2002724451"><polygon points="375,450 675,450 675,495 375,495 "
style="fill:#F4D03F; stroke-width:1;stroke:Black;"/>
<text style="font-family:Arial;font-size:12px;kerning:0;word-spacing:-1px;fill:Black;font-weight:bold;">
<tspan x="454" y="465">owl:OntologyProperty (4)</tspan>
</text>
</g>
<g id="2002724462"><polygon points="89,264 335,264 335,344 89,344 "
style="fill:#F4D03F; stroke-width:1;stroke:Black;"/>
<text style="font-family:Arial;font-size:12px;kerning:0;word-spacing:-1px;fill:Black;font-weight:bold;">
<tspan x="158" y="279">oulad:Courses (22)</tspan>
</text>
<line x1="93" y1="282" x2="333" y2="282"
 style="stroke-width:1;stroke:Black;"/>
<text style="font-family:Arial;font-size:12px;kerning:0;word-spacing:-1px;fill:Black;">
<tspan x="93" y="294">oulad:code_module (22) [1] D</tspan>
<tspan x="93" y="309">oulad:code_presentation (22) [1] D</tspan>
<tspan x="93" y="324">oulad:length (22) [1] D</tspan>
<tspan x="93" y="339">rdf:type (22) [*]  -&gt; IRI</tspan>
</text>
</g>
<g id="2002724473"><polygon points="368,102 738,102 738,203 368,203 "
style="fill:White; stroke-width:1;stroke:Black;"/>
<text style="font-family:Arial;font-size:12px;kerning:0;word-spacing:-1px;fill:Black;">
<tspan x="372" y="116">PREFIX virtrdf: &lt;http://www.openlinksw.com/schemas/virtrdf#&gt;</tspan>
<tspan x="372" y="131">PREFIX oulad: &lt;https://ontologies.khaos.uma.es/oulad/&gt;</tspan>
<tspan x="372" y="146">PREFIX owl: &lt;http://www.w3.org/2002/07/owl#&gt;</tspan>
<tspan x="372" y="161">PREFIX rdfs: &lt;http://www.w3.org/2000/01/rdf-schema#&gt;</tspan>
<tspan x="372" y="176">PREFIX sd: &lt;http://www.w3.org/ns/sparql-service-description#&gt;</tspan>
<tspan x="372" y="191">PREFIX rdf: &lt;http://www.w3.org/1999/02/22-rdf-syntax-ns#&gt;</tspan>
</text>
</g>
<g id="2002724484"><polygon points="89,400 336,400 336,495 89,495 "
style="fill:#F4D03F; stroke-width:1;stroke:Black;"/>
<text style="font-family:Arial;font-size:12px;kerning:0;word-spacing:-1px;fill:Black;font-weight:bold;">
<tspan x="139" y="415">oulad:Assessments (206)</tspan>
</text>
<line x1="93" y1="418" x2="334" y2="418"
 style="stroke-width:1;stroke:Black;"/>
<text style="font-family:Arial;font-size:12px;kerning:0;word-spacing:-1px;fill:Black;">
<tspan x="93" y="430">oulad:assessment_type (206) [1] D</tspan>
<tspan x="93" y="445">oulad:date (206) [1] D</tspan>
<tspan x="93" y="460">oulad:id_assessment (206) [1] D</tspan>
<tspan x="93" y="475">oulad:weight (206) [1] D</tspan>
<tspan x="93" y="490">rdf:type (206) [*]  -&gt; IRI</tspan>
</text>
</g>
<g id="2002724495"><polygon points="716,236 955,236 955,346 716,346 "
style="fill:#F4D03F; stroke-width:1;stroke:Black;"/>
<text style="font-family:Arial;font-size:12px;kerning:0;word-spacing:-1px;fill:Black;font-weight:bold;">
<tspan x="789" y="251">owl:Ontology (1)</tspan>
</text>
<line x1="720" y1="254" x2="953" y2="254"
 style="stroke-width:1;stroke:Black;"/>
<text style="font-family:Arial;font-size:12px;kerning:0;word-spacing:-1px;fill:Black;">
<tspan x="720" y="266">owl:imports (1) [1] D -&gt; IRI</tspan>
<tspan x="720" y="281">owl:priorVersion (1) [1] D -&gt; IRI</tspan>
<tspan x="720" y="296">owl:versionInfo (1) [1] D</tspan>
<tspan x="720" y="311">rdf:type (1) [*]  -&gt; IRI</tspan>
<tspan x="720" y="326">rdfs:comment (1) [1] D</tspan>
<tspan x="720" y="341">rdfs:isDefinedBy (3) [*] D -&gt; IRI</tspan>
</text>
</g>
<g id="2002796447"><polygon points="296,24 712,24 712,76 296,76 "
style="fill:none; stroke-width:1;stroke:Black;"/>
<text style="font-family:Arial;font-size:18px;kerning:0;word-spacing:-1px;fill:Black;font-weight:bold;">
<tspan x="438" y="44">OULAD Module</tspan>
<tspan x="330" y="66">https://module-oulad.khaos.uma.es/sparql</tspan>
</text>
</g>
<g id="2002724379"><path d="M525,363 L525,329 "
style="fill:none;stroke-width:1;stroke:Black;"/>
<line x1="522" y1="335" x2="525" y2="329"
 style="stroke-width:1;stroke:Black;"/>
<line x1="528" y1="335" x2="525" y2="329"
 style="stroke-width:1;stroke:Black;"/>
<text style="font-family:Arial;font-size:12px;kerning:0;word-spacing:-1px;fill:Black;">
<tspan x="442" y="344">rdfs:domain  D</tspan>
<tspan x="442" y="359">rdfs:range  D</tspan>
</text>
</g>
<g id="2002724384"><path d="M214,400 L214,344 "
style="fill:none;stroke-width:1;stroke:Black;"/>
<line x1="211" y1="350" x2="214" y2="344"
 style="stroke-width:1;stroke:Black;"/>
<line x1="217" y1="350" x2="214" y2="344"
 style="stroke-width:1;stroke:Black;"/>
<text style="font-family:Arial;font-size:12px;kerning:0;word-spacing:-1px;fill:Black;">
<tspan x="11" y="396">oulad:assessment_has_course  DR</tspan>
</text>
</g>
<g id="2002724389"><path d="M212,197 L212,264 "
style="fill:none;stroke-width:1;stroke:Black;"/>
<line x1="209" y1="258" x2="212" y2="264"
 style="stroke-width:1;stroke:Black;"/>
<line x1="215" y1="258" x2="212" y2="264"
 style="stroke-width:1;stroke:Black;"/>
<text style="font-family:Arial;font-size:12px;kerning:0;word-spacing:-1px;fill:Black;">
<tspan x="214" y="212">oulad:vle_has_course  DR</tspan>
</text>
</g>
<g id="2002724394"><path d="M525,428 L525,450 "
style="fill:none;stroke-width:2;stroke:Fuchsia;"/>
<polygon points="530,438 525,428 520,438 "
style="fill:Silver;stroke-width:1;stroke:Black;"/>
<text style="font-family:Arial;font-size:12px;kerning:0;word-spacing:-1px;fill:Black;">
<tspan x="527" y="443"> </tspan>
</text>
</g>
</svg>
