<?xml version="1.0" encoding="UTF-8" standalone="no"?>
<!DOCTYPE svg PUBLIC "-//W3C//DTD SVG 1.1//EN"
"http://www.w3.org/Graphics/SVG/1.1/DTD/svg11.dtd">
<svg version="1.1" xmlns="http://www.w3.org/2000/svg"
xmlns:xlink="http://www.w3.org/1999/xlink" xml:space="preserve"
 width="1789" height="1500" viewBox="0 0 1789 1500">
 onmousemove="movetip(evt)" onmouseup="endmove()">
<rect x="0" y="0" width="100%" height="100%" style="fill:White;"/>
<script type="application/ecmascript"> <![CDATA[
var dragtipid = null; var dragcase = false; function init(evt){
if (window.svgDocument==null) svgDocument = evt.target.ownerDocument;
}
function movetip(evt){if (dragtipid!=null){ dragcase = true;
var tip=svgDocument.getElementById(dragtipid);
tip.setAttributeNS(null,"x",evt.clientX-2);
tip.setAttributeNS(null,"y",evt.clientY-2);
}}
function endmove(){dragtipid = null;}
function startmove(evt,id){dragtipid = id; dragcase = false;
var tip=svgDocument.getElementById(dragtipid);
tip.setAttributeNS(null,"x",evt.clientX-2);
tip.setAttributeNS(null,"y",evt.clientY-2);
}
function Showtip(evt,id){ dragtipid = null;
var tip=svgDocument.getElementById(id);
var vis=tip.getAttributeNS(null,"visibility");
if (vis=="hidden"){
tip.setAttributeNS(null,"x",evt.clientX-2);
tip.setAttributeNS(null,"y",evt.clientY-2);
tip.setAttributeNS(null,"visibility","visible");
}}
function Hidetip(id){ dragtipid = null; if (dragcase==false){
var tip=svgDocument.getElementById(id);
tip.setAttributeNS(null,"visibility","hidden");
}}
]]></script>
<defs><linearGradient id="activ1" x1="0%" y1="0%" x2="100%" y2="0%">
<stop offset="0%" style="stop-color:#FFFF00;stop-opacity:1"/>
<stop offset="100%" style="stop-color:#FFFFF0;stop-opacity:1"/>
</linearGradient></defs>
<g id="2002681528"><polygon points="53,1171 353,1171 353,1216 53,1216 "
style="fill:#F4D03F; stroke-width:1;stroke:Black;"/>
<text style="font-family:Arial;font-size:12px;kerning:0;word-spacing:-1px;fill:Black;font-weight:bold;">
<tspan x="182" y="1186">n50: (1)</tspan>
</text>
</g>
<g id="2002681517"><polygon points="1021,458 1321,458 1321,1108 1021,1108 "
style="fill:#F4D03F; stroke-width:1;stroke:Black;"/>
<text style="font-family:Arial;font-size:12px;kerning:0;word-spacing:-1px;fill:Black;font-weight:bold;">
<tspan x="1124" y="473">lio:Image (8.0e4)</tspan>
</text>
<line x1="1025" y1="476" x2="1319" y2="476"
 style="stroke-width:1;stroke:Black;"/>
<text style="font-family:Arial;font-size:12px;kerning:0;word-spacing:-1px;fill:Black;">
<tspan x="1025" y="488">dbo:date (1) [1] D -&gt; IRI</tspan>
<tspan x="1025" y="503">dbo:location (4) [1] D -&gt; IRI</tspan>
<tspan x="1025" y="518">dc:rights (3.3e4 95%d) [*]  -&gt; IRI</tspan>
<tspan x="1025" y="533">dc:subject (6520) [*] </tspan>
<tspan x="1025" y="548">dc:title (4.0e4) [*] </tspan>
<tspan x="1025" y="563">lio:IsIn (1685) [*]  -&gt; IRI</tspan>
<tspan x="1025" y="578">lio:conveys (588) [*]  -&gt; IRI</tspan>
<tspan x="1025" y="593">lio:folderPath (8.4e4) [*] </tspan>
<tspan x="1025" y="608">lio:hasArtisticElement (3767) [*]  -&gt; IRI</tspan>
<tspan x="1025" y="623">lio:hasColor (3) [*]  -&gt; IRI</tspan>
<tspan x="1025" y="638">lio:hasDepictedBackground (1643) [*]  -&gt; IRI</tspan>
<tspan x="1025" y="653">lio:hasMachineTag (1.5e5) [*] D -&gt; IRI</tspan>
<tspan x="1025" y="668">lio:hasSceneLocation (1.1e4) [*]  -&gt; IRI</tspan>
<tspan x="1025" y="683">lio:hasSetting (1.3e4) [*]  -&gt; IRI</tspan>
<tspan x="1025" y="698">lio:hasTag (1.0e6 99.9%d) [*]  -&gt; IRI</tspan>
<tspan x="1025" y="713">lio:isIn (1073) [*]  -&gt; IRI</tspan>
<tspan x="1025" y="728">lio:isRelated (1982) [*]  -&gt; IRI</tspan>
<tspan x="1025" y="743">lio:location (4039) [1]  -&gt; IRI</tspan>
<tspan x="1025" y="758">lio:materials (4767) [*]  -&gt; IRI</tspan>
<tspan x="1025" y="773">lio:oidImageId (2.3e4) [*] D -&gt; IRI</tspan>
<tspan x="1025" y="788">lio:technique (8546) [*]  -&gt; IRI</tspan>
<tspan x="1025" y="803">n20:AltTextAccessibility (1996) [1] </tspan>
<tspan x="1025" y="818">n20:CiEmailWork (8117 99%d) [*]  -&gt; IRI</tspan>
<tspan x="1025" y="833">n20:CiUrlWork (3.7e4) [*] </tspan>
<tspan x="1025" y="848">n20:ExtDescrAccessibility (1231 99.9%d) [1]  -&gt; IRI</tspan>
<tspan x="1025" y="863">n20:Scene (7756 0.01%d) [*]  -&gt; IRI</tspan>
<tspan x="1025" y="878">n29:WebStatement (8697 4%d) [*]  -&gt; IRI</tspan>
<tspan x="1025" y="893">n29:usageTerms (3.4e4 99.9%d) [1]  -&gt; IRI</tspan>
<tspan x="1025" y="908">n52:type (29) [1] D -&gt; IRI</tspan>
<tspan x="1025" y="923">photoshop:City (1955 98%d) [1]  -&gt; IRI</tspan>
<tspan x="1025" y="938">photoshop:Country (1658 98%d) [1]  -&gt; IRI</tspan>
<tspan x="1025" y="953">photoshop:Credit (1928 99.9%d) [1] D -&gt; IRI</tspan>
<tspan x="1025" y="968">photoshop:DateCreated (4.7e4) [*] </tspan>
<tspan x="1025" y="983">rdf:type (1.6e5) [*]  -&gt; IRI</tspan>
<tspan x="1025" y="998">rdfs:comment (4.1e4 99.9%d) [*]  -&gt; IRI</tspan>
<tspan x="1025" y="1013">rdfs:seeAlso (8.7e4) [*] D -&gt; IRI</tspan>
<tspan x="1025" y="1028">schema:acquireLicensePage (1996) [*] D</tspan>
<tspan x="1025" y="1043">schema:copyrightNotice (3.3e4 95%d) [*] D -&gt; IRI</tspan>
<tspan x="1025" y="1058">schema:keywords (6.8e4) [*] D</tspan>
<tspan x="1025" y="1073">schema:license (8567) [*] D</tspan>
<tspan x="1025" y="1088">schema:name (3.9e4) [*] D</tspan>
<tspan x="1025" y="1103">useplus:LicensorURL (2125) [*] </tspan>
</text>
</g>
<g id="2002681484"><polygon points="470,320 855,320 855,1490 470,1490 "
style="fill:#F4D03F; stroke-width:1;stroke:Black;"/>
<text style="font-family:Arial;font-size:12px;kerning:0;word-spacing:-1px;fill:Black;font-weight:bold;">
<tspan x="579" y="335">schema:ImageObject (8.0e4)</tspan>
</text>
<line x1="474" y1="338" x2="853" y2="338"
 style="stroke-width:1;stroke:Black;"/>
<text style="font-family:Arial;font-size:12px;kerning:0;word-spacing:-1px;fill:Black;">
<tspan x="474" y="350">aas:AffineA (1) [1] D -&gt; IRI</tspan>
<tspan x="474" y="365">aas:AffineB (1) [1] D -&gt; IRI</tspan>
<tspan x="474" y="380">aas:AffineC (1) [1] D -&gt; IRI</tspan>
<tspan x="474" y="395">aas:AffineD (1) [1] D -&gt; IRI</tspan>
<tspan x="474" y="410">aas:AffineX (1) [1] D -&gt; IRI</tspan>
<tspan x="474" y="425">aas:AffineY (1) [1] D -&gt; IRI</tspan>
<tspan x="474" y="440">aas:CropH (1) [1] D -&gt; IRI</tspan>
<tspan x="474" y="455">aas:CropW (1) [1] D -&gt; IRI</tspan>
<tspan x="474" y="470">aas:CropX (1) [1] D -&gt; IRI</tspan>
<tspan x="474" y="485">aas:CropY (1) [1] D -&gt; IRI</tspan>
<tspan x="474" y="500">aas:Curve0x (1) [1] D -&gt; IRI</tspan>
<tspan x="474" y="515">aas:Curve0y (1) [1] D -&gt; IRI</tspan>
<tspan x="474" y="530">aas:Curve1x (1) [1] D -&gt; IRI</tspan>
<tspan x="474" y="545">aas:Curve1y (1) [1] D -&gt; IRI</tspan>
<tspan x="474" y="560">aas:Curve2x (1) [1] D -&gt; IRI</tspan>
<tspan x="474" y="575">aas:Curve2y (1) [1] D -&gt; IRI</tspan>
<tspan x="474" y="590">aas:Curve3x (1) [1] D -&gt; IRI</tspan>
<tspan x="474" y="605">aas:Curve3y (1) [1] D -&gt; IRI</tspan>
<tspan x="474" y="620">aas:Curve4x (1) [1] D -&gt; IRI</tspan>
<tspan x="474" y="635">aas:Curve4y (1) [1] D -&gt; IRI</tspan>
<tspan x="474" y="650">aas:FaceBalanceOrigI (1) [1] D -&gt; IRI</tspan>
<tspan x="474" y="665">aas:FaceBalanceOrigQ (1) [1] D -&gt; IRI</tspan>
<tspan x="474" y="680">aas:FaceBalanceStrength (1) [1] D -&gt; IRI</tspan>
<tspan x="474" y="695">aas:FaceBalanceWarmth (1) [1] D -&gt; IRI</tspan>
<tspan x="474" y="710">auto_1:xmpMM:DerivedFromDocumentID (3372) [*] D -&gt; IRI</tspan>
<tspan x="474" y="725">auto_1:xmpMM:DerivedFromInstanceID (2186) [*] D -&gt; IRI</tspan>
<tspan x="474" y="740">auto_1:xmpMM:DerivedFromOriginalDocumentID (2540) [*] D -&gt; IRI</tspan>
<tspan x="474" y="755">auto_1:xmpMM:DerivedFromRenditionClass (2) [1] D -&gt; IRI</tspan>
<tspan x="474" y="770">auto_1:xmpMM:DocumentID (5758) [*] D -&gt; IRI</tspan>
<tspan x="474" y="785">auto_1:xmpMM:InstanceID (5376) [*] D -&gt; IRI</tspan>
<tspan x="474" y="800">auto_1:xmpMM:ManifestLinkForm (2) [1] D -&gt; IRI</tspan>
<tspan x="474" y="815">auto_1:xmpMM:ManifestPlacedResolutionUnit (1) [1] D -&gt; IRI</tspan>
<tspan x="474" y="830">auto_1:xmpMM:ManifestPlacedXResolution (1) [1] D -&gt; IRI</tspan>
<tspan x="474" y="845">auto_1:xmpMM:ManifestPlacedYResolution (1) [1] D -&gt; IRI</tspan>
<tspan x="474" y="860">auto_1:xmpMM:ManifestReferenceDocumentID (1) [1] D -&gt; IRI</tspan>
<tspan x="474" y="875">auto_1:xmpMM:ManifestReferenceFilePath (1) [1] D -&gt; IRI</tspan>
<tspan x="474" y="890">auto_1:xmpMM:ManifestReferenceInstanceID (1) [1] D -&gt; IRI</tspan>
<tspan x="474" y="905">auto_1:xmpMM:OriginalDocumentID (4041) [*] D -&gt; IRI</tspan>
<tspan x="474" y="920">auto_1:xmpMM:PreservedFileName (46) [*] D -&gt; IRI</tspan>
<tspan x="474" y="935">auto_1:xmpMM:RenditionClass (2) [1] D -&gt; IRI</tspan>
<tspan x="474" y="950">auto_1:xmpMM:VersionID (2) [1] D -&gt; IRI</tspan>
<tspan x="474" y="965">axifca:AEBBracketValue (1) [1] D -&gt; IRI</tspan>
<tspan x="474" y="980">axifca:AFAreaHeight (1) [1] D -&gt; IRI</tspan>
<tspan x="474" y="995">axifca:AFAreaWidth (1) [1] D -&gt; IRI</tspan>
<tspan x="474" y="1010">axifca:AFAreaXPositions (1) [1] D -&gt; IRI</tspan>
<tspan x="474" y="1025">axifca:AFAreaYPositions (1) [1] D -&gt; IRI</tspan>
<tspan x="474" y="1040">axifca:AFImageHeight (1) [1] D -&gt; IRI</tspan>
<tspan x="474" y="1055">axifca:AFImageWidth (1) [1] D -&gt; IRI</tspan>
<tspan x="474" y="1070">axifca:AFPointsInFocus (1) [1] D -&gt; IRI</tspan>
<tspan x="474" y="1085">axifca:AutoExposureBracketing (1) [1] D -&gt; IRI</tspan>
<tspan x="474" y="1100">axifca:AutoISO (1) [1] D -&gt; IRI</tspan>
<tspan x="474" y="1115">axifca:AutoRotate (1) [1] D -&gt; IRI</tspan>
<tspan x="474" y="1130">axifca:BaseISO (1) [1] D -&gt; IRI</tspan>
<tspan x="474" y="1145">axifca:BlackMaskBottomBorder (1) [1] D -&gt; IRI</tspan>
<tspan x="474" y="1160">axifca:BlackMaskLeftBorder (1) [1] D -&gt; IRI</tspan>
<tspan x="474" y="1175">axifca:BlackMaskRightBorder (1) [1] D -&gt; IRI</tspan>
<tspan x="474" y="1190">axifca:BlackMaskTopBorder (1) [1] D -&gt; IRI</tspan>
<tspan x="474" y="1205">axifca:BracketMode (1) [1] D -&gt; IRI</tspan>
<tspan x="474" y="1220">axifca:BracketShotNumber (1) [1] D -&gt; IRI</tspan>
<tspan x="474" y="1235">axifca:BracketValue (1) [1] D -&gt; IRI</tspan>
<tspan x="474" y="1250">axifca:BulbDuration (1) [1] D -&gt; IRI</tspan>
<tspan x="474" y="1265">axifca:CameraType (1) [1] D -&gt; IRI</tspan>
<tspan x="474" y="1280">axifca:CanonExposureMode (1) [1] D -&gt; IRI</tspan>
<tspan x="474" y="1295">axifca:CanonFirmwareVersion (1) [1] D -&gt; IRI</tspan>
<tspan x="474" y="1310">axifca:CanonFlashMode (1) [1] D -&gt; IRI</tspan>
<tspan x="474" y="1325">axifca:CanonImageHeight (1) [1] D -&gt; IRI</tspan>
<tspan x="474" y="1340">axifca:CanonImageSize (1) [1] D -&gt; IRI</tspan>
<tspan x="474" y="1355">axifca:CanonImageType (1) [1] D -&gt; IRI</tspan>
<tspan x="474" y="1370">axifca:CanonImageWidth (1) [1] D -&gt; IRI</tspan>
<tspan x="474" y="1385">axifca:CanonModelID (1) [1] D -&gt; IRI</tspan>
<tspan x="474" y="1400">axifca:ColorTempAsShot (1) [1] D -&gt; IRI</tspan>
<tspan x="474" y="1415">axifca:ColorTempAuto (1) [1] D -&gt; IRI</tspan>
<tspan x="474" y="1430">axifca:ColorTempCloudy (1) [1] D -&gt; IRI</tspan>
<tspan x="474" y="1445">axifca:ColorTempCustom1 (1) [1] D -&gt; IRI</tspan>
<tspan x="474" y="1460">axifca:ColorTempCustom2 (1) [1] D -&gt; IRI</tspan>
<tspan x="474" y="1475">axifca:ColorTempDaylight (1) [1] D -...</tspan>
</text>
</g>
<g id="2002681495"><polygon points="1479,642 1779,642 1779,692 1479,692 "
style="fill:#F4D03F; stroke-width:1;stroke:Black;"/>
<text style="font-family:Arial;font-size:12px;kerning:0;word-spacing:-1px;fill:Black;font-weight:bold;">
<tspan x="1582" y="657">n36:Point (4633)</tspan>
</text>
<line x1="1483" y1="660" x2="1777" y2="660"
 style="stroke-width:1;stroke:Black;"/>
<text style="font-family:Arial;font-size:12px;kerning:0;word-spacing:-1px;fill:Black;">
<tspan x="1483" y="672">n36:lat (4633) [*] </tspan>
<tspan x="1483" y="687">rdf:type (4633) [*]  -&gt; IRI</tspan>
</text>
</g>
<g id="2002681506"><polygon points="1021,1305 1321,1305 1321,1460 1021,1460 "
style="fill:#F4D03F; stroke-width:1;stroke:Black;"/>
<text style="font-family:Arial;font-size:12px;kerning:0;word-spacing:-1px;fill:Black;font-weight:bold;">
<tspan x="1110" y="1320">schema:Person (290)</tspan>
</text>
<line x1="1025" y1="1323" x2="1319" y2="1323"
 style="stroke-width:1;stroke:Black;"/>
<text style="font-family:Arial;font-size:12px;kerning:0;word-spacing:-1px;fill:Black;">
<tspan x="1025" y="1335">lio:isAiming (1) [1] D -&gt; IRI</tspan>
<tspan x="1025" y="1350">lio:isDriving (2) [*] D -&gt; IRI</tspan>
<tspan x="1025" y="1365">lio:isHolding (3) [*]  -&gt; IRI</tspan>
<tspan x="1025" y="1380">lio:isMaking (2) [1] D -&gt; IRI</tspan>
<tspan x="1025" y="1395">lio:isTalkingOn (1) [1] D -&gt; IRI</tspan>
<tspan x="1025" y="1410">lio:isWearing (6) [*]  -&gt; IRI</tspan>
<tspan x="1025" y="1425">lio:with (4) [*]  -&gt; IRI</tspan>
<tspan x="1025" y="1440">rdf:type (290) [*]  -&gt; IRI</tspan>
<tspan x="1025" y="1455">rdfs:label (306) [*] </tspan>
</text>
</g>
<g id="2002681450"><path d="M1321,671 L1479,671 "
style="fill:none;stroke-width:1;stroke:Black;"/>
<line x1="1473" y1="668" x2="1479" y2="671"
 style="stroke-width:1;stroke:Black;"/>
<line x1="1473" y1="674" x2="1479" y2="671"
 style="stroke-width:1;stroke:Black;"/>
<text style="font-family:Arial;font-size:12px;kerning:0;word-spacing:-1px;fill:Black;">
<tspan x="1325" y="669">lio:wasCreatedAt  D</tspan>
</text>
</g>
<g id="2002681460"><path d="M855,1406 L1021,1406 "
style="fill:none;stroke-width:1;stroke:Black;"/>
<line x1="1015" y1="1403" x2="1021" y2="1406"
 style="stroke-width:1;stroke:Black;"/>
<line x1="1015" y1="1409" x2="1021" y2="1406"
 style="stroke-width:1;stroke:Black;"/>
<text style="font-family:Arial;font-size:12px;kerning:0;word-spacing:-1px;fill:Black;">
<tspan x="859" y="1359">foaf:depicts  D</tspan>
<tspan x="859" y="1374">lio:isPartOf  </tspan>
<tspan x="859" y="1389">lio:hasPhotographer  D</tspan>
<tspan x="859" y="1404">lio:AOCreator  DR</tspan>
</text>
</g>
<g id="2002681482"><path d="M1021,773 L855,773 "
style="fill:none;stroke-width:2;stroke:Fuchsia;"/>
<polygon points="1011,778 1021,773 1011,768 "
style="fill:Silver;stroke-width:1;stroke:Black;"/>
<text style="font-family:Arial;font-size:12px;kerning:0;word-spacing:-1px;fill:Black;">
<tspan x="1007" y="786"> </tspan>
</text>
</g>
<g id="2002681465"><path d="M470,326 L345,326 341,324 339,320 339,320 341,316 345,314 476,314 476,320 "
style="fill:none;stroke-width:1;stroke:Black;"/>
<line x1="473" y1="314" x2="476" y2="320"
 style="stroke-width:1;stroke:Black;"/>
<line x1="479" y1="314" x2="476" y2="320"
 style="stroke-width:1;stroke:Black;"/>
<text style="font-family:Arial;font-size:12px;kerning:0;word-spacing:-1px;fill:Black;">
<tspan x="347" y="339">owl:sameAs  DR</tspan>
<tspan x="347" y="354">schema:contentUrl  D</tspan>
</text>
</g>
<g id="2002681470"><path d="M1021,794 L855,794 "
style="fill:none;stroke-width:1;stroke:Black;"/>
<line x1="861" y1="791" x2="855" y2="794"
 style="stroke-width:1;stroke:Black;"/>
<line x1="861" y1="797" x2="855" y2="794"
 style="stroke-width:1;stroke:Black;"/>
<text style="font-family:Arial;font-size:12px;kerning:0;word-spacing:-1px;fill:Black;">
<tspan x="899" y="807">lio:hasVisualPart  </tspan>
<tspan x="899" y="822">schema:thumbnail  D</tspan>
</text>
</g>
<g id="2002681480"><path d="M470,1193 L353,1193 "
style="fill:none;stroke-width:2;stroke:Fuchsia;"/>
<polygon points="460,1198 470,1193 460,1188 "
style="fill:Silver;stroke-width:1;stroke:Black;"/>
<text style="font-family:Arial;font-size:12px;kerning:0;word-spacing:-1px;fill:Black;">
<tspan x="456" y="1206"> </tspan>
</text>
</g>
<g id="2002681475"><path d="M1251,1108 L1251,1305 "
style="fill:none;stroke-width:1;stroke:Black;"/>
<line x1="1248" y1="1299" x2="1251" y2="1305"
 style="stroke-width:1;stroke:Black;"/>
<line x1="1254" y1="1299" x2="1251" y2="1305"
 style="stroke-width:1;stroke:Black;"/>
<text style="font-family:Arial;font-size:12px;kerning:0;word-spacing:-1px;fill:Black;">
<tspan x="1253" y="1123">dc:creator  </tspan>
<tspan x="1253" y="1138">foaf:depiction  D</tspan>
<tspan x="1253" y="1153">lio:shows  </tspan>
<tspan x="1253" y="1168">lio:depicts  </tspan>
<tspan x="1253" y="1183">lio:hasInBackground  </tspan>
<tspan x="1253" y="1198">lio:usesPictorially  </tspan>
<tspan x="1253" y="1213">lio:hasInForeground  </tspan>
<tspan x="1253" y="1228">lio:is  </tspan>
<tspan x="1253" y="1243">n51:Property:P180  D</tspan>
<tspan x="1253" y="1258">schema:creator  D</tspan>
<tspan x="1253" y="1273">schema:about  D</tspan>
<tspan x="1253" y="1288">schema:mentions  D</tspan>
</text>
</g>
<g id="2002681455"><path d="M1321,1322 L1534,1322 1538,1324 1540,1328 1540,1334 1538,1338 1534,1340 1321,1340 "
style="fill:none;stroke-width:1;stroke:Black;"/>
<line x1="1327" y1="1337" x2="1321" y2="1340"
 style="stroke-width:1;stroke:Black;"/>
<line x1="1327" y1="1343" x2="1321" y2="1340"
 style="stroke-width:1;stroke:Black;"/>
<text style="font-family:Arial;font-size:12px;kerning:0;word-spacing:-1px;fill:Black;">
<tspan x="1325" y="1320">lio:is  </tspan>
</text>
</g>
</svg>
