<?xml version="1.0" encoding="UTF-8" standalone="no"?>
<!DOCTYPE svg PUBLIC "-//W3C//DTD SVG 1.1//EN"
"http://www.w3.org/Graphics/SVG/1.1/DTD/svg11.dtd">
<svg version="1.1" xmlns="http://www.w3.org/2000/svg"
xmlns:xlink="http://www.w3.org/1999/xlink" xml:space="preserve"
 width="1321" height="540" viewBox="0 0 1321 540">
 onmousemove="movetip(evt)" onmouseup="endmove()">
<rect x="0" y="0" width="100%" height="100%" style="fill:White;"/>
<script type="application/ecmascript"> <![CDATA[
var dragtipid = null; var dragcase = false; function init(evt){
if (window.svgDocument==null) svgDocument = evt.target.ownerDocument;
}
function movetip(evt){if (dragtipid!=null){ dragcase = true;
var tip=svgDocument.getElementById(dragtipid);
tip.setAttributeNS(null,"x",evt.clientX-2);
tip.setAttributeNS(null,"y",evt.clientY-2);
}}
function endmove(){dragtipid = null;}
function startmove(evt,id){dragtipid = id; dragcase = false;
var tip=svgDocument.getElementById(dragtipid);
tip.setAttributeNS(null,"x",evt.clientX-2);
tip.setAttributeNS(null,"y",evt.clientY-2);
}
function Showtip(evt,id){ dragtipid = null;
var tip=svgDocument.getElementById(id);
var vis=tip.getAttributeNS(null,"visibility");
if (vis=="hidden"){
tip.setAttributeNS(null,"x",evt.clientX-2);
tip.setAttributeNS(null,"y",evt.clientY-2);
tip.setAttributeNS(null,"visibility","visible");
}}
function Hidetip(id){ dragtipid = null; if (dragcase==false){
var tip=svgDocument.getElementById(id);
tip.setAttributeNS(null,"visibility","hidden");
}}
]]></script>
<defs><linearGradient id="activ1" x1="0%" y1="0%" x2="100%" y2="0%">
<stop offset="0%" style="stop-color:#FFFF00;stop-opacity:1"/>
<stop offset="100%" style="stop-color:#FFFFF0;stop-opacity:1"/>
</linearGradient></defs>
<g id="2002688915"><polygon points="485,16 785,16 785,81 485,81 "
style="fill:#F4D03F; stroke-width:1;stroke:Black;"/>
<text style="font-family:Arial;font-size:12px;kerning:0;word-spacing:-1px;fill:Black;font-weight:bold;">
<tspan x="598" y="31">owl:Class (3)</tspan>
</text>
<line x1="489" y1="34" x2="783" y2="34"
 style="stroke-width:1;stroke:Black;"/>
<text style="font-family:Arial;font-size:12px;kerning:0;word-spacing:-1px;fill:Black;">
<tspan x="489" y="46">owl:unionOf (1) [1] D -&gt; IRI</tspan>
<tspan x="489" y="61">rdf:type (3) [*]  -&gt; IRI</tspan>
<tspan x="489" y="76">rdfs:label (2) [1] </tspan>
</text>
</g>
<g id="2002688926"><polygon points="892,382 1192,382 1192,492 892,492 "
style="fill:#F4D03F; stroke-width:1;stroke:Black;"/>
<text style="font-family:Arial;font-size:12px;kerning:0;word-spacing:-1px;fill:Black;font-weight:bold;">
<tspan x="996" y="397">owl:Ontology (1)</tspan>
</text>
<line x1="896" y1="400" x2="1190" y2="400"
 style="stroke-width:1;stroke:Black;"/>
<text style="font-family:Arial;font-size:12px;kerning:0;word-spacing:-1px;fill:Black;">
<tspan x="896" y="412">owl:imports (1) [1] D -&gt; IRI</tspan>
<tspan x="896" y="427">owl:priorVersion (1) [1] D -&gt; IRI</tspan>
<tspan x="896" y="442">owl:versionInfo (1) [1] D</tspan>
<tspan x="896" y="457">rdf:type (1) [*]  -&gt; IRI</tspan>
<tspan x="896" y="472">rdfs:comment (1) [1] D</tspan>
<tspan x="896" y="487">rdfs:isDefinedBy (3) [*] D -&gt; IRI</tspan>
</text>
</g>
<g id="2002688937"><polygon points="510,103 810,103 810,213 510,213 "
style="fill:#F4D03F; stroke-width:1;stroke:Black;"/>
<text style="font-family:Arial;font-size:12px;kerning:0;word-spacing:-1px;fill:Black;font-weight:bold;">
<tspan x="555" y="118">khoulad:StudentAssessment (1.7e5)</tspan>
</text>
<line x1="514" y1="121" x2="808" y2="121"
 style="stroke-width:1;stroke:Black;"/>
<text style="font-family:Arial;font-size:12px;kerning:0;word-spacing:-1px;fill:Black;">
<tspan x="514" y="133">khoulad:date_submitted (1.7e5) [1] D</tspan>
<tspan x="514" y="148">khoulad:is_banked (1.7e5) [1] D</tspan>
<tspan x="514" y="163">khoulad:score (1.7e5) [1] D</tspan>
<tspan x="514" y="178">khoulad:student_assessment_has_assessment (1.</tspan>
<tspan x="514" y="193">7e5) [1] D -&gt; IRI</tspan>
<tspan x="514" y="208">rdf:type (1.7e5) [*]  -&gt; IRI</tspan>
</text>
</g>
<g id="2002688948"><polygon points="850,196 1150,196 1150,241 850,241 "
style="fill:#F4D03F; stroke-width:1;stroke:Black;"/>
<text style="font-family:Arial;font-size:12px;kerning:0;word-spacing:-1px;fill:Black;font-weight:bold;">
<tspan x="924" y="211">owl:AnnotationProperty (5)</tspan>
</text>
<line x1="854" y1="214" x2="1148" y2="214"
 style="stroke-width:1;stroke:Black;"/>
<text style="font-family:Arial;font-size:12px;kerning:0;word-spacing:-1px;fill:Black;">
<tspan x="854" y="226">rdf:type (6) [*]  -&gt; IRI</tspan>
</text>
</g>
<g id="2002688959"><polygon points="1011,273 1311,273 1311,353 1011,353 "
style="fill:#F4D03F; stroke-width:1;stroke:Black;"/>
<text style="font-family:Arial;font-size:12px;kerning:0;word-spacing:-1px;fill:Black;font-weight:bold;">
<tspan x="1083" y="288">khoulad:StudentVle (2.0e6)</tspan>
</text>
<line x1="1015" y1="291" x2="1309" y2="291"
 style="stroke-width:1;stroke:Black;"/>
<text style="font-family:Arial;font-size:12px;kerning:0;word-spacing:-1px;fill:Black;">
<tspan x="1015" y="303">khoulad:date_student_vle (8.5e6) [*] D</tspan>
<tspan x="1015" y="318">khoulad:student_vle_has_vle (2.0e6) [1] D -&gt; IRI</tspan>
<tspan x="1015" y="333">khoulad:sum_click (4.3e6) [*] D</tspan>
<tspan x="1015" y="348">rdf:type (2.0e6) [*]  -&gt; IRI</tspan>
</text>
</g>
<g id="2002688970"><polygon points="510,219 810,219 810,404 510,404 "
style="fill:#F4D03F; stroke-width:1;stroke:Black;"/>
<text style="font-family:Arial;font-size:12px;kerning:0;word-spacing:-1px;fill:Black;font-weight:bold;">
<tspan x="582" y="234">khoulad:StudentInfo (3.3e4)</tspan>
</text>
<line x1="514" y1="237" x2="808" y2="237"
 style="stroke-width:1;stroke:Black;"/>
<text style="font-family:Arial;font-size:12px;kerning:0;word-spacing:-1px;fill:Black;">
<tspan x="514" y="249">khoulad:age_band (3.3e4) [1] D</tspan>
<tspan x="514" y="264">khoulad:disability (3.3e4) [1] D</tspan>
<tspan x="514" y="279">khoulad:final_result (3.3e4) [1] D</tspan>
<tspan x="514" y="294">khoulad:gender (3.3e4) [1] D</tspan>
<tspan x="514" y="309">khoulad:highest_education (3.3e4) [1] D</tspan>
<tspan x="514" y="324">khoulad:id_student (3.3e4) [1] D</tspan>
<tspan x="514" y="339">khoulad:imd_band (3.3e4) [1] D</tspan>
<tspan x="514" y="354">khoulad:num_of_prev_attempts (3.3e4) [1] D</tspan>
<tspan x="514" y="369">khoulad:student_info_has_course (3.3e4) [1] D -&gt; IRI</tspan>
<tspan x="514" y="384">khoulad:studied_credits (3.3e4) [1] D</tspan>
<tspan x="514" y="399">rdf:type (3.3e4) [*]  -&gt; IRI</tspan>
</text>
</g>
<g id="2002688981"><polygon points="10,288 310,288 310,383 10,383 "
style="fill:#F4D03F; stroke-width:1;stroke:Black;"/>
<text style="font-family:Arial;font-size:12px;kerning:0;word-spacing:-1px;fill:Black;font-weight:bold;">
<tspan x="57" y="303">khoulad:StudentRegistration (3.3e4)</tspan>
</text>
<line x1="14" y1="306" x2="308" y2="306"
 style="stroke-width:1;stroke:Black;"/>
<text style="font-family:Arial;font-size:12px;kerning:0;word-spacing:-1px;fill:Black;">
<tspan x="14" y="318">khoulad:date_registration (3.3e4) [1] D</tspan>
<tspan x="14" y="333">khoulad:date_unregistration (3.3e4) [1] D</tspan>
<tspan x="14" y="348">khoulad:student_registration_has_course (3.3e4) [1] </tspan>
<tspan x="14" y="363">D -&gt; IRI</tspan>
<tspan x="14" y="378">rdf:type (3.3e4) [*]  -&gt; IRI</tspan>
</text>
</g>
<g id="2002688992"><polygon points="874,14 1174,14 1174,79 874,79 "
style="fill:#F4D03F; stroke-width:1;stroke:Black;"/>
<text style="font-family:Arial;font-size:12px;kerning:0;word-spacing:-1px;fill:Black;font-weight:bold;">
<tspan x="978" y="29">rdf:Property (23)</tspan>
</text>
<line x1="878" y1="32" x2="1172" y2="32"
 style="stroke-width:1;stroke:Black;"/>
<text style="font-family:Arial;font-size:12px;kerning:0;word-spacing:-1px;fill:Black;">
<tspan x="878" y="44">rdf:type (28) [*]  -&gt; IRI</tspan>
<tspan x="878" y="59">rdfs:label (23) [1] </tspan>
<tspan x="878" y="74">rdfs:subPropertyOf (2) [1] D -&gt; IRI</tspan>
</text>
</g>
<g id="2002689003"><polygon points="857,98 1157,98 1157,143 857,143 "
style="fill:#F4D03F; stroke-width:1;stroke:Black;"/>
<text style="font-family:Arial;font-size:12px;kerning:0;word-spacing:-1px;fill:Black;font-weight:bold;">
<tspan x="936" y="113">owl:OntologyProperty (4)</tspan>
</text>
</g>
<g id="2002689014"><polygon points="573,450 873,450 873,530 573,530 "
style="fill:#F4D03F; stroke-width:1;stroke:Black;"/>
<text style="font-family:Arial;font-size:12px;kerning:0;word-spacing:-1px;fill:Black;font-weight:bold;">
<tspan x="684" y="465">sd:Service (1)</tspan>
</text>
<line x1="577" y1="468" x2="871" y2="468"
 style="stroke-width:1;stroke:Black;"/>
<text style="font-family:Arial;font-size:12px;kerning:0;word-spacing:-1px;fill:Black;">
<tspan x="577" y="480">rdf:type (1) [*]  -&gt; IRI</tspan>
<tspan x="577" y="495">sd:feature (2) [*] D -&gt; IRI</tspan>
<tspan x="577" y="510">sd:resultFormat (8) [*] D -&gt; IRI</tspan>
<tspan x="577" y="525">sd:supportedLanguage (1) [1] D -&gt; IRI</tspan>
</text>
</g>
<g id="2002688883"><path d="M573,490 L478,490 474,488 472,484 472,450 474,446 478,444 723,444 723,450 "
style="fill:none;stroke-width:1;stroke:Black;"/>
<line x1="720" y1="444" x2="723" y2="450"
 style="stroke-width:1;stroke:Black;"/>
<line x1="726" y1="444" x2="723" y2="450"
 style="stroke-width:1;stroke:Black;"/>
<text style="font-family:Arial;font-size:12px;kerning:0;word-spacing:-1px;fill:Black;">
<tspan x="480" y="503">sd:url  DR</tspan>
<tspan x="480" y="518">sd:endpoint  DR</tspan>
</text>
</g>
<g id="2002688888"><path d="M874,47 L785,47 "
style="fill:none;stroke-width:1;stroke:Black;"/>
<line x1="791" y1="44" x2="785" y2="47"
 style="stroke-width:1;stroke:Black;"/>
<line x1="791" y1="50" x2="785" y2="47"
 style="stroke-width:1;stroke:Black;"/>
<text style="font-family:Arial;font-size:12px;kerning:0;word-spacing:-1px;fill:Black;">
<tspan x="789" y="60">rdfs:domain  D</tspan>
<tspan x="789" y="75">rdfs:range  D</tspan>
</text>
</g>
<g id="2002688893"><path d="M1011,312 L810,312 "
style="fill:none;stroke-width:1;stroke:Black;"/>
<line x1="816" y1="309" x2="810" y2="312"
 style="stroke-width:1;stroke:Black;"/>
<line x1="816" y1="315" x2="810" y2="312"
 style="stroke-width:1;stroke:Black;"/>
<text style="font-family:Arial;font-size:12px;kerning:0;word-spacing:-1px;fill:Black;">
<tspan x="814" y="325">khoulad:student_vle_has_student_</tspan>
<tspan x="814" y="340">info  DR</tspan>
</text>
</g>
<g id="2002688898"><path d="M485,49 L352,49 348,47 346,43 346,16 348,12 352,10 635,10 635,16 "
style="fill:none;stroke-width:1;stroke:Black;"/>
<line x1="632" y1="10" x2="635" y2="16"
 style="stroke-width:1;stroke:Black;"/>
<line x1="638" y1="10" x2="635" y2="16"
 style="stroke-width:1;stroke:Black;"/>
<text style="font-family:Arial;font-size:12px;kerning:0;word-spacing:-1px;fill:Black;">
<tspan x="354" y="62">owl:complementOf  DR</tspan>
</text>
</g>
<g id="2002688903"><path d="M510,158 L304,158 300,160 298,164 298,273 300,277 304,279 510,279 "
style="fill:none;stroke-width:1;stroke:Black;"/>
<line x1="504" y1="276" x2="510" y2="279"
 style="stroke-width:1;stroke:Black;"/>
<line x1="504" y1="282" x2="510" y2="279"
 style="stroke-width:1;stroke:Black;"/>
<text style="font-family:Arial;font-size:12px;kerning:0;word-spacing:-1px;fill:Black;">
<tspan x="306" y="171">khoulad:student_assessment_has_</tspan>
<tspan x="306" y="186">student  DR</tspan>
</text>
</g>
<g id="2002688908"><path d="M310,338 L510,338 "
style="fill:none;stroke-width:1;stroke:Black;"/>
<line x1="504" y1="335" x2="510" y2="338"
 style="stroke-width:1;stroke:Black;"/>
<line x1="504" y1="341" x2="510" y2="338"
 style="stroke-width:1;stroke:Black;"/>
<text style="font-family:Arial;font-size:12px;kerning:0;word-spacing:-1px;fill:Black;">
<tspan x="314" y="321">khoulad:student_registration_has_</tspan>
<tspan x="314" y="336">student_info  DR</tspan>
</text>
</g>
<g id="2002688913"><path d="M1016,79 L1016,98 "
style="fill:none;stroke-width:2;stroke:Fuchsia;"/>
<polygon points="1021,89 1016,79 1011,89 "
style="fill:Silver;stroke-width:1;stroke:Black;"/>
<text style="font-family:Arial;font-size:12px;kerning:0;word-spacing:-1px;fill:Black;">
<tspan x="1018" y="94"> </tspan>
</text>
</g>
</svg>
