<?xml version="1.0" encoding="UTF-8" standalone="no"?>
<!DOCTYPE svg PUBLIC "-//W3C//DTD SVG 1.1//EN"
"http://www.w3.org/Graphics/SVG/1.1/DTD/svg11.dtd">
<svg version="1.1" xmlns="http://www.w3.org/2000/svg"
xmlns:xlink="http://www.w3.org/1999/xlink" xml:space="preserve"
 width="1378" height="647" viewBox="0 0 1378 647">
 onmousemove="movetip(evt)" onmouseup="endmove()">
<rect x="0" y="0" width="100%" height="100%" style="fill:White;"/>
<script type="application/ecmascript"> <![CDATA[
var dragtipid = null; var dragcase = false; function init(evt){
if (window.svgDocument==null) svgDocument = evt.target.ownerDocument;
}
function movetip(evt){if (dragtipid!=null){ dragcase = true;
var tip=svgDocument.getElementById(dragtipid);
tip.setAttributeNS(null,"x",evt.clientX-2);
tip.setAttributeNS(null,"y",evt.clientY-2);
}}
function endmove(){dragtipid = null;}
function startmove(evt,id){dragtipid = id; dragcase = false;
var tip=svgDocument.getElementById(dragtipid);
tip.setAttributeNS(null,"x",evt.clientX-2);
tip.setAttributeNS(null,"y",evt.clientY-2);
}
function Showtip(evt,id){ dragtipid = null;
var tip=svgDocument.getElementById(id);
var vis=tip.getAttributeNS(null,"visibility");
if (vis=="hidden"){
tip.setAttributeNS(null,"x",evt.clientX-2);
tip.setAttributeNS(null,"y",evt.clientY-2);
tip.setAttributeNS(null,"visibility","visible");
}}
function Hidetip(id){ dragtipid = null; if (dragcase==false){
var tip=svgDocument.getElementById(id);
tip.setAttributeNS(null,"visibility","hidden");
}}
]]></script>
<defs><linearGradient id="activ1" x1="0%" y1="0%" x2="100%" y2="0%">
<stop offset="0%" style="stop-color:#FFFF00;stop-opacity:1"/>
<stop offset="100%" style="stop-color:#FFFFF0;stop-opacity:1"/>
</linearGradient></defs>
<g id="2002790678"><polygon points="1163,372 1366,372 1366,434 1163,434 "
style="fill:#F4D03F; stroke-width:1;stroke:Black;"/>
<text style="font-family:Arial;font-size:12px;kerning:0;word-spacing:-1px;fill:Black;font-weight:bold;">
<tspan x="1221" y="386">dcat:Catalog (1)</tspan>
</text>
<line x1="1167" y1="389" x2="1365" y2="389"
 style="stroke-width:1;stroke:Black;"/>
<text style="font-family:Arial;font-size:12px;kerning:0;word-spacing:-1px;fill:Black;">
<tspan x="1167" y="401">dct:description (1) [1] </tspan>
<tspan x="1167" y="415">dct:title (1) [1] </tspan>
<tspan x="1167" y="429">rdf:type (1) [*]  -&gt; IRI</tspan>
</text>
</g>
<g id="2002790689"><polygon points="338,293 541,293 541,400 338,400 "
style="fill:#FFB0B0; stroke-width:1;stroke:Black;"/>
<polygon points="335,296 538,296 538,402 335,402 "
style="fill:#FFB0B0; stroke-width:1;stroke:Black;"/>
<text style="font-family:Arial;font-size:12px;kerning:0;word-spacing:-1px;fill:Black;font-weight:bold;">
<tspan x="361" y="311">:Physics et al. G101 (~612)</tspan>
</text>
<text style="font-family:Arial;font-size:11px;kerning:0;word-spacing:-1px;fill:Black;font-weight:bold;">
<tspan x="339" y="326">:Chemistry (114)</tspan>
<tspan x="339" y="340">:Economic_Sciences (53)</tspan>
<tspan x="339" y="354">:Literature (114)</tspan>
<tspan x="339" y="368">:Peace (103)</tspan>
<tspan x="339" y="382">:Physics (115)</tspan>
<tspan x="339" y="396">:Physiology_or_Medicine (113)</tspan>
</text>
</g>
<g id="2002790700"><polygon points="1226,274 1363,274 1363,322 1226,322 "
style="fill:#F4D03F; stroke-width:1;stroke:Black;"/>
<text style="font-family:Arial;font-size:12px;kerning:0;word-spacing:-1px;fill:Black;font-weight:bold;">
<tspan x="1258" y="289">foaf:Agent (1)</tspan>
</text>
<line x1="1229" y1="291" x2="1361" y2="291"
 style="stroke-width:1;stroke:Black;"/>
<text style="font-family:Arial;font-size:12px;kerning:0;word-spacing:-1px;fill:Black;">
<tspan x="1229" y="303">foaf:name (1) [*] </tspan>
<tspan x="1229" y="317">rdf:type (1) [*]  -&gt; IRI</tspan>
</text>
</g>
<g id="2002790711"><polygon points="436,524 695,524 695,630 436,630 "
style="fill:#F4D03F; stroke-width:1;stroke:Black;"/>
<text style="font-family:Arial;font-size:12px;kerning:0;word-spacing:-1px;fill:Black;font-weight:bold;">
<tspan x="518" y="539">foaf:Person (949)</tspan>
</text>
<line x1="440" y1="541" x2="693" y2="541"
 style="stroke-width:1;stroke:Black;"/>
<text style="font-family:Arial;font-size:12px;kerning:0;word-spacing:-1px;fill:Black;">
<tspan x="440" y="553">dbp:dateOfBirth (949) [1] D</tspan>
<tspan x="440" y="567">dbp:dateOfDeath (650) [1] D</tspan>
<tspan x="440" y="581">foaf:birthday (949) [1] D</tspan>
<tspan x="440" y="595">foaf:familyName (947) [1] D</tspan>
<tspan x="440" y="609">foaf:gender (949) [1] D</tspan>
<tspan x="440" y="623">foaf:givenName (949) [1] D</tspan>
</text>
</g>
<g id="2002790722"><polygon points="641,115 844,115 844,163 641,163 "
style="fill:#F4D03F; stroke-width:1;stroke:Black;"/>
<text style="font-family:Arial;font-size:12px;kerning:0;word-spacing:-1px;fill:Black;font-weight:bold;">
<tspan x="688" y="130">dbo:University (341)</tspan>
</text>
<line x1="645" y1="132" x2="842" y2="132"
 style="stroke-width:1;stroke:Black;"/>
<text style="font-family:Arial;font-size:12px;kerning:0;word-spacing:-1px;fill:Black;">
<tspan x="645" y="144">rdf:type (341) [*]  -&gt; IRI</tspan>
<tspan x="645" y="158">rdfs:label (1023) [*] </tspan>
</text>
</g>
<g id="2002790733"><polygon points="192,419 396,419 396,517 192,517 "
style="fill:#F4D03F; stroke-width:1;stroke:Black;"/>
<text style="font-family:Arial;font-size:12px;kerning:0;word-spacing:-1px;fill:Black;font-weight:bold;">
<tspan x="253" y="434">:Laureate (976)</tspan>
</text>
<line x1="196" y1="436" x2="394" y2="436"
 style="stroke-width:1;stroke:Black;"/>
<text style="font-family:Arial;font-size:12px;kerning:0;word-spacing:-1px;fill:Black;">
<tspan x="196" y="448">:nobelPrize (984) [*]  -&gt; dgr,IRI</tspan>
<tspan x="196" y="462">foaf:name (1024) [*] </tspan>
<tspan x="196" y="476">owl:sameAs (976) [1]  -&gt; IRI</tspan>
<tspan x="196" y="490">rdf:type (1952) [*]  -&gt; IRI</tspan>
<tspan x="196" y="504">rdfs:label (975) [*] </tspan>
</text>
</g>
<g id="2002790744"><polygon points="715,506 848,506 848,569 715,569 "
style="fill:#FFB0B0; stroke-width:1;stroke:Black;"/>
<polygon points="712,509 845,509 845,572 712,572 "
style="fill:#FFB0B0; stroke-width:1;stroke:Black;"/>
<text style="font-family:Arial;font-size:12px;kerning:0;word-spacing:-1px;fill:Black;font-weight:bold;">
<tspan x="717" y="523">male or female G103 (</tspan>
<tspan x="763" y="538">~949)</tspan>
</text>
<text style="font-family:Arial;font-size:11px;kerning:0;word-spacing:-1px;fill:Black;font-weight:bold;">
<tspan x="716" y="553">female (60)</tspan>
<tspan x="716" y="567">male (889)</tspan>
</text>
</g>
<g id="2002790755"><polygon points="335,223 538,223 538,266 335,266 "
style="fill:#F4D03F; stroke-width:1;stroke:Black;"/>
<text style="font-family:Arial;font-size:12px;kerning:0;word-spacing:-1px;fill:Black;font-weight:bold;">
<tspan x="389" y="238">:NobelPrize (612)</tspan>
</text>
<line x1="339" y1="240" x2="537" y2="240"
 style="stroke-width:1;stroke:Black;"/>
<text style="font-family:Arial;font-size:12px;kerning:0;word-spacing:-1px;fill:Black;">
<tspan x="339" y="252">:categoryOrder (612) [1] D</tspan>
</text>
</g>
<g id="2002790766"><polygon points="29,205 233,205 233,267 29,267 "
style="fill:#F4D03F; stroke-width:1;stroke:Black;"/>
<text style="font-family:Arial;font-size:12px;kerning:0;word-spacing:-1px;fill:Black;font-weight:bold;">
<tspan x="72" y="220">:LaureateAward (984)</tspan>
</text>
<line x1="33" y1="222" x2="231" y2="222"
 style="stroke-width:1;stroke:Black;"/>
<text style="font-family:Arial;font-size:12px;kerning:0;word-spacing:-1px;fill:Black;">
<tspan x="33" y="234">:share (984) [1] D</tspan>
<tspan x="33" y="248">:sortOrder (984) [1] D</tspan>
<tspan x="33" y="262">dct:isPartOf (984) [1]  -&gt; dgr,IRI</tspan>
</text>
</g>
<g id="2002790777"><polygon points="248,111 452,111 452,203 248,203 "
style="fill:#F4D03F; stroke-width:1;stroke:Black;"/>
<text style="font-family:Arial;font-size:12px;kerning:0;word-spacing:-1px;fill:Black;font-weight:bold;">
<tspan x="302" y="126">dbo:Award (1596)</tspan>
</text>
<line x1="252" y1="128" x2="450" y2="128"
 style="stroke-width:1;stroke:Black;"/>
<text style="font-family:Arial;font-size:12px;kerning:0;word-spacing:-1px;fill:Black;">
<tspan x="252" y="140">:category (1596) [1] D -&gt; IRI</tspan>
<tspan x="252" y="154">:motivation (1968) [*] D</tspan>
<tspan x="252" y="168">:year (1596) [1] D</tspan>
<tspan x="252" y="182">rdf:type (3192) [*]  -&gt; IRI</tspan>
<tspan x="252" y="196">rdfs:label (4788) [*] </tspan>
</text>
</g>
<g id="2002790788"><polygon points="955,526 1159,526 1159,574 955,574 "
style="fill:#F4D03F; stroke-width:1;stroke:Black;"/>
<text style="font-family:Arial;font-size:12px;kerning:0;word-spacing:-1px;fill:Black;font-weight:bold;">
<tspan x="1013" y="541">dct:Standard (1)</tspan>
</text>
<line x1="959" y1="543" x2="1157" y2="543"
 style="stroke-width:1;stroke:Black;"/>
<text style="font-family:Arial;font-size:12px;kerning:0;word-spacing:-1px;fill:Black;">
<tspan x="959" y="555">dct:title (1) [1] </tspan>
<tspan x="959" y="569">rdf:type (1) [*]  -&gt; IRI</tspan>
</text>
</g>
<g id="2002790799"><polygon points="1165,106 1368,106 1368,169 1165,169 "
style="fill:#F4D03F; stroke-width:1;stroke:Black;"/>
<text style="font-family:Arial;font-size:12px;kerning:0;word-spacing:-1px;fill:Black;font-weight:bold;">
<tspan x="1216" y="121">vcard:Individual (1)</tspan>
</text>
<line x1="1169" y1="124" x2="1366" y2="124"
 style="stroke-width:1;stroke:Black;"/>
<text style="font-family:Arial;font-size:12px;kerning:0;word-spacing:-1px;fill:Black;">
<tspan x="1169" y="136">rdf:type (1) [*]  -&gt; IRI</tspan>
<tspan x="1169" y="150">vcard:fn (1) [1] D</tspan>
<tspan x="1169" y="164">vcard:hasEmail (1) [1] D -&gt; IRI</tspan>
</text>
</g>
<g id="2002790810"><polygon points="693,237 844,237 844,281 693,281 "
style="fill:#F4D03F; stroke-width:1;stroke:Black;"/>
<text style="font-family:Arial;font-size:12px;kerning:0;word-spacing:-1px;fill:Black;font-weight:bold;">
<tspan x="730" y="252">dbo:City (951)</tspan>
</text>
</g>
<g id="2002790821"><polygon points="947,378 1150,378 1150,484 947,484 "
style="fill:#F4D03F; stroke-width:1;stroke:Black;"/>
<text style="font-family:Arial;font-size:12px;kerning:0;word-spacing:-1px;fill:Black;font-weight:bold;">
<tspan x="994" y="393">dcat:Distribution (3)</tspan>
</text>
<line x1="951" y1="396" x2="1148" y2="396"
 style="stroke-width:1;stroke:Black;"/>
<text style="font-family:Arial;font-size:12px;kerning:0;word-spacing:-1px;fill:Black;">
<tspan x="951" y="408">adms:status (2) [1] D -&gt; IRI</tspan>
<tspan x="951" y="422">dcat:accessURL (3) [1] D -&gt; IRI</tspan>
<tspan x="951" y="436">dct:format (3) [1] D</tspan>
<tspan x="951" y="450">dct:license (3) [1] D -&gt; IRI</tspan>
<tspan x="951" y="464">dct:title (3) [1] </tspan>
<tspan x="951" y="478">rdf:type (3) [*]  -&gt; IRI</tspan>
</text>
</g>
<g id="2002790832"><polygon points="43,548 247,548 247,596 43,596 "
style="fill:#F4D03F; stroke-width:1;stroke:Black;"/>
<text style="font-family:Arial;font-size:12px;kerning:0;word-spacing:-1px;fill:Black;font-weight:bold;">
<tspan x="86" y="563">foaf:Organization (27)</tspan>
</text>
<line x1="47" y1="565" x2="245" y2="565"
 style="stroke-width:1;stroke:Black;"/>
<text style="font-family:Arial;font-size:12px;kerning:0;word-spacing:-1px;fill:Black;">
<tspan x="47" y="577">dct:created (26) [1] D</tspan>
<tspan x="47" y="591">sschema:foundingDate (26) [1] D</tspan>
</text>
</g>
<g id="2002790843"><polygon points="86,289 291,289 291,410 86,410 "
style="fill:#FFB0B0; stroke-width:1;stroke:Black;"/>
<polygon points="83,291 289,291 289,413 83,413 "
style="fill:#FFB0B0; stroke-width:1;stroke:Black;"/>
<text style="font-family:Arial;font-size:12px;kerning:0;word-spacing:-1px;fill:Black;font-weight:bold;">
<tspan x="92" y="306">categ:Physiology_or_Medicine et </tspan>
<tspan x="143" y="321">al. G102 (~984)</tspan>
</text>
<text style="font-family:Arial;font-size:11px;kerning:0;word-spacing:-1px;fill:Black;font-weight:bold;">
<tspan x="87" y="336">categ:Chemistry (191)</tspan>
<tspan x="87" y="350">categ:Economic_Sciences (89)</tspan>
<tspan x="87" y="364">categ:Literature (118)</tspan>
<tspan x="87" y="378">categ:Peace (140)</tspan>
<tspan x="87" y="392">categ:Physics (221)</tspan>
<tspan x="87" y="406">categ:Physiology_or_Medicine (225)</tspan>
</text>
</g>
<g id="2002790854"><polygon points="952,107 1156,107 1156,286 952,286 "
style="fill:#F4D03F; stroke-width:1;stroke:Black;"/>
<text style="font-family:Arial;font-size:12px;kerning:0;word-spacing:-1px;fill:Black;font-weight:bold;">
<tspan x="1010" y="122">dcat:Dataset (1)</tspan>
</text>
<line x1="956" y1="124" x2="1154" y2="124"
 style="stroke-width:1;stroke:Black;"/>
<text style="font-family:Arial;font-size:12px;kerning:0;word-spacing:-1px;fill:Black;">
<tspan x="956" y="136">dcat:keyword (1) [1] D</tspan>
<tspan x="956" y="150">dcat:landingPage (1) [1] D -&gt; IRI</tspan>
<tspan x="956" y="164">dcat:theme (4) [*] D -&gt; IRI</tspan>
<tspan x="956" y="178">dct:accessRights (1) [1] D -&gt; IRI</tspan>
<tspan x="956" y="192">dct:accrualPeriodicity (1) [1] D -&gt; IRI</tspan>
<tspan x="956" y="206">dct:description (1) [1] </tspan>
<tspan x="956" y="220">dct:issued (1) [1] D</tspan>
<tspan x="956" y="234">dct:language (3) [*] D -&gt; IRI</tspan>
<tspan x="956" y="248">dct:spatial (1) [1] D -&gt; IRI</tspan>
<tspan x="956" y="262">dct:title (1) [1] </tspan>
<tspan x="956" y="276">rdf:type (1) [*]  -&gt; IRI</tspan>
</text>
</g>
<g id="2002790865"><polygon points="1185,493 1365,493 1365,541 1185,541 "
style="fill:#F4D03F; stroke-width:1;stroke:Black;"/>
<text style="font-family:Arial;font-size:12px;kerning:0;word-spacing:-1px;fill:Black;font-weight:bold;">
<tspan x="1218" y="508">dct:PeriodOfTime (1)</tspan>
</text>
<line x1="1189" y1="510" x2="1364" y2="510"
 style="stroke-width:1;stroke:Black;"/>
<text style="font-family:Arial;font-size:12px;kerning:0;word-spacing:-1px;fill:Black;">
<tspan x="1189" y="522">rdf:type (1) [*]  -&gt; IRI</tspan>
<tspan x="1189" y="536">schema:startDate (1) [1] D</tspan>
</text>
</g>
<g id="2002790876"><polygon points="627,301 753,301 753,345 627,345 "
style="fill:#F4D03F; stroke-width:1;stroke:Black;"/>
<text style="font-family:Arial;font-size:12px;kerning:0;word-spacing:-1px;fill:Black;font-weight:bold;">
<tspan x="641" y="316">dbo:Country (127)</tspan>
</text>
</g>
<g id="2002790887"><polygon points="689,363 857,363 857,441 689,441 "
style="fill:#FBECAE; stroke-width:1;stroke:Black;"/>
<text style="font-family:Arial;font-size:12px;kerning:0;word-spacing:-1px;fill:Black;font-weight:bold;">
<tspan x="706" y="378">dbo:City or dbo:Country </tspan>
<tspan x="736" y="393">S104 (~1078)</tspan>
</text>
<line x1="693" y1="396" x2="855" y2="396"
 style="stroke-width:1;stroke:Black;"/>
<text style="font-family:Arial;font-size:12px;kerning:0;word-spacing:-1px;fill:Black;">
<tspan x="693" y="408">owl:sameAs (90) [1]  -&gt; IRI</tspan>
<tspan x="693" y="422">rdf:type (127) [*]  -&gt; IRI</tspan>
<tspan x="693" y="436">rdfs:label (381) [*] </tspan>
</text>
</g>
<g id="2002799110"><polygon points="618,39 959,39 959,89 618,89 "
style="fill:none; stroke-width:1;stroke:Black;"/>
<text style="font-family:Arial;font-size:17px;kerning:0;word-spacing:-1px;fill:Black;font-weight:bold;">
<tspan x="737" y="58">Nobel Prizes</tspan>
<tspan x="661" y="79">http://data.nobelprize.org/sparql</tspan>
</text>
</g>
<g id="2002790898"><path d="M1156,246 L1296,246 1300,248 1302,252 1302,274 "
style="fill:none;stroke-width:1;stroke:Black;"/>
<line x1="1299" y1="268" x2="1302" y2="274"
 style="stroke-width:1;stroke:Black;"/>
<line x1="1305" y1="268" x2="1302" y2="274"
 style="stroke-width:1;stroke:Black;"/>
<text style="font-family:Arial;font-size:12px;kerning:0;word-spacing:-1px;fill:Black;">
<tspan x="1160" y="245">dct:publisher (1) </tspan>
</text>
</g>
<g id="2002790903"><path d="M556,524 L556,145 558,141 562,139 641,139 "
style="fill:none;stroke-width:1;stroke:Black;"/>
<line x1="635" y1="136" x2="641" y2="139"
 style="stroke-width:1;stroke:Black;"/>
<line x1="635" y1="142" x2="641" y2="139"
 style="stroke-width:1;stroke:Black;"/>
<text style="font-family:Arial;font-size:12px;kerning:0;word-spacing:-1px;fill:Black;">
<tspan x="450" y="521">dbo:affiliation (797) </tspan>
</text>
</g>
<g id="2002790908"><path d="M689,524 L689,493 691,489 695,487 757,487 760,485 762,482 762,441 "
style="fill:none;stroke-width:1;stroke:Black;"/>
<line x1="759" y1="447" x2="762" y2="441"
 style="stroke-width:1;stroke:Black;"/>
<line x1="765" y1="447" x2="762" y2="441"
 style="stroke-width:1;stroke:Black;"/>
<text style="font-family:Arial;font-size:12px;kerning:0;word-spacing:-1px;fill:Black;">
<tspan x="564" y="506">dbo:birthPlace (2004) </tspan>
<tspan x="564" y="520">dbo:deathPlace (1308) </tspan>
</text>
</g>
<g id="2002790913"><path d="M452,159 L544,159 548,161 550,165 550,435 548,439 544,441 396,441 "
style="fill:none;stroke-width:1;stroke:Black;"/>
<line x1="401" y1="438" x2="396" y2="441"
 style="stroke-width:1;stroke:Black;"/>
<line x1="401" y1="444" x2="396" y2="441"
 style="stroke-width:1;stroke:Black;"/>
<text style="font-family:Arial;font-size:12px;kerning:0;word-spacing:-1px;fill:Black;">
<tspan x="456" y="158">:laureate (1966) </tspan>
</text>
</g>
<g id="2002790918"><path d="M396,435 L538,435 542,433 544,429 544,247 538,247 "
style="fill:none;stroke-width:1;stroke:Black;"/>
<line x1="544" y1="244" x2="538" y2="247"
 style="stroke-width:1;stroke:Black;"/>
<line x1="544" y1="250" x2="538" y2="247"
 style="stroke-width:1;stroke:Black;"/>
<text style="font-family:Arial;font-size:12px;kerning:0;word-spacing:-1px;fill:Black;">
<tspan x="400" y="434">:nobelPrize (982) </tspan>
</text>
</g>
<g id="2002790923"><path d="M659,163 L659,301 "
style="fill:none;stroke-width:1;stroke:Black;"/>
<line x1="656" y1="295" x2="659" y2="301"
 style="stroke-width:1;stroke:Black;"/>
<line x1="662" y1="295" x2="659" y2="301"
 style="stroke-width:1;stroke:Black;"/>
<text style="font-family:Arial;font-size:12px;kerning:0;word-spacing:-1px;fill:Black;">
<tspan x="661" y="178">dbo:country (345) </tspan>
</text>
</g>
<g id="2002790928"><path d="M1156,215 L1339,215 1343,213 1345,209 1345,169 "
style="fill:none;stroke-width:1;stroke:Black;"/>
<line x1="1342" y1="175" x2="1345" y2="169"
 style="stroke-width:1;stroke:Black;"/>
<line x1="1348" y1="175" x2="1345" y2="169"
 style="stroke-width:1;stroke:Black;"/>
<text style="font-family:Arial;font-size:12px;kerning:0;word-spacing:-1px;fill:Black;">
<tspan x="1160" y="214">dcat:contactPoint (1) </tspan>
</text>
</g>
<g id="2002790933"><path d="M233,261 L335,261 "
style="fill:none;stroke-width:1;stroke:Black;"/>
<line x1="329" y1="258" x2="335" y2="261"
 style="stroke-width:1;stroke:Black;"/>
<line x1="329" y1="263" x2="335" y2="261"
 style="stroke-width:1;stroke:Black;"/>
<text style="font-family:Arial;font-size:12px;kerning:0;word-spacing:-1px;fill:Black;">
<tspan x="236" y="259">dct:isPartOf (982) </tspan>
</text>
</g>
<g id="2002790938"><path d="M1027,286 L1027,378 "
style="fill:none;stroke-width:1;stroke:Black;"/>
<line x1="1024" y1="372" x2="1027" y2="378"
 style="stroke-width:1;stroke:Black;"/>
<line x1="1030" y1="372" x2="1027" y2="378"
 style="stroke-width:1;stroke:Black;"/>
<text style="font-family:Arial;font-size:12px;kerning:0;word-spacing:-1px;fill:Black;">
<tspan x="1029" y="301">dcat:distribution (3) </tspan>
</text>
</g>
<g id="2002790943"><path d="M1200,372 L1200,278 1199,274 1195,272 1156,272 "
style="fill:none;stroke-width:1;stroke:Black;"/>
<line x1="1162" y1="269" x2="1156" y2="272"
 style="stroke-width:1;stroke:Black;"/>
<line x1="1162" y1="275" x2="1156" y2="272"
 style="stroke-width:1;stroke:Black;"/>
<text style="font-family:Arial;font-size:12px;kerning:0;word-spacing:-1px;fill:Black;">
<tspan x="1114" y="368">dcat:dataset (1) </tspan>
</text>
</g>
<g id="2002790948"><path d="M335,230 L233,230 "
style="fill:none;stroke-width:1;stroke:Black;"/>
<line x1="238" y1="227" x2="233" y2="230"
 style="stroke-width:1;stroke:Black;"/>
<line x1="238" y1="233" x2="233" y2="230"
 style="stroke-width:1;stroke:Black;"/>
<text style="font-family:Arial;font-size:12px;kerning:0;word-spacing:-1px;fill:Black;">
<tspan x="237" y="243">dct:hasPart (982) </tspan>
</text>
</g>
<g id="2002790953"><path d="M247,591 L425,591 428,593 430,596 430,630 432,634 436,636 845,636 849,634 851,630 851,441 "
style="fill:none;stroke-width:1;stroke:Black;"/>
<line x1="848" y1="447" x2="851" y2="441"
 style="stroke-width:1;stroke:Black;"/>
<line x1="854" y1="447" x2="851" y2="441"
 style="stroke-width:1;stroke:Black;"/>
<text style="font-family:Arial;font-size:12px;kerning:0;word-spacing:-1px;fill:Black;">
<tspan x="251" y="589">sschema:foundingLocation (44) </tspan>
</text>
</g>
<g id="2002790958"><path d="M1034,484 L1034,526 "
style="fill:none;stroke-width:1;stroke:Black;"/>
<line x1="1032" y1="520" x2="1034" y2="526"
 style="stroke-width:1;stroke:Black;"/>
<line x1="1037" y1="520" x2="1034" y2="526"
 style="stroke-width:1;stroke:Black;"/>
<text style="font-family:Arial;font-size:12px;kerning:0;word-spacing:-1px;fill:Black;">
<tspan x="1036" y="499">dct:conformsTo (2) </tspan>
</text>
</g>
<g id="2002790963"><path d="M124,205 L124,104 126,100 130,98 758,98 762,100 764,104 764,115 "
style="fill:none;stroke-width:1;stroke:Black;"/>
<line x1="761" y1="109" x2="764" y2="115"
 style="stroke-width:1;stroke:Black;"/>
<line x1="767" y1="109" x2="764" y2="115"
 style="stroke-width:1;stroke:Black;"/>
<text style="font-family:Arial;font-size:12px;kerning:0;word-spacing:-1px;fill:Black;">
<tspan x="37" y="201">:university (799) </tspan>
</text>
</g>
<g id="2002790968"><path d="M192,481 L53,481 49,479 47,475 47,267 "
style="fill:none;stroke-width:1;stroke:Black;"/>
<line x1="44" y1="273" x2="47" y2="267"
 style="stroke-width:1;stroke:Black;"/>
<line x1="50" y1="273" x2="47" y2="267"
 style="stroke-width:1;stroke:Black;"/>
<text style="font-family:Arial;font-size:12px;kerning:0;word-spacing:-1px;fill:Black;">
<tspan x="75" y="494">:laureateAward (984) </tspan>
</text>
</g>
<g id="2002790973"><path d="M774,163 L774,237 "
style="fill:none;stroke-width:1;stroke:Black;"/>
<line x1="771" y1="232" x2="774" y2="237"
 style="stroke-width:1;stroke:Black;"/>
<line x1="777" y1="232" x2="774" y2="237"
 style="stroke-width:1;stroke:Black;"/>
<text style="font-family:Arial;font-size:12px;kerning:0;word-spacing:-1px;fill:Black;">
<tspan x="776" y="178">dbo:city (338) </tspan>
</text>
</g>
<g id="2002790978"><path d="M1344,372 L1344,322 "
style="fill:none;stroke-width:1;stroke:Black;"/>
<line x1="1341" y1="328" x2="1344" y2="322"
 style="stroke-width:1;stroke:Black;"/>
<line x1="1347" y1="328" x2="1344" y2="322"
 style="stroke-width:1;stroke:Black;"/>
<text style="font-family:Arial;font-size:12px;kerning:0;word-spacing:-1px;fill:Black;">
<tspan x="1254" y="368">dct:publisher (1) </tspan>
</text>
</g>
<g id="2002790983"><path d="M452,182 L493,182 497,184 499,188 499,223 "
style="fill:none;stroke-width:2;stroke:Fuchsia;"/>
<polygon points="461,187 452,182 461,178 "
style="fill:Silver;stroke-width:1;stroke:Black;"/>
<text style="font-family:Arial;font-size:12px;kerning:0;word-spacing:-1px;fill:Black;">
<tspan x="456" y="181"> </tspan>
</text>
</g>
<g id="2002790985"><path d="M396,506 L436,506 440,508 442,511 442,524 "
style="fill:none;stroke-width:2;stroke:Fuchsia;"/>
<polygon points="405,510 396,506 405,501 "
style="fill:Silver;stroke-width:1;stroke:Black;"/>
<text style="font-family:Arial;font-size:12px;kerning:0;word-spacing:-1px;fill:Black;">
<tspan x="400" y="504"> </tspan>
</text>
</g>
<g id="2002790987"><path d="M222,517 L222,548 "
style="fill:none;stroke-width:2;stroke:Fuchsia;"/>
<polygon points="227,527 222,517 217,527 "
style="fill:Silver;stroke-width:1;stroke:Black;"/>
<text style="font-family:Arial;font-size:12px;kerning:0;word-spacing:-1px;fill:Black;">
<tspan x="224" y="532"> </tspan>
</text>
</g>
<g id="2002790989"><path d="M695,551 L712,551 "
style="fill:none;stroke-width:2;stroke:Fuchsia;"/>
<polygon points="704,556 695,551 704,546 "
style="fill:Silver;stroke-width:1;stroke:Black;"/>
<text style="font-family:Arial;font-size:12px;kerning:0;word-spacing:-1px;fill:Black;">
<tspan x="699" y="550"> </tspan>
</text>
</g>
<g id="2002790991"><path d="M197,267 L197,291 "
style="fill:none;stroke-width:2;stroke:Fuchsia;"/>
<polygon points="202,277 197,267 192,277 "
style="fill:Silver;stroke-width:1;stroke:Black;"/>
<text style="font-family:Arial;font-size:12px;kerning:0;word-spacing:-1px;fill:Black;">
<tspan x="199" y="282"> </tspan>
</text>
</g>
<g id="2002790993"><path d="M744,363 L744,345 "
style="fill:none;stroke-width:2;stroke:Fuchsia;"/>
<polygon points="749,353 744,363 739,353 "
style="fill:Silver;stroke-width:1;stroke:Black;"/>
<text style="font-family:Arial;font-size:12px;kerning:0;word-spacing:-1px;fill:Black;">
<tspan x="732" y="359"> </tspan>
</text>
</g>
<g id="2002790995"><path d="M831,363 L831,281 "
style="fill:none;stroke-width:2;stroke:Fuchsia;"/>
<polygon points="836,353 831,363 826,353 "
style="fill:Silver;stroke-width:1;stroke:Black;"/>
<text style="font-family:Arial;font-size:12px;kerning:0;word-spacing:-1px;fill:Black;">
<tspan x="819" y="359"> </tspan>
</text>
</g>
<g id="2002790997"><path d="M493,266 L493,296 "
style="fill:none;stroke-width:2;stroke:Fuchsia;"/>
<polygon points="498,276 493,266 488,276 "
style="fill:Silver;stroke-width:1;stroke:Black;"/>
<text style="font-family:Arial;font-size:12px;kerning:0;word-spacing:-1px;fill:Black;">
<tspan x="495" y="281"> </tspan>
</text>
</g>
<g id="2002790999"><path d="M248,172 L233,172 229,174 227,178 227,205 "
style="fill:none;stroke-width:2;stroke:Fuchsia;"/>
<polygon points="238,177 248,172 238,167 "
style="fill:Silver;stroke-width:1;stroke:Black;"/>
<text style="font-family:Arial;font-size:12px;kerning:0;word-spacing:-1px;fill:Black;">
<tspan x="235" y="185"> </tspan>
</text>
</g>
</svg>
